<svg xmlns="http://www.w3.org/2000/svg" viewBox="0 0 512 455.18"><path d="M107.98 331.84h-.23l-.38-.01.31.35.3-.34zM382.62 19.95v415.28h81.71c7.61 0 14.54-3.13 19.56-8.16 5.04-5 8.16-11.92 8.16-19.55V47.67c0-7.61-3.12-14.55-8.15-19.57-5.02-5.03-11.95-8.15-19.57-8.15h-81.71zm-19.94 415.28V19.95H47.67c-7.62 0-14.56 3.12-19.58 8.14-5.02 5.02-8.14 11.96-8.14 19.58v359.85c0 7.6 3.12 14.53 8.15 19.56 5.02 5.03 11.96 8.15 19.57 8.15h315.01zm-44.8-60.66h6.76c7.04-21.8 8.85-22.65 6.67-39.09-5.3-40.07-41.02-60.53-38.67-85.5 2.7-28.66 15.4-37.48 21.79-61.77 3.33-12.67 12.19-49.01 4.98-60.3-4.54-7.12-14.6-8.67-22.25-12.16-25.22-11.46-32.99-23.37-30.75-45.16H232.7c2.24 21.79-5.52 33.7-30.74 45.16-7.67 3.49-17.72 5.04-22.27 12.16-7.2 11.29 1.66 47.63 5 60.3 6.39 24.29 19.07 33.11 21.78 61.77 2.35 24.97-33.36 45.43-38.67 85.5-2.18 16.44-.38 17.29 6.67 39.09h7.16v6.08c0 2.17 1.78 3.94 3.95 3.94h128.36c2.16 0 3.94-1.77 3.94-3.94v-6.08zM47.67 0h416.66c13.11 0 25.04 5.38 33.67 14 8.63 8.64 14 20.57 14 33.67v359.85c0 13.06-5.38 24.99-14.02 33.63-8.63 8.66-20.55 14.03-33.65 14.03H47.67c-13.1 0-25.03-5.37-33.67-14-8.62-8.63-14-20.56-14-33.66V47.67C0 34.56 5.37 22.63 14 14 22.63 5.37 34.56 0 47.67 0zm341.08 44.13h62.93V59.8h-62.93V44.13zm0 39.03h36.41v15.67h-36.41V83.16zm0 312.21h36.41v15.67h-36.41v-15.67zm0-39.02h62.93v15.68h-62.93v-15.68zm0-39.03h36.41v15.67h-36.41v-15.67zm0-39.03h62.93v15.68h-62.93v-15.68zm0-39.01h36.41v15.67h-36.41v-15.67zm0-39.04h62.93v15.67h-62.93v-15.67zm0-39.03h36.41v15.67h-36.41v-15.67zm0-39.03h62.93v15.67h-62.93v-15.67zM133.54 75.83c4.42 0 8 3.58 8 8 0 4.41-3.58 8-8 8H81.96c-4.41 0-7.99-3.59-7.99-8 0-4.42 3.58-8 7.99-8h51.58zm0 287.54c4.42 0 8 3.58 8 8 0 4.41-3.58 7.99-8 7.99H81.96c-4.41 0-7.99-3.58-7.99-7.99 0-4.42 3.58-8 7.99-8h51.58zm.78-233.15c2.88 3.33 2.51 8.37-.82 11.25-3.32 2.88-8.36 2.51-11.24-.81l-6.51-7.52v189.72l6.51-7.52c2.88-3.33 7.92-3.69 11.24-.81 3.33 2.88 3.7 7.91.82 11.25l-20.54 23.71c-2.88 3.33-7.92 3.69-11.25.81l-.73-.72-20.55-23.08c-2.93-3.29-2.64-8.34.65-11.27 3.29-2.94 8.34-2.64 11.28.65l6.58 7.39V132.71l-6.58 7.39c-2.94 3.3-7.99 3.59-11.28.66-3.29-2.93-3.58-7.98-.65-11.27l20.53-23.09.75-.71c3.33-2.88 8.37-2.52 11.25.81l20.54 23.72zm-25.63-5.24-1.01-1.17-1.06 1.2c.37-.05.74-.09 1.13-.09l.94.06z"></path></svg>