<svg xmlns="http://www.w3.org/2000/svg" viewBox="0 0 18 18"><path d="m8.6 10.2-.4-3.4c-.1-1-.7-1.7-1.5-2.1.6-.5.9-1.2.9-2C7.7 1.2 6.5 0 5 0a2.69 2.69 0 0 0-1.8 4.7c-.7.4-1.3 1.2-1.4 2.1l-.4 3.4c0 .3.1.7.3.9.2.3.6.4.9.4h.2l.2 5.4c0 .6.5 1.1 1.2 1.1h1.7c.6 0 1.1-.5 1.1-1.1l.3-5.4h.2c.3 0 .6-.2.9-.4.2-.2.3-.6.2-.9zM5 .9c1 0 1.8.8 1.8 1.8S6 4.5 5 4.5s-1.8-.8-1.8-1.8S4 .9 5 .9zm2.7 9.6s-.1.1-.2.1h-.7c-.2 0-.4.2-.4.4l-.3 5.8c0 .2-.1.3-.3.3H4.2c-.2 0-.3-.1-.3-.3L3.6 11c0-.2-.2-.4-.4-.4h-.6c-.1 0-.2-.1-.2-.1s-.1-.1-.1-.3l.4-3.4c.1-.8.8-1.4 1.7-1.4h1.2c.9 0 1.6.7 1.7 1.5l.4 3.4c.1.1 0 .2 0 .2z"></path><path d="M15.4 0h-4.8c-.4 0-.8.4-.8.8v16.3c0 .4.4.8.8.8h4.8c.4 0 .8-.4.8-.8V.8c0-.4-.4-.8-.8-.8zm0 17.2h-4.8v-.6h1.6v-.8h-1.6V15h1.6v-.8h-1.6v-.8H13v-.8h-2.4v-.8h1.6V11h-1.6v-.8h1.6v-.8h-1.6v-.8H13v-.8h-2.4V7h1.6v-.8h-1.6v-.8h1.6v-.8h-1.6v-.8H13V3h-2.4v-.8h1.6v-.8h-1.6V.8h4.8v16.4z"></path></svg>