<svg width="13" height="15" viewBox="0 0 13 15" fill="none" xmlns="http://www.w3.org/2000/svg">
<path d="M4.04492 8.625C4.20898 8.625 4.37305 8.48828 4.37305 8.29688V7.20312C4.37305 7.03906 4.20898 6.875 4.04492 6.875H2.95117C2.75977 6.875 2.62305 7.03906 2.62305 7.20312V8.29688C2.62305 8.48828 2.75977 8.625 2.95117 8.625H4.04492ZM6.99805 8.29688V7.20312C6.99805 7.03906 6.83398 6.875 6.66992 6.875H5.57617C5.38477 6.875 5.24805 7.03906 5.24805 7.20312V8.29688C5.24805 8.48828 5.38477 8.625 5.57617 8.625H6.66992C6.83398 8.625 6.99805 8.48828 6.99805 8.29688ZM9.62305 8.29688V7.20312C9.62305 7.03906 9.45898 6.875 9.29492 6.875H8.20117C8.00977 6.875 7.87305 7.03906 7.87305 7.20312V8.29688C7.87305 8.48828 8.00977 8.625 8.20117 8.625H9.29492C9.45898 8.625 9.62305 8.48828 9.62305 8.29688ZM6.99805 10.9219V9.82812C6.99805 9.66406 6.83398 9.5 6.66992 9.5H5.57617C5.38477 9.5 5.24805 9.66406 5.24805 9.82812V10.9219C5.24805 11.1133 5.38477 11.25 5.57617 11.25H6.66992C6.83398 11.25 6.99805 11.1133 6.99805 10.9219ZM4.37305 10.9219V9.82812C4.37305 9.66406 4.20898 9.5 4.04492 9.5H2.95117C2.75977 9.5 2.62305 9.66406 2.62305 9.82812V10.9219C2.62305 11.1133 2.75977 11.25 2.95117 11.25H4.04492C4.20898 11.25 4.37305 11.1133 4.37305 10.9219ZM9.62305 10.9219V9.82812C9.62305 9.66406 9.45898 9.5 9.29492 9.5H8.20117C8.00977 9.5 7.87305 9.66406 7.87305 9.82812V10.9219C7.87305 11.1133 8.00977 11.25 8.20117 11.25H9.29492C9.45898 11.25 9.62305 11.1133 9.62305 10.9219ZM12.248 3.8125C12.248 3.10156 11.6465 2.5 10.9355 2.5H9.62305V1.07812C9.62305 0.914062 9.45898 0.75 9.29492 0.75H8.20117C8.00977 0.75 7.87305 0.914062 7.87305 1.07812V2.5H4.37305V1.07812C4.37305 0.914062 4.20898 0.75 4.04492 0.75H2.95117C2.75977 0.75 2.62305 0.914062 2.62305 1.07812V2.5H1.31055C0.572266 2.5 -0.00195312 3.10156 -0.00195312 3.8125V13.4375C-0.00195312 14.1758 0.572266 14.75 1.31055 14.75H10.9355C11.6465 14.75 12.248 14.1758 12.248 13.4375V3.8125ZM10.9355 13.2734C10.9355 13.3828 10.8535 13.4375 10.7715 13.4375H1.47461C1.36523 13.4375 1.31055 13.3828 1.31055 13.2734V5.125H10.9355V13.2734Z" fill="#939393"/>
</svg>
