<svg xmlns="http://www.w3.org/2000/svg" width="359" height="211" viewBox="0 0 359 211" fill="none">    <path d="M343.815 180.366C343.695 186.252 343.239 192.12 342.662 197.974C342.644 198.1 342.674 198.208 342.722 198.296C298.674 198.309 254.632 198.321 210.59 198.34C166.584 198.353 122.584 198.372 78.5842 198.385C53.9596 198.391 29.335 198.404 4.7044 198.41C1.26897 190.076 2.68038 179.968 7.95966 172.82C13.7254 165.016 24.0497 163.691 29.5452 155.552C34.6443 148.019 35.377 138.221 36.2599 129.313C37.1308 120.499 38.6743 110.303 45.0827 103.893C52.6984 96.2717 63.8155 98.7258 73.323 97.8675C82.2959 97.0537 89.6052 92.303 94.8965 84.7258C107.413 66.7763 103.623 42.9595 111.539 23.1613C115.269 13.8237 121.647 5.9877 130.897 2.49222C139.894 -0.914383 149.869 -0.289764 159.071 1.82375C169.251 4.16429 178.824 8.63156 188.65 12.1583C193.839 14.0195 199.131 15.6472 204.548 16.5871C209.941 17.5144 215.281 17.521 220.716 17.136C226.116 16.7577 231.515 16.3727 236.842 17.5775C241.191 18.5559 245.347 20.3661 249.119 22.8394C256.854 27.9054 262.92 35.7541 265.683 44.915C270.914 62.2718 265.569 83.7474 277.461 98.6435C288.704 112.726 308.566 112.404 322.23 122.656C339.527 135.64 344.248 159.35 343.815 180.366Z" fill="#F6F7F7"/>    <path d="M0.724609 197.977L351.529 197.531C351.529 197.531 311.504 210.977 168.663 210.977C25.8208 210.977 0.724609 197.977 0.724609 197.977Z" fill="#F6F7F7"/>    <path d="M345.368 197.68L345.35 197.788H192.023C193.22 193.765 196.564 190.512 200.37 188.582C204.656 186.416 209.504 185.682 214.261 184.975C210.302 180.48 207.428 175.035 205.96 169.226C204.828 164.785 204.919 159.239 208.688 156.648C211.189 154.926 214.533 155.107 217.487 155.787C222.834 157.011 227.854 159.62 231.914 163.308C230.799 155.325 231.198 147.141 233.065 139.303C234.206 134.555 236.544 129.281 241.274 128.058C245.552 126.943 249.892 129.725 252.938 132.933C257.396 137.636 260.522 143.59 261.873 149.933C266.657 141.433 271.632 132.706 279.298 126.68C283.349 123.499 288.995 121.143 293.562 123.535C296.796 125.23 298.564 128.946 298.89 132.589C299.207 136.223 298.319 139.847 297.431 143.381C296.244 148.129 295.057 152.878 293.87 157.618C299.651 153.993 306.149 151.519 312.873 150.377C315.6 149.914 318.572 149.715 320.983 151.075C324.318 152.959 325.504 157.382 324.761 161.133C324.028 164.894 321.78 168.147 319.587 171.283C317.521 174.236 315.455 177.182 313.389 180.136C319.877 178.251 327.091 179.04 333.008 182.284C338.934 185.537 343.474 191.201 345.368 197.68Z" fill="white"/>    <path d="M244.906 152.194V197.402C244.906 197.985 245.813 197.982 245.813 197.397V152.19C245.813 151.607 244.906 151.61 244.906 152.194Z" fill="#98DCD3"/>    <path d="M289.174 175.835C286.398 179.319 283.757 182.91 281.246 186.589V172.711C281.285 172.636 281.301 172.554 281.297 172.472C283.372 169.124 285.585 165.864 287.932 162.7C288.279 162.233 287.491 161.784 287.147 162.247C285.073 165.044 283.109 167.919 281.246 170.859V149.744C281.246 149.161 280.34 149.165 280.34 149.75V171.782C277.122 170.233 273.646 169.277 270.506 167.558C269.995 167.278 269.54 168.062 270.054 168.343C273.342 170.143 276.998 171.104 280.34 172.787V186.503C277.463 184.872 274.628 183.17 271.853 181.371C271.363 181.054 270.911 181.84 271.4 182.156C274.321 184.049 277.306 185.844 280.34 187.55V196.79C280.34 197.373 281.246 197.37 281.246 196.785V188.156C281.267 188.135 281.29 188.122 281.308 188.095C283.985 184.111 286.819 180.235 289.81 176.48C290.169 176.029 289.536 175.379 289.174 175.835Z" fill="#F6F7F7"/>    <path d="M253.113 157.495C250.19 161.076 247.473 164.82 244.983 168.714C244.668 169.206 245.454 169.658 245.768 169.167C248.215 165.341 250.877 161.659 253.75 158.141C254.115 157.694 253.482 157.044 253.113 157.495Z" fill="#98DCD3"/>    <path d="M253.991 179.018C250.815 182.492 247.839 186.142 245.071 189.949C244.728 190.42 245.516 190.869 245.856 190.402C248.576 186.66 251.506 183.077 254.627 179.665C255.02 179.235 254.385 178.588 253.991 179.018Z" fill="#98DCD3"/>    <path d="M245.434 179.674C244.503 178.192 243.144 176.958 241.958 175.683C240.693 174.324 239.429 172.966 238.165 171.608C237.766 171.179 237.122 171.817 237.519 172.244C238.748 173.564 239.976 174.884 241.205 176.204C241.81 176.855 242.415 177.506 243.021 178.156C243.602 178.781 244.191 179.398 244.647 180.124C244.957 180.617 245.745 180.169 245.434 179.674Z" fill="#98DCD3"/>    <path d="M245.646 160.092C243.449 157.612 241.137 155.236 238.717 152.974C238.291 152.576 237.645 153.212 238.072 153.611C240.491 155.872 242.804 158.247 245.001 160.727C245.389 161.165 246.032 160.526 245.646 160.092Z" fill="#98DCD3"/>    <path d="M146.736 197.77H2.66142C1.97248 193.592 5.9419 189.814 9.91067 188.01C16.0728 185.201 23.2224 184.622 29.7563 186.388C26.068 182.32 22.5611 177.87 20.9935 172.606C19.426 167.34 20.1869 161.07 24.1377 157.254C27.7173 153.802 33.2992 152.995 38.1022 154.301C42.9136 155.605 47.0284 158.741 50.4986 162.311C47.2091 154.019 47.1731 144.486 50.3989 136.168C51.8944 132.307 54.7671 128.257 58.9082 128.102C60.9923 128.03 62.9857 128.991 64.6896 130.205C69.1935 133.404 72.2019 138.37 73.9959 143.598C75.7905 148.818 76.4794 154.355 77.1497 159.838C79.1887 155.859 82.1521 152.37 85.731 149.706C89.3923 146.997 94.4397 145.175 98.4361 147.359C102.369 149.507 103.583 154.564 103.846 159.048C104.181 164.794 103.647 170.594 102.242 176.176C106.945 172.569 112.518 169.968 118.408 169.307C124.299 168.636 130.497 170.013 135.209 173.612C142.476 179.157 145.123 188.762 146.736 197.77Z" fill="white"/>    <path d="M61.3036 183.151V171.325C61.3649 171.289 61.422 171.241 61.4664 171.165C64.0568 166.748 66.885 162.475 69.9391 158.365C70.2862 157.897 69.4988 157.448 69.1541 157.911C66.3391 161.7 63.7253 165.633 61.3036 169.684V141.869C61.3036 141.286 60.3967 141.289 60.3967 141.874V182.115C57.1325 178.748 53.9547 175.299 50.891 171.748C50.5091 171.306 49.8664 171.945 50.2454 172.385C53.5139 176.172 56.9012 179.854 60.3967 183.432V196.612C60.3967 197.195 61.3036 197.192 61.3036 196.607V193.419C63.5913 190.132 66.1307 187.029 68.8964 184.132C69.2994 183.711 68.6634 183.064 68.2604 183.487C65.7469 186.119 63.431 188.931 61.3036 191.882V183.351C61.3193 183.286 61.3217 183.22 61.3036 183.151Z" fill="#F6F7F7"/>    <path d="M96.3273 169.648C93.9099 172.726 91.6684 175.935 89.5994 179.256C89.6606 176.697 89.7141 174.138 89.7922 171.581C89.8648 169.213 89.9447 166.846 90.0312 164.478C90.0528 163.896 89.1465 163.9 89.1249 164.483C88.8396 172.273 88.6402 180.066 88.5111 187.86C85.5742 186.231 82.7573 184.393 80.0967 182.342C79.6366 181.987 79.1874 182.775 79.6432 183.126C82.4354 185.279 85.3952 187.203 88.4907 188.889C88.4865 189.135 88.4792 189.382 88.475 189.628C88.4396 191.997 88.412 194.365 88.391 196.733C88.3856 197.317 89.2919 197.313 89.2973 196.729C89.3213 194.057 89.3573 191.386 89.403 188.715C89.4198 188.648 89.4228 188.579 89.4072 188.512C89.4504 185.973 89.5015 183.433 89.5585 180.894C89.6282 180.86 89.6937 180.811 89.7441 180.728C91.9411 177.11 94.3489 173.622 96.9633 170.293C97.3189 169.84 96.6864 169.19 96.3273 169.648Z" fill="#98DCD3"/>    <path d="M42.9974 183.019C41.0413 185.349 39.2052 187.777 37.4677 190.275C37.6304 187.094 37.7692 183.912 37.8653 180.728C37.8833 180.145 36.9764 180.149 36.959 180.733C36.7908 186.318 36.5193 191.898 36.1458 197.472C36.1067 198.054 37.013 198.047 37.0521 197.467C37.1824 195.523 37.2839 193.577 37.3896 191.631C37.5205 191.625 37.6515 191.57 37.7446 191.434C39.5788 188.748 41.5428 186.155 43.6334 183.664C44.0058 183.221 43.3722 182.572 42.9974 183.019Z" fill="#F6F7F7"/>    <path d="M75.9512 197.775H261.513C261.513 197.775 286.514 125.548 227.566 129.676C227.566 129.676 222.635 80.1256 171.599 80.1256C120.564 80.1256 113.313 134.034 113.313 134.034C113.313 134.034 52.1224 116.602 75.9512 197.775Z" fill="#FFFEFD"/>    <path d="M261.512 197.772H135.387C194.366 195.998 173.51 154.296 173.51 154.296C236.51 142.059 203.604 88.9768 203.604 88.9768C224.937 103.221 227.568 129.674 227.568 129.674C286.513 125.546 261.512 197.772 261.512 197.772Z" fill="#E0E2EC"/>    <path d="M209.646 105.766L204.463 109.237C204.349 109.069 203.502 107.862 201.905 106.18C200.968 105.189 199.766 104.03 198.301 102.835C198.229 102.775 198.157 102.715 198.085 102.654C195.766 100.781 192.806 98.8166 189.19 97.195C186.379 95.9398 183.172 94.8887 179.556 94.2521C179.496 94.2461 179.43 94.2341 179.352 94.2221C177.118 93.8377 174.733 93.6155 172.181 93.6034C172.079 93.5974 171.977 93.5974 171.887 93.5974C170.313 93.5974 168.812 93.6515 167.376 93.7536C165.13 93.9038 163.04 94.174 161.094 94.5344C160.523 94.6365 159.959 94.7506 159.412 94.8767C158.487 95.0749 157.592 95.3031 156.727 95.5434C154.655 96.132 152.769 96.8106 151.07 97.5614C149.496 98.2521 148.079 98.9908 146.806 99.7536C146.601 99.8737 146.403 99.9938 146.211 100.114C145.004 100.871 143.929 101.645 142.98 102.396C142.019 103.165 141.196 103.916 140.487 104.618C140.325 104.775 140.169 104.931 140.025 105.087C137.917 107.273 137.028 108.907 137.004 108.961L131.49 106.042C131.616 105.778 132.866 103.495 135.67 100.606C136.379 99.8797 137.184 99.111 138.103 98.3302C139.262 97.3332 140.595 96.3061 142.121 95.3091C142.721 94.9128 143.346 94.5224 144.007 94.138C144.703 93.7296 145.436 93.3272 146.199 92.9428C149.1 91.4593 152.505 90.132 156.463 89.147C156.727 89.0809 156.998 89.0149 157.28 88.9548C157.971 88.7926 158.679 88.6365 159.4 88.4983C161.28 88.132 163.268 87.8437 165.382 87.6515C166.451 87.5494 167.568 87.4773 168.703 87.4293C169.01 87.4173 169.316 87.4052 169.634 87.3932C170.367 87.3692 171.112 87.3572 171.887 87.3572C172.151 87.3572 172.427 87.3572 172.691 87.3632C173.61 87.3812 174.505 87.4173 175.376 87.4773C175.977 87.5194 176.571 87.5674 177.154 87.6275C177.262 87.6335 177.376 87.6455 177.484 87.6575C187.46 88.7506 195.028 92.6245 200.319 96.5164C201.13 97.117 201.893 97.7115 202.595 98.3061C204.013 99.4833 205.214 100.63 206.199 101.651C208.355 103.886 209.496 105.543 209.646 105.766Z" fill="#E0E2EC"/>    <path d="M106.375 141.399C104.792 140.708 103.017 140.674 101.311 140.722C99.7601 140.766 98.204 140.957 96.6845 141.272C93.5818 141.917 90.5601 143.155 87.8971 144.873C82.4785 148.369 78.5914 153.829 76.9854 160.072C76.0851 163.57 75.9469 167.188 76.5103 170.75C76.6376 171.551 77.6238 172.006 78.3493 171.811C79.201 171.584 79.5385 170.776 79.4112 169.972C78.5469 164.51 79.8418 158.782 82.7884 154.127C85.7349 149.471 90.446 146.101 95.7289 144.599C97.2088 144.179 98.7235 143.891 100.259 143.78C101.05 143.722 101.843 143.704 102.636 143.726C103.342 143.746 104.211 143.71 104.873 143.999C105.616 144.323 106.486 144.208 106.924 143.45C107.295 142.807 107.123 141.725 106.375 141.399Z" fill="#F6F7F7"/>    <path d="M81.496 189.102C80.4636 185.798 79.9032 182.394 79.8407 178.932C79.8263 178.122 79.1488 177.434 78.3308 177.439C77.526 177.443 76.8227 178.135 76.8371 178.948C76.9038 182.65 77.4912 186.345 78.5951 189.879C78.8365 190.654 79.6281 191.157 80.4341 190.941C81.1945 190.737 81.7386 189.879 81.496 189.102Z" fill="#F6F7F7"/>    <path d="M128.801 113.75C123.523 119.601 120.037 126.991 119.023 134.816C118.918 135.62 119.243 136.425 120.098 136.648C120.807 136.833 121.825 136.382 121.929 135.573C122.875 128.278 125.975 121.359 130.91 115.889C132.201 114.459 130.097 112.314 128.801 113.75Z" fill="#F6F7F7"/>    <path d="M179.808 150.084H175.647V165.028C175.647 167.088 173.977 168.757 171.918 168.757H168.828C166.769 168.757 165.099 167.088 165.099 165.028V150.084H160.942C159.304 150.084 158.315 148.271 159.2 146.893L168.632 132.225C169.447 130.957 171.3 130.957 172.115 132.224L181.55 146.893C182.436 148.271 181.447 150.084 179.808 150.084Z" fill="#7880CA"/>    <path d="M209.57 181.288H131.562V163.771C131.562 162.412 132.662 161.311 134.021 161.311H136.309C137.667 161.311 138.769 162.412 138.769 163.771V174.081H202.363V163.771C202.363 162.412 203.464 161.311 204.823 161.311H207.11C208.469 161.311 209.57 162.412 209.57 163.771V181.288Z" fill="#7880CA"/>    <path d="M161.347 54.5719C165.124 50.59 171.383 50.4218 175.353 54.1816C179.335 57.9593 179.503 64.2176 175.725 68.1996C171.959 72.1695 165.701 72.3377 161.719 68.5599C157.749 64.8002 157.581 58.5419 161.347 54.5719ZM162.668 37.1665L133.269 68.1816C138.512 67.3287 143.911 67.4068 149.112 68.4038C151.659 68.8843 154.284 69.653 156.091 71.4969C158.5 73.9533 158.92 77.659 159.118 81.0945C159.263 83.5629 159.359 86.0314 159.401 88.4999C159.419 89.3887 159.425 90.2776 159.425 91.1665L159.785 91.1545C162.788 91.0524 165.797 90.9323 168.794 90.8242C173.052 90.674 177.371 90.5299 181.425 91.7551C184.512 92.692 187.437 94.5719 189.19 97.1965C192.806 98.8182 195.767 100.782 198.085 102.656C198.157 102.716 198.229 102.776 198.302 102.836L202.596 98.3076L214.217 86.0434L162.668 37.1665Z" fill="#7880CA"/>    <path d="M165.149 34.5531L162.098 31.6582L120.86 75.1477L142.122 95.3098L146.806 99.7542C148.08 98.9915 149.497 98.2527 151.071 97.5621L146.2 92.9434L127.023 74.7633L133.269 68.1807L162.668 37.1657L214.218 86.0425L202.596 98.3068L198.302 102.835C199.767 104.031 200.968 105.19 201.905 106.181L206.2 101.652L220.272 86.8113L165.149 34.5531Z" fill="#F2F9FA"/>    <path d="M189.191 97.1965C186.38 95.9413 183.173 94.8902 179.557 94.2536C179.497 94.2476 179.431 94.2356 179.353 94.2236C177.119 93.8392 174.734 93.617 172.182 93.605C172.08 93.5989 171.978 93.5989 171.888 93.5989C170.314 93.5989 168.812 93.653 167.377 93.7551C165.131 93.9053 163.041 94.1755 161.095 94.5359C160.524 94.638 159.96 94.7521 159.413 94.8782C159.431 93.641 159.437 92.4037 159.425 91.1665L159.785 91.1545C162.788 91.0524 165.797 90.9323 168.794 90.8242C173.053 90.674 177.371 90.5299 181.425 91.7551C184.512 92.692 187.437 94.5719 189.191 97.1965Z" fill="#7880CA"/>    <path d="M159.425 91.165C159.437 92.4022 159.431 93.6395 159.413 94.8767C158.488 95.0749 157.593 95.3031 156.728 95.5434C154.656 96.132 152.77 96.8107 151.07 97.5614L146.2 92.9428L127.022 74.7626L133.269 68.18C138.512 67.3272 143.911 67.4053 149.113 68.4023C151.659 68.8827 154.284 69.6515 156.092 71.4954C158.5 73.9518 158.92 77.6575 159.119 81.0929C159.263 83.5614 159.359 86.0299 159.401 88.4984C159.419 89.3872 159.425 90.2761 159.425 91.165Z" fill="#7880CA"/>    <path d="M175.351 54.1834C179.334 57.9594 179.501 64.2182 175.725 68.2008C171.961 72.1708 165.703 72.3371 161.719 68.5612C157.75 64.7978 157.584 58.5389 161.347 54.5696C165.123 50.587 171.382 50.42 175.351 54.1834Z" fill="#F1483F"/>    <path d="M321.157 130.258L313.946 124.363L308.052 131.573L315.262 137.467L321.157 130.258ZM325.989 129.772L313.461 119.531L303.22 132.059L315.748 142.3L325.989 129.772ZM313.322 118.139L327.38 129.632L315.886 143.692L301.828 132.199L313.322 118.139Z" fill="#FFFEFD"/>    <path d="M322.548 130.122L315.401 138.861L306.662 131.714L313.809 122.975L322.548 130.122Z" fill="#FFFEFD"/>    <path d="M55.084 119.181C55.084 117.827 56.1819 116.729 57.5362 116.729C58.8906 116.729 59.9885 117.827 59.9885 119.181C59.9885 120.535 58.8906 121.633 57.5362 121.633C56.1819 121.633 55.084 120.535 55.084 119.181Z" fill="white"/>    <path d="M216.453 35.6284L202.708 93.9623L124.68 75.5761L138.425 17.2422L216.453 35.6284ZM203.15 70.629L210.837 38.0074L141.694 21.7149L131.892 63.3112L129.811 72.1431L172.03 82.0914L198.954 88.4356L203.15 70.629Z" fill="#F2F9FA"/>    <path d="M141.733 21.4232L129.438 72.5854L198.939 89.2572L211.339 37.8865L141.733 21.4232Z" fill="#2B2B39"/>    <path d="M351.696 197.572C345.6 201.532 340.613 197.858 340.613 197.858C339.299 198.833 335.331 199.154 335.331 199.154C331.881 197.689 330.2 194.355 329.432 192.085C328.976 190.744 328.842 189.779 328.842 189.779C328.591 187.803 329.718 186.668 329.718 186.668C326.294 181.913 326.598 172.77 326.598 172.77L322.192 168.784C322.371 173.932 324.06 176.595 324.686 179.116H324.695C325.213 181.207 325.007 183.191 322.585 186.4C317.249 193.47 305.183 190.905 291.267 192.344C277.36 193.783 257.866 190.297 253.129 188.858C249.831 187.848 247.177 186.221 245.729 183.728C245.076 182.637 244.665 181.377 244.531 179.938C244.093 175.335 246.336 164.225 246.462 163.591C246.167 164.011 241.912 170.196 236.612 168.39C233.931 167.488 231.464 165.968 229.024 162.67C226.432 159.211 223.885 153.786 221.159 145.036C215.831 127.956 214.732 120.376 214.732 120.376C215.152 116.721 217.932 114.781 217.932 114.781C220.604 114.45 226.584 109.74 226.584 109.74C228.032 110.482 228.005 112.386 228.005 112.386C228.005 112.386 228.738 112.189 230.91 113.494C233.081 114.799 238.346 126.132 238.346 126.132C238.346 126.132 246.077 104.163 251.279 100.588C256.481 97.0038 268.735 95.3414 268.735 95.3414C268.735 95.3414 268.922 93.8219 275.805 91.3193C282.696 88.8167 292.465 90.363 293.877 91.1495C295.289 91.945 297.488 94.6264 297.488 94.6264C302.699 97.3077 319.716 104.815 323.354 112.904C327.001 120.984 341.954 130.896 352.598 156.163C363.243 181.44 357.8 193.604 351.696 197.572Z" fill="white"/>    <path d="M305.308 62.511C305.308 62.511 305.433 65.4962 302.913 66.0504C300.392 66.6045 298.14 66.104 298.14 66.104C298.14 66.104 298.658 68.41 294.717 69.7149C294.18 69.8847 293.251 70.0367 292.026 70.1618C284.867 70.9215 267.885 70.9751 264.927 70.9751C264.641 70.9751 264.489 70.9751 264.489 70.9751C264.489 70.9751 261.79 72.0745 260.422 70.0188C260.422 70.0188 258.804 72.3248 256.901 71.422C254.988 70.5104 254.934 70.3405 254.934 70.3405C254.934 70.3405 252.226 71.8689 250.957 71.1449C249.679 70.4299 247.632 67.543 250.287 65.5409C250.287 65.5409 248.749 62.7791 250.233 61.4027C251.708 60.0263 251.94 60.1425 251.94 60.1425C251.94 60.1425 250.438 59.2487 250.93 58.0332C251.002 57.8544 251.091 57.6935 251.198 57.5594C251.779 56.7818 252.753 56.7193 252.753 56.7193C252.753 56.7193 250.501 55.3965 251.127 52.9564C251.743 50.5164 252.852 50.4181 252.852 50.4181C252.852 50.4181 251.94 49.417 252.771 48.0317C253.549 46.7446 254.764 47.1736 254.925 47.2362C254.764 47.0932 253.719 46.0743 254.997 44.0365C256.373 41.8467 258.858 43.107 258.858 43.107C258.858 43.107 257.768 41.9807 259.484 40.6133C261.191 39.2368 263.577 39.3352 265.838 40.7116C265.838 40.7116 264.668 36.9577 268.725 34.8126C272.783 32.6586 276.358 35.2774 276.358 35.2774C276.358 35.2774 277.547 33.606 279.522 34.3926C280.952 34.9646 281.247 35.34 281.292 35.5008C281.274 35.1701 281.444 34.0171 284.787 33.4272C288.701 32.7301 290.149 36.779 290.292 39.1743C290.292 39.1743 292.992 38.1018 295.038 41.6322C297.076 45.1627 295.762 47.3077 295.762 47.3077C295.762 47.3077 297.291 46.1637 299.186 48.4697C300.937 50.5969 299.373 52.8403 299.141 53.1531C299.4 52.9743 300.759 52.0448 302.153 52.5542C302.77 52.7687 303.404 53.2782 303.949 54.2614C303.949 54.2614 306.818 53.1978 307.918 56.7997C308.955 60.214 307.265 62.7076 305.308 62.511Z" fill="#EFBF56"/>    <path d="M271.435 49.6466C271.435 49.6466 265.225 52.9974 265.209 59.2369C265.194 65.4747 267.359 73.9647 268.363 78.0037C269.367 82.0418 273.274 84.2379 276.617 85.6045C276.617 85.6045 277.433 91.1987 277.319 93.2499C277.319 93.2499 279.322 96.4005 283.267 96.0519C287.214 95.7034 289.225 93.1078 289.225 93.1078L287.821 83.1528C287.821 83.1528 291.564 80.0907 292.537 75.5905C293.511 71.0921 291.287 61.0406 291.244 58.5773C291.2 56.1131 285.484 43.7914 271.435 49.6466Z" fill="#7880CA"/>    <path d="M266.163 66.6409C266.163 66.6409 262.856 68.1488 263.134 71.3548C263.412 74.5608 266.17 76.6567 268.387 76.6093L266.163 66.6409Z" fill="#7880CA"/>    <path d="M291.588 62.8564C291.588 62.8564 294.054 62.649 295.224 66.6085C296.394 70.5662 292.181 72.1428 292.181 72.1428L291.588 62.8564Z" fill="#7880CA"/>    <path d="M226.763 110.772L226.299 107.506C226.299 107.506 226.941 106.072 227.366 104.135C227.791 102.2 228.139 99.4 227.623 97.0216C227.106 94.6424 227.54 91.5579 227.86 89.479C228.182 87.3982 225.877 86.7878 224.884 87.2311C223.89 87.6735 222.353 92.7163 222.914 95.3574C222.914 95.3574 213.88 87.0372 210.882 86.0209C207.882 85.0047 207.398 85.2264 207.341 86.9138C207.266 89.1465 209.983 89.9741 211.122 91.0449C212.261 92.1139 214.898 93.8076 215.428 94.7416C215.428 94.7416 212.585 95.2117 212.096 98.1183C212.096 98.1183 210.254 99.9622 210.615 102.53C210.615 102.53 209.517 105.555 210.536 108.225C211.555 110.894 213.315 111.209 215.948 111.87C215.948 111.87 217.678 114.565 219.92 115.847C222.163 117.131 225.881 113.488 226.763 110.772Z" fill="#7880CA"/>    <path d="M276.619 85.6094C276.619 85.6094 281.913 87.178 287.823 83.1577L288.035 84.78C288.035 84.78 284.963 87.8519 282.17 88.7457C279.376 89.6395 277.086 89.1372 277.086 89.1372L276.619 85.6094Z" fill="#7880CA"/>    <path d="M268.314 62.2642C268.314 62.2642 268.314 59.918 270.214 59.4157C272.113 58.9125 273.342 60.5329 273.342 60.5329C273.342 60.5329 270.493 59.6391 268.314 62.2642Z" fill="#7880CA"/>    <path d="M273.204 64.4873C273.476 65.516 273.348 66.4429 272.916 66.5582C272.483 66.6726 271.911 65.9316 271.638 64.9038C271.364 63.8741 271.493 62.9473 271.926 62.8329C272.358 62.7176 272.93 63.4585 273.204 64.4873Z" fill="#7880CA"/>    <path d="M277.084 68.187C277.084 68.187 280.045 68.5222 281.609 68.4668C281.609 68.4668 278.872 71.4833 277.084 68.187Z" fill="#7880CA"/>    <path d="M265.967 66.6786C265.967 66.6786 266.805 68.5779 267.867 68.6896C268.928 68.8014 265.911 61.5394 266.246 59.3049C266.581 57.0705 269.374 56.7907 268.76 53.6071C268.76 53.6071 271.609 54.1093 273.9 52.4335C276.19 50.7576 276.19 49.4733 276.19 49.4733C276.19 49.4733 276.916 50.5905 278.648 50.7023C280.38 50.814 280.994 50.0873 280.994 50.0873C280.994 50.0873 281.832 52.0429 284.29 52.4335C286.748 52.825 286.86 52.4335 286.86 52.4335C286.86 52.4335 287.25 56.0086 288.479 56.9024C289.708 57.7962 290.49 63.6058 291.272 63.7738C292.054 63.941 292.111 61.6511 292.446 59.9189C292.781 58.1877 289.988 49.0818 289.988 49.0818L281.999 45.0044L276.413 45.6184L269.878 47.574C269.878 47.574 264.124 48.8583 263.621 49.8639C263.118 50.8694 261.163 56.679 261.163 56.679L260.828 60.8127L261.442 64.9465L265.967 66.6786Z" fill="#EFBF56"/>    <path d="M286.119 58.7814C286.119 58.7814 285.176 56.6328 283.234 56.9349C281.293 57.2379 280.818 59.2158 280.818 59.2158C280.818 59.2158 283.069 57.2521 286.119 58.7814Z" fill="#7880CA"/>    <path d="M282.535 62.7767C282.698 63.8278 283.189 64.626 283.631 64.5571C284.072 64.4883 284.299 63.5802 284.136 62.5283C283.973 61.4763 283.483 60.679 283.041 60.7478C282.599 60.8166 282.372 61.7247 282.535 62.7767Z" fill="#7880CA"/>    <path d="M275.186 72.7661C275.186 72.7661 276.806 73.213 280.828 72.5427C284.85 71.8724 286.638 70.8114 286.638 70.8114C286.638 70.8114 286.246 72.1521 283.453 73.3248C280.66 74.4983 276.471 74.61 275.186 72.7661Z" fill="#7880CA"/>    <path d="M254.014 135.74C251.627 143.489 246.47 163.563 246.47 163.563C246.47 163.572 246.461 163.581 246.461 163.59C246.166 164.01 241.912 170.195 236.611 168.389C233.93 167.487 231.464 165.967 229.023 162.669C231.32 163.626 236.415 165.234 240.759 163C246.568 160.024 251.484 133.657 251.484 133.657L255.953 118.311C255.953 118.311 256.4 127.999 254.014 135.74Z" fill="#7880CA"/>    <path d="M238.346 126.129C238.346 126.129 240.495 130.415 241.166 133.096C241.836 135.777 244.07 136.001 244.852 140.023C245.635 144.045 244.852 146.279 245.635 145.721C246.417 145.162 247.087 142.742 246.566 139.911C246.044 137.08 247.385 140.284 248.13 140.06C248.874 139.837 248.204 136.336 246.417 134.772C244.629 133.208 242.618 132.016 241.948 130.6C241.277 129.186 241.054 127.1 238.745 124.791L238.346 126.129Z" fill="#7880CA"/>    <path d="M335.643 187.579C332.595 185.72 330.209 186.989 329.762 187.802C329.315 188.625 329.851 191.717 329.851 191.717L329.431 192.084C328.975 190.743 328.841 189.778 328.841 189.778C328.591 187.802 329.717 186.667 329.717 186.667C326.294 181.912 326.598 172.769 326.598 172.769L322.191 168.783C322.191 168.783 317.177 151.685 315.238 141.406C313.298 131.128 315.685 123.378 315.39 116.523C315.086 109.677 318.518 114.593 317.472 121.439C316.426 128.294 316.873 137.974 318.813 144.087C320.752 150.192 321.789 158.084 322.236 159.872C322.683 161.659 326.705 169.113 327.304 169.113C327.903 169.113 330.28 166.432 332.961 166.727C335.643 167.022 331.174 167.916 330.584 170.454C330.584 170.454 335.643 168.666 338.476 170.302C341.309 171.938 336.242 170.454 334.302 172.385C332.372 174.324 330.727 176.264 332.22 180.581C333.712 184.898 334.302 184.898 336.76 186.39C339.218 187.883 341.005 189.67 341.157 193.764C341.309 197.857 338.7 189.447 335.643 187.579Z" fill="#7880CA"/>    <path d="M222.583 101.031C222.807 100.286 222.248 99.3552 221.652 98.7224C221.056 98.0887 220.349 97.9403 220.61 98.6473C220.87 99.3551 221.652 99.6161 221.652 100.323C221.652 101.031 220.163 101.515 219.157 101.292C218.152 101.069 216.476 99.8396 215.731 99.3176C214.986 98.7965 213.794 97.791 213.236 97.6793C212.677 97.5676 213.31 98.3872 213.31 98.3872C213.31 98.3872 216.085 100.572 217.593 101.404C219.753 102.595 220.311 102.186 220.87 102.186C220.924 102.186 220.984 102.179 221.045 102.171C220.817 102.745 220.879 103.927 220.237 104.569C219.717 105.088 219.492 105.798 217.034 105.165C214.577 104.532 211.858 102.819 211.858 102.819C210.666 102.893 213.645 104.457 214.912 105.165C215.878 105.705 217.277 106.585 218.548 106.594C218.415 107.184 218.098 108.181 217.407 108.591C216.401 109.187 214.465 108.852 213.496 108.591C212.528 108.331 211.97 107.623 211.97 108.032C211.97 108.442 212.789 109.038 212.789 109.038L213.348 109.336C213.348 109.336 215.545 110.155 217.37 109.745C218.622 109.464 219.129 108.173 219.293 107.242L220.665 106.002C220.665 106.002 220.945 107.231 220.889 108.852C220.833 110.471 222.509 111.31 222.174 110.527C221.839 109.745 221.503 106.337 222.006 104.773C222.366 103.654 222.324 102.26 222.272 101.551C222.412 101.402 222.524 101.229 222.583 101.031Z" fill="#7880CA"/>    <path d="M227.984 113.323C227.984 113.323 226.866 116.283 224.185 117.512C221.504 118.741 218.766 117.233 218.487 116.339C218.208 115.445 217.314 116.227 217.537 117.623C217.761 119.02 220.777 120.416 223.906 119.411C227.034 118.405 228.43 114.383 227.984 113.323Z" fill="#7880CA"/>    <path d="M269.953 95.8936C269.953 95.8936 268.836 97.6812 278.221 101.48C287.606 105.278 296.32 97.085 295.725 96.9366C295.129 96.7874 288.575 101.107 281.722 99.7664C274.869 98.4257 272.114 95.7443 271.22 95.596C270.326 95.4467 269.953 95.8936 269.953 95.8936Z" fill="#7880CA"/>    <path d="M262.448 67.7972C262.448 67.7972 262.057 66.7917 260.325 66.7354C258.594 66.68 257.924 68.1878 256.974 67.6855C256.024 67.1823 256.583 66.9588 255.689 66.68C254.795 66.4002 254.125 66.5682 254.125 65.6744C254.125 64.7807 254.739 65.3947 254.851 63.8869C254.963 62.3782 253.79 62.7134 254.684 61.5407C255.577 60.3672 256.415 60.2555 255.913 59.0828C255.409 57.9093 254.851 59.0265 255.409 57.1272C255.968 55.2279 254.125 54.8373 254.404 53.6638C254.684 52.4911 255.968 51.7645 256.303 51.4293C256.638 51.0941 256.192 50.4238 256.471 49.6981C256.75 48.9714 257.644 49.0831 257.867 48.4691C258.091 47.8542 256.75 45.676 258.817 45.1728C260.884 44.6705 261.722 43.7767 260.66 43.8885C259.6 44.0002 258.426 44.2236 257.589 44.4471C256.75 44.6705 255.354 46.0112 255.968 47.2402C256.583 48.4691 255.745 48.1339 255.186 48.9714C254.627 49.8098 255.577 50.3121 254.963 51.1505C254.349 51.9879 253.455 52.3231 253.455 53.3286C253.455 54.3341 254.181 56.1217 254.237 56.6803C254.292 57.2389 253.455 58.3007 253.845 58.7476C254.237 59.1945 255.019 59.418 254.684 59.8649C254.349 60.3118 253.12 60.6469 253.231 61.429C253.343 62.2111 253.622 63.5517 253.455 63.6071C253.287 63.6634 251.723 65.2276 252.449 66.1213C253.175 67.0151 254.851 66.2885 254.907 67.3503C254.963 68.4112 254.684 69.3613 256.303 69.2496C257.924 69.1379 259.096 67.6292 259.655 67.7409C260.214 67.8526 260.996 69.2496 261.889 68.8581C262.783 68.4675 262.448 67.7972 262.448 67.7972Z" fill="#7880CA"/>    <path d="M265.913 57.295C265.913 57.295 267.421 56.5683 267.7 55.284C267.98 53.9987 267.868 53.1612 268.538 52.8261C269.209 52.4909 270.885 52.9932 273.175 51.2056C275.465 49.418 275.409 48.3571 276.415 48.2454C277.42 48.1337 278.202 49.6415 279.319 49.4744C280.437 49.3063 281.554 48.6923 282.057 49.1946C282.559 49.6978 282.001 50.815 284.068 51.0939C286.134 51.3736 287.363 51.2056 287.699 51.4854C288.034 51.7643 288.145 54.6136 289.096 55.0605C290.045 55.5074 288.927 53.1049 288.816 51.9323C288.704 50.7587 288.481 50.2564 287.14 50.3682C285.799 50.4799 283.23 50.3682 282.839 49.2509C282.448 48.1337 281.889 47.7422 280.883 48.2454C279.878 48.7477 278.258 48.0774 278.09 47.7985C277.923 47.5188 276.806 46.6813 275.856 46.9047C274.907 47.1282 275.354 47.7985 274.572 48.3571C273.789 48.9158 272.281 50.9267 270.996 51.2056C269.711 51.4854 269.432 51.2056 268.594 51.7088C267.756 52.2111 267.477 53.0495 267.477 53.0495C267.477 53.0495 266.974 55.0605 266.248 55.6191C265.522 56.1778 264.684 56.4566 264.684 57.4621C264.684 58.4676 265.354 57.3504 265.913 57.295Z" fill="#7880CA"/>    <path d="M191.246 53.1768C191.208 52.7224 190.991 52.3016 190.644 52.0066C190.473 51.8592 190.276 51.7467 190.062 51.6754L181.856 49.0452C181.421 48.9057 180.948 48.9448 180.542 49.1539C180.135 49.3631 179.828 49.7251 179.689 50.1604C179.549 50.5956 179.588 51.0685 179.798 51.4749C180.007 51.8814 180.369 52.1881 180.804 52.3276L185.055 53.69L172.94 59.9237L169.276 52.7771C169.173 52.5744 169.031 52.3941 168.857 52.2467C168.684 52.0993 168.483 51.9876 168.267 51.9182C168.05 51.8487 167.822 51.8229 167.595 51.8421C167.368 51.8613 167.148 51.9252 166.946 52.0302L153.943 58.721C153.74 58.8243 153.56 58.9667 153.412 59.14C153.265 59.3133 153.153 59.514 153.084 59.7307C153.014 59.9473 152.988 60.1756 153.008 60.4023C153.027 60.629 153.091 60.8496 153.196 61.0515C153.299 61.2542 153.441 61.4345 153.615 61.5819C153.788 61.7294 153.989 61.841 154.205 61.9105C154.422 61.9799 154.65 62.0058 154.877 61.9865C155.104 61.9673 155.324 61.9034 155.526 61.7985L166.996 55.8829L170.66 63.0295C170.763 63.2322 170.905 63.4125 171.079 63.5599C171.252 63.7073 171.453 63.819 171.669 63.8884C171.886 63.9578 172.114 63.9837 172.341 63.9645C172.568 63.9453 172.788 63.8814 172.99 63.7764L186.627 56.7458L185.265 60.9964C185.125 61.4317 185.164 61.9045 185.373 62.311C185.582 62.7174 185.945 63.0241 186.38 63.1636C186.815 63.3031 187.288 63.264 187.694 63.0549C188.101 62.8457 188.407 62.4837 188.547 62.0485L191.177 53.8426C191.243 53.6273 191.267 53.4011 191.246 53.1768Z" fill="white"/></svg>