<svg width="343" height="199" viewBox="0 0 343 199" fill="none" xmlns="http://www.w3.org/2000/svg">
<path d="M341.231 180.388C341.111 186.274 340.655 192.142 340.078 197.997C340.06 198.123 340.09 198.23 340.138 198.319C296.09 198.331 252.048 198.344 208.006 198.363C164 198.376 120 198.394 76.0002 198.407C51.3756 198.413 26.751 198.426 2.12042 198.432C-1.31502 190.098 0.0963971 179.99 5.37567 172.842C11.1414 165.038 21.4658 163.713 26.9612 155.574C32.0603 148.041 32.7931 138.243 33.6759 129.335C34.5468 120.521 36.0904 110.325 42.4988 103.915C50.1144 96.2942 61.2315 98.7482 70.739 97.89C79.712 97.0762 87.0212 92.3254 92.3125 84.7483C104.829 66.7987 101.039 42.9819 108.955 23.1837C112.685 13.8462 119.063 6.01016 128.313 2.51468C137.31 -0.891922 147.285 -0.267303 156.487 1.84621C166.667 4.18675 176.24 8.65402 186.066 12.1807C191.255 14.042 196.547 15.6696 201.964 16.6096C207.358 17.5369 212.697 17.5435 218.132 17.1585C223.532 16.7801 228.931 16.3952 234.258 17.6C238.607 18.5783 242.763 20.3885 246.535 22.8618C254.27 27.9279 260.336 35.7765 263.099 44.9375C268.33 62.2942 262.985 83.7699 274.877 98.666C286.12 112.748 305.982 112.426 319.646 122.679C336.943 135.663 341.664 159.372 341.231 180.388Z" fill="#F6F7F7"/>
<path d="M342.784 197.703L342.766 197.811H189.439C190.636 193.787 193.98 190.534 197.786 188.604C202.072 186.438 206.92 185.704 211.677 184.998C207.718 180.503 204.844 175.057 203.376 169.248C202.244 164.808 202.335 159.262 206.104 156.67C208.605 154.948 211.949 155.13 214.903 155.81C220.25 157.033 225.27 159.643 229.33 163.33C228.215 155.347 228.614 147.164 230.481 139.325C231.622 134.577 233.96 129.303 238.69 128.08C242.968 126.965 247.308 129.747 250.354 132.956C254.812 137.658 257.938 143.612 259.289 149.956C264.073 141.455 269.048 132.729 276.714 126.703C280.765 123.522 286.411 121.166 290.978 123.558C294.212 125.253 295.98 128.968 296.306 132.611C296.623 136.245 295.735 139.87 294.847 143.404C293.66 148.152 292.473 152.9 291.286 157.64C297.067 154.015 303.565 151.541 310.289 150.399C313.016 149.937 315.988 149.737 318.399 151.097C321.734 152.982 322.92 157.404 322.178 161.156C321.444 164.916 319.196 168.17 317.003 171.305C314.937 174.259 312.871 177.204 310.805 180.158C317.293 178.274 324.507 179.062 330.424 182.306C336.35 185.559 340.89 191.223 342.784 197.703Z" fill="white"/>
<path d="M242.324 152.217V197.425C242.324 198.008 243.231 198.005 243.231 197.42V152.213C243.231 151.63 242.324 151.633 242.324 152.217Z" fill="#98DCD3"/>
<path d="M286.59 175.857C283.814 179.342 281.173 182.932 278.662 186.612V172.734C278.701 172.658 278.717 172.576 278.713 172.494C280.789 169.146 283.001 165.886 285.348 162.722C285.695 162.255 284.907 161.806 284.563 162.27C282.489 165.066 280.525 167.941 278.662 170.882V149.767C278.662 149.184 277.756 149.187 277.756 149.772V171.804C274.538 170.256 271.062 169.299 267.922 167.58C267.411 167.301 266.956 168.085 267.47 168.365C270.758 170.165 274.414 171.126 277.756 172.809V186.525C274.879 184.895 272.044 183.192 269.269 181.393C268.78 181.076 268.327 181.862 268.816 182.178C271.737 184.071 274.722 185.866 277.756 187.573V196.812C277.756 197.395 278.662 197.392 278.662 196.807V188.179C278.683 188.158 278.706 188.144 278.724 188.118C281.401 184.133 284.235 180.257 287.226 176.503C287.585 176.051 286.952 175.402 286.59 175.857Z" fill="#F6F7F7"/>
<path d="M250.531 157.518C247.608 161.098 244.891 164.842 242.401 168.736C242.086 169.228 242.872 169.68 243.186 169.189C245.633 165.363 248.295 161.681 251.167 158.163C251.533 157.716 250.9 157.067 250.531 157.518Z" fill="#98DCD3"/>
<path d="M251.407 179.041C248.231 182.515 245.255 186.165 242.487 189.971C242.144 190.442 242.932 190.892 243.272 190.424C245.992 186.683 248.922 183.1 252.043 179.687C252.436 179.258 251.801 178.611 251.407 179.041Z" fill="#98DCD3"/>
<path d="M242.852 179.697C241.921 178.215 240.562 176.981 239.375 175.705C238.111 174.347 236.847 172.988 235.583 171.63C235.184 171.202 234.54 171.84 234.937 172.266C236.166 173.586 237.394 174.906 238.623 176.227C239.228 176.877 239.833 177.528 240.439 178.178C241.02 178.803 241.609 179.421 242.065 180.146C242.375 180.64 243.163 180.192 242.852 179.697Z" fill="#98DCD3"/>
<path d="M243.064 160.114C240.867 157.634 238.555 155.259 236.135 152.996C235.709 152.599 235.063 153.235 235.49 153.633C237.909 155.895 240.222 158.27 242.419 160.75C242.807 161.187 243.45 160.548 243.064 160.114Z" fill="#98DCD3"/>
<path d="M144.153 197.793H0.0784157C-0.610533 193.615 3.35889 189.837 7.32766 188.033C13.4898 185.223 20.6394 184.644 27.1733 186.411C23.485 182.342 19.9781 177.892 18.4105 172.628C16.843 167.363 17.6039 161.092 21.5547 157.277C25.1343 153.825 30.7162 153.018 35.5192 154.323C40.3306 155.628 44.4454 158.763 47.9156 162.334C44.6261 154.042 44.5901 144.509 47.8159 136.19C49.3114 132.33 52.1841 128.279 56.3252 128.125C58.4093 128.053 60.4027 129.013 62.1066 130.228C66.6105 133.426 69.6189 138.392 71.4129 143.621C73.2075 148.84 73.8964 154.377 74.5666 159.86C76.6057 155.882 79.569 152.393 83.148 149.728C86.8093 147.019 91.8567 145.198 95.8531 147.382C99.7859 149.53 101 154.586 101.263 159.071C101.598 164.817 101.064 170.616 99.6591 176.198C104.362 172.591 109.935 169.991 115.825 169.33C121.716 168.659 127.914 170.036 132.626 173.634C139.893 179.179 142.54 188.785 144.153 197.793Z" fill="white"/>
<path d="M58.7206 183.174V171.348C58.7819 171.312 58.839 171.264 58.8834 171.188C61.4738 166.77 64.302 162.497 67.3561 158.387C67.7032 157.919 66.9158 157.47 66.5711 157.934C63.7561 161.722 61.1423 165.656 58.7206 169.706V141.892C58.7206 141.309 57.8137 141.312 57.8137 141.897V182.138C54.5495 178.771 51.3717 175.321 48.308 171.771C47.9261 171.329 47.2834 171.968 47.6624 172.407C50.9309 176.194 54.3182 179.877 57.8137 183.455V196.634C57.8137 197.217 58.7206 197.214 58.7206 196.629V193.442C61.0083 190.154 63.5477 187.052 66.3134 184.155C66.7164 183.733 66.0804 183.087 65.6774 183.509C63.1639 186.142 60.848 188.954 58.7206 191.905V183.373C58.7363 183.309 58.7387 183.243 58.7206 183.174Z" fill="#F6F7F7"/>
<path d="M93.7433 169.67C91.3259 172.748 89.0844 175.957 87.0154 179.278C87.0766 176.72 87.1301 174.161 87.2082 171.603C87.2808 169.235 87.3607 166.868 87.4472 164.501C87.4688 163.918 86.5625 163.923 86.5409 164.505C86.2556 172.296 86.0562 180.089 85.9271 187.882C82.9902 186.253 80.1733 184.415 77.5127 182.364C77.0526 182.009 76.6034 182.797 77.0592 183.149C79.8514 185.301 82.8112 187.225 85.9067 188.911C85.9025 189.158 85.8953 189.404 85.8911 189.65C85.8556 192.019 85.828 194.387 85.807 196.756C85.8016 197.339 86.7079 197.336 86.7133 196.751C86.7373 194.08 86.7733 191.408 86.819 188.737C86.8358 188.67 86.8388 188.601 86.8232 188.534C86.8664 185.996 86.9175 183.456 86.9745 180.916C87.0442 180.882 87.1097 180.833 87.1601 180.751C89.3571 177.133 91.7649 173.645 94.3793 170.316C94.7349 169.862 94.1025 169.212 93.7433 169.67Z" fill="#98DCD3"/>
<path d="M40.4154 183.041C38.4592 185.371 36.6232 187.799 34.8856 190.297C35.0484 187.117 35.1871 183.935 35.2832 180.751C35.3013 180.168 34.3944 180.172 34.3769 180.756C34.2088 186.34 33.9373 191.92 33.5637 197.494C33.5247 198.076 34.431 198.07 34.47 197.49C34.6004 195.545 34.7019 193.599 34.8076 191.653C34.9385 191.647 35.0694 191.593 35.1625 191.456C36.9968 188.771 38.9607 186.178 41.0514 183.687C41.4238 183.243 40.7902 182.594 40.4154 183.041Z" fill="#F6F7F7"/>
<path d="M73.3682 197.797H258.93C258.93 197.797 283.931 125.57 224.983 129.699C224.983 129.699 220.052 80.1479 169.016 80.1479C117.981 80.1479 110.73 134.057 110.73 134.057C110.73 134.057 49.5394 116.625 73.3682 197.797Z" fill="#FFFEFD"/>
<path d="M258.93 197.795H132.805C191.784 196.02 170.928 154.318 170.928 154.318C233.928 142.081 201.022 88.9992 201.022 88.9992C222.355 103.244 224.986 129.696 224.986 129.696C283.931 125.569 258.93 197.795 258.93 197.795Z" fill="#E0E2EC"/>
<path d="M207.064 105.788L201.881 109.26C201.767 109.091 200.92 107.884 199.323 106.202C198.386 105.211 197.184 104.052 195.719 102.857C195.647 102.797 195.575 102.737 195.503 102.677C193.184 100.803 190.223 98.8391 186.608 97.2175C183.797 95.9622 180.59 94.9112 176.974 94.2745C176.914 94.2685 176.848 94.2565 176.77 94.2445C174.536 93.8601 172.151 93.6379 169.599 93.6259C169.497 93.6199 169.395 93.6199 169.305 93.6199C167.731 93.6199 166.229 93.674 164.794 93.7761C162.548 93.9262 160.458 94.1965 158.512 94.5568C157.941 94.6589 157.377 94.7731 156.83 94.8992C155.905 95.0974 155.01 95.3256 154.145 95.5658C152.073 96.1544 150.187 96.8331 148.488 97.5839C146.914 98.2746 145.497 99.0133 144.224 99.7761C144.019 99.8962 143.821 100.016 143.629 100.136C142.422 100.893 141.347 101.668 140.398 102.419C139.437 103.187 138.614 103.938 137.905 104.641C137.743 104.797 137.587 104.953 137.443 105.109C135.335 107.296 134.446 108.929 134.422 108.983L128.908 106.064C129.034 105.8 130.284 103.518 133.088 100.629C133.797 99.9022 134.602 99.1334 135.521 98.3526C136.68 97.3556 138.013 96.3286 139.539 95.3316C140.139 94.9352 140.764 94.5448 141.425 94.1604C142.121 93.752 142.854 93.3496 143.617 92.9653C146.518 91.4818 149.923 90.1544 153.881 89.1694C154.145 89.1034 154.416 89.0373 154.698 88.9773C155.389 88.8151 156.097 88.6589 156.818 88.5208C158.698 88.1544 160.686 87.8661 162.8 87.674C163.869 87.5719 164.986 87.4998 166.121 87.4517C166.428 87.4397 166.734 87.4277 167.052 87.4157C167.785 87.3917 168.53 87.3797 169.305 87.3797C169.569 87.3797 169.845 87.3797 170.109 87.3857C171.028 87.4037 171.923 87.4397 172.794 87.4998C173.395 87.5418 173.989 87.5899 174.572 87.6499C174.68 87.6559 174.794 87.668 174.902 87.68C184.878 88.7731 192.446 92.6469 197.737 96.5388C198.548 97.1394 199.311 97.734 200.013 98.3286C201.431 99.5058 202.632 100.653 203.617 101.674C205.773 103.908 206.914 105.566 207.064 105.788Z" fill="#E0E2EC"/>
<path d="M103.792 141.421C102.209 140.731 100.434 140.697 98.7285 140.745C97.1771 140.788 95.621 140.979 94.1014 141.295C90.9987 141.94 87.9771 143.177 85.3141 144.895C79.8955 148.392 76.0084 153.851 74.4024 160.095C73.5021 163.592 73.3639 167.21 73.9273 170.772C74.0546 171.574 75.0408 172.028 75.7663 171.834C76.618 171.606 76.9555 170.798 76.8282 169.995C75.9639 164.533 77.2588 158.805 80.2054 154.15C83.1519 149.494 87.863 146.124 93.1459 144.622C94.6258 144.201 96.1405 143.914 97.6756 143.802C98.4666 143.744 99.26 143.727 100.053 143.749C100.759 143.769 101.628 143.732 102.29 144.022C103.033 144.345 103.903 144.231 104.341 143.472C104.712 142.829 104.54 141.747 103.792 141.421Z" fill="#F6F7F7"/>
<path d="M78.913 189.125C77.8806 185.82 77.3202 182.417 77.2577 178.955C77.2433 178.144 76.5658 177.456 75.7478 177.461C74.943 177.465 74.2397 178.157 74.2541 178.97C74.3208 182.672 74.9082 186.367 76.0121 189.901C76.2535 190.676 77.0451 191.179 77.8511 190.963C78.6115 190.759 79.1556 189.901 78.913 189.125Z" fill="#F6F7F7"/>
<path d="M126.219 113.773C120.94 119.624 117.455 127.013 116.441 134.839C116.336 135.642 116.661 136.447 117.516 136.671C118.225 136.856 119.243 136.405 119.347 135.596C120.293 128.3 123.393 121.382 128.328 115.912C129.619 114.481 127.515 112.336 126.219 113.773Z" fill="#F6F7F7"/>
<path d="M318.573 130.28L311.362 124.386L305.468 131.595L312.678 137.489L318.573 130.28ZM323.405 129.795L310.877 119.554L300.636 132.081L313.164 142.322L323.405 129.795ZM310.738 118.162L324.796 129.655L313.302 143.714L299.244 132.221L310.738 118.162Z" fill="#FFFEFD"/>
<path d="M319.966 130.144L312.819 138.883L304.08 131.736L311.227 122.997L319.966 130.144Z" fill="#FFFEFD"/>
<path d="M52.5 119.204C52.5 117.849 53.5979 116.751 54.9522 116.751C56.3066 116.751 57.4045 117.849 57.4045 119.204C57.4045 120.557 56.3066 121.656 54.9522 121.656C53.5979 121.656 52.5 120.557 52.5 119.204Z" fill="white"/>
<path d="M137.132 75.9537C137.17 76.4942 137.95 76.5658 138.097 76.0419L144.712 59.7861C144.781 59.5424 144.646 59.2899 144.404 59.2067L136.511 56.5534C136.145 56.4308 135.773 56.7188 135.8 57.1028L137.132 75.9537Z" fill="#EFBF56"/>
<path d="M146.733 80.5078C146.32 81.0073 146.876 81.7187 147.46 81.4379L160.123 73.7878C160.461 73.6258 160.572 73.1979 160.354 72.8921L157.286 68.7999C157.076 68.5202 156.661 68.5107 156.438 68.7793L146.733 80.5078Z" fill="#EFBF56"/>
<path d="M262.479 196.407L245.642 94.3473C245.503 93.506 244.776 92.8894 243.923 92.8894H87.4175C86.3426 92.8894 85.5246 93.8533 85.6994 94.9139L102.536 196.974C102.675 197.815 103.402 198.432 104.254 198.432H260.761C261.835 198.432 262.653 197.468 262.479 196.407Z" fill="#2B2B39"/>
<path d="M216.732 90.8649L218.733 78.7391C218.907 77.6786 218.089 76.7146 217.014 76.7146H171.492C170.64 76.7146 169.913 77.3317 169.774 78.1725L167.586 91.4315C167.448 92.2723 166.721 92.8894 165.869 92.8894H122.037C121.185 92.8894 120.458 93.5065 120.32 94.3473L103.483 196.407C103.307 197.468 104.126 198.432 105.2 198.432H261.707C262.559 198.432 263.286 197.815 263.425 196.974L280.262 94.9139C280.437 93.8533 279.619 92.8894 278.544 92.8894H218.45C217.375 92.8894 216.557 91.9254 216.732 90.8649Z" fill="#7880CA"/>
<path d="M168.966 147.22L169.521 147.221C169.549 134.895 179.551 124.923 191.87 124.923H191.924H191.925C204.251 124.953 214.223 134.954 214.223 147.273V147.329V147.328C214.194 159.654 204.192 169.626 191.873 169.626H191.818C179.493 169.597 169.52 159.595 169.52 147.276L169.521 147.222V147.221L168.966 147.22L168.411 147.218L168.41 147.276C168.411 160.207 178.877 170.705 191.816 170.736H191.873C204.804 170.736 215.301 160.269 215.333 147.331V147.33V147.273C215.332 134.342 204.866 123.845 191.928 123.814H191.928H191.87C178.939 123.814 168.442 134.28 168.411 147.218V147.218L168.966 147.22Z" fill="white"/>
<path d="M184.544 137.574C183.947 137.572 183.346 137.795 182.889 138.25C181.975 139.159 181.972 140.635 182.881 141.549L188.566 147.261L182.854 152.946C181.94 153.856 181.936 155.339 182.846 156.254C183.755 157.167 185.239 157.171 186.153 156.262L191.865 150.577L197.55 156.289C198.46 157.203 199.935 157.206 200.849 156.297C201.763 155.387 201.767 153.903 200.857 152.989L195.172 147.277L200.884 141.592C201.798 140.683 201.802 139.207 200.892 138.293C200.438 137.836 199.838 137.61 199.24 137.608C198.643 137.607 198.05 137.83 197.593 138.285L191.881 143.97L186.196 138.258C185.741 137.801 185.142 137.575 184.544 137.574Z" fill="white"/>
</svg>
