<svg width="15" height="15" viewBox="0 0 15 15" fill="none" xmlns="http://www.w3.org/2000/svg">
<path fill-rule="evenodd" clip-rule="evenodd" d="M15.0001 6C15.0001 9.31371 12.3138 12 9.00006 12C7.61354 12 6.33686 11.5297 5.32086 10.7399L1.53039 14.5304L0.469727 13.4697L4.26019 9.67926C3.47038 8.66325 3.00006 7.38655 3.00006 6C3.00006 2.68629 5.68635 0 9.00006 0C12.3138 0 15.0001 2.68629 15.0001 6ZM13.5001 6C13.5001 8.48528 11.4853 10.5 9.00006 10.5C6.51478 10.5 4.50006 8.48528 4.50006 6C4.50006 3.51472 6.51478 1.5 9.00006 1.5C11.4853 1.5 13.5001 3.51472 13.5001 6Z" fill="#1E1E1E"/>
</svg>
