<svg width="50" height="50" viewBox="0 0 50 50" fill="none" xmlns="http://www.w3.org/2000/svg">
<g clip-path="url(#clip0_1_2)">
<path d="M46 0H4C1.79086 0 0 1.79086 0 4V46C0 48.2091 1.79086 50 4 50H46C48.2091 50 50 48.2091 50 46V4C50 1.79086 48.2091 0 46 0Z" fill="#AAAEB1"/>
<path d="M25 13C18.3726 13 13 18.3726 13 25C13 31.6274 18.3726 37 25 37C31.6274 37 37 31.6274 37 25C37 18.3726 31.6274 13 25 13ZM25 15.3226C30.3483 15.3226 34.6774 19.6509 34.6774 25C34.6774 30.3483 30.3491 34.6774 25 34.6774C19.6517 34.6774 15.3226 30.3491 15.3226 25C15.3226 19.6517 19.6509 15.3226 25 15.3226ZM31.7841 21.6258L30.6936 20.5266C30.4678 20.2989 30.1001 20.2974 29.8725 20.5233L23.0329 27.3079L20.1397 24.3913C19.9139 24.1636 19.5462 24.1621 19.3186 24.388L18.2193 25.4784C17.9916 25.7042 17.9901 26.0719 18.216 26.2996L22.6086 30.7278C22.8344 30.9554 23.2021 30.9569 23.4297 30.7311L31.7808 22.447C32.0084 22.2211 32.0099 21.8535 31.7841 21.6258Z" fill="white"/>
</g>
<defs>
<clipPath id="clip0_1_2">
<rect width="50" height="50" fill="white"/>
</clipPath>
</defs>
</svg>
