<svg width="50" height="50" viewBox="0 0 50 50" fill="none" xmlns="http://www.w3.org/2000/svg">
<g clip-path="url(#clip0_1_14)">
<path d="M46 0H4C1.79086 0 0 1.79086 0 4V46C0 48.2091 1.79086 50 4 50H46C48.2091 50 50 48.2091 50 46V4C50 1.79086 48.2091 0 46 0Z" fill="#AAAEB1"/>
<path d="M35 24.0857V25.0057C34.9988 27.1621 34.3005 29.2604 33.0093 30.9875C31.7182 32.7147 29.9033 33.9782 27.8354 34.5896C25.7674 35.201 23.5573 35.1276 21.5345 34.3803C19.5117 33.633 17.7847 32.2518 16.611 30.4428C15.4373 28.6338 14.8798 26.4938 15.0217 24.342C15.1636 22.1903 15.9972 20.1421 17.3983 18.5028C18.7994 16.8635 20.6928 15.7211 22.7962 15.2459C24.8996 14.7706 27.1003 14.9881 29.07 15.8657" stroke="white" stroke-width="2" stroke-linecap="round" stroke-linejoin="round"/>
<path d="M35 17.0057L25 27.0157L22 24.0157" stroke="white" stroke-width="2" stroke-linecap="round" stroke-linejoin="round"/>
</g>
<defs>
<clipPath id="clip0_1_14">
<rect width="50" height="50" fill="white"/>
</clipPath>
</defs>
</svg>
