<svg width="50" height="50" viewBox="0 0 50 50" fill="none" xmlns="http://www.w3.org/2000/svg">
<g clip-path="url(#clip0_2_2)">
<path d="M46 0H4C1.79086 0 0 1.79086 0 4V46C0 48.2091 1.79086 50 4 50H46C48.2091 50 50 48.2091 50 46V4C50 1.79086 48.2091 0 46 0Z" fill="#AAAEB1"/>
<path d="M25 34.54C24.7034 34.5407 24.4095 34.4828 24.1353 34.3695C23.8612 34.2563 23.6121 34.0899 23.4025 33.88L15.6775 26.155C15.0673 25.5381 14.5859 24.806 14.2614 24.0012C13.9369 23.1964 13.7758 22.3351 13.7875 21.4675C13.7934 20.6724 13.9561 19.8862 14.2662 19.1541C14.5764 18.4219 15.028 17.7582 15.5951 17.2008C16.1622 16.6435 16.8337 16.2035 17.5711 15.906C18.3085 15.6086 19.0974 15.4596 19.8925 15.4675C20.7018 15.4593 21.5046 15.6138 22.2531 15.9217C23.0016 16.2296 23.6807 16.6847 24.25 17.26L25 18.01L25.615 17.395C26.6769 16.3049 28.0979 15.6366 29.6148 15.5139C31.1317 15.3912 32.6416 15.8223 33.865 16.7275C34.5614 17.2638 35.1355 17.9423 35.5492 18.7178C35.9628 19.4934 36.2065 20.3481 36.264 21.2252C36.3215 22.1023 36.1914 22.9815 35.8825 23.8044C35.5736 24.6273 35.0929 25.3749 34.4725 25.9975L26.5975 33.88C26.3879 34.0899 26.1388 34.2563 25.8647 34.3695C25.5905 34.4828 25.2966 34.5407 25 34.54ZM19.8625 16.96C18.6704 16.9588 17.5246 17.4214 16.6675 18.25C16.2305 18.6704 15.8831 19.1748 15.6459 19.7328C15.4088 20.2909 15.2869 20.8911 15.2875 21.4975C15.2809 22.1645 15.4068 22.8261 15.6579 23.4441C15.9089 24.0621 16.2801 24.6241 16.75 25.0975L24.475 32.8225C24.5447 32.8928 24.6277 32.9486 24.7191 32.9867C24.8105 33.0247 24.9085 33.0443 25.0075 33.0443C25.1065 33.0443 25.2045 33.0247 25.2959 32.9867C25.3873 32.9486 25.4703 32.8928 25.54 32.8225L33.4225 24.9325C33.8852 24.46 34.2427 23.895 34.4715 23.2745C34.7003 22.6541 34.7952 21.9922 34.75 21.3325C34.7099 20.666 34.5264 20.016 34.2118 19.427C33.8972 18.838 33.4592 18.324 32.9275 17.92C31.9946 17.2322 30.8434 16.9069 29.6885 17.0049C28.5336 17.1029 27.4537 17.6174 26.65 18.4525L25.5325 19.6C25.4628 19.6703 25.3798 19.7261 25.2884 19.7642C25.197 19.8022 25.099 19.8218 25 19.8218C24.901 19.8218 24.803 19.8022 24.7116 19.7642C24.6202 19.7261 24.5372 19.6703 24.4675 19.6L23.1925 18.325C22.3143 17.4545 21.129 16.9642 19.8925 16.96H19.8625Z" fill="white"/>
</g>
<defs>
<clipPath id="clip0_2_2">
<rect width="50" height="50" fill="white"/>
</clipPath>
</defs>
</svg>
