<svg width="50" height="50" viewBox="0 0 50 50" fill="none" xmlns="http://www.w3.org/2000/svg">
<g clip-path="url(#clip0_101_2)">
<mask id="mask0_101_2" style="mask-type:luminance" maskUnits="userSpaceOnUse" x="0" y="0" width="50" height="50">
<path d="M50 0H0V50H50V0Z" fill="white"/>
</mask>
<g mask="url(#mask0_101_2)">
<path d="M46 0H4C1.79086 0 0 1.79086 0 4V46C0 48.2091 1.79086 50 4 50H46C48.2091 50 50 48.2091 50 46V4C50 1.79086 48.2091 0 46 0Z" fill="#AAAEB1"/>
<path d="M24.4319 20.6983L24.8 21.0989L25.1681 20.6983C25.7587 20.0558 26.5991 19.243 27.5177 18.5949C28.4511 17.9363 29.3927 17.5 30.2 17.5C31.7658 17.5 32.9765 18.1161 33.8028 19.078C34.6361 20.048 35.1 21.397 35.1 22.88C35.1 23.9696 34.5099 25.1709 33.5227 26.3993C32.5445 27.6167 31.228 28.797 29.893 29.8353C28.5609 30.8714 27.2263 31.7539 26.2233 32.378C25.7223 32.6897 25.3052 32.9363 25.0139 33.1046C24.9325 33.1516 24.8609 33.1925 24.8001 33.227C24.7394 33.1925 24.6679 33.1515 24.5866 33.1044C24.2955 32.9358 23.8785 32.6885 23.3777 32.3751C22.3751 31.7478 21.041 30.8588 19.7095 29.8094C18.3752 28.7577 17.0591 27.5573 16.081 26.3097C15.0956 25.0529 14.5 23.8076 14.5 22.6565C14.5 21.175 14.9627 19.8874 15.7885 18.9761C16.6086 18.071 17.8199 17.5 19.4 17.5C20.2073 17.5 21.1489 17.9363 22.0823 18.5949C23.0008 19.243 23.8413 20.0558 24.4319 20.6983Z" stroke="white"/>
<path d="M31.5 24L29 26.5" stroke="white" stroke-linecap="round"/>
</g>
</g>
<defs>
<clipPath id="clip0_101_2">
<rect width="50" height="50" fill="white"/>
</clipPath>
</defs>
</svg>
