<svg width="96" height="24" viewBox="0 0 96 24" fill="none" xmlns="http://www.w3.org/2000/svg">
<path fill-rule="evenodd" clip-rule="evenodd" d="M23.4695 1.32301L8.45405 14.3106L0.679864 4.82151L23.4695 1.32301Z" fill="#335EEA"/>
<path fill-rule="evenodd" clip-rule="evenodd" d="M23.2942 1.17304L8.23868 14.1117L16.0129 23.6008L23.2942 1.17304Z" fill="#BECCF9"/>
<path fill-rule="evenodd" clip-rule="evenodd" d="M54.4278 12.8759C54.4278 10.7577 52.9402 9.54998 51.2712 9.54998C49.6021 9.54998 48.8402 10.832 48.8402 10.832V4.5332H46.6632V18.5802H48.8402V12.783C48.8402 12.783 49.4207 11.631 50.5455 11.631C51.4889 11.631 52.2508 12.1698 52.2508 13.4333V18.5802H54.4278V12.8759ZM39.9465 18.5802V7.69191H36.4452V5.57372H45.6249V7.69191H42.1236V18.5802H39.9465ZM36.6043 12.8388C36.6043 10.832 35.1529 9.54998 32.6857 9.54998C30.8896 9.54998 29.2932 10.3489 29.2932 10.3489L30.0007 12.1884C30.0007 12.1884 31.325 11.5381 32.5768 11.5381C33.3388 11.5381 34.4273 11.9097 34.4273 13.0617V13.5634C34.4273 13.5634 33.6109 12.9317 32.0326 12.9317C30.164 12.9317 28.6582 14.158 28.6582 15.8488C28.6582 17.7255 30.1458 18.8031 31.7604 18.8031C33.7016 18.8031 34.5906 17.4653 34.5906 17.4653V18.5802H36.6043V12.8388ZM34.4273 15.9231C34.4273 15.9231 33.7379 16.9451 32.4317 16.9451C31.7604 16.9451 30.8715 16.7407 30.8715 15.8117C30.8715 14.864 31.7967 14.5668 32.468 14.5668C33.6472 14.5668 34.4273 15.0127 34.4273 15.0127V15.9231ZM59.7838 9.54998C62.1423 9.54998 64.1197 11.4266 64.1197 14.1394C64.1197 14.3066 64.1197 14.6411 64.1016 14.9755H57.6794C57.8427 15.7559 58.7316 16.7593 60.0922 16.7593C61.598 16.7593 62.4507 15.8674 62.4507 15.8674L63.5392 17.5397C63.5392 17.5397 62.1785 18.8031 60.0922 18.8031C57.4798 18.8031 55.4661 16.7593 55.4661 14.1766C55.4661 11.5938 57.2984 9.54998 59.7838 9.54998ZM61.9427 13.359H57.6794C57.752 12.5786 58.3869 11.5753 59.7838 11.5753C61.217 11.5753 61.9064 12.5972 61.9427 13.359ZM72.3965 11.0922C72.3989 11.0871 73.1255 9.54998 75.1359 9.54998C76.8775 9.54998 78.1475 10.7949 78.1475 12.9131V18.5802H75.9704V13.4891C75.9704 12.2813 75.5169 11.631 74.4284 11.631C73.2855 11.631 72.7412 12.7644 72.7412 12.7644V18.5802H70.5642V13.4891C70.5642 12.2813 70.1107 11.631 69.0222 11.631C67.8792 11.631 67.335 12.7644 67.335 12.7644V18.5802H65.158V9.77294H67.1898V11.055C67.1898 11.055 67.9699 9.54998 69.7297 9.54998C71.795 9.54998 72.3949 11.0879 72.3965 11.0922ZM87.8393 14.1394C87.8393 11.4266 85.8619 9.54998 83.5034 9.54998C81.018 9.54998 79.1857 11.5938 79.1857 14.1766C79.1857 16.7593 81.1994 18.8031 83.8119 18.8031C85.8982 18.8031 87.2588 17.5397 87.2588 17.5397L86.1703 15.8674C86.1703 15.8674 85.3176 16.7593 83.8119 16.7593C82.4512 16.7593 81.5623 15.7559 81.399 14.9755H87.8212C87.8393 14.6411 87.8393 14.3066 87.8393 14.1394ZM81.399 13.359H85.6623C85.626 12.5972 84.9366 11.5753 83.5034 11.5753C82.1065 11.5753 81.4716 12.5786 81.399 13.359ZM89.5488 15.5887L88.3333 17.2052C88.3333 17.2052 89.694 18.8031 92.2157 18.8031C94.4108 18.8031 95.971 17.5954 95.971 16.0904C95.971 14.2695 94.7555 13.6935 93.0502 13.3218C91.5989 13.006 91.0183 12.8759 91.0183 12.3371C91.0183 11.7982 91.7621 11.5009 92.5785 11.5009C93.7396 11.5009 94.7192 12.2628 94.7192 12.2628L95.8077 10.6277C95.8077 10.6277 94.5197 9.54998 92.5785 9.54998C90.2201 9.54998 88.8776 10.9249 88.8776 12.2999C88.8776 13.9722 90.3652 14.7154 92.0705 15.087C93.3767 15.3657 93.7759 15.4772 93.7759 16.0532C93.7759 16.592 93.032 16.8522 92.1431 16.8522C90.6918 16.8522 89.5488 15.5887 89.5488 15.5887Z" fill="#101517"/>
</svg>
