<svg width="50" height="50" viewBox="0 0 50 50" fill="none" xmlns="http://www.w3.org/2000/svg">
<rect width="50" height="50" rx="4" fill="#AAAEB1"/>
<path d="M20.6 31.6C19.3845 31.6 18.411 32.5845 18.411 33.8C18.411 35.0155 19.3845 36 20.6 36C21.8155 36 22.8 35.0155 22.8 33.8C22.8 32.5845 21.8155 31.6 20.6 31.6ZM14 14V16.2H16.2L20.1545 24.5435L18.6695 27.2385C18.499 27.5575 18.4 27.915 18.4 28.3C18.4 29.5155 19.3845 30.5 20.6 30.5H33.8V28.3H21.0675C20.9135 28.3 20.7925 28.179 20.7925 28.025C20.7925 27.9755 20.8035 27.9315 20.8255 27.893L21.81 26.1H30.005C30.83 26.1 31.5505 25.6435 31.93 24.967L35.8625 17.828C35.9505 17.674 36 17.4925 36 17.3C36 16.6895 35.505 16.2 34.9 16.2H18.6365L17.5915 14H14ZM31.6 31.6C30.3845 31.6 29.411 32.5845 29.411 33.8C29.411 35.0155 30.3845 36 31.6 36C32.8155 36 33.8 35.0155 33.8 33.8C33.8 32.5845 32.8155 31.6 31.6 31.6Z" fill="white"/>
</svg>
