<svg xmlns="http://www.w3.org/2000/svg" width="721" height="315" viewBox="0 0 721 315" fill="none">
    <mask id="mask0_4091_13487" style="mask-type:alpha" maskUnits="userSpaceOnUse" x="0" y="0" width="721" height="315">
        <rect x="0.886719" width="719.823" height="314.104" fill="#D9D9D9"/>
    </mask>
    <g mask="url(#mask0_4091_13487)">
        <ellipse cx="280.403" cy="261.972" rx="233.895" ry="236.29" fill="white"/>
        <g clip-path="url(#clip0_4091_13487)">
            <path d="M99.175 287.105C103.095 280.418 99.9568 271.565 94.7925 265.81C89.6172 260.056 82.7021 256.179 77.2076 250.725C67.3856 240.983 62.7829 226.176 65.3485 212.523C67.9031 198.871 77.5489 186.774 90.2119 181.32C107.731 173.777 131.13 177.487 143.044 162.502C151.038 152.46 150.047 137.93 146.699 125.5C143.352 113.069 138.001 100.817 138.562 87.942C139.806 59.6155 170.792 39.9647 198.838 41.8309C226.883 43.6971 251.438 61.0929 272.547 79.8218C278.647 85.2427 284.857 90.9747 292.598 93.5074C300.339 96.0401 310.106 94.3405 314.378 87.3533C316.603 83.7097 317.043 79.1997 319.135 75.4784C325.753 63.7145 343.723 66.4139 354.779 74.0676C365.834 81.7213 375.568 93.0297 388.891 94.5627C405.606 96.4844 419.822 81.8657 427.277 66.6472C434.731 51.4286 438.651 34.1105 449.519 21.147C466.686 0.674129 500.457 -2.65841 521.235 14.0709C536.563 26.4124 543.555 46.1299 552.529 63.7256C561.492 81.3214 575.587 99.1505 595.132 100.85C619.224 102.95 638.879 79.7774 662.95 77.3668C683.585 75.3006 703.614 90.086 711.52 109.426C719.426 128.766 716.641 151.316 707.953 170.3C699.375 189.029 684.928 207.447 688.54 227.753C692.163 248.137 712.875 261.423 718.821 281.251C723.721 297.581 717.433 315.654 706.731 328.884C696.039 342.103 681.438 351.412 667.112 360.488L115.362 380.394C98.1509 365.909 86.457 346.013 75.0934 326.518C71.5809 320.486 67.9581 313.288 70.6229 306.834C75.1815 295.803 93.1519 297.381 99.186 287.105H99.175Z" fill="#F4F6F8"/>
            <mask id="mask1_4091_13487" style="mask-type:luminance" maskUnits="userSpaceOnUse" x="64" y="0" width="657" height="378">
                <path d="M99.1749 284.389C103.095 277.701 99.9567 268.848 94.7924 263.094C89.6171 257.34 82.702 253.463 77.2075 248.008C67.3854 238.266 62.7828 223.459 65.3484 209.807C67.914 196.154 77.5488 184.057 90.2117 178.603C107.731 171.06 131.13 174.771 143.044 159.785C151.038 149.743 150.047 135.213 146.699 122.783C143.352 110.353 138 98.1001 138.562 85.2254C139.806 56.8988 170.792 37.248 198.838 39.1142C226.883 40.9804 251.438 58.3763 272.547 77.1051C278.647 82.526 284.857 88.258 292.598 90.7907C300.328 93.3234 310.106 91.6238 314.378 84.6366C316.603 80.9931 317.043 76.483 319.135 72.7617C325.753 60.9979 343.723 63.6972 354.779 71.3509C365.834 79.0046 375.568 90.313 388.891 91.846C405.606 93.7678 419.822 79.1491 427.277 63.9305C434.742 48.7119 438.651 31.3939 449.519 18.4303C466.686 -2.04255 500.457 -5.37508 521.235 11.3542C536.563 23.6957 543.555 43.4132 552.529 61.009C561.492 78.6047 575.587 96.4338 595.132 98.1334C619.224 100.233 638.879 77.0607 662.95 74.6501C683.585 72.584 703.614 87.3693 711.52 106.709C719.426 126.049 716.641 148.599 707.953 167.583C699.375 186.312 684.928 204.73 688.54 225.036C692.163 245.42 712.875 258.706 718.821 278.535C723.721 294.864 717.433 312.937 706.731 326.168C696.039 339.387 681.438 348.695 667.112 357.771L115.361 377.677C98.1508 363.192 86.4569 343.297 75.0933 323.801C71.5807 317.77 67.9581 310.571 70.6227 304.117C75.1814 293.087 93.1517 294.664 99.1859 284.389H99.1749Z" fill="white"/>
            </mask>
            <g mask="url(#mask1_4091_13487)">
                <path d="M430.068 148.612H532.979V294.388H430.068V148.612Z" fill="#F0F1F6"/>
                <path d="M430.068 -4.54053H532.979V141.236H430.068V-4.54053Z" fill="#F0F1F6"/>
                <path d="M525.281 -34.3669C525.281 -34.3669 524.158 83.9046 449.227 159.32C449.227 159.32 474.575 326.968 477.955 362.227H396.835C396.835 362.227 409.234 206.52 413.738 161.486C413.738 161.486 404.158 10.6556 401.911 -35.9999L525.281 -34.3669Z" fill="#F4F6F8"/>
            </g>
            <path d="M198.102 96.1797H211.612V153.855H198.102V96.1797Z" fill="white"/>
            <path d="M184.968 103.711H198.479V153.843H184.968V103.711Z" fill="#E0E2EC"/>
            <path d="M211.35 110.232H220.522V153.844H211.35V110.232Z" fill="#E0E2EC"/>
            <path d="M178.23 109.81H185.442V153.855H178.23V109.81Z" fill="white"/>
            <path d="M118.05 118.208C118.656 117.186 119.944 116.886 120.935 117.341C121.475 117.597 121.926 118.03 122.278 118.563C121.089 115.553 120.594 112.165 120.891 108.865C120.968 107.977 121.133 107.044 121.695 106.422C122.664 105.333 124.392 105.822 125.273 106.999C125.593 107.421 125.824 107.899 126 108.41C125.758 106.833 125.648 105.222 125.714 103.622C125.758 102.6 126.099 101.301 126.991 101.223C127.608 101.167 128.103 101.767 128.467 102.334C129.832 104.489 130.68 107.077 130.889 109.732C130.361 104.9 129.832 99.9009 131.032 95.2353C131.263 94.3133 131.583 93.3913 132.166 92.7026C132.739 92.0139 133.631 91.5918 134.424 91.8806C135.459 92.2472 135.954 93.5691 136.252 94.7688C137.099 98.1569 137.342 101.723 137.022 105.222C137.177 104.9 137.331 104.578 137.518 104.266C138.013 103.422 138.74 102.6 139.632 102.611C140.326 102.611 140.953 103.145 141.317 103.811C141.691 104.478 141.845 105.277 141.944 106.066C142.352 109.243 141.944 112.542 140.81 115.475C141.273 114.853 141.933 114.431 142.638 114.364C143.805 114.253 144.984 115.142 145.38 116.408C145.71 117.463 145.523 118.63 145.226 119.696C143.134 127.139 136.064 132.06 129.403 131.16C126.452 130.76 123.633 129.249 121.408 126.983C119.68 125.217 116.321 121.085 118.028 118.219L118.05 118.208Z" fill="#ECECF3"/>
            <path d="M122.29 152.766H141.582L146.03 129.905H117.842L122.29 152.766Z" fill="white"/>
            <path d="M121.353 150.656H142.604V153.466H121.353V150.656Z" fill="#7880CA"/>
            <path d="M117.136 126.017H146.822V132.327H117.136V126.017Z" fill="white"/>
            <path d="M94.574 153.344H250.978V157.221H94.574V153.344Z" fill="white"/>
            <path d="M96.6881 157.233H248.863V168.485H96.6881V157.233Z" fill="white"/>
            <path d="M172.887 66.509H329.291V70.3859H172.887V66.509Z" fill="#ECECF3"/>
            <path d="M175.002 70.3864H327.177V81.6392H175.002V70.3864Z" fill="white"/>
            <path d="M221.327 227.626H339.246C341.559 227.626 343.629 229.07 344.444 231.258L376.123 316.582H249.086L217.903 232.602C217.011 230.192 218.773 227.615 221.327 227.615V227.626Z" fill="#E0E2EC"/>
            <path d="M217.022 227.626H334.942C337.254 227.626 339.324 229.07 340.139 231.258L371.818 316.582H244.782L213.598 232.602C212.706 230.192 214.468 227.615 217.022 227.615V227.626Z" fill="white"/>
            <g style="mix-blend-mode:overlay" opacity="0.22">
                <path d="M217.024 227.626H316.367C268.061 228.859 242.24 230.336 232.307 231.813C222.375 233.291 215.692 235.501 217.42 242.9L213.599 232.613C212.707 230.203 214.469 227.626 217.024 227.626Z" fill="#57D9CD"/>
            </g>
            <path d="M309.694 269.072C312.326 278.392 321.003 285.59 329.063 285.157C337.123 284.723 341.528 276.814 338.885 267.505C336.253 258.185 327.577 250.987 319.516 251.42C311.456 251.853 307.052 259.763 309.694 269.072Z" fill="white"/>
            <path d="M312.359 268.927C314.517 276.547 321.608 282.423 328.193 282.068C334.789 281.712 338.379 275.247 336.22 267.638C334.062 260.018 326.971 254.141 320.386 254.497C313.791 254.852 310.201 261.317 312.359 268.927Z" fill="#7880CA"/>
            <path d="M291.802 276.158L319.087 290.099C320.299 290.721 321.488 290.088 321.763 288.689L323.514 279.591C323.778 278.191 323.018 276.558 321.807 275.947L294.521 262.006C293.31 261.384 292.121 262.017 291.846 263.417L290.095 272.515C289.831 273.914 290.59 275.547 291.802 276.158Z" fill="#E0E2EC"/>
            <g style="mix-blend-mode:screen">
                <path d="M292.683 275.336L318.317 288.444C319.33 288.966 320.332 288.433 320.552 287.267L322.017 279.657C322.237 278.491 321.609 277.125 320.596 276.603L294.962 263.495C293.949 262.972 292.947 263.506 292.727 264.672L291.262 272.281C291.042 273.448 291.67 274.814 292.683 275.336Z" fill="#393B6B"/>
            </g>
            <g style="mix-blend-mode:multiply" opacity="0.33">
                <path d="M293.939 268.449C294.237 267.894 295.139 268.016 295.283 268.627C295.525 269.604 295.36 270.615 295.569 271.604C295.646 271.948 295.734 272.759 295.998 272.981C296.417 273.303 297.121 272.937 297.573 272.837C299.39 272.415 300.546 273.037 301.757 274.381C302.231 274.903 302.506 275.07 303.189 274.792C303.552 274.647 303.86 274.459 304.246 274.359C305.105 274.125 306.041 274.148 306.899 274.392C308.309 274.792 309.564 275.803 310.368 277.058C310.599 276.891 310.819 276.725 311.04 276.58C312.515 275.592 314.42 274.914 316.105 275.825C319.21 277.513 320.091 283.257 316.898 285.278C316.094 285.789 315.378 284.534 316.16 284.001C317.757 282.901 317.426 280.168 316.556 278.724C315.356 276.758 313.484 277.202 311.866 278.38C311.601 278.569 311.37 278.791 311.15 279.013C311.348 280.068 311.227 281.201 310.434 281.935C309.267 283.012 307.648 281.857 307.857 280.391C307.968 279.602 308.43 278.891 309.003 278.258C308.959 278.18 308.937 278.113 308.881 278.036C307.934 276.547 306.041 275.481 304.334 276.247C303.034 276.825 302.143 277.28 300.953 276.147C300.381 275.603 299.962 274.792 299.181 274.547C298.388 274.303 297.529 274.77 296.725 274.881C295.305 275.081 294.556 274.37 294.082 273.07C293.587 271.682 293.224 269.815 293.939 268.46V268.449Z" fill="#393B6B"/>
            </g>
            <path d="M317.204 267.017C319.241 267.428 321.378 266.35 322.644 264.695C323.899 263.029 324.384 260.885 324.428 258.785C324.34 263.662 327.907 268.061 331.783 270.449C330.01 269.794 328.546 270.216 327.214 270.838C325.881 271.46 324.879 272.693 324.263 274.037C323.635 275.381 323.338 276.859 323.051 278.325C323.161 276.081 322.798 273.793 321.829 271.771C320.86 269.749 319.241 267.994 317.226 267.028L317.204 267.017Z" fill="white"/>
            <path d="M164.553 226.14L160.605 230.122L145.905 215.292L149.853 211.31L164.553 226.14Z" fill="#393B6B"/>
            <g style="mix-blend-mode:multiply" opacity="0.33">
                <path d="M162.585 228.134L160.607 230.129L145.907 215.299L147.885 213.304L162.585 228.134Z" fill="#393B6B"/>
            </g>
            <path d="M160.038 209.541L163.985 213.523L107.98 270.023L104.032 266.041L160.038 209.541Z" fill="#393B6B"/>
            <g style="mix-blend-mode:multiply" opacity="0.33">
                <path d="M160.034 209.536L161.739 211.256L105.734 267.756L104.029 266.036L160.034 209.536Z" fill="#393B6B"/>
            </g>
            <path d="M103.276 271.659L107.224 267.676L163.229 324.176L159.282 328.159L103.276 271.659Z" fill="#393B6B"/>
            <g style="mix-blend-mode:multiply" opacity="0.33">
                <path d="M103.296 271.665L104.885 270.062L160.89 326.562L159.302 328.165L103.296 271.665Z" fill="#393B6B"/>
            </g>
            <path d="M100.498 268.205C100.498 271.316 102.997 273.837 106.08 273.837C109.164 273.837 111.663 271.316 111.663 268.205C111.663 265.095 109.164 262.573 106.08 262.573C102.997 262.573 100.498 265.095 100.498 268.205Z" fill="#393B6B"/>
            <g style="mix-blend-mode:multiply" opacity="0.33">
                <path d="M101.72 264.74C101.709 268.25 104.153 270.916 107.281 272.282C107.875 272.549 108.525 272.76 109.186 272.893C108.305 273.482 107.237 273.837 106.102 273.837C103.019 273.837 100.52 271.316 100.52 268.205C100.52 266.895 100.982 265.695 101.731 264.74H101.72Z" fill="#393B6B"/>
            </g>
            <path d="M102.932 268.205C102.932 269.972 104.341 271.394 106.092 271.394C107.843 271.394 109.252 269.961 109.252 268.205C109.252 266.45 107.843 265.017 106.092 265.017C104.341 265.017 102.932 266.439 102.932 268.205Z" fill="#7880CA"/>
            <path d="M148.792 219.717C148.792 222.827 151.291 225.349 154.374 225.349C157.457 225.349 159.957 222.827 159.957 219.717C159.957 216.606 157.457 214.085 154.374 214.085C151.291 214.085 148.792 216.606 148.792 219.717Z" fill="#393B6B"/>
            <g style="mix-blend-mode:multiply" opacity="0.33">
                <path d="M150.003 216.251C149.992 219.762 152.437 222.428 155.564 223.794C156.158 224.061 156.808 224.272 157.469 224.405C156.588 224.994 155.52 225.349 154.386 225.349C151.302 225.349 148.803 222.828 148.803 219.717C148.803 218.406 149.265 217.207 150.014 216.251H150.003Z" fill="#393B6B"/>
            </g>
            <path d="M151.215 219.717C151.215 221.483 152.624 222.905 154.375 222.905C156.126 222.905 157.535 221.483 157.535 219.717C157.535 217.951 156.126 216.529 154.375 216.529C152.624 216.529 151.215 217.962 151.215 219.717Z" fill="#7880CA"/>
            <g style="mix-blend-mode:overlay" opacity="0.5">
                <path d="M166.587 339.554L162.27 264.206L199.466 237.545L331.073 337.91C332.152 338.732 332.108 340.532 330.863 341.087C304.227 352.918 184.733 353.306 166.587 339.554Z" fill="white"/>
            </g>
            <path d="M203.32 237.779L161.279 267.383C161.279 267.383 144.741 233.78 163.68 223.116C182.619 212.451 203.32 237.779 203.32 237.779Z" fill="#7880CA"/>
            <path d="M163.682 223.115C164.53 222.638 165.389 222.249 166.248 221.916C162.042 230.08 163.848 241.755 166.655 249.809C167.812 253.108 169.573 256.685 171.842 259.951L161.282 267.382C161.282 267.382 144.743 233.779 163.682 223.115Z" fill="#626CBD"/>
            <path d="M554.097 335.133H616.685L627.696 286.712H565.108L554.097 335.133Z" fill="#ECECF3"/>
            <g style="mix-blend-mode:multiply" opacity="0.15">
                <path d="M565.307 328.957C568.379 318.248 567.3 305.118 563.369 294.354L565.108 286.723H627.696L616.685 335.144H563.082C563.985 333.067 564.734 330.979 565.318 328.957H565.307Z" fill="#73A3EB"/>
            </g>
            <path d="M565.12 286.712H627.708L638.719 336.411H576.131L565.12 286.712Z" fill="white"/>
            <path d="M575.173 322.381C585.094 325.458 595.764 327.046 605.674 322.992C614.505 319.381 621.398 311.428 624.426 302.374C625.814 298.22 626.981 291.921 626.045 286.712H627.708L638.719 336.411H576.131L572.861 321.648C573.642 321.903 574.413 322.147 575.173 322.381Z" fill="#ECECF3"/>
            <path d="M619.404 286.711H620.957C621.023 286.556 621.056 286.389 621.111 286.212C621.166 286.023 621.243 285.878 621.386 285.656C621.595 285.323 621.915 285.034 622.3 284.834C622.652 284.656 623.093 284.579 623.544 284.623C623.919 284.645 624.37 284.801 624.722 285.045C625.119 285.334 625.416 285.767 625.625 286.212C625.702 286.378 625.758 286.545 625.791 286.711C625.846 286.956 625.857 287.189 625.813 287.422C625.736 287.856 625.548 288.233 625.273 288.589C625.152 288.755 624.987 288.878 624.844 289.022C624.689 289.177 624.458 289.344 624.425 289.566C624.403 289.688 624.425 289.855 624.524 289.944C625.009 290.333 625.702 289.9 626.11 289.566C626.55 289.2 626.859 288.711 627.068 288.178C627.255 287.7 627.31 287.2 627.255 286.711C627.09 285.012 625.658 283.412 623.996 283.09C622.84 282.868 621.683 283.146 620.758 283.89C620.362 284.212 620.01 284.623 619.767 285.078C619.492 285.567 619.239 286.167 619.404 286.711Z" fill="#7880CA"/>
            <path d="M609.68 286.711H611.233C611.299 286.556 611.332 286.389 611.387 286.212C611.442 286.023 611.519 285.878 611.662 285.656C611.872 285.323 612.191 285.034 612.576 284.834C612.929 284.656 613.369 284.579 613.821 284.623C614.195 284.645 614.646 284.801 614.999 285.045C615.395 285.334 615.693 285.767 615.902 286.212C615.979 286.378 616.034 286.545 616.067 286.711C616.122 286.956 616.133 287.189 616.089 287.422C616.012 287.856 615.825 288.233 615.549 288.589C615.428 288.755 615.263 288.878 615.12 289.022C614.966 289.177 614.735 289.344 614.702 289.566C614.68 289.688 614.702 289.855 614.801 289.944C615.285 290.333 615.979 289.9 616.386 289.566C616.827 289.2 617.135 288.711 617.344 288.178C617.531 287.7 617.587 287.2 617.531 286.711C617.366 285.012 615.935 283.412 614.272 283.09C613.116 282.868 611.96 283.146 611.035 283.89C610.638 284.212 610.286 284.623 610.044 285.078C609.769 285.567 609.515 286.167 609.68 286.711Z" fill="#7880CA"/>
            <path d="M599.959 286.711H601.511C601.577 286.556 601.61 286.389 601.665 286.212C601.721 286.023 601.798 285.878 601.941 285.656C602.15 285.323 602.469 285.034 602.855 284.834C603.207 284.656 603.648 284.579 604.099 284.623C604.473 284.645 604.925 284.801 605.277 285.045C605.674 285.334 605.971 285.767 606.18 286.212C606.257 286.378 606.312 286.545 606.345 286.711C606.4 286.956 606.411 287.189 606.367 287.422C606.29 287.856 606.103 288.233 605.828 288.589C605.707 288.755 605.541 288.878 605.398 289.022C605.244 289.177 605.013 289.344 604.98 289.566C604.958 289.688 604.98 289.855 605.079 289.944C605.563 290.333 606.257 289.9 606.665 289.566C607.105 289.2 607.413 288.711 607.623 288.178C607.81 287.7 607.865 287.2 607.81 286.711C607.645 285.012 606.213 283.412 604.55 283.09C603.394 282.868 602.238 283.146 601.313 283.89C600.917 284.212 600.564 284.623 600.322 285.078C600.047 285.567 599.794 286.167 599.959 286.711Z" fill="#7880CA"/>
            <path d="M590.246 286.711H591.798C591.865 286.556 591.898 286.389 591.953 286.212C592.008 286.023 592.085 285.878 592.228 285.656C592.437 285.323 592.756 285.034 593.142 284.834C593.494 284.656 593.935 284.579 594.386 284.623C594.76 284.645 595.212 284.801 595.564 285.045C595.961 285.334 596.258 285.767 596.467 286.212C596.544 286.378 596.599 286.545 596.632 286.711C596.687 286.956 596.698 287.189 596.654 287.422C596.577 287.856 596.39 288.233 596.115 288.589C595.994 288.755 595.829 288.878 595.685 289.022C595.531 289.177 595.3 289.344 595.267 289.566C595.245 289.688 595.267 289.855 595.366 289.944C595.851 290.333 596.544 289.9 596.952 289.566C597.392 289.2 597.7 288.711 597.91 288.178C598.097 287.7 598.152 287.2 598.097 286.711C597.932 285.012 596.5 283.412 594.838 283.09C593.681 282.868 592.525 283.146 591.6 283.89C591.204 284.212 590.851 284.623 590.609 285.078C590.334 285.567 590.081 286.167 590.246 286.711Z" fill="#7880CA"/>
            <path d="M580.524 286.711H582.077C582.143 286.556 582.176 286.389 582.231 286.212C582.286 286.023 582.363 285.878 582.506 285.656C582.715 285.323 583.035 285.034 583.42 284.834C583.772 284.656 584.213 284.579 584.664 284.623C585.039 284.645 585.49 284.801 585.843 285.045C586.239 285.334 586.536 285.767 586.746 286.212C586.823 286.378 586.878 286.545 586.911 286.711C586.966 286.956 586.977 287.189 586.933 287.422C586.856 287.856 586.668 288.233 586.393 288.589C586.272 288.755 586.107 288.878 585.964 289.022C585.81 289.177 585.578 289.344 585.545 289.566C585.523 289.688 585.545 289.855 585.644 289.944C586.129 290.333 586.823 289.9 587.23 289.566C587.67 289.2 587.979 288.711 588.188 288.178C588.375 287.7 588.43 287.2 588.375 286.711C588.21 285.012 586.779 283.412 585.116 283.09C583.96 282.868 582.804 283.146 581.879 283.89C581.482 284.212 581.13 284.623 580.888 285.078C580.612 285.567 580.359 286.167 580.524 286.711Z" fill="#7880CA"/>
            <path d="M570.801 286.711H572.353C572.419 286.556 572.452 286.389 572.507 286.212C572.562 286.023 572.639 285.878 572.783 285.656C572.992 285.323 573.311 285.034 573.697 284.834C574.049 284.656 574.489 284.579 574.941 284.623C575.315 284.645 575.767 284.801 576.119 285.045C576.515 285.334 576.813 285.767 577.022 286.212C577.099 286.378 577.154 286.545 577.187 286.711C577.242 286.956 577.253 287.189 577.209 287.422C577.132 287.856 576.945 288.233 576.67 288.589C576.548 288.755 576.383 288.878 576.24 289.022C576.086 289.177 575.855 289.344 575.822 289.566C575.8 289.688 575.822 289.855 575.921 289.944C576.405 290.333 577.099 289.9 577.506 289.566C577.947 289.2 578.255 288.711 578.464 288.178C578.652 287.7 578.707 287.2 578.652 286.711C578.486 285.012 577.055 283.412 575.392 283.09C574.236 282.868 573.08 283.146 572.155 283.89C571.759 284.212 571.406 284.623 571.164 285.078C570.889 285.567 570.635 286.167 570.801 286.711Z" fill="#7880CA"/>
            <path d="M546.202 277.403H534.09C528.783 277.403 524.477 281.747 524.477 287.101V339C524.477 340.788 525.909 342.232 527.681 342.232H552.622C554.395 342.232 555.826 340.788 555.826 339V287.101C555.826 281.747 551.521 277.403 546.213 277.403H546.202Z" fill="#7077B4"/>
            <path d="M531.547 268.438H532.659V265.062C532.659 264.217 533.341 263.529 534.178 263.529H546.114C546.951 263.529 547.634 264.217 547.634 265.062V268.438H548.746C549.583 268.438 550.266 269.127 550.266 269.971V276.448C550.266 277.292 549.583 277.981 548.746 277.981H531.536C530.699 277.981 530.016 277.292 530.016 276.448V269.971C530.016 269.127 530.699 268.438 531.536 268.438H531.547Z" fill="#393B6B"/>
            <g style="mix-blend-mode:multiply" opacity="0.33">
                <path d="M531.549 268.438H532.662V265.062C532.662 264.217 533.344 263.529 534.181 263.529H536.824C536.78 267.172 537.793 270.938 539.456 273.226C540.623 274.837 542.241 276.659 544.113 277.981H531.549C530.713 277.981 530.03 277.292 530.03 276.448V269.971C530.03 269.127 530.713 268.438 531.549 268.438Z" fill="#393B6B"/>
            </g>
            <path d="M551.513 283.646C552.427 285.124 552.283 287.812 551.59 287.89C551.16 287.934 551.094 286.601 550.731 285.357C550.5 284.568 550.367 283.946 550.081 283.213C549.795 282.48 550.786 282.48 551.513 283.646Z" fill="#7880CA"/>
            <path d="M552.678 294.221C552.579 293.377 552.458 292.533 552.326 291.711C552.249 291.244 552.15 290.778 551.907 290.378C551.83 290.245 551.72 290.111 551.566 290.1C550.971 290.034 551.126 292.733 551.126 293.1C551.104 295.321 551.104 297.543 551.093 299.765C551.093 301.986 551.093 304.175 551.555 306.352C551.621 306.674 552.128 306.674 552.205 306.352C553.119 302.486 553.141 298.254 552.678 294.233V294.221Z" fill="#7880CA"/>
            <path d="M306.929 103.745C303.009 102.79 299.188 100.524 296.259 97.7798C289.564 91.5035 289.708 82.4612 291.095 73.73C291.734 69.7087 295.599 71.9304 294.905 74.5187C293.793 78.7177 293.319 83.1166 294.531 87.3489C295.411 90.4371 297.129 92.9587 299.386 95.0249C301.137 96.6245 302.822 97.6798 305.189 98.7351C305.586 98.9128 305.993 99.0794 306.401 99.235C306.951 99.446 305.971 99.0794 306.489 99.2683C306.632 99.3238 306.775 99.3683 306.918 99.4127C307.204 99.5016 307.502 99.6015 307.788 99.6682C310.376 100.29 309.506 104.367 306.918 103.734L306.929 103.745Z" fill="white"/>
            <path d="M287.405 113.731L299.11 93.0804C301.874 88.2149 308.073 86.5042 312.896 89.2924L333.366 101.101C338.189 103.889 343.331 110.587 344.795 115.997L359.517 170.517C360.982 175.927 357.789 181.559 352.426 183.037L312.18 194.089C306.818 195.567 301.235 192.345 299.77 186.936L285.048 132.415C283.584 127.006 284.652 118.597 287.405 113.731ZM307.236 119.419C311.42 121.829 316.761 120.374 319.15 116.142C321.54 111.92 320.097 106.533 315.902 104.122C311.718 101.712 306.377 103.167 303.988 107.399C301.598 111.62 303.041 117.008 307.236 119.419Z" fill="#7880CA"/>
            <path d="M302.803 161.318C299.722 149.918 306.385 138.157 317.686 135.049C328.986 131.941 340.644 138.663 343.725 150.063L344.843 154.2C347.924 165.6 341.26 177.361 329.96 180.469C318.66 183.577 307.002 176.855 303.921 165.455L302.803 161.318Z" fill="white"/>
            <g style="mix-blend-mode:multiply" opacity="0.33">
                <path d="M312.951 155.088L329.964 149.79C330.911 149.49 331.351 148.345 330.944 147.235C330.536 146.124 329.435 145.457 328.488 145.757L311.476 151.056C310.529 151.356 310.088 152.5 310.496 153.611C310.903 154.722 312.004 155.388 312.951 155.088Z" fill="#E0E2EC"/>
            </g>
            <g style="mix-blend-mode:multiply" opacity="0.33">
                <path d="M313.083 163.642L335.534 156.466C336.779 156.066 337.461 154.833 337.054 153.733C336.647 152.622 335.281 152.044 334.037 152.444L311.585 159.62C310.341 160.02 309.658 161.253 310.065 162.353C310.473 163.464 311.838 164.042 313.083 163.642Z" fill="#E0E2EC"/>
            </g>
            <g style="mix-blend-mode:multiply" opacity="0.33">
                <path d="M320.097 169.739L334.984 165.185C335.81 164.929 336.162 163.819 335.755 162.708C335.359 161.597 334.346 160.897 333.52 161.153L318.633 165.707C317.807 165.963 317.454 167.073 317.862 168.184C318.258 169.295 319.271 169.995 320.097 169.739Z" fill="#E0E2EC"/>
            </g>
            <path d="M307.798 101.934C307.953 101.556 307.589 102.545 307.699 102.2C307.776 101.989 307.842 101.767 307.909 101.556C308.14 100.801 308.316 100.023 308.47 99.2343C308.569 98.7122 308.646 98.179 308.723 97.6458C308.756 97.3791 308.789 97.1125 308.811 96.8459C308.767 97.3347 308.844 96.3461 308.844 96.1905C308.911 94.7242 308.833 93.2468 308.613 91.7916C308.206 89.0034 306.818 85.7153 304.803 83.2492C301.599 79.339 297.107 76.8618 292.46 75.1067C291.403 74.7068 291.116 73.2072 291.59 72.2963C292.162 71.1965 293.319 71.0188 294.376 71.4187C303.317 74.8068 311.036 81.3052 312.676 91.1917C313.37 95.3463 313.007 99.923 311.465 103.866C311.047 104.922 309.593 105.233 308.679 104.744C307.6 104.178 307.391 102.989 307.809 101.934H307.798Z" fill="white"/>
            <path d="M249.77 186.247C250.21 185.402 251.576 185.591 251.807 186.513C252.17 187.991 251.928 189.513 252.247 191.012C252.357 191.534 252.49 192.767 252.897 193.089C253.525 193.578 254.604 193.023 255.286 192.867C258.039 192.234 259.79 193.167 261.618 195.211C262.334 196.011 262.741 196.244 263.776 195.833C264.327 195.611 264.8 195.333 265.373 195.167C266.683 194.811 268.092 194.845 269.392 195.211C271.517 195.822 273.433 197.355 274.633 199.244C274.985 198.988 275.327 198.744 275.646 198.521C277.881 197.022 280.766 196 283.31 197.377C288.023 199.932 289.344 208.619 284.51 211.685C283.288 212.463 282.22 210.552 283.387 209.752C285.799 208.086 285.314 203.953 283.982 201.765C282.176 198.788 279.335 199.466 276.89 201.243C276.483 201.532 276.142 201.865 275.811 202.198C276.109 203.798 275.921 205.509 274.721 206.62C272.959 208.252 270.504 206.508 270.812 204.287C270.988 203.098 271.671 202.01 272.552 201.065C272.486 200.954 272.442 200.843 272.376 200.732C270.944 198.488 268.081 196.866 265.483 198.022C263.512 198.899 262.168 199.588 260.374 197.866C259.515 197.044 258.876 195.811 257.687 195.433C256.498 195.056 255.176 195.778 253.976 195.944C251.818 196.244 250.684 195.167 249.979 193.212C249.219 191.101 248.669 188.291 249.759 186.224L249.77 186.247Z" fill="white"/>
            <path d="M246.74 90.1473V58.9826C246.74 58.5035 247.52 58.1172 248.482 58.1172H280.266C281.229 58.1172 282.008 58.5035 282.008 58.9826V90.1473C282.008 91.1106 280.434 91.8936 278.489 91.8936H250.265C248.324 91.8936 246.745 91.1106 246.745 90.1473H246.74Z" fill="white"/>
            <path d="M252.023 71.8445H275.511C275.939 71.8445 276.285 71.4942 276.285 71.0615C276.285 70.6288 275.939 70.2786 275.511 70.2786H252.023C251.595 70.2786 251.249 70.6288 251.249 71.0615C251.249 71.4942 251.595 71.8445 252.023 71.8445Z" fill="#ECECF3"/>
            <path d="M252.023 76.8099H275.511C275.939 76.8099 276.285 76.4596 276.285 76.0269C276.285 75.5942 275.939 75.2439 275.511 75.2439H252.023C251.595 75.2439 251.249 75.5942 251.249 76.0269C251.249 76.4596 251.595 76.8099 252.023 76.8099Z" fill="#ECECF3"/>
            <path d="M252.023 81.7812H275.511C275.939 81.7812 276.285 81.4309 276.285 80.9982C276.285 80.5655 275.939 80.2152 275.511 80.2152H252.023C251.595 80.2152 251.249 80.5655 251.249 80.9982C251.249 81.4309 251.595 81.7812 252.023 81.7812Z" fill="#ECECF3"/>
            <path d="M252.023 86.7518H275.511C275.939 86.7518 276.285 86.4015 276.285 85.9688C276.285 85.5361 275.939 85.1858 275.511 85.1858H252.023C251.595 85.1858 251.249 85.5361 251.249 85.9688C251.249 86.4015 251.595 86.7518 252.023 86.7518Z" fill="#ECECF3"/>
            <path d="M246.739 59.8789V64.7571H282.002V59.8789C282.002 58.9053 281.223 58.1172 280.26 58.1172H248.476C247.514 58.1172 246.734 58.9053 246.734 59.8789H246.739Z" fill="#7880CA"/>
            <path d="M255.282 61.1201C255.282 61.7588 255.797 62.2791 256.428 62.2791C257.06 62.2791 257.574 61.7588 257.574 61.1201C257.574 60.4813 257.06 59.9611 256.428 59.9611C255.797 59.9611 255.282 60.4813 255.282 61.1201Z" fill="#7F7F98"/>
            <path d="M251.565 61.12C251.565 61.7587 252.079 62.279 252.711 62.279C253.342 62.279 253.856 61.7587 253.856 61.12C253.856 60.4812 253.342 59.9609 252.711 59.9609C252.079 59.9609 251.565 60.4812 251.565 61.12Z" fill="#7F7F98"/>
            <path d="M248.006 61.12C248.006 61.7587 248.52 62.279 249.152 62.279C249.783 62.279 250.298 61.7587 250.298 61.12C250.298 60.4812 249.783 59.9609 249.152 59.9609C248.52 59.9609 248.006 60.4812 248.006 61.12Z" fill="#7F7F98"/>
            <path d="M174.888 66.2584V33.9392C174.888 33.4424 175.696 33.0417 176.694 33.0417H209.656C210.654 33.0417 211.462 33.4424 211.462 33.9392V66.2584C211.462 67.2574 209.83 68.0694 207.812 68.0694H178.543C176.53 68.0694 174.893 67.2574 174.893 66.2584H174.888Z" fill="white"/>
            <path d="M180.366 47.2783H204.724C205.167 47.2783 205.526 46.915 205.526 46.4663C205.526 46.0176 205.167 45.6543 204.724 45.6543H180.366C179.922 45.6543 179.563 46.0176 179.563 46.4663C179.563 46.915 179.922 47.2783 180.366 47.2783Z" fill="#ECECF3"/>
            <path d="M180.366 52.4274H204.724C205.167 52.4274 205.526 52.0642 205.526 51.6155C205.526 51.1667 205.167 50.8035 204.724 50.8035H180.366C179.922 50.8035 179.563 51.1667 179.563 51.6155C179.563 52.0642 179.922 52.4274 180.366 52.4274Z" fill="#ECECF3"/>
            <path d="M180.366 57.5828H204.724C205.167 57.5828 205.526 57.2196 205.526 56.7709C205.526 56.3221 205.167 55.9589 204.724 55.9589H180.366C179.922 55.9589 179.563 56.3221 179.563 56.7709C179.563 57.2196 179.922 57.5828 180.366 57.5828Z" fill="#ECECF3"/>
            <path d="M180.366 62.738H204.724C205.167 62.738 205.526 62.3747 205.526 61.926C205.526 61.4773 205.167 61.114 204.724 61.114H180.366C179.922 61.114 179.563 61.4773 179.563 61.926C179.563 62.3747 179.922 62.738 180.366 62.738Z" fill="#ECECF3"/>
            <path d="M174.887 34.8687V39.9276H211.456V34.8687C211.456 33.8591 210.648 33.0417 209.65 33.0417H176.688C175.69 33.0417 174.882 33.8591 174.882 34.8687H174.887Z" fill="#7880CA"/>
            <path d="M183.745 36.1563C183.745 36.8187 184.279 37.3583 184.934 37.3583C185.589 37.3583 186.122 36.8187 186.122 36.1563C186.122 35.4939 185.589 34.9543 184.934 34.9543C184.279 34.9543 183.745 35.4939 183.745 36.1563Z" fill="#7F7F98"/>
            <path d="M179.891 36.1565C179.891 36.819 180.424 37.3585 181.079 37.3585C181.734 37.3585 182.268 36.819 182.268 36.1565C182.268 35.4941 181.734 34.9546 181.079 34.9546C180.424 34.9546 179.891 35.4941 179.891 36.1565Z" fill="#7F7F98"/>
            <path d="M176.2 36.1565C176.2 36.819 176.733 37.3585 177.388 37.3585C178.043 37.3585 178.576 36.819 178.576 36.1565C178.576 35.4941 178.043 34.9546 177.388 34.9546C176.733 34.9546 176.2 35.4941 176.2 36.1565Z" fill="#7F7F98"/>
            <path d="M381.379 257.015V226.572C381.379 226.104 382.14 225.727 383.081 225.727H414.129C415.069 225.727 415.83 226.104 415.83 226.572V257.015C415.83 257.956 414.293 258.721 412.392 258.721H384.822C382.926 258.721 381.384 257.956 381.384 257.015H381.379Z" fill="white"/>
            <path d="M386.538 239.137H409.482C409.9 239.137 410.238 238.795 410.238 238.372C410.238 237.949 409.9 237.607 409.482 237.607H386.538C386.12 237.607 385.782 237.949 385.782 238.372C385.782 238.795 386.12 239.137 386.538 239.137Z" fill="#ECECF3"/>
            <path d="M386.538 243.987H409.482C409.9 243.987 410.238 243.645 410.238 243.222C410.238 242.799 409.9 242.457 409.482 242.457H386.538C386.12 242.457 385.782 242.799 385.782 243.222C385.782 243.645 386.12 243.987 386.538 243.987Z" fill="#ECECF3"/>
            <path d="M386.538 248.844H409.482C409.9 248.844 410.238 248.502 410.238 248.079C410.238 247.656 409.9 247.314 409.482 247.314H386.538C386.12 247.314 385.782 247.656 385.782 248.079C385.782 248.502 386.12 248.844 386.538 248.844Z" fill="#ECECF3"/>
            <path d="M386.538 253.699H409.482C409.9 253.699 410.238 253.357 410.238 252.934C410.238 252.511 409.9 252.169 409.482 252.169H386.538C386.12 252.169 385.782 252.511 385.782 252.934C385.782 253.357 386.12 253.699 386.538 253.699Z" fill="#ECECF3"/>
            <path d="M381.378 227.448V232.213H415.824V227.448C415.824 226.497 415.063 225.727 414.123 225.727H383.075C382.135 225.727 381.373 226.497 381.373 227.448H381.378Z" fill="#7880CA"/>
            <path d="M389.721 228.66C389.721 229.284 390.224 229.792 390.841 229.792C391.458 229.792 391.96 229.284 391.96 228.66C391.96 228.036 391.458 227.528 390.841 227.528C390.224 227.528 389.721 228.036 389.721 228.66Z" fill="#7F7F98"/>
            <path d="M386.087 228.66C386.087 229.284 386.59 229.792 387.207 229.792C387.824 229.792 388.326 229.284 388.326 228.66C388.326 228.036 387.824 227.528 387.207 227.528C386.59 227.528 386.087 228.036 386.087 228.66Z" fill="#7F7F98"/>
            <path d="M382.613 228.66C382.613 229.284 383.115 229.792 383.732 229.792C384.349 229.792 384.852 229.284 384.852 228.66C384.852 228.036 384.349 227.528 383.732 227.528C383.115 227.528 382.613 228.036 382.613 228.66Z" fill="#7F7F98"/>
            <path d="M366.928 90.4527V55.1388C366.928 54.596 367.811 54.1582 368.901 54.1582H404.917C406.008 54.1582 406.891 54.596 406.891 55.1388V90.4527C406.891 91.5442 405.107 92.4314 402.903 92.4314H370.921C368.722 92.4314 366.933 91.5442 366.933 90.4527H366.928Z" fill="white"/>
            <path d="M372.909 69.7143H399.524C400.009 69.7143 400.401 69.3173 400.401 68.827C400.401 68.3367 400.009 67.9398 399.524 67.9398H372.909C372.424 67.9398 372.032 68.3367 372.032 68.827C372.032 69.3173 372.424 69.7143 372.909 69.7143Z" fill="#ECECF3"/>
            <path d="M372.909 75.3416H399.524C400.009 75.3416 400.401 74.9447 400.401 74.4544C400.401 73.9641 400.009 73.5671 399.524 73.5671H372.909C372.424 73.5671 372.032 73.9641 372.032 74.4544C372.032 74.9447 372.424 75.3416 372.909 75.3416Z" fill="#ECECF3"/>
            <path d="M372.909 80.9742H399.524C400.009 80.9742 400.401 80.5772 400.401 80.0869C400.401 79.5966 400.009 79.1997 399.524 79.1997H372.909C372.424 79.1997 372.032 79.5966 372.032 80.0869C372.032 80.5772 372.424 80.9742 372.909 80.9742Z" fill="#ECECF3"/>
            <path d="M372.909 86.6069H399.524C400.009 86.6069 400.401 86.2099 400.401 85.7196C400.401 85.2293 400.009 84.8324 399.524 84.8324H372.909C372.424 84.8324 372.032 85.2293 372.032 85.7196C372.032 86.2099 372.424 86.6069 372.909 86.6069Z" fill="#ECECF3"/>
            <path d="M366.928 56.1545V61.6821H406.885V56.1545C406.885 55.0513 406.002 54.1582 404.911 54.1582H368.895C367.805 54.1582 366.922 55.0513 366.922 56.1545H366.928Z" fill="#7880CA"/>
            <path d="M376.605 57.5611C376.605 58.2849 377.188 58.8745 377.904 58.8745C378.619 58.8745 379.202 58.2849 379.202 57.5611C379.202 56.8373 378.619 56.2478 377.904 56.2478C377.188 56.2478 376.605 56.8373 376.605 57.5611Z" fill="#7F7F98"/>
            <path d="M372.393 57.5609C372.393 58.2847 372.976 58.8742 373.692 58.8742C374.407 58.8742 374.99 58.2847 374.99 57.5609C374.99 56.8371 374.407 56.2476 373.692 56.2476C372.976 56.2476 372.393 56.8371 372.393 57.5609Z" fill="#7F7F98"/>
            <path d="M368.359 57.5609C368.359 58.2847 368.942 58.8742 369.658 58.8742C370.373 58.8742 370.956 58.2847 370.956 57.5609C370.956 56.8371 370.373 56.2476 369.658 56.2476C368.942 56.2476 368.359 56.8371 368.359 57.5609Z" fill="#7F7F98"/>
            <path d="M598.125 227.604V182.509C598.125 181.816 599.252 181.257 600.645 181.257H646.636C648.029 181.257 649.156 181.816 649.156 182.509V227.604C649.156 228.998 646.879 230.131 644.064 230.131H603.224C600.416 230.131 598.132 228.998 598.132 227.604H598.125Z" fill="white"/>
            <path d="M605.76 201.121H639.747C640.366 201.121 640.867 200.614 640.867 199.988C640.867 199.362 640.366 198.855 639.747 198.855H605.76C605.141 198.855 604.64 199.362 604.64 199.988C604.64 200.614 605.141 201.121 605.76 201.121Z" fill="#ECECF3"/>
            <path d="M605.76 208.306H639.747C640.366 208.306 640.867 207.799 640.867 207.173C640.867 206.547 640.366 206.04 639.747 206.04H605.76C605.141 206.04 604.64 206.547 604.64 207.173C604.64 207.799 605.141 208.306 605.76 208.306Z" fill="#ECECF3"/>
            <path d="M605.76 215.499H639.747C640.366 215.499 640.867 214.992 640.867 214.366C640.867 213.74 640.366 213.233 639.747 213.233H605.76C605.141 213.233 604.64 213.74 604.64 214.366C604.64 214.992 605.141 215.499 605.76 215.499Z" fill="#ECECF3"/>
            <path d="M605.76 222.692H639.747C640.366 222.692 640.867 222.185 640.867 221.559C640.867 220.933 640.366 220.426 639.747 220.426H605.76C605.141 220.426 604.64 220.933 604.64 221.559C604.64 222.185 605.141 222.692 605.76 222.692Z" fill="#ECECF3"/>
            <path d="M598.124 183.806V190.865H649.148V183.806C649.148 182.397 648.021 181.257 646.628 181.257H600.637C599.244 181.257 598.117 182.397 598.117 183.806H598.124Z" fill="#7880CA"/>
            <path d="M610.482 185.602C610.482 186.527 611.226 187.279 612.14 187.279C613.054 187.279 613.798 186.527 613.798 185.602C613.798 184.678 613.054 183.925 612.14 183.925C611.226 183.925 610.482 184.678 610.482 185.602Z" fill="#7F7F98"/>
            <path d="M605.102 185.602C605.102 186.527 605.846 187.279 606.76 187.279C607.674 187.279 608.418 186.527 608.418 185.602C608.418 184.678 607.674 183.925 606.76 183.925C605.846 183.925 605.102 184.678 605.102 185.602Z" fill="#7F7F98"/>
            <path d="M599.951 185.602C599.951 186.527 600.696 187.279 601.61 187.279C602.523 187.279 603.268 186.527 603.268 185.602C603.268 184.678 602.523 183.925 601.61 183.925C600.696 183.925 599.951 184.678 599.951 185.602Z" fill="#7F7F98"/>
        </g>
        <path d="M499.02 103.928L497.998 105.283L496.918 106.69L494.735 109.515C493.264 111.394 491.772 113.262 490.258 115.107C488.755 116.962 487.235 118.797 485.689 120.599C484.149 122.405 482.597 124.192 481.019 125.931C479.441 127.67 477.847 129.371 476.242 131.005C474.638 132.633 473.006 134.195 471.39 135.612C469.791 137.024 468.159 138.317 466.801 139.191C466.143 139.628 465.544 139.941 465.324 140.056C465.271 140.09 465.255 140.099 465.26 140.109C465.281 140.109 465.335 140.109 465.453 140.104L465.554 140.094C465.554 140.094 465.581 140.094 465.619 140.094L465.779 140.08C465.998 140.07 466.212 140.061 466.426 140.07C466.849 140.08 467.234 140.133 467.56 140.21C467.881 140.282 468.138 140.363 468.336 140.45C468.523 140.522 468.652 140.599 468.727 140.652C468.876 140.757 468.833 140.777 468.716 140.728C468.459 140.613 467.919 140.205 467.352 139.657C466.779 139.109 466.159 138.418 465.549 137.663C464.934 136.904 464.313 136.078 463.703 135.213C462.484 133.479 461.307 131.586 460.173 129.631C459.049 127.67 457.947 125.648 456.894 123.587C454.786 119.46 452.801 115.199 450.913 110.88C449.961 108.722 449.035 106.546 448.137 104.365L446.81 101.084L446.157 99.4454L445.532 97.8456L445.467 97.687C444.103 94.2039 439.856 92.3735 435.977 93.5986C432.431 94.718 430.419 98.0089 431.147 101.228L431.564 103.073L431.987 104.869C432.276 106.066 432.581 107.252 432.886 108.444C433.501 110.822 434.148 113.19 434.827 115.559C436.213 120.291 437.732 125.014 439.513 129.746C440.401 132.11 441.348 134.483 442.407 136.856C443.467 139.234 444.617 141.622 445.959 144.048C446.633 145.264 447.361 146.489 448.185 147.728C449.009 148.973 449.913 150.231 451.009 151.533C452.111 152.835 453.374 154.185 455.166 155.583C456.075 156.28 457.118 156.996 458.434 157.668C459.092 158.005 459.825 158.331 460.628 158.62C461.446 158.913 462.334 159.167 463.308 159.359C464.286 159.547 465.335 159.662 466.416 159.677C466.961 159.677 467.507 159.667 468.052 159.619L468.464 159.58L468.775 159.547C468.973 159.523 469.176 159.499 469.363 159.47C470.133 159.355 470.823 159.211 471.487 159.047C472.129 158.884 472.744 158.706 473.306 158.524C475.558 157.774 477.286 156.929 478.858 156.083C480.42 155.233 481.795 154.368 483.095 153.493C484.39 152.619 485.599 151.74 486.759 150.851C489.07 149.069 491.189 147.267 493.227 145.441C495.265 143.621 497.207 141.776 499.09 139.907C502.861 136.184 506.402 132.383 509.831 128.526C511.532 126.59 513.212 124.644 514.86 122.674C515.684 121.689 516.507 120.704 517.32 119.705L518.535 118.196L519.776 116.621C523.783 111.538 522.44 104.499 516.78 100.906C511.12 97.3075 503.284 98.5133 499.282 103.596C499.245 103.644 499.207 103.688 499.175 103.736L499.031 103.923L499.02 103.928Z" fill="#7880CA"/>
        <path d="M426.049 92.239C426.049 92.239 427.676 102.227 433.046 104.447C437.567 106.315 446.062 100.161 446.062 100.161C449.469 97.0528 450.127 95.1215 451.336 91.3598C452.545 87.598 446.249 83.2309 446.249 83.2309C446.249 83.2309 441.953 68.0879 439.38 66.8099C436.807 65.532 439.038 80.113 439.038 80.113C439.038 80.113 438.155 79.1906 436.465 79.4548C434.159 79.8199 428.639 82.4142 426.199 84.6914C424.017 86.7333 426.049 92.2342 426.049 92.2342V92.239Z" fill="#7880CA"/>
        <path d="M552.841 178.845C552.841 178.845 577.09 188.42 581.664 217.226C586.237 246.038 596.754 256.809 589.623 270.299C582.493 283.79 532.823 268.051 491.317 268.589C449.811 269.122 459.039 240.859 466.871 229.319C474.708 217.779 482.924 184.37 495.677 183.443C508.43 182.511 552.836 178.845 552.836 178.845H552.841Z" fill="#EFBF56"/>
        <path d="M512.893 233.518C513.925 233.753 514.968 233.974 516.011 234.191C529.363 236.929 543.379 238.039 553.184 235.935C558.026 234.897 561.123 229.574 563.091 223.631C563.632 222.007 564.343 220.369 564.466 218.697C565.664 202.18 561.134 195.17 561.134 195.17L488.933 187.935C488.933 187.935 486.531 191.903 483.867 197.078C481.936 200.825 479.871 205.202 478.475 209.16C478.475 209.16 478.475 209.17 478.469 209.17C477.635 211.538 477.041 213.758 476.864 215.598C476.292 221.483 493.458 229.132 512.887 233.518H512.893Z" fill="#7880CA"/>
        <path d="M516.106 240.171C517.55 262.083 525.066 301.824 529.945 320.662C530.068 321.128 530.186 321.579 530.303 322.021C530.512 322.795 530.71 323.52 530.902 324.202C535.15 339.196 557.141 390.213 568.798 416.877C568.963 417.256 569.129 417.636 569.29 417.996C569.926 419.452 570.846 422.099 571.413 423.382C573.756 423.074 576.233 422.714 578.576 422.411C584.648 421.643 590.195 421.018 596.299 420.475C596.117 419.433 595.924 416.478 595.721 415.296C595.657 414.921 595.587 414.537 595.518 414.143C593.287 401.378 589.858 381.83 586.697 364.328C581.449 335.281 573.596 319.581 573.596 319.581C573.596 319.581 569.755 313.513 567.84 296.309C566.257 282.054 561.736 236.587 560.624 221.348C560.394 218.273 560.26 216.471 560.26 216.471C560.26 216.471 523.547 213.891 516.946 225.311C516.438 226.2 516.101 227.175 515.988 228.237C515.694 230.889 515.764 235.035 516.101 240.166L516.106 240.171Z" fill="#7880CA"/>
        <path d="M555.932 246.998C556.258 246.998 556.552 246.797 556.627 246.499C556.718 246.153 556.477 245.807 556.092 245.73C556.028 245.716 551.963 244.832 547.806 241.766C542.237 237.654 539.151 231.774 538.643 224.289C538.616 223.933 538.279 223.664 537.883 223.688C537.487 223.712 537.188 224.015 537.214 224.37C537.888 234.185 542.879 239.811 546.956 242.799C551.374 246.042 555.595 246.945 555.771 246.984C555.825 246.994 555.878 247.003 555.932 247.003V246.998Z" fill="#2B2B39"/>
        <path d="M465.889 426.297C465.921 426.705 465.948 427.109 465.98 427.488C466.301 431.788 466.494 434.272 466.494 434.272L468.43 434.085L487.709 432.201L490.192 431.961C490.192 431.961 490.315 429.684 490.555 425.831C490.577 425.446 490.604 425.043 490.63 424.625C491.518 410.817 493.765 380.392 497.467 358.552C502.394 329.462 497.734 312.685 497.734 312.685C497.734 312.685 497.183 304.513 503.116 288.14C504.576 284.105 506.304 277.211 508.069 269.115C508.631 266.545 509.193 263.85 509.76 261.092C511.579 252.166 513.371 242.519 514.901 233.958C515.131 232.67 515.355 231.412 515.575 230.177C515.655 229.711 515.74 229.245 515.815 228.788C517.869 217.056 519.266 208.413 519.266 208.413C519.266 208.413 515.371 206.814 509.984 205.199C504.41 203.527 497.237 201.841 491.144 201.904C485.447 201.961 480.691 203.547 479.081 208.106C478.391 210.061 477.669 212.425 476.925 215.115C475.887 218.868 474.812 223.249 473.726 228.029C472.405 233.847 471.073 240.251 469.784 246.814C468.741 252.142 467.724 257.58 466.761 262.899C463.498 280.996 460.93 297.706 460.246 304.067C460.08 305.565 459.978 307.506 459.914 309.817C459.903 310.288 459.893 310.769 459.887 311.268C459.449 337.312 464.172 403.38 465.884 426.297H465.889Z" fill="#7880CA"/>
        <path d="M459.891 311.269C463.834 312.638 468.231 312.816 472.355 311.701C473.275 311.452 472.879 310.154 471.954 310.404C467.926 311.495 463.689 311.259 459.918 309.823C459.907 310.294 459.896 310.774 459.891 311.274V311.269Z" fill="#2B2B39"/>
        <path d="M555.485 220.516C555.886 220.483 556.244 220.742 556.282 221.102C556.357 221.77 563.664 288.098 566.756 314.041C567.312 315.54 576.593 340.565 579.311 353.979C581.75 366.023 589.389 399.014 593.011 414.575C592.545 414.71 592.075 414.82 591.604 414.931C587.988 399.399 580.322 366.292 577.877 354.214C575.106 340.546 565.445 314.646 565.349 314.387C565.333 314.339 565.322 314.296 565.317 314.248C562.23 288.348 554.912 221.895 554.837 221.222C554.795 220.862 555.089 220.54 555.49 220.507L555.485 220.516Z" fill="#7880CA"/>
        <path d="M515.875 230.238C516.137 230.238 516.394 230.108 516.522 229.887C516.709 229.565 516.57 229.171 516.212 229.003C516.1 228.95 508.37 225.189 506.824 217.002C506.754 216.647 506.38 216.402 505.979 216.464C505.583 216.526 505.315 216.863 505.379 217.223C507.054 226.087 515.185 230.007 515.533 230.171C515.64 230.223 515.757 230.247 515.87 230.247L515.875 230.238Z" fill="#7880CA"/>
        <path d="M486.004 425.814C486.357 425.785 486.646 425.53 486.673 425.204C486.721 424.526 491.514 357.223 493.124 341.874C494.676 327.091 492.306 305.846 492.087 303.905C497.575 288.786 512.709 228.642 512.858 228.036C512.949 227.681 512.698 227.33 512.307 227.253C511.911 227.172 511.521 227.397 511.435 227.748C511.28 228.358 496.077 288.796 490.648 303.632C490.616 303.718 490.605 303.814 490.616 303.905C490.642 304.131 493.274 326.461 491.669 341.749C490.054 357.117 485.261 424.44 485.213 425.117C485.186 425.477 485.491 425.79 485.897 425.814C485.935 425.814 485.972 425.814 486.004 425.814Z" fill="#2B2B39"/>
        <path d="M488.905 192.095C495.148 193.599 502.278 194.78 510.409 195.607C510.918 195.66 511.431 195.712 511.95 195.761C525.639 197.058 542.11 197.36 561.919 196.476C561.78 192.032 561.924 187.488 562.208 183.183C562.229 182.861 562.25 182.544 562.272 182.227C563.106 170.591 564.931 161.002 564.984 160.709C565.091 160.07 565.214 159.397 565.358 158.7C565.417 158.402 565.482 158.1 565.546 157.792C565.979 155.799 566.541 153.593 567.209 151.249C567.562 149.995 567.953 148.698 568.37 147.377C568.782 146.075 569.221 144.739 569.691 143.384C569.75 143.216 569.809 143.048 569.868 142.88C569.97 142.592 570.071 142.299 570.173 142.006C570.467 141.179 570.767 140.348 571.077 139.512C571.382 138.676 571.703 137.84 572.029 137.004C572.216 136.509 572.414 136.019 572.607 135.525C572.644 135.443 572.682 135.352 572.714 135.265C572.864 134.886 573.013 134.511 573.169 134.136C573.174 134.122 573.179 134.107 573.185 134.093C573.522 133.271 573.864 132.455 574.212 131.647C574.34 131.345 574.469 131.042 574.602 130.744C575.314 129.092 576.057 127.468 576.822 125.868C582.423 114.155 583.322 100.953 569.863 96.9222C568.884 96.6243 567.915 96.3457 566.979 96.0814C565.246 95.5866 563.588 95.1446 562.069 94.7459C561.683 94.645 561.314 94.5489 560.951 94.4576C558.185 93.7514 555.965 93.2421 554.67 92.9491C554.323 92.8722 554.039 92.8097 553.836 92.7617C553.75 92.7425 553.681 92.7281 553.622 92.7136C553.494 92.6848 553.429 92.6704 553.429 92.6704L525.168 94.7747L522.478 94.9765C521.975 95.0293 521.483 95.0773 521.001 95.1302C520.654 95.1638 520.311 95.2071 519.974 95.2455C517.139 95.5722 514.726 95.9277 512.662 96.3361C510.335 96.7973 508.457 97.3161 506.922 97.9263C506.109 98.2482 505.392 98.5989 504.76 98.9784C504.482 99.1466 504.22 99.3195 503.969 99.4973C501.214 101.481 500.304 104.22 499.475 108.179C499.406 108.5 499.336 108.832 499.272 109.173C499.021 110.437 498.764 111.82 498.448 113.334C498.416 113.478 498.389 113.622 498.357 113.766C498.347 113.814 498.336 113.862 498.325 113.91C498.24 114.318 498.143 114.727 498.047 115.13C497.977 115.423 497.908 115.717 497.833 116.005C497.651 116.716 497.453 117.417 497.245 118.123C496.833 119.531 496.378 120.915 495.897 122.279C495.848 122.423 495.795 122.567 495.747 122.712C495.693 122.86 495.645 123 495.592 123.144C494.629 125.82 493.602 128.381 492.665 130.792C492.558 131.061 492.457 131.326 492.355 131.59C492.35 131.604 492.344 131.619 492.339 131.633C491.852 132.901 491.398 134.126 491.002 135.289C490.98 135.361 490.954 135.433 490.927 135.505C490.852 135.722 490.788 135.933 490.718 136.144C490.338 137.326 490.028 138.446 489.814 139.498C489.525 140.92 489.408 142.222 489.536 143.37C489.584 143.797 489.664 144.206 489.787 144.595C490.082 145.541 490.472 146.469 490.922 147.362C490.943 147.406 490.97 147.454 490.991 147.497C491.178 147.857 491.376 148.213 491.58 148.563C492.131 149.51 492.746 150.408 493.356 151.235C494.923 153.339 496.528 154.972 497.352 155.765C497.715 156.116 497.929 156.303 497.929 156.303C497.929 156.327 497.929 156.356 497.924 156.385C497.903 156.596 497.87 156.812 497.838 157.043C497.715 157.927 497.544 158.974 497.33 160.161C497.309 160.267 497.175 160.987 496.929 162.203C496.87 162.486 496.806 162.794 496.736 163.135C496.469 164.432 496.105 166.104 495.65 168.069C495.576 168.391 495.495 168.722 495.415 169.063C494.003 175.097 491.82 183.514 488.889 192.085L488.905 192.095Z" fill="white"/>
        <path d="M493.1 178.308C493.1 178.308 484.557 184.169 488.906 193.509C488.906 193.509 535.258 207.734 562.401 198.111C562.401 198.111 565.081 189.795 561.925 182.992C561.925 182.992 519.772 190.717 493.105 178.303L493.1 178.308Z" fill="#EFBF56"/>
        <path d="M512.591 192.924C512.591 192.924 492.542 198.703 482.036 208.312C482.036 208.312 486.058 221.504 496.837 223.618C496.837 223.618 512.147 199.856 517.288 198.295L512.591 192.919V192.924Z" fill="#EFBF56"/>
        <path d="M532.301 193.657C532.301 193.657 549.585 204.457 556.502 216.411C556.502 216.411 548.355 227.965 537.356 227.153C537.356 227.153 530.472 200.403 526.059 197.559L532.301 193.657Z" fill="#EFBF56"/>
        <path d="M510.415 192.068C510.212 189.906 510.458 187.72 511.233 185.664C512.116 183.324 513.78 180.816 516.866 180.648C522.745 180.326 523.414 184.429 523.414 184.429C523.414 184.429 525.848 180.081 532.107 182.459C538.366 184.837 535.916 200.98 529.812 202.863C523.703 204.746 521.36 200.264 521.36 200.264C521.36 200.264 519.375 203.617 514.24 201.301C511.731 200.172 510.709 195.19 510.415 192.068Z" fill="#EFBF56"/>
        <path d="M506.917 97.9331C506.227 103.535 502.675 112.336 497.251 118.135C497.663 116.747 498.021 115.339 498.326 113.922C498.337 113.874 498.347 113.826 498.358 113.778C498.39 113.633 498.417 113.489 498.444 113.345C500.177 104.986 500.22 100.599 506.917 97.9331Z" fill="#7880CA"/>
        <path d="M552.578 114.697C553.247 125.866 563.774 138.266 572.034 137.003C572.258 136.421 572.488 135.845 572.719 135.268C572.868 134.889 573.023 134.514 573.179 134.139C574.318 131.343 575.543 128.562 576.827 125.876C582.422 114.163 583.326 100.961 569.862 96.9303C568.883 96.6373 567.92 96.3586 566.979 96.0896C559.468 97.478 551.802 101.84 552.573 114.701L552.578 114.697Z" fill="#7880CA"/>
        <path d="M518.154 126.455C509.889 126.455 508.076 118.452 508.06 118.37C507.99 118.053 508.226 117.745 508.579 117.683C508.932 117.62 509.274 117.832 509.344 118.149C509.408 118.452 510.981 125.288 518.16 125.288C525.692 125.288 542.066 114.959 542.232 114.858C542.526 114.671 542.933 114.733 543.141 114.997C543.35 115.262 543.28 115.627 542.986 115.814C542.302 116.246 526.098 126.46 518.16 126.46L518.154 126.455Z" fill="#CA9441"/>
        <path d="M538.077 31.2767C539.596 32.8141 543.635 36.1338 543.635 36.1338L549.434 39.7034L554.366 43.3546C554.366 43.3546 569.291 50.3785 572.34 48.1973C574.217 46.8521 573.945 44.5557 573.458 42.9943C573.153 42.0286 572.773 41.3464 572.773 41.3464C572.773 41.3464 573.158 41.4954 573.752 41.6107C575.223 41.9037 577.962 41.9998 579.24 39.1269C581.027 35.0961 575.191 30.6713 575.191 30.6713C575.191 30.6713 579.684 30.5512 581.616 27.1114C583.541 23.6667 575.549 17.6806 575.549 17.6806C575.549 17.6806 578.171 17.1809 576.78 13.0156C575.384 8.85034 570.323 10.061 570.323 10.061C570.323 10.061 570.858 2.45104 564.722 2.01866C558.592 1.58627 554.269 8.8119 554.269 8.8119C554.269 8.8119 549.642 6.61635 544.812 9.38361C539.981 12.1509 543.153 20.443 543.153 20.443C543.153 20.443 538.045 18.3868 534.568 22.2447C532.38 24.6804 535.482 28.668 538.082 31.2815L538.077 31.2767Z" fill="#EFBF56"/>
        <path d="M543.636 36.1279C543.636 36.1279 551.479 37.5116 554.367 43.3488C554.367 43.3488 553.361 44.6699 550.772 45.1552C550.772 45.1552 549.371 41.2205 543.246 39.0922C543.246 39.0922 542.278 37.2281 543.631 36.1279H543.636Z" fill="#EFBF56"/>
        <path d="M512.752 68.0446C512.752 68.0446 507.429 66.9828 505.979 60.2136C503.615 49.183 511.778 38.9835 527.04 37.1339C547.031 34.7077 549.871 40.2663 553.798 47.2277C557.724 54.1891 556.729 64.5951 552.76 70.2978C548.919 75.8179 541.039 78.1864 541.039 78.1864L512.757 68.0446H512.752Z" fill="#EFBF56"/>
        <path d="M516.094 76.139C516.351 77.5611 515.275 78.9015 513.692 79.1321C512.109 79.3627 510.616 78.397 510.359 76.975C510.103 75.5529 511.178 74.2125 512.761 73.9819C514.345 73.7513 515.837 74.717 516.094 76.139Z" fill="white"/>
        <path d="M549.535 93.8303C549.535 93.8303 545.657 101.46 536.381 103.175C524.596 105.356 522.933 100.825 522.933 100.825C523.339 99.3505 523.542 97.8996 523.585 96.3526C523.601 95.7665 523.591 95.1659 523.559 94.5462C523.473 92.8551 523.222 91.0102 522.836 88.8916C522.745 88.3967 522.649 87.8778 522.542 87.3494L522.531 87.2869C530.646 85.0914 537.162 81.4497 541.409 75.7471L542.602 75.0168L543.405 74.522L543.587 74.9448L543.522 76.3284C543.191 82.8286 545.175 88.094 549.546 93.8351L549.535 93.8303Z" fill="#7880CA"/>
        <path d="M536.074 81.7367C534.571 85.3591 530.954 91.8161 523.551 94.5497C523.465 92.8586 523.214 91.0138 522.829 88.8951C522.738 88.4002 522.641 87.8814 522.534 87.3529C522.7 87.3625 522.866 87.3625 523.032 87.3673C527.536 87.3913 532.27 85.0516 536.079 81.7415L536.074 81.7367Z" fill="#2B2B39"/>
        <path d="M552.69 63.3279C553.241 67.3203 550.149 72.6242 544.356 73.4169H544.324L544.201 73.4409C544.136 73.6811 544.061 73.9165 543.981 74.1616C543.944 74.2672 543.912 74.3729 543.874 74.4786C543.874 74.4882 543.869 74.4979 543.864 74.5075C541.178 81.6898 530.966 86.8737 525.167 87.6616C523.097 87.9402 521.642 87.676 521.182 87.6423C514.848 87.1235 512.666 79.7681 512.842 73.9406C512.869 73.095 512.949 72.2831 513.067 71.5288C513.078 71.476 513.083 71.4231 513.094 71.3751C513.094 71.3751 509.927 63.6018 508.959 60.1667C507.092 53.5032 510.467 46.1478 526.804 42.9626C543.141 39.7726 548.368 48.5452 550.203 53.3014C550.513 54.0941 550.994 58.9656 550.203 59.8448C551.866 60.3877 552.513 61.9971 552.695 63.3375L552.69 63.3279Z" fill="#7880CA"/>
        <path d="M529.098 52.3807C529.098 52.3807 529.082 56.6181 533.383 58.6023C533.42 58.6167 533.345 58.5879 533.383 58.6023C535.859 59.7457 537.823 60.8555 537.095 63.2672C536.137 66.4428 537.223 68.4414 539.262 68.4078C542.899 68.3453 542.739 60.99 550.196 59.8322C550.196 59.8322 552.833 59.0298 551.982 54.8117C551.132 50.5983 541.439 39.3996 529.199 41.4222C516.955 43.4448 506.743 50.0891 507.363 57.9201C507.984 65.751 509.642 64.0215 509.642 64.0215C509.642 64.0215 509.449 63.5699 509.808 57.1946C510.129 51.4727 529.889 48.619 529.103 52.3711L529.098 52.3807Z" fill="#EFBF56"/>
        <path d="M550.155 72.9271C550.412 74.3492 549.337 75.6896 547.754 75.9202C546.17 76.1508 544.678 75.1851 544.421 73.7631C544.164 72.341 545.239 71.0006 546.823 70.77C548.406 70.5394 549.899 71.505 550.155 72.9271Z" fill="white"/>
        <path d="M555.312 134.019C555.505 134.086 555.767 134.202 556.002 134.293L556.724 134.596L558.19 135.206L561.127 136.436C563.085 137.257 565.043 138.064 566.984 138.852C570.873 140.428 574.752 141.922 578.518 143.181C579.459 143.493 580.39 143.801 581.31 144.074C582.23 144.348 583.134 144.598 584.012 144.829C584.889 145.054 585.745 145.251 586.547 145.4C587.35 145.559 588.104 145.674 588.751 145.737C589.398 145.799 589.939 145.794 590.233 145.77C590.361 145.751 590.463 145.737 590.42 145.717C590.42 145.717 590.367 145.708 590.313 145.717C590.297 145.722 590.228 145.717 590.19 145.732C590.169 145.732 590.142 145.742 590.121 145.746L589.917 145.794C589.596 145.886 589.152 146.025 588.708 146.246C588.248 146.462 587.74 146.77 587.269 147.14C586.793 147.514 586.36 147.947 586.012 148.393C585.664 148.84 585.408 149.258 585.231 149.647C585.049 150.022 584.942 150.339 584.873 150.599C584.803 150.844 584.771 151.05 584.744 151.18C584.707 151.459 584.712 151.54 584.691 151.507C584.659 151.439 584.563 150.997 584.375 150.464C584.188 149.921 583.931 149.273 583.61 148.581C582.979 147.192 582.182 145.65 581.278 144.094C580.379 142.527 579.406 140.928 578.373 139.323C577.357 137.709 576.266 136.099 575.174 134.471C572.96 131.228 570.659 127.961 568.311 124.699L564.775 119.798L561.293 114.951L561.191 114.807C557.997 110.363 559.42 104.439 564.363 101.571C568.83 98.9815 574.645 99.7742 578.079 103.224L578.7 103.843L579.283 104.439L580.427 105.631C581.182 106.423 581.925 107.226 582.658 108.033C584.124 109.647 585.558 111.28 586.954 112.938C589.751 116.262 592.453 119.669 595.021 123.233C596.315 125.011 597.551 126.837 598.781 128.701C599.99 130.574 601.178 132.501 602.312 134.524C603.43 136.556 604.526 138.665 605.505 141.033C605.992 142.22 606.458 143.474 606.875 144.867C607.281 146.275 607.661 147.807 607.822 149.743C607.902 150.714 607.923 151.804 607.779 153.082C607.709 153.712 607.586 154.418 607.399 155.153C607.201 155.903 606.928 156.705 606.538 157.546C606.137 158.396 605.628 159.266 604.96 160.125C604.291 160.981 603.494 161.797 602.595 162.508C601.707 163.21 600.739 163.815 599.787 164.272C598.845 164.728 597.893 165.079 597.032 165.314L596.706 165.405L596.551 165.449L596.433 165.477L595.957 165.583C595.646 165.65 595.309 165.727 595.015 165.771L594.111 165.91C593.806 165.958 593.539 165.977 593.25 166.011C592.1 166.131 591.078 166.145 590.088 166.131C588.147 166.088 586.451 165.857 584.894 165.578C581.786 165.007 579.165 164.185 576.694 163.292C574.227 162.398 571.949 161.394 569.755 160.356C565.374 158.261 561.357 155.936 557.5 153.467C555.574 152.232 553.702 150.949 551.867 149.623C550.952 148.96 550.048 148.283 549.149 147.591C548.7 147.245 548.261 146.89 547.817 146.534L547.149 145.996L546.448 145.42C543.281 142.801 543.078 138.377 545.988 135.532C548.245 133.327 551.717 132.722 554.638 133.779L555.296 134.019H555.312Z" fill="#7880CA"/>
        <path d="M509.545 99.7716L551.637 105.293L543.647 154.419L501.555 148.898L509.545 99.7716Z" fill="#2B2B39"/>
        <path d="M541.005 103.924C541.005 103.924 540.374 100.835 537.287 100.518C537.287 100.518 537.148 97.6448 534.388 96.7896C531.627 95.9344 528.739 95.7279 526.743 95.9633C524.753 96.1987 523.855 98.6008 523.855 98.6008C523.855 98.6008 521.795 98.4807 520.683 99.2013C519.575 99.922 519.34 101.085 519.34 101.085L541.005 103.929V103.924Z" fill="#2B2B39"/>
        <path d="M555.704 145.125C552.484 147.398 547.819 146.706 545.182 143.891C543.791 142.406 542.112 140.888 540.443 140.057C536.441 138.063 531.092 136.703 529.391 135.185C526.876 132.942 530.696 132.802 531.172 132.846C534.221 133.11 538.362 134.133 538.362 134.133C538.362 134.133 531.589 130.698 528.54 130.395C525.496 130.098 524.004 128.012 527.021 126.831C530.043 125.654 538.383 128.041 540.491 129.266C540.491 129.266 536.923 126.177 532.814 125.649C528.706 125.12 527.31 124.433 525.988 123.506C524.662 122.574 526.999 120.383 532.718 121.258C538.437 122.127 540.384 123.751 542.625 125.293C542.625 125.293 541.454 123.52 538.881 121.056C536.307 118.586 531.498 118.317 530.835 116.381C530.156 114.402 535.676 114.935 538.57 116.453C541.47 117.972 543.716 118.851 546.327 121.906C548.932 124.962 551.307 127.964 552.377 130.131C553.447 132.298 558.384 139.552 557.534 142.882C557.315 143.732 556.619 144.482 555.71 145.125H555.704Z" fill="#7880CA"/>
        <path d="M555.491 136.067C555.491 136.067 554.902 128.846 553.372 126.828C551.842 124.806 550.73 121.025 549.136 121.836C547.542 122.644 549.05 127.261 549.05 127.261L555.496 136.072L555.491 136.067Z" fill="#7880CA"/>
    </g>
    <defs>
        <clipPath id="clip0_4091_13487">
            <rect width="656.06" height="429.175" fill="white" transform="matrix(-1 0 0 1 720.709 -36)"/>
        </clipPath>
    </defs>
</svg>