<svg width="496" height="215" viewBox="0 0 496 215" fill="none" xmlns="http://www.w3.org/2000/svg">
<mask id="mask0_1137_16689" style="mask-type:alpha" maskUnits="userSpaceOnUse" x="0" y="0" width="496" height="215">
<rect y="0.985352" width="496" height="214.015" fill="#D9D9D9"/>
</mask>
<g mask="url(#mask0_1137_16689)">
<ellipse cx="182.285" cy="179.48" rx="171.485" ry="171.302" fill="white"/>
<g clip-path="url(#clip0_1137_16689)">
<path d="M123.37 194.773C126.071 190.216 123.908 184.184 120.35 180.264C116.784 176.343 112.019 173.701 108.233 169.985C101.465 163.347 98.2934 153.258 100.061 143.956C101.822 134.654 108.468 126.412 117.194 122.696C129.265 117.557 145.388 120.085 153.598 109.874C159.106 103.032 158.423 93.1323 156.117 84.6629C153.81 76.1935 150.123 67.8452 150.51 59.0731C151.367 39.7728 172.718 26.3837 192.043 27.6553C211.368 28.9268 228.288 40.7794 242.833 53.5403C247.036 57.2339 251.316 61.1393 256.65 62.865C261.984 64.5907 268.714 63.4326 271.657 58.6719C273.19 56.1894 273.494 53.1165 274.935 50.5809C279.495 42.5657 291.878 44.4049 299.496 49.6197C307.113 54.8346 313.821 62.5395 323.001 63.584C334.519 64.8934 344.314 54.933 349.451 44.5638C354.588 34.1947 357.289 22.395 364.777 13.5623C376.606 -0.386868 399.877 -2.65749 414.194 8.74102C424.756 17.1499 429.574 30.5844 435.757 42.5732C441.934 54.5621 451.645 66.7099 465.113 67.8679C481.714 69.2984 495.258 53.51 511.844 51.8676C526.062 50.4599 539.864 60.5338 545.312 73.711C550.759 86.8881 548.84 102.253 542.853 115.188C536.943 127.948 526.988 140.497 529.477 154.333C531.973 168.222 546.245 177.274 550.342 190.784C553.718 201.91 549.386 214.224 542.011 223.239C534.644 232.246 524.583 238.588 514.712 244.772L134.523 258.335C122.664 248.465 114.606 234.91 106.776 221.627C104.356 217.517 101.859 212.612 103.696 208.215C106.837 200.699 119.219 201.774 123.377 194.773H123.37Z" fill="#F4F6F8"/>
<mask id="mask1_1137_16689" style="mask-type:luminance" maskUnits="userSpaceOnUse" x="99" y="-1" width="453" height="258">
<path d="M123.37 192.922C126.071 188.366 123.908 182.334 120.35 178.413C116.784 174.492 112.019 171.851 108.233 168.135C101.465 161.497 98.2933 151.408 100.061 142.106C101.829 132.804 108.468 124.561 117.193 120.845C129.265 115.706 145.388 118.234 153.598 108.024C159.106 101.182 158.423 91.2818 156.117 82.8123C153.81 74.3429 150.123 65.9946 150.51 57.2225C151.367 37.9222 172.718 24.5331 192.043 25.8047C211.368 27.0762 228.288 38.9289 242.833 51.6897C247.036 55.3833 251.316 59.2887 256.65 61.0144C261.976 62.7401 268.714 61.5821 271.657 56.8213C273.19 54.3388 273.494 51.2659 274.935 48.7304C279.495 40.7151 291.878 42.5543 299.496 47.7691C307.113 52.984 313.821 60.689 323.001 61.7334C334.519 63.0428 344.314 53.0824 349.451 42.7132C354.595 32.3441 357.289 20.5444 364.777 11.7117C376.606 -2.23745 399.877 -4.50807 414.194 6.89043C424.756 15.2993 429.574 28.7338 435.757 40.7226C441.934 52.7115 451.645 64.8593 465.113 66.0173C481.714 67.4478 495.258 51.6595 511.844 50.017C526.062 48.6093 539.864 58.6832 545.312 71.8604C550.759 85.0376 548.84 100.402 542.853 113.337C536.943 126.098 526.988 138.647 529.477 152.483C531.973 166.371 546.245 175.423 550.342 188.934C553.718 200.06 549.386 212.374 542.011 221.388C534.644 230.395 524.583 236.738 514.712 242.921L134.523 256.484C122.664 246.615 114.606 233.059 106.776 219.776C104.356 215.666 101.859 210.762 103.696 206.364C106.837 198.849 119.219 199.923 123.377 192.922H123.37Z" fill="white"/>
</mask>
<g mask="url(#mask1_1137_16689)">
<path d="M428.364 100.411H499.275V199.736H428.364V100.411Z" fill="#F0F1F6"/>
<path d="M428.364 -3.93945H499.275V95.385H428.364V-3.93945Z" fill="#F0F1F6"/>
<path d="M351.374 100.411H422.286V199.736H351.374V100.411Z" fill="#F0F1F6"/>
<path d="M351.374 -3.93945H422.286V95.385H351.374V-3.93945Z" fill="#F0F1F6"/>
<path d="M435.457 -24.2614C435.457 -24.2614 436.231 56.3228 487.863 107.707C487.863 107.707 470.397 221.934 468.067 245.957H523.956C523.956 245.957 515.413 139.866 512.309 109.183C512.309 109.183 518.91 6.41463 520.458 -25.374L435.449 -24.2614H435.457Z" fill="#F0F1F6"/>
<path d="M416.982 -24.2614C416.982 -24.2614 416.209 56.3228 364.576 107.707C364.576 107.707 382.043 221.934 384.372 245.957H328.476C328.476 245.957 337.019 139.866 340.122 109.183C340.122 109.183 333.521 6.41463 331.973 -25.374L416.982 -24.2614Z" fill="#F4F6F8"/>
</g>
<path d="M191.536 64.6865H200.846V103.983H191.536V64.6865Z" fill="white"/>
<path d="M182.486 69.8184H191.796V103.976H182.486V69.8184Z" fill="#E0E2EC"/>
<path d="M200.665 74.2607H206.985V103.976H200.665V74.2607Z" fill="#E0E2EC"/>
<path d="M177.844 73.9736H182.813V103.984H177.844V73.9736Z" fill="white"/>
<path d="M136.377 79.695C136.794 78.9987 137.682 78.7943 138.365 79.1046C138.736 79.2787 139.048 79.5739 139.29 79.9372C138.471 77.8861 138.129 75.5776 138.334 73.3297C138.387 72.7242 138.501 72.0884 138.888 71.6646C139.556 70.9228 140.747 71.2559 141.354 72.0581C141.574 72.3458 141.733 72.6712 141.855 73.0194C141.688 71.9446 141.612 70.8472 141.658 69.7573C141.688 69.0609 141.923 68.1754 142.538 68.1224C142.963 68.0846 143.304 68.4933 143.554 68.8793C144.495 70.3476 145.079 72.1111 145.224 73.9201C144.859 70.6277 144.495 67.2217 145.322 64.0429C145.482 63.4147 145.702 62.7865 146.104 62.3172C146.498 61.8479 147.113 61.5603 147.659 61.7571C148.372 62.0069 148.714 62.9076 148.919 63.725C149.503 66.0334 149.67 68.463 149.45 70.8471C149.556 70.6277 149.662 70.4082 149.791 70.1962C150.133 69.621 150.633 69.0609 151.248 69.0685C151.726 69.0685 152.159 69.4318 152.409 69.8859C152.667 70.34 152.773 70.885 152.841 71.4224C153.122 73.587 152.841 75.8349 152.06 77.8331C152.379 77.4092 152.834 77.1216 153.319 77.0762C154.124 77.0005 154.936 77.606 155.209 78.4689C155.436 79.1879 155.307 79.9826 155.102 80.7092C153.661 85.7803 148.79 89.1332 144.199 88.5201C142.166 88.2477 140.224 87.2183 138.691 85.6743C137.5 84.4709 135.186 81.6553 136.362 79.7026L136.377 79.695Z" fill="#ECECF3"/>
<path d="M139.298 103.241H152.591L155.656 87.665H136.233L139.298 103.241Z" fill="white"/>
<path d="M138.652 101.803H153.296V103.718H138.652V101.803Z" fill="#7880CA"/>
<path d="M135.747 85.0156H156.202V89.3147H135.747V85.0156Z" fill="white"/>
<path d="M120.199 103.636H227.971V106.277H120.199V103.636Z" fill="white"/>
<path d="M121.656 106.285H226.514V113.952H121.656V106.285Z" fill="white"/>
<path d="M174.162 44.4697H281.934V47.1112H174.162V44.4697Z" fill="#ECECF3"/>
<path d="M175.619 47.1113H280.477V54.7785H175.619V47.1113Z" fill="white"/>
<path d="M207.54 154.247H288.793C290.386 154.247 291.813 155.231 292.374 156.722L314.203 214.857H226.667L205.18 157.638C204.565 155.995 205.779 154.239 207.54 154.239V154.247Z" fill="#E0E2EC"/>
<path d="M223.701 214.865H352.99V220.913H223.701V214.865Z" fill="white"/>
<path d="M337.595 220.087C340.881 219.437 347.239 217.84 350.843 214.857H352.99V220.905H332.876C334.469 220.67 336.048 220.39 337.595 220.087Z" fill="#F4F4F4"/>
<path d="M223.708 214.865H311.244V220.913H223.708V214.865Z" fill="#E0E2EC"/>
<path d="M204.573 154.247H285.826C287.42 154.247 288.846 155.231 289.407 156.722L311.236 214.857H223.701L202.213 157.638C201.599 155.995 202.813 154.239 204.573 154.239V154.247Z" fill="white"/>
<g style="mix-blend-mode:overlay" opacity="0.22">
<path d="M204.574 154.247H273.027C239.741 155.087 221.949 156.094 215.105 157.1C208.261 158.107 203.656 159.613 204.847 164.654L202.214 157.645C201.6 156.003 202.814 154.247 204.574 154.247Z" fill="#57D9CD"/>
</g>
<path d="M268.429 182.486C270.243 188.836 276.222 193.74 281.776 193.445C287.33 193.15 290.365 187.761 288.544 181.418C286.73 175.068 280.751 170.164 275.197 170.459C269.643 170.754 266.608 176.143 268.429 182.486Z" fill="white"/>
<path d="M270.266 182.387C271.753 187.579 276.639 191.583 281.176 191.341C285.721 191.099 288.195 186.694 286.707 181.509C285.22 176.317 280.334 172.313 275.797 172.555C271.252 172.798 268.778 177.203 270.266 182.387Z" fill="#7880CA"/>
<path d="M256.1 187.314L274.902 196.813C275.737 197.237 276.556 196.806 276.746 195.852L277.952 189.653C278.134 188.699 277.611 187.587 276.776 187.171L257.975 177.672C257.14 177.248 256.32 177.679 256.131 178.633L254.924 184.832C254.742 185.785 255.266 186.898 256.1 187.314Z" fill="#E0E2EC"/>
<g style="mix-blend-mode:screen">
<path d="M256.707 186.754L274.371 195.685C275.069 196.041 275.759 195.677 275.911 194.883L276.92 189.698C277.072 188.903 276.639 187.972 275.941 187.617L258.278 178.686C257.58 178.33 256.889 178.693 256.737 179.488L255.728 184.672C255.577 185.467 256.009 186.398 256.707 186.754Z" fill="#393B6B"/>
</g>
<g style="mix-blend-mode:multiply" opacity="0.33">
<path d="M257.573 182.062C257.778 181.683 258.4 181.767 258.499 182.183C258.666 182.849 258.552 183.538 258.696 184.211C258.749 184.446 258.81 184.998 258.992 185.15C259.28 185.369 259.766 185.119 260.077 185.051C261.329 184.764 262.125 185.188 262.96 186.103C263.286 186.459 263.476 186.573 263.946 186.383C264.197 186.285 264.409 186.156 264.675 186.088C265.267 185.929 265.912 185.944 266.503 186.111C267.475 186.383 268.339 187.072 268.893 187.927C269.053 187.814 269.204 187.7 269.356 187.602C270.373 186.928 271.686 186.467 272.846 187.087C274.986 188.238 275.593 192.151 273.393 193.528C272.839 193.876 272.346 193.021 272.884 192.658C273.985 191.909 273.757 190.047 273.157 189.063C272.33 187.723 271.041 188.026 269.925 188.828C269.743 188.957 269.584 189.108 269.432 189.26C269.569 189.979 269.485 190.751 268.939 191.25C268.135 191.984 267.019 191.197 267.163 190.198C267.239 189.661 267.558 189.176 267.953 188.745C267.922 188.692 267.907 188.646 267.869 188.594C267.217 187.579 265.912 186.853 264.735 187.375C263.84 187.769 263.226 188.079 262.406 187.307C262.012 186.936 261.723 186.383 261.185 186.217C260.638 186.05 260.046 186.368 259.493 186.444C258.514 186.58 257.998 186.096 257.672 185.21C257.33 184.264 257.08 182.993 257.573 182.069V182.062Z" fill="#393B6B"/>
</g>
<path d="M273.604 181.085C275.007 181.365 276.479 180.631 277.352 179.503C278.217 178.368 278.551 176.907 278.581 175.477C278.52 178.799 280.979 181.796 283.649 183.424C282.428 182.977 281.419 183.265 280.501 183.689C279.583 184.112 278.892 184.953 278.467 185.868C278.035 186.784 277.83 187.791 277.633 188.79C277.708 187.261 277.458 185.702 276.79 184.324C276.123 182.947 275.007 181.751 273.619 181.093L273.604 181.085Z" fill="white"/>
<path d="M168.418 153.234L165.698 155.947L155.569 145.843L158.289 143.129L168.418 153.234Z" fill="#393B6B"/>
<g style="mix-blend-mode:multiply" opacity="0.33">
<path d="M167.062 154.593L165.699 155.952L155.57 145.848L156.933 144.488L167.062 154.593Z" fill="#393B6B"/>
</g>
<path d="M165.307 141.924L168.027 144.638L129.436 183.134L126.716 180.421L165.307 141.924Z" fill="#393B6B"/>
<g style="mix-blend-mode:multiply" opacity="0.33">
<path d="M165.305 141.921L166.479 143.093L127.888 181.589L126.713 180.417L165.305 141.921Z" fill="#393B6B"/>
</g>
<path d="M126.195 184.249L128.915 181.535L167.506 220.031L164.786 222.745L126.195 184.249Z" fill="#393B6B"/>
<g style="mix-blend-mode:multiply" opacity="0.33">
<path d="M126.209 184.253L127.304 183.161L165.895 221.657L164.8 222.749L126.209 184.253Z" fill="#393B6B"/>
</g>
<path d="M124.281 181.895C124.281 184.014 126.003 185.732 128.128 185.732C130.252 185.732 131.975 184.014 131.975 181.895C131.975 179.776 130.252 178.058 128.128 178.058C126.003 178.058 124.281 179.776 124.281 181.895Z" fill="#393B6B"/>
<g style="mix-blend-mode:multiply" opacity="0.33">
<path d="M125.123 179.533C125.116 181.925 126.8 183.741 128.955 184.672C129.365 184.854 129.812 184.998 130.268 185.089C129.661 185.49 128.925 185.732 128.143 185.732C126.019 185.732 124.296 184.014 124.296 181.895C124.296 181.002 124.615 180.184 125.131 179.533H125.123Z" fill="#393B6B"/>
</g>
<path d="M125.958 181.895C125.958 183.098 126.93 184.067 128.136 184.067C129.342 184.067 130.313 183.091 130.313 181.895C130.313 180.699 129.342 179.723 128.136 179.723C126.93 179.723 125.958 180.691 125.958 181.895Z" fill="#7880CA"/>
<path d="M157.558 148.858C157.558 150.977 159.281 152.695 161.405 152.695C163.53 152.695 165.252 150.977 165.252 148.858C165.252 146.739 163.53 145.021 161.405 145.021C159.281 145.021 157.558 146.739 157.558 148.858Z" fill="#393B6B"/>
<g style="mix-blend-mode:multiply" opacity="0.33">
<path d="M158.393 146.497C158.385 148.889 160.07 150.705 162.225 151.636C162.634 151.818 163.082 151.962 163.537 152.053C162.93 152.454 162.194 152.696 161.413 152.696C159.288 152.696 157.566 150.978 157.566 148.859C157.566 147.965 157.884 147.148 158.4 146.497H158.393Z" fill="#393B6B"/>
</g>
<path d="M159.228 148.858C159.228 150.061 160.199 151.03 161.405 151.03C162.612 151.03 163.583 150.061 163.583 148.858C163.583 147.654 162.612 146.686 161.405 146.686C160.199 146.686 159.228 147.662 159.228 148.858Z" fill="#7880CA"/>
<g style="mix-blend-mode:overlay" opacity="0.5">
<path d="M169.82 230.509L166.846 179.17L192.476 161.005L283.16 229.388C283.904 229.948 283.874 231.175 283.016 231.553C264.662 239.614 182.324 239.879 169.82 230.509Z" fill="white"/>
</g>
<path d="M195.132 161.164L166.163 181.335C166.163 181.335 154.767 158.439 167.817 151.173C180.868 143.907 195.132 161.164 195.132 161.164Z" fill="#7880CA"/>
<path d="M167.819 151.173C168.403 150.847 168.995 150.583 169.587 150.355C166.689 155.918 167.933 163.873 169.868 169.361C170.664 171.608 171.878 174.046 173.441 176.271L166.165 181.334C166.165 181.334 154.769 158.439 167.819 151.173Z" fill="#626CBD"/>
<path d="M436.838 227.497H479.964L487.552 194.505H444.425L436.838 227.497Z" fill="#ECECF3"/>
<g style="mix-blend-mode:multiply" opacity="0.15">
<path d="M444.562 223.288C446.679 215.992 445.935 207.046 443.226 199.711L444.425 194.512H487.552L479.964 227.504H443.029C443.651 226.088 444.167 224.666 444.569 223.288H444.562Z" fill="#73A3EB"/>
</g>
<path d="M444.433 194.505H487.56L495.147 228.367H452.021L444.433 194.505Z" fill="white"/>
<path d="M451.361 218.808C458.197 220.905 465.549 221.987 472.378 219.224C478.463 216.765 483.213 211.345 485.299 205.177C486.255 202.346 487.059 198.055 486.414 194.505H487.56L495.147 228.367H452.021L449.767 218.309C450.306 218.483 450.837 218.649 451.361 218.808Z" fill="#ECECF3"/>
<path d="M481.838 194.504H482.908C482.953 194.398 482.976 194.285 483.014 194.164C483.052 194.035 483.105 193.937 483.204 193.785C483.348 193.558 483.568 193.362 483.833 193.225C484.076 193.104 484.38 193.051 484.691 193.082C484.949 193.097 485.26 193.203 485.503 193.369C485.776 193.566 485.981 193.861 486.125 194.164C486.178 194.277 486.216 194.391 486.239 194.504C486.277 194.671 486.284 194.83 486.254 194.989C486.201 195.284 486.072 195.541 485.882 195.784C485.799 195.897 485.685 195.98 485.586 196.079C485.48 196.185 485.321 196.298 485.298 196.45C485.283 196.533 485.298 196.646 485.366 196.707C485.7 196.972 486.178 196.677 486.459 196.45C486.762 196.2 486.975 195.867 487.119 195.504C487.248 195.178 487.286 194.837 487.248 194.504C487.134 193.346 486.148 192.257 485.002 192.037C484.205 191.886 483.409 192.075 482.771 192.582C482.498 192.801 482.255 193.082 482.088 193.392C481.899 193.725 481.724 194.134 481.838 194.504Z" fill="#7880CA"/>
<path d="M475.138 194.504H476.208C476.253 194.398 476.276 194.285 476.314 194.164C476.352 194.035 476.405 193.937 476.503 193.785C476.648 193.558 476.868 193.362 477.133 193.225C477.376 193.104 477.679 193.051 477.991 193.082C478.249 193.097 478.56 193.203 478.802 193.369C479.076 193.566 479.28 193.861 479.425 194.164C479.478 194.277 479.516 194.391 479.538 194.504C479.576 194.671 479.584 194.83 479.554 194.989C479.5 195.284 479.371 195.541 479.182 195.784C479.098 195.897 478.985 195.98 478.886 196.079C478.78 196.185 478.62 196.298 478.598 196.45C478.582 196.533 478.598 196.646 478.666 196.707C479 196.972 479.478 196.677 479.758 196.45C480.062 196.2 480.274 195.867 480.419 195.504C480.548 195.178 480.585 194.837 480.548 194.504C480.434 193.346 479.447 192.257 478.302 192.037C477.505 191.886 476.708 192.075 476.071 192.582C475.798 192.801 475.555 193.082 475.388 193.392C475.198 193.725 475.024 194.134 475.138 194.504Z" fill="#7880CA"/>
<path d="M468.438 194.504H469.508C469.554 194.398 469.577 194.285 469.615 194.164C469.652 194.035 469.706 193.937 469.804 193.785C469.948 193.558 470.168 193.362 470.434 193.225C470.677 193.104 470.98 193.051 471.291 193.082C471.549 193.097 471.86 193.203 472.103 193.369C472.376 193.566 472.581 193.861 472.725 194.164C472.778 194.277 472.816 194.391 472.839 194.504C472.877 194.671 472.885 194.83 472.854 194.989C472.801 195.284 472.672 195.541 472.483 195.784C472.399 195.897 472.285 195.98 472.187 196.079C472.08 196.185 471.921 196.298 471.898 196.45C471.883 196.533 471.898 196.646 471.967 196.707C472.3 196.972 472.778 196.677 473.059 196.45C473.363 196.2 473.575 195.867 473.719 195.504C473.848 195.178 473.886 194.837 473.848 194.504C473.734 193.346 472.748 192.257 471.602 192.037C470.806 191.886 470.009 192.075 469.372 192.582C469.099 192.801 468.856 193.082 468.689 193.392C468.499 193.725 468.325 194.134 468.438 194.504Z" fill="#7880CA"/>
<path d="M461.746 194.504H462.816C462.861 194.398 462.884 194.285 462.922 194.164C462.96 194.035 463.013 193.937 463.112 193.785C463.256 193.558 463.476 193.362 463.742 193.225C463.984 193.104 464.288 193.051 464.599 193.082C464.857 193.097 465.168 193.203 465.411 193.369C465.684 193.566 465.889 193.861 466.033 194.164C466.086 194.277 466.124 194.391 466.147 194.504C466.185 194.671 466.192 194.83 466.162 194.989C466.109 195.284 465.98 195.541 465.79 195.784C465.707 195.897 465.593 195.98 465.494 196.079C465.388 196.185 465.229 196.298 465.206 196.45C465.191 196.533 465.206 196.646 465.274 196.707C465.608 196.972 466.086 196.677 466.367 196.45C466.67 196.2 466.883 195.867 467.027 195.504C467.156 195.178 467.194 194.837 467.156 194.504C467.042 193.346 466.056 192.257 464.91 192.037C464.113 191.886 463.317 192.075 462.679 192.582C462.406 192.801 462.163 193.082 461.997 193.392C461.807 193.725 461.632 194.134 461.746 194.504Z" fill="#7880CA"/>
<path d="M455.048 194.504H456.118C456.163 194.398 456.186 194.285 456.224 194.164C456.262 194.035 456.315 193.937 456.414 193.785C456.558 193.558 456.778 193.362 457.043 193.225C457.286 193.104 457.59 193.051 457.901 193.082C458.159 193.097 458.47 193.203 458.713 193.369C458.986 193.566 459.191 193.861 459.335 194.164C459.388 194.277 459.426 194.391 459.449 194.504C459.486 194.671 459.494 194.83 459.464 194.989C459.411 195.284 459.282 195.541 459.092 195.784C459.008 195.897 458.895 195.98 458.796 196.079C458.69 196.185 458.53 196.298 458.508 196.45C458.493 196.533 458.508 196.646 458.576 196.707C458.91 196.972 459.388 196.677 459.669 196.45C459.972 196.2 460.185 195.867 460.329 195.504C460.458 195.178 460.496 194.837 460.458 194.504C460.344 193.346 459.358 192.257 458.212 192.037C457.415 191.886 456.618 192.075 455.981 192.582C455.708 192.801 455.465 193.082 455.298 193.392C455.109 193.725 454.934 194.134 455.048 194.504Z" fill="#7880CA"/>
<path d="M448.347 194.504H449.417C449.462 194.398 449.485 194.285 449.523 194.164C449.561 194.035 449.614 193.937 449.712 193.785C449.857 193.558 450.077 193.362 450.342 193.225C450.585 193.104 450.888 193.051 451.2 193.082C451.458 193.097 451.769 193.203 452.011 193.369C452.285 193.566 452.489 193.861 452.634 194.164C452.687 194.277 452.725 194.391 452.747 194.504C452.785 194.671 452.793 194.83 452.763 194.989C452.709 195.284 452.58 195.541 452.391 195.784C452.307 195.897 452.194 195.98 452.095 196.079C451.989 196.185 451.829 196.298 451.807 196.45C451.791 196.533 451.807 196.646 451.875 196.707C452.209 196.972 452.687 196.677 452.967 196.45C453.271 196.2 453.483 195.867 453.628 195.504C453.757 195.178 453.794 194.837 453.757 194.504C453.643 193.346 452.656 192.257 451.511 192.037C450.714 191.886 449.917 192.075 449.28 192.582C449.007 192.801 448.764 193.082 448.597 193.392C448.407 193.725 448.233 194.134 448.347 194.504Z" fill="#7880CA"/>
<path d="M431.397 188.163H423.051C419.394 188.163 416.427 191.122 416.427 194.771V230.132C416.427 231.35 417.413 232.334 418.635 232.334H435.82C437.042 232.334 438.028 231.35 438.028 230.132V194.771C438.028 191.122 435.062 188.163 431.405 188.163H431.397Z" fill="#7077B4"/>
<path d="M421.299 182.054H422.065V179.753C422.065 179.178 422.535 178.709 423.112 178.709H431.337C431.913 178.709 432.384 179.178 432.384 179.753V182.054H433.15C433.727 182.054 434.197 182.524 434.197 183.099V187.511C434.197 188.087 433.727 188.556 433.15 188.556H421.291C420.714 188.556 420.244 188.087 420.244 187.511V183.099C420.244 182.524 420.714 182.054 421.291 182.054H421.299Z" fill="#393B6B"/>
<g style="mix-blend-mode:multiply" opacity="0.33">
<path d="M421.301 182.054H422.067V179.753C422.067 179.178 422.538 178.709 423.114 178.709H424.935C424.905 181.192 425.603 183.757 426.749 185.316C427.553 186.414 428.668 187.655 429.958 188.556H421.301C420.724 188.556 420.254 188.087 420.254 187.511V183.099C420.254 182.524 420.724 182.054 421.301 182.054Z" fill="#393B6B"/>
</g>
<path d="M435.057 192.417C435.687 193.423 435.588 195.255 435.11 195.308C434.814 195.338 434.769 194.43 434.518 193.582C434.359 193.045 434.268 192.621 434.071 192.121C433.873 191.622 434.556 191.622 435.057 192.417Z" fill="#7880CA"/>
<path d="M435.859 199.621C435.791 199.046 435.707 198.471 435.616 197.911C435.563 197.593 435.495 197.275 435.328 197.003C435.275 196.912 435.199 196.821 435.093 196.813C434.683 196.768 434.789 198.607 434.789 198.857C434.774 200.371 434.774 201.884 434.767 203.398C434.767 204.912 434.767 206.403 435.085 207.886C435.131 208.106 435.48 208.106 435.533 207.886C436.163 205.252 436.178 202.369 435.859 199.629V199.621Z" fill="#7880CA"/>
<path d="M266.525 69.8409C263.824 69.19 261.191 67.646 259.173 65.7765C254.56 61.5002 254.658 55.3392 255.614 49.3902C256.054 46.6503 258.717 48.1641 258.239 49.9276C257.473 52.7886 257.147 55.7858 257.982 58.6695C258.589 60.7736 259.772 62.4917 261.328 63.8995C262.534 64.9894 263.695 65.7084 265.326 66.4274C265.599 66.5485 265.88 66.662 266.161 66.768C266.54 66.9118 265.865 66.662 266.221 66.7907C266.32 66.8286 266.419 66.8588 266.517 66.8891C266.715 66.9497 266.919 67.0178 267.117 67.0632C268.9 67.487 268.3 70.2648 266.517 69.8333L266.525 69.8409Z" fill="white"/>
<path d="M253.071 76.6456L261.136 62.5753C263.041 59.2602 267.313 58.0947 270.636 59.9944L284.741 68.04C288.064 69.9397 291.607 74.5037 292.616 78.1896L302.761 115.337C303.77 119.023 301.57 122.86 297.874 123.867L270.143 131.398C266.448 132.404 262.601 130.21 261.592 126.524L251.447 89.3762C250.438 85.6902 251.174 79.9607 253.071 76.6456ZM266.736 80.5208C269.619 82.1632 273.299 81.1717 274.945 78.288C276.592 75.4119 275.598 71.7411 272.707 70.0987C269.824 68.4562 266.144 69.4477 264.498 72.3314C262.851 75.2075 263.845 78.8784 266.736 80.5208Z" fill="#7880CA"/>
<path d="M263.681 109.069C261.559 101.301 266.15 93.2879 273.936 91.1702C281.723 89.0526 289.756 93.6326 291.879 101.4L292.649 104.219C294.772 111.986 290.181 119.999 282.394 122.117C274.608 124.235 266.575 119.655 264.452 111.887L263.681 109.069Z" fill="white"/>
<g style="mix-blend-mode:multiply" opacity="0.33">
<path d="M270.674 104.825L282.397 101.214C283.049 101.01 283.353 100.23 283.072 99.4736C282.791 98.7167 282.033 98.2626 281.38 98.467L269.658 102.077C269.005 102.282 268.702 103.061 268.982 103.818C269.263 104.575 270.022 105.029 270.674 104.825Z" fill="#E0E2EC"/>
</g>
<g style="mix-blend-mode:multiply" opacity="0.33">
<path d="M270.764 110.652L286.235 105.763C287.092 105.49 287.563 104.65 287.282 103.901C287.001 103.144 286.06 102.75 285.203 103.023L269.732 107.912C268.875 108.185 268.405 109.025 268.685 109.774C268.966 110.531 269.907 110.925 270.764 110.652Z" fill="#E0E2EC"/>
</g>
<g style="mix-blend-mode:multiply" opacity="0.33">
<path d="M275.598 114.807L285.856 111.704C286.425 111.53 286.668 110.773 286.387 110.016C286.114 109.26 285.416 108.783 284.847 108.957L274.589 112.06C274.019 112.234 273.777 112.991 274.057 113.748C274.331 114.505 275.029 114.981 275.598 114.807Z" fill="#E0E2EC"/>
</g>
<path d="M267.123 68.6069C267.229 68.3496 266.979 69.0232 267.055 68.7886C267.108 68.6448 267.154 68.4934 267.199 68.3496C267.358 67.8349 267.48 67.3051 267.586 66.7677C267.654 66.412 267.707 66.0487 267.761 65.6854C267.783 65.5037 267.806 65.3221 267.821 65.1404C267.791 65.4735 267.844 64.7999 267.844 64.6939C267.89 63.6948 267.836 62.6882 267.685 61.6967C267.404 59.7969 266.448 57.5566 265.059 55.8763C262.851 53.2121 259.756 51.5243 256.554 50.3284C255.826 50.056 255.628 49.0342 255.955 48.4135C256.349 47.6642 257.146 47.5431 257.874 47.8156C264.035 50.1241 269.354 54.5518 270.484 61.288C270.962 64.1187 270.712 67.237 269.65 69.9239C269.361 70.6429 268.36 70.8548 267.73 70.5218C266.987 70.1358 266.842 69.326 267.131 68.6069H267.123Z" fill="white"/>
<path d="M227.139 126.053C227.442 125.478 228.383 125.607 228.543 126.235C228.793 127.242 228.626 128.279 228.846 129.3C228.922 129.656 229.013 130.496 229.294 130.716C229.726 131.049 230.47 130.67 230.94 130.564C232.837 130.133 234.043 130.769 235.303 132.161C235.796 132.706 236.077 132.865 236.79 132.585C237.169 132.434 237.496 132.245 237.89 132.131C238.793 131.889 239.764 131.912 240.66 132.161C242.124 132.578 243.444 133.622 244.271 134.909C244.514 134.735 244.749 134.568 244.969 134.417C246.509 133.395 248.497 132.699 250.25 133.637C253.497 135.378 254.408 141.297 251.077 143.386C250.235 143.916 249.499 142.614 250.303 142.069C251.965 140.934 251.631 138.118 250.713 136.627C249.469 134.599 247.511 135.06 245.827 136.271C245.546 136.468 245.311 136.695 245.083 136.922C245.288 138.012 245.159 139.178 244.332 139.935C243.118 141.047 241.426 139.859 241.638 138.345C241.76 137.535 242.23 136.793 242.837 136.15C242.792 136.074 242.761 135.999 242.716 135.923C241.729 134.394 239.757 133.289 237.966 134.076C236.608 134.674 235.682 135.143 234.445 133.97C233.854 133.41 233.414 132.57 232.594 132.313C231.775 132.055 230.864 132.547 230.037 132.661C228.55 132.865 227.769 132.131 227.283 130.799C226.759 129.361 226.38 127.446 227.131 126.038L227.139 126.053Z" fill="white"/>
<path d="M225.05 60.5766V39.3426C225.05 39.0162 225.587 38.7529 226.25 38.7529H248.151C248.815 38.7529 249.352 39.0162 249.352 39.3426V60.5766C249.352 61.233 248.267 61.7664 246.927 61.7664H227.479C226.142 61.7664 225.054 61.233 225.054 60.5766H225.05Z" fill="white"/>
<path d="M228.69 48.106H244.875C245.17 48.106 245.408 47.8674 245.408 47.5725C245.408 47.2777 245.17 47.0391 244.875 47.0391H228.69C228.395 47.0391 228.157 47.2777 228.157 47.5725C228.157 47.8674 228.395 48.106 228.69 48.106Z" fill="#ECECF3"/>
<path d="M228.69 51.4888H244.875C245.17 51.4888 245.408 51.2502 245.408 50.9554C245.408 50.6605 245.17 50.4219 244.875 50.4219H228.69C228.395 50.4219 228.157 50.6605 228.157 50.9554C228.157 51.2502 228.395 51.4888 228.69 51.4888Z" fill="#ECECF3"/>
<path d="M228.69 54.8765H244.875C245.17 54.8765 245.408 54.6379 245.408 54.3431C245.408 54.0482 245.17 53.8096 244.875 53.8096H228.69C228.395 53.8096 228.157 54.0482 228.157 54.3431C228.157 54.6379 228.395 54.8765 228.69 54.8765Z" fill="#ECECF3"/>
<path d="M228.69 58.2633H244.875C245.17 58.2633 245.408 58.0246 245.408 57.7298C245.408 57.435 245.17 57.1963 244.875 57.1963H228.69C228.395 57.1963 228.157 57.435 228.157 57.7298C228.157 58.0246 228.395 58.2633 228.69 58.2633Z" fill="#ECECF3"/>
<path d="M225.05 39.9533V43.277H249.348V39.9533C249.348 39.2899 248.811 38.7529 248.147 38.7529H226.246C225.583 38.7529 225.046 39.2899 225.046 39.9533H225.05Z" fill="#7880CA"/>
<path d="M230.936 40.7985C230.936 41.2337 231.291 41.5882 231.726 41.5882C232.161 41.5882 232.516 41.2337 232.516 40.7985C232.516 40.3633 232.161 40.0088 231.726 40.0088C231.291 40.0088 230.936 40.3633 230.936 40.7985Z" fill="#7F7F98"/>
<path d="M228.375 40.7985C228.375 41.2337 228.729 41.5882 229.165 41.5882C229.6 41.5882 229.954 41.2337 229.954 40.7985C229.954 40.3633 229.6 40.0088 229.165 40.0088C228.729 40.0088 228.375 40.3633 228.375 40.7985Z" fill="#7F7F98"/>
<path d="M225.923 40.7985C225.923 41.2337 226.277 41.5882 226.712 41.5882C227.148 41.5882 227.502 41.2337 227.502 40.7985C227.502 40.3633 227.148 40.0088 226.712 40.0088C226.277 40.0088 225.923 40.3633 225.923 40.7985Z" fill="#7F7F98"/>
<path d="M175.54 44.3001V22.2795C175.54 21.941 176.096 21.668 176.784 21.668H199.497C200.184 21.668 200.741 21.941 200.741 22.2795V44.3001C200.741 44.9808 199.617 45.534 198.227 45.534H178.058C176.671 45.534 175.543 44.9808 175.543 44.3001H175.54Z" fill="white"/>
<path d="M179.314 31.3682H196.098C196.404 31.3682 196.651 31.1207 196.651 30.815C196.651 30.5092 196.404 30.2617 196.098 30.2617H179.314C179.008 30.2617 178.761 30.5092 178.761 30.815C178.761 31.1207 179.008 31.3682 179.314 31.3682Z" fill="#ECECF3"/>
<path d="M179.314 34.877H196.098C196.404 34.877 196.651 34.6295 196.651 34.3238C196.651 34.018 196.404 33.7705 196.098 33.7705H179.314C179.008 33.7705 178.761 34.018 178.761 34.3238C178.761 34.6295 179.008 34.877 179.314 34.877Z" fill="#ECECF3"/>
<path d="M179.314 38.3897H196.098C196.404 38.3897 196.651 38.1422 196.651 37.8365C196.651 37.5307 196.404 37.2832 196.098 37.2832H179.314C179.008 37.2832 178.761 37.5307 178.761 37.8365C178.761 38.1422 179.008 38.3897 179.314 38.3897Z" fill="#ECECF3"/>
<path d="M179.314 41.9014H196.098C196.404 41.9014 196.651 41.6539 196.651 41.3482C196.651 41.0424 196.404 40.7949 196.098 40.7949H179.314C179.008 40.7949 178.761 41.0424 178.761 41.3482C178.761 41.6539 179.008 41.9014 179.314 41.9014Z" fill="#ECECF3"/>
<path d="M175.539 22.9128V26.3596H200.737V22.9128C200.737 22.2249 200.18 21.668 199.493 21.668H176.78C176.092 21.668 175.536 22.2249 175.536 22.9128H175.539Z" fill="#7880CA"/>
<path d="M181.643 23.7897C181.643 24.241 182.01 24.6086 182.461 24.6086C182.913 24.6086 183.28 24.241 183.28 23.7897C183.28 23.3383 182.913 22.9707 182.461 22.9707C182.01 22.9707 181.643 23.3383 181.643 23.7897Z" fill="#7F7F98"/>
<path d="M178.986 23.7897C178.986 24.241 179.354 24.6086 179.805 24.6086C180.256 24.6086 180.624 24.241 180.624 23.7897C180.624 23.3383 180.256 22.9707 179.805 22.9707C179.354 22.9707 178.986 23.3383 178.986 23.7897Z" fill="#7F7F98"/>
<path d="M176.443 23.7897C176.443 24.241 176.811 24.6086 177.262 24.6086C177.713 24.6086 178.081 24.241 178.081 23.7897C178.081 23.3383 177.713 22.9707 177.262 22.9707C176.811 22.9707 176.443 23.3383 176.443 23.7897Z" fill="#7F7F98"/>
<path d="M317.824 174.271V153.529C317.824 153.21 318.348 152.953 318.996 152.953H340.39C341.038 152.953 341.562 153.21 341.562 153.529V174.271C341.562 174.913 340.503 175.434 339.194 175.434H320.196C318.89 175.434 317.827 174.913 317.827 174.271H317.824Z" fill="white"/>
<path d="M321.378 162.09H337.188C337.476 162.09 337.709 161.857 337.709 161.569C337.709 161.281 337.476 161.048 337.188 161.048H321.378C321.09 161.048 320.857 161.281 320.857 161.569C320.857 161.857 321.09 162.09 321.378 162.09Z" fill="#ECECF3"/>
<path d="M321.378 165.395H337.188C337.476 165.395 337.709 165.162 337.709 164.874C337.709 164.586 337.476 164.353 337.188 164.353H321.378C321.09 164.353 320.857 164.586 320.857 164.874C320.857 165.162 321.09 165.395 321.378 165.395Z" fill="#ECECF3"/>
<path d="M321.378 168.703H337.188C337.476 168.703 337.709 168.47 337.709 168.182C337.709 167.894 337.476 167.661 337.188 167.661H321.378C321.09 167.661 320.857 167.894 320.857 168.182C320.857 168.47 321.09 168.703 321.378 168.703Z" fill="#ECECF3"/>
<path d="M321.378 172.012H337.188C337.476 172.012 337.709 171.779 337.709 171.491C337.709 171.203 337.476 170.97 337.188 170.97H321.378C321.09 170.97 320.857 171.203 320.857 171.491C320.857 171.779 321.09 172.012 321.378 172.012Z" fill="#ECECF3"/>
<path d="M317.823 154.126V157.372H341.559V154.126C341.559 153.478 341.034 152.953 340.386 152.953H318.992C318.344 152.953 317.82 153.478 317.82 154.126H317.823Z" fill="#7880CA"/>
<path d="M323.572 154.952C323.572 155.377 323.918 155.723 324.343 155.723C324.768 155.723 325.114 155.377 325.114 154.952C325.114 154.527 324.768 154.181 324.343 154.181C323.918 154.181 323.572 154.527 323.572 154.952Z" fill="#7F7F98"/>
<path d="M321.068 154.952C321.068 155.377 321.414 155.723 321.839 155.723C322.264 155.723 322.61 155.377 322.61 154.952C322.61 154.527 322.264 154.181 321.839 154.181C321.414 154.181 321.068 154.527 321.068 154.952Z" fill="#7F7F98"/>
<path d="M318.673 154.952C318.673 155.377 319.019 155.723 319.445 155.723C319.87 155.723 320.216 155.377 320.216 154.952C320.216 154.527 319.87 154.181 319.445 154.181C319.019 154.181 318.673 154.527 318.673 154.952Z" fill="#7F7F98"/>
<path d="M307.867 60.7839V36.7228C307.867 36.353 308.475 36.0547 309.226 36.0547H334.043C334.795 36.0547 335.403 36.353 335.403 36.7228V60.7839C335.403 61.5276 334.175 62.1321 332.656 62.1321H310.618C309.103 62.1321 307.871 61.5276 307.871 60.7839H307.867Z" fill="white"/>
<path d="M311.988 46.6534H330.327C330.661 46.6534 330.932 46.3829 330.932 46.0488C330.932 45.7148 330.661 45.4443 330.327 45.4443H311.988C311.654 45.4443 311.384 45.7148 311.384 46.0488C311.384 46.3829 311.654 46.6534 311.988 46.6534Z" fill="#ECECF3"/>
<path d="M311.988 50.4873H330.327C330.661 50.4873 330.932 50.2169 330.932 49.8828C330.932 49.5488 330.661 49.2783 330.327 49.2783H311.988C311.654 49.2783 311.384 49.5488 311.384 49.8828C311.384 50.2169 311.654 50.4873 311.988 50.4873Z" fill="#ECECF3"/>
<path d="M311.988 54.3252H330.327C330.661 54.3252 330.932 54.0548 330.932 53.7207C330.932 53.3867 330.661 53.1162 330.327 53.1162H311.988C311.654 53.1162 311.384 53.3867 311.384 53.7207C311.384 54.0548 311.654 54.3252 311.988 54.3252Z" fill="#ECECF3"/>
<path d="M311.988 58.1631H330.327C330.661 58.1631 330.932 57.8927 330.932 57.5586C330.932 57.2245 330.661 56.9541 330.327 56.9541H311.988C311.654 56.9541 311.384 57.2245 311.384 57.5586C311.384 57.8927 311.654 58.1631 311.988 58.1631Z" fill="#ECECF3"/>
<path d="M307.867 37.4148V41.1811H335.399V37.4148C335.399 36.6632 334.791 36.0547 334.039 36.0547H309.223C308.471 36.0547 307.863 36.6632 307.863 37.4148H307.867Z" fill="#7880CA"/>
<path d="M314.535 38.3733C314.535 38.8665 314.936 39.2682 315.43 39.2682C315.923 39.2682 316.324 38.8665 316.324 38.3733C316.324 37.8802 315.923 37.4785 315.43 37.4785C314.936 37.4785 314.535 37.8802 314.535 38.3733Z" fill="#7F7F98"/>
<path d="M311.632 38.3733C311.632 38.8665 312.034 39.2682 312.527 39.2682C313.02 39.2682 313.422 38.8665 313.422 38.3733C313.422 37.8802 313.02 37.4785 312.527 37.4785C312.034 37.4785 311.632 37.8802 311.632 38.3733Z" fill="#7F7F98"/>
<path d="M308.852 38.3733C308.852 38.8665 309.254 39.2682 309.747 39.2682C310.24 39.2682 310.642 38.8665 310.642 38.3733C310.642 37.8802 310.24 37.4785 309.747 37.4785C309.254 37.4785 308.852 37.8802 308.852 38.3733Z" fill="#7F7F98"/>
</g>
<path d="M390.418 71.6483L389.574 72.7541L388.682 73.9032L386.881 76.209C385.666 77.7424 384.434 79.2679 383.184 80.7737C381.944 82.2875 380.689 83.7855 379.413 85.2561C378.141 86.7306 376.861 88.1894 375.558 89.609C374.255 91.0286 372.939 92.4169 371.615 93.7502C370.29 95.0796 368.943 96.3541 367.609 97.511C366.289 98.6639 364.942 99.7188 363.821 100.433C363.277 100.789 362.783 101.044 362.602 101.138C362.558 101.166 362.544 101.174 362.549 101.182C362.566 101.182 362.611 101.182 362.708 101.178L362.792 101.17C362.792 101.17 362.814 101.17 362.845 101.17L362.977 101.158C363.158 101.15 363.335 101.142 363.511 101.15C363.86 101.158 364.178 101.201 364.448 101.264C364.713 101.323 364.925 101.389 365.088 101.46C365.242 101.519 365.348 101.582 365.41 101.625C365.534 101.711 365.499 101.727 365.401 101.687C365.189 101.593 364.743 101.26 364.275 100.813C363.803 100.366 363.291 99.8012 362.787 99.1855C362.279 98.5659 361.767 97.8914 361.264 97.1855C360.257 95.7698 359.285 94.2247 358.349 92.6286C357.422 91.0286 356.512 89.3777 355.642 87.6953C353.902 84.3267 352.264 80.8482 350.705 77.3228C349.919 75.562 349.155 73.7855 348.413 72.0051L347.318 69.3267L346.779 67.9894L346.263 66.6835L346.21 66.5541C345.084 63.711 341.577 62.2169 338.376 63.2169C335.448 64.1306 333.788 66.8169 334.388 69.4443L334.733 70.9502L335.082 72.4169C335.32 73.3933 335.572 74.362 335.823 75.3345C336.331 77.2757 336.866 79.209 337.426 81.1424C338.57 85.0051 339.824 88.86 341.295 92.7227C342.028 94.6522 342.81 96.5894 343.684 98.5267C344.558 100.468 345.508 102.417 346.616 104.397C347.172 105.389 347.773 106.389 348.453 107.401C349.133 108.417 349.879 109.444 350.785 110.507C351.694 111.57 352.737 112.672 354.216 113.813C354.967 114.382 355.828 114.966 356.914 115.515C357.457 115.789 358.062 116.056 358.725 116.291C359.4 116.531 360.133 116.738 360.937 116.895C361.745 117.048 362.611 117.142 363.503 117.154C363.953 117.154 364.403 117.146 364.854 117.107L365.194 117.076L365.45 117.048C365.613 117.029 365.781 117.009 365.936 116.985C366.572 116.891 367.141 116.774 367.689 116.64C368.219 116.507 368.727 116.362 369.19 116.213C371.049 115.601 372.476 114.911 373.774 114.221C375.064 113.527 376.198 112.821 377.272 112.107C378.34 111.393 379.338 110.676 380.296 109.95C382.204 108.495 383.953 107.025 385.635 105.535C387.318 104.048 388.921 102.542 390.475 101.017C393.588 97.9776 396.512 94.8757 399.342 91.7267C400.747 90.1463 402.133 88.558 403.493 86.9502C404.173 86.1463 404.853 85.3424 405.525 84.5267L406.527 83.2953L407.552 82.009C410.859 77.86 409.751 72.1149 405.079 69.1816C400.407 66.2443 393.937 67.2286 390.634 71.3777C390.603 71.4169 390.572 71.4522 390.546 71.4914L390.427 71.6443L390.418 71.6483Z" fill="#7880CA"/>
<path d="M330.181 62.1068C330.181 62.1068 331.524 70.2597 335.957 72.0715C339.689 73.597 346.701 68.5734 346.701 68.5734C349.514 66.0362 350.057 64.4597 351.055 61.3891C352.053 58.3185 346.856 54.7538 346.856 54.7538C346.856 54.7538 343.31 42.3931 341.186 41.3499C339.062 40.3068 340.903 52.2087 340.903 52.2087C340.903 52.2087 340.174 51.4558 338.779 51.6715C336.876 51.9695 332.318 54.0872 330.305 55.946C328.503 57.6127 330.181 62.1029 330.181 62.1029V62.1068Z" fill="#7880CA"/>
<path d="M434.844 132.796C434.844 132.796 454.862 140.612 458.637 164.125C462.413 187.643 471.095 196.435 465.208 207.447C459.322 218.459 418.32 205.612 384.056 206.051C349.793 206.486 357.411 183.415 363.875 173.996C370.345 164.576 377.128 137.306 387.655 136.549C398.183 135.788 434.84 132.796 434.84 132.796H434.844Z" fill="#EFBF56"/>
<path d="M401.869 177.428C402.721 177.62 403.582 177.8 404.443 177.977C415.465 180.212 427.035 181.118 435.13 179.4C439.126 178.553 441.683 174.208 443.308 169.357C443.754 168.031 444.341 166.694 444.443 165.33C445.432 151.847 441.692 146.126 441.692 146.126L382.09 140.22C382.09 140.22 380.107 143.459 377.908 147.682C376.314 150.741 374.609 154.314 373.457 157.545C373.457 157.545 373.457 157.553 373.452 157.553C372.763 159.486 372.273 161.298 372.127 162.8C371.655 167.604 385.826 173.847 401.864 177.428H401.869Z" fill="#7880CA"/>
<path d="M404.521 182.859C405.714 200.745 411.918 233.184 415.945 248.561C416.047 248.941 416.144 249.31 416.241 249.67C416.413 250.302 416.577 250.894 416.736 251.451C420.242 263.69 438.396 305.333 448.018 327.098C448.155 327.408 448.292 327.717 448.425 328.011C448.95 329.2 449.71 331.361 450.178 332.408C452.112 332.157 454.156 331.862 456.091 331.615C461.103 330.988 465.682 330.478 470.721 330.035C470.571 329.184 470.412 326.772 470.244 325.808C470.191 325.502 470.133 325.188 470.076 324.866C468.235 314.447 465.404 298.49 462.794 284.204C458.462 260.494 451.979 247.678 451.979 247.678C451.979 247.678 448.809 242.725 447.228 228.682C445.921 217.047 442.189 179.933 441.271 167.494C441.081 164.984 440.97 163.514 440.97 163.514C440.97 163.514 410.664 161.408 405.215 170.729C404.795 171.455 404.517 172.251 404.424 173.117C404.181 175.282 404.239 178.666 404.517 182.855L404.521 182.859Z" fill="#7880CA"/>
<path d="M437.397 188.432C437.667 188.432 437.91 188.267 437.971 188.024C438.047 187.742 437.848 187.459 437.53 187.397C437.477 187.385 434.121 186.663 430.69 184.161C426.093 180.805 423.545 176.005 423.125 169.895C423.103 169.605 422.825 169.385 422.498 169.405C422.171 169.424 421.924 169.671 421.946 169.961C422.502 177.973 426.622 182.565 429.987 185.005C433.635 187.652 437.119 188.389 437.265 188.42C437.309 188.428 437.353 188.436 437.397 188.436V188.432Z" fill="#2B2B39"/>
<path d="M363.065 334.789C363.091 335.122 363.113 335.452 363.14 335.762C363.405 339.271 363.564 341.299 363.564 341.299L365.162 341.146L381.077 339.609L383.126 339.413C383.126 339.413 383.228 337.554 383.427 334.409C383.444 334.095 383.466 333.765 383.488 333.424C384.221 322.154 386.076 297.318 389.132 279.491C393.199 255.746 389.353 242.052 389.353 242.052C389.353 242.052 388.898 235.381 393.795 222.017C395.001 218.722 396.427 213.095 397.884 206.487C398.348 204.389 398.812 202.189 399.28 199.938C400.781 192.652 402.261 184.777 403.524 177.789C403.713 176.738 403.899 175.711 404.08 174.703C404.146 174.322 404.217 173.942 404.279 173.57C405.974 163.993 407.127 156.938 407.127 156.938C407.127 156.938 403.912 155.632 399.465 154.315C394.864 152.95 388.942 151.573 383.912 151.624C379.209 151.671 375.284 152.966 373.954 156.687C373.385 158.283 372.789 160.213 372.175 162.409C371.318 165.471 370.43 169.048 369.534 172.95C368.443 177.699 367.344 182.926 366.279 188.283C365.418 192.632 364.579 197.071 363.784 201.413C361.091 216.185 358.971 229.824 358.406 235.017C358.269 236.24 358.185 237.824 358.132 239.711C358.123 240.095 358.114 240.487 358.11 240.895C357.748 262.154 361.647 316.083 363.06 334.789H363.065Z" fill="#7880CA"/>
<path d="M437.031 166.815C437.362 166.788 437.658 167 437.689 167.294C437.751 167.839 443.783 221.98 446.335 243.157C446.795 244.38 454.456 264.808 456.7 275.757C458.713 285.588 465.019 312.517 468.009 325.219C467.625 325.329 467.236 325.419 466.847 325.51C463.862 312.831 457.534 285.808 455.516 275.949C453.229 264.792 445.253 243.651 445.174 243.439C445.161 243.4 445.152 243.364 445.147 243.325C442.599 222.184 436.558 167.941 436.497 167.392C436.461 167.098 436.704 166.835 437.035 166.808L437.031 166.815Z" fill="#7880CA"/>
<path d="M404.331 174.753C404.548 174.753 404.76 174.647 404.866 174.467C405.02 174.204 404.906 173.882 404.61 173.745C404.517 173.702 398.136 170.631 396.86 163.949C396.802 163.659 396.493 163.459 396.162 163.51C395.835 163.561 395.614 163.835 395.667 164.129C397.05 171.365 403.762 174.565 404.049 174.698C404.137 174.741 404.234 174.761 404.327 174.761L404.331 174.753Z" fill="#7880CA"/>
<path d="M379.671 334.392C379.963 334.368 380.201 334.16 380.223 333.894C380.263 333.341 384.219 278.404 385.549 265.874C386.829 253.808 384.873 236.466 384.692 234.882C389.223 222.541 401.715 173.447 401.839 172.953C401.914 172.662 401.707 172.376 401.384 172.313C401.057 172.247 400.735 172.431 400.664 172.717C400.536 173.215 387.986 222.549 383.504 234.659C383.478 234.729 383.469 234.808 383.478 234.882C383.5 235.066 385.672 253.294 384.348 265.772C383.014 278.317 379.057 333.27 379.018 333.823C378.995 334.117 379.247 334.372 379.583 334.392C379.614 334.392 379.645 334.392 379.671 334.392Z" fill="#2B2B39"/>
<path d="M382.062 143.612C387.216 144.839 393.102 145.804 399.814 146.479C400.234 146.522 400.658 146.565 401.086 146.604C412.386 147.663 425.983 147.91 442.335 147.188C442.221 143.561 442.34 139.851 442.574 136.337C442.592 136.075 442.609 135.816 442.627 135.557C443.316 126.059 444.822 118.232 444.866 117.992C444.954 117.471 445.056 116.922 445.175 116.353C445.223 116.11 445.276 115.863 445.329 115.612C445.687 113.984 446.151 112.184 446.703 110.271C446.994 109.247 447.317 108.188 447.661 107.11C448.001 106.047 448.363 104.957 448.752 103.851C448.8 103.714 448.849 103.577 448.898 103.439C448.981 103.204 449.065 102.965 449.149 102.726C449.392 102.051 449.639 101.373 449.896 100.69C450.147 100.008 450.412 99.3256 450.682 98.6433C450.836 98.2394 450.999 97.8394 451.158 97.4355C451.189 97.3688 451.22 97.2943 451.247 97.2237C451.37 96.9139 451.494 96.608 451.622 96.3021C451.627 96.2904 451.631 96.2786 451.635 96.2668C451.914 95.5962 452.196 94.9296 452.483 94.2708C452.589 94.0237 452.695 93.7766 452.806 93.5335C453.393 92.1845 454.007 90.859 454.638 89.5531C459.262 79.9923 460.004 69.2159 448.893 65.9257C448.085 65.6825 447.286 65.4551 446.513 65.2394C445.082 64.8355 443.713 64.4747 442.459 64.1492C442.141 64.0668 441.836 63.9884 441.536 63.9139C439.253 63.3374 437.42 62.9217 436.352 62.6825C436.065 62.6198 435.831 62.5688 435.663 62.5296C435.592 62.5139 435.535 62.5021 435.486 62.4904C435.38 62.4668 435.327 62.4551 435.327 62.4551L411.998 64.1727L409.777 64.3374C409.362 64.3806 408.955 64.4198 408.558 64.4629C408.271 64.4904 407.988 64.5257 407.71 64.557C405.37 64.8237 403.378 65.1139 401.673 65.4472C399.752 65.8237 398.202 66.2472 396.935 66.7453C396.264 67.008 395.672 67.2943 395.151 67.6041C394.921 67.7414 394.705 67.8825 394.498 68.0276C392.223 69.6472 391.473 71.8825 390.788 75.1139C390.731 75.3766 390.673 75.6472 390.62 75.9257C390.413 76.957 390.201 78.0864 389.94 79.3217C389.914 79.4394 389.892 79.557 389.865 79.6747C389.856 79.7139 389.848 79.7531 389.839 79.7923C389.768 80.1257 389.689 80.459 389.609 80.7884C389.552 81.0276 389.494 81.2668 389.432 81.5021C389.282 82.0825 389.119 82.6551 388.947 83.2315C388.607 84.3806 388.231 85.51 387.834 86.6237C387.794 86.7413 387.75 86.859 387.71 86.9766C387.666 87.0982 387.626 87.2119 387.582 87.3296C386.787 89.5139 385.939 91.6041 385.167 93.5727C385.078 93.7923 384.994 94.008 384.91 94.2237C384.906 94.2355 384.902 94.2472 384.897 94.259C384.495 95.2943 384.12 96.2943 383.793 97.2433C383.776 97.3021 383.754 97.3609 383.731 97.4198C383.67 97.5962 383.617 97.7688 383.559 97.9413C383.246 98.906 382.99 99.8198 382.813 100.679C382.574 101.839 382.477 102.902 382.583 103.839C382.623 104.188 382.689 104.522 382.791 104.839C383.034 105.612 383.356 106.369 383.727 107.098C383.745 107.133 383.767 107.173 383.784 107.208C383.939 107.502 384.102 107.792 384.27 108.079C384.725 108.851 385.233 109.584 385.736 110.259C387.03 111.977 388.355 113.31 389.035 113.957C389.335 114.243 389.512 114.396 389.512 114.396C389.512 114.416 389.512 114.439 389.507 114.463C389.49 114.635 389.463 114.812 389.437 115C389.335 115.722 389.194 116.577 389.017 117.545C389 117.632 388.889 118.22 388.686 119.212C388.638 119.443 388.585 119.694 388.527 119.973C388.306 121.032 388.006 122.396 387.631 124C387.569 124.263 387.503 124.533 387.436 124.812C386.271 129.737 384.469 136.608 382.049 143.604L382.062 143.612Z" fill="white"/>
<path d="M385.526 132.356C385.526 132.356 378.474 137.141 382.064 144.764C382.064 144.764 420.328 156.376 442.735 148.521C442.735 148.521 444.947 141.733 442.342 136.18C442.342 136.18 407.544 142.486 385.531 132.353L385.526 132.356Z" fill="#EFBF56"/>
<path d="M401.617 144.286C401.617 144.286 385.066 149.004 376.393 156.847C376.393 156.847 379.714 167.616 388.612 169.341C388.612 169.341 401.25 149.945 405.494 148.67L401.617 144.282V144.286Z" fill="#EFBF56"/>
<path d="M417.887 144.886C417.887 144.886 432.154 153.701 437.864 163.458C437.864 163.458 431.139 172.89 422.06 172.227C422.06 172.227 416.376 150.392 412.733 148.07L417.887 144.886Z" fill="#EFBF56"/>
<path d="M399.82 143.588C399.652 141.824 399.856 140.039 400.496 138.361C401.225 136.451 402.598 134.404 405.146 134.267C409.999 134.004 410.551 137.353 410.551 137.353C410.551 137.353 412.56 133.804 417.727 135.745C422.894 137.686 420.871 150.863 415.832 152.4C410.789 153.937 408.855 150.278 408.855 150.278C408.855 150.278 407.217 153.016 402.978 151.125C400.907 150.204 400.063 146.137 399.82 143.588Z" fill="#EFBF56"/>
<path d="M396.933 66.749C396.363 71.3216 393.431 78.5059 388.953 83.2392C389.293 82.1059 389.589 80.9569 389.841 79.8C389.849 79.7608 389.858 79.7216 389.867 79.6824C389.894 79.5647 389.916 79.4471 389.938 79.3294C391.369 72.5059 391.404 68.9255 396.933 66.749Z" fill="#7880CA"/>
<path d="M434.626 80.4314C435.178 89.549 443.868 99.6706 450.687 98.6392C450.872 98.1647 451.062 97.6941 451.252 97.2235C451.376 96.9137 451.504 96.6079 451.632 96.302C452.572 94.0196 453.584 91.749 454.643 89.5569C459.262 79.9961 460.009 69.2196 448.894 65.9294C448.086 65.6902 447.291 65.4628 446.514 65.2432C440.314 66.3765 433.986 69.9373 434.621 80.4353L434.626 80.4314Z" fill="#7880CA"/>
<path d="M406.211 90.0314C399.389 90.0314 397.892 83.4981 397.878 83.4314C397.821 83.1726 398.015 82.9216 398.307 82.8707C398.598 82.8197 398.881 82.9922 398.938 83.2511C398.991 83.4981 400.29 89.0785 406.216 89.0785C412.433 89.0785 425.951 80.6471 426.087 80.5648C426.33 80.4118 426.666 80.4628 426.838 80.6785C427.01 80.8942 426.953 81.1922 426.71 81.3452C426.145 81.6981 412.769 90.0354 406.216 90.0354L406.211 90.0314Z" fill="#CA9441"/>
<path d="M422.653 12.337C423.907 13.5919 427.241 16.3017 427.241 16.3017L432.028 19.2154L436.1 22.1958C436.1 22.1958 448.42 27.9292 450.937 26.1488C452.487 25.0507 452.262 23.1762 451.86 21.9017C451.609 21.1135 451.295 20.5566 451.295 20.5566C451.295 20.5566 451.613 20.6782 452.103 20.7723C453.318 21.0115 455.578 21.09 456.634 18.7449C458.109 15.4547 453.291 11.8429 453.291 11.8429C453.291 11.8429 457 11.7449 458.595 8.93703C460.184 6.12526 453.587 1.23899 453.587 1.23899C453.587 1.23899 455.751 0.831147 454.603 -2.56885C453.45 -5.96885 449.273 -4.98061 449.273 -4.98061C449.273 -4.98061 449.714 -11.1924 444.649 -11.5453C439.588 -11.8983 436.02 -6.00022 436.02 -6.00022C436.02 -6.00022 432.2 -7.79238 428.213 -5.53355C424.225 -3.27473 426.844 3.49389 426.844 3.49389C426.844 3.49389 422.627 1.81546 419.756 4.96448C417.95 6.95271 420.511 10.2076 422.658 12.3409L422.653 12.337Z" fill="#EFBF56"/>
<path d="M427.241 16.2979C427.241 16.2979 433.715 17.4273 436.1 22.192C436.1 22.192 435.269 23.2704 433.132 23.6665C433.132 23.6665 431.975 20.4547 426.919 18.7175C426.919 18.7175 426.12 17.1959 427.237 16.2979H427.241Z" fill="#EFBF56"/>
<path d="M401.748 42.353C401.748 42.353 397.354 41.4863 396.157 35.9608C394.206 26.9569 400.944 18.6314 413.543 17.1216C430.045 15.1412 432.39 19.6785 435.632 25.3608C438.873 31.0432 438.051 39.5373 434.775 44.1922C431.604 48.698 425.1 50.6314 425.1 50.6314L401.752 42.353H401.748Z" fill="#EFBF56"/>
<path d="M404.508 48.9565C404.72 50.1173 403.832 51.2114 402.525 51.3997C401.218 51.5879 399.986 50.7997 399.774 49.6389C399.562 48.4781 400.45 47.384 401.757 47.1957C403.064 47.0075 404.296 47.7958 404.508 48.9565Z" fill="white"/>
<path d="M432.111 63.3994C432.111 63.3994 428.91 69.6269 421.252 71.0269C411.524 72.8073 410.151 69.1092 410.151 69.1092C410.486 67.9053 410.654 66.721 410.69 65.4583C410.703 64.9798 410.694 64.4896 410.667 63.9838C410.597 62.6034 410.389 61.0975 410.071 59.3681C409.996 58.9642 409.917 58.5406 409.828 58.1093L409.82 58.0583C416.519 56.2661 421.897 53.2936 425.403 48.6387L426.388 48.0426L427.051 47.6387L427.201 47.9838L427.148 49.1132C426.874 54.4191 428.512 58.7171 432.12 63.4034L432.111 63.3994Z" fill="#7880CA"/>
<path d="M421 53.5254C419.76 56.4823 416.774 61.7528 410.663 63.9842C410.592 62.6038 410.385 61.0979 410.067 59.3685C409.992 58.9646 409.912 58.5411 409.824 58.1097C409.961 58.1175 410.098 58.1175 410.234 58.1215C413.953 58.1411 417.861 56.2313 421.005 53.5293L421 53.5254Z" fill="#2B2B39"/>
<path d="M434.717 38.5016C435.171 41.7604 432.619 46.0898 427.837 46.7369H427.81L427.709 46.7565C427.656 46.9525 427.594 47.1447 427.527 47.3447C427.497 47.431 427.47 47.5173 427.439 47.6035C427.439 47.6114 427.435 47.6192 427.43 47.6271C425.214 53.4898 416.783 57.7212 411.997 58.3643C410.288 58.5918 409.086 58.3761 408.707 58.3486C403.478 57.9251 401.677 51.9212 401.822 47.1643C401.844 46.4741 401.911 45.8114 402.008 45.1957C402.017 45.1526 402.021 45.1094 402.03 45.0702C402.03 45.0702 399.416 38.7251 398.616 35.9212C397.075 30.482 399.862 24.4781 413.348 21.8781C426.834 19.2741 431.149 26.4349 432.663 30.3173C432.919 30.9643 433.317 34.9408 432.663 35.6584C434.037 36.1016 434.571 37.4153 434.721 38.5094L434.717 38.5016Z" fill="#7880CA"/>
<path d="M415.243 29.5645C415.243 29.5645 415.229 33.0233 418.78 34.6429C418.811 34.6547 418.749 34.6312 418.78 34.6429C420.824 35.5763 422.445 36.4822 421.844 38.4508C421.054 41.0429 421.95 42.6743 423.633 42.6469C426.636 42.5959 426.503 36.592 432.659 35.6469C432.659 35.6469 434.836 34.992 434.134 31.5488C433.432 28.1096 425.43 18.9684 415.326 20.6194C405.218 22.2704 396.788 27.6939 397.301 34.0861C397.813 40.4782 399.182 39.0665 399.182 39.0665C399.182 39.0665 399.023 38.6978 399.319 33.4939C399.584 28.8233 415.896 26.4939 415.247 29.5567L415.243 29.5645Z" fill="#EFBF56"/>
<path d="M432.625 46.3374C432.837 47.4982 431.949 48.5923 430.642 48.7805C429.335 48.9688 428.103 48.1805 427.891 47.0197C427.679 45.859 428.567 44.7648 429.874 44.5766C431.181 44.3884 432.413 45.1766 432.625 46.3374Z" fill="white"/>
<path d="M436.884 96.2042C437.043 96.2591 437.26 96.3532 437.454 96.4277L438.05 96.6748L439.26 97.1728L441.684 98.1767C443.301 98.8473 444.917 99.5062 446.52 100.149C449.73 101.436 452.932 102.655 456.041 103.683C456.818 103.938 457.586 104.189 458.346 104.412C459.105 104.636 459.852 104.839 460.576 105.028C461.3 105.212 462.007 105.373 462.669 105.494C463.331 105.624 463.954 105.718 464.488 105.769C465.023 105.82 465.469 105.816 465.712 105.796C465.818 105.781 465.901 105.769 465.866 105.753C465.866 105.753 465.822 105.745 465.778 105.753C465.765 105.757 465.707 105.753 465.676 105.765C465.659 105.765 465.636 105.773 465.619 105.777L465.451 105.816C465.186 105.89 464.82 106.004 464.453 106.185C464.073 106.361 463.654 106.612 463.265 106.914C462.872 107.22 462.514 107.573 462.227 107.938C461.94 108.302 461.728 108.643 461.583 108.961C461.432 109.267 461.344 109.526 461.287 109.738C461.229 109.938 461.203 110.106 461.181 110.212C461.15 110.439 461.154 110.506 461.137 110.479C461.11 110.424 461.031 110.063 460.876 109.628C460.722 109.185 460.51 108.655 460.245 108.09C459.724 106.957 459.066 105.698 458.319 104.428C457.577 103.149 456.774 101.843 455.921 100.534C455.082 99.216 454.182 97.9022 453.281 96.5728C451.452 93.9258 449.554 91.2591 447.615 88.5964L444.696 84.5964L441.821 80.6395L441.737 80.5219C439.101 76.8944 440.276 72.0591 444.356 69.7179C448.043 67.6042 452.843 68.2513 455.679 71.067L456.191 71.5728L456.672 72.0591L457.617 73.0317C458.24 73.6787 458.854 74.3336 459.459 74.9924C460.669 76.3101 461.852 77.6434 463.005 78.9964C465.314 81.7101 467.544 84.4905 469.664 87.4003C470.732 88.8513 471.753 90.3415 472.768 91.863C473.766 93.3924 474.747 94.965 475.683 96.616C476.606 98.2748 477.511 99.9964 478.319 101.93C478.721 102.898 479.105 103.922 479.45 105.059C479.785 106.208 480.099 107.459 480.231 109.039C480.297 109.832 480.315 110.722 480.196 111.765C480.138 112.279 480.037 112.855 479.882 113.455C479.719 114.067 479.494 114.722 479.171 115.408C478.84 116.102 478.421 116.812 477.869 117.514C477.317 118.212 476.659 118.879 475.917 119.459C475.184 120.032 474.384 120.526 473.598 120.898C472.821 121.271 472.035 121.557 471.324 121.749L471.055 121.824L470.927 121.859L470.83 121.883L470.437 121.969C470.18 122.024 469.902 122.087 469.659 122.122L468.913 122.236C468.661 122.275 468.441 122.29 468.202 122.318C467.253 122.416 466.409 122.428 465.592 122.416C463.989 122.381 462.589 122.192 461.304 121.965C458.739 121.498 456.575 120.828 454.535 120.098C452.499 119.369 450.618 118.549 448.807 117.702C445.191 115.992 441.874 114.094 438.69 112.079C437.101 111.071 435.555 110.024 434.04 108.941C433.285 108.4 432.539 107.847 431.797 107.283C431.426 107 431.064 106.71 430.698 106.42L430.146 105.981L429.567 105.51C426.953 103.373 426.785 99.7611 429.187 97.4395C431.051 95.6395 433.917 95.1454 436.328 96.0081L436.871 96.2042H436.884Z" fill="#7880CA"/>
<path d="M399.106 68.2508L433.853 72.7578L427.257 112.858L392.51 108.351L399.106 68.2508Z" fill="#2B2B39"/>
<path d="M425.077 71.6393C425.077 71.6393 424.556 69.1177 422.008 68.8589C422.008 68.8589 421.893 66.5138 419.615 65.8157C417.336 65.1177 414.951 64.9491 413.304 65.1412C411.662 65.3334 410.92 67.2942 410.92 67.2942C410.92 67.2942 409.219 67.1961 408.301 67.7844C407.387 68.3726 407.193 69.3216 407.193 69.3216L425.077 71.6432V71.6393Z" fill="#2B2B39"/>
<path d="M437.211 105.271C434.552 107.126 430.702 106.561 428.524 104.263C427.376 103.051 425.99 101.812 424.612 101.133C421.309 99.5059 416.893 98.3961 415.489 97.1569C413.413 95.3255 416.566 95.2118 416.959 95.2471C419.476 95.4628 422.894 96.2981 422.894 96.2981C422.894 96.2981 417.304 93.4941 414.786 93.2471C412.274 93.004 411.042 91.302 413.532 90.3373C416.027 89.3765 422.912 91.3255 424.652 92.3255C424.652 92.3255 421.706 89.804 418.315 89.3726C414.923 88.9412 413.771 88.3804 412.68 87.6236C411.585 86.8628 413.515 85.0745 418.235 85.7883C422.956 86.4981 424.563 87.8236 426.414 89.0824C426.414 89.0824 425.447 87.6353 423.322 85.6236C421.198 83.6079 417.228 83.3883 416.681 81.8079C416.12 80.1922 420.677 80.6275 423.066 81.8667C425.46 83.1059 427.315 83.8236 429.469 86.3177C431.62 88.8118 433.581 91.2628 434.464 93.0314C435.347 94.8 439.423 100.722 438.721 103.439C438.54 104.133 437.966 104.745 437.215 105.271H437.211Z" fill="#7880CA"/>
<path d="M437.038 97.8745C437.038 97.8745 436.552 91.9804 435.289 90.3333C434.026 88.6823 433.107 85.5961 431.791 86.2588C430.475 86.9176 431.721 90.6863 431.721 90.6863L437.042 97.8784L437.038 97.8745Z" fill="#7880CA"/>
</g>
<ellipse cx="420" cy="10.5516" rx="4" ry="3.55165" fill="#EFBF56"/>
<defs>
<clipPath id="clip0_1137_16689">
<rect width="452.064" height="292.418" fill="white" transform="matrix(-1 0 0 1 551.643 -25.374)"/>
</clipPath>
</defs>
</svg>
