<svg width="602" height="263" viewBox="0 0 602 263" fill="none" xmlns="http://www.w3.org/2000/svg">
<mask id="mask0_770_7839" style="mask-type:alpha" maskUnits="userSpaceOnUse" x="0" y="0" width="602" height="263">
<rect x="0.312988" y="0.449219" width="600.989" height="262.25" fill="#D9D9D9"/>
</mask>
<g mask="url(#mask0_770_7839)">
<ellipse cx="221.184" cy="219.174" rx="207.783" ry="209.91" fill="white"/>
<g clip-path="url(#clip0_770_7839)">
<path d="M149.799 237.914C153.072 232.33 150.452 224.938 146.14 220.134C141.819 215.33 136.045 212.093 131.458 207.539C123.257 199.406 119.415 187.043 121.557 175.644C123.689 164.246 131.743 154.146 142.315 149.592C156.942 143.294 176.478 146.392 186.425 133.881C193.1 125.496 192.272 113.365 189.478 102.987C186.683 92.6087 182.215 82.3788 182.684 71.6296C183.723 47.9794 209.593 31.5727 233.008 33.1308C256.424 34.6889 276.925 49.2129 294.549 64.8499C299.642 69.3759 304.827 74.1616 311.29 76.2762C317.753 78.3908 325.908 76.9718 329.475 71.138C331.332 68.096 331.7 64.3305 333.446 61.2235C338.972 51.4017 353.975 53.6554 363.206 60.0456C372.436 66.4358 380.563 75.8773 391.687 77.1572C405.642 78.7617 417.511 66.5564 423.735 53.8502C429.959 41.144 433.232 26.6849 442.306 15.8615C456.638 -1.23155 484.835 -4.01393 502.183 9.9536C514.98 20.2577 520.818 36.7201 528.31 51.411C535.794 66.1019 547.561 80.9876 563.88 82.4067C583.995 84.1596 600.405 64.8128 620.502 62.8002C637.73 61.0751 654.453 73.4196 661.054 89.5666C667.655 105.714 665.329 124.541 658.075 140.391C650.914 156.028 638.852 171.406 641.867 188.36C644.892 205.378 662.185 216.471 667.149 233.026C671.24 246.66 665.991 261.749 657.055 272.795C648.128 283.832 635.938 291.604 623.977 299.182L163.313 315.802C148.944 303.708 139.18 287.097 129.693 270.82C126.76 265.784 123.735 259.774 125.96 254.385C129.766 245.176 144.77 246.493 149.808 237.914H149.799Z" fill="#F4F6F8"/>
<mask id="mask1_770_7839" style="mask-type:luminance" maskUnits="userSpaceOnUse" x="120" y="-2" width="549" height="316">
<path d="M149.799 235.646C153.072 230.062 150.452 222.67 146.14 217.866C141.819 213.062 136.046 209.825 131.458 205.271C123.258 197.138 119.415 184.774 121.557 173.376C123.699 161.978 131.743 151.878 142.315 147.324C156.942 141.026 176.478 144.124 186.426 131.613C193.1 123.228 192.273 111.097 189.478 100.719C186.683 90.3406 182.215 80.1108 182.684 69.3615C183.723 45.7113 209.593 29.3046 233.009 30.8627C256.424 32.4209 276.926 46.9449 294.549 62.5818C299.643 67.1078 304.828 71.8935 311.291 74.0081C317.744 76.1227 325.908 74.7037 329.475 68.87C331.332 65.8279 331.7 62.0624 333.447 58.9554C338.972 49.1337 353.976 51.3874 363.206 57.7776C372.436 64.1678 380.563 73.6093 391.687 74.8892C405.643 76.4937 417.511 64.2883 423.735 51.5821C429.968 38.876 433.232 24.4169 442.306 13.5934C456.639 -3.49962 484.835 -6.282 502.183 7.68553C514.98 17.9896 520.818 34.452 528.31 49.1429C535.794 63.8339 547.561 78.7196 563.88 80.1386C583.995 81.8915 600.405 62.5447 620.502 60.5321C637.731 58.807 654.453 71.1515 661.054 87.2986C667.655 103.446 665.329 122.273 658.076 138.123C650.914 153.76 638.852 169.138 641.868 186.091C644.892 203.11 662.185 214.203 667.149 230.758C671.241 244.392 665.991 259.481 657.055 270.527C648.128 281.564 635.938 289.336 623.977 296.914L163.313 313.534C148.944 301.44 139.181 284.829 129.693 268.552C126.76 263.516 123.736 257.506 125.96 252.117C129.766 242.908 144.77 244.225 149.808 235.646H149.799Z" fill="white"/>
</mask>
<g mask="url(#mask1_770_7839)">
<path d="M426.065 122.284H511.987V243.994H426.065V122.284Z" fill="#F0F1F6"/>
<path d="M426.065 -5.58545H511.987V116.125H426.065V-5.58545Z" fill="#F0F1F6"/>
<path d="M505.561 -30.4877C505.561 -30.4877 504.623 68.2588 442.062 131.224C442.062 131.224 463.225 271.196 466.047 300.633H398.319C398.319 300.633 408.671 170.632 412.431 133.032C412.431 133.032 404.433 7.10217 402.557 -31.8511L505.561 -30.4877Z" fill="#F4F6F8"/>
</g>
<path d="M232.395 78.5073H243.675V126.661H232.395V78.5073Z" fill="white"/>
<path d="M221.429 84.7954H232.709V126.652H221.429V84.7954Z" fill="#E0E2EC"/>
<path d="M243.456 90.2397H251.114V126.652H243.456V90.2397Z" fill="#E0E2EC"/>
<path d="M215.804 89.8872H221.825V126.661H215.804V89.8872Z" fill="white"/>
<path d="M165.558 96.8985C166.064 96.0453 167.139 95.7948 167.967 96.1751C168.417 96.3884 168.794 96.7501 169.089 97.1953C168.096 94.6819 167.682 91.8531 167.93 89.0986C167.994 88.3566 168.132 87.5776 168.601 87.0582C169.41 86.1493 170.854 86.5573 171.589 87.5404C171.856 87.8929 172.049 88.2917 172.196 88.7183C171.994 87.4013 171.902 86.0565 171.957 84.721C171.994 83.8677 172.279 82.7826 173.023 82.7177C173.538 82.6713 173.952 83.1721 174.255 83.6451C175.395 85.4444 176.103 87.6054 176.278 89.822C175.836 85.7876 175.395 81.614 176.397 77.7187C176.59 76.9489 176.857 76.1791 177.344 75.6041C177.822 75.029 178.567 74.6766 179.229 74.9177C180.093 75.2238 180.507 76.3275 180.755 77.3291C181.463 80.1579 181.665 83.135 181.398 86.0565C181.527 85.7875 181.656 85.5186 181.812 85.2589C182.226 84.554 182.833 83.8677 183.577 83.877C184.156 83.877 184.681 84.3222 184.984 84.8786C185.296 85.4351 185.425 86.1029 185.508 86.7614C185.848 89.4139 185.508 92.1685 184.561 94.617C184.947 94.0976 185.499 93.7451 186.087 93.6895C187.062 93.5968 188.045 94.3387 188.376 95.396C188.652 96.2771 188.496 97.2509 188.248 98.1413C186.501 104.355 180.599 108.464 175.037 107.713C172.573 107.379 170.219 106.117 168.362 104.225C166.919 102.751 164.115 99.3006 165.54 96.9078L165.558 96.8985Z" fill="#ECECF3"/>
<path d="M169.098 125.752H185.205L188.919 106.665H165.384L169.098 125.752Z" fill="white"/>
<path d="M168.316 123.99H186.059V126.337H168.316V123.99Z" fill="#7880CA"/>
<path d="M164.795 103.419H189.581V108.687H164.795V103.419Z" fill="white"/>
<path d="M145.958 126.235H276.541V129.472H145.958V126.235Z" fill="white"/>
<path d="M147.723 129.481H274.776V138.876H147.723V129.481Z" fill="white"/>
<path d="M211.343 53.7349H341.926V56.9717H211.343V53.7349Z" fill="#ECECF3"/>
<path d="M213.108 56.9722H340.161V66.3673H213.108V56.9722Z" fill="white"/>
<path d="M251.786 188.253H350.238C352.169 188.253 353.897 189.459 354.577 191.286L381.027 262.524H274.962L248.927 192.408C248.182 190.396 249.653 188.244 251.786 188.244V188.253Z" fill="#E0E2EC"/>
<path d="M271.368 262.534H428.024V269.944H271.368V262.534Z" fill="white"/>
<path d="M409.37 268.933C413.351 268.136 421.055 266.179 425.422 262.524H428.024V269.935H403.652C405.583 269.647 407.495 269.304 409.37 268.933Z" fill="#F4F4F4"/>
<path d="M271.377 262.534H377.442V269.944H271.377V262.534Z" fill="#E0E2EC"/>
<path d="M248.191 188.253H346.644C348.574 188.253 350.303 189.459 350.983 191.286L377.432 262.524H271.368L245.332 192.408C244.587 190.396 246.058 188.244 248.191 188.244V188.253Z" fill="white"/>
<g style="mix-blend-mode:overlay" opacity="0.22">
<path d="M248.192 188.253H331.135C290.804 189.283 269.245 190.516 260.953 191.75C252.66 192.983 247.08 194.829 248.523 201.006L245.333 192.418C244.588 190.405 246.059 188.253 248.192 188.253Z" fill="#57D9CD"/>
</g>
<path d="M325.564 222.857C327.761 230.638 335.005 236.648 341.735 236.286C348.464 235.925 352.142 229.321 349.935 221.549C347.738 213.768 340.494 207.758 333.764 208.12C327.035 208.481 323.357 215.085 325.564 222.857Z" fill="white"/>
<path d="M327.788 222.736C329.59 229.098 335.511 234.004 341.008 233.708C346.515 233.411 349.512 228.013 347.71 221.66C345.909 215.298 339.988 210.391 334.49 210.688C328.983 210.985 325.986 216.383 327.788 222.736Z" fill="#7880CA"/>
<path d="M310.625 228.774L333.406 240.413C334.417 240.933 335.41 240.404 335.64 239.236L337.102 231.64C337.322 230.471 336.688 229.108 335.677 228.598L312.895 216.958C311.884 216.439 310.891 216.967 310.661 218.136L309.2 225.732C308.979 226.9 309.613 228.264 310.625 228.774Z" fill="#E0E2EC"/>
<g style="mix-blend-mode:screen">
<path d="M311.36 228.087L332.762 239.031C333.608 239.467 334.445 239.022 334.628 238.048L335.851 231.695C336.035 230.721 335.511 229.581 334.665 229.145L313.263 218.201C312.417 217.765 311.581 218.21 311.397 219.184L310.174 225.537C309.99 226.511 310.514 227.652 311.36 228.087Z" fill="#393B6B"/>
</g>
<g style="mix-blend-mode:multiply" opacity="0.33">
<path d="M312.409 222.337C312.658 221.873 313.411 221.975 313.531 222.485C313.733 223.302 313.595 224.146 313.77 224.971C313.834 225.259 313.908 225.936 314.128 226.121C314.478 226.39 315.066 226.084 315.443 226C316.96 225.648 317.925 226.167 318.937 227.29C319.332 227.726 319.562 227.865 320.132 227.633C320.435 227.512 320.693 227.355 321.014 227.271C321.731 227.076 322.513 227.095 323.23 227.299C324.407 227.633 325.455 228.477 326.126 229.525C326.319 229.386 326.503 229.247 326.687 229.126C327.919 228.301 329.509 227.735 330.916 228.495C333.508 229.905 334.244 234.7 331.578 236.388C330.906 236.815 330.309 235.767 330.962 235.321C332.295 234.403 332.019 232.122 331.293 230.916C330.29 229.274 328.728 229.645 327.376 230.629C327.156 230.786 326.962 230.972 326.779 231.157C326.944 232.038 326.843 232.984 326.181 233.596C325.206 234.496 323.855 233.531 324.03 232.307C324.122 231.649 324.508 231.055 324.986 230.526C324.949 230.462 324.931 230.406 324.885 230.341C324.094 229.098 322.513 228.208 321.088 228.848C320.003 229.33 319.258 229.71 318.265 228.764C317.787 228.31 317.438 227.633 316.785 227.429C316.123 227.225 315.406 227.614 314.735 227.707C313.549 227.874 312.924 227.28 312.529 226.195C312.115 225.036 311.812 223.478 312.409 222.346V222.337Z" fill="#393B6B"/>
</g>
<path d="M331.834 221.141C333.534 221.484 335.318 220.585 336.375 219.203C337.423 217.811 337.828 216.021 337.864 214.269C337.791 218.34 340.77 222.013 344.006 224.007C342.525 223.46 341.303 223.812 340.19 224.331C339.078 224.851 338.241 225.88 337.726 227.003C337.202 228.125 336.954 229.358 336.715 230.583C336.807 228.709 336.504 226.799 335.695 225.111C334.886 223.423 333.534 221.957 331.852 221.15L331.834 221.141Z" fill="white"/>
<path d="M204.384 187.013L201.088 190.338L188.815 177.956L192.111 174.631L204.384 187.013Z" fill="#393B6B"/>
<g style="mix-blend-mode:multiply" opacity="0.33">
<path d="M202.741 188.678L201.09 190.343L188.816 177.962L190.467 176.296L202.741 188.678Z" fill="#393B6B"/>
</g>
<path d="M200.614 173.154L203.91 176.479L157.15 223.652L153.854 220.327L200.614 173.154Z" fill="#393B6B"/>
<g style="mix-blend-mode:multiply" opacity="0.33">
<path d="M200.611 173.15L202.035 174.586L155.275 221.759L153.851 220.322L200.611 173.15Z" fill="#393B6B"/>
</g>
<path d="M153.223 225.017L156.519 221.692L203.279 268.865L199.983 272.19L153.223 225.017Z" fill="#393B6B"/>
<g style="mix-blend-mode:multiply" opacity="0.33">
<path d="M153.24 225.022L154.566 223.685L201.326 270.857L200 272.195L153.24 225.022Z" fill="#393B6B"/>
</g>
<path d="M150.903 222.134C150.903 224.731 152.99 226.836 155.565 226.836C158.139 226.836 160.226 224.731 160.226 222.134C160.226 219.537 158.139 217.432 155.565 217.432C152.99 217.432 150.903 219.537 150.903 222.134Z" fill="#393B6B"/>
<g style="mix-blend-mode:multiply" opacity="0.33">
<path d="M151.924 219.24C151.915 222.171 153.956 224.397 156.567 225.538C157.063 225.76 157.606 225.936 158.157 226.048C157.422 226.539 156.53 226.836 155.583 226.836C153.009 226.836 150.922 224.731 150.922 222.134C150.922 221.039 151.308 220.038 151.934 219.24H151.924Z" fill="#393B6B"/>
</g>
<path d="M152.936 222.134C152.936 223.609 154.112 224.796 155.574 224.796C157.036 224.796 158.213 223.599 158.213 222.134C158.213 220.669 157.036 219.472 155.574 219.472C154.112 219.472 152.936 220.659 152.936 222.134Z" fill="#7880CA"/>
<path d="M191.225 181.65C191.225 184.247 193.312 186.352 195.886 186.352C198.46 186.352 200.547 184.247 200.547 181.65C200.547 179.053 198.46 176.948 195.886 176.948C193.312 176.948 191.225 179.053 191.225 181.65Z" fill="#393B6B"/>
<g style="mix-blend-mode:multiply" opacity="0.33">
<path d="M192.236 178.757C192.227 181.688 194.268 183.913 196.879 185.054C197.375 185.277 197.918 185.453 198.469 185.564C197.734 186.056 196.842 186.353 195.895 186.353C193.321 186.353 191.234 184.247 191.234 181.651C191.234 180.556 191.62 179.554 192.246 178.757H192.236Z" fill="#393B6B"/>
</g>
<path d="M193.248 181.65C193.248 183.125 194.424 184.312 195.886 184.312C197.348 184.312 198.525 183.125 198.525 181.65C198.525 180.175 197.348 178.988 195.886 178.988C194.424 178.988 193.248 180.185 193.248 181.65Z" fill="#7880CA"/>
<g style="mix-blend-mode:overlay" opacity="0.5">
<path d="M206.082 281.704L202.478 218.794L233.533 196.535L343.413 280.331C344.314 281.017 344.277 282.52 343.238 282.984C321 292.861 221.233 293.186 206.082 281.704Z" fill="white"/>
</g>
<path d="M236.751 196.73L201.651 221.447C201.651 221.447 187.842 193.391 203.655 184.488C219.468 175.584 236.751 196.73 236.751 196.73Z" fill="#7880CA"/>
<path d="M203.657 184.487C204.365 184.089 205.082 183.764 205.799 183.486C202.287 190.303 203.795 200.05 206.139 206.774C207.104 209.529 208.575 212.515 210.469 215.242L201.653 221.447C201.653 221.447 187.844 193.391 203.657 184.487Z" fill="#626CBD"/>
<path d="M529.619 278.013H581.875L591.068 237.585H538.813L529.619 278.013Z" fill="#ECECF3"/>
<g style="mix-blend-mode:multiply" opacity="0.15">
<path d="M538.978 272.856C541.543 263.916 540.642 252.953 537.36 243.966L538.813 237.594H591.068L581.875 278.022H537.121C537.875 276.288 538.5 274.544 538.987 272.856H538.978Z" fill="#73A3EB"/>
</g>
<path d="M538.822 237.585H591.078L600.271 279.079H548.016L538.822 237.585Z" fill="white"/>
<path d="M547.216 267.366C555.499 269.935 564.408 271.261 572.682 267.876C580.055 264.862 585.81 258.221 588.338 250.662C589.497 247.193 590.471 241.935 589.69 237.585H591.078L600.271 279.079H548.016L545.285 266.754C545.938 266.967 546.582 267.171 547.216 267.366Z" fill="#ECECF3"/>
<path d="M584.145 237.585H585.441C585.497 237.455 585.524 237.316 585.57 237.167C585.616 237.01 585.68 236.889 585.8 236.704C585.975 236.425 586.241 236.184 586.563 236.017C586.857 235.869 587.225 235.804 587.602 235.841C587.914 235.86 588.291 235.989 588.586 236.193C588.917 236.435 589.165 236.796 589.339 237.167C589.404 237.306 589.45 237.446 589.477 237.585C589.523 237.789 589.533 237.983 589.496 238.178C589.431 238.54 589.275 238.855 589.045 239.152C588.944 239.291 588.806 239.393 588.687 239.514C588.558 239.644 588.365 239.783 588.337 239.968C588.319 240.07 588.337 240.209 588.42 240.284C588.825 240.608 589.404 240.246 589.744 239.968C590.112 239.662 590.369 239.254 590.544 238.809C590.7 238.41 590.746 237.993 590.7 237.585C590.562 236.166 589.367 234.83 587.979 234.561C587.014 234.376 586.048 234.608 585.276 235.229C584.945 235.498 584.651 235.841 584.449 236.221C584.219 236.629 584.007 237.13 584.145 237.585Z" fill="#7880CA"/>
<path d="M576.027 237.585H577.323C577.378 237.455 577.406 237.316 577.451 237.167C577.497 237.01 577.562 236.889 577.681 236.704C577.856 236.425 578.123 236.184 578.444 236.017C578.739 235.869 579.106 235.804 579.483 235.841C579.796 235.86 580.173 235.989 580.467 236.193C580.798 236.435 581.046 236.796 581.221 237.167C581.285 237.306 581.331 237.446 581.359 237.585C581.405 237.789 581.414 237.983 581.377 238.178C581.313 238.54 581.156 238.855 580.927 239.152C580.825 239.291 580.688 239.393 580.568 239.514C580.439 239.644 580.246 239.783 580.219 239.968C580.2 240.07 580.219 240.209 580.301 240.284C580.706 240.608 581.285 240.246 581.625 239.968C581.993 239.662 582.25 239.254 582.425 238.809C582.581 238.41 582.627 237.993 582.581 237.585C582.444 236.166 581.248 234.83 579.86 234.561C578.895 234.376 577.93 234.608 577.157 235.229C576.826 235.498 576.532 235.841 576.33 236.221C576.1 236.629 575.889 237.13 576.027 237.585Z" fill="#7880CA"/>
<path d="M567.91 237.585H569.206C569.261 237.455 569.289 237.316 569.335 237.167C569.381 237.01 569.445 236.889 569.565 236.704C569.74 236.425 570.006 236.184 570.328 236.017C570.622 235.869 570.99 235.804 571.367 235.841C571.679 235.86 572.056 235.989 572.35 236.193C572.681 236.435 572.93 236.796 573.104 237.167C573.169 237.306 573.215 237.446 573.242 237.585C573.288 237.789 573.297 237.983 573.261 238.178C573.196 238.54 573.04 238.855 572.81 239.152C572.709 239.291 572.571 239.393 572.452 239.514C572.323 239.644 572.13 239.783 572.102 239.968C572.084 240.07 572.102 240.209 572.185 240.284C572.59 240.608 573.169 240.246 573.509 239.968C573.877 239.662 574.134 239.254 574.309 238.809C574.465 238.41 574.511 237.993 574.465 237.585C574.327 236.166 573.132 234.83 571.744 234.561C570.778 234.376 569.813 234.608 569.041 235.229C568.71 235.498 568.416 235.841 568.213 236.221C567.984 236.629 567.772 237.13 567.91 237.585Z" fill="#7880CA"/>
<path d="M559.8 237.585H561.097C561.152 237.455 561.179 237.316 561.225 237.167C561.271 237.01 561.336 236.889 561.455 236.704C561.63 236.425 561.897 236.184 562.218 236.017C562.513 235.869 562.88 235.804 563.257 235.841C563.57 235.86 563.947 235.989 564.241 236.193C564.572 236.435 564.82 236.796 564.995 237.167C565.059 237.306 565.105 237.446 565.133 237.585C565.179 237.789 565.188 237.983 565.151 238.178C565.087 238.54 564.93 238.855 564.701 239.152C564.599 239.291 564.462 239.393 564.342 239.514C564.213 239.644 564.02 239.783 563.993 239.968C563.974 240.07 563.993 240.209 564.075 240.284C564.48 240.608 565.059 240.246 565.399 239.968C565.767 239.662 566.024 239.254 566.199 238.809C566.355 238.41 566.401 237.993 566.355 237.585C566.217 236.166 565.022 234.83 563.634 234.561C562.669 234.376 561.703 234.608 560.931 235.229C560.6 235.498 560.306 235.841 560.104 236.221C559.874 236.629 559.663 237.13 559.8 237.585Z" fill="#7880CA"/>
<path d="M551.684 237.585H552.98C553.035 237.455 553.063 237.316 553.109 237.167C553.155 237.01 553.219 236.889 553.339 236.704C553.513 236.425 553.78 236.184 554.102 236.017C554.396 235.869 554.764 235.804 555.141 235.841C555.453 235.86 555.83 235.989 556.124 236.193C556.455 236.435 556.704 236.796 556.878 237.167C556.943 237.306 556.989 237.446 557.016 237.585C557.062 237.789 557.071 237.983 557.035 238.178C556.97 238.54 556.814 238.855 556.584 239.152C556.483 239.291 556.345 239.393 556.226 239.514C556.097 239.644 555.904 239.783 555.876 239.968C555.858 240.07 555.876 240.209 555.959 240.284C556.363 240.608 556.943 240.246 557.283 239.968C557.651 239.662 557.908 239.254 558.083 238.809C558.239 238.41 558.285 237.993 558.239 237.585C558.101 236.166 556.906 234.83 555.518 234.561C554.552 234.376 553.587 234.608 552.815 235.229C552.484 235.498 552.19 235.841 551.987 236.221C551.758 236.629 551.546 237.13 551.684 237.585Z" fill="#7880CA"/>
<path d="M543.565 237.585H544.862C544.917 237.455 544.944 237.316 544.99 237.167C545.036 237.01 545.101 236.889 545.22 236.704C545.395 236.425 545.661 236.184 545.983 236.017C546.277 235.869 546.645 235.804 547.022 235.841C547.335 235.86 547.712 235.989 548.006 236.193C548.337 236.435 548.585 236.796 548.76 237.167C548.824 237.306 548.87 237.446 548.898 237.585C548.943 237.789 548.953 237.983 548.916 238.178C548.852 238.54 548.695 238.855 548.465 239.152C548.364 239.291 548.226 239.393 548.107 239.514C547.978 239.644 547.785 239.783 547.758 239.968C547.739 240.07 547.758 240.209 547.84 240.284C548.245 240.608 548.824 240.246 549.164 239.968C549.532 239.662 549.789 239.254 549.964 238.809C550.12 238.41 550.166 237.993 550.12 237.585C549.982 236.166 548.787 234.83 547.399 234.561C546.434 234.376 545.468 234.608 544.696 235.229C544.365 235.498 544.071 235.841 543.869 236.221C543.639 236.629 543.427 237.13 543.565 237.585Z" fill="#7880CA"/>
<path d="M523.028 229.813H512.915C508.484 229.813 504.889 233.44 504.889 237.91V281.241C504.889 282.734 506.084 283.94 507.564 283.94H528.387C529.868 283.94 531.063 282.734 531.063 281.241V237.91C531.063 233.44 527.468 229.813 523.037 229.813H523.028Z" fill="#7077B4"/>
<path d="M510.792 222.328H511.72V219.509C511.72 218.804 512.29 218.229 512.989 218.229H522.954C523.653 218.229 524.223 218.804 524.223 219.509V222.328H525.152C525.85 222.328 526.42 222.903 526.42 223.608V229.015C526.42 229.72 525.85 230.295 525.152 230.295H510.782C510.084 230.295 509.514 229.72 509.514 229.015V223.608C509.514 222.903 510.084 222.328 510.782 222.328H510.792Z" fill="#393B6B"/>
<g style="mix-blend-mode:multiply" opacity="0.33">
<path d="M510.794 222.328H511.722V219.509C511.722 218.804 512.292 218.229 512.991 218.229H515.197C515.16 221.271 516.006 224.415 517.394 226.326C518.369 227.671 519.72 229.192 521.283 230.295H510.794C510.095 230.295 509.525 229.72 509.525 229.015V223.608C509.525 222.903 510.095 222.328 510.794 222.328Z" fill="#393B6B"/>
</g>
<path d="M527.462 235.026C528.225 236.259 528.105 238.504 527.526 238.568C527.167 238.606 527.112 237.493 526.809 236.454C526.616 235.795 526.505 235.276 526.266 234.664C526.027 234.052 526.855 234.052 527.462 235.026Z" fill="#7880CA"/>
<path d="M528.435 243.855C528.352 243.15 528.251 242.445 528.14 241.759C528.076 241.369 527.993 240.98 527.791 240.646C527.727 240.535 527.635 240.423 527.506 240.414C527.01 240.358 527.138 242.612 527.138 242.918C527.12 244.773 527.12 246.628 527.111 248.483C527.111 250.338 527.111 252.165 527.497 253.983C527.552 254.252 527.975 254.252 528.039 253.983C528.802 250.755 528.821 247.222 528.435 243.864V243.855Z" fill="#7880CA"/>
<path d="M323.256 84.8234C319.983 84.0258 316.793 82.1338 314.347 79.843C308.758 74.6028 308.877 67.0533 310.036 59.7635C310.569 56.4061 313.796 58.261 313.216 60.422C312.288 63.9278 311.893 67.6005 312.904 71.1342C313.639 73.7125 315.074 75.8178 316.958 77.5429C318.42 78.8784 319.827 79.7595 321.803 80.6406C322.134 80.789 322.474 80.9281 322.814 81.058C323.274 81.2342 322.456 80.9281 322.888 81.0858C323.007 81.1322 323.127 81.1693 323.246 81.2064C323.485 81.2806 323.734 81.364 323.973 81.4197C326.133 81.939 325.407 85.3428 323.246 84.8142L323.256 84.8234Z" fill="white"/>
<path d="M306.954 93.1612L316.727 75.9198C319.034 71.8575 324.21 70.4292 328.237 72.7572L345.328 82.616C349.354 84.944 353.648 90.5365 354.87 95.0533L367.162 140.573C368.385 145.09 365.719 149.792 361.241 151.025L327.639 160.254C323.162 161.487 318.501 158.798 317.279 154.281L304.987 108.761C303.764 104.244 304.656 97.2235 306.954 93.1612ZM323.512 97.9098C327.005 99.9224 331.464 98.7075 333.459 95.1738C335.454 91.6495 334.25 87.1513 330.747 85.1387C327.253 83.1262 322.795 84.3411 320.8 87.8747C318.805 91.3991 320.009 95.8973 323.512 97.9098Z" fill="#7880CA"/>
<path d="M319.81 132.892C317.238 123.374 322.801 113.555 332.236 110.96C341.671 108.365 351.404 113.977 353.976 123.495L354.91 126.949C357.482 136.467 351.919 146.286 342.484 148.881C333.049 151.476 323.316 145.864 320.744 136.346L319.81 132.892Z" fill="white"/>
<g style="mix-blend-mode:multiply" opacity="0.33">
<path d="M328.283 127.691L342.487 123.267C343.278 123.017 343.646 122.061 343.306 121.134C342.965 120.206 342.046 119.65 341.255 119.9L327.052 124.324C326.261 124.575 325.893 125.53 326.233 126.457C326.573 127.385 327.493 127.941 328.283 127.691Z" fill="#E0E2EC"/>
</g>
<g style="mix-blend-mode:multiply" opacity="0.33">
<path d="M328.393 134.832L347.139 128.841C348.178 128.507 348.748 127.477 348.407 126.559C348.067 125.632 346.927 125.149 345.888 125.483L327.143 131.475C326.104 131.809 325.534 132.838 325.874 133.756C326.215 134.684 327.354 135.166 328.393 134.832Z" fill="#E0E2EC"/>
</g>
<g style="mix-blend-mode:multiply" opacity="0.33">
<path d="M334.249 139.924L346.679 136.121C347.368 135.908 347.662 134.98 347.322 134.053C346.991 133.125 346.146 132.541 345.456 132.754L333.027 136.557C332.337 136.77 332.043 137.698 332.383 138.625C332.714 139.553 333.56 140.137 334.249 139.924Z" fill="#E0E2EC"/>
</g>
<path d="M323.981 83.3112C324.11 82.9958 323.807 83.8213 323.898 83.5338C323.963 83.3575 324.018 83.1721 324.073 82.9958C324.266 82.3652 324.413 81.7159 324.542 81.0574C324.625 80.6215 324.689 80.1764 324.753 79.7312C324.781 79.5086 324.809 79.286 324.827 79.0634C324.79 79.4715 324.855 78.6461 324.855 78.5162C324.91 77.292 324.845 76.0584 324.661 74.8435C324.321 72.5156 323.163 69.7703 321.481 67.7113C318.805 64.4467 315.054 62.3784 311.175 60.913C310.292 60.5792 310.053 59.3271 310.448 58.5666C310.927 57.6484 311.892 57.5 312.774 57.8339C320.239 60.6626 326.684 66.0883 328.054 74.3426C328.633 77.8113 328.33 81.6325 327.043 84.925C326.693 85.806 325.48 86.0657 324.717 85.6576C323.816 85.1846 323.641 84.1923 323.99 83.3112H323.981Z" fill="white"/>
<path d="M275.533 153.706C275.9 153.001 277.04 153.159 277.234 153.928C277.537 155.162 277.335 156.432 277.601 157.685C277.693 158.12 277.803 159.15 278.144 159.419C278.668 159.827 279.569 159.363 280.139 159.233C282.437 158.705 283.899 159.484 285.425 161.19C286.022 161.858 286.363 162.053 287.227 161.71C287.686 161.524 288.082 161.292 288.56 161.153C289.654 160.856 290.831 160.884 291.915 161.19C293.69 161.7 295.289 162.98 296.291 164.557C296.586 164.344 296.871 164.14 297.137 163.954C299.004 162.702 301.412 161.849 303.536 162.999C307.471 165.132 308.574 172.385 304.538 174.945C303.517 175.594 302.626 173.999 303.6 173.331C305.614 171.94 305.209 168.489 304.097 166.662C302.589 164.177 300.217 164.742 298.176 166.226C297.836 166.468 297.551 166.746 297.275 167.024C297.523 168.36 297.367 169.788 296.365 170.715C294.894 172.079 292.844 170.623 293.101 168.768C293.248 167.775 293.818 166.866 294.554 166.078C294.499 165.985 294.462 165.893 294.407 165.8C293.212 163.926 290.821 162.572 288.652 163.537C287.006 164.269 285.885 164.844 284.386 163.407C283.669 162.721 283.136 161.691 282.143 161.376C281.15 161.06 280.047 161.663 279.045 161.802C277.243 162.053 276.296 161.153 275.707 159.521C275.073 157.759 274.613 155.412 275.524 153.687L275.533 153.706Z" fill="white"/>
<path d="M273.002 73.4709V47.4511C273.002 47.0511 273.653 46.7285 274.456 46.7285H300.993C301.797 46.7285 302.448 47.0511 302.448 47.4511V73.4709C302.448 74.2751 301.134 74.9289 299.509 74.9289H275.945C274.325 74.9289 273.006 74.2751 273.006 73.4709H273.002Z" fill="white"/>
<path d="M277.413 58.1898H297.023C297.38 58.1898 297.669 57.8973 297.669 57.536C297.669 57.1748 297.38 56.8823 297.023 56.8823H277.413C277.056 56.8823 276.766 57.1748 276.766 57.536C276.766 57.8973 277.056 58.1898 277.413 58.1898Z" fill="#ECECF3"/>
<path d="M277.413 62.3353H297.023C297.38 62.3353 297.669 62.0428 297.669 61.6816C297.669 61.3203 297.38 61.0278 297.023 61.0278H277.413C277.056 61.0278 276.766 61.3203 276.766 61.6816C276.766 62.0428 277.056 62.3353 277.413 62.3353Z" fill="#ECECF3"/>
<path d="M277.413 66.4862H297.023C297.38 66.4862 297.669 66.1937 297.669 65.8324C297.669 65.4712 297.38 65.1787 297.023 65.1787H277.413C277.056 65.1787 276.766 65.4712 276.766 65.8324C276.766 66.1937 277.056 66.4862 277.413 66.4862Z" fill="#ECECF3"/>
<path d="M277.413 70.6361H297.023C297.38 70.6361 297.669 70.3436 297.669 69.9823C297.669 69.6211 297.38 69.3286 297.023 69.3286H277.413C277.056 69.3286 276.766 69.6211 276.766 69.9823C276.766 70.3436 277.056 70.6361 277.413 70.6361Z" fill="#ECECF3"/>
<path d="M273.002 48.1994V52.2722H302.443V48.1994C302.443 47.3865 301.793 46.7285 300.989 46.7285H274.452C273.648 46.7285 272.998 47.3865 272.998 48.1994H273.002Z" fill="#7880CA"/>
<path d="M280.134 49.2353C280.134 49.7686 280.563 50.2029 281.091 50.2029C281.618 50.2029 282.047 49.7686 282.047 49.2353C282.047 48.702 281.618 48.2676 281.091 48.2676C280.563 48.2676 280.134 48.702 280.134 49.2353Z" fill="#7F7F98"/>
<path d="M277.03 49.2353C277.03 49.7686 277.459 50.2029 277.986 50.2029C278.514 50.2029 278.943 49.7686 278.943 49.2353C278.943 48.702 278.514 48.2676 277.986 48.2676C277.459 48.2676 277.03 48.702 277.03 49.2353Z" fill="#7F7F98"/>
<path d="M274.059 49.2353C274.059 49.7686 274.488 50.2029 275.015 50.2029C275.542 50.2029 275.972 49.7686 275.972 49.2353C275.972 48.702 275.542 48.2676 275.015 48.2676C274.488 48.2676 274.059 48.702 274.059 49.2353Z" fill="#7F7F98"/>
<path d="M213.012 53.526V26.5423C213.012 26.1275 213.687 25.793 214.52 25.793H242.04C242.873 25.793 243.548 26.1275 243.548 26.5423V53.526C243.548 54.3601 242.186 55.038 240.501 55.038H216.063C214.383 55.038 213.016 54.3601 213.016 53.526H213.012Z" fill="white"/>
<path d="M217.585 37.6791H237.922C238.293 37.6791 238.593 37.3758 238.593 37.0012C238.593 36.6265 238.293 36.3232 237.922 36.3232H217.585C217.215 36.3232 216.915 36.6265 216.915 37.0012C216.915 37.3758 217.215 37.6791 217.585 37.6791Z" fill="#ECECF3"/>
<path d="M217.585 41.9784H237.922C238.293 41.9784 238.593 41.6751 238.593 41.3005C238.593 40.9258 238.293 40.6226 237.922 40.6226H217.585C217.215 40.6226 216.915 40.9258 216.915 41.3005C216.915 41.6751 217.215 41.9784 217.585 41.9784Z" fill="#ECECF3"/>
<path d="M217.585 46.2826H237.922C238.293 46.2826 238.593 45.9793 238.593 45.6047C238.593 45.23 238.293 44.9268 237.922 44.9268H217.585C217.215 44.9268 216.915 45.23 216.915 45.6047C216.915 45.9793 217.215 46.2826 217.585 46.2826Z" fill="#ECECF3"/>
<path d="M217.585 50.5868H237.922C238.293 50.5868 238.593 50.2835 238.593 49.9089C238.593 49.5342 238.293 49.231 237.922 49.231H217.585C217.215 49.231 216.915 49.5342 216.915 49.9089C216.915 50.2835 217.215 50.5868 217.585 50.5868Z" fill="#ECECF3"/>
<path d="M213.012 27.3183V31.5421H243.544V27.3183C243.544 26.4754 242.869 25.793 242.036 25.793H214.516C213.682 25.793 213.008 26.4754 213.008 27.3183H213.012Z" fill="#7880CA"/>
<path d="M220.407 28.3932C220.407 28.9462 220.853 29.3967 221.399 29.3967C221.946 29.3967 222.392 28.9462 222.392 28.3932C222.392 27.8401 221.946 27.3896 221.399 27.3896C220.853 27.3896 220.407 27.8401 220.407 28.3932Z" fill="#7F7F98"/>
<path d="M217.189 28.3932C217.189 28.9462 217.634 29.3967 218.181 29.3967C218.728 29.3967 219.173 28.9462 219.173 28.3932C219.173 27.8401 218.728 27.3896 218.181 27.3896C217.634 27.3896 217.189 27.8401 217.189 28.3932Z" fill="#7F7F98"/>
<path d="M214.107 28.3932C214.107 28.9462 214.553 29.3967 215.099 29.3967C215.646 29.3967 216.092 28.9462 216.092 28.3932C216.092 27.8401 215.646 27.3896 215.099 27.3896C214.553 27.3896 214.107 27.8401 214.107 28.3932Z" fill="#7F7F98"/>
<path d="M385.414 212.791V187.374C385.414 186.983 386.05 186.668 386.835 186.668H412.757C413.542 186.668 414.178 186.983 414.178 187.374V212.791C414.178 213.577 412.894 214.215 411.308 214.215H388.289C386.706 214.215 385.418 213.577 385.418 212.791H385.414Z" fill="white"/>
<path d="M389.721 197.865H408.878C409.227 197.865 409.509 197.579 409.509 197.226C409.509 196.873 409.227 196.587 408.878 196.587H389.721C389.373 196.587 389.09 196.873 389.09 197.226C389.09 197.579 389.373 197.865 389.721 197.865Z" fill="#ECECF3"/>
<path d="M389.721 201.914H408.878C409.227 201.914 409.509 201.628 409.509 201.275C409.509 200.922 409.227 200.637 408.878 200.637H389.721C389.373 200.637 389.09 200.922 389.09 201.275C389.09 201.628 389.373 201.914 389.721 201.914Z" fill="#ECECF3"/>
<path d="M389.721 205.969H408.878C409.227 205.969 409.509 205.683 409.509 205.33C409.509 204.978 409.227 204.692 408.878 204.692H389.721C389.373 204.692 389.09 204.978 389.09 205.33C389.09 205.683 389.373 205.969 389.721 205.969Z" fill="#ECECF3"/>
<path d="M389.721 210.022H408.878C409.227 210.022 409.509 209.737 409.509 209.384C409.509 209.031 409.227 208.745 408.878 208.745H389.721C389.373 208.745 389.09 209.031 389.09 209.384C389.09 209.737 389.373 210.022 389.721 210.022Z" fill="#ECECF3"/>
<path d="M385.414 188.105V192.083H414.173V188.105C414.173 187.311 413.538 186.668 412.753 186.668H386.83C386.045 186.668 385.41 187.311 385.41 188.105H385.414Z" fill="#7880CA"/>
<path d="M392.379 189.117C392.379 189.638 392.799 190.062 393.314 190.062C393.829 190.062 394.249 189.638 394.249 189.117C394.249 188.596 393.829 188.172 393.314 188.172C392.799 188.172 392.379 188.596 392.379 189.117Z" fill="#7F7F98"/>
<path d="M389.346 189.118C389.346 189.639 389.765 190.063 390.281 190.063C390.796 190.063 391.215 189.639 391.215 189.118C391.215 188.597 390.796 188.172 390.281 188.172C389.765 188.172 389.346 188.597 389.346 189.118Z" fill="#7F7F98"/>
<path d="M386.444 189.118C386.444 189.639 386.864 190.063 387.379 190.063C387.894 190.063 388.313 189.639 388.313 189.118C388.313 188.597 387.894 188.172 387.379 188.172C386.864 188.172 386.444 188.597 386.444 189.118Z" fill="#7F7F98"/>
<path d="M373.349 73.7256V44.2416C373.349 43.7884 374.086 43.4229 374.997 43.4229H405.067C405.977 43.4229 406.714 43.7884 406.714 44.2416V73.7256C406.714 74.6369 405.226 75.3777 403.385 75.3777H376.683C374.847 75.3777 373.354 74.6369 373.354 73.7256H373.349Z" fill="white"/>
<path d="M378.343 56.4107H400.564C400.969 56.4107 401.296 56.0793 401.296 55.67C401.296 55.2606 400.969 54.9292 400.564 54.9292H378.343C377.938 54.9292 377.61 55.2606 377.61 55.67C377.61 56.0793 377.938 56.4107 378.343 56.4107Z" fill="#ECECF3"/>
<path d="M378.343 61.109H400.564C400.969 61.109 401.296 60.7776 401.296 60.3682C401.296 59.9588 400.969 59.6274 400.564 59.6274H378.343C377.938 59.6274 377.61 59.9588 377.61 60.3682C377.61 60.7776 377.938 61.109 378.343 61.109Z" fill="#ECECF3"/>
<path d="M378.343 65.8116H400.564C400.969 65.8116 401.296 65.4802 401.296 65.0708C401.296 64.6615 400.969 64.3301 400.564 64.3301H378.343C377.938 64.3301 377.61 64.6615 377.61 65.0708C377.61 65.4802 377.938 65.8116 378.343 65.8116Z" fill="#ECECF3"/>
<path d="M378.343 70.5147H400.564C400.969 70.5147 401.296 70.1833 401.296 69.774C401.296 69.3646 400.969 69.0332 400.564 69.0332H378.343C377.938 69.0332 377.61 69.3646 377.61 69.774C377.61 70.1833 377.938 70.5147 378.343 70.5147Z" fill="#ECECF3"/>
<path d="M373.349 45.0896V49.7047H406.71V45.0896C406.71 44.1685 405.973 43.4229 405.062 43.4229H374.992C374.081 43.4229 373.344 44.1685 373.344 45.0896H373.349Z" fill="#7880CA"/>
<path d="M381.429 46.264C381.429 46.8683 381.915 47.3605 382.513 47.3605C383.11 47.3605 383.597 46.8683 383.597 46.264C383.597 45.6597 383.11 45.1675 382.513 45.1675C381.915 45.1675 381.429 45.6597 381.429 46.264Z" fill="#7F7F98"/>
<path d="M377.912 46.264C377.912 46.8683 378.398 47.3605 378.996 47.3605C379.593 47.3605 380.08 46.8683 380.08 46.264C380.08 45.6597 379.593 45.1675 378.996 45.1675C378.398 45.1675 377.912 45.6597 377.912 46.264Z" fill="#7F7F98"/>
<path d="M374.544 46.264C374.544 46.8683 375.03 47.3605 375.628 47.3605C376.225 47.3605 376.712 46.8683 376.712 46.264C376.712 45.6597 376.225 45.1675 375.628 45.1675C375.03 45.1675 374.544 45.6597 374.544 46.264Z" fill="#7F7F98"/>
</g>
<path d="M473.372 87.0375L472.35 88.3926L471.269 89.8006L469.086 92.6262C467.615 94.5051 466.122 96.3744 464.607 98.2197C463.104 100.075 461.584 101.91 460.038 103.712C458.497 105.519 456.945 107.307 455.367 109.046C453.788 110.786 452.194 112.487 450.589 114.121C448.983 115.75 447.351 117.312 445.736 118.729C444.136 120.142 442.504 121.435 441.145 122.309C440.487 122.747 439.887 123.059 439.668 123.174C439.614 123.208 439.598 123.217 439.604 123.227C439.625 123.227 439.679 123.227 439.796 123.222L439.898 123.213C439.898 123.213 439.925 123.213 439.962 123.213L440.123 123.198C440.342 123.189 440.556 123.179 440.77 123.189C441.193 123.198 441.578 123.251 441.905 123.328C442.226 123.4 442.482 123.482 442.68 123.568C442.868 123.64 442.996 123.717 443.071 123.77C443.221 123.876 443.178 123.895 443.06 123.847C442.803 123.732 442.263 123.323 441.696 122.775C441.123 122.228 440.503 121.536 439.893 120.781C439.277 120.022 438.657 119.195 438.047 118.33C436.827 116.596 435.65 114.702 434.515 112.746C433.392 110.786 432.289 108.763 431.235 106.701C429.127 102.573 427.142 98.311 425.253 93.9909C424.301 91.8333 423.375 89.6564 422.476 87.4748L421.149 84.1927L420.496 82.554L419.87 80.9538L419.806 80.7953C418.442 77.3113 414.193 75.4805 410.314 76.7058C406.767 77.8255 404.755 81.1172 405.482 84.3368L405.9 86.1821L406.323 87.9793C406.611 89.1759 406.916 90.3628 407.221 91.5546C407.837 93.9333 408.484 96.3023 409.164 98.6714C410.55 103.405 412.069 108.128 413.851 112.862C414.739 115.226 415.686 117.6 416.746 119.974C417.805 122.353 418.955 124.741 420.298 127.168C420.973 128.383 421.7 129.609 422.524 130.848C423.348 132.093 424.253 133.352 425.35 134.654C426.452 135.957 427.715 137.307 429.507 138.705C430.417 139.402 431.46 140.118 432.776 140.791C433.434 141.127 434.167 141.454 434.97 141.742C435.789 142.035 436.677 142.29 437.651 142.482C438.63 142.67 439.679 142.785 440.759 142.8C441.305 142.8 441.851 142.79 442.397 142.742L442.809 142.703L443.119 142.67C443.317 142.646 443.52 142.622 443.708 142.593C444.478 142.478 445.168 142.333 445.832 142.17C446.474 142.007 447.089 141.829 447.651 141.646C449.904 140.897 451.632 140.051 453.205 139.205C454.768 138.355 456.143 137.49 457.443 136.615C458.738 135.74 459.947 134.861 461.108 133.972C463.42 132.189 465.538 130.387 467.577 128.561C469.616 126.74 471.558 124.895 473.441 123.025C477.214 119.301 480.756 115.5 484.186 111.641C485.887 109.705 487.567 107.758 489.215 105.788C490.039 104.803 490.863 103.818 491.676 102.818L492.891 101.31L494.132 99.7334C498.14 94.6493 496.797 87.6093 491.136 84.0149C485.475 80.4156 477.636 81.6218 473.634 86.7059C473.597 86.754 473.559 86.7972 473.527 86.8453L473.383 87.0327L473.372 87.0375Z" fill="#7880CA"/>
<path d="M400.384 75.346C400.384 75.346 402.011 85.3365 407.383 87.5566C411.904 89.4259 420.401 83.2701 420.401 83.2701C423.81 80.161 424.468 78.2292 425.677 74.4666C426.886 70.704 420.589 66.3358 420.589 66.3358C420.589 66.3358 416.292 51.1892 413.718 49.9109C411.145 48.6327 413.376 63.2171 413.376 63.2171C413.376 63.2171 412.493 62.2945 410.802 62.5588C408.496 62.924 402.974 65.5189 400.534 67.7967C398.351 69.839 400.384 75.3412 400.384 75.3412V75.346Z" fill="#7880CA"/>
<path d="M527.202 161.968C527.202 161.968 551.457 171.545 556.032 200.358C560.607 229.176 571.126 239.95 563.994 253.444C556.861 266.937 507.18 251.195 465.664 251.733C424.148 252.266 433.378 223.996 441.212 212.453C449.05 200.911 457.269 167.494 470.025 166.567C482.781 165.634 527.197 161.968 527.197 161.968H527.202Z" fill="#EFBF56"/>
<path d="M487.245 216.658C488.277 216.893 489.321 217.114 490.364 217.331C503.72 220.07 517.738 221.18 527.546 219.075C532.388 218.037 535.487 212.713 537.456 206.768C537.996 205.144 538.708 203.505 538.831 201.833C540.029 185.312 535.497 178.301 535.497 178.301L463.279 171.064C463.279 171.064 460.877 175.033 458.212 180.209C456.28 183.957 454.215 188.335 452.819 192.294C452.819 192.294 452.819 192.304 452.813 192.304C451.979 194.673 451.385 196.893 451.208 198.734C450.635 204.62 467.806 212.27 487.239 216.658H487.245Z" fill="#7880CA"/>
<path d="M490.458 223.313C491.903 245.231 499.421 284.981 504.3 303.823C504.423 304.29 504.541 304.741 504.659 305.183C504.868 305.957 505.066 306.683 505.258 307.365C509.507 322.363 531.503 373.391 543.162 400.062C543.328 400.441 543.494 400.821 543.655 401.181C544.291 402.637 545.212 405.285 545.779 406.568C548.122 406.261 550.6 405.9 552.943 405.597C559.016 404.829 564.565 404.204 570.67 403.661C570.488 402.618 570.296 399.663 570.092 398.481C570.028 398.106 569.959 397.721 569.889 397.327C567.658 384.559 564.228 365.006 561.066 347.5C555.817 318.446 547.962 302.742 547.962 302.742C547.962 302.742 544.12 296.673 542.205 279.465C540.621 265.207 536.099 219.729 534.986 204.486C534.756 201.41 534.623 199.608 534.623 199.608C534.623 199.608 497.901 197.028 491.298 208.45C490.79 209.339 490.453 210.315 490.34 211.377C490.046 214.029 490.116 218.176 490.453 223.309L490.458 223.313Z" fill="#7880CA"/>
<path d="M530.293 230.143C530.62 230.143 530.914 229.941 530.989 229.643C531.08 229.297 530.839 228.951 530.454 228.874C530.39 228.86 526.323 227.975 522.166 224.909C516.596 220.796 513.508 214.914 513 207.427C512.973 207.072 512.636 206.803 512.24 206.827C511.844 206.851 511.545 207.153 511.571 207.509C512.246 217.327 517.238 222.954 521.315 225.943C525.735 229.186 529.956 230.09 530.133 230.128C530.186 230.138 530.24 230.147 530.293 230.147V230.143Z" fill="#2B2B39"/>
<path d="M440.227 409.485C440.259 409.894 440.286 410.298 440.318 410.677C440.639 414.978 440.832 417.462 440.832 417.462L442.769 417.275L462.053 415.391L464.535 415.151C464.535 415.151 464.658 412.873 464.899 409.019C464.921 408.635 464.947 408.231 464.974 407.813C465.862 394.002 468.11 363.57 471.812 341.724C476.74 312.627 472.08 295.847 472.08 295.847C472.08 295.847 471.529 287.673 477.463 271.296C478.923 267.259 480.652 260.364 482.417 252.267C482.979 249.696 483.541 247 484.108 244.242C485.927 235.313 487.72 225.664 489.25 217.101C489.48 215.813 489.705 214.554 489.924 213.319C490.004 212.853 490.09 212.386 490.165 211.93C492.22 200.195 493.616 191.55 493.616 191.55C493.616 191.55 489.721 189.95 484.333 188.335C478.757 186.663 471.582 184.976 465.488 185.039C459.789 185.096 455.032 186.682 453.422 191.243C452.732 193.198 452.009 195.563 451.266 198.254C450.228 202.007 449.152 206.389 448.066 211.171C446.744 216.99 445.412 223.396 444.122 229.96C443.079 235.289 442.062 240.729 441.099 246.048C437.835 264.15 435.267 280.864 434.582 287.226C434.416 288.725 434.315 290.667 434.25 292.978C434.24 293.449 434.229 293.93 434.224 294.429C433.785 320.48 438.51 386.564 440.222 409.485H440.227Z" fill="#7880CA"/>
<path d="M529.849 203.654C530.251 203.62 530.609 203.88 530.647 204.24C530.721 204.908 538.03 271.252 541.123 297.201C541.68 298.701 550.963 323.732 553.681 337.149C556.121 349.196 563.762 382.195 567.384 397.759C566.919 397.894 566.448 398.004 565.977 398.115C562.36 382.579 554.692 349.465 552.247 337.384C549.476 323.713 539.812 297.807 539.716 297.547C539.7 297.499 539.689 297.456 539.684 297.408C536.596 271.502 529.277 205.033 529.202 204.361C529.159 204 529.453 203.678 529.855 203.645L529.849 203.654Z" fill="#7880CA"/>
<path d="M490.229 213.38C490.492 213.38 490.748 213.25 490.877 213.029C491.064 212.707 490.925 212.313 490.567 212.145C490.454 212.092 482.722 208.33 481.176 200.141C481.107 199.786 480.732 199.541 480.331 199.603C479.935 199.665 479.667 200.002 479.731 200.362C481.406 209.228 489.539 213.149 489.887 213.313C489.994 213.366 490.112 213.39 490.224 213.39L490.229 213.38Z" fill="#7880CA"/>
<path d="M460.349 409C460.702 408.971 460.991 408.716 461.017 408.389C461.066 407.712 465.86 340.393 467.47 325.039C469.022 310.253 466.652 289.004 466.432 287.062C471.922 271.94 487.059 211.78 487.209 211.175C487.3 210.819 487.048 210.469 486.658 210.392C486.262 210.31 485.871 210.536 485.786 210.887C485.63 211.497 470.424 271.949 464.993 286.788C464.961 286.875 464.95 286.971 464.961 287.062C464.988 287.288 467.62 309.624 466.015 324.914C464.399 340.287 459.605 407.625 459.557 408.303C459.53 408.663 459.835 408.976 460.242 409C460.279 409 460.316 409 460.349 409Z" fill="#2B2B39"/>
<path d="M463.246 175.221C469.49 176.725 476.622 177.907 484.755 178.733C485.264 178.786 485.777 178.839 486.296 178.887C499.989 180.185 516.463 180.487 536.277 179.603C536.138 175.158 536.282 170.612 536.566 166.307C536.587 165.985 536.609 165.667 536.63 165.35C537.465 153.712 539.289 144.12 539.343 143.827C539.45 143.188 539.573 142.515 539.717 141.818C539.776 141.52 539.84 141.217 539.905 140.91C540.338 138.916 540.9 136.71 541.569 134.365C541.922 133.111 542.312 131.813 542.73 130.492C543.142 129.189 543.581 127.854 544.051 126.498C544.11 126.33 544.169 126.162 544.228 125.994C544.33 125.706 544.431 125.412 544.533 125.119C544.827 124.293 545.127 123.461 545.437 122.625C545.742 121.789 546.063 120.953 546.39 120.117C546.577 119.622 546.775 119.132 546.968 118.637C547.005 118.555 547.042 118.464 547.075 118.377C547.224 117.998 547.374 117.623 547.529 117.248C547.535 117.234 547.54 117.219 547.545 117.205C547.883 116.383 548.225 115.566 548.573 114.759C548.701 114.456 548.83 114.153 548.963 113.855C549.675 112.202 550.419 110.578 551.184 108.978C556.786 97.2623 557.685 84.057 544.223 80.0253C543.243 79.7273 542.275 79.4486 541.339 79.1843C539.605 78.6894 537.946 78.2473 536.427 77.8484C536.041 77.7475 535.672 77.6514 535.308 77.5601C532.542 76.8537 530.322 76.3443 529.027 76.0512C528.679 75.9743 528.395 75.9118 528.192 75.8638C528.106 75.8445 528.037 75.8301 527.978 75.8157C527.85 75.7869 527.785 75.7725 527.785 75.7725L499.518 77.8772L496.826 78.0791C496.323 78.1319 495.831 78.18 495.35 78.2328C495.002 78.2665 494.659 78.3097 494.322 78.3482C491.486 78.6749 489.073 79.0305 487.008 79.439C484.68 79.9003 482.802 80.4193 481.267 81.0296C480.453 81.3516 479.736 81.7023 479.105 82.082C478.827 82.2502 478.565 82.4232 478.313 82.601C475.557 84.5856 474.648 87.3247 473.818 91.2844C473.749 91.6063 473.679 91.9379 473.615 92.2791C473.364 93.5429 473.107 94.9269 472.791 96.4406C472.759 96.5847 472.732 96.7289 472.7 96.8731C472.689 96.9211 472.679 96.9692 472.668 97.0172C472.582 97.4257 472.486 97.8341 472.39 98.2378C472.32 98.5309 472.251 98.8241 472.176 99.1124C471.994 99.8236 471.796 100.525 471.587 101.232C471.175 102.64 470.72 104.024 470.239 105.388C470.191 105.532 470.137 105.677 470.089 105.821C470.036 105.97 469.987 106.109 469.934 106.253C468.971 108.93 467.943 111.491 467.007 113.903C466.9 114.173 466.798 114.437 466.697 114.701C466.691 114.716 466.686 114.73 466.681 114.744C466.194 116.013 465.739 117.238 465.343 118.401C465.322 118.473 465.295 118.545 465.268 118.618C465.193 118.834 465.129 119.045 465.059 119.257C464.68 120.439 464.369 121.558 464.155 122.611C463.866 124.033 463.748 125.336 463.877 126.484C463.925 126.912 464.005 127.32 464.128 127.709C464.423 128.656 464.813 129.584 465.263 130.477C465.284 130.521 465.311 130.569 465.332 130.612C465.52 130.972 465.718 131.328 465.921 131.679C466.472 132.625 467.087 133.524 467.697 134.351C469.265 136.455 470.87 138.089 471.694 138.882C472.058 139.233 472.272 139.42 472.272 139.42C472.272 139.444 472.272 139.473 472.267 139.502C472.245 139.713 472.213 139.93 472.181 140.16C472.058 141.044 471.887 142.092 471.673 143.279C471.651 143.385 471.518 144.106 471.272 145.321C471.213 145.605 471.148 145.912 471.079 146.254C470.811 147.551 470.448 149.223 469.993 151.189C469.918 151.511 469.838 151.842 469.757 152.183C468.345 158.219 466.162 166.638 463.229 175.211L463.246 175.221Z" fill="white"/>
<path d="M467.442 161.429C467.442 161.429 458.897 167.292 463.247 176.633C463.247 176.633 509.611 190.862 536.76 181.237C536.76 181.237 539.441 172.919 536.284 166.114C536.284 166.114 494.121 173.842 467.447 161.424L467.442 161.429Z" fill="#EFBF56"/>
<path d="M486.938 176.047C486.938 176.047 466.884 181.828 456.375 191.439C456.375 191.439 460.399 204.635 471.18 206.749C471.18 206.749 486.494 182.982 491.636 181.42L486.938 176.042V176.047Z" fill="#EFBF56"/>
<path d="M506.655 176.782C506.655 176.782 523.943 187.585 530.861 199.541C530.861 199.541 522.712 211.098 511.711 210.286C511.711 210.286 504.825 183.529 500.411 180.684L506.655 176.782Z" fill="#EFBF56"/>
<path d="M484.76 175.191C484.557 173.029 484.803 170.843 485.579 168.786C486.462 166.446 488.126 163.937 491.213 163.769C497.094 163.447 497.763 167.551 497.763 167.551C497.763 167.551 500.197 163.202 506.457 165.581C512.718 167.959 510.267 184.106 504.162 185.989C498.052 187.873 495.708 183.39 495.708 183.39C495.708 183.39 493.723 186.744 488.586 184.427C486.077 183.298 485.055 178.315 484.76 175.191Z" fill="#EFBF56"/>
<path d="M481.264 81.0347C480.574 86.6378 477.021 95.4413 471.596 101.241C472.008 99.8527 472.366 98.4447 472.671 97.0271C472.682 96.979 472.693 96.931 472.703 96.8829C472.735 96.7388 472.762 96.5946 472.789 96.4505C474.523 88.089 474.565 83.7017 481.264 81.0347Z" fill="#7880CA"/>
<path d="M526.938 97.8008C527.607 108.973 538.137 121.376 546.398 120.112C546.623 119.531 546.853 118.954 547.083 118.378C547.233 117.998 547.388 117.623 547.543 117.248C548.683 114.452 549.908 111.669 551.192 108.983C556.789 97.2674 557.693 84.0621 544.226 80.0304C543.247 79.7373 542.284 79.4586 541.342 79.1895C533.829 80.5782 526.162 84.9415 526.932 97.8056L526.938 97.8008Z" fill="#7880CA"/>
<path d="M492.508 109.564C484.241 109.564 482.427 101.558 482.411 101.476C482.341 101.159 482.577 100.852 482.93 100.789C483.283 100.727 483.626 100.938 483.695 101.255C483.759 101.558 485.332 108.396 492.513 108.396C500.047 108.396 516.425 98.0645 516.591 97.9636C516.885 97.7762 517.292 97.8386 517.501 98.1029C517.709 98.3672 517.64 98.7324 517.346 98.9198C516.661 99.3523 500.453 109.569 492.513 109.569L492.508 109.564Z" fill="#CA9441"/>
<path d="M512.428 14.3589C513.947 15.8966 517.987 19.2171 517.987 19.2171L523.787 22.7876L528.72 26.4397C528.72 26.4397 543.649 33.4652 546.699 31.2835C548.577 29.938 548.304 27.641 547.817 26.0793C547.512 25.1134 547.132 24.431 547.132 24.431C547.132 24.431 547.517 24.58 548.111 24.6953C549.583 24.9884 552.322 25.0845 553.601 22.2109C555.388 18.1792 549.551 13.7534 549.551 13.7534C549.551 13.7534 554.045 13.6332 555.977 10.1926C557.903 6.74707 549.909 0.759521 549.909 0.759521C549.909 0.759521 552.531 0.259757 551.14 -3.90654C549.743 -8.07284 544.682 -6.86187 544.682 -6.86187C544.682 -6.86187 545.217 -14.4737 539.079 -14.9061C532.948 -15.3386 528.624 -8.11128 528.624 -8.11128C528.624 -8.11128 523.996 -10.3074 519.164 -7.53944C514.333 -4.77151 517.505 3.52264 517.505 3.52264C517.505 3.52264 512.396 1.46592 508.918 5.32467C506.729 7.76101 509.833 11.7495 512.433 14.3637L512.428 14.3589Z" fill="#EFBF56"/>
<path d="M517.989 19.2119C517.989 19.2119 525.833 20.5959 528.722 26.4345C528.722 26.4345 527.716 27.7559 525.127 28.2413C525.127 28.2413 523.725 24.3057 517.598 22.1769C517.598 22.1769 516.63 20.3124 517.983 19.2119H517.989Z" fill="#EFBF56"/>
<path d="M487.1 51.1392C487.1 51.1392 481.776 50.0772 480.326 43.3064C477.961 32.2732 486.126 22.0713 501.392 20.2212C521.387 17.7944 524.228 23.3543 528.156 30.3174C532.083 37.2804 531.088 47.6889 527.118 53.393C523.276 58.9144 515.394 61.2835 515.394 61.2835L487.105 51.1392H487.1Z" fill="#EFBF56"/>
<path d="M490.443 59.2312C490.699 60.6536 489.624 61.9943 488.04 62.225C486.456 62.4557 484.963 61.4898 484.707 60.0674C484.45 58.645 485.525 57.3043 487.109 57.0736C488.693 56.8429 490.186 57.8088 490.443 59.2312Z" fill="white"/>
<path d="M523.888 76.9306C523.888 76.9306 520.009 84.5616 510.731 86.2772C498.943 88.4588 497.279 83.9273 497.279 83.9273C497.686 82.4521 497.889 81.0008 497.932 79.4535C497.948 78.8672 497.937 78.2666 497.905 77.6467C497.82 75.9551 497.568 74.1099 497.183 71.9907C497.092 71.4957 496.996 70.9767 496.889 70.4481L496.878 70.3857C504.995 68.1896 511.512 64.5471 515.761 58.8431L516.954 58.1126L517.756 57.6177L517.938 58.0406L517.874 59.4245C517.542 65.9262 519.527 71.193 523.899 76.9355L523.888 76.9306Z" fill="#7880CA"/>
<path d="M510.426 64.8301C508.922 68.4534 505.305 74.9118 497.9 77.6461C497.814 75.9546 497.563 74.1093 497.178 71.9902C497.087 71.4952 496.99 70.9762 496.883 70.4476C497.049 70.4572 497.215 70.4572 497.381 70.462C501.886 70.4861 506.621 68.1458 510.431 64.8349L510.426 64.8301Z" fill="#2B2B39"/>
<path d="M527.047 46.4211C527.598 50.4144 524.505 55.7195 518.71 56.5124H518.678L518.555 56.5365C518.491 56.7767 518.416 57.0122 518.336 57.2573C518.298 57.363 518.266 57.4687 518.229 57.5744C518.229 57.5841 518.223 57.5937 518.218 57.6033C515.532 64.7874 505.318 69.9724 499.517 70.7605C497.447 71.0392 495.991 70.7749 495.531 70.7413C489.196 70.2223 487.013 62.8652 487.189 57.0362C487.216 56.1905 487.297 55.3784 487.414 54.6239C487.425 54.5711 487.43 54.5182 487.441 54.4701C487.441 54.4701 484.273 46.695 483.305 43.2591C481.438 36.594 484.814 29.2369 501.155 26.0509C517.496 22.8601 522.723 31.6348 524.559 36.3922C524.869 37.1851 525.351 42.0577 524.559 42.9371C526.223 43.4802 526.87 45.09 527.052 46.4307L527.047 46.4211Z" fill="#7880CA"/>
<path d="M503.45 35.4698C503.45 35.4698 503.434 39.7082 507.736 41.6928C507.773 41.7073 507.698 41.6784 507.736 41.6928C510.213 42.8365 512.177 43.9466 511.449 46.3589C510.491 49.5353 511.578 51.5343 513.616 51.5007C517.255 51.4382 517.094 44.0811 524.553 42.923C524.553 42.923 527.191 42.1205 526.34 37.9014C525.489 33.687 515.794 22.4856 503.552 24.5087C491.304 26.5317 481.089 33.1776 481.71 41.0105C482.331 48.8433 483.989 47.1133 483.989 47.1133C483.989 47.1133 483.797 46.6616 484.155 40.2849C484.476 34.5616 504.242 31.7072 503.455 35.4602L503.45 35.4698Z" fill="#EFBF56"/>
<path d="M524.512 56.0213C524.769 57.4437 523.694 58.7844 522.11 59.015C520.526 59.2457 519.033 58.2798 518.776 56.8574C518.52 55.435 519.595 54.0943 521.179 53.8636C522.763 53.633 524.256 54.5989 524.512 56.0213Z" fill="white"/>
<path d="M529.677 117.129C529.87 117.196 530.132 117.312 530.367 117.403L531.089 117.706L532.556 118.316L535.493 119.546C537.451 120.368 539.41 121.175 541.352 121.963C545.242 123.54 549.121 125.034 552.888 126.293C553.83 126.605 554.761 126.913 555.681 127.187C556.602 127.461 557.506 127.711 558.383 127.941C559.261 128.167 560.117 128.364 560.92 128.513C561.722 128.672 562.477 128.787 563.124 128.85C563.771 128.912 564.312 128.907 564.606 128.883C564.735 128.864 564.836 128.85 564.793 128.83C564.793 128.83 564.74 128.821 564.686 128.83C564.67 128.835 564.601 128.83 564.563 128.845C564.542 128.845 564.515 128.854 564.494 128.859L564.29 128.907C563.969 128.998 563.525 129.138 563.081 129.359C562.621 129.575 562.113 129.883 561.642 130.253C561.166 130.628 560.732 131.06 560.384 131.507C560.037 131.954 559.78 132.372 559.603 132.761C559.421 133.136 559.314 133.453 559.245 133.713C559.175 133.958 559.143 134.164 559.116 134.294C559.079 134.573 559.084 134.654 559.063 134.621C559.031 134.554 558.934 134.111 558.747 133.578C558.56 133.035 558.303 132.386 557.982 131.694C557.351 130.306 556.553 128.763 555.649 127.206C554.75 125.639 553.776 124.039 552.744 122.434C551.727 120.82 550.636 119.21 549.544 117.581C547.329 114.337 545.028 111.069 542.679 107.807L539.142 102.905L535.659 98.0564L535.557 97.9122C532.363 93.4672 533.786 87.5421 538.73 84.6733C543.198 82.0832 549.014 82.8761 552.449 86.3264L553.07 86.9463L553.653 87.5421L554.798 88.7339C555.553 89.5268 556.297 90.3293 557.03 91.1366C558.496 92.7512 559.93 94.3851 561.326 96.0429C564.125 99.3683 566.827 102.775 569.395 106.341C570.69 108.119 571.926 109.945 573.157 111.81C574.366 113.684 575.554 115.611 576.688 117.634C577.806 119.666 578.903 121.776 579.882 124.145C580.369 125.332 580.835 126.586 581.252 127.98C581.659 129.388 582.039 130.921 582.199 132.857C582.279 133.828 582.301 134.919 582.156 136.197C582.087 136.827 581.964 137.533 581.776 138.268C581.578 139.018 581.306 139.82 580.915 140.661C580.514 141.512 580.005 142.382 579.337 143.242C578.668 144.097 577.87 144.914 576.972 145.625C576.083 146.327 575.115 146.932 574.162 147.389C573.221 147.845 572.268 148.196 571.407 148.432L571.08 148.523L570.925 148.566L570.808 148.595L570.331 148.701C570.021 148.768 569.684 148.845 569.39 148.888L568.485 149.027C568.18 149.076 567.913 149.095 567.624 149.128C566.474 149.249 565.452 149.263 564.462 149.249C562.519 149.205 560.823 148.975 559.266 148.696C556.157 148.124 553.536 147.302 551.064 146.409C548.597 145.515 546.318 144.51 544.124 143.472C539.742 141.377 535.723 139.051 531.865 136.581C529.939 135.346 528.066 134.063 526.231 132.737C525.316 132.074 524.412 131.396 523.513 130.704C523.063 130.358 522.625 130.003 522.181 129.647L521.512 129.109L520.811 128.532C517.643 125.913 517.44 121.488 520.351 118.643C522.609 116.437 526.081 115.832 529.003 116.889L529.661 117.129H529.677Z" fill="#7880CA"/>
<path d="M483.898 82.8756L526 88.3984L518.008 137.536L475.907 132.013L483.898 82.8756Z" fill="#2B2B39"/>
<path d="M515.37 87.0277C515.37 87.0277 514.738 83.9378 511.651 83.6206C511.651 83.6206 511.512 80.747 508.751 79.8916C505.99 79.0363 503.101 78.8296 501.105 79.0651C499.115 79.3006 498.216 81.7033 498.216 81.7033C498.216 81.7033 496.156 81.5831 495.043 82.3039C493.935 83.0247 493.7 84.1877 493.7 84.1877L515.37 87.0325V87.0277Z" fill="#2B2B39"/>
<path d="M530.071 128.239C526.85 130.512 522.184 129.82 519.546 127.004C518.155 125.52 516.475 124.001 514.806 123.17C510.803 121.176 505.453 119.816 503.751 118.297C501.236 116.053 505.057 115.914 505.533 115.957C508.583 116.221 512.724 117.245 512.724 117.245C512.724 117.245 505.95 113.809 502.9 113.506C499.856 113.208 498.363 111.123 501.381 109.94C504.404 108.763 512.746 111.151 514.854 112.377C514.854 112.377 511.285 109.287 507.176 108.758C503.066 108.23 501.67 107.543 500.348 106.615C499.021 105.683 501.359 103.492 507.079 104.366C512.799 105.236 514.747 106.86 516.989 108.403C516.989 108.403 515.817 106.63 513.243 104.164C510.67 101.694 505.859 101.425 505.196 99.4887C504.516 97.5088 510.038 98.0422 512.933 99.5607C515.833 101.079 518.08 101.959 520.691 105.015C523.297 108.071 525.673 111.075 526.743 113.242C527.813 115.409 532.752 122.665 531.901 125.995C531.682 126.846 530.986 127.596 530.076 128.239H530.071Z" fill="#7880CA"/>
<path d="M529.86 119.176C529.86 119.176 529.272 111.954 527.742 109.935C526.211 107.912 525.098 104.13 523.504 104.943C521.909 105.75 523.418 110.368 523.418 110.368L529.866 119.181L529.86 119.176Z" fill="#7880CA"/>
</g>
<defs>
<clipPath id="clip0_770_7839">
<rect width="547.753" height="358.324" fill="white" transform="matrix(-1 0 0 1 668.725 -31.8511)"/>
</clipPath>
</defs>
</svg>
