<svg width="50" height="50" viewBox="0 0 50 50" fill="none" xmlns="http://www.w3.org/2000/svg">
<rect width="50" height="50" rx="4" fill="#AAAEB1"/>
<path d="M25 17C19.2653 17 14.3227 20.3806 12.0523 25.259C11.9826 25.4068 11.9826 25.5797 12.0523 25.7304C14.3227 30.6088 19.2653 33.9893 25 33.9893C30.7347 33.9893 35.6773 30.6088 37.9477 25.7304C38.0174 25.5825 38.0174 25.4096 37.9477 25.259C35.6773 20.3806 30.7347 17 25 17ZM25 31.3563C21.7617 31.3563 19.1398 28.7316 19.1398 25.4961C19.1398 22.2577 21.7645 19.6358 25 19.6358C28.2383 19.6358 30.8602 22.2605 30.8602 25.4961C30.8602 28.7316 28.2355 31.3563 25 31.3563Z" fill="white"/>
<path d="M24.9996 29.2453C27.0715 29.2453 28.7511 27.5656 28.7511 25.4937C28.7511 23.4218 27.0715 21.7422 24.9996 21.7422C22.9277 21.7422 21.248 23.4218 21.248 25.4937C21.248 27.5656 22.9277 29.2453 24.9996 29.2453Z" fill="white"/>
</svg>
