<svg width="24" height="24" viewBox="0 0 24 24" fill="none" xmlns="http://www.w3.org/2000/svg">
<rect width="24" height="24" rx="2" fill="white"/>
<path d="M16.0909 7H7.90909C5.20091 7 3 9.24167 3 12C3 14.7583 5.20091 17 7.90909 17H16.0909C18.7991 17 21 14.7583 21 12C21 9.24167 18.7991 7 16.0909 7ZM16.0909 15.3333H7.90909C6.10091 15.3333 4.63636 13.8417 4.63636 12C4.63636 10.1583 6.10091 8.66667 7.90909 8.66667H16.0909C17.8991 8.66667 19.3636 10.1583 19.3636 12C19.3636 13.8417 17.8991 15.3333 16.0909 15.3333ZM16.0909 9.5C14.7327 9.5 13.6364 10.6167 13.6364 12C13.6364 13.3833 14.7327 14.5 16.0909 14.5C17.4491 14.5 18.5455 13.3833 18.5455 12C18.5455 10.6167 17.4491 9.5 16.0909 9.5Z" fill="#787C82"/>
</svg>
