<svg width="24" height="24" viewBox="0 0 24 24" fill="none" xmlns="http://www.w3.org/2000/svg">
<rect width="24" height="24" rx="2" fill="white"/>
<path d="M11.96 16.8C12.24 16.8 12.4768 16.7032 12.6704 16.5096C12.8635 16.3165 12.96 16.08 12.96 15.8C12.96 15.52 12.8635 15.2835 12.6704 15.0904C12.4768 14.8968 12.24 14.8 11.96 14.8C11.68 14.8 11.4432 14.8968 11.2496 15.0904C11.0565 15.2835 10.96 15.52 10.96 15.8C10.96 16.08 11.0565 16.3165 11.2496 16.5096C11.4432 16.7032 11.68 16.8 11.96 16.8ZM12.08 8.56C12.4533 8.56 12.7533 8.6632 12.98 8.8696C13.2067 9.07653 13.32 9.34667 13.32 9.68C13.32 9.90667 13.2435 10.1365 13.0904 10.3696C12.9368 10.6032 12.72 10.8467 12.44 11.1C12.04 11.4467 11.7467 11.78 11.56 12.1C11.3733 12.42 11.28 12.74 11.28 13.06C11.28 13.2467 11.3501 13.4032 11.4904 13.5296C11.6301 13.6565 11.7933 13.72 11.98 13.72C12.1667 13.72 12.3333 13.6533 12.48 13.52C12.6267 13.3867 12.72 13.22 12.76 13.02C12.8 12.7933 12.8901 12.5835 13.0304 12.3904C13.1701 12.1968 13.4 11.9467 13.72 11.64C14.1333 11.2533 14.4235 10.9 14.5904 10.58C14.7568 10.26 14.84 9.90667 14.84 9.52C14.84 8.84 14.5835 8.2832 14.0704 7.8496C13.5568 7.41653 12.8933 7.2 12.08 7.2C11.52 7.2 11.0235 7.30667 10.5904 7.52C10.1568 7.73333 9.82 8.06 9.58 8.5C9.48667 8.67333 9.45333 8.8432 9.48 9.0096C9.50667 9.17653 9.6 9.31333 9.76 9.42C9.93333 9.52667 10.1235 9.56 10.3304 9.52C10.5368 9.48 10.7067 9.36667 10.84 9.18C10.9867 8.98 11.1635 8.82667 11.3704 8.72C11.5768 8.61333 11.8133 8.56 12.08 8.56ZM12 20C10.9067 20 9.87333 19.7899 8.9 19.3696C7.92667 18.9499 7.0768 18.38 6.3504 17.66C5.62347 16.94 5.05013 16.0933 4.6304 15.12C4.21013 14.1467 4 13.1067 4 12C4 10.8933 4.21013 9.85333 4.6304 8.88C5.05013 7.90667 5.62347 7.06 6.3504 6.34C7.0768 5.62 7.92667 5.04987 8.9 4.6296C9.87333 4.20987 10.9067 4 12 4C13.12 4 14.1667 4.20987 15.14 4.6296C16.1133 5.04987 16.96 5.62 17.68 6.34C18.4 7.06 18.9667 7.90667 19.38 8.88C19.7933 9.85333 20 10.8933 20 12C20 13.1067 19.7933 14.1467 19.38 15.12C18.9667 16.0933 18.4 16.94 17.68 17.66C16.96 18.38 16.1133 18.9499 15.14 19.3696C14.1667 19.7899 13.12 20 12 20ZM12 18.4C13.7867 18.4 15.3 17.7768 16.54 16.5304C17.78 15.2835 18.4 13.7733 18.4 12C18.4 10.2267 17.78 8.71653 16.54 7.4696C15.3 6.2232 13.7867 5.6 12 5.6C10.2533 5.6 8.74987 6.2232 7.4896 7.4696C6.22987 8.71653 5.6 10.2267 5.6 12C5.6 13.7733 6.22987 15.2835 7.4896 16.5304C8.74987 17.7768 10.2533 18.4 12 18.4Z" fill="#787C82"/>
</svg>
