<svg width="665" height="236" viewBox="0 0 665 236" fill="none" xmlns="http://www.w3.org/2000/svg">
<path d="M36.2126 231.256C37.2585 229.482 36.4212 227.133 35.0432 225.607C33.6624 224.081 31.8172 223.053 30.3512 221.606C27.7304 219.022 26.5023 215.094 27.1869 211.473C27.8714 207.852 30.4422 204.643 33.821 203.196C38.4955 201.196 44.7389 202.18 47.9179 198.205C50.0509 195.541 49.7865 191.687 48.8933 188.39C48.0001 185.093 46.5722 181.843 46.7221 178.428C47.0541 170.915 55.3218 165.702 62.805 166.197C70.2883 166.692 76.8402 171.307 82.4725 176.274C84.1002 177.712 85.7572 179.233 87.8227 179.904C89.8852 180.576 92.4942 180.125 93.6342 178.272C94.2277 177.306 94.3452 176.109 94.9034 175.122C96.6692 172.002 101.464 172.718 104.414 174.748C107.364 176.778 109.961 179.778 113.516 180.184C117.976 180.694 121.769 176.816 123.758 172.78C125.75 168.743 126.793 164.15 129.693 160.711C134.274 155.281 143.285 154.397 148.829 158.834C152.918 162.108 154.784 167.338 157.179 172.005C159.57 176.672 163.331 181.401 168.546 181.852C174.975 182.409 180.219 176.263 186.642 175.623C192.148 175.075 197.492 178.997 199.601 184.127C201.711 189.256 200.968 195.238 198.649 200.273C196.361 205.241 192.506 210.126 193.47 215.512C194.436 220.919 199.963 224.443 201.549 229.703C202.857 234.034 201.179 238.828 198.323 242.337C195.47 245.844 191.575 248.313 187.752 250.72L40.5316 256C35.9393 252.158 32.8191 246.881 29.787 241.71C28.8498 240.11 27.8832 238.2 28.5942 236.488C29.8105 233.563 34.6055 233.981 36.2155 231.256H36.2126Z" fill="white"/>
<rect x="115.769" y="12" width="235.313" height="165.455" rx="7.05426" fill="white"/>
<path d="M115.769 18.413C115.769 14.8712 118.64 12 122.182 12H345.588C349.13 12 352.001 14.8712 352.001 18.413V26.7071H115.769V18.413Z" fill="#7880CA"/>
<rect x="123.122" y="33.1414" width="51.4747" height="136.04" rx="6.41297" fill="#F4F6F8"/>
<rect x="181.95" y="33.1414" width="159.02" height="44.1212" rx="6.41297" fill="#F4F6F8"/>
<rect x="182.271" y="84.0177" width="50.8335" height="23.2577" rx="4.16843" stroke="#F4F6F8" stroke-width="0.641297"/>
<rect x="182.271" y="111.593" width="50.8335" height="23.2577" rx="4.16843" stroke="#F4F6F8" stroke-width="0.641297"/>
<rect x="237.423" y="84.0177" width="47.1567" height="23.2577" rx="4.16843" stroke="#F4F6F8" stroke-width="0.641297"/>
<rect x="237.423" y="111.593" width="47.1567" height="23.2577" rx="4.16843" stroke="#F4F6F8" stroke-width="0.641297"/>
<rect x="289.816" y="84.0177" width="50.8335" height="23.2577" rx="4.16843" stroke="#F4F6F8" stroke-width="0.641297"/>
<rect x="289.816" y="111.593" width="50.8335" height="23.2577" rx="4.16843" stroke="#F4F6F8" stroke-width="0.641297"/>
<path d="M148.859 85.9135V56.0318C148.859 55.5725 149.682 55.202 150.698 55.202H184.248C185.264 55.202 186.087 55.5725 186.087 56.0318V85.9135C186.087 86.8372 184.425 87.5879 182.372 87.5879H152.58C150.531 87.5879 148.865 86.8372 148.865 85.9135H148.859Z" fill="white"/>
<path d="M154.44 68.3648H179.233C179.684 68.3648 180.05 68.0289 180.05 67.614C180.05 67.1992 179.684 66.8633 179.233 66.8633H154.44C153.988 66.8633 153.623 67.1992 153.623 67.614C153.623 68.0289 153.988 68.3648 154.44 68.3648Z" fill="#ECECF3"/>
<path d="M154.44 73.1309H179.233C179.684 73.1309 180.05 72.795 180.05 72.3802C180.05 71.9653 179.684 71.6294 179.233 71.6294H154.44C153.988 71.6294 153.623 71.9653 153.623 72.3802C153.623 72.795 153.988 73.1309 154.44 73.1309Z" fill="#ECECF3"/>
<path d="M154.44 77.8972H179.233C179.684 77.8972 180.05 77.5614 180.05 77.1465C180.05 76.7316 179.684 76.3958 179.233 76.3958H154.44C153.988 76.3958 153.623 76.7316 153.623 77.1465C153.623 77.5614 153.988 77.8972 154.44 77.8972Z" fill="#ECECF3"/>
<path d="M154.44 82.6586H179.233C179.684 82.6586 180.05 82.3227 180.05 81.9079C180.05 81.493 179.684 81.1571 179.233 81.1571H154.44C153.988 81.1571 153.623 81.493 153.623 81.9079C153.623 82.3227 153.988 82.6586 154.44 82.6586Z" fill="#ECECF3"/>
<path d="M148.865 56.8912V61.5686H186.087V56.8912C186.087 55.9577 185.264 55.202 184.248 55.202H150.698C149.682 55.202 148.86 55.9577 148.86 56.8912H148.865Z" fill="#7880CA"/>
<path d="M157.875 58.0813C157.875 58.6938 158.418 59.1926 159.084 59.1926C159.751 59.1926 160.294 58.6938 160.294 58.0813C160.294 57.4689 159.751 56.97 159.084 56.97C158.418 56.97 157.875 57.4689 157.875 58.0813Z" fill="#7F7F98"/>
<path d="M153.956 58.0813C153.956 58.6937 154.499 59.1926 155.165 59.1926C155.832 59.1926 156.375 58.6937 156.375 58.0813C156.375 57.4688 155.832 56.97 155.165 56.97C154.499 56.97 153.956 57.4688 153.956 58.0813Z" fill="#7F7F98"/>
<path d="M150.198 58.0813C150.198 58.6937 150.741 59.1926 151.408 59.1926C152.074 59.1926 152.617 58.6937 152.617 58.0813C152.617 57.4688 152.074 56.97 151.408 56.97C150.741 56.97 150.198 57.4688 150.198 58.0813Z" fill="#7F7F98"/>
<path d="M195.744 121.762V91.8802C195.744 91.4209 196.566 91.0505 197.582 91.0505H231.132C232.148 91.0505 232.971 91.4209 232.971 91.8802V121.762C232.971 122.686 231.31 123.436 229.256 123.436H199.464C197.416 123.436 195.749 122.686 195.749 121.762H195.744Z" fill="white"/>
<path d="M201.318 104.213H226.111C226.563 104.213 226.928 103.877 226.928 103.463C226.928 103.048 226.563 102.712 226.111 102.712H201.318C200.867 102.712 200.501 103.048 200.501 103.463C200.501 103.877 200.867 104.213 201.318 104.213Z" fill="#ECECF3"/>
<path d="M201.318 108.98H226.111C226.563 108.98 226.928 108.644 226.928 108.229C226.928 107.814 226.563 107.478 226.111 107.478H201.318C200.867 107.478 200.501 107.814 200.501 108.229C200.501 108.644 200.867 108.98 201.318 108.98Z" fill="#ECECF3"/>
<path d="M201.318 113.746H226.111C226.563 113.746 226.928 113.41 226.928 112.995C226.928 112.58 226.563 112.244 226.111 112.244H201.318C200.867 112.244 200.501 112.58 200.501 112.995C200.501 113.41 200.867 113.746 201.318 113.746Z" fill="#ECECF3"/>
<path d="M201.318 118.507H226.111C226.563 118.507 226.928 118.171 226.928 117.756C226.928 117.341 226.563 117.006 226.111 117.006H201.318C200.867 117.006 200.501 117.341 200.501 117.756C200.501 118.171 200.867 118.507 201.318 118.507Z" fill="#ECECF3"/>
<path d="M195.744 92.7396V97.4169H232.966V92.7396C232.966 91.8061 232.143 91.0504 231.127 91.0504H197.577C196.561 91.0504 195.739 91.8061 195.739 92.7396H195.744Z" fill="#7880CA"/>
<path d="M204.753 93.93C204.753 94.5424 205.296 95.0413 205.963 95.0413C206.63 95.0413 207.173 94.5424 207.173 93.93C207.173 93.3175 206.63 92.8187 205.963 92.8187C205.296 92.8187 204.753 93.3175 204.753 93.93Z" fill="#7F7F98"/>
<path d="M200.835 93.9301C200.835 94.5425 201.378 95.0414 202.044 95.0414C202.711 95.0414 203.254 94.5425 203.254 93.9301C203.254 93.3176 202.711 92.8188 202.044 92.8188C201.378 92.8188 200.835 93.3176 200.835 93.9301Z" fill="#7F7F98"/>
<path d="M197.077 93.9301C197.077 94.5425 197.62 95.0414 198.287 95.0414C198.953 95.0414 199.496 94.5425 199.496 93.9301C199.496 93.3176 198.953 92.8188 198.287 92.8188C197.62 92.8188 197.077 93.3176 197.077 93.9301Z" fill="#7F7F98"/>
<g filter="url(#filter0_d_414_1256)">
<path d="M247.218 96.0246V66.1429C247.218 65.6835 248.041 65.3131 249.057 65.3131H282.607C283.623 65.3131 284.445 65.6835 284.445 66.1429V96.0246C284.445 96.9482 282.784 97.699 280.731 97.699H250.938C248.89 97.699 247.224 96.9482 247.224 96.0246H247.218Z" fill="white"/>
<path d="M252.793 78.4761H277.586C278.038 78.4761 278.403 78.1403 278.403 77.7254C278.403 77.3105 278.038 76.9746 277.586 76.9746H252.793C252.342 76.9746 251.976 77.3105 251.976 77.7254C251.976 78.1403 252.342 78.4761 252.793 78.4761Z" fill="#ECECF3"/>
<path d="M252.793 83.2422H277.586C278.038 83.2422 278.403 82.9064 278.403 82.4915C278.403 82.0766 278.038 81.7407 277.586 81.7407H252.793C252.342 81.7407 251.976 82.0766 251.976 82.4915C251.976 82.9064 252.342 83.2422 252.793 83.2422Z" fill="#ECECF3"/>
<path d="M252.793 88.0086H277.586C278.038 88.0086 278.403 87.6727 278.403 87.2578C278.403 86.8429 278.038 86.5071 277.586 86.5071H252.793C252.342 86.5071 251.976 86.8429 251.976 87.2578C251.976 87.6727 252.342 88.0086 252.793 88.0086Z" fill="#ECECF3"/>
<path d="M252.793 92.7699H277.586C278.038 92.7699 278.403 92.4341 278.403 92.0192C278.403 91.6043 278.038 91.2684 277.586 91.2684H252.793C252.342 91.2684 251.976 91.6043 251.976 92.0192C251.976 92.4341 252.342 92.7699 252.793 92.7699Z" fill="#ECECF3"/>
<path d="M247.219 67.0024V71.6798H284.44V67.0024C284.44 66.0689 283.618 65.3132 282.602 65.3132H249.052C248.036 65.3132 247.213 66.0689 247.213 67.0024H247.219Z" fill="#7880CA"/>
<path d="M256.228 68.1927C256.228 68.8051 256.771 69.304 257.438 69.304C258.104 69.304 258.647 68.8051 258.647 68.1927C258.647 67.5802 258.104 67.0814 257.438 67.0814C256.771 67.0814 256.228 67.5802 256.228 68.1927Z" fill="#7F7F98"/>
<path d="M252.309 68.1926C252.309 68.8051 252.852 69.3039 253.519 69.3039C254.185 69.3039 254.728 68.8051 254.728 68.1926C254.728 67.5802 254.185 67.0813 253.519 67.0813C252.852 67.0813 252.309 67.5802 252.309 68.1926Z" fill="#7F7F98"/>
<path d="M248.552 68.1926C248.552 68.8051 249.095 69.3039 249.761 69.3039C250.428 69.3039 250.971 68.8051 250.971 68.1926C250.971 67.5802 250.428 67.0813 249.761 67.0813C249.095 67.0813 248.552 67.5802 248.552 68.1926Z" fill="#7F7F98"/>
</g>
<path d="M147.946 159.449V129.567C147.946 129.108 148.768 128.738 149.784 128.738H183.334C184.35 128.738 185.173 129.108 185.173 129.567V159.449C185.173 160.373 183.512 161.123 181.458 161.123H151.666C149.617 161.123 147.951 160.373 147.951 159.449H147.946Z" fill="white"/>
<path d="M153.52 141.9H178.313C178.765 141.9 179.13 141.564 179.13 141.149C179.13 140.735 178.765 140.399 178.313 140.399H153.52C153.069 140.399 152.703 140.735 152.703 141.149C152.703 141.564 153.069 141.9 153.52 141.9Z" fill="#ECECF3"/>
<path d="M153.521 146.667H178.313C178.765 146.667 179.131 146.331 179.131 145.916C179.131 145.501 178.765 145.165 178.313 145.165H153.521C153.069 145.165 152.703 145.501 152.703 145.916C152.703 146.331 153.069 146.667 153.521 146.667Z" fill="#ECECF3"/>
<path d="M153.521 151.433H178.313C178.765 151.433 179.131 151.097 179.131 150.682C179.131 150.267 178.765 149.931 178.313 149.931H153.521C153.069 149.931 152.703 150.267 152.703 150.682C152.703 151.097 153.069 151.433 153.521 151.433Z" fill="#ECECF3"/>
<path d="M153.521 156.194H178.313C178.765 156.194 179.131 155.858 179.131 155.443C179.131 155.028 178.765 154.693 178.313 154.693H153.521C153.069 154.693 152.703 155.028 152.703 155.443C152.703 155.858 153.069 156.194 153.521 156.194Z" fill="#ECECF3"/>
<path d="M147.946 130.427V135.104H185.168V130.427C185.168 129.493 184.345 128.737 183.329 128.737H149.779C148.763 128.737 147.94 129.493 147.94 130.427H147.946Z" fill="#7880CA"/>
<path d="M156.955 131.617C156.955 132.229 157.498 132.728 158.165 132.728C158.832 132.728 159.375 132.229 159.375 131.617C159.375 131.004 158.832 130.506 158.165 130.506C157.498 130.506 156.955 131.004 156.955 131.617Z" fill="#7F7F98"/>
<path d="M153.037 131.617C153.037 132.229 153.579 132.728 154.246 132.728C154.913 132.728 155.456 132.229 155.456 131.617C155.456 131.004 154.913 130.505 154.246 130.505C153.579 130.505 153.037 131.004 153.037 131.617Z" fill="#7F7F98"/>
<path d="M149.279 131.617C149.279 132.229 149.822 132.728 150.489 132.728C151.155 132.728 151.698 132.229 151.698 131.617C151.698 131.004 151.155 130.505 150.489 130.505C149.822 130.505 149.279 131.004 149.279 131.617Z" fill="#7F7F98"/>
<path d="M67.0055 195.712V165.83C67.0055 165.37 67.828 165 68.844 165H102.394C103.41 165 104.233 165.37 104.233 165.83V195.712C104.233 196.635 102.571 197.386 100.518 197.386H70.7255C68.6773 197.386 67.0108 196.635 67.0108 195.712H67.0055Z" fill="white"/>
<path d="M72.5803 178.163H97.3733C97.8249 178.163 98.1904 177.827 98.1904 177.412C98.1904 176.997 97.8249 176.661 97.3733 176.661H72.5803C72.1288 176.661 71.7633 176.997 71.7633 177.412C71.7633 177.827 72.1288 178.163 72.5803 178.163Z" fill="#ECECF3"/>
<path d="M72.5805 182.929H97.3734C97.825 182.929 98.1906 182.593 98.1906 182.178C98.1906 181.763 97.825 181.427 97.3734 181.427H72.5805C72.1289 181.427 71.7634 181.763 71.7634 182.178C71.7634 182.593 72.1289 182.929 72.5805 182.929Z" fill="#ECECF3"/>
<path d="M72.5805 187.695H97.3734C97.825 187.695 98.1906 187.359 98.1906 186.944C98.1906 186.53 97.825 186.194 97.3734 186.194H72.5805C72.1289 186.194 71.7634 186.53 71.7634 186.944C71.7634 187.359 72.1289 187.695 72.5805 187.695Z" fill="#ECECF3"/>
<path d="M72.5805 192.457H97.3734C97.825 192.457 98.1906 192.121 98.1906 191.706C98.1906 191.291 97.825 190.955 97.3734 190.955H72.5805C72.1289 190.955 71.7634 191.291 71.7634 191.706C71.7634 192.121 72.1289 192.457 72.5805 192.457Z" fill="#ECECF3"/>
<path d="M67.0058 166.689V171.366H104.227V166.689C104.227 165.756 103.405 165 102.389 165H68.8389C67.8229 165 67.0004 165.756 67.0004 166.689H67.0058Z" fill="#7880CA"/>
<path d="M76.0154 167.879C76.0154 168.492 76.5584 168.991 77.225 168.991C77.8916 168.991 78.4345 168.492 78.4345 167.879C78.4345 167.267 77.8916 166.768 77.225 166.768C76.5584 166.768 76.0154 167.267 76.0154 167.879Z" fill="#7F7F98"/>
<path d="M72.0965 167.879C72.0965 168.492 72.6394 168.991 73.306 168.991C73.9726 168.991 74.5156 168.492 74.5156 167.879C74.5156 167.267 73.9726 166.768 73.306 166.768C72.6394 166.768 72.0965 167.267 72.0965 167.879Z" fill="#7F7F98"/>
<path d="M68.339 167.879C68.339 168.492 68.882 168.991 69.5486 168.991C70.2152 168.991 70.7581 168.492 70.7581 167.879C70.7581 167.267 70.2152 166.768 69.5486 166.768C68.882 166.768 68.339 167.267 68.339 167.879Z" fill="#7F7F98"/>
<circle cx="17.5" cy="100.5" r="17.5" fill="white"/>
<circle cx="17.5" cy="100.5" r="17.5" fill="white"/>
<rect x="437" y="4" width="205" height="239" rx="16" fill="white"/>
<circle cx="26" cy="181" r="9" fill="#F4F6F8"/>
<path d="M542 0V244" stroke="#F4F6F8" stroke-width="11"/>
<path d="M664.584 123.751L419.416 120.249" stroke="#F4F6F8" stroke-width="11"/>
<g clip-path="url(#clip0_414_1256)">
<path d="M425.556 35.945C425.556 35.945 436.183 18.9583 451.186 25.4959C478.201 37.2637 466.389 114.729 466.389 114.729L434.975 116.524L427.484 109.721C427.484 109.721 425.733 72.711 425.545 71.1043C425.368 69.5086 425.545 35.934 425.545 35.934L425.556 35.945Z" fill="#EFBF56"/>
<path d="M374.695 239.31H485.669L479.94 178.621C479.94 178.621 468.45 127.793 468.195 127.273C467.94 126.73 439.961 107.527 439.961 107.527H408.913L385.51 144.215L378.153 183.939L377.798 189.701L376.967 202.921L374.695 239.321V239.31Z" fill="white"/>
<path d="M435.761 88.7227C435.761 88.7227 433.556 103.925 439.961 107.527C436.36 113.134 431.562 117.932 421.556 116.524C411.55 115.117 407.816 107.926 407.816 107.926C407.816 107.926 417.955 104.524 415.151 90.1188L435.761 88.7227Z" fill="#7880CA"/>
<path d="M406.542 82.1961C406.542 82.1961 396.369 70.251 400.37 56.112C404.37 41.9729 412.968 35.6015 419.772 35.8785C427.395 35.0475 459.984 33.6402 452.083 71.5142C420.171 78.4508 406.575 80.8553 406.575 80.8553" fill="#EFBF56"/>
<path d="M404.902 68.6776C404.902 68.6776 402.874 95.9805 424.116 94.9611C433.213 93.9527 440.626 88.8999 444.006 78.4508C447.718 78.7832 451.086 76.4341 451.984 72.722C452.881 69.01 448.948 63.6247 441.878 68.6776C436.592 67.4365 429.069 64.068 424.348 52.6105C420.193 61.7078 411.882 68.0016 404.913 68.6776H404.902Z" fill="#7880CA"/>
<path d="M437.335 67.1595C437.335 67.1595 443.784 74.916 440.127 82.1961C441.479 80.5229 444.028 72.9658 441.523 66.3617C439.019 59.7576 437.324 67.1595 437.324 67.1595H437.335Z" fill="#EFBF56"/>
<path d="M415.595 93.4984C415.595 93.4984 425.988 97.6205 435.551 90.7393C431.883 97.1218 425.479 101.222 414.896 99.9917C415.495 97.2216 415.595 93.4984 415.595 93.4984Z" fill="#2B2B39"/>
<path d="M390.552 158.742C390.552 158.742 389.222 176.881 388.679 188.35C367.604 192.616 351.337 186.477 351.337 186.477C351.337 186.477 360.678 126.453 371.881 120.059C383.084 113.654 408.913 107.527 408.913 107.527" fill="white"/>
<path d="M381.1 149.733C380.79 151.983 380.557 154.243 380.291 156.504L379.604 163.285C379.161 167.806 378.817 172.338 378.419 176.87C378.119 181.402 377.765 185.934 377.51 190.477L377.155 197.292C377.078 199.563 376.967 201.835 376.923 204.106C377.233 201.846 377.466 199.586 377.743 197.325L378.43 190.544C378.873 186.023 379.216 181.491 379.615 176.959C379.914 172.427 380.269 167.895 380.524 163.363L380.879 156.548C380.956 154.276 381.067 152.005 381.111 149.722L381.1 149.733Z" fill="#7880CA"/>
<path d="M333.032 148.692C338.129 183.507 341.209 213.702 358.817 214.212C368.003 214.5 373.643 208.605 376.967 202.91L377.798 189.69C369.765 190.012 359.869 188.638 359.869 188.638C359.869 188.638 354.152 166.144 344.556 144.547C343.071 141.212 342.118 144.149 333.032 148.692Z" fill="#7880CA"/>
<path d="M359.869 188.638C359.725 189.657 359.858 190.643 360.058 191.607C360.29 192.56 360.612 193.513 361.221 194.355C361.221 193.325 361.044 192.383 360.833 191.43C360.601 190.488 360.335 189.546 359.858 188.638H359.869Z" fill="#4D5FE2"/>
<path d="M343.736 140.348C343.736 140.348 346.052 133.877 345.741 131.251C345.442 128.624 344.312 121.865 344.667 118.541C345.021 115.217 340.855 116.812 340.334 122.851C339.924 125.743 339.658 127.727 338.949 126.763C338.24 125.799 335.47 112.447 334.029 109.599C332.589 106.74 330.528 109 331.469 115.128C332.4 121.256 332.068 119.893 332.024 120.58C331.979 121.267 321.918 128.735 322.295 132.669C322.671 136.614 325.065 141.445 330.306 145.068C332.954 147.074 333.032 148.692 333.032 148.692L344.556 144.547C344.556 144.547 343.847 142.353 343.736 140.348Z" fill="#7880CA"/>
<path d="M330.151 125.466C331.359 126.342 332.611 127.151 333.94 127.849C334.605 128.203 335.292 128.525 336.046 128.757C336.434 128.846 336.81 128.99 337.376 128.824C337.675 128.746 337.941 128.358 337.941 128.081C337.963 127.816 337.918 127.594 337.863 127.383C337.287 125.821 336.267 124.724 335.248 123.616C334.727 123.084 334.195 122.541 333.619 122.065L332.766 121.344C332.622 121.222 332.478 121.101 332.323 121.001C332.179 120.912 331.946 120.746 331.802 120.912C331.968 120.79 332.134 120.979 332.256 121.089C332.389 121.222 332.511 121.355 332.633 121.488L333.364 122.331C333.874 122.862 334.339 123.428 334.805 124.004C335.259 124.591 335.713 125.156 336.123 125.754C336.522 126.342 336.932 126.973 337.11 127.583C337.154 127.727 337.176 127.882 337.165 127.982C337.143 128.07 337.165 128.037 337.11 128.07C336.954 128.137 336.567 128.081 336.245 128.004C335.569 127.838 334.893 127.538 334.206 127.273C332.855 126.696 331.525 126.032 330.151 125.444V125.466Z" fill="#7880CA"/>
<path d="M326.45 128.624C327.658 129.5 328.91 130.309 330.24 131.007C330.904 131.361 331.591 131.683 332.345 131.915C332.733 132.004 333.109 132.148 333.675 131.982C333.974 131.904 334.24 131.516 334.24 131.239C334.262 130.974 334.217 130.752 334.162 130.541C333.586 128.979 332.566 127.882 331.547 126.774C331.015 126.242 330.494 125.699 329.918 125.223L329.065 124.502C328.921 124.38 328.777 124.259 328.622 124.159C328.478 124.07 328.245 123.904 328.101 124.07C328.267 123.948 328.433 124.137 328.555 124.248C328.688 124.38 328.81 124.513 328.932 124.646L329.663 125.489C330.173 126.02 330.638 126.586 331.104 127.162C331.558 127.749 332.012 128.314 332.422 128.913C332.821 129.5 333.231 130.131 333.409 130.741C333.453 130.885 333.475 131.04 333.464 131.14C333.442 131.228 333.464 131.195 333.409 131.228C333.253 131.295 332.866 131.239 332.544 131.162C331.868 130.996 331.192 130.697 330.505 130.431C329.154 129.854 327.824 129.19 326.45 128.602V128.624Z" fill="#7880CA"/>
<path d="M323.137 132.458C324.345 133.334 325.597 134.143 326.926 134.841C327.591 135.195 328.278 135.517 329.032 135.749C329.42 135.838 329.796 135.982 330.361 135.816C330.661 135.738 330.927 135.35 330.927 135.073C330.949 134.807 330.904 134.586 330.849 134.375C330.273 132.813 329.253 131.716 328.234 130.608C327.702 130.076 327.181 129.533 326.605 129.057L325.752 128.336C325.608 128.214 325.464 128.093 325.309 127.993C325.165 127.904 324.932 127.738 324.788 127.904C324.954 127.782 325.12 127.971 325.242 128.081C325.375 128.214 325.497 128.347 325.619 128.48L326.35 129.322C326.86 129.854 327.325 130.419 327.791 130.996C328.245 131.583 328.699 132.148 329.109 132.746C329.508 133.334 329.918 133.965 330.095 134.575C330.14 134.719 330.162 134.874 330.151 134.974C330.129 135.062 330.151 135.029 330.095 135.062C329.94 135.129 329.553 135.073 329.231 134.996C328.555 134.83 327.879 134.53 327.192 134.264C325.84 133.688 324.511 133.023 323.137 132.436V132.458Z" fill="#7880CA"/>
<path d="M242.114 235.953H352.623C356.734 235.953 359.858 232.241 359.149 228.185L346.672 156.493C346.118 153.312 343.359 150.996 340.146 150.996H229.637C225.526 150.996 222.402 154.709 223.111 158.764L235.588 230.457C236.142 233.637 238.901 235.953 242.114 235.953Z" fill="#2B2B39"/>
<path d="M246.801 235.953H419.03C420.359 235.953 421.445 234.867 421.445 233.537C421.445 232.207 420.359 231.121 419.03 231.121H246.801C245.472 231.121 244.386 232.207 244.386 233.537C244.386 234.867 245.472 235.953 246.801 235.953Z" fill="#2B2B39"/>
<path d="M494.999 187.286C494.999 187.286 499.664 222.235 491.93 231.033C484.195 239.831 414.896 236.097 414.896 236.097C414.896 236.097 411.162 237.349 403.228 236.883C395.361 236.429 381.433 236.894 381.433 236.894C381.433 236.894 379.216 234.49 385.887 231.288C390.818 228.75 397.223 221.946 400.957 221.814C404.691 221.681 411.761 222.611 413.899 223.01C417.633 221.415 458.045 214.744 465.779 213.004C464.715 200.605 462.566 184.992 462.566 184.992L494.988 187.264L494.999 187.286Z" fill="#7880CA"/>
<path d="M406.375 230.7C404.913 230.778 403.461 230.977 402.021 231.243C401.3 231.365 400.58 231.542 399.871 231.742C399.173 231.952 398.497 232.152 397.788 232.307C397.09 232.484 396.38 232.606 395.649 232.828C394.907 233.038 394.142 233.526 393.732 234.224C393.522 234.556 393.344 235.044 393.533 235.509C393.721 235.953 394.131 236.196 394.497 236.296C395.239 236.518 395.982 236.529 396.713 236.484C395.993 236.351 395.261 236.252 394.652 235.93C394.331 235.797 394.087 235.576 394.02 235.332C393.954 235.099 394.065 234.811 394.253 234.556C395.04 233.448 396.547 233.448 397.976 233.072C399.439 232.717 400.768 232.185 402.165 231.831L406.386 230.689L406.375 230.7Z" fill="#4D5FE2"/>
<path d="M400.037 227.83C398.619 228.34 397.234 228.927 395.86 229.526C394.486 230.113 393.134 230.767 391.782 231.432C390.441 232.108 389.111 232.795 387.804 233.548C387.161 233.947 386.496 234.29 385.898 234.811C385.61 235.077 385.344 235.421 385.266 235.831C385.178 236.252 385.377 236.662 385.688 236.883C385.455 236.584 385.377 236.196 385.499 235.886C385.621 235.565 385.887 235.332 386.175 235.121C386.751 234.723 387.449 234.423 388.125 234.091C389.477 233.448 390.818 232.783 392.159 232.119C393.488 231.443 394.829 230.767 396.137 230.035C397.455 229.315 398.763 228.595 400.048 227.797L400.037 227.83Z" fill="#4D5FE2"/>
<path d="M398.907 225.06C398.065 225.282 397.256 225.559 396.436 225.869C395.616 226.19 394.862 226.667 394.12 227.088C392.624 227.963 391.184 228.894 389.732 229.825C388.292 230.778 386.862 231.742 385.466 232.761C384.768 233.282 384.081 233.781 383.394 234.335C383.017 234.601 382.762 235.088 382.729 235.531C382.674 235.986 382.762 236.429 382.917 236.828C382.795 235.986 382.917 235.033 383.649 234.656C384.347 234.18 385.089 233.725 385.821 233.271C387.283 232.362 388.724 231.42 390.164 230.479C391.594 229.526 393.034 228.573 394.441 227.587C395.815 226.534 397.322 225.791 398.896 225.038L398.907 225.06Z" fill="#4D5FE2"/>
<path d="M458.322 158.742C458.322 158.742 459.652 176.881 460.183 188.35C481.259 192.616 497.526 186.477 497.526 186.477C497.526 186.477 488.184 126.453 476.982 120.059C465.779 113.654 439.95 107.527 439.95 107.527" fill="white"/>
<path d="M458.322 158.742C458.211 163.706 458.388 168.648 458.665 173.579C458.798 176.05 458.976 178.51 459.186 180.97C459.397 183.43 459.64 185.89 459.962 188.35L459.984 188.538L460.139 188.56C461.114 188.671 462.1 188.793 463.087 188.87C462.134 188.604 461.181 188.372 460.217 188.128L460.394 188.327C460.394 185.856 460.339 183.374 460.239 180.903C460.139 178.432 460.006 175.961 459.829 173.49C459.485 168.559 459.042 163.628 458.311 158.72L458.322 158.742Z" fill="#7880CA"/>
<rect x="286" y="64" width="75.3737" height="35.8485" rx="17.9242" fill="#67E216"/>
<circle cx="342.53" cy="81.9244" r="14.2475" fill="white"/>
<path d="M354.752 59.234L357.482 47" stroke="white" stroke-width="4" stroke-linecap="round"/>
<path d="M365 69.0927L377.408 67.3154" stroke="white" stroke-width="4" stroke-linecap="round"/>
<path d="M361.346 63.1001L371.627 50.2053" stroke="white" stroke-width="4" stroke-linecap="round"/>
</g>
<defs>
<filter id="filter0_d_414_1256" x="244.648" y="65.3131" width="42.3626" height="37.5162" filterUnits="userSpaceOnUse" color-interpolation-filters="sRGB">
<feFlood flood-opacity="0" result="BackgroundImageFix"/>
<feColorMatrix in="SourceAlpha" type="matrix" values="0 0 0 0 0 0 0 0 0 0 0 0 0 0 0 0 0 0 127 0" result="hardAlpha"/>
<feOffset dy="2.56519"/>
<feGaussianBlur stdDeviation="1.28259"/>
<feComposite in2="hardAlpha" operator="out"/>
<feColorMatrix type="matrix" values="0 0 0 0 0 0 0 0 0 0 0 0 0 0 0 0 0 0 0.05 0"/>
<feBlend mode="normal" in2="BackgroundImageFix" result="effect1_dropShadow_414_1256"/>
<feBlend mode="normal" in="SourceGraphic" in2="effect1_dropShadow_414_1256" result="shape"/>
</filter>
<clipPath id="clip0_414_1256">
<rect width="274.537" height="215.31" fill="white" transform="matrix(-1 0 0 1 497.537 24)"/>
</clipPath>
</defs>
</svg>
