<svg width="20" height="20" viewBox="0 0 20 20" fill="none" xmlns="http://www.w3.org/2000/svg">
<path d="M5.552 6.04324C5.786 6.27734 6.0932 6.39499 6.4004 6.39499C6.7076 6.39499 7.0148 6.27734 7.2488 6.04324L8.8004 4.49097V12.3976C8.8004 13.0614 9.338 13.5981 10.0004 13.5981C10.6628 13.5981 11.2004 13.0614 11.2004 12.3976V4.49097L12.752 6.04324C13.2212 6.51264 13.9796 6.51264 14.4488 6.04324C14.918 5.57384 14.918 4.81511 14.4488 4.34571L10.8488 0.744171C10.7444 0.639726 10.6208 0.565295 10.4912 0.506469C10.4585 0.491701 10.4258 0.481567 10.3923 0.471181C10.3877 0.469747 10.3831 0.468309 10.3784 0.466853C10.2776 0.432038 10.1756 0.412829 10.07 0.406827C10.0591 0.406125 10.0485 0.405218 10.0378 0.404316C10.0121 0.402132 9.98678 0.399975 9.9596 0.400824C9.83 0.404426 9.7004 0.426035 9.5756 0.475256C9.5708 0.477057 9.5657 0.477957 9.5606 0.478858C9.5555 0.479758 9.5504 0.480658 9.5456 0.482459L9.5408 0.48366C9.4064 0.540084 9.2912 0.622919 9.188 0.71896C9.1826 0.724363 9.1763 0.727964 9.17 0.731566C9.1637 0.735167 9.1574 0.738769 9.152 0.744171L5.552 4.34571C5.0828 4.81511 5.0828 5.57384 5.552 6.04324Z" fill="#5C5F62"/>
<path d="M2.20039 8.8001C1.20628 8.8001 0.400391 9.60599 0.400391 10.6001V17.8001C0.400391 18.7942 1.20628 19.6001 2.20039 19.6001H17.8004C18.7945 19.6001 19.6004 18.7942 19.6004 17.8001V10.6001C19.6004 9.60599 18.7945 8.8001 17.8004 8.8001H13.6004V11.2001H17.2004V17.2001H2.80039L2.80039 11.2001H6.40039V8.8001H2.20039Z" fill="#5C5F62"/>
</svg>
