<svg width="60" height="60" viewBox="0 0 60 60" fill="none" xmlns="http://www.w3.org/2000/svg">
<rect width="60" height="60" fill="#CACCCE"/>
<path d="M50.3077 19.8823H42.2123C42.3023 19.8064 42.3946 19.7328 42.4823 19.6523C43.1832 19.0318 43.748 18.2738 44.1415 17.4257C44.535 16.5777 44.7487 15.6579 44.7692 14.7238C44.7995 13.7019 44.62 12.6846 44.2415 11.7344C43.8631 10.7842 43.2938 9.9211 42.5685 9.1981C41.8432 8.4751 40.9774 7.90745 40.024 7.53001C39.0707 7.15257 38.05 6.9733 37.0246 7.00321C36.0869 7.02334 35.1635 7.23615 34.3122 7.62832C33.4608 8.0205 32.6999 8.58359 32.0769 9.28235C31.215 10.2779 30.5142 11.4015 30 12.6125C29.4858 11.4015 28.785 10.2779 27.9231 9.28235C27.3001 8.58359 26.5392 8.0205 25.6878 7.62832C24.8365 7.23615 23.9131 7.02334 22.9754 7.00321C21.95 6.9733 20.9293 7.15257 19.976 7.53001C19.0226 7.90745 18.1568 8.4751 17.4315 9.1981C16.7062 9.9211 16.1369 10.7842 15.7585 11.7344C15.38 12.6846 15.2005 13.7019 15.2308 14.7238C15.2513 15.6579 15.465 16.5777 15.8585 17.4257C16.252 18.2738 16.8168 19.0318 17.5177 19.6523C17.6054 19.7282 17.6977 19.8018 17.7877 19.8823H9.69231C8.71305 19.8823 7.77389 20.27 7.08145 20.9601C6.38901 21.6502 6 22.5861 6 23.5621V30.9215C6 31.8975 6.38901 32.8334 7.08145 33.5235C7.77389 34.2136 8.71305 34.6013 9.69231 34.6013V49.3203C9.69231 50.2962 10.0813 51.2321 10.7738 51.9222C11.4662 52.6123 12.4054 53 13.3846 53H27.2308C27.4756 53 27.7104 52.9031 27.8835 52.7306C28.0566 52.558 28.1538 52.324 28.1538 52.0801V30.9215H9.69231V23.5621H28.1538V30.9215H31.8462V23.5621H50.3077V30.9215H31.8462V52.0801C31.8462 52.324 31.9434 52.558 32.1165 52.7306C32.2896 52.9031 32.5244 53 32.7692 53H46.6154C47.5946 53 48.5338 52.6123 49.2262 51.9222C49.9187 51.2321 50.3077 50.2962 50.3077 49.3203V34.6013C51.287 34.6013 52.2261 34.2136 52.9185 33.5235C53.611 32.8334 54 31.8975 54 30.9215V23.5621C54 22.5861 53.611 21.6502 52.9185 20.9601C52.2261 20.27 51.287 19.8823 50.3077 19.8823ZM19.9638 16.8925C19.641 16.6012 19.3822 16.2465 19.2035 15.8508C19.0248 15.455 18.9301 15.0267 18.9254 14.5927C18.9137 14.0842 19.004 13.5785 19.1909 13.1052C19.3779 12.6319 19.6577 12.2006 20.014 11.8365C20.3704 11.4724 20.796 11.1828 21.2661 10.9847C21.7362 10.7866 22.2412 10.684 22.7515 10.683H22.8646C23.3001 10.6876 23.7299 10.782 24.127 10.9601C24.5241 11.1382 24.88 11.3962 25.1723 11.7179C27.1085 13.8981 27.7915 17.5135 28.0315 19.7489C25.7792 19.512 22.1538 18.8313 19.9638 16.8925ZM40.0408 16.8925C37.8508 18.8244 34.2162 19.5051 31.9638 19.7443C32.2385 17.3272 33 13.7877 34.8462 11.7202C35.1385 11.3985 35.4944 11.1405 35.8915 10.9624C36.2886 10.7843 36.7184 10.6899 37.1538 10.6853H37.2669C37.7773 10.6884 38.2819 10.7931 38.7512 10.9931C39.2205 11.1932 39.645 11.4845 39.9998 11.8502C40.3547 12.2158 40.6327 12.6483 40.8177 13.1224C41.0026 13.5965 41.0908 14.1026 41.0769 14.6111C41.0694 15.0421 40.9732 15.467 40.7941 15.8594C40.6151 16.2519 40.3571 16.6035 40.0362 16.8925H40.0408Z" fill="white"/>
</svg>
