<svg width="60" height="60" viewBox="0 0 60 60" fill="none" xmlns="http://www.w3.org/2000/svg">
<rect width="60" height="60" fill="#CACCCE"/>
<path d="M45.3883 15C47.2586 15 48.6613 15.4723 49.5973 16.4154C50.4835 17.3104 50.9494 18.6163 50.9959 20.3359L51 20.6259V40.3915C51 42.2552 50.5324 43.6557 49.5965 44.5929C48.7111 45.4821 47.4055 45.9494 45.6796 45.9959L45.3883 46H14.6117C12.7414 46 11.3387 45.531 10.4027 44.5937C9.51653 43.7046 9.05059 42.4011 9.00408 40.6824L9 40.3923V20.6267C9 18.7506 9.46757 17.3443 10.4035 16.4063C11.2889 15.5179 12.5945 15.0505 14.3204 15.0041L14.6117 15H45.3883ZM11.8772 40.2283C11.8772 41.1721 12.1155 41.8831 12.5921 42.3613C13.0327 42.8021 13.6496 43.04 14.4444 43.0739L14.6484 43.0781L28.9098 43.0773V33.4588H28.785C28.4871 34.3902 28.0195 35.2794 27.3814 36.1271C26.7449 36.973 26.0131 37.7403 25.201 38.4135C24.4353 39.0575 23.6023 39.6144 22.7171 40.0741C21.8766 40.5034 21.1177 40.7727 20.438 40.8821C19.9264 40.9542 19.5241 40.839 19.2319 40.5365C18.9398 40.2341 18.7937 39.8835 18.7937 39.4841C18.7937 39.0482 18.9194 38.6944 19.1691 38.4226C19.3886 38.1839 19.6848 38.0314 20.0586 37.9651L20.2242 37.9411C20.8436 37.869 21.5053 37.6362 22.2071 37.2425C22.9366 36.8309 23.6226 36.3444 24.2545 35.7907C24.8941 35.2381 25.486 34.631 26.0236 33.9759C26.4773 33.4198 26.8323 32.8945 27.0901 32.3981L27.1937 32.1876H11.8772V40.2283ZM48.1219 32.1876H32.8054C33.0682 32.7445 33.4582 33.3403 33.9764 33.9759C34.5143 34.631 35.1064 35.2382 35.7463 35.7907C36.4073 36.3658 37.0862 36.8497 37.7831 37.2425C38.4033 37.5922 38.9924 37.8143 39.5506 37.9113L39.7587 37.9411C40.2238 37.99 40.5804 38.1499 40.8309 38.4217C41.0806 38.6952 41.2063 39.0482 41.2063 39.4841C41.2063 39.8835 41.0594 40.2341 40.7681 40.5365C40.4759 40.839 40.0744 40.9542 39.562 40.8821C38.8708 40.7727 38.1079 40.5034 37.2739 40.0741C36.3924 39.6128 35.5626 39.056 34.799 38.4135C33.9829 37.7356 33.2559 36.9732 32.6186 36.1263C32.0722 35.4103 31.6348 34.615 31.3211 33.7671L31.215 33.4588H31.0722V43.0773H45.3524C46.2337 43.0773 46.9159 42.8386 47.3989 42.3613C47.8445 41.9196 48.0844 41.2799 48.1187 40.4421L48.1227 40.2283L48.1219 32.1876ZM45.5523 17.9261L45.3524 17.9219H31.0722V24.1478C31.4426 23.4052 31.9284 22.7281 32.5109 22.1424C33.0508 21.5979 33.684 21.1581 34.3795 20.8447C35.0491 20.5442 35.7732 20.3895 36.5052 20.3905C37.7921 20.3905 38.8619 20.8231 39.7138 21.6883C40.5657 22.5534 40.9916 23.6522 40.9916 24.9823C40.9916 25.7446 40.8309 26.4556 40.5094 27.1153C40.177 27.7885 39.7186 28.3894 39.1597 28.8845C38.6372 29.3514 38.0557 29.7455 37.4306 30.0562L37.1491 30.1913H48.1219V20.79C48.1219 19.8453 47.8812 19.1326 47.3989 18.6478C46.9534 18.2012 46.3381 17.9592 45.5523 17.9261ZM28.9106 17.9219H14.6476C13.7541 17.9219 13.0686 18.1639 12.5921 18.6478C12.1522 19.0953 11.9148 19.7375 11.8821 20.5762L11.8772 20.79V30.1913H22.833C22.1089 29.8579 21.4374 29.4175 20.8403 28.8845C20.2808 28.388 19.8199 27.7875 19.4825 27.1153C19.1541 26.454 18.9854 25.7228 18.9904 24.9823C18.9904 23.6514 19.4196 22.5534 20.2772 21.6883C21.1357 20.8231 22.2014 20.3905 23.476 20.3905C24.2267 20.3905 24.9424 20.5414 25.6213 20.8447C26.3165 21.1582 26.9495 21.598 27.4891 22.1424C27.9946 22.6487 28.4236 23.2281 28.7621 23.8619L28.9098 24.1478L28.9106 17.9219ZM23.6204 22.9677C22.9774 22.9677 22.465 23.1641 22.0831 23.5578C21.702 23.9505 21.5119 24.4925 21.5119 25.182C21.5119 25.7504 21.684 26.3164 22.03 26.8791C22.3752 27.4418 22.8518 27.9497 23.4597 28.4039C24.098 28.8739 24.8022 29.244 25.5487 29.5019C26.2492 29.7476 26.9818 29.8861 27.7225 29.9129L28.0514 29.9195H28.5875V29.4107C28.5925 28.5716 28.4596 27.7376 28.1942 26.9429C27.948 26.1986 27.5794 25.502 27.104 24.8828C26.6389 24.2837 26.1084 23.8146 25.5128 23.4757C24.9357 23.142 24.2829 22.967 23.6188 22.9677M36.3616 22.9677C35.7031 22.9685 35.0563 23.1435 34.4848 23.4757C33.8891 23.8155 33.3587 24.2837 32.8944 24.8828C32.4183 25.503 32.0469 26.1992 31.7952 26.9429C31.5583 27.6333 31.4249 28.356 31.3995 29.0867L31.3929 29.4107V29.9195H31.9299C32.787 29.9255 33.6389 29.7843 34.4497 29.5019C35.1945 29.2455 35.8965 28.8752 36.5313 28.4039C37.1336 27.9497 37.6068 27.4418 37.9528 26.8791C38.298 26.3164 38.471 25.7504 38.471 25.182C38.471 24.4925 38.2833 23.9505 37.9079 23.5578C37.5326 23.1641 37.0169 22.9677 36.3616 22.9677Z" fill="white"/>
</svg>
