<svg width="60" height="60" viewBox="0 0 60 60" fill="none" xmlns="http://www.w3.org/2000/svg">
<rect width="60" height="60" fill="#CACCCE"/>
<path d="M20.6719 12.503C21.0156 11.5266 20.5078 10.4563 19.5312 10.1126C18.5547 9.76889 17.4844 10.2767 17.1406 11.2531L16.3047 13.6123L15.5312 11.2844C15.2031 10.3001 14.1406 9.76889 13.1562 10.097C12.1719 10.4251 11.6406 11.4875 11.9688 12.4718L12.6172 14.4248L10.4766 12.8624C9.64062 12.2531 8.46875 12.4406 7.85938 13.2764C7.25 14.1123 7.4375 15.2841 8.27344 15.8934L10.4844 17.5026H8.75C6.67969 17.5026 5 19.1822 5 21.2523V46.2503C5 48.3204 6.67969 50 8.75 50H20.6719C20.25 49.2657 20 48.4142 20 47.5002V30.0016C20 27.6659 21.6016 25.7051 23.7656 25.1583C23.9062 22.7366 25.1016 20.6118 26.8984 19.2134C26.2266 18.1823 25.0703 17.5026 23.75 17.5026H22.0156L24.2266 15.8934C25.0625 15.2841 25.25 14.1123 24.6406 13.2764C24.0312 12.4406 22.8594 12.2531 22.0234 12.8624L20.0391 14.3076L20.6719 12.503ZM33.3984 24.4943L35.7109 27.5018H31.875C30.8359 27.5018 30 26.666 30 25.627C30 24.6036 30.8438 23.7521 31.8906 23.7521C32.4844 23.7521 33.0391 24.0255 33.3984 24.4943ZM26.25 25.627C26.25 26.2832 26.3594 26.9159 26.5703 27.5018H26.25C24.1797 27.5018 22.5 29.1814 22.5 31.2515V37.501H37.5V30.0016H40V37.501H55V31.2515C55 29.1814 53.3203 27.5018 51.25 27.5018H50.9297C51.1406 26.9159 51.25 26.2832 51.25 25.627C51.25 22.51 48.7109 20.0024 45.6094 20.0024C43.8594 20.0024 42.2031 20.8149 41.1328 22.2054L38.75 25.2989L36.3672 22.2054C35.2969 20.8149 33.6328 20.0024 31.8906 20.0024C28.7891 20.0024 26.25 22.51 26.25 25.627ZM22.5 46.2503C22.5 48.3204 24.1797 50 26.25 50H37.5V40.0008H22.5V46.2503ZM40 50H51.25C53.3203 50 55 48.3204 55 46.2503V40.0008H40V50ZM47.5 25.627C47.5 26.666 46.6641 27.5018 45.625 27.5018H41.7891L44.1016 24.4943C44.4609 24.0334 45.0156 23.7521 45.6094 23.7521C46.6562 23.7521 47.5 24.6036 47.5 25.627Z" fill="white"/>
</svg>
