<svg width="60" height="60" viewBox="0 0 60 60" fill="none" xmlns="http://www.w3.org/2000/svg">
<rect width="60" height="60" fill="#CACCCE"/>
<g>
<path d="M43.948 19.0908H37.3935C39.3687 17.1648 40.5974 14.4767 40.5974 11.5066C40.5974 10.6745 39.9229 10 39.0908 10C35.2352 10 31.8543 12.07 30 15.1568C28.1457 12.07 24.7649 10 20.9093 10C20.0772 10 19.4027 10.6745 19.4027 11.5066C19.4027 14.4767 20.6315 17.1648 22.6067 19.0908H16.052C15.2199 19.0908 14.5454 19.7653 14.5454 20.5974V48.4935C14.5454 49.3256 15.2199 50.0001 16.052 50.0001H43.948C44.7801 50.0001 45.4546 49.3256 45.4546 48.4935V20.5974C45.4546 19.7653 44.7801 19.0908 43.948 19.0908ZM42.4414 33.0388H31.5066V22.104H42.4414V33.0388ZM37.3926 13.2049C36.7448 16.0256 34.5191 18.2513 31.6982 18.8992C32.3461 16.0783 34.5718 13.8526 37.3926 13.2049ZM28.3018 18.8991C25.481 18.2512 23.2553 16.0256 22.6075 13.2048C25.4283 13.8526 27.654 16.0783 28.3018 18.8991ZM28.4934 22.104V33.0388H17.5586V22.104H28.4934ZM17.5586 36.052H28.4934V46.9869H17.5586V36.052ZM31.5066 46.9868V36.052H42.4414V46.9869H31.5066V46.9868Z" fill="white"/>
</g>
</svg>
