<svg width="60" height="60" viewBox="0 0 60 60" fill="none" xmlns="http://www.w3.org/2000/svg">
<rect width="60" height="60" fill="#CACCCE"/>
<path d="M48.6923 20.7621H41.4402C41.5208 20.6928 41.6035 20.6256 41.6821 20.5521C42.3099 19.9855 42.8159 19.2935 43.1685 18.5192C43.521 17.7449 43.7124 16.905 43.7308 16.0521C43.7579 15.1191 43.5971 14.1903 43.258 13.3227C42.919 12.4551 42.409 11.6671 41.7593 11.007C41.1096 10.3468 40.3339 9.82854 39.4799 9.48392C38.6258 9.13931 37.7115 8.97563 36.7929 9.00293C35.9529 9.02131 35.1257 9.21562 34.363 9.57369C33.6003 9.93176 32.9186 10.4459 32.3606 11.0839C31.5884 11.9929 30.9606 13.0188 30.5 14.1245C30.0394 13.0188 29.4116 11.9929 28.6394 11.0839C28.0814 10.4459 27.3997 9.93176 26.637 9.57369C25.8743 9.21562 25.0471 9.02131 24.2071 9.00293C23.2885 8.97563 22.3742 9.13931 21.5201 9.48392C20.6661 9.82854 19.8904 10.3468 19.2407 11.007C18.591 11.6671 18.081 12.4551 17.742 13.3227C17.4029 14.1903 17.2421 15.1191 17.2692 16.0521C17.2876 16.905 17.479 17.7449 17.8315 18.5192C18.1841 19.2935 18.6901 19.9855 19.3179 20.5521C19.3965 20.6214 19.4792 20.6886 19.5598 20.7621H12.3077C11.4304 20.7621 10.5891 21.1161 9.9688 21.7462C9.34849 22.3762 9 23.2308 9 24.1219V30.8414C9 31.7325 9.34849 32.587 9.9688 33.2171C10.5891 33.8472 11.4304 34.2012 12.3077 34.2012V47.6402C12.3077 48.5313 12.6562 49.3859 13.2765 50.0159C13.8968 50.646 14.7381 51 15.6154 51H45.3846C46.2619 51 47.1032 50.646 47.7235 50.0159C48.3438 49.3859 48.6923 48.5313 48.6923 47.6402V34.2012C49.5696 34.2012 50.4109 33.8472 51.0312 33.2171C51.6515 32.587 52 31.7325 52 30.8414V24.1219C52 23.2308 51.6515 22.3762 51.0312 21.7462C50.4109 21.1161 49.5696 20.7621 48.6923 20.7621ZM34.8413 13.3097C35.1032 13.016 35.422 12.7804 35.7778 12.6178C36.1335 12.4552 36.5186 12.3691 36.9087 12.3648H37.01C37.4672 12.3677 37.9192 12.4633 38.3396 12.6459C38.76 12.8285 39.1403 13.0946 39.4582 13.4284C39.776 13.7622 40.0251 14.1572 40.1908 14.59C40.3565 15.0229 40.4355 15.485 40.4231 15.9492C40.4189 16.3455 40.3341 16.7366 40.174 17.0979C40.0139 17.4593 39.782 17.7831 39.4928 18.0491C37.5309 19.813 34.2749 20.4345 32.2572 20.6529C32.5053 18.4292 33.1875 15.1975 34.8413 13.3097ZM21.592 13.3853C22.2327 12.7346 23.1005 12.367 24.0066 12.3627H24.1079C24.498 12.367 24.883 12.4531 25.2388 12.6157C25.5945 12.7783 25.9133 13.0139 26.1752 13.3076C27.9097 15.2983 28.5216 18.5993 28.7366 20.6403C26.7272 20.4303 23.4774 19.8004 21.5175 18.0386C21.2284 17.7726 20.9965 17.4488 20.8364 17.0874C20.6763 16.7261 20.5915 16.335 20.5873 15.9387C20.5744 15.4668 20.6562 14.9971 20.8274 14.5581C20.9987 14.1192 21.256 13.7202 21.5837 13.3853H21.592ZM12.3077 24.1219H28.8462V30.8414H12.3077V24.1219ZM15.6154 34.2012H28.8462V47.6402H15.6154V34.2012ZM45.3846 47.6402H32.1538V34.2012H45.3846V47.6402ZM48.6923 30.8414H32.1538V24.1219H48.6923V30.8414Z" fill="white"/>
</svg>
