<svg width="60" height="60" viewBox="0 0 60 60" fill="none" xmlns="http://www.w3.org/2000/svg">
    <path d="M30.0137 60C36.9547 59.9969 43.68 57.5869 49.0433 53.1809C54.4067 48.7748 58.0763 42.6453 59.4268 35.8369C60.7772 29.0284 59.725 21.9623 56.4495 15.8428C53.1739 9.72315 47.8777 4.92873 41.4633 2.27648C35.0489 -0.37577 27.9133 -0.721715 21.2724 1.29759C14.6315 3.3169 8.89636 7.57651 5.04418 13.3505C1.19199 19.1246 -0.538806 26.0557 0.146718 32.9629C0.832243 39.8701 3.89167 46.3258 8.80365 51.23C11.5871 54.0168 14.8938 56.2261 18.5336 57.7312C22.1735 59.2362 26.0749 60.0072 30.0137 60ZM47.0136 47C42.8826 51.1307 37.3867 53.6129 31.5564 53.9811C25.726 54.3493 19.9615 52.5782 15.3437 49L49.0136 15.3C52.6002 19.9201 54.3762 25.691 54.0079 31.5282C53.6396 37.3654 51.1524 42.8673 47.0136 47ZM13.0136 13C17.1447 8.86927 22.6406 6.38713 28.4709 6.01894C34.3013 5.65074 40.0658 7.42178 44.6836 11L11.0636 44.71C7.46789 40.095 5.68167 34.3256 6.04077 28.4862C6.39986 22.6468 8.87953 17.1396 13.0136 13Z" fill="#CB1E1E"/>
</svg>
