<svg width="150" height="150" viewBox="0 0 150 150" fill="none" xmlns="http://www.w3.org/2000/svg"> <g clip-path="url(#clip0_721_57)"> <path d="M69.2601 148.68C67.3301 147.93 65.2601 147.97 63.2601 147.59C51.4471 145.43 40.4994 139.933 31.7101 131.75C21.6854 122.651 14.9082 110.526 12.4101 97.2201C9.14038 81.5426 12.0761 65.208 20.6001 51.6501C30.4201 35.7301 44.6801 26.0001 63.0001 22.1801C65.3401 21.7001 67.7301 21.4801 70.1001 21.1301C70.221 21.06 70.364 21.0386 70.5001 21.0701C75.4758 23.5161 80.1702 26.497 84.5001 29.9601C86.1101 31.2301 87.5001 32.7701 89.0801 34.0601C89.4501 34.3601 90.3101 34.7901 89.4301 35.5001C89.1046 35.6022 88.7556 35.6022 88.4301 35.5001C84.9131 34.5504 81.3003 34.0003 77.6601 33.8601C76.176 33.6251 74.6642 33.6251 73.1801 33.8601C69.2491 33.9899 65.3479 34.5908 61.5601 35.6501C54.0851 37.7287 47.1854 41.4916 41.3901 46.6501C40.1001 47.8301 38.8901 49.0901 37.6701 50.3501C32.2043 56.2243 28.2325 63.3276 26.0901 71.0601C25.0822 74.807 24.459 78.6468 24.2301 82.5201C24.1701 83.8701 24.2301 85.2201 24.2301 86.5201C24.4848 92.5186 25.7597 98.4299 28.0001 104C30.2237 109.522 33.4173 114.603 37.4301 119C38.5701 120.1 39.3301 121.59 40.7701 122.41C48.7422 129.764 58.8594 134.372 69.6401 135.56C70.8601 135.71 72.1201 135.67 73.3501 135.86C74.7301 135.86 76.1101 135.86 77.4901 135.86C82.1114 135.463 86.6909 134.677 91.1801 133.51C92.1801 134.27 91.2801 134.78 90.8601 135.19C88.7301 137.25 86.6001 139.32 84.2801 141.19C80.7278 144.104 76.8643 146.615 72.7601 148.68H71.0001C70.9656 148.645 70.9244 148.617 70.8789 148.597C70.8334 148.578 70.7845 148.568 70.7351 148.568C70.6857 148.568 70.6368 148.578 70.5913 148.597C70.5458 148.617 70.5046 148.645 70.4701 148.68H69.2601Z" fill="#FEC03F"/> <path d="M89.7002 35.29C87.4907 33.0036 85.0995 30.9001 82.5502 29C79.0142 26.2484 75.208 23.8628 71.1902 21.88C70.8736 21.7712 70.6049 21.5555 70.4302 21.27C70.7043 21.0367 71.0228 20.8615 71.3666 20.7549C71.7104 20.6484 72.0722 20.6127 72.4302 20.65C74.7502 20.47 77.1002 20.14 79.3402 21.17C93.0415 22.0634 106.088 27.3558 116.54 36.26C117.171 36.4508 117.744 36.7943 118.21 37.26C119.597 38.6733 121.004 40.0834 122.43 41.49C122.87 41.8557 123.173 42.3598 123.29 42.92C128.787 49.2665 132.977 56.6356 135.62 64.6049C138.262 72.5741 139.306 80.9866 138.69 89.36C137.676 103.384 132.067 116.682 122.732 127.196C113.397 137.71 100.855 144.854 87.0502 147.52C84.7802 147.97 82.4902 148.3 80.2102 148.68H78.7502C78.4772 148.561 78.1828 148.5 77.8852 148.5C77.5876 148.5 77.2931 148.561 77.0202 148.68H72.7202C73.7202 147.48 75.1702 147.08 76.4002 146.28C80.3018 143.897 83.9507 141.123 87.2902 138C88.3702 136.93 89.5302 135.93 90.6402 134.89C90.9802 134.57 91.3902 134.29 91.4402 133.74C91.4683 133.6 91.5346 133.471 91.6317 133.367C91.7288 133.263 91.8529 133.188 91.9902 133.15C98.6732 130.876 104.786 127.185 109.91 122.33C111.23 121.24 112.3 119.89 113.52 118.7C117.058 114.78 119.941 110.316 122.06 105.48C124.709 99.5069 126.186 93.0804 126.41 86.55C126.41 85.19 126.41 83.83 126.41 82.46C125.877 71.3257 121.731 60.6681 114.6 52.1C114.08 51.47 113.53 50.87 112.96 50.3C111.88 49.14 110.75 48.04 109.61 46.93C105.585 43.2392 100.989 40.2236 96.0002 38C94.1602 37.16 92.2402 36.56 90.3402 35.89C90.1949 35.8452 90.0618 35.7679 89.9509 35.6639C89.84 35.56 89.7542 35.4321 89.7002 35.29Z" fill="#FE9316"/> <path d="M77 148.68C77.2381 148.468 77.546 148.35 77.865 148.35C78.184 148.35 78.4919 148.468 78.73 148.68H77Z" fill="#FEA733"/> <path d="M70.4102 148.68C70.6102 148.33 70.8002 148.38 70.9902 148.68H70.4102Z" fill="#FEE2A8"/> <path d="M70.1398 15.1401C68.4998 15.0101 66.8098 15.5001 65.2598 14.4901C64.6479 14.1218 64.1421 13.6011 63.7915 12.9789C63.441 12.3567 63.2578 11.6542 63.2598 10.9401C63.2598 9.13008 63.2598 7.31008 63.2598 5.50008C63.2677 4.39138 63.7137 3.33078 64.5005 2.5496C65.2873 1.76843 66.3511 1.33005 67.4598 1.33008C69.5198 1.33008 71.5698 1.33008 73.6298 1.33008C74.7491 1.51806 75.7595 2.11325 76.4665 3.00117C77.1735 3.88909 77.5273 5.00706 77.4598 6.14008C77.4598 7.44008 77.4598 8.73008 77.4598 10.0301C77.4598 12.8801 76.1998 14.5201 73.4598 15.4501C72.3098 15.5301 71.1698 15.8401 70.1398 15.1401Z" fill="#E3E8F3"/> <path d="M121.63 31.2401C121.52 30.3501 120.71 29.9401 120.17 29.3801C118.24 27.3801 118.27 24.9701 120.3 22.9501C122.33 20.9301 124.6 20.8701 126.58 22.8201L133.71 29.8201C134.65 33.1701 133.38 35.6601 130.27 36.6001C129.597 36.8159 128.881 36.8649 128.184 36.7429C127.487 36.621 126.83 36.3318 126.27 35.9001C124.69 34.4301 123.15 32.8501 121.63 31.2401Z" fill="#E3E8F3"/> <path d="M73.5698 15.12C74.7244 14.7212 75.7014 13.928 76.3288 12.8799C76.9562 11.8318 77.1938 10.596 76.9998 9.38996C76.9398 8.67455 76.9398 7.95536 76.9998 7.23995C77.2109 6.01299 76.9867 4.75084 76.3658 3.67169C75.745 2.59254 74.7666 1.76423 73.5998 1.32995C76.2198 1.32995 78.8498 1.32995 81.4698 1.32995C82.1052 1.29222 82.7414 1.38941 83.3366 1.61513C83.9317 1.84086 84.4724 2.19001 84.9229 2.63963C85.3735 3.08924 85.7238 3.62914 85.9507 4.22381C86.1777 4.81849 86.2762 5.45448 86.2398 6.08995V10.25C86.2961 10.9076 86.2081 11.5697 85.9817 12.1897C85.7554 12.8098 85.3963 13.3729 84.9295 13.8397C84.4628 14.3064 83.8997 14.6655 83.2796 14.8919C82.6595 15.1182 81.9975 15.2063 81.3398 15.15H79.3398C77.4821 15.8708 75.42 15.8601 73.5698 15.12Z" fill="#CCD1DE"/> <path d="M121.63 31.24C123.54 32.29 124.76 34.08 126.27 35.55C126.92 36.26 127.95 36.55 128.27 37.6C126.72 39.49 124.68 40.92 123.27 42.92C121.134 40.5751 118.881 38.339 116.52 36.22C118.359 34.7049 120.068 33.0392 121.63 31.24Z" fill="#A6B6C5"/> <path d="M128.29 37.6001C127.497 37.0527 126.818 36.3565 126.29 35.5501C129.39 36.9601 131.71 36.4301 133.16 33.9801C133.73 33.0346 133.902 31.9023 133.64 30.8301C133.56 30.4701 133.32 30.1201 133.74 29.8301C135.31 31.3301 137.16 32.6201 137.74 34.8801C137.974 35.8297 137.899 36.829 137.528 37.7336C137.156 38.6381 136.506 39.401 135.672 39.912C134.838 40.423 133.864 40.6556 132.889 40.5761C131.914 40.4967 130.99 40.1093 130.25 39.4701C129.59 38.8501 128.94 38.2201 128.29 37.6001Z" fill="#CCD1DE"/> <path d="M73.5701 15.1201H79.3401V21.1201C76.3714 20.8433 73.3819 20.8768 70.4201 21.2201L70.1201 21.1401V15.1401L73.5701 15.1201Z" fill="#A6B6C5"/> <path d="M89.6999 35.2899L90.2699 35.5899C91.4881 36.3539 92.5447 37.3494 93.3799 38.5199C102.873 49.3453 108.808 62.8278 110.38 77.1399C111.988 90.2144 109.881 103.478 104.3 115.41C101.533 121.378 97.9929 126.956 93.7699 132C93.2649 132.57 92.6663 133.051 91.9999 133.42L91.4399 133.75C86.9446 135.116 82.3012 135.935 77.6099 136.19C77.0099 135.54 77.2499 134.74 77.2099 134C77.2351 133.139 77.205 132.277 77.1199 131.42C76.9199 130.42 76.4699 129.6 75.2699 129.58C74.2699 129.58 73.5499 130.32 73.4399 131.58C73.3599 132.58 73.4399 133.58 73.4399 134.58C73.4399 135.15 73.5099 135.75 73.0199 136.19C65.5036 135.882 58.1496 133.908 51.4899 130.41C47.4365 128.366 43.7255 125.704 40.4899 122.52C40.3399 121.88 40.8599 121.58 41.1999 121.22C41.9699 120.38 42.8499 119.64 43.5899 118.76C43.7791 118.594 43.9306 118.389 44.0345 118.16C44.1383 117.931 44.192 117.682 44.192 117.43C44.192 117.178 44.1383 116.929 44.0345 116.7C43.9306 116.471 43.7791 116.266 43.5899 116.1C43.423 115.928 43.2233 115.791 43.0026 115.698C42.7818 115.604 42.5446 115.556 42.3049 115.556C42.0652 115.556 41.828 115.604 41.6072 115.698C41.3865 115.791 41.1868 115.928 41.0199 116.1C40.1299 116.84 39.3999 117.7 38.5699 118.49C38.1999 118.84 37.8999 119.31 37.2899 119.31C30.3212 111.756 25.8121 102.264 24.3599 92.0899C24.0999 90.3299 24.0599 88.5599 23.8999 86.8099C24.6799 86.1399 25.6199 86.4599 26.4999 86.3999C27.3799 86.3399 28.0199 86.3999 28.7799 86.3299C29.2609 86.304 29.7126 86.0905 30.0379 85.7353C30.3633 85.38 30.5363 84.9114 30.5199 84.4299C30.5151 83.9705 30.3339 83.5306 30.0137 83.2011C29.6936 82.8716 29.259 82.6779 28.7999 82.6599C27.7999 82.5199 26.6999 82.6599 25.6599 82.5899C25.0699 82.5899 24.4099 82.6899 23.9199 82.1699C24.1812 76.4774 25.4087 70.8708 27.5499 65.5899C29.8379 59.7376 33.2602 54.3952 37.6199 49.8699C38.5599 49.8699 38.9299 50.7399 39.5199 51.2499C40.1065 51.866 40.753 52.4221 41.4499 52.9099C41.7831 53.1483 42.1912 53.2584 42.5991 53.2198C43.007 53.1812 43.3873 52.9966 43.6699 52.6999C43.9954 52.4158 44.2078 52.0241 44.2684 51.5963C44.329 51.1685 44.2337 50.7333 43.9999 50.3699C43.4193 49.5507 42.7484 48.7993 41.9999 48.1299C41.5699 47.6499 40.9099 47.3099 40.9099 46.5299C45.1205 42.5991 50.0188 39.4771 55.3599 37.3199C60.9352 34.9079 66.9265 33.6037 72.9999 33.4799C73.5899 34.0799 73.3899 34.8199 73.4199 35.4799C73.4499 36.1399 73.4199 36.8299 73.4199 37.4799C73.4224 37.9673 73.6151 38.4344 73.9569 38.7818C74.2987 39.1293 74.7626 39.3295 75.2499 39.3399C76.3599 39.3399 76.8299 38.5799 77.0599 37.6199C77.1749 36.8154 77.2151 36.0019 77.1799 35.1899C77.1799 34.5899 77.0699 33.9199 77.5799 33.4199C81.2419 33.4897 84.8806 34.0206 88.4099 34.9999C88.8335 35.123 89.2643 35.2198 89.6999 35.2899Z" fill="#E3E8F3"/> <path d="M23.9201 82.1799C25.4401 82.1799 26.9201 82.1799 28.5001 82.1799C28.8188 82.1501 29.1403 82.1871 29.4438 82.2887C29.7474 82.3902 30.0265 82.554 30.2631 82.7695C30.4998 82.9851 30.6888 83.2476 30.8182 83.5404C30.9475 83.8332 31.0144 84.1498 31.0144 84.4699C31.0144 84.79 30.9475 85.1066 30.8182 85.3994C30.6888 85.6922 30.4998 85.9548 30.2631 86.1703C30.0265 86.3859 29.7474 86.5496 29.4438 86.6512C29.1403 86.7527 28.8188 86.7897 28.5001 86.7599C26.9401 86.7599 25.5001 86.7599 23.9201 86.7599C23.7545 85.2377 23.7545 83.7021 23.9201 82.1799Z" fill="#555E6B"/> <path d="M73 136.2C73 134.67 73 133.13 73 131.61C72.9697 131.298 73.0038 130.983 73.1003 130.685C73.1967 130.386 73.3533 130.111 73.5605 129.876C73.7677 129.64 74.021 129.45 74.3047 129.317C74.5885 129.183 74.8966 129.109 75.21 129.1C75.5346 129.095 75.8567 129.157 76.1559 129.284C76.455 129.41 76.7246 129.597 76.9476 129.833C77.1705 130.069 77.3418 130.349 77.4507 130.655C77.5596 130.961 77.6036 131.286 77.58 131.61C77.64 133.17 77.58 134.67 77.58 136.19C76.0579 136.355 74.5227 136.358 73 136.2Z" fill="#555E6B"/> <path d="M37.1899 119.33C38.3299 118.17 39.4199 116.97 40.5999 115.86C40.7954 115.607 41.0419 115.399 41.3234 115.248C41.6049 115.097 41.9151 115.008 42.2337 114.985C42.5522 114.962 42.872 115.007 43.1721 115.116C43.4722 115.225 43.7459 115.397 43.9752 115.619C44.2046 115.841 44.3844 116.109 44.5031 116.406C44.6217 116.702 44.6764 117.021 44.6636 117.34C44.6509 117.659 44.5709 117.972 44.429 118.258C44.287 118.544 44.0863 118.797 43.8399 119C42.7499 120.19 41.5699 121.32 40.4299 122.48C39.2136 121.58 38.1239 120.521 37.1899 119.33Z" fill="#555E6B"/> <path d="M40.9998 46.54C41.9298 47.54 42.8798 48.44 43.7898 49.41C44.9998 50.68 44.9998 52 43.9998 53C42.9998 54 41.7298 53.9 40.4598 52.7C39.4598 51.79 38.5498 50.84 37.5898 49.91C38.5952 48.6612 39.7392 47.5306 40.9998 46.54Z" fill="#555E6B"/> <path d="M77.61 33.49C77.61 34.78 77.61 36.08 77.61 37.37C77.6354 37.6972 77.5916 38.0261 77.4816 38.3353C77.3716 38.6445 77.1978 38.9271 76.9715 39.1648C76.7451 39.4024 76.4713 39.5898 76.1679 39.7148C75.8644 39.8397 75.538 39.8994 75.21 39.89C74.8971 39.8791 74.5897 39.8044 74.3066 39.6705C74.0236 39.5366 73.7709 39.3463 73.564 39.1113C73.3571 38.8763 73.2004 38.6016 73.1034 38.3039C73.0064 38.0062 72.9712 37.6918 73 37.38C73 36.08 73 34.79 73 33.49C74.5205 33.1755 76.0894 33.1755 77.61 33.49Z" fill="#555E6B"/> <path d="M92 133.42C95.2951 129.706 98.2315 125.688 100.77 121.42C104.851 114.379 107.73 106.707 109.29 98.7201C110.416 92.7468 110.772 86.6539 110.35 80.5901C109.9 73.5347 108.369 66.5903 105.81 60.0001C103.453 53.8258 100.242 48.0125 96.27 42.7301C94.4076 40.2441 92.4044 37.8669 90.27 35.6101C96.0603 37.2435 101.489 39.9579 106.27 43.6101C107.573 44.494 108.777 45.5166 109.86 46.6601C109.7 47.6001 108.86 48.0001 108.31 48.6601C107.842 49.0755 107.405 49.5233 107 50.0001C106.744 50.36 106.626 50.7993 106.666 51.2389C106.706 51.6785 106.902 52.0893 107.218 52.3972C107.534 52.705 107.95 52.8897 108.391 52.9177C108.831 52.9457 109.267 52.8154 109.62 52.5501C110.35 52.0101 110.91 51.2901 111.62 50.6901C112.03 50.3201 112.34 49.7601 113.03 49.8601C116.097 52.9478 118.671 56.4893 120.66 60.3601C124.309 67.0832 126.381 74.5481 126.72 82.1901C125.72 82.8201 124.59 82.4801 123.53 82.5301C121.61 82.6001 120.71 83.1301 120.67 84.3801C120.63 85.6301 121.57 86.2801 123.55 86.3801C124.62 86.3801 125.74 86.0801 126.75 86.7301C126.398 97.1327 122.859 107.176 116.61 115.5C115.762 116.822 114.755 118.035 113.61 119.11C112.83 119.11 112.49 118.44 112.01 118.01C111.335 117.26 110.577 116.589 109.75 116.01C109.414 115.772 109.002 115.667 108.592 115.713C108.183 115.759 107.805 115.954 107.53 116.26C107.199 116.541 106.983 116.934 106.924 117.364C106.865 117.794 106.967 118.231 107.21 118.59C107.8 119.405 108.47 120.159 109.21 120.84C109.65 121.32 110.29 121.67 110.3 122.44C105.145 127.484 98.8764 131.245 92 133.42Z" fill="#CCD1DE"/> <path d="M110.24 122.49C109.24 121.49 108.24 120.49 107.34 119.49C106.21 118.27 106.16 117.04 107.13 116.05C108.1 115.06 109.35 115.05 110.58 116.22C111.58 117.15 112.58 118.15 113.58 119.12L110.24 122.49Z" fill="#555E6B"/> <path d="M126.74 86.7599C125.36 86.7599 123.98 86.8299 122.61 86.7599C122.002 86.7599 121.42 86.5187 120.991 86.0892C120.561 85.6597 120.32 85.0773 120.32 84.4699C120.32 83.8626 120.561 83.2801 120.991 82.8507C121.42 82.4212 122.002 82.1799 122.61 82.1799C123.98 82.1799 125.36 82.1799 126.74 82.1799C126.858 83.7043 126.858 85.2355 126.74 86.7599Z" fill="#555E6B"/> <path d="M113 49.9C112.08 50.8 111.2 51.72 110.25 52.59C110.044 52.8403 109.787 53.0434 109.496 53.1852C109.205 53.3271 108.887 53.4045 108.563 53.4121C108.239 53.4197 107.918 53.3573 107.62 53.2293C107.323 53.1012 107.057 52.9104 106.84 52.6699C106.629 52.4429 106.466 52.1754 106.361 51.8835C106.256 51.5917 106.212 51.2816 106.231 50.9721C106.249 50.6626 106.331 50.3601 106.47 50.083C106.609 49.8059 106.803 49.5599 107.04 49.36C107.94 48.44 108.88 47.58 109.8 46.7C110.95 47.6799 112.02 48.75 113 49.9Z" fill="#555E6B"/> <path d="M77 78.1701C81 80.0801 82.7 83.2701 81.59 86.8601C81.1582 88.3167 80.2509 89.5868 79.013 90.4677C77.775 91.3485 76.2778 91.7895 74.76 91.7201C73.2728 91.6638 71.8439 91.1268 70.6878 90.1896C69.5316 89.2524 68.7105 87.9656 68.3477 86.5222C67.9849 85.0788 68.0999 83.5567 68.6755 82.1842C69.2511 80.8117 70.2562 79.6629 71.54 78.9101L72.41 78.4101C73.0408 77.8681 73.8335 77.5505 74.6641 77.5071C75.4946 77.4637 76.3161 77.6968 77 78.1701Z" fill="#555E6B"/> <path d="M77.0001 78.1699C75.477 77.8284 73.8893 77.9115 72.4101 78.4099V54.4099C72.3859 53.9388 72.4093 53.4664 72.4801 52.9999C72.5706 52.5285 72.8095 52.0985 73.1618 51.7725C73.5141 51.4465 73.9615 51.2418 74.4384 51.1882C74.9154 51.1345 75.397 51.2349 75.813 51.4745C76.2289 51.7141 76.5572 52.0804 76.7501 52.5199C76.9478 52.987 77.0334 53.4938 77.0001 53.9999C77.0001 62.0599 77.0001 70.1166 77.0001 78.1699Z" fill="#7A6CF6"/> </g> <defs> <clipPath id="clip0_721_57"> <rect width="150" height="150" fill="white"/> </clipPath> </defs> </svg>