<svg width="50" height="50" viewBox="0 0 50 50" fill="none" xmlns="http://www.w3.org/2000/svg"> <g clip-path="url(#clip0_721_44)"> <mask id="mask0_721_44" style="mask-type:luminance" maskUnits="userSpaceOnUse" x="0" y="0" width="50" height="50"> <path d="M50 0H0V50H50V0Z" fill="white"/> </mask> <g mask="url(#mask0_721_44)"> <path d="M15.7541 10.7071C15.9541 10.9071 16.1541 11.0071 16.2541 11.2071C17.2541 12.3071 17.9541 13.6071 18.3541 14.9071C18.8541 16.6071 19.1541 18.4071 19.0541 20.2071C19.0541 20.8071 18.8541 21.3071 18.8541 21.9071C18.8541 22.0071 18.8541 22.0071 18.9541 22.1071C20.7541 20.0071 21.9541 17.4071 22.3541 14.6071C22.7541 11.8071 22.3541 9.00708 21.1541 6.50708C20.0541 3.90708 18.2541 1.70709 15.9541 0.107086V0.00708008C16.2541 0.00708008 16.6541 0.00708618 16.9541 0.107086C17.5541 0.207086 18.1541 0.307104 18.7541 0.407104C19.4541 0.607104 20.1541 0.807086 20.8541 1.10709C22.5541 1.80709 24.1541 2.8071 25.5541 3.9071C27.2541 5.2071 28.7541 6.7071 30.0541 8.4071C31.3541 10.0071 32.4541 11.7071 33.4541 13.6071C34.0541 14.8071 34.5541 16.1071 35.0541 17.4071C35.4541 18.5071 35.7541 19.7071 36.0541 20.9071C36.5541 23.1071 36.6541 25.4071 36.3541 27.7071C36.1541 29.0071 35.8541 30.3071 35.4541 31.6071C35.3541 31.9071 35.2541 32.1071 35.1541 32.4071C35.1541 32.5071 35.1541 32.6071 35.1541 32.7071C35.2541 32.7071 35.3541 32.7071 35.4541 32.7071C36.8541 31.9071 37.9541 30.7071 38.6541 29.3071C39.2541 28.2071 39.6541 27.0071 39.8541 25.7071C40.1541 24.4071 40.1541 23.0071 39.9541 21.7071C39.9541 21.6071 39.9541 21.5071 39.9541 21.3071H40.0541C40.2541 21.7071 40.5541 22.1071 40.7541 22.5071C41.2541 23.6071 41.7541 24.6071 42.1541 25.8071C42.4541 26.8071 42.7541 27.8071 42.8541 28.8071C42.9541 29.8071 43.0541 30.8071 43.0541 31.8071C43.0541 33.1071 42.8541 34.4071 42.5541 35.6071C42.1541 37.2071 41.5541 38.8071 40.7541 40.2071C39.6541 42.1071 38.3541 43.8071 36.6541 45.3071C35.5541 46.4071 34.2541 47.2071 32.8541 47.9071C31.8541 48.4071 30.8541 48.8071 29.8541 49.1071C28.0541 49.7071 26.2541 50.0071 24.3541 49.9071C22.9541 49.8071 21.5541 49.7071 20.1541 49.3071C18.2541 48.9071 16.4541 48.1071 14.7541 47.1071C12.7541 45.9071 11.0541 44.4071 9.75411 42.5071C8.95411 41.5071 8.35411 40.3071 7.95411 39.1071C7.15411 37.1071 6.85411 35.0071 6.95411 32.9071C7.05411 31.2071 7.4541 29.5071 8.1541 27.9071C9.1541 25.9071 10.3541 24.0071 11.7541 22.2071C12.8541 20.8071 13.8541 19.4071 14.7541 17.8071C15.8541 15.8071 16.2541 13.6071 15.7541 11.4071C15.6541 11.1071 15.6541 10.9071 15.6541 10.6071C15.7541 10.8071 15.7541 10.7071 15.7541 10.7071Z" fill="#F7630C"/> <path d="M28.754 32.3071C27.854 33.5071 27.654 34.2071 27.654 34.2071C27.454 35.0071 27.354 35.8071 27.354 36.6071C27.354 36.9071 27.454 37.1071 27.454 37.4071V37.5071C26.654 36.5071 26.154 35.4071 25.954 34.1071C25.754 32.9071 25.954 31.6071 26.454 30.4071C26.954 29.2071 27.754 28.2071 28.854 27.5071C28.654 27.5071 28.554 27.5071 28.354 27.5071C28.054 27.5071 27.854 27.6071 27.554 27.6071C27.254 27.7071 26.954 27.8071 26.554 27.9071C25.754 28.2071 25.054 28.6071 24.454 29.2071C23.654 29.8071 23.054 30.5071 22.354 31.2071C21.754 31.9071 21.254 32.7071 20.854 33.5071C20.554 34.1071 20.354 34.6071 20.154 35.2071C19.954 35.7071 19.854 36.2071 19.754 36.8071C19.554 37.8071 19.454 38.8071 19.654 39.8071C19.754 40.4071 19.854 41.0071 20.054 41.6071C20.054 41.7071 20.154 41.8071 20.254 42.0071V42.1071H20.154C19.554 41.8071 19.054 41.2071 18.754 40.6071C18.454 40.1071 18.354 39.6071 18.254 39.0071C18.154 38.4071 18.054 37.8071 18.254 37.2071C18.254 37.1071 18.254 37.1071 18.254 37.0071C18.154 37.2071 18.054 37.3071 17.954 37.5071C17.754 38.0071 17.454 38.5071 17.254 39.0071C17.154 39.4071 16.954 39.9071 16.954 40.4071C16.854 40.9071 16.854 41.3071 16.854 41.8071C16.854 42.4071 16.954 43.0071 17.054 43.5071C17.254 44.2071 17.554 44.9071 17.854 45.6071C18.354 46.5071 18.954 47.2071 19.654 47.9071C20.154 48.4071 20.754 48.8071 21.354 49.1071C21.754 49.3071 22.254 49.5071 22.654 49.7071C23.454 50.0071 24.254 50.1071 25.154 50.1071C25.754 50.1071 26.454 50.0071 27.054 49.8071C27.954 49.6071 28.754 49.3071 29.454 48.8071C30.354 48.3071 31.054 47.6071 31.754 46.7071C32.054 46.2071 32.354 45.7071 32.554 45.2071C32.954 44.3071 33.054 43.3071 32.954 42.4071C32.954 41.6071 32.754 40.9071 32.454 40.2071C32.054 39.3071 31.454 38.4071 30.854 37.7071C30.354 37.1071 29.854 36.4071 29.454 35.7071C29.454 35.7071 28.454 34.3071 28.754 32.3071Z" fill="#FFB507"/> </g> </g> <defs> <clipPath id="clip0_721_44"> <rect width="50" height="50" fill="white"/> </clipPath> </defs> </svg>