<svg width="150" height="150" viewBox="0 0 150 150" fill="none" xmlns="http://www.w3.org/2000/svg"> <g clip-path="url(#clip0_721_81)"> <path d="M115.33 11.8199C114.33 12.2799 113.33 11.8899 112.33 12.0899C111.856 12.4237 111.275 12.5698 110.7 12.4999C107.11 12.4999 103.53 12.5499 99.9401 12.4999C99.0801 12.5799 98.2201 12.4999 97.3601 12.4999H40.2601C39.3701 12.4999 38.4001 12.6899 37.6401 12.0199C36.9301 12.0199 36.2101 12.0199 35.5001 11.9399C34.2867 11.8855 33.1292 11.4145 32.2227 10.6062C31.3162 9.7979 30.716 8.70178 30.5234 7.5026C30.3308 6.30341 30.5574 5.07448 31.1653 4.02295C31.7731 2.97141 32.7248 2.16157 33.8601 1.72992C34.0701 1.63992 34.2701 1.51992 34.4801 1.41992H100.58C101.651 1.58538 102.635 2.10462 103.377 2.89485C104.118 3.68507 104.573 4.70076 104.67 5.77992C104.95 8.10992 104.36 10.0999 102.24 11.3799C106.01 11.3299 109.81 11.3799 113.61 11.3799C114.21 11.3599 114.87 11.2699 115.33 11.8199Z" fill="#596C76"/> <path d="M115.33 11.8199H101.17C101.882 11.2942 102.551 10.7123 103.17 10.0799C103.675 9.47143 104.038 8.75733 104.231 7.99017C104.424 7.22301 104.443 6.42233 104.285 5.64706C104.128 4.8718 103.799 4.1417 103.322 3.51051C102.845 2.87932 102.233 2.36311 101.53 1.99989C101.184 1.81719 100.85 1.61348 100.53 1.38989H115.76C118.04 2.52989 119.61 4.11989 119.51 6.89989C119.491 8.07736 119.064 9.21183 118.302 10.1093C117.539 11.0067 116.489 11.6114 115.33 11.8199Z" fill="#465A61"/> <path d="M37.6401 11.9999C38.0701 11.9999 38.5001 11.9399 38.9301 11.9399H98.5801C99.0601 11.9399 99.5801 11.9399 100.01 12.0199C100.4 12.5712 100.562 13.2522 100.46 13.9199C100.46 18.0999 100.46 22.2666 100.46 26.4199C100.503 27.4261 100.326 28.4296 99.9401 29.3599C99.3001 30.1699 98.3801 29.9499 97.5401 29.9599C82.0801 29.9599 66.6201 29.9599 51.1601 29.9599H48.8601C47.4601 29.9599 47.3201 30.1299 47.5601 31.4499C48.28 35.4748 49.6014 39.3684 51.4801 42.9999C53.6902 47.3659 56.5985 51.3415 60.0901 54.7699C63.2103 57.7963 67.1784 59.8002 71.466 60.5148C75.7536 61.2294 80.1571 60.6207 84.0901 58.7699C85.0601 58.2355 86.062 57.7613 87.0901 57.3499C87.4801 57.3499 87.6101 57.5299 87.5601 57.8599C87.4705 58.2505 87.2564 58.6015 86.9501 58.8599C83.9001 61.9499 80.9501 65.1399 77.3001 67.5999C76.9301 67.5999 76.7501 67.2599 76.5301 67.0199C76.3146 66.7317 76.0163 66.5161 75.6751 66.4017C75.3338 66.2874 74.9658 66.2798 74.6201 66.3799C74.2251 66.491 73.8759 66.7256 73.624 67.0496C73.372 67.3735 73.2305 67.7697 73.2201 68.1799C73.1001 69.6399 72.9101 71.1799 73.9101 72.4299C74.0407 72.629 74.1103 72.8619 74.1101 73.0999C73.9951 74.5376 73.9951 75.9822 74.1101 77.4199C73.3807 78.6986 73.0336 80.1598 73.1101 81.6299C73.2501 82.6999 73.3201 83.7799 74.5001 84.2299C75.6801 84.6799 76.2801 83.9199 76.8701 83.1199C76.9722 83.0182 77.095 82.9398 77.2301 82.8899C77.5163 82.877 77.8018 82.9256 78.0675 83.0326C78.3332 83.1396 78.5728 83.3024 78.7701 83.5099C86.0595 89.081 91.8639 96.3622 95.6701 104.71C96.5696 106.759 97.3476 108.859 98.0001 111C98.1801 111.56 98.6401 112.28 97.7201 112.71C96.6574 112.158 95.7342 111.371 95.0201 110.41C90.7932 106.093 85.2404 103.318 79.2501 102.53C74.7896 101.809 70.2209 102.174 65.9315 103.594C61.6421 105.015 57.7586 107.449 54.6101 110.69C50.4177 114.544 47.6542 119.704 46.7701 125.33C46.2601 128.75 46.3601 128.89 49.7701 128.89H97.5701C98.4401 128.89 99.4301 128.62 100.13 129.45C100.42 132.31 100.74 135.17 99.9501 138.01C99.3132 138.35 98.5851 138.479 97.8701 138.38H39.6901C38.9903 138.498 38.2722 138.336 37.6901 137.93C37.6901 133.77 37.5901 129.6 37.6901 125.44C37.8891 118.708 39.3511 112.072 42.0001 105.88C45.0317 98.7907 49.5265 92.4217 55.1901 87.1899C56.7857 85.6828 58.4794 84.2831 60.2601 82.9999C61.5155 82.0699 62.5354 80.8586 63.2382 79.4632C63.941 78.0679 64.3071 76.5273 64.3071 74.9649C64.3071 73.4026 63.941 71.862 63.2382 70.4666C62.5354 69.0713 61.5155 67.86 60.2601 66.9299C52.9191 61.6108 47.0126 54.5533 43.0701 46.3899C40.1899 40.4602 38.4303 34.0492 37.8801 27.4799C37.4601 22.3399 37.7901 17.1899 37.6401 11.9999Z" fill="#D7EBFD"/> <path d="M73.8502 77.6C73.3904 76.0943 73.3904 74.4857 73.8502 72.98C74.0381 72.8336 74.2722 72.7592 74.5102 72.77C74.832 72.7924 75.1548 72.7453 75.4568 72.632C75.7588 72.5186 76.033 72.3417 76.2606 72.1131C76.4882 71.8846 76.664 71.6097 76.7761 71.3073C76.8882 71.0048 76.9339 70.6817 76.9102 70.36C76.9902 69.43 76.6502 68.44 77.2602 67.58C77.8802 66.12 79.4202 65.68 80.4502 64.67C82.8202 62.34 85.3902 60.23 87.3602 57.51C87.5702 56.61 88.5402 56.42 88.9902 55.74C95.841 49.4716 100.549 41.2092 102.45 32.12C102.9 30.05 102.92 30.05 100.73 29.93C100.492 29.9217 100.256 29.8779 100.03 29.8C99.9594 29.7735 99.8951 29.7321 99.8416 29.6786C99.7882 29.6251 99.7468 29.5608 99.7202 29.49C100.28 23.68 99.8602 17.85 100 12.03H112.36C112.36 16.03 112.36 20.03 112.36 23.96C112.202 33.41 109.519 42.6457 104.59 50.71C101.718 55.4232 98.1934 59.7058 94.1202 63.43C92.6102 64.82 91.0002 66 89.3602 67.32C88.2086 68.2339 87.2784 69.3962 86.639 70.72C85.9996 72.0438 85.6674 73.4949 85.6674 74.965C85.6674 76.4352 85.9996 77.8863 86.639 79.2101C87.2784 80.5339 88.2086 81.6961 89.3602 82.61C95.2404 86.9946 100.27 92.417 104.2 98.61C108.123 104.964 110.709 112.052 111.8 119.44C112.72 125.58 112.15 131.75 112.34 137.91C111.96 138.38 111.42 138.34 110.89 138.34C107.7 138.34 104.5 138.34 101.31 138.34C101.073 138.375 100.832 138.358 100.603 138.29C100.373 138.223 100.161 138.107 99.9802 137.95V129.38C100.059 129.251 100.179 129.152 100.32 129.1C100.499 129.031 100.688 128.99 100.88 128.98C103.46 128.81 103.53 128.8 103.31 126.17C102.895 121.784 101.209 117.613 98.4602 114.17C98.2767 113.989 98.1351 113.769 98.0453 113.528C97.9555 113.286 97.9196 113.027 97.9402 112.77C97.8402 110.52 96.8002 108.55 95.9402 106.53C92.6471 98.5511 87.5304 91.4548 81.0002 85.81C79.9004 84.688 78.6359 83.7405 77.2502 83C76.8502 82.57 76.9402 82 76.9202 81.5C76.8302 78.35 76.7802 78.27 73.8502 77.6Z" fill="#C3E1FE"/> <path d="M100 137.94L112.36 137.89C113.36 138.12 114.52 137.65 115.52 138.22C115.341 138.38 115.129 138.499 114.899 138.568C114.67 138.637 114.428 138.655 114.19 138.62C110.19 138.62 106.26 138.62 102.26 138.62C104.44 140 105.01 142.07 104.62 144.45C104.496 145.476 104.036 146.432 103.313 147.169C102.59 147.907 101.643 148.385 100.62 148.53C99.9601 148.53 99.2901 148.53 98.6201 148.53H36.0001C32.0001 148.53 29.4101 144.99 30.7801 141.44C31.1355 140.435 31.7936 139.564 32.6638 138.948C33.5341 138.332 34.5738 138.001 35.6401 138C36.3101 138 36.9801 138 37.6401 137.93C38.0701 137.93 38.5001 138 38.9301 138H98.5801C99.0601 138 99.5401 138 100 137.94Z" fill="#596C76"/> <path d="M100.59 148.52C101.261 148.166 101.906 147.765 102.52 147.32C103.15 146.804 103.65 146.146 103.979 145.402C104.308 144.657 104.458 143.845 104.416 143.031C104.375 142.218 104.142 141.426 103.738 140.719C103.334 140.011 102.769 139.409 102.09 138.96C101.86 138.8 101.65 138.61 101.09 138.22H115.48C116.725 138.5 117.826 139.225 118.574 140.26C119.323 141.294 119.668 142.565 119.545 143.836C119.422 145.107 118.84 146.289 117.907 147.16C116.975 148.032 115.756 148.533 114.48 148.57C109.88 148.57 105.24 148.54 100.59 148.52Z" fill="#465A61"/> <path d="M89.1298 56.05C88.6998 56.73 87.8898 56.94 87.3598 57.52C84.1905 59.5986 80.5555 60.8595 76.7798 61.19C68.8598 61.71 62.5498 58.62 57.4798 52.67C52.129 46.5023 48.5124 39.024 46.9998 31C46.7798 29.76 47.0598 29.57 48.1998 29.57C64.8065 29.57 81.4165 29.57 98.0298 29.57C98.5998 29.57 99.1798 29.57 99.7498 29.51V29.62C100.16 30.03 99.9598 30.52 99.8998 30.98C99.1869 35.841 97.7932 40.5775 95.7598 45.05C94.003 48.9714 91.7767 52.665 89.1298 56.05Z" fill="#FDB037"/> <path d="M100.29 129.26L100.01 129.35C99.39 129.35 98.77 129.35 98.16 129.35C81.4 129.35 64.6433 129.35 47.89 129.35C46.57 129.35 46.21 129 46.24 127.69C46.3916 122.183 48.4768 116.904 52.13 112.78C56.89 107.15 62.8 103.39 70.19 102.23C74.492 101.464 78.9124 101.697 83.1101 102.911C87.3078 104.125 91.1705 106.287 94.4 109.23C95.66 110.33 96.79 111.57 97.98 112.74L98.6 113.74C100.44 118.76 100.67 124 100.29 129.26Z" fill="#FED05B"/> <path d="M72.79 79.5C72.834 79.1925 72.9384 78.8967 73.0971 78.6296C73.2558 78.3624 73.4656 78.1293 73.7146 77.9435C73.9636 77.7576 74.2468 77.6228 74.5481 77.5467C74.8493 77.4706 75.1626 77.4548 75.47 77.5C75.613 77.5191 75.7537 77.5526 75.89 77.6C76.77 77.9 77.23 78.79 77.25 80.21V82.41C77.2504 82.9 77.1003 83.3782 76.82 83.78C76.5944 84.1758 76.2405 84.4827 75.8168 84.65C75.3932 84.8173 74.925 84.835 74.49 84.7C73.03 84.33 72.71 83.16 72.74 81.81C72.7108 81.0397 72.7275 80.2684 72.79 79.5Z" fill="#FDB138"/> <path d="M72.7501 92.5699C72.7501 92.0899 72.7501 91.5699 72.7501 91.1299C72.7728 90.5432 73.0181 89.9872 73.436 89.5748C73.8539 89.1625 74.4132 88.9247 75.0001 88.9099C75.5809 88.9119 76.1386 89.1374 76.5575 89.5396C76.9764 89.9417 77.2245 90.4897 77.2501 91.0699C77.3296 92.0683 77.3296 93.0715 77.2501 94.0699C77.253 94.3639 77.1964 94.6553 77.0837 94.9268C76.971 95.1983 76.8045 95.4442 76.5943 95.6497C76.3841 95.8553 76.1346 96.0161 75.8606 96.1227C75.5866 96.2293 75.294 96.2794 75.0001 96.2699C74.7015 96.2754 74.4048 96.2203 74.128 96.1079C73.8512 95.9956 73.6 95.8282 73.3897 95.6161C73.1794 95.4039 73.0143 95.1513 72.9044 94.8735C72.7945 94.5957 72.742 94.2985 72.7501 93.9999C72.7201 93.5299 72.7501 93.0499 72.7501 92.5699Z" fill="#FDB138"/> <path d="M76.94 67.0001C77.1499 67.3542 77.2605 67.7584 77.26 68.1701V70.4201C77.26 71.9101 76.7 72.8001 75.72 73.0701C75.1852 73.1953 74.6229 73.116 74.1437 72.8477C73.6644 72.5794 73.3028 72.1415 73.13 71.6201C72.5675 70.1733 72.5216 68.5768 73 67.1001C73.162 66.7267 73.4285 66.4082 73.7674 66.1829C74.1063 65.9575 74.5031 65.835 74.91 65.8301C75.3249 65.8104 75.7367 65.9102 76.0965 66.1176C76.4563 66.3249 76.7491 66.6312 76.94 67.0001Z" fill="#FDB138"/> <path d="M89.1299 56.05C88.8699 55.43 89.3999 55.12 89.6699 54.76C94.2102 48.5857 97.3653 41.5047 98.9199 34C99.2299 32.56 99.4299 31.11 99.6999 29.68C103.41 29.46 103.41 29.46 102.61 33.01C100.709 41.3677 96.4423 49.0016 90.3199 55C89.9999 55.39 89.5199 55.7 89.1299 56.05Z" fill="#F5AA31"/> <path d="M100.29 129.26C100.049 128.843 99.9509 128.358 100.01 127.88C100.186 123.402 99.7143 118.923 98.6098 114.58C98.5799 114.294 98.5799 114.006 98.6098 113.72C102.06 117.815 103.898 123.027 103.78 128.38C103.78 129.19 103.44 129.38 102.78 129.31C102.12 129.24 101.1 129.28 100.29 129.26Z" fill="#FEC244"/> </g> <defs> <clipPath id="clip0_721_81"> <rect width="150" height="150" fill="white"/> </clipPath> </defs> </svg>