<svg width="30" height="30" viewBox="0 0 30 30" fill="none" xmlns="http://www.w3.org/2000/svg">
<path d="M13.5268 5.25H16.4732C17.6924 5.24999 18.6758 5.24998 19.4722 5.31505C20.2922 5.38204 21.0124 5.52358 21.6787 5.86309C22.7371 6.40238 23.5976 7.26289 24.1369 8.32131C24.4764 8.98763 24.618 9.70784 24.685 10.5278C24.75 11.3242 24.75 12.3076 24.75 13.5268V13.875C24.75 14.4963 24.2463 15 23.625 15C23.0037 15 22.5 14.4963 22.5 13.875V13.575C22.5 12.2963 22.4991 11.405 22.4424 10.711C22.3868 10.0302 22.2831 9.63906 22.1321 9.34278C21.8086 8.70774 21.2923 8.19143 20.6572 7.86785C20.3609 7.71689 19.9698 7.6132 19.289 7.55757C18.595 7.50088 17.7037 7.5 16.425 7.5H13.575C12.2963 7.5 11.405 7.50088 10.711 7.55757C10.0302 7.6132 9.63906 7.71689 9.34278 7.86785C8.70774 8.19143 8.19143 8.70774 7.86785 9.34278C7.71689 9.63906 7.6132 10.0302 7.55757 10.711C7.50088 11.405 7.5 12.2963 7.5 13.575V15.659L9.01885 14.1402C10.044 13.115 11.706 13.115 12.7312 14.1402L16.875 18.284L19.0795 16.0795C19.5188 15.6402 20.2312 15.6402 20.6705 16.0795C21.1098 16.5188 21.1098 17.2312 20.6705 17.6705L17.6705 20.6705C17.2312 21.1098 16.5188 21.1098 16.0795 20.6705L11.1402 15.7312C10.9937 15.5847 10.7563 15.5847 10.6098 15.7312L7.52823 18.8128C7.5358 18.9819 7.5454 19.14 7.55757 19.289C7.6132 19.9698 7.71689 20.3609 7.86785 20.6572C8.19143 21.2923 8.70774 21.8086 9.34278 22.1321C9.63906 22.2831 10.0302 22.3868 10.711 22.4424C11.405 22.4991 12.2963 22.5 13.575 22.5H15.375C15.9963 22.5 16.5 23.0037 16.5 23.625C16.5 24.2463 15.9963 24.75 15.375 24.75H13.5268C12.3076 24.75 11.3242 24.75 10.5278 24.685C9.70784 24.618 8.98763 24.4764 8.32131 24.1369C7.26289 23.5976 6.40238 22.7371 5.86309 21.6787C5.52358 21.0124 5.38204 20.2922 5.31505 19.4722C5.29255 19.1969 5.27783 18.8992 5.26821 18.5772C5.24717 18.4614 5.24436 18.343 5.25979 18.2265C5.24999 17.7039 5.24999 17.1219 5.25 16.4732V13.5268C5.24999 12.3076 5.24998 11.3242 5.31505 10.5278C5.38204 9.70784 5.52358 8.98763 5.86309 8.3213C6.40238 7.26289 7.26289 6.40238 8.32131 5.86309C8.98763 5.52358 9.70784 5.38204 10.5278 5.31505C11.3242 5.24998 12.3076 5.24999 13.5268 5.25Z" fill="#4A4A4A"/>
<path d="M18.75 13.5C19.9926 13.5 21 12.4926 21 11.25C21 10.0074 19.9926 9 18.75 9C17.5074 9 16.5 10.0074 16.5 11.25C16.5 12.4926 17.5074 13.5 18.75 13.5Z" fill="#4A4A4A"/>
<path d="M23.625 16.875C24.2463 16.875 24.75 17.3787 24.75 18V20.625H27.375C27.9963 20.625 28.5 21.1287 28.5 21.75C28.5 22.3713 27.9963 22.875 27.375 22.875H24.75V25.5C24.75 26.1213 24.2463 26.625 23.625 26.625C23.0037 26.625 22.5 26.1213 22.5 25.5V22.875H19.875C19.2537 22.875 18.75 22.3713 18.75 21.75C18.75 21.1287 19.2537 20.625 19.875 20.625H22.5V18C22.5 17.3787 23.0037 16.875 23.625 16.875Z" fill="#4A4A4A"/>
</svg>
