<svg width="43" height="44" viewBox="0 0 43 44" fill="none" xmlns="http://www.w3.org/2000/svg">
<path d="M35.0918 11.1275L5.03451 14.4819C4.4098 14.5519 3.805 14.7443 3.25465 15.0481C2.70431 15.3519 2.21921 15.7611 1.82702 16.2524C1.43484 16.7436 1.14325 17.3074 0.968939 17.9113C0.79463 18.5153 0.741004 19.1477 0.811112 19.7724L3.00797 39.4224C3.14858 40.6831 3.78424 41.8363 4.7751 42.6284C5.76596 43.4204 7.03086 43.7864 8.29156 43.6458L38.3489 40.2915C39.6094 40.1499 40.7624 39.5142 41.5548 38.5236C42.3472 37.5331 42.7144 36.2687 42.5757 35.0079L40.3754 15.3509C40.3062 14.7265 40.1146 14.1218 39.8115 13.5715C39.5085 13.0212 39.0999 12.5361 38.6092 12.1438C38.1185 11.7515 37.5552 11.4599 36.9517 11.2855C36.3481 11.1111 35.7161 11.0574 35.0918 11.1275Z" fill="#1F1F38"/>
<path d="M10.6654 39.0229C10.1178 39.1003 9.55985 39.0529 9.03318 38.8844C8.50651 38.7158 8.02474 38.4305 7.62382 38.0496C6.73822 37.1898 6.20417 36.0313 6.12562 34.7995C5.96225 33.3292 6.21253 32.1056 6.86602 31.1149C7.18277 30.632 7.60593 30.228 8.10302 29.9339C8.60012 29.6399 9.15796 29.4636 9.73376 29.4186C10.2784 29.3412 10.8336 29.3897 11.3566 29.5602C11.8796 29.7307 12.3566 30.0188 12.751 30.4023C13.5748 31.1844 14.0719 32.2863 14.2283 33.7046C14.3847 35.1228 14.1414 36.3707 13.4879 37.3544C13.177 37.8304 12.7606 38.2285 12.2712 38.5178C11.7817 38.8072 11.2323 38.98 10.6654 39.0229ZM9.87281 31.2366C9.56319 31.2644 9.26584 31.371 9.00908 31.5462C8.75231 31.7215 8.54468 31.9595 8.40593 32.2377C8.06486 32.9324 7.9494 33.7162 8.0757 34.4797C8.11785 35.2518 8.40385 35.9905 8.89256 36.5897C9.08899 36.8158 9.33693 36.9913 9.61545 37.1014C9.89398 37.2114 10.1949 37.2529 10.4928 37.2222C10.7908 37.1916 11.0769 37.0896 11.3272 36.9251C11.5774 36.7605 11.7844 36.5382 11.9306 36.2769C12.2728 35.5887 12.386 34.8092 12.2539 34.0522C12.2144 33.2615 11.9356 32.5014 11.4544 31.8727C11.2708 31.636 11.0277 31.4523 10.7497 31.3405C10.4718 31.2288 10.1692 31.1929 9.87281 31.2366Z" fill="white"/>
<path d="M19.6064 30.2111L16.6865 30.5587L16.9403 32.8355L19.6238 32.5331L19.815 34.226L17.1315 34.5284L17.5208 38.1087L15.6541 38.3207L14.6113 29.0536L19.3978 28.5183L19.6064 30.2111Z" fill="white"/>
<path d="M25.265 29.5678L22.3452 29.9154L22.5954 32.1922L25.2824 31.8898L25.4736 33.5826L22.7866 33.8885L23.1864 37.4827L21.3162 37.6913L20.2734 28.4311L25.0704 27.8645L25.265 29.5678Z" fill="white"/>
<path d="M31.9735 36.4854L27.0028 37.0416L25.96 27.7779L30.7395 27.2461L30.9307 28.9494L28.0178 29.2726L28.2472 31.3304L30.955 31.028L31.1462 32.7209L28.4349 33.0268L28.6713 35.1471L31.7754 34.7995L31.9735 36.4854Z" fill="white"/>
<path d="M39.7675 35.6093L37.6193 35.8491L36.0655 33.6106C35.9508 33.4368 35.8361 33.2873 35.7179 33.1552C35.6241 33.0314 35.5207 32.9151 35.4086 32.8076C35.3132 32.7275 35.2081 32.6598 35.0957 32.606C34.986 32.56 34.8656 32.5456 34.7481 32.5643L34.2441 32.6164L34.6473 36.162L32.7772 36.3705L31.7344 27.1069L34.689 26.7593C36.6947 26.5334 37.7966 27.2633 37.9808 28.9388C38.0186 29.2434 38.0069 29.5521 37.9461 29.853C37.8919 30.1283 37.792 30.3927 37.6506 30.6351C37.5105 30.8727 37.3347 31.0873 37.1292 31.2712C36.9118 31.4586 36.6683 31.6131 36.4062 31.73V31.7579C36.5453 31.7888 36.6766 31.848 36.792 31.9317C36.9256 32.02 37.0502 32.1213 37.1639 32.2341C37.2875 32.3543 37.4036 32.482 37.5116 32.6164L37.8313 33.0231L39.7675 35.6093ZM33.82 28.4834L34.1085 31.0626L34.9184 30.9757C35.0977 30.9636 35.2723 30.9132 35.4306 30.8281C35.5889 30.743 35.7271 30.625 35.8361 30.4822C35.9448 30.3381 36.0239 30.1739 36.0686 29.9991C36.1134 29.8242 36.123 29.6422 36.0968 29.4637C36.0099 28.6572 35.5337 28.2992 34.6647 28.3965L33.82 28.4834Z" fill="white"/>
<path d="M10.6654 39.0229C10.1178 39.1003 9.55985 39.0529 9.03318 38.8844C8.50651 38.7158 8.02474 38.4305 7.62382 38.0496C6.73822 37.1898 6.20417 36.0313 6.12562 34.7995C5.96225 33.3292 6.21253 32.1056 6.86602 31.1149C7.18277 30.632 7.60593 30.228 8.10302 29.9339C8.60012 29.6399 9.15796 29.4636 9.73376 29.4186C10.2784 29.3412 10.8336 29.3897 11.3566 29.5602C11.8796 29.7307 12.3566 30.0188 12.751 30.4023C13.5748 31.1844 14.0719 32.2863 14.2283 33.7046C14.3847 35.1228 14.1414 36.3707 13.4879 37.3544C13.177 37.8304 12.7606 38.2285 12.2712 38.5178C11.7817 38.8072 11.2323 38.98 10.6654 39.0229ZM9.87281 31.2366C9.56319 31.2644 9.26584 31.371 9.00908 31.5462C8.75231 31.7215 8.54468 31.9595 8.40593 32.2377C8.06486 32.9324 7.9494 33.7162 8.0757 34.4797C8.11785 35.2518 8.40385 35.9905 8.89256 36.5897C9.08899 36.8158 9.33693 36.9913 9.61545 37.1014C9.89398 37.2114 10.1949 37.2529 10.4928 37.2222C10.7908 37.1916 11.0769 37.0896 11.3272 36.9251C11.5774 36.7605 11.7844 36.5382 11.9306 36.2769C12.2728 35.5887 12.386 34.8092 12.2539 34.0522C12.2144 33.2615 11.9356 32.5014 11.4544 31.8727C11.2708 31.636 11.0277 31.4523 10.7497 31.3405C10.4718 31.2288 10.1692 31.1929 9.87281 31.2366Z" fill="#FFCB00"/>
<path d="M19.6064 30.2111L16.6865 30.5587L16.9403 32.8355L19.6238 32.5331L19.815 34.226L17.1315 34.5284L17.5208 38.1087L15.6541 38.3207L14.6113 29.0536L19.3978 28.5183L19.6064 30.2111Z" fill="#FFCB00"/>
<path d="M25.265 29.5678L22.3452 29.9154L22.5954 32.1922L25.2824 31.8898L25.4736 33.5826L22.7866 33.8885L23.1864 37.4827L21.3162 37.6913L20.2734 28.4311L25.0704 27.8645L25.265 29.5678Z" fill="#FFCB00"/>
<path d="M31.9735 36.4854L27.0028 37.0416L25.96 27.7779L30.7395 27.2461L30.9307 28.9494L28.0178 29.2726L28.2472 31.3304L30.955 31.028L31.1462 32.7209L28.4349 33.0268L28.6713 35.1471L31.7754 34.7995L31.9735 36.4854Z" fill="#FFCB00"/>
<path d="M39.7675 35.6093L37.6193 35.8491L36.0655 33.6106C35.9508 33.4368 35.8361 33.2873 35.7179 33.1552C35.6241 33.0314 35.5207 32.9151 35.4086 32.8076C35.3132 32.7275 35.2081 32.6598 35.0957 32.606C34.986 32.56 34.8656 32.5456 34.7481 32.5643L34.2441 32.6164L34.6473 36.162L32.7772 36.3705L31.7344 27.1069L34.689 26.7593C36.6947 26.5334 37.7966 27.2633 37.9808 28.9388C38.0186 29.2434 38.0069 29.5521 37.9461 29.853C37.8919 30.1283 37.792 30.3927 37.6506 30.6351C37.5105 30.8727 37.3347 31.0873 37.1292 31.2712C36.9118 31.4586 36.6683 31.6131 36.4062 31.73V31.7579C36.5453 31.7888 36.6766 31.848 36.792 31.9317C36.9256 32.02 37.0502 32.1213 37.1639 32.2341C37.2875 32.3543 37.4036 32.482 37.5116 32.6164L37.8313 33.0231L39.7675 35.6093ZM33.82 28.4834L34.1085 31.0626L34.9184 30.9757C35.0977 30.9636 35.2723 30.9132 35.4306 30.8281C35.5889 30.743 35.7271 30.625 35.8361 30.4822C35.9448 30.3381 36.0239 30.1739 36.0686 29.9991C36.1134 29.8242 36.123 29.6422 36.0968 29.4637C36.0099 28.6572 35.5337 28.2992 34.6647 28.3965L33.82 28.4834Z" fill="#FFCB00"/>
<path d="M10.6654 39.0229C10.1178 39.1003 9.55985 39.0529 9.03318 38.8844C8.50651 38.7158 8.02474 38.4305 7.62382 38.0496C6.73822 37.1898 6.20417 36.0313 6.12562 34.7995C5.96225 33.3292 6.21253 32.1056 6.86602 31.1149C7.18277 30.632 7.60593 30.228 8.10302 29.9339C8.60012 29.6399 9.15796 29.4636 9.73376 29.4186C10.2784 29.3412 10.8336 29.3897 11.3566 29.5602C11.8796 29.7307 12.3566 30.0188 12.751 30.4023C13.5748 31.1844 14.0719 32.2863 14.2283 33.7046C14.3847 35.1228 14.1414 36.3707 13.4879 37.3544C13.177 37.8304 12.7606 38.2285 12.2712 38.5178C11.7817 38.8072 11.2323 38.98 10.6654 39.0229ZM9.87281 31.2366C9.56319 31.2644 9.26584 31.371 9.00908 31.5462C8.75231 31.7215 8.54468 31.9595 8.40593 32.2377C8.06486 32.9324 7.9494 33.7162 8.0757 34.4797C8.11785 35.2518 8.40385 35.9905 8.89256 36.5897C9.08899 36.8158 9.33693 36.9913 9.61545 37.1014C9.89398 37.2114 10.1949 37.2529 10.4928 37.2222C10.7908 37.1916 11.0769 37.0896 11.3272 36.9251C11.5774 36.7605 11.7844 36.5382 11.9306 36.2769C12.2728 35.5887 12.386 34.8092 12.2539 34.0522C12.2144 33.2615 11.9356 32.5014 11.4544 31.8727C11.2708 31.636 11.0277 31.4523 10.7497 31.3405C10.4718 31.2288 10.1692 31.1929 9.87281 31.2366Z" fill="#FFCB00"/>
<path d="M19.6064 30.2111L16.6865 30.5587L16.9403 32.8355L19.6238 32.5331L19.815 34.226L17.1315 34.5284L17.5208 38.1087L15.6541 38.3207L14.6113 29.0536L19.3978 28.5183L19.6064 30.2111Z" fill="#FFCB00"/>
<path d="M25.265 29.5678L22.3452 29.9154L22.5954 32.1922L25.2824 31.8898L25.4736 33.5826L22.7866 33.8885L23.1864 37.4827L21.3162 37.6913L20.2734 28.4311L25.0704 27.8645L25.265 29.5678Z" fill="#FFCB00"/>
<path d="M31.9735 36.4854L27.0028 37.0416L25.96 27.7779L30.7395 27.2461L30.9307 28.9494L28.0178 29.2726L28.2472 31.3304L30.955 31.028L31.1462 32.7209L28.4349 33.0268L28.6713 35.1471L31.7754 34.7995L31.9735 36.4854Z" fill="#FFCB00"/>
<path d="M39.7675 35.6093L37.6193 35.8491L36.0655 33.6106C35.9508 33.4368 35.8361 33.2873 35.7179 33.1552C35.6241 33.0314 35.5207 32.9151 35.4086 32.8076C35.3132 32.7275 35.2081 32.6598 35.0957 32.606C34.986 32.56 34.8656 32.5456 34.7481 32.5643L34.2441 32.6164L34.6473 36.162L32.7772 36.3705L31.7344 27.1069L34.689 26.7593C36.6947 26.5334 37.7966 27.2633 37.9808 28.9388C38.0186 29.2434 38.0069 29.5521 37.9461 29.853C37.8919 30.1283 37.792 30.3927 37.6506 30.6351C37.5105 30.8727 37.3347 31.0873 37.1292 31.2712C36.9118 31.4586 36.6683 31.6131 36.4062 31.73V31.7579C36.5453 31.7888 36.6766 31.848 36.792 31.9317C36.9256 32.02 37.0502 32.1213 37.1639 32.2341C37.2875 32.3543 37.4036 32.482 37.5116 32.6164L37.8313 33.0231L39.7675 35.6093ZM33.82 28.4834L34.1085 31.0626L34.9184 30.9757C35.0977 30.9636 35.2723 30.9132 35.4306 30.8281C35.5889 30.743 35.7271 30.625 35.8361 30.4822C35.9448 30.3381 36.0239 30.1739 36.0686 29.9991C36.1134 29.8242 36.123 29.6422 36.0968 29.4637C36.0099 28.6572 35.5337 28.2992 34.6647 28.3965L33.82 28.4834Z" fill="#FFCB00"/>
<path d="M10.6654 39.0229C10.1178 39.1003 9.55985 39.0529 9.03318 38.8844C8.50651 38.7158 8.02474 38.4305 7.62382 38.0496C6.73822 37.1898 6.20417 36.0313 6.12562 34.7995C5.96225 33.3292 6.21253 32.1056 6.86602 31.1149C7.18277 30.632 7.60593 30.228 8.10302 29.9339C8.60012 29.6399 9.15796 29.4636 9.73376 29.4186C10.2784 29.3412 10.8336 29.3897 11.3566 29.5602C11.8796 29.7307 12.3566 30.0188 12.751 30.4023C13.5748 31.1844 14.0719 32.2863 14.2283 33.7046C14.3847 35.1228 14.1414 36.3707 13.4879 37.3544C13.177 37.8304 12.7606 38.2285 12.2712 38.5178C11.7817 38.8072 11.2323 38.98 10.6654 39.0229ZM9.87281 31.2366C9.56319 31.2644 9.26584 31.371 9.00908 31.5462C8.75231 31.7215 8.54468 31.9595 8.40593 32.2377C8.06486 32.9324 7.9494 33.7162 8.0757 34.4797C8.11785 35.2518 8.40385 35.9905 8.89256 36.5897C9.08899 36.8158 9.33693 36.9913 9.61545 37.1014C9.89398 37.2114 10.1949 37.2529 10.4928 37.2222C10.7908 37.1916 11.0769 37.0896 11.3272 36.9251C11.5774 36.7605 11.7844 36.5382 11.9306 36.2769C12.2728 35.5887 12.386 34.8092 12.2539 34.0522C12.2144 33.2615 11.9356 32.5014 11.4544 31.8727C11.2708 31.636 11.0277 31.4523 10.7497 31.3405C10.4718 31.2288 10.1692 31.1929 9.87281 31.2366Z" fill="#FFCB00"/>
<path d="M19.6064 30.2111L16.6865 30.5587L16.9403 32.8355L19.6238 32.5331L19.815 34.226L17.1315 34.5284L17.5208 38.1087L15.6541 38.3207L14.6113 29.0536L19.3978 28.5183L19.6064 30.2111Z" fill="#FFCB00"/>
<path d="M25.265 29.5678L22.3452 29.9154L22.5954 32.1922L25.2824 31.8898L25.4736 33.5826L22.7866 33.8885L23.1864 37.4827L21.3162 37.6913L20.2734 28.4311L25.0704 27.8645L25.265 29.5678Z" fill="#FFCB00"/>
<path d="M31.9735 36.4854L27.0028 37.0416L25.96 27.7779L30.7395 27.2461L30.9307 28.9494L28.0178 29.2726L28.2472 31.3304L30.955 31.028L31.1462 32.7209L28.4349 33.0268L28.6713 35.1471L31.7754 34.7995L31.9735 36.4854Z" fill="#FFCB00"/>
<path d="M39.7675 35.6093L37.6193 35.8491L36.0655 33.6106C35.9508 33.4368 35.8361 33.2873 35.7179 33.1552C35.6241 33.0314 35.5207 32.9151 35.4086 32.8076C35.3132 32.7275 35.2081 32.6598 35.0957 32.606C34.986 32.56 34.8656 32.5456 34.7481 32.5643L34.2441 32.6164L34.6473 36.162L32.7772 36.3705L31.7344 27.1069L34.689 26.7593C36.6947 26.5334 37.7966 27.2633 37.9808 28.9388C38.0186 29.2434 38.0069 29.5521 37.9461 29.853C37.8919 30.1283 37.792 30.3927 37.6506 30.6351C37.5105 30.8727 37.3347 31.0873 37.1292 31.2712C36.9118 31.4586 36.6683 31.6131 36.4062 31.73V31.7579C36.5453 31.7888 36.6766 31.848 36.792 31.9317C36.9256 32.02 37.0502 32.1213 37.1639 32.2341C37.2875 32.3543 37.4036 32.482 37.5116 32.6164L37.8313 33.0231L39.7675 35.6093ZM33.82 28.4834L34.1085 31.0626L34.9184 30.9757C35.0977 30.9636 35.2723 30.9132 35.4306 30.8281C35.5889 30.743 35.7271 30.625 35.8361 30.4822C35.9448 30.3381 36.0239 30.1739 36.0686 29.9991C36.1134 29.8242 36.123 29.6422 36.0968 29.4637C36.0099 28.6572 35.5337 28.2992 34.6647 28.3965L33.82 28.4834Z" fill="#FFCB00"/>
<path d="M5.70162 26.6308L5.59038 25.6331C5.70763 25.7246 5.83472 25.8027 5.96928 25.866C6.1173 25.9347 6.27229 25.9871 6.43158 26.0225C6.58841 26.0587 6.74751 26.0842 6.90779 26.0989C7.05345 26.1129 7.20011 26.1129 7.34578 26.0989C7.70627 26.0882 8.05073 25.9474 8.3156 25.7027C8.41742 25.5824 8.49191 25.4415 8.53392 25.2897C8.57593 25.1379 8.58444 24.9787 8.55891 24.8232C8.54283 24.6484 8.48695 24.4795 8.39555 24.3296C8.30398 24.1869 8.18599 24.0631 8.04794 23.9647C7.88758 23.8526 7.71911 23.7527 7.54391 23.6657L6.92519 23.3876C6.7032 23.2922 6.48624 23.1855 6.27517 23.0678C6.08026 22.9635 5.89923 22.835 5.73637 22.6855C5.57857 22.5402 5.44585 22.3699 5.34357 22.1814C5.23756 21.963 5.17053 21.7277 5.14546 21.4862C5.10502 21.188 5.13478 20.8845 5.23236 20.5999C5.32424 20.3508 5.47026 20.1252 5.6599 19.9394C5.84273 19.7619 6.05735 19.6204 6.29255 19.5223C6.54273 19.418 6.80578 19.3479 7.07466 19.3137C7.53363 19.2288 8.00681 19.2647 8.4477 19.418L8.55197 20.3739C8.10942 20.1121 7.58992 20.0114 7.08159 20.0889C6.92156 20.1019 6.76448 20.1394 6.61582 20.2001C6.46653 20.2532 6.32771 20.332 6.20565 20.433C6.09031 20.5381 5.99799 20.6659 5.9345 20.8084C5.86944 20.974 5.84907 21.1538 5.87542 21.3298C5.89069 21.4938 5.93794 21.6532 6.01447 21.7991C6.09008 21.9347 6.19306 22.053 6.31688 22.1467C6.46356 22.2522 6.6181 22.3464 6.77918 22.4282C6.96341 22.5151 7.16155 22.609 7.39792 22.7063C7.6343 22.8037 7.86371 22.9218 8.09313 23.0365C8.29881 23.1538 8.49314 23.29 8.67363 23.4432C8.8432 23.5947 8.98652 23.7733 9.09771 23.9716C9.2151 24.1869 9.28948 24.4231 9.31671 24.6668C9.36322 24.9779 9.33704 25.2956 9.24022 25.5949C9.15079 25.8436 9.0071 26.0692 8.81961 26.2554C8.62593 26.4367 8.39942 26.5795 8.15222 26.676C7.88262 26.7737 7.60273 26.8402 7.31798 26.8741C7.19649 26.8832 7.07447 26.8832 6.95298 26.8741C6.80177 26.8755 6.65069 26.865 6.5011 26.8428C6.35079 26.8252 6.20205 26.7962 6.05618 26.7559C5.93053 26.7395 5.80972 26.6969 5.70162 26.6308Z" fill="white"/>
<path d="M11.1764 23.5374L11.4823 26.273L10.7523 26.353L9.94238 19.0985L11.663 18.9073C11.9447 18.8557 12.234 18.8637 12.5124 18.9308C12.7908 18.9978 13.0521 19.1225 13.2794 19.2966C13.715 19.6945 13.9771 20.2474 14.0094 20.8365C14.0579 21.1426 14.0455 21.4553 13.9727 21.7565C13.8999 22.0578 13.7682 22.3417 13.5853 22.5919C13.3971 22.837 13.1585 23.0389 12.8857 23.184C12.6129 23.3291 12.3121 23.414 12.0037 23.4331L11.1764 23.5374ZM10.7592 19.7937L11.1068 22.7657L11.8716 22.6788C12.0832 22.6693 12.2907 22.6174 12.4818 22.526C12.6729 22.4346 12.8437 22.3057 12.9839 22.1469C13.1063 21.9784 13.1932 21.7867 13.2392 21.5835C13.2852 21.3803 13.2894 21.1699 13.2516 20.9651C13.1508 20.0092 12.6015 19.5747 11.6283 19.6963L10.7592 19.7937Z" fill="white"/>
<path d="M19.0674 25.4318L15.7547 25.8038L14.9482 18.5493L18.1184 18.2017L18.2088 18.9699L15.7755 19.2375L16.0432 21.6707L18.3026 21.4205L18.3895 22.1852L16.1301 22.4355L16.4186 24.973L18.9978 24.6879L19.0674 25.4318Z" fill="white"/>
<path d="M24.4899 24.521C23.9985 24.8786 23.417 25.0917 22.811 25.1363C22.403 25.1933 21.9874 25.1545 21.597 25.023C21.2066 24.8915 20.8523 24.6708 20.562 24.3785C19.9145 23.689 19.5273 22.7954 19.467 21.8514C19.3077 20.8421 19.5175 19.8092 20.058 18.942C20.2934 18.568 20.6119 18.2534 20.9887 18.0225C21.3655 17.7916 21.7904 17.6507 22.2305 17.6107C22.7355 17.5311 23.2522 17.5764 23.7356 17.7428L23.8364 18.6431C23.3651 18.4058 22.8344 18.3127 22.3105 18.3754C21.9738 18.4037 21.6486 18.5114 21.3616 18.6896C21.0746 18.8679 20.8339 19.1116 20.6593 19.4008C20.2579 20.0977 20.1105 20.9121 20.2422 21.7054C20.2811 22.465 20.5849 23.187 21.1008 23.7459C21.3212 23.9779 21.5941 24.1537 21.8965 24.2583C22.199 24.363 22.5221 24.3935 22.8388 24.3472C23.4155 24.2975 23.9623 24.0691 24.403 23.6937L24.4899 24.521Z" fill="white"/>
<path d="M26.3253 17.2734L26.4018 17.9999L25.7935 18.0729L26.4435 23.8675L27.0553 23.798L27.1317 24.5279L25.1678 24.7365L25.0913 24.0065L25.6996 23.937L25.0461 18.1424L24.4378 18.212L24.3613 17.482L26.3253 17.2734Z" fill="white"/>
<path d="M33.006 23.8743L32.1961 23.9647L31.3132 22.0077L28.661 22.3031L28.2612 24.4061L27.4443 24.493L29.0364 16.9778L29.7907 16.8875L33.006 23.8743ZM30.9829 21.2603L29.6516 18.2779C29.5894 18.1233 29.5394 17.9641 29.5021 17.8016H29.4848C29.4797 17.9668 29.4658 18.1316 29.4431 18.2952L28.8174 21.4932L30.9829 21.2603Z" fill="white"/>
<path d="M37.1697 23.4053L33.9266 23.7702L33.1201 16.5157L33.8466 16.4358L34.5696 22.9221L37.0828 22.6405L37.1697 23.4053Z" fill="white"/>
<path d="M16.5606 1.88591L10.2676 14.3818L10.8574 14.6789L17.1504 2.18297L16.5606 1.88591Z" fill="#1F1F38"/>
<path d="M17.7766 1.78917L17.332 2.27759L29.1644 13.048L29.609 12.5596L17.7766 1.78917Z" fill="#1F1F38"/>
<path d="M18.657 1.7423C18.657 2.04137 18.5683 2.33371 18.4021 2.58237C18.236 2.83102 17.9998 3.02483 17.7235 3.13928C17.4472 3.25372 17.1432 3.28367 16.8499 3.22533C16.5566 3.16698 16.2872 3.02297 16.0757 2.8115C15.8642 2.60003 15.7202 2.33061 15.6619 2.03729C15.6035 1.74398 15.6335 1.43995 15.7479 1.16366C15.8624 0.887361 16.0562 0.6512 16.3048 0.485051C16.5535 0.318902 16.8458 0.230225 17.1449 0.230225C17.3435 0.230225 17.5401 0.269333 17.7235 0.345322C17.907 0.421311 18.0737 0.53269 18.2141 0.673099C18.3545 0.813509 18.4659 0.980204 18.5419 1.16366C18.6179 1.34711 18.657 1.54374 18.657 1.7423Z" fill="#1F1F38"/>
<path d="M17.9901 1.74189C17.9901 1.90895 17.9406 2.07226 17.8478 2.21117C17.755 2.35008 17.623 2.45834 17.4687 2.52227C17.3144 2.5862 17.1445 2.60293 16.9807 2.57034C16.8168 2.53775 16.6663 2.4573 16.5482 2.33917C16.43 2.22104 16.3496 2.07053 16.317 1.90668C16.2844 1.74283 16.3012 1.57299 16.3651 1.41864C16.429 1.2643 16.5373 1.13238 16.6762 1.03957C16.8151 0.946752 16.9784 0.897217 17.1455 0.897217C17.3689 0.899034 17.5827 0.988607 17.7407 1.14662C17.8988 1.30464 17.9883 1.51843 17.9901 1.74189Z" fill="#FFCB00"/>
</svg>
