<svg width="39" height="44" viewBox="0 0 39 44" fill="none" xmlns="http://www.w3.org/2000/svg">
<path d="M19.0658 1.6008L12.7793 10.5989L13.258 10.9333L19.5445 1.93523L19.0658 1.6008Z" fill="#011F37"/>
<path d="M20.1311 1.55729L19.7002 1.95142L28.4038 11.4664L28.8346 11.0722L20.1311 1.55729Z" fill="#011F37"/>
<path d="M20.8883 1.50128C20.8883 1.76609 20.8097 2.02495 20.6625 2.24509C20.5153 2.46522 20.3061 2.63674 20.0614 2.73792C19.8167 2.8391 19.5474 2.8654 19.2877 2.81348C19.0281 2.76157 18.7896 2.63377 18.6026 2.44627C18.4156 2.25878 18.2884 2.02002 18.2372 1.76021C18.186 1.50039 18.213 1.23122 18.3148 0.986758C18.4166 0.742298 18.5887 0.533548 18.8092 0.386926C19.0297 0.240303 19.2888 0.162403 19.5536 0.16309C19.7291 0.16309 19.903 0.197729 20.0651 0.265021C20.2273 0.332314 20.3746 0.43094 20.4986 0.555248C20.6226 0.679555 20.7208 0.827101 20.7877 0.989436C20.8546 1.15177 20.8887 1.32571 20.8883 1.50128Z" fill="#011F37"/>
<path d="M19.5531 0.764364C19.7003 0.760908 19.8453 0.801462 19.9694 0.880838C20.0934 0.960213 20.191 1.0748 20.2496 1.20994C20.3083 1.34509 20.3252 1.49465 20.2984 1.63948C20.2715 1.78432 20.2021 1.91785 20.0989 2.023C19.9957 2.12815 19.8635 2.20013 19.7192 2.22974C19.5749 2.25935 19.4251 2.24524 19.2889 2.18922C19.1526 2.13319 19.0362 2.0378 18.9545 1.91525C18.8727 1.79269 18.8294 1.64854 18.8301 1.50124C18.8301 1.30819 18.9058 1.12284 19.041 0.985044C19.1762 0.847247 19.36 0.768006 19.5531 0.764364Z" fill="#00F7FF"/>
<path d="M6.08472 38.3969C4.84818 38.4035 3.65878 37.9228 2.77406 37.0589C1.88933 36.195 1.38046 35.0174 1.35763 33.7811L0.89535 15.4497C0.878226 14.8278 0.983765 14.2086 1.20594 13.6275C1.42812 13.0463 1.76259 12.5147 2.19024 12.0628C2.6179 11.6109 3.13037 11.2477 3.69839 10.9939C4.26642 10.7401 4.87887 10.6007 5.50078 10.5836L33.5435 9.88842C34.1649 9.86945 34.7838 9.97386 35.3646 10.1956C35.9453 10.4174 36.4764 10.7521 36.9269 11.1803C37.3775 11.6086 37.7387 12.122 37.9896 12.6907C38.2406 13.2595 38.3762 13.8723 38.3888 14.4939L38.8511 32.8287C38.881 34.0835 38.4117 35.2989 37.5462 36.208C36.6808 37.1171 35.49 37.6456 34.2352 37.6774L6.2029 38.3969H6.08472ZM33.6617 10.4758H33.5574L5.51816 11.171C4.41921 11.2001 3.37671 11.6641 2.61949 12.4611C1.86227 13.258 1.4522 14.3229 1.47928 15.4219L1.93809 33.7533C1.96873 34.8347 2.41833 35.8619 3.19201 36.618C3.96569 37.3742 5.0029 37.8002 6.08472 37.806H6.18552L34.2283 37.0935C34.7728 37.0803 35.3094 36.9599 35.8074 36.7392C36.3053 36.5185 36.755 36.2019 37.1306 35.8075C37.5071 35.414 37.8016 34.9495 37.9967 34.4411C38.1919 33.9327 38.2838 33.3904 38.2672 32.8461L37.8083 14.5112C37.7838 13.4294 37.3355 12.4005 36.56 11.6458C35.7845 10.8911 34.7438 10.471 33.6617 10.4758Z" fill="#011F37"/>
<path d="M31.7082 9.79117L5.16007 12.756C4.05036 12.8843 3.03678 13.4473 2.34156 14.3217C1.64634 15.1961 1.32622 16.3105 1.45139 17.4205L3.38741 34.7752C3.44879 35.3266 3.61828 35.8604 3.88619 36.3462C4.1541 36.832 4.51518 37.2602 4.94875 37.6062C5.38232 37.9523 5.87988 38.2095 6.41296 38.3631C6.94604 38.5167 7.50417 38.5636 8.05541 38.5013L34.6036 35.5399C35.1549 35.4785 35.6888 35.309 36.1745 35.0411C36.6603 34.7732 37.0885 34.4121 37.4346 33.9785C37.7807 33.545 38.0379 33.0474 38.1914 32.5143C38.345 31.9813 38.392 31.4231 38.3296 30.8719L36.3936 13.5172C36.3323 12.9642 36.1623 12.4288 35.8932 11.9418C35.6242 11.4548 35.2615 11.0258 34.8261 10.6795C34.3906 10.3332 33.8909 10.0764 33.3559 9.92394C32.8208 9.77149 32.2608 9.72637 31.7082 9.79117Z" fill="#00F7FF"/>
<path d="M10.1412 34.4275C9.65737 34.4962 9.16419 34.4544 8.69882 34.3051C8.23345 34.1558 7.80799 33.9029 7.45444 33.5655C6.67491 32.8057 6.20438 31.7842 6.13364 30.6979C5.94869 29.5721 6.1784 28.4174 6.78014 27.4481C7.05754 27.0209 7.42999 26.6638 7.86835 26.4045C8.30672 26.1452 8.79912 25.9908 9.30705 25.9535C9.78631 25.8868 10.2744 25.9294 10.7349 26.078C11.1954 26.2267 11.6163 26.4776 11.966 26.812C12.7389 27.5973 13.2018 28.6354 13.2695 29.7351C13.4493 30.8528 13.217 31.9978 12.616 32.9572C12.3418 33.3737 11.9766 33.7225 11.5479 33.9772C11.1191 34.2319 10.6382 34.3859 10.1412 34.4275ZM9.44608 27.5454C9.17285 27.5674 8.90994 27.6596 8.68281 27.8131C8.45567 27.9665 8.27201 28.176 8.1496 28.4213C7.84836 29.0352 7.74512 29.7274 7.85416 30.4025C7.89206 31.0864 8.14509 31.7409 8.57713 32.2725C8.75285 32.4711 8.97358 32.6248 9.22085 32.7207C9.46813 32.8166 9.73477 32.8519 9.99848 32.8237C10.2622 32.7954 10.5153 32.7044 10.7367 32.5584C10.958 32.4123 11.1412 32.2153 11.2709 31.984C11.5687 31.3752 11.6684 30.6885 11.5559 30.0201C11.5199 29.3226 11.278 28.6513 10.8607 28.0911C10.6923 27.8855 10.4734 27.7272 10.2254 27.6316C9.97746 27.5359 9.70894 27.5062 9.44608 27.5454Z" fill="white"/>
<path d="M18.0141 26.6383L15.435 26.9268L15.6575 28.9358L18.0315 28.6751L18.1948 30.1697L15.8243 30.4269L16.1719 33.6072L14.5209 33.7915L13.6172 25.606L17.8507 25.1367L18.0141 26.6383Z" fill="white"/>
<path d="M23.0255 26.0751L20.4464 26.3636L20.6724 28.3691L23.0429 28.1084L23.2097 29.603L20.8357 29.8637L21.1833 33.0441L19.5323 33.2248L18.6182 25.0393L22.8517 24.5701L23.0255 26.0751Z" fill="white"/>
<path d="M28.952 32.1823L24.5655 32.662L23.6514 24.473L27.8675 24.0142L28.0344 25.5192L25.4623 25.8042L25.6639 27.622L28.0517 27.3544L28.2151 28.8386L25.8272 29.1062L26.0358 30.9727L28.7712 30.6703L28.952 32.1823Z" fill="white"/>
<path d="M35.8619 31.4106L33.9675 31.6191L32.5946 29.6379C32.4903 29.4919 32.3965 29.3494 32.2992 29.2382C32.2148 29.1344 32.1243 29.0357 32.028 28.9427C31.9505 28.8686 31.8597 28.8096 31.7604 28.7689C31.6696 28.7341 31.5725 28.7187 31.4754 28.7238L31.0305 28.7794L31.3781 31.9076L29.7271 32.0883L28.8164 23.9028L31.4302 23.6074C33.2029 23.4093 34.1761 24.0488 34.3429 25.5365C34.3762 25.8027 34.3668 26.0726 34.3151 26.3359C34.2668 26.5803 34.1788 26.8152 34.0544 27.031C33.9319 27.2405 33.7757 27.4284 33.5922 27.5872C33.3989 27.7535 33.1823 27.8906 32.9491 27.9939V28.0182C33.0723 28.0488 33.1897 28.0993 33.2967 28.1676C33.4118 28.2505 33.522 28.3398 33.6269 28.4353C33.7312 28.5395 33.8355 28.6542 33.9397 28.7829C34.044 28.9115 34.1309 29.0262 34.2178 29.1304L35.8619 31.4106ZM30.6134 25.1124L30.8671 27.3891L31.5623 27.3091C31.7218 27.2981 31.8772 27.2537 32.0185 27.1788C32.1598 27.104 32.2838 27.0004 32.3826 26.8746C32.477 26.7479 32.5453 26.6037 32.5835 26.4503C32.6217 26.297 32.629 26.1376 32.605 25.9814C32.5286 25.2653 32.101 24.9386 31.3398 25.0325L30.6134 25.1124Z" fill="white"/>
<path d="M10.1412 34.4275C9.65737 34.4962 9.16419 34.4544 8.69882 34.3051C8.23345 34.1558 7.80799 33.9029 7.45444 33.5655C6.67491 32.8057 6.20438 31.7842 6.13364 30.6979C5.94869 29.5721 6.1784 28.4174 6.78014 27.4481C7.05754 27.0209 7.42999 26.6638 7.86835 26.4045C8.30672 26.1452 8.79912 25.9908 9.30705 25.9535C9.78631 25.8868 10.2744 25.9294 10.7349 26.078C11.1954 26.2267 11.6163 26.4776 11.966 26.812C12.7389 27.5973 13.2018 28.6354 13.2695 29.7351C13.4493 30.8528 13.217 31.9978 12.616 32.9572C12.3418 33.3737 11.9766 33.7225 11.5479 33.9772C11.1191 34.2319 10.6382 34.3859 10.1412 34.4275ZM9.44608 27.5454C9.17285 27.5674 8.90994 27.6596 8.68281 27.8131C8.45567 27.9665 8.27201 28.176 8.1496 28.4213C7.84836 29.0352 7.74512 29.7274 7.85416 30.4025C7.89206 31.0864 8.14509 31.7409 8.57713 32.2725C8.75285 32.4711 8.97358 32.6248 9.22085 32.7207C9.46813 32.8166 9.73477 32.8519 9.99848 32.8237C10.2622 32.7954 10.5153 32.7044 10.7367 32.5584C10.958 32.4123 11.1412 32.2153 11.2709 31.984C11.5687 31.3752 11.6684 30.6885 11.5559 30.0201C11.5199 29.3226 11.278 28.6513 10.8607 28.0911C10.6923 27.8855 10.4734 27.7272 10.2254 27.6316C9.97746 27.5359 9.70894 27.5062 9.44608 27.5454Z" fill="#011F37"/>
<path d="M18.0141 26.6383L15.435 26.9268L15.6575 28.9358L18.0315 28.6751L18.1948 30.1697L15.8243 30.4269L16.1719 33.6072L14.5209 33.7915L13.6172 25.606L17.8507 25.1367L18.0141 26.6383Z" fill="#011F37"/>
<path d="M23.0255 26.0751L20.4464 26.3636L20.6724 28.3691L23.0429 28.1084L23.2097 29.603L20.8357 29.8637L21.1833 33.0441L19.5323 33.2248L18.6182 25.0393L22.8517 24.5701L23.0255 26.0751Z" fill="#011F37"/>
<path d="M28.952 32.1823L24.5655 32.662L23.6514 24.473L27.8675 24.0142L28.0344 25.5192L25.4623 25.8042L25.6639 27.622L28.0517 27.3544L28.2151 28.8386L25.8272 29.1062L26.0358 30.9727L28.7712 30.6703L28.952 32.1823Z" fill="#011F37"/>
<path d="M35.8619 31.4106L33.9675 31.6191L32.5946 29.6379C32.4903 29.4919 32.3965 29.3494 32.2992 29.2382C32.2148 29.1344 32.1243 29.0357 32.028 28.9427C31.9505 28.8686 31.8597 28.8096 31.7604 28.7689C31.6696 28.7341 31.5725 28.7187 31.4754 28.7238L31.0305 28.7794L31.3781 31.9076L29.7271 32.0883L28.8164 23.9028L31.4302 23.6074C33.2029 23.4093 34.1761 24.0488 34.3429 25.5365C34.3762 25.8027 34.3668 26.0726 34.3151 26.3359C34.2668 26.5803 34.1788 26.8152 34.0544 27.031C33.9319 27.2405 33.7757 27.4284 33.5922 27.5872C33.3989 27.7535 33.1823 27.8906 32.9491 27.9939V28.0182C33.0723 28.0488 33.1897 28.0993 33.2967 28.1676C33.4118 28.2505 33.522 28.3398 33.6269 28.4353C33.7312 28.5395 33.8355 28.6542 33.9397 28.7829C34.044 28.9115 34.1309 29.0262 34.2178 29.1304L35.8619 31.4106ZM30.6134 25.1124L30.8671 27.3891L31.5623 27.3091C31.7218 27.2981 31.8772 27.2537 32.0185 27.1788C32.1598 27.104 32.2838 27.0004 32.3826 26.8746C32.477 26.7479 32.5453 26.6037 32.5835 26.4503C32.6217 26.297 32.629 26.1376 32.605 25.9814C32.5286 25.2653 32.101 24.9386 31.3398 25.0325L30.6134 25.1124Z" fill="#011F37"/>
<path d="M10.1412 34.4275C9.65737 34.4962 9.16419 34.4544 8.69882 34.3051C8.23345 34.1558 7.80799 33.9029 7.45444 33.5655C6.67491 32.8057 6.20438 31.7842 6.13364 30.6979C5.94869 29.5721 6.1784 28.4174 6.78014 27.4481C7.05754 27.0209 7.42999 26.6638 7.86835 26.4045C8.30672 26.1452 8.79912 25.9908 9.30705 25.9535C9.78631 25.8868 10.2744 25.9294 10.7349 26.078C11.1954 26.2267 11.6163 26.4776 11.966 26.812C12.7389 27.5973 13.2018 28.6354 13.2695 29.7351C13.4493 30.8528 13.217 31.9978 12.616 32.9572C12.3418 33.3737 11.9766 33.7225 11.5479 33.9772C11.1191 34.2319 10.6382 34.3859 10.1412 34.4275ZM9.44608 27.5454C9.17285 27.5674 8.90994 27.6596 8.68281 27.8131C8.45567 27.9665 8.27201 28.176 8.1496 28.4213C7.84836 29.0352 7.74512 29.7274 7.85416 30.4025C7.89206 31.0864 8.14509 31.7409 8.57713 32.2725C8.75285 32.4711 8.97358 32.6248 9.22085 32.7207C9.46813 32.8166 9.73477 32.8519 9.99848 32.8237C10.2622 32.7954 10.5153 32.7044 10.7367 32.5584C10.958 32.4123 11.1412 32.2153 11.2709 31.984C11.5687 31.3752 11.6684 30.6885 11.5559 30.0201C11.5199 29.3226 11.278 28.6513 10.8607 28.0911C10.6923 27.8855 10.4734 27.7272 10.2254 27.6316C9.97746 27.5359 9.70894 27.5062 9.44608 27.5454Z" fill="#011F37"/>
<path d="M18.0141 26.6383L15.435 26.9268L15.6575 28.9358L18.0315 28.6751L18.1948 30.1697L15.8243 30.4269L16.1719 33.6072L14.5209 33.7915L13.6172 25.606L17.8507 25.1367L18.0141 26.6383Z" fill="#011F37"/>
<path d="M23.0255 26.0751L20.4464 26.3636L20.6724 28.3691L23.0429 28.1084L23.2097 29.603L20.8357 29.8637L21.1833 33.0441L19.5323 33.2248L18.6182 25.0393L22.8517 24.5701L23.0255 26.0751Z" fill="#011F37"/>
<path d="M28.952 32.1823L24.5655 32.662L23.6514 24.473L27.8675 24.0142L28.0344 25.5192L25.4623 25.8042L25.6639 27.622L28.0517 27.3544L28.2151 28.8386L25.8272 29.1062L26.0358 30.9727L28.7712 30.6703L28.952 32.1823Z" fill="#011F37"/>
<path d="M35.8619 31.4106L33.9675 31.6191L32.5946 29.6379C32.4903 29.4919 32.3965 29.3494 32.2992 29.2382C32.2148 29.1344 32.1243 29.0357 32.028 28.9427C31.9505 28.8686 31.8597 28.8096 31.7604 28.7689C31.6696 28.7341 31.5725 28.7187 31.4754 28.7238L31.0305 28.7794L31.3781 31.9076L29.7271 32.0883L28.8164 23.9028L31.4302 23.6074C33.2029 23.4093 34.1761 24.0488 34.3429 25.5365C34.3762 25.8027 34.3668 26.0726 34.3151 26.3359C34.2668 26.5803 34.1788 26.8152 34.0544 27.031C33.9319 27.2405 33.7757 27.4284 33.5922 27.5872C33.3989 27.7535 33.1823 27.8906 32.9491 27.9939V28.0182C33.0723 28.0488 33.1897 28.0993 33.2967 28.1676C33.4118 28.2505 33.522 28.3398 33.6269 28.4353C33.7312 28.5395 33.8355 28.6542 33.9397 28.7829C34.044 28.9115 34.1309 29.0262 34.2178 29.1304L35.8619 31.4106ZM30.6134 25.1124L30.8671 27.3891L31.5623 27.3091C31.7218 27.2981 31.8772 27.2537 32.0185 27.1788C32.1598 27.104 32.2838 27.0004 32.3826 26.8746C32.477 26.7479 32.5453 26.6037 32.5835 26.4503C32.6217 26.297 32.629 26.1376 32.605 25.9814C32.5286 25.2653 32.101 24.9386 31.3398 25.0325L30.6134 25.1124Z" fill="#011F37"/>
<path d="M10.1412 34.4275C9.65737 34.4962 9.16419 34.4544 8.69882 34.3051C8.23345 34.1558 7.80799 33.9029 7.45444 33.5655C6.67491 32.8057 6.20438 31.7842 6.13364 30.6979C5.94869 29.5721 6.1784 28.4174 6.78014 27.4481C7.05754 27.0209 7.42999 26.6638 7.86835 26.4045C8.30672 26.1452 8.79912 25.9908 9.30705 25.9535C9.78631 25.8868 10.2744 25.9294 10.7349 26.078C11.1954 26.2267 11.6163 26.4776 11.966 26.812C12.7389 27.5973 13.2018 28.6354 13.2695 29.7351C13.4493 30.8528 13.217 31.9978 12.616 32.9572C12.3418 33.3737 11.9766 33.7225 11.5479 33.9772C11.1191 34.2319 10.6382 34.3859 10.1412 34.4275ZM9.44608 27.5454C9.17285 27.5674 8.90994 27.6596 8.68281 27.8131C8.45567 27.9665 8.27201 28.176 8.1496 28.4213C7.84836 29.0352 7.74512 29.7274 7.85416 30.4025C7.89206 31.0864 8.14509 31.7409 8.57713 32.2725C8.75285 32.4711 8.97358 32.6248 9.22085 32.7207C9.46813 32.8166 9.73477 32.8519 9.99848 32.8237C10.2622 32.7954 10.5153 32.7044 10.7367 32.5584C10.958 32.4123 11.1412 32.2153 11.2709 31.984C11.5687 31.3752 11.6684 30.6885 11.5559 30.0201C11.5199 29.3226 11.278 28.6513 10.8607 28.0911C10.6923 27.8855 10.4734 27.7272 10.2254 27.6316C9.97746 27.5359 9.70894 27.5062 9.44608 27.5454Z" fill="#011F37"/>
<path d="M18.0141 26.6383L15.435 26.9268L15.6575 28.9358L18.0315 28.6751L18.1948 30.1697L15.8243 30.4269L16.1719 33.6072L14.5209 33.7915L13.6172 25.606L17.8507 25.1367L18.0141 26.6383Z" fill="#011F37"/>
<path d="M23.0255 26.0751L20.4464 26.3636L20.6724 28.3691L23.0429 28.1084L23.2097 29.603L20.8357 29.8637L21.1833 33.0441L19.5323 33.2248L18.6182 25.0393L22.8517 24.5701L23.0255 26.0751Z" fill="#011F37"/>
<path d="M28.952 32.1823L24.5655 32.662L23.6514 24.473L27.8675 24.0142L28.0344 25.5192L25.4623 25.8042L25.6639 27.622L28.0517 27.3544L28.2151 28.8386L25.8272 29.1062L26.0358 30.9727L28.7712 30.6703L28.952 32.1823Z" fill="#011F37"/>
<path d="M35.8619 31.4106L33.9675 31.6191L32.5946 29.6379C32.4903 29.4919 32.3965 29.3494 32.2992 29.2382C32.2148 29.1344 32.1243 29.0357 32.028 28.9427C31.9505 28.8686 31.8597 28.8096 31.7604 28.7689C31.6696 28.7341 31.5725 28.7187 31.4754 28.7238L31.0305 28.7794L31.3781 31.9076L29.7271 32.0883L28.8164 23.9028L31.4302 23.6074C33.2029 23.4093 34.1761 24.0488 34.3429 25.5365C34.3762 25.8027 34.3668 26.0726 34.3151 26.3359C34.2668 26.5803 34.1788 26.8152 34.0544 27.031C33.9319 27.2405 33.7757 27.4284 33.5922 27.5872C33.3989 27.7535 33.1823 27.8906 32.9491 27.9939V28.0182C33.0723 28.0488 33.1897 28.0993 33.2967 28.1676C33.4118 28.2505 33.522 28.3398 33.6269 28.4353C33.7312 28.5395 33.8355 28.6542 33.9397 28.7829C34.044 28.9115 34.1309 29.0262 34.2178 29.1304L35.8619 31.4106ZM30.6134 25.1124L30.8671 27.3891L31.5623 27.3091C31.7218 27.2981 31.8772 27.2537 32.0185 27.1788C32.1598 27.104 32.2838 27.0004 32.3826 26.8746C32.477 26.7479 32.5453 26.6037 32.5835 26.4503C32.6217 26.297 32.629 26.1376 32.605 25.9814C32.5286 25.2653 32.101 24.9386 31.3398 25.0325L30.6134 25.1124Z" fill="#011F37"/>
<path d="M5.73675 23.4752L5.63942 22.5819C5.74622 22.6646 5.863 22.7335 5.987 22.787C6.11727 22.8484 6.25356 22.8962 6.39367 22.9295C6.53057 22.9633 6.67011 22.9854 6.81077 22.9955C6.938 23.006 7.06587 23.006 7.19311 22.9955C7.51312 22.9883 7.81954 22.8647 8.0551 22.648C8.14506 22.5423 8.21017 22.4178 8.24566 22.2837C8.28115 22.1496 8.28611 22.0092 8.26017 21.8729C8.24776 21.7161 8.19768 21.5647 8.11419 21.4314C8.02933 21.3065 7.9235 21.1971 7.80137 21.1082C7.66173 21.0082 7.51409 20.9198 7.35994 20.844C7.19311 20.7676 7.01236 20.6807 6.81077 20.5938C6.61481 20.5074 6.4234 20.4111 6.23726 20.3053C6.06165 20.2128 5.90013 20.0958 5.7576 19.9577C5.62285 19.8265 5.50599 19.678 5.41002 19.5163C5.31637 19.3255 5.25752 19.1195 5.23623 18.908C5.1984 18.6447 5.22585 18.3761 5.31617 18.1259C5.39478 17.905 5.52323 17.7052 5.69156 17.542C5.8604 17.3806 6.05705 17.2511 6.27202 17.1597C6.88068 16.9135 7.55522 16.8828 8.18371 17.0728L8.27755 17.9139C7.88926 17.6814 7.43157 17.5928 6.98456 17.6637C6.84316 17.6833 6.70365 17.7147 6.56746 17.7575C6.43876 17.8029 6.32054 17.8739 6.21988 17.9661C6.11467 18.0608 6.03465 18.1803 5.987 18.3136C5.9281 18.4602 5.91008 18.6199 5.93487 18.7759C5.9476 18.923 5.9927 19.0654 6.06695 19.193C6.13378 19.3116 6.225 19.4147 6.33458 19.4954C6.46188 19.5906 6.59807 19.6732 6.74125 19.7422C6.89766 19.8187 7.08883 19.8986 7.29043 19.982C7.49202 20.0654 7.6971 20.1767 7.89174 20.2809C8.07649 20.374 8.24827 20.4909 8.40268 20.6285C8.54288 20.7706 8.66014 20.9336 8.75026 21.1117C8.85507 21.3029 8.9201 21.5133 8.94143 21.7303C8.97943 22.0044 8.95568 22.2835 8.87192 22.5472C8.79917 22.7701 8.67123 22.9709 8.50001 23.1311C8.32864 23.2858 8.12761 23.4041 7.90912 23.4787C7.67306 23.5715 7.42491 23.63 7.17225 23.6525C7.05661 23.6627 6.94031 23.6627 6.82467 23.6525C6.69607 23.6525 6.56399 23.6525 6.42495 23.6281C6.29338 23.6112 6.16325 23.5845 6.03566 23.5482C5.93182 23.5465 5.82968 23.5216 5.73675 23.4752Z" fill="white"/>
<path d="M10.5827 20.7469L10.8538 23.1799L10.2108 23.2494L9.51562 16.847L11.0346 16.6732C11.2832 16.6277 11.5386 16.6351 11.7842 16.695C12.0297 16.7549 12.2599 16.8659 12.4596 17.0208C12.6524 17.1922 12.8089 17.4004 12.9199 17.6332C13.031 17.866 13.0943 18.1187 13.1061 18.3764C13.1844 18.9232 13.0501 19.4793 12.7307 19.93C12.5651 20.1459 12.3555 20.3242 12.1158 20.453C11.8762 20.5818 11.6119 20.6583 11.3404 20.6773L10.5827 20.7469ZM10.2351 17.4379L10.5306 20.0621L11.2257 19.9822C11.4128 19.9742 11.5964 19.9286 11.7654 19.848C11.9345 19.7673 12.0855 19.6534 12.2094 19.5129C12.3179 19.3644 12.3954 19.1955 12.4372 19.0163C12.479 18.8372 12.4842 18.6514 12.4527 18.4702C12.3554 17.6256 11.8792 17.2502 11.0172 17.3475L10.2351 17.4379Z" fill="white"/>
<path d="M17.5547 22.4186L14.6246 22.7453L13.9121 16.3428L16.7206 16.03L16.797 16.7252L14.642 16.9685L14.8749 19.0957L16.8665 18.8698L16.9465 19.5649L14.9548 19.7908L15.2051 22.0327L17.4852 21.779L17.5547 22.4186Z" fill="white"/>
<path d="M22.3408 21.6089C21.9058 21.9247 21.3924 22.1146 20.8567 22.1581C20.4965 22.2088 20.1294 22.1746 19.7848 22.0581C19.4402 21.9416 19.1276 21.7461 18.872 21.4873C18.2989 20.8782 17.9582 20.0872 17.9092 19.2524C17.7666 18.3602 17.9518 17.4465 18.4306 16.6802C18.6392 16.3525 18.9198 16.0766 19.251 15.8737C19.5823 15.6707 19.9555 15.5459 20.3423 15.5089C20.7882 15.443 21.2435 15.4847 21.67 15.6306L21.7569 16.43C21.3386 16.2183 20.8666 16.136 20.4013 16.1936C20.1036 16.2201 19.8164 16.3167 19.5632 16.4756C19.3101 16.6345 19.0982 16.8511 18.945 17.1078C18.5909 17.7226 18.4584 18.4404 18.5696 19.1411C18.6086 19.8137 18.8787 20.4522 19.3343 20.9485C19.5285 21.1523 19.7686 21.3067 20.0347 21.3986C20.3008 21.4905 20.585 21.5174 20.8636 21.4769C21.378 21.4324 21.8649 21.2255 22.2539 20.886L22.3408 21.6089Z" fill="white"/>
<path d="M23.9641 15.2134L24.0371 15.8564L23.4949 15.919L24.0719 21.0353L24.6071 20.9763L24.6801 21.6193L22.9422 21.807L22.8727 21.1674L23.4115 21.1049L22.8519 15.9781L22.3131 16.0406L22.2471 15.3976L23.9641 15.2134Z" fill="white"/>
<path d="M29.8664 21.0422L29.1712 21.1222L28.3891 19.3843L26.0534 19.6415L25.7058 21.501L24.9863 21.581L26.3766 14.9422L27.044 14.8657L29.8664 21.0422ZM28.0763 18.7586L26.905 16.1274C26.8473 15.9919 26.8031 15.851 26.7729 15.7069C26.7709 15.8528 26.7558 15.9982 26.7277 16.1413L26.1751 18.9672L28.0763 18.7586Z" fill="white"/>
<path d="M33.5437 20.6356L30.6727 20.9588L29.9775 14.5529L30.6171 14.4834L31.2636 20.208L33.4777 19.9578L33.5437 20.6356Z" fill="white"/>
<path d="M5.73675 23.4752L5.63942 22.5819C5.74622 22.6646 5.863 22.7335 5.987 22.787C6.11727 22.8484 6.25356 22.8962 6.39367 22.9295C6.53057 22.9633 6.67011 22.9854 6.81077 22.9955C6.938 23.006 7.06587 23.006 7.19311 22.9955C7.51312 22.9883 7.81954 22.8647 8.0551 22.648C8.14506 22.5423 8.21017 22.4178 8.24566 22.2837C8.28115 22.1496 8.28611 22.0092 8.26017 21.8729C8.24776 21.7161 8.19768 21.5647 8.11419 21.4314C8.02933 21.3065 7.9235 21.1971 7.80137 21.1082C7.66173 21.0082 7.51409 20.9198 7.35994 20.844C7.19311 20.7676 7.01236 20.6807 6.81077 20.5938C6.61481 20.5074 6.4234 20.4111 6.23726 20.3053C6.06165 20.2128 5.90013 20.0958 5.7576 19.9577C5.62285 19.8265 5.50599 19.678 5.41002 19.5163C5.31637 19.3255 5.25752 19.1195 5.23623 18.908C5.1984 18.6447 5.22585 18.3761 5.31617 18.1259C5.39478 17.905 5.52323 17.7052 5.69156 17.542C5.8604 17.3806 6.05705 17.2511 6.27202 17.1597C6.88068 16.9135 7.55522 16.8828 8.18371 17.0728L8.27755 17.9139C7.88926 17.6814 7.43157 17.5928 6.98456 17.6637C6.84316 17.6833 6.70365 17.7147 6.56746 17.7575C6.43876 17.8029 6.32054 17.8739 6.21988 17.9661C6.11467 18.0608 6.03465 18.1803 5.987 18.3136C5.9281 18.4602 5.91008 18.6199 5.93487 18.7759C5.9476 18.923 5.9927 19.0654 6.06695 19.193C6.13378 19.3116 6.225 19.4147 6.33458 19.4954C6.46188 19.5906 6.59807 19.6732 6.74125 19.7422C6.89766 19.8187 7.08883 19.8986 7.29043 19.982C7.49202 20.0654 7.6971 20.1767 7.89174 20.2809C8.07649 20.374 8.24827 20.4909 8.40268 20.6285C8.54288 20.7706 8.66014 20.9336 8.75026 21.1117C8.85507 21.3029 8.9201 21.5133 8.94143 21.7303C8.97943 22.0044 8.95568 22.2835 8.87192 22.5472C8.79917 22.7701 8.67123 22.9709 8.50001 23.1311C8.32864 23.2858 8.12761 23.4041 7.90912 23.4787C7.67306 23.5715 7.42491 23.63 7.17225 23.6525C7.05661 23.6627 6.94031 23.6627 6.82467 23.6525C6.69607 23.6525 6.56399 23.6525 6.42495 23.6281C6.29338 23.6112 6.16325 23.5845 6.03566 23.5482C5.93182 23.5465 5.82968 23.5216 5.73675 23.4752Z" fill="#011F37"/>
<path d="M10.5827 20.7469L10.8538 23.1799L10.2108 23.2494L9.51562 16.847L11.0346 16.6732C11.2832 16.6277 11.5386 16.6351 11.7842 16.695C12.0297 16.7549 12.2599 16.8659 12.4596 17.0208C12.6524 17.1922 12.8089 17.4004 12.9199 17.6332C13.031 17.866 13.0943 18.1187 13.1061 18.3764C13.1844 18.9232 13.0501 19.4793 12.7307 19.93C12.5651 20.1459 12.3555 20.3242 12.1158 20.453C11.8762 20.5818 11.6119 20.6583 11.3404 20.6773L10.5827 20.7469ZM10.2351 17.4379L10.5306 20.0621L11.2257 19.9822C11.4128 19.9742 11.5964 19.9286 11.7654 19.848C11.9345 19.7673 12.0855 19.6534 12.2094 19.5129C12.3179 19.3644 12.3954 19.1955 12.4372 19.0163C12.479 18.8372 12.4842 18.6514 12.4527 18.4702C12.3554 17.6256 11.8792 17.2502 11.0172 17.3475L10.2351 17.4379Z" fill="#011F37"/>
<path d="M17.5547 22.4186L14.6246 22.7453L13.9121 16.3428L16.7206 16.03L16.797 16.7252L14.642 16.9685L14.8749 19.0957L16.8665 18.8698L16.9465 19.5649L14.9548 19.7908L15.2051 22.0327L17.4852 21.779L17.5547 22.4186Z" fill="#011F37"/>
<path d="M22.3408 21.6089C21.9058 21.9247 21.3924 22.1146 20.8567 22.1581C20.4965 22.2088 20.1294 22.1746 19.7848 22.0581C19.4402 21.9416 19.1276 21.7461 18.872 21.4873C18.2989 20.8782 17.9582 20.0872 17.9092 19.2524C17.7666 18.3602 17.9518 17.4465 18.4306 16.6802C18.6392 16.3525 18.9198 16.0766 19.251 15.8737C19.5823 15.6707 19.9555 15.5459 20.3423 15.5089C20.7882 15.443 21.2435 15.4847 21.67 15.6306L21.7569 16.43C21.3386 16.2183 20.8666 16.136 20.4013 16.1936C20.1036 16.2201 19.8164 16.3167 19.5632 16.4756C19.3101 16.6345 19.0982 16.8511 18.945 17.1078C18.5909 17.7226 18.4584 18.4404 18.5696 19.1411C18.6086 19.8137 18.8787 20.4522 19.3343 20.9485C19.5285 21.1523 19.7686 21.3067 20.0347 21.3986C20.3008 21.4905 20.585 21.5174 20.8636 21.4769C21.378 21.4324 21.8649 21.2255 22.2539 20.886L22.3408 21.6089Z" fill="#011F37"/>
<path d="M23.9641 15.2134L24.0371 15.8564L23.4949 15.919L24.0719 21.0353L24.6071 20.9763L24.6801 21.6193L22.9422 21.807L22.8727 21.1674L23.4115 21.1049L22.8519 15.9781L22.3131 16.0406L22.2471 15.3976L23.9641 15.2134Z" fill="#011F37"/>
<path d="M29.8664 21.0422L29.1712 21.1222L28.3891 19.3843L26.0534 19.6415L25.7058 21.501L24.9863 21.581L26.3766 14.9422L27.044 14.8657L29.8664 21.0422ZM28.0763 18.7586L26.905 16.1274C26.8473 15.9919 26.8031 15.851 26.7729 15.7069C26.7709 15.8528 26.7558 15.9982 26.7277 16.1413L26.1751 18.9672L28.0763 18.7586Z" fill="#011F37"/>
<path d="M33.5437 20.6356L30.6727 20.9588L29.9775 14.5529L30.6171 14.4834L31.2636 20.208L33.4777 19.9578L33.5437 20.6356Z" fill="#011F37"/>
<path d="M5.73675 23.4752L5.63942 22.5819C5.74622 22.6646 5.863 22.7335 5.987 22.787C6.11727 22.8484 6.25356 22.8962 6.39367 22.9295C6.53057 22.9633 6.67011 22.9854 6.81077 22.9955C6.938 23.006 7.06587 23.006 7.19311 22.9955C7.51312 22.9883 7.81954 22.8647 8.0551 22.648C8.14506 22.5423 8.21017 22.4178 8.24566 22.2837C8.28115 22.1496 8.28611 22.0092 8.26017 21.8729C8.24776 21.7161 8.19768 21.5647 8.11419 21.4314C8.02933 21.3065 7.9235 21.1971 7.80137 21.1082C7.66173 21.0082 7.51409 20.9198 7.35994 20.844C7.19311 20.7676 7.01236 20.6807 6.81077 20.5938C6.61481 20.5074 6.4234 20.4111 6.23726 20.3053C6.06165 20.2128 5.90013 20.0958 5.7576 19.9577C5.62285 19.8265 5.50599 19.678 5.41002 19.5163C5.31637 19.3255 5.25752 19.1195 5.23623 18.908C5.1984 18.6447 5.22585 18.3761 5.31617 18.1259C5.39478 17.905 5.52323 17.7052 5.69156 17.542C5.8604 17.3806 6.05705 17.2511 6.27202 17.1597C6.88068 16.9135 7.55522 16.8828 8.18371 17.0728L8.27755 17.9139C7.88926 17.6814 7.43157 17.5928 6.98456 17.6637C6.84316 17.6833 6.70365 17.7147 6.56746 17.7575C6.43876 17.8029 6.32054 17.8739 6.21988 17.9661C6.11467 18.0608 6.03465 18.1803 5.987 18.3136C5.9281 18.4602 5.91008 18.6199 5.93487 18.7759C5.9476 18.923 5.9927 19.0654 6.06695 19.193C6.13378 19.3116 6.225 19.4147 6.33458 19.4954C6.46188 19.5906 6.59807 19.6732 6.74125 19.7422C6.89766 19.8187 7.08883 19.8986 7.29043 19.982C7.49202 20.0654 7.6971 20.1767 7.89174 20.2809C8.07649 20.374 8.24827 20.4909 8.40268 20.6285C8.54288 20.7706 8.66014 20.9336 8.75026 21.1117C8.85507 21.3029 8.9201 21.5133 8.94143 21.7303C8.97943 22.0044 8.95568 22.2835 8.87192 22.5472C8.79917 22.7701 8.67123 22.9709 8.50001 23.1311C8.32864 23.2858 8.12761 23.4041 7.90912 23.4787C7.67306 23.5715 7.42491 23.63 7.17225 23.6525C7.05661 23.6627 6.94031 23.6627 6.82467 23.6525C6.69607 23.6525 6.56399 23.6525 6.42495 23.6281C6.29338 23.6112 6.16325 23.5845 6.03566 23.5482C5.93182 23.5465 5.82968 23.5216 5.73675 23.4752Z" fill="#011F37"/>
<path d="M10.5827 20.7469L10.8538 23.1799L10.2108 23.2494L9.51562 16.847L11.0346 16.6732C11.2832 16.6277 11.5386 16.6351 11.7842 16.695C12.0297 16.7549 12.2599 16.8659 12.4596 17.0208C12.6524 17.1922 12.8089 17.4004 12.9199 17.6332C13.031 17.866 13.0943 18.1187 13.1061 18.3764C13.1844 18.9232 13.0501 19.4793 12.7307 19.93C12.5651 20.1459 12.3555 20.3242 12.1158 20.453C11.8762 20.5818 11.6119 20.6583 11.3404 20.6773L10.5827 20.7469ZM10.2351 17.4379L10.5306 20.0621L11.2257 19.9822C11.4128 19.9742 11.5964 19.9286 11.7654 19.848C11.9345 19.7673 12.0855 19.6534 12.2094 19.5129C12.3179 19.3644 12.3954 19.1955 12.4372 19.0163C12.479 18.8372 12.4842 18.6514 12.4527 18.4702C12.3554 17.6256 11.8792 17.2502 11.0172 17.3475L10.2351 17.4379Z" fill="#011F37"/>
<path d="M17.5547 22.4186L14.6246 22.7453L13.9121 16.3428L16.7206 16.03L16.797 16.7252L14.642 16.9685L14.8749 19.0957L16.8665 18.8698L16.9465 19.5649L14.9548 19.7908L15.2051 22.0327L17.4852 21.779L17.5547 22.4186Z" fill="#011F37"/>
<path d="M22.3408 21.6089C21.9058 21.9247 21.3924 22.1146 20.8567 22.1581C20.4965 22.2088 20.1294 22.1746 19.7848 22.0581C19.4402 21.9416 19.1276 21.7461 18.872 21.4873C18.2989 20.8782 17.9582 20.0872 17.9092 19.2524C17.7666 18.3602 17.9518 17.4465 18.4306 16.6802C18.6392 16.3525 18.9198 16.0766 19.251 15.8737C19.5823 15.6707 19.9555 15.5459 20.3423 15.5089C20.7882 15.443 21.2435 15.4847 21.67 15.6306L21.7569 16.43C21.3386 16.2183 20.8666 16.136 20.4013 16.1936C20.1036 16.2201 19.8164 16.3167 19.5632 16.4756C19.3101 16.6345 19.0982 16.8511 18.945 17.1078C18.5909 17.7226 18.4584 18.4404 18.5696 19.1411C18.6086 19.8137 18.8787 20.4522 19.3343 20.9485C19.5285 21.1523 19.7686 21.3067 20.0347 21.3986C20.3008 21.4905 20.585 21.5174 20.8636 21.4769C21.378 21.4324 21.8649 21.2255 22.2539 20.886L22.3408 21.6089Z" fill="#011F37"/>
<path d="M23.9641 15.2134L24.0371 15.8564L23.4949 15.919L24.0719 21.0353L24.6071 20.9763L24.6801 21.6193L22.9422 21.807L22.8727 21.1674L23.4115 21.1049L22.8519 15.9781L22.3131 16.0406L22.2471 15.3976L23.9641 15.2134Z" fill="#011F37"/>
<path d="M29.8664 21.0422L29.1712 21.1222L28.3891 19.3843L26.0534 19.6415L25.7058 21.501L24.9863 21.581L26.3766 14.9422L27.044 14.8657L29.8664 21.0422ZM28.0763 18.7586L26.905 16.1274C26.8473 15.9919 26.8031 15.851 26.7729 15.7069C26.7709 15.8528 26.7558 15.9982 26.7277 16.1413L26.1751 18.9672L28.0763 18.7586Z" fill="#011F37"/>
<path d="M33.5437 20.6356L30.6727 20.9588L29.9775 14.5529L30.6171 14.4834L31.2636 20.208L33.4777 19.9578L33.5437 20.6356Z" fill="#011F37"/>
<path d="M5.73675 23.4752L5.63942 22.5819C5.74622 22.6646 5.863 22.7335 5.987 22.787C6.11727 22.8484 6.25356 22.8962 6.39367 22.9295C6.53057 22.9633 6.67011 22.9854 6.81077 22.9955C6.938 23.006 7.06587 23.006 7.19311 22.9955C7.51312 22.9883 7.81954 22.8647 8.0551 22.648C8.14506 22.5423 8.21017 22.4178 8.24566 22.2837C8.28115 22.1496 8.28611 22.0092 8.26017 21.8729C8.24776 21.7161 8.19768 21.5647 8.11419 21.4314C8.02933 21.3065 7.9235 21.1971 7.80137 21.1082C7.66173 21.0082 7.51409 20.9198 7.35994 20.844C7.19311 20.7676 7.01236 20.6807 6.81077 20.5938C6.61481 20.5074 6.4234 20.4111 6.23726 20.3053C6.06165 20.2128 5.90013 20.0958 5.7576 19.9577C5.62285 19.8265 5.50599 19.678 5.41002 19.5163C5.31637 19.3255 5.25752 19.1195 5.23623 18.908C5.1984 18.6447 5.22585 18.3761 5.31617 18.1259C5.39478 17.905 5.52323 17.7052 5.69156 17.542C5.8604 17.3806 6.05705 17.2511 6.27202 17.1597C6.88068 16.9135 7.55522 16.8828 8.18371 17.0728L8.27755 17.9139C7.88926 17.6814 7.43157 17.5928 6.98456 17.6637C6.84316 17.6833 6.70365 17.7147 6.56746 17.7575C6.43876 17.8029 6.32054 17.8739 6.21988 17.9661C6.11467 18.0608 6.03465 18.1803 5.987 18.3136C5.9281 18.4602 5.91008 18.6199 5.93487 18.7759C5.9476 18.923 5.9927 19.0654 6.06695 19.193C6.13378 19.3116 6.225 19.4147 6.33458 19.4954C6.46188 19.5906 6.59807 19.6732 6.74125 19.7422C6.89766 19.8187 7.08883 19.8986 7.29043 19.982C7.49202 20.0654 7.6971 20.1767 7.89174 20.2809C8.07649 20.374 8.24827 20.4909 8.40268 20.6285C8.54288 20.7706 8.66014 20.9336 8.75026 21.1117C8.85507 21.3029 8.9201 21.5133 8.94143 21.7303C8.97943 22.0044 8.95568 22.2835 8.87192 22.5472C8.79917 22.7701 8.67123 22.9709 8.50001 23.1311C8.32864 23.2858 8.12761 23.4041 7.90912 23.4787C7.67306 23.5715 7.42491 23.63 7.17225 23.6525C7.05661 23.6627 6.94031 23.6627 6.82467 23.6525C6.69607 23.6525 6.56399 23.6525 6.42495 23.6281C6.29338 23.6112 6.16325 23.5845 6.03566 23.5482C5.93182 23.5465 5.82968 23.5216 5.73675 23.4752Z" fill="#011F37"/>
<path d="M10.5827 20.7469L10.8538 23.1799L10.2108 23.2494L9.51562 16.847L11.0346 16.6732C11.2832 16.6277 11.5386 16.6351 11.7842 16.695C12.0297 16.7549 12.2599 16.8659 12.4596 17.0208C12.6524 17.1922 12.8089 17.4004 12.9199 17.6332C13.031 17.866 13.0943 18.1187 13.1061 18.3764C13.1844 18.9232 13.0501 19.4793 12.7307 19.93C12.5651 20.1459 12.3555 20.3242 12.1158 20.453C11.8762 20.5818 11.6119 20.6583 11.3404 20.6773L10.5827 20.7469ZM10.2351 17.4379L10.5306 20.0621L11.2257 19.9822C11.4128 19.9742 11.5964 19.9286 11.7654 19.848C11.9345 19.7673 12.0855 19.6534 12.2094 19.5129C12.3179 19.3644 12.3954 19.1955 12.4372 19.0163C12.479 18.8372 12.4842 18.6514 12.4527 18.4702C12.3554 17.6256 11.8792 17.2502 11.0172 17.3475L10.2351 17.4379Z" fill="#011F37"/>
<path d="M17.5547 22.4186L14.6246 22.7453L13.9121 16.3428L16.7206 16.03L16.797 16.7252L14.642 16.9685L14.8749 19.0957L16.8665 18.8698L16.9465 19.5649L14.9548 19.7908L15.2051 22.0327L17.4852 21.779L17.5547 22.4186Z" fill="#011F37"/>
<path d="M22.3408 21.6089C21.9058 21.9247 21.3924 22.1146 20.8567 22.1581C20.4965 22.2088 20.1294 22.1746 19.7848 22.0581C19.4402 21.9416 19.1276 21.7461 18.872 21.4873C18.2989 20.8782 17.9582 20.0872 17.9092 19.2524C17.7666 18.3602 17.9518 17.4465 18.4306 16.6802C18.6392 16.3525 18.9198 16.0766 19.251 15.8737C19.5823 15.6707 19.9555 15.5459 20.3423 15.5089C20.7882 15.443 21.2435 15.4847 21.67 15.6306L21.7569 16.43C21.3386 16.2183 20.8666 16.136 20.4013 16.1936C20.1036 16.2201 19.8164 16.3167 19.5632 16.4756C19.3101 16.6345 19.0982 16.8511 18.945 17.1078C18.5909 17.7226 18.4584 18.4404 18.5696 19.1411C18.6086 19.8137 18.8787 20.4522 19.3343 20.9485C19.5285 21.1523 19.7686 21.3067 20.0347 21.3986C20.3008 21.4905 20.585 21.5174 20.8636 21.4769C21.378 21.4324 21.8649 21.2255 22.2539 20.886L22.3408 21.6089Z" fill="#011F37"/>
<path d="M23.9641 15.2134L24.0371 15.8564L23.4949 15.919L24.0719 21.0353L24.6071 20.9763L24.6801 21.6193L22.9422 21.807L22.8727 21.1674L23.4115 21.1049L22.8519 15.9781L22.3131 16.0406L22.2471 15.3976L23.9641 15.2134Z" fill="#011F37"/>
<path d="M29.8664 21.0422L29.1712 21.1222L28.3891 19.3843L26.0534 19.6415L25.7058 21.501L24.9863 21.581L26.3766 14.9422L27.044 14.8657L29.8664 21.0422ZM28.0763 18.7586L26.905 16.1274C26.8473 15.9919 26.8031 15.851 26.7729 15.7069C26.7709 15.8528 26.7558 15.9982 26.7277 16.1413L26.1751 18.9672L28.0763 18.7586Z" fill="#011F37"/>
<path d="M33.5437 20.6356L30.6727 20.9588L29.9775 14.5529L30.6171 14.4834L31.2636 20.208L33.4777 19.9578L33.5437 20.6356Z" fill="#011F37"/>
<path d="M28.8132 33.9304L30.4746 35.6857L23.8115 43.6105L22.873 36.3461L28.8132 33.9304Z" fill="#00F7FF"/>
</svg>
