<svg width="59" height="58" viewBox="0 0 59 58" fill="none" xmlns="http://www.w3.org/2000/svg">
<rect x="0.929688" width="57.93" height="57.93" rx="6.32612" fill="white"/>
<path d="M14.375 29.2021H50.9717L48.1493 35.0102L50.9717 40.8217H14.375L17.4233 35.0102L14.375 29.2021Z" fill="#FABD00"/>
<path d="M23.4604 38.6509C23.0454 38.6613 22.6333 38.5787 22.2544 38.4091C21.8754 38.2395 21.5393 37.9872 21.2706 37.6707C20.6817 36.9493 20.3797 36.0359 20.4225 35.1056C20.3764 34.1369 20.6812 33.1842 21.2811 32.4222C21.5568 32.0886 21.9054 31.8226 22.3001 31.6448C22.6948 31.4671 23.1251 31.3822 23.5577 31.3969C23.9707 31.3849 24.3811 31.4673 24.7575 31.6377C25.134 31.8082 25.4666 32.0622 25.7301 32.3805C26.3102 33.1149 26.603 34.0354 26.5538 34.97C26.601 35.9313 26.2957 36.8768 25.6953 37.629C25.426 37.9592 25.0844 38.223 24.6969 38.4002C24.3093 38.5774 23.8863 38.6632 23.4604 38.6509ZM23.5229 32.742C23.2892 32.7386 23.0585 32.7941 22.8519 32.9034C22.6453 33.0128 22.4697 33.1725 22.3412 33.3677C22.0268 33.8588 21.8748 34.4364 21.9067 35.0187C21.8762 35.6008 22.0281 36.1779 22.3412 36.6697C22.4671 36.8592 22.6375 37.0149 22.8376 37.1232C23.0377 37.2314 23.2613 37.2889 23.4888 37.2907C23.7163 37.2924 23.9407 37.2382 24.1424 37.133C24.3441 37.0278 24.5169 36.8746 24.6456 36.687C24.9559 36.2009 25.1043 35.6291 25.0697 35.0534C25.104 34.4623 24.9586 33.8746 24.6526 33.3677C24.5337 33.1765 24.367 33.0198 24.1688 32.9131C23.9706 32.8064 23.7479 32.7534 23.5229 32.7594V32.742Z" fill="white"/>
<path d="M30.8632 32.8036H28.6491V34.5207H30.6825V35.7998H28.6491V38.5213H27.2588V31.5176H30.8632V32.8036Z" fill="white"/>
<path d="M35.1603 32.8036H32.9532V34.5207H34.9935V35.7998H32.9532V38.5213H31.542V31.5176H35.1673V32.8036H35.1603Z" fill="white"/>
<path d="M39.5878 38.5291H35.834V31.5254H39.4523V32.8114H37.2521V34.3686H39.3028V35.6442H37.2521V37.2431H39.5983V38.5291H39.5878Z" fill="white"/>
<path d="M45.4906 38.5291H43.8674L42.9012 36.7217C42.8386 36.6018 42.769 36.4858 42.6926 36.3741C42.6231 36.2699 42.5536 36.1725 42.4945 36.0961C42.433 36.0249 42.3588 35.966 42.2755 35.9223C42.2011 35.8809 42.1173 35.8594 42.0322 35.8597H41.6499V38.5465H40.2422V31.5254H42.4737C43.9961 31.5254 44.7584 32.1591 44.7607 33.4267C44.7643 33.6625 44.7291 33.8974 44.6565 34.1218C44.5911 34.321 44.495 34.5086 44.3714 34.6779C44.2492 34.8453 44.0986 34.9899 43.9265 35.1055C43.7478 35.231 43.5509 35.3283 43.3426 35.394C43.4399 35.4331 43.5311 35.4858 43.6137 35.5504C43.7077 35.6289 43.7928 35.7175 43.8674 35.8145C43.9439 35.9188 44.0239 36.0126 44.1003 36.1239C44.1768 36.2351 44.2394 36.3533 44.3019 36.4715L45.4906 38.5291ZM41.6673 32.7072V34.6536H42.2582C42.3939 34.6599 42.5295 34.6368 42.6555 34.5858C42.7815 34.5348 42.8949 34.4572 42.9881 34.3582C43.1735 34.1583 43.2733 33.8938 43.2661 33.6213C43.2661 33.013 42.9186 32.7002 42.2825 32.7002H41.6499L41.6673 32.7072Z" fill="white"/>
<path d="M23.4604 38.6509C23.0454 38.6613 22.6333 38.5787 22.2544 38.4091C21.8754 38.2395 21.5393 37.9872 21.2706 37.6707C20.6817 36.9493 20.3797 36.0359 20.4225 35.1056C20.3764 34.1369 20.6812 33.1842 21.2811 32.4222C21.5568 32.0886 21.9054 31.8226 22.3001 31.6448C22.6948 31.4671 23.1251 31.3822 23.5577 31.3969C23.9707 31.3849 24.3811 31.4673 24.7575 31.6377C25.134 31.8082 25.4666 32.0622 25.7301 32.3805C26.3102 33.1149 26.603 34.0354 26.5538 34.97C26.601 35.9313 26.2957 36.8768 25.6953 37.629C25.426 37.9592 25.0844 38.223 24.6969 38.4002C24.3093 38.5774 23.8863 38.6632 23.4604 38.6509ZM23.5229 32.742C23.2892 32.7386 23.0585 32.7941 22.8519 32.9034C22.6453 33.0128 22.4697 33.1725 22.3412 33.3677C22.0268 33.8588 21.8748 34.4364 21.9067 35.0187C21.8762 35.6008 22.0281 36.1779 22.3412 36.6697C22.4671 36.8592 22.6375 37.0149 22.8376 37.1232C23.0377 37.2314 23.2613 37.2889 23.4888 37.2907C23.7163 37.2924 23.9407 37.2382 24.1424 37.133C24.3441 37.0278 24.5169 36.8746 24.6456 36.687C24.9559 36.2009 25.1043 35.6291 25.0697 35.0534C25.104 34.4623 24.9586 33.8746 24.6526 33.3677C24.5337 33.1765 24.367 33.0198 24.1688 32.9131C23.9706 32.8064 23.7479 32.7534 23.5229 32.7594V32.742Z" fill="#001B62"/>
<path d="M30.8632 32.8036H28.6491V34.5207H30.6825V35.7998H28.6491V38.5213H27.2588V31.5176H30.8632V32.8036Z" fill="#001B62"/>
<path d="M35.1603 32.8036H32.9532V34.5207H34.9935V35.7998H32.9532V38.5213H31.542V31.5176H35.1673V32.8036H35.1603Z" fill="#001B62"/>
<path d="M39.5878 38.5291H35.834V31.5254H39.4523V32.8114H37.2521V34.3686H39.3028V35.6442H37.2521V37.2431H39.5983V38.5291H39.5878Z" fill="#001B62"/>
<path d="M45.4906 38.5291H43.8674L42.9012 36.7217C42.8386 36.6018 42.769 36.4858 42.6926 36.3741C42.6231 36.2699 42.5536 36.1725 42.4945 36.0961C42.433 36.0249 42.3588 35.966 42.2755 35.9223C42.2011 35.8809 42.1173 35.8594 42.0322 35.8597H41.6499V38.5465H40.2422V31.5254H42.4737C43.9961 31.5254 44.7584 32.1591 44.7607 33.4267C44.7643 33.6625 44.7291 33.8974 44.6565 34.1218C44.5911 34.321 44.495 34.5086 44.3714 34.6779C44.2492 34.8453 44.0986 34.9899 43.9265 35.1055C43.7478 35.231 43.5509 35.3283 43.3426 35.394C43.4399 35.4331 43.5311 35.4858 43.6137 35.5504C43.7077 35.6289 43.7928 35.7175 43.8674 35.8145C43.9439 35.9188 44.0239 36.0126 44.1003 36.1239C44.1768 36.2351 44.2394 36.3533 44.3019 36.4715L45.4906 38.5291ZM41.6673 32.7072V34.6536H42.2582C42.3939 34.6599 42.5295 34.6368 42.6555 34.5858C42.7815 34.5348 42.8949 34.4572 42.9881 34.3582C43.1735 34.1583 43.2733 33.8938 43.2661 33.6213C43.2661 33.013 42.9186 32.7002 42.2825 32.7002H41.6499L41.6673 32.7072Z" fill="#001B62"/>
<path d="M23.4604 38.6509C23.0454 38.6613 22.6333 38.5787 22.2544 38.4091C21.8754 38.2395 21.5393 37.9872 21.2706 37.6707C20.6817 36.9493 20.3797 36.0359 20.4225 35.1056C20.3764 34.1369 20.6812 33.1842 21.2811 32.4222C21.5568 32.0886 21.9054 31.8226 22.3001 31.6448C22.6948 31.4671 23.1251 31.3822 23.5577 31.3969C23.9707 31.3849 24.3811 31.4673 24.7575 31.6377C25.134 31.8082 25.4666 32.0622 25.7301 32.3805C26.3102 33.1149 26.603 34.0354 26.5538 34.97C26.601 35.9313 26.2957 36.8768 25.6953 37.629C25.426 37.9592 25.0844 38.223 24.6969 38.4002C24.3093 38.5774 23.8863 38.6632 23.4604 38.6509ZM23.5229 32.742C23.2892 32.7386 23.0585 32.7941 22.8519 32.9034C22.6453 33.0128 22.4697 33.1725 22.3412 33.3677C22.0268 33.8588 21.8748 34.4364 21.9067 35.0187C21.8762 35.6008 22.0281 36.1779 22.3412 36.6697C22.4671 36.8592 22.6375 37.0149 22.8376 37.1232C23.0377 37.2314 23.2613 37.2889 23.4888 37.2907C23.7163 37.2924 23.9407 37.2382 24.1424 37.133C24.3441 37.0278 24.5169 36.8746 24.6456 36.687C24.9559 36.2009 25.1043 35.6291 25.0697 35.0534C25.104 34.4623 24.9586 33.8746 24.6526 33.3677C24.5337 33.1765 24.367 33.0198 24.1688 32.9131C23.9706 32.8064 23.7479 32.7534 23.5229 32.7594V32.742Z" fill="#001B62"/>
<path d="M30.8632 32.8036H28.6491V34.5207H30.6825V35.7998H28.6491V38.5213H27.2588V31.5176H30.8632V32.8036Z" fill="#001B62"/>
<path d="M35.1603 32.8036H32.9532V34.5207H34.9935V35.7998H32.9532V38.5213H31.542V31.5176H35.1673V32.8036H35.1603Z" fill="#001B62"/>
<path d="M39.5878 38.5291H35.834V31.5254H39.4523V32.8114H37.2521V34.3686H39.3028V35.6442H37.2521V37.2431H39.5983V38.5291H39.5878Z" fill="#001B62"/>
<path d="M45.4906 38.5291H43.8674L42.9012 36.7217C42.8386 36.6018 42.769 36.4858 42.6926 36.3741C42.6231 36.2699 42.5536 36.1725 42.4945 36.0961C42.433 36.0249 42.3588 35.966 42.2755 35.9223C42.2011 35.8809 42.1173 35.8594 42.0322 35.8597H41.6499V38.5465H40.2422V31.5254H42.4737C43.9961 31.5254 44.7584 32.1591 44.7607 33.4267C44.7643 33.6625 44.7291 33.8974 44.6565 34.1218C44.5911 34.321 44.495 34.5086 44.3714 34.6779C44.2492 34.8453 44.0986 34.9899 43.9265 35.1055C43.7478 35.231 43.5509 35.3283 43.3426 35.394C43.4399 35.4331 43.5311 35.4858 43.6137 35.5504C43.7077 35.6289 43.7928 35.7175 43.8674 35.8145C43.9439 35.9188 44.0239 36.0126 44.1003 36.1239C44.1768 36.2351 44.2394 36.3533 44.3019 36.4715L45.4906 38.5291ZM41.6673 32.7072V34.6536H42.2582C42.3939 34.6599 42.5295 34.6368 42.6555 34.5858C42.7815 34.5348 42.8949 34.4572 42.9881 34.3582C43.1735 34.1583 43.2733 33.8938 43.2661 33.6213C43.2661 33.013 42.9186 32.7002 42.2825 32.7002H41.6499L41.6673 32.7072Z" fill="#001B62"/>
<path d="M23.4604 38.6509C23.0454 38.6613 22.6333 38.5787 22.2544 38.4091C21.8754 38.2395 21.5393 37.9872 21.2706 37.6707C20.6817 36.9493 20.3797 36.0359 20.4225 35.1056C20.3764 34.1369 20.6812 33.1842 21.2811 32.4222C21.5568 32.0886 21.9054 31.8226 22.3001 31.6448C22.6948 31.4671 23.1251 31.3822 23.5577 31.3969C23.9707 31.3849 24.3811 31.4673 24.7575 31.6377C25.134 31.8082 25.4666 32.0622 25.7301 32.3805C26.3102 33.1149 26.603 34.0354 26.5538 34.97C26.601 35.9313 26.2957 36.8768 25.6953 37.629C25.426 37.9592 25.0844 38.223 24.6969 38.4002C24.3093 38.5774 23.8863 38.6632 23.4604 38.6509ZM23.5229 32.742C23.2892 32.7386 23.0585 32.7941 22.8519 32.9034C22.6453 33.0128 22.4697 33.1725 22.3412 33.3677C22.0268 33.8588 21.8748 34.4364 21.9067 35.0187C21.8762 35.6008 22.0281 36.1779 22.3412 36.6697C22.4671 36.8592 22.6375 37.0149 22.8376 37.1232C23.0377 37.2314 23.2613 37.2889 23.4888 37.2907C23.7163 37.2924 23.9407 37.2382 24.1424 37.133C24.3441 37.0278 24.5169 36.8746 24.6456 36.687C24.9559 36.2009 25.1043 35.6291 25.0697 35.0534C25.104 34.4623 24.9586 33.8746 24.6526 33.3677C24.5337 33.1765 24.367 33.0198 24.1688 32.9131C23.9706 32.8064 23.7479 32.7534 23.5229 32.7594V32.742Z" fill="#001B62"/>
<path d="M30.8632 32.8036H28.6491V34.5207H30.6825V35.7998H28.6491V38.5213H27.2588V31.5176H30.8632V32.8036Z" fill="#001B62"/>
<path d="M35.1603 32.8036H32.9532V34.5207H34.9935V35.7998H32.9532V38.5213H31.542V31.5176H35.1673V32.8036H35.1603Z" fill="#001B62"/>
<path d="M39.5878 38.5291H35.834V31.5254H39.4523V32.8114H37.2521V34.3686H39.3028V35.6442H37.2521V37.2431H39.5983V38.5291H39.5878Z" fill="#001B62"/>
<path d="M45.4906 38.5291H43.8674L42.9012 36.7217C42.8386 36.6018 42.769 36.4858 42.6926 36.3741C42.6231 36.2699 42.5536 36.1725 42.4945 36.0961C42.433 36.0249 42.3588 35.966 42.2755 35.9223C42.2011 35.8809 42.1173 35.8594 42.0322 35.8597H41.6499V38.5465H40.2422V31.5254H42.4737C43.9961 31.5254 44.7584 32.1591 44.7607 33.4267C44.7643 33.6625 44.7291 33.8974 44.6565 34.1218C44.5911 34.321 44.495 34.5086 44.3714 34.6779C44.2492 34.8453 44.0986 34.9899 43.9265 35.1055C43.7478 35.231 43.5509 35.3283 43.3426 35.394C43.4399 35.4331 43.5311 35.4858 43.6137 35.5504C43.7077 35.6289 43.7928 35.7175 43.8674 35.8145C43.9439 35.9188 44.0239 36.0126 44.1003 36.1239C44.1768 36.2351 44.2394 36.3533 44.3019 36.4715L45.4906 38.5291ZM41.6673 32.7072V34.6536H42.2582C42.3939 34.6599 42.5295 34.6368 42.6555 34.5858C42.7815 34.5348 42.8949 34.4572 42.9881 34.3582C43.1735 34.1583 43.2733 33.8938 43.2661 33.6213C43.2661 33.013 42.9186 32.7002 42.2825 32.7002H41.6499L41.6673 32.7072Z" fill="#001B62"/>
<path d="M8.22949 20.9651L50.7038 17.0305L47.4365 22.637L51.677 27.5448L9.20272 31.4725L12.47 25.8764L8.22949 20.9651Z" fill="#001B62"/>
<path d="M17.9891 27.6317L17.9195 26.8497C18.0116 26.9229 18.1105 26.9869 18.215 27.0408C18.3273 27.0938 18.4435 27.138 18.5626 27.1729C18.6829 27.2028 18.8047 27.226 18.9275 27.2424C19.0433 27.2497 19.1594 27.2497 19.2751 27.2424C19.5585 27.2413 19.8321 27.139 20.0467 26.954C20.1267 26.862 20.1858 26.7538 20.22 26.6368C20.2542 26.5198 20.2627 26.3967 20.2449 26.2762C20.2351 26.1387 20.1935 26.0054 20.1232 25.8869C20.0501 25.7769 19.9598 25.6795 19.8556 25.5984C19.7318 25.5112 19.6004 25.4356 19.4628 25.3725C19.3168 25.2995 19.1604 25.223 18.9866 25.1465C18.8128 25.0701 18.639 24.9727 18.4826 24.8859C18.3322 24.8004 18.1922 24.6978 18.0655 24.58C17.9425 24.4668 17.8422 24.3311 17.7701 24.1803C17.6855 24.0093 17.6325 23.8244 17.6137 23.6346C17.5806 23.3992 17.6105 23.1593 17.7006 22.9394C17.7756 22.7476 17.8947 22.5762 18.0481 22.4389C18.1991 22.2952 18.373 22.1778 18.5626 22.0913C18.7561 22.0138 18.9598 21.9646 19.1674 21.9453C19.5273 21.8898 19.8954 21.9256 20.2379 22.0496L20.3074 22.7969C19.9681 22.5836 19.5642 22.4975 19.1674 22.5536C19.0404 22.5635 18.9153 22.5904 18.7954 22.6335C18.679 22.6744 18.5707 22.7356 18.4757 22.8143C18.3849 22.8942 18.3105 22.991 18.2567 23.0993C18.2027 23.2264 18.1847 23.3658 18.2046 23.5025C18.2167 23.6295 18.252 23.7532 18.3088 23.8674C18.3654 23.973 18.445 24.0644 18.5417 24.1351C18.6471 24.2226 18.764 24.2951 18.8893 24.3506C19.0283 24.4236 19.1847 24.5 19.369 24.58C19.5532 24.6599 19.7165 24.7538 19.8868 24.8476C20.0472 24.9404 20.1965 25.0512 20.3317 25.1778C20.4602 25.2986 20.5682 25.4395 20.6515 25.5949C20.7444 25.7628 20.799 25.9491 20.8114 26.1406C20.848 26.3905 20.8241 26.6456 20.7419 26.8844C20.666 27.0767 20.5471 27.2491 20.3943 27.3884C20.242 27.5302 20.0605 27.637 19.8625 27.7012C19.6517 27.7759 19.432 27.8226 19.2091 27.8403C19.1326 27.8403 19.0388 27.8403 18.9241 27.8403C18.8074 27.838 18.6912 27.8264 18.5765 27.8055C18.4583 27.8055 18.3436 27.7638 18.2289 27.7395C18.1457 27.7112 18.0654 27.6751 17.9891 27.6317Z" fill="white"/>
<path d="M22.2956 25.3126L22.4972 27.4571L21.9237 27.5058L21.4023 21.8542L22.7405 21.729C22.9618 21.6964 23.1875 21.7105 23.403 21.7704C23.6185 21.8302 23.8191 21.9346 23.9918 22.0766C24.3278 22.3912 24.5253 22.8262 24.541 23.2862C24.6087 23.7662 24.4838 24.2535 24.1934 24.6418C24.0435 24.8297 23.8553 24.9835 23.6414 25.0932C23.4274 25.2029 23.1926 25.2658 22.9526 25.2778L22.2956 25.3126ZM22.028 22.3929L22.247 24.7113L22.8448 24.6765C23.0089 24.6804 23.1717 24.6472 23.3211 24.5795C23.4706 24.5117 23.6028 24.4111 23.7081 24.2852C23.8133 24.1593 23.8887 24.0112 23.9288 23.8521C23.9689 23.693 23.9726 23.5269 23.9397 23.3661C23.8702 22.6154 23.4531 22.2782 22.6953 22.3477L22.028 22.3929Z" fill="white"/>
<path d="M28.4056 26.9014L25.8231 27.1378L25.3018 21.4896L27.7731 21.2637L27.8217 21.8615L25.9205 22.0353L26.0942 23.9122L27.8495 23.7489L27.9017 24.3293L26.1464 24.4962L26.3306 26.4774L28.3361 26.2932L28.4056 26.9014Z" fill="white"/>
<path d="M32.6293 26.27C32.2427 26.5414 31.7872 26.6981 31.3154 26.7219C30.9969 26.7619 30.6735 26.7261 30.3715 26.6174C30.0694 26.5086 29.7974 26.3301 29.5775 26.0962C29.0865 25.5491 28.7992 24.8493 28.7642 24.115C28.6518 23.3257 28.831 22.5225 29.2682 21.8557C29.456 21.57 29.7069 21.3311 30.0016 21.1576C30.2963 20.984 30.6268 20.8804 30.9678 20.8547C31.3644 20.8039 31.7673 20.8492 32.1427 20.9868L32.2122 21.6819C31.8491 21.4915 31.4386 21.4106 31.0304 21.4491C30.766 21.4703 30.5102 21.5534 30.2838 21.6917C30.0574 21.83 29.8667 22.0195 29.727 22.245C29.4092 22.7803 29.2864 23.4091 29.3794 24.0246C29.3992 24.617 29.6254 25.1838 30.0189 25.627C30.1876 25.8085 30.3966 25.9478 30.6291 26.0336C30.8616 26.1193 31.111 26.1491 31.3571 26.1205C31.8115 26.0916 32.2449 25.9187 32.5945 25.627L32.6293 26.27Z" fill="white"/>
<path d="M34.1653 20.6621L34.2209 21.2287L33.7412 21.2704L34.1583 25.7889L34.645 25.7472L34.6971 26.3103L33.1782 26.4493L33.126 25.8862L33.6022 25.8411L33.1816 21.3225L32.7055 21.3677L32.6533 20.8011L34.1653 20.6621Z" fill="white"/>
<path d="M39.2571 25.8936L38.6245 25.9561L37.9641 24.4164L35.8786 24.6075L35.531 26.2342L34.8984 26.2933L36.2679 20.4713L36.8588 20.4192L39.2571 25.8936ZM37.7277 23.8359L36.7302 21.4967C36.6853 21.3752 36.6481 21.251 36.619 21.1248C36.613 21.2531 36.5979 21.3809 36.5738 21.5071L36.035 23.9819L37.7277 23.8359Z" fill="white"/>
<path d="M42.5073 25.5875L39.9804 25.8238L39.459 20.1757L40.0325 20.1235L40.5017 25.1739L42.4586 24.9897L42.5073 25.5875Z" fill="white"/>
</svg>
