<svg width="44" height="28" viewBox="0 0 44 28" fill="none" xmlns="http://www.w3.org/2000/svg">
<path d="M40.8042 11.1636L6.03516 14.3462L7.19952 27.0666L41.9686 23.884L40.8042 11.1636Z" fill="#ADF0D1"/>
<path d="M14.1774 24.8089C13.7226 24.8644 13.261 24.8167 12.8272 24.6693C12.3933 24.5219 11.9982 24.2785 11.6714 23.9573C10.9566 23.232 10.5367 22.2671 10.4931 21.2497C10.3423 20.1894 10.5832 19.1106 11.1709 18.2153C11.4391 17.8198 11.7952 17.4917 12.2112 17.2565C12.6272 17.0214 13.092 16.8856 13.5692 16.8597C14.0201 16.8055 14.4774 16.8549 14.9063 17.0043C15.3352 17.1537 15.7243 17.3991 16.044 17.7217C16.7523 18.4683 17.1659 19.4463 17.2083 20.4746C17.3574 21.5259 17.1163 22.5954 16.5306 23.4811C16.2641 23.8658 15.914 24.1852 15.5064 24.4152C15.0989 24.6451 14.6445 24.7797 14.1774 24.8089ZM13.6561 18.3369C13.3987 18.3533 13.1498 18.4354 12.9332 18.5753C12.7165 18.7153 12.5394 18.9085 12.4187 19.1364C12.1278 19.7062 12.0186 20.3516 12.1059 20.9855C12.1323 21.626 12.3583 22.2421 12.7524 22.7477C12.9055 22.9438 13.1064 23.0973 13.3358 23.1934C13.5653 23.2896 13.8156 23.3252 14.0627 23.2969C14.3119 23.2796 14.5529 23.2006 14.764 23.0671C14.9751 22.9337 15.1498 22.7499 15.2723 22.5322C15.5611 21.9679 15.6668 21.3277 15.5747 20.7005C15.5562 20.0449 15.3379 19.4107 14.9491 18.8826C14.7983 18.6886 14.6002 18.5365 14.3738 18.441C14.1474 18.3455 13.9003 18.3096 13.6561 18.3369Z" fill="white"/>
<path d="M21.702 17.6592L19.269 17.8747L19.4428 19.762L21.6673 19.5639L21.7959 20.9542L19.5714 21.1523L19.8425 24.1346L18.2957 24.2736L17.6006 16.5921L21.57 16.2515L21.702 17.6592Z" fill="white"/>
<path d="M26.4012 17.2351L23.9682 17.4506L24.142 19.3379L26.3665 19.1363L26.4986 20.5267L24.2706 20.7248L24.5417 23.7035L22.995 23.846L22.2998 16.1611L26.2726 15.8135L26.4012 17.2351Z" fill="white"/>
<path d="M31.8345 23.0571L27.7157 23.4291L27.0205 15.7475L30.9829 15.3826L31.115 16.7903L28.6993 17.0058L28.8557 18.7193L31.0941 18.5108L31.2262 19.9011L28.9843 20.1062L29.1407 21.8649L31.7128 21.6286L31.8345 23.0571Z" fill="white"/>
<path d="M38.3057 22.4662L36.533 22.6296L35.2817 20.7526C35.1879 20.6136 35.101 20.4815 35.0106 20.3703C34.9389 20.2677 34.8549 20.1743 34.7604 20.0922C34.6855 20.0228 34.6013 19.9643 34.5101 19.9184C34.4245 19.8824 34.3317 19.8669 34.239 19.8733L33.8219 19.9115L34.093 22.8451L32.5428 22.9876L31.8477 15.3061L34.2981 15.0767C35.9665 14.9237 36.8644 15.5436 36.9918 16.9362C37.0178 17.1896 37.0025 17.4454 36.9467 17.6939C36.8968 17.9199 36.8124 18.1367 36.6964 18.337C36.5794 18.5332 36.4289 18.7073 36.2515 18.8514C36.0677 18.9957 35.8639 19.1127 35.6467 19.1989C35.7574 19.2313 35.8619 19.2818 35.9561 19.3484C36.0665 19.4209 36.169 19.5048 36.2619 19.5987C36.3592 19.696 36.4531 19.8107 36.5469 19.9219C36.6408 20.0331 36.7207 20.1478 36.8007 20.2695L38.3057 22.4662ZM33.5091 16.467L33.7003 18.6081L34.3676 18.5455C34.5168 18.5364 34.6625 18.4969 34.7958 18.4293C34.9291 18.3618 35.0472 18.2676 35.1427 18.1527C35.3269 17.9174 35.4106 17.6188 35.3756 17.322C35.3165 16.6512 34.9272 16.3488 34.2043 16.4079L33.5091 16.467Z" fill="white"/>
<path d="M14.1774 24.8089C13.7226 24.8644 13.261 24.8167 12.8272 24.6693C12.3933 24.5219 11.9982 24.2785 11.6714 23.9573C10.9566 23.232 10.5367 22.2671 10.4931 21.2497C10.3423 20.1894 10.5832 19.1106 11.1709 18.2153C11.4391 17.8198 11.7952 17.4917 12.2112 17.2565C12.6272 17.0214 13.092 16.8856 13.5692 16.8597C14.0201 16.8055 14.4774 16.8549 14.9063 17.0043C15.3352 17.1537 15.7243 17.3991 16.044 17.7217C16.7523 18.4683 17.1659 19.4463 17.2083 20.4746C17.3574 21.5259 17.1163 22.5954 16.5306 23.4811C16.2641 23.8658 15.914 24.1852 15.5064 24.4152C15.0989 24.6451 14.6445 24.7797 14.1774 24.8089ZM13.6561 18.3369C13.3987 18.3533 13.1498 18.4354 12.9332 18.5753C12.7165 18.7153 12.5394 18.9085 12.4187 19.1364C12.1278 19.7062 12.0186 20.3516 12.1059 20.9855C12.1323 21.626 12.3583 22.2421 12.7524 22.7477C12.9055 22.9438 13.1064 23.0973 13.3358 23.1934C13.5653 23.2896 13.8156 23.3252 14.0627 23.2969C14.3119 23.2796 14.5529 23.2006 14.764 23.0671C14.9751 22.9337 15.1498 22.7499 15.2723 22.5322C15.5611 21.9679 15.6668 21.3277 15.5747 20.7005C15.5562 20.0449 15.3379 19.4107 14.9491 18.8826C14.7983 18.6886 14.6002 18.5365 14.3738 18.441C14.1474 18.3455 13.9003 18.3096 13.6561 18.3369Z" fill="#00203F"/>
<path d="M21.702 17.6592L19.269 17.8747L19.4428 19.762L21.6673 19.5639L21.7959 20.9542L19.5714 21.1523L19.8425 24.1346L18.2957 24.2736L17.6006 16.5921L21.57 16.2515L21.702 17.6592Z" fill="#00203F"/>
<path d="M26.4012 17.2351L23.9682 17.4506L24.142 19.3379L26.3665 19.1363L26.4986 20.5267L24.2706 20.7248L24.5417 23.7035L22.995 23.846L22.2998 16.1611L26.2726 15.8135L26.4012 17.2351Z" fill="#00203F"/>
<path d="M31.8345 23.0571L27.7157 23.4291L27.0205 15.7475L30.9829 15.3826L31.115 16.7903L28.6993 17.0058L28.8557 18.7193L31.0941 18.5108L31.2262 19.9011L28.9843 20.1062L29.1407 21.8649L31.7128 21.6286L31.8345 23.0571Z" fill="#00203F"/>
<path d="M38.3057 22.4662L36.533 22.6296L35.2817 20.7526C35.1879 20.6136 35.101 20.4815 35.0106 20.3703C34.9389 20.2677 34.8549 20.1743 34.7604 20.0922C34.6855 20.0228 34.6013 19.9643 34.5101 19.9184C34.4245 19.8824 34.3317 19.8669 34.239 19.8733L33.8219 19.9115L34.093 22.8451L32.5428 22.9876L31.8477 15.3061L34.2981 15.0767C35.9665 14.9237 36.8644 15.5436 36.9918 16.9362C37.0178 17.1896 37.0025 17.4454 36.9467 17.6939C36.8968 17.9199 36.8124 18.1367 36.6964 18.337C36.5794 18.5332 36.4289 18.7073 36.2515 18.8514C36.0677 18.9957 35.8639 19.1127 35.6467 19.1989C35.7574 19.2313 35.8619 19.2818 35.9561 19.3484C36.0665 19.4209 36.169 19.5048 36.2619 19.5987C36.3592 19.696 36.4531 19.8107 36.5469 19.9219C36.6408 20.0331 36.7207 20.1478 36.8007 20.2695L38.3057 22.4662ZM33.5091 16.467L33.7003 18.6081L34.3676 18.5455C34.5168 18.5364 34.6625 18.4969 34.7958 18.4293C34.9291 18.3618 35.0472 18.2676 35.1427 18.1527C35.3269 17.9174 35.4106 17.6188 35.3756 17.322C35.3165 16.6512 34.9272 16.3488 34.2043 16.4079L33.5091 16.467Z" fill="#00203F"/>
<path d="M14.1774 24.8089C13.7226 24.8644 13.261 24.8167 12.8272 24.6693C12.3933 24.5219 11.9982 24.2785 11.6714 23.9573C10.9566 23.232 10.5367 22.2671 10.4931 21.2497C10.3423 20.1894 10.5832 19.1106 11.1709 18.2153C11.4391 17.8198 11.7952 17.4917 12.2112 17.2565C12.6272 17.0214 13.092 16.8856 13.5692 16.8597C14.0201 16.8055 14.4774 16.8549 14.9063 17.0043C15.3352 17.1537 15.7243 17.3991 16.044 17.7217C16.7523 18.4683 17.1659 19.4463 17.2083 20.4746C17.3574 21.5259 17.1163 22.5954 16.5306 23.4811C16.2641 23.8658 15.914 24.1852 15.5064 24.4152C15.0989 24.6451 14.6445 24.7797 14.1774 24.8089ZM13.6561 18.3369C13.3987 18.3533 13.1498 18.4354 12.9332 18.5753C12.7165 18.7153 12.5394 18.9085 12.4187 19.1364C12.1278 19.7062 12.0186 20.3516 12.1059 20.9855C12.1323 21.626 12.3583 22.2421 12.7524 22.7477C12.9055 22.9438 13.1064 23.0973 13.3358 23.1934C13.5653 23.2896 13.8156 23.3252 14.0627 23.2969C14.3119 23.2796 14.5529 23.2006 14.764 23.0671C14.9751 22.9337 15.1498 22.7499 15.2723 22.5322C15.5611 21.9679 15.6668 21.3277 15.5747 20.7005C15.5562 20.0449 15.3379 19.4107 14.9491 18.8826C14.7983 18.6886 14.6002 18.5365 14.3738 18.441C14.1474 18.3455 13.9003 18.3096 13.6561 18.3369Z" fill="#00203F"/>
<path d="M21.702 17.6592L19.269 17.8747L19.4428 19.762L21.6673 19.5639L21.7959 20.9542L19.5714 21.1523L19.8425 24.1346L18.2957 24.2736L17.6006 16.5921L21.57 16.2515L21.702 17.6592Z" fill="#00203F"/>
<path d="M26.4012 17.2351L23.9682 17.4506L24.142 19.3379L26.3665 19.1363L26.4986 20.5267L24.2706 20.7248L24.5417 23.7035L22.995 23.846L22.2998 16.1611L26.2726 15.8135L26.4012 17.2351Z" fill="#00203F"/>
<path d="M31.8345 23.0571L27.7157 23.4291L27.0205 15.7475L30.9829 15.3826L31.115 16.7903L28.6993 17.0058L28.8557 18.7193L31.0941 18.5108L31.2262 19.9011L28.9843 20.1062L29.1407 21.8649L31.7128 21.6286L31.8345 23.0571Z" fill="#00203F"/>
<path d="M38.3057 22.4662L36.533 22.6296L35.2817 20.7526C35.1879 20.6136 35.101 20.4815 35.0106 20.3703C34.9389 20.2677 34.8549 20.1743 34.7604 20.0922C34.6855 20.0228 34.6013 19.9643 34.5101 19.9184C34.4245 19.8824 34.3317 19.8669 34.239 19.8733L33.8219 19.9115L34.093 22.8451L32.5428 22.9876L31.8477 15.3061L34.2981 15.0767C35.9665 14.9237 36.8644 15.5436 36.9918 16.9362C37.0178 17.1896 37.0025 17.4454 36.9467 17.6939C36.8968 17.9199 36.8124 18.1367 36.6964 18.337C36.5794 18.5332 36.4289 18.7073 36.2515 18.8514C36.0677 18.9957 35.8639 19.1127 35.6467 19.1989C35.7574 19.2313 35.8619 19.2818 35.9561 19.3484C36.0665 19.4209 36.169 19.5048 36.2619 19.5987C36.3592 19.696 36.4531 19.8107 36.5469 19.9219C36.6408 20.0331 36.7207 20.1478 36.8007 20.2695L38.3057 22.4662ZM33.5091 16.467L33.7003 18.6081L34.3676 18.5455C34.5168 18.5364 34.6625 18.4969 34.7958 18.4293C34.9291 18.3618 35.0472 18.2676 35.1427 18.1527C35.3269 17.9174 35.4106 17.6188 35.3756 17.322C35.3165 16.6512 34.9272 16.3488 34.2043 16.4079L33.5091 16.467Z" fill="#00203F"/>
<path d="M14.1774 24.8089C13.7226 24.8644 13.261 24.8167 12.8272 24.6693C12.3933 24.5219 11.9982 24.2785 11.6714 23.9573C10.9566 23.232 10.5367 22.2671 10.4931 21.2497C10.3423 20.1894 10.5832 19.1106 11.1709 18.2153C11.4391 17.8198 11.7952 17.4917 12.2112 17.2565C12.6272 17.0214 13.092 16.8856 13.5692 16.8597C14.0201 16.8055 14.4774 16.8549 14.9063 17.0043C15.3352 17.1537 15.7243 17.3991 16.044 17.7217C16.7523 18.4683 17.1659 19.4463 17.2083 20.4746C17.3574 21.5259 17.1163 22.5954 16.5306 23.4811C16.2641 23.8658 15.914 24.1852 15.5064 24.4152C15.0989 24.6451 14.6445 24.7797 14.1774 24.8089ZM13.6561 18.3369C13.3987 18.3533 13.1498 18.4354 12.9332 18.5753C12.7165 18.7153 12.5394 18.9085 12.4187 19.1364C12.1278 19.7062 12.0186 20.3516 12.1059 20.9855C12.1323 21.626 12.3583 22.2421 12.7524 22.7477C12.9055 22.9438 13.1064 23.0973 13.3358 23.1934C13.5653 23.2896 13.8156 23.3252 14.0627 23.2969C14.3119 23.2796 14.5529 23.2006 14.764 23.0671C14.9751 22.9337 15.1498 22.7499 15.2723 22.5322C15.5611 21.9679 15.6668 21.3277 15.5747 20.7005C15.5562 20.0449 15.3379 19.4107 14.9491 18.8826C14.7983 18.6886 14.6002 18.5365 14.3738 18.441C14.1474 18.3455 13.9003 18.3096 13.6561 18.3369Z" fill="#00203F"/>
<path d="M21.702 17.6592L19.269 17.8747L19.4428 19.762L21.6673 19.5639L21.7959 20.9542L19.5714 21.1523L19.8425 24.1346L18.2957 24.2736L17.6006 16.5921L21.57 16.2515L21.702 17.6592Z" fill="#00203F"/>
<path d="M26.4012 17.2351L23.9682 17.4506L24.142 19.3379L26.3665 19.1363L26.4986 20.5267L24.2706 20.7248L24.5417 23.7035L22.995 23.846L22.2998 16.1611L26.2726 15.8135L26.4012 17.2351Z" fill="#00203F"/>
<path d="M31.8345 23.0571L27.7157 23.4291L27.0205 15.7475L30.9829 15.3826L31.115 16.7903L28.6993 17.0058L28.8557 18.7193L31.0941 18.5108L31.2262 19.9011L28.9843 20.1062L29.1407 21.8649L31.7128 21.6286L31.8345 23.0571Z" fill="#00203F"/>
<path d="M38.3057 22.4662L36.533 22.6296L35.2817 20.7526C35.1879 20.6136 35.101 20.4815 35.0106 20.3703C34.9389 20.2677 34.8549 20.1743 34.7604 20.0922C34.6855 20.0228 34.6013 19.9643 34.5101 19.9184C34.4245 19.8824 34.3317 19.8669 34.239 19.8733L33.8219 19.9115L34.093 22.8451L32.5428 22.9876L31.8477 15.3061L34.2981 15.0767C35.9665 14.9237 36.8644 15.5436 36.9918 16.9362C37.0178 17.1896 37.0025 17.4454 36.9467 17.6939C36.8968 17.9199 36.8124 18.1367 36.6964 18.337C36.5794 18.5332 36.4289 18.7073 36.2515 18.8514C36.0677 18.9957 35.8639 19.1127 35.6467 19.1989C35.7574 19.2313 35.8619 19.2818 35.9561 19.3484C36.0665 19.4209 36.169 19.5048 36.2619 19.5987C36.3592 19.696 36.4531 19.8107 36.5469 19.9219C36.6408 20.0331 36.7207 20.1478 36.8007 20.2695L38.3057 22.4662ZM33.5091 16.467L33.7003 18.6081L34.3676 18.5455C34.5168 18.5364 34.6625 18.4969 34.7958 18.4293C34.9291 18.3618 35.0472 18.2676 35.1427 18.1527C35.3269 17.9174 35.4106 17.6188 35.3756 17.322C35.3165 16.6512 34.9272 16.3488 34.2043 16.4079L33.5091 16.467Z" fill="#00203F"/>
<path d="M0.15918 4.86817L35.9008 1.56616L36.9679 13.1301L1.22625 16.4322L0.15918 4.86817Z" fill="#00203F"/>
<path d="M43.5303 0.878908L7.79492 4.1814L7.8525 4.80438L43.5879 1.50189L43.5303 0.878908Z" fill="#00203F"/>
<path d="M39.5845 0.0418368L16.2158 2.20557L16.2735 2.82855L39.6421 0.664822L39.5845 0.0418368Z" fill="#ADF0D1"/>
<path d="M28.7809 24.4583L3.5498 26.79L3.60738 27.413L28.8384 25.0813L28.7809 24.4583Z" fill="#ADF0D1"/>
<path d="M38.6376 24.8052L15.2686 26.9648L15.3261 27.5878L38.6951 25.4282L38.6376 24.8052Z" fill="#00203F"/>
<path d="M5.40057 13.2274L5.32063 12.3689C5.42097 12.4518 5.53203 12.5208 5.65083 12.574C5.77476 12.6352 5.90541 12.6819 6.04013 12.713C6.17515 12.7477 6.3121 12.7744 6.45027 12.7929C6.57511 12.8049 6.7008 12.8049 6.82565 12.7929C7.13842 12.7807 7.43661 12.6575 7.6668 12.4453C7.75756 12.3455 7.82444 12.2264 7.86237 12.0969C7.90031 11.9675 7.90831 11.8311 7.88577 11.6981C7.87241 11.5479 7.82484 11.4029 7.74673 11.274C7.66786 11.1528 7.56778 11.0469 7.4513 10.9612C7.31792 10.8601 7.17468 10.7728 7.02377 10.7005L6.5024 10.4502C6.30081 10.3529 6.12006 10.2591 5.94627 10.1618C5.78131 10.0694 5.62738 9.95866 5.48746 9.83155C5.35281 9.70884 5.24306 9.56132 5.16422 9.39708C5.07101 9.20963 5.01776 9.00486 5.00781 8.79576C4.97953 8.54018 5.0129 8.28155 5.10513 8.04152C5.18369 7.8295 5.3111 7.63897 5.47704 7.48539C5.64221 7.33649 5.83299 7.21873 6.04013 7.13781C6.25518 7.05218 6.48084 6.99606 6.71095 6.97096C7.10564 6.9075 7.51001 6.94578 7.88577 7.08219L7.97962 7.90943C7.60696 7.67576 7.16428 7.57984 6.72833 7.63832C6.58861 7.65063 6.45089 7.67981 6.31818 7.72522C6.18926 7.76683 6.07075 7.83557 5.9706 7.92681C5.85975 8.01576 5.77415 8.13221 5.72231 8.26455C5.67047 8.39688 5.65421 8.54049 5.67516 8.68106C5.68369 8.82396 5.72155 8.96357 5.78639 9.0912C5.85207 9.20344 5.93675 9.30341 6.03665 9.38665C6.15924 9.4795 6.29082 9.55984 6.42941 9.62648C6.5754 9.70642 6.74919 9.7829 6.95078 9.88022C7.15238 9.97754 7.34007 10.0714 7.52429 10.1757C7.70222 10.2748 7.86591 10.3976 8.0109 10.5406C8.14741 10.6768 8.26438 10.8312 8.35848 10.9994C8.45427 11.1894 8.51324 11.3958 8.53227 11.6077C8.56399 11.8753 8.53305 12.1466 8.44189 12.4002C8.36633 12.6137 8.23848 12.8049 8.06999 12.9563C7.89816 13.1068 7.70025 13.2246 7.48605 13.3039C7.25555 13.384 7.01637 13.4365 6.77351 13.4603C6.68662 13.4603 6.58582 13.4603 6.46069 13.4603C6.33557 13.4603 6.21044 13.4603 6.07141 13.4255C5.94199 13.4111 5.81407 13.3855 5.68907 13.3491C5.58704 13.3241 5.48965 13.283 5.40057 13.2274Z" fill="white"/>
<path d="M10.1448 10.69L10.3603 13.0362L9.73464 13.0987L9.16113 6.86663L10.6279 6.7276C10.8711 6.68578 11.1203 6.69509 11.3597 6.75493C11.5991 6.81478 11.8234 6.92385 12.0182 7.07518C12.2012 7.24563 12.3483 7.45086 12.4509 7.67884C12.5536 7.90682 12.6097 8.15299 12.6161 8.40293C12.6833 8.93374 12.5439 9.47007 12.2268 9.901C12.0611 10.1068 11.8537 10.2751 11.6183 10.395C11.3828 10.5148 11.1247 10.5834 10.8608 10.5962L10.1448 10.69ZM9.84935 7.48184L10.0822 10.0296L10.7426 9.97051C10.9233 9.96623 11.1013 9.92519 11.2656 9.8499C11.4299 9.7746 11.5772 9.66664 11.6985 9.53257C11.8053 9.38969 11.8828 9.22703 11.9263 9.054C11.9699 8.88098 11.9787 8.70102 11.9522 8.52458C11.8723 7.71124 11.4204 7.33586 10.5619 7.4158L9.84935 7.48184Z" fill="white"/>
<path d="M16.8605 12.4279L14.0173 12.6886L13.4473 6.47737L16.1653 6.22363L16.2279 6.88403L14.1424 7.07521L14.3336 9.1433L16.2731 8.96256L16.3322 9.61254L14.3927 9.79329L14.5943 11.9657L16.8118 11.7606L16.8605 12.4279Z" fill="white"/>
<path d="M21.5078 11.7327C21.0835 12.0297 20.5857 12.2041 20.0688 12.2367C19.7174 12.2801 19.3607 12.2397 19.0278 12.1189C18.695 11.9981 18.3954 11.8002 18.1536 11.5416C17.6113 10.9412 17.2954 10.1705 17.2604 9.36223C17.1423 8.49535 17.3357 7.6147 17.8061 6.87704C18.0152 6.56258 18.2932 6.29991 18.6191 6.10899C18.9449 5.91808 19.3099 5.80392 19.6865 5.7752C20.1201 5.72046 20.5606 5.76809 20.9725 5.91424L21.0386 6.68587C20.6402 6.47391 20.1872 6.38672 19.7386 6.43561C19.4495 6.45415 19.1688 6.5406 18.9194 6.68796C18.67 6.83532 18.4588 7.03943 18.3031 7.28371C17.9492 7.87462 17.8082 8.56883 17.9034 9.251C17.9257 9.90084 18.1712 10.5232 18.5985 11.0132C18.783 11.2132 19.0118 11.3671 19.2666 11.4624C19.5213 11.5578 19.7949 11.5921 20.0653 11.5624C20.5637 11.5263 21.038 11.3342 21.4209 11.0132L21.5078 11.7327Z" fill="white"/>
<path d="M23.2036 5.57373L23.2627 6.19937L22.7414 6.24804L23.2036 11.2219L23.725 11.1698L23.7876 11.7919L22.1088 11.9483L22.0497 11.3262L22.5676 11.2706L22.1088 6.30365L21.5874 6.35579L21.5283 5.72667L23.2036 5.57373Z" fill="white"/>
<path d="M28.8097 11.3158L28.1145 11.3749L27.3881 9.68216L25.1184 9.89071L24.743 11.6807L24.0479 11.7433L25.5251 5.33741L26.1785 5.27832L28.8097 11.3158ZM27.1239 9.05651L26.0534 6.48442C26.0014 6.35255 25.9607 6.21651 25.9317 6.07776H25.9144C25.9087 6.21995 25.8936 6.36161 25.8692 6.50181L25.2783 9.2303L27.1239 9.05651Z" fill="white"/>
<path d="M32.3795 10.9856L29.5989 11.2462L29.0254 5.03151L29.651 4.97241L30.1655 10.5337L32.31 10.3425L32.3795 10.9856Z" fill="white"/>
</svg>
