<svg width="43" height="44" viewBox="0 0 43 44" fill="none" xmlns="http://www.w3.org/2000/svg">
<path d="M40.2949 18.2964V23.0235L42.8044 20.7503L40.2949 18.2964Z" fill="#AB0000"/>
<path d="M2.66925 23.1904V18.4702L0.15625 20.7503L2.66925 23.1904Z" fill="#AB0000"/>
<path d="M2.66895 11.025L21.48 0.163086L40.2945 11.025V32.7487L21.48 43.6106L2.66895 32.7487V11.025Z" fill="#002540"/>
<path d="M4.61523 12.1475L21.4798 2.41528L38.3444 12.1475V31.6259L21.4798 41.3582L4.61523 31.6259V12.1475Z" fill="#002540"/>
<path d="M21.4808 41.4661L21.4391 41.4382L4.5293 31.6713V12.1025L4.571 12.0782L21.4808 2.31812L21.526 2.34593L38.4357 12.1025V31.6713L38.3906 31.6956L21.4808 41.4661ZM4.69961 31.5774L21.4808 41.2645L38.262 31.5774V12.1963L21.4808 2.50928L4.69961 12.1963V31.5774Z" fill="white"/>
<path d="M42.8113 20.7468H0.15625V31.6087H42.8113V20.7468Z" fill="#F50000"/>
<path d="M21.4801 5.03613L21.9841 5.89117L22.9574 6.10666L22.2969 6.85397L22.3943 7.83763L21.4801 7.44486L20.5695 7.83763L20.6564 6.85397L20.0029 6.10666L20.9761 5.89117L21.4801 5.03613Z" fill="#F50000"/>
<path d="M15.9645 7.50732L16.4685 8.3589L17.4417 8.5744L16.7813 9.32168L16.8752 10.3123L15.9645 9.92301L15.0504 10.3123L15.1442 9.32168L14.4873 8.5744L15.457 8.3589L15.9645 7.50732Z" fill="#F50000"/>
<path d="M26.9997 7.50732L27.5037 8.3589L28.4769 8.5744L27.8165 9.32168L27.9103 10.3123L26.9997 9.92301L26.0855 10.3123L26.1724 9.32168L25.5225 8.5744L26.4922 8.3589L26.9997 7.50732Z" fill="#F50000"/>
<path d="M21.4805 33.2354L22.3564 34.7056L24.0352 35.0879L22.9056 36.3809L23.0516 38.0841L21.4805 37.4132L19.899 38.0841L20.0554 36.3809L18.9258 35.0879L20.6046 34.7056L21.4805 33.2354Z" fill="white"/>
<path d="M12.8364 29.5336C12.4456 29.5457 12.0572 29.4691 11.7002 29.3096C11.3432 29.15 11.027 28.9117 10.7753 28.6126C10.2244 27.9365 9.94001 27.0822 9.97587 26.2108C9.93309 25.3012 10.2193 24.4066 10.7822 23.6908C11.0423 23.378 11.3704 23.1286 11.7414 22.9618C12.1125 22.7949 12.5167 22.715 12.9233 22.728C13.3099 22.7137 13.6945 22.7895 14.0468 22.9494C14.3991 23.1092 14.7094 23.3488 14.9532 23.6491C15.4972 24.3397 15.7726 25.2041 15.7283 26.0822C15.7703 26.9863 15.4839 27.8752 14.9219 28.5848C14.6699 28.8917 14.3509 29.1368 13.9893 29.3013C13.6278 29.4658 13.2334 29.5453 12.8364 29.5336ZM12.8886 23.9967C12.6687 23.9905 12.4508 24.0409 12.2561 24.1432C12.0613 24.2454 11.8961 24.3961 11.7763 24.5806C11.5082 25.052 11.3672 25.585 11.3672 26.1274C11.3672 26.6697 11.5082 27.2027 11.7763 27.6741C11.8987 27.847 12.0607 27.988 12.2488 28.0853C12.4368 28.1826 12.6455 28.2334 12.8573 28.2334C13.0691 28.2334 13.2777 28.1826 13.4658 28.0853C13.6539 27.988 13.8159 27.847 13.9383 27.6741C14.2322 27.2178 14.3723 26.6794 14.338 26.1378C14.3711 25.5801 14.2354 25.0254 13.9487 24.5459C13.8322 24.3736 13.6737 24.2337 13.4883 24.1395C13.3028 24.0453 13.0965 23.9997 12.8886 24.0071V23.9967Z" fill="white"/>
<path d="M19.7873 24.0489H17.7018V25.6686H19.6135V26.8678H17.7018V29.419H16.374V22.8428H19.7699V24.0489H19.7873Z" fill="white"/>
<path d="M23.819 24.0489H21.7336V25.6686H23.6453V26.8678H21.7336V29.419H20.4023V22.8428H23.8017V24.0489H23.819Z" fill="white"/>
<path d="M27.9801 29.4292H24.4521V22.8252H27.8411V24.0313H25.7729V25.4911H27.6951V26.6938H25.7729V28.1953H27.9801V29.4292Z" fill="white"/>
<path d="M33.5235 29.4294H31.9942L31.0835 27.7332C31.0105 27.6046 30.9514 27.4899 30.8819 27.3856C30.8266 27.2929 30.7626 27.2056 30.6907 27.125C30.6356 27.0562 30.567 26.9994 30.4891 26.9581C30.4207 26.9206 30.3447 26.8991 30.2667 26.8955H29.9191V29.4155H28.5879V22.8428H30.6907C32.1181 22.8428 32.8318 23.4395 32.8318 24.6328C32.8328 24.8475 32.8 25.061 32.7345 25.2654C32.6787 25.4554 32.5879 25.6334 32.4669 25.7902C32.3499 25.9447 32.2091 26.0797 32.0498 26.19C31.879 26.3025 31.6944 26.3925 31.5006 26.4576V26.475C31.5923 26.5101 31.6779 26.5593 31.7543 26.621C31.8397 26.6956 31.9177 26.7782 31.9872 26.8678C32.0567 26.9616 32.1367 27.0589 32.2062 27.1597C32.2757 27.2605 32.3348 27.3683 32.3974 27.476L33.5235 29.4294ZM29.9087 23.9724V25.8076H30.4822C30.6115 25.8134 30.7405 25.7913 30.8605 25.7427C30.9804 25.6941 31.0885 25.6202 31.1774 25.5261C31.2643 25.433 31.3321 25.3237 31.3769 25.2044C31.4216 25.0852 31.4424 24.9582 31.4381 24.8309C31.4381 24.2574 31.1322 23.9724 30.5135 23.9724H29.9087Z" fill="white"/>
<path d="M12.8364 29.5336C12.4456 29.5457 12.0572 29.4691 11.7002 29.3096C11.3432 29.15 11.027 28.9117 10.7753 28.6126C10.2244 27.9365 9.94001 27.0822 9.97587 26.2108C9.93309 25.3012 10.2193 24.4066 10.7822 23.6908C11.0423 23.378 11.3704 23.1286 11.7414 22.9618C12.1125 22.7949 12.5167 22.715 12.9233 22.728C13.3099 22.7137 13.6945 22.7895 14.0468 22.9494C14.3991 23.1092 14.7094 23.3488 14.9532 23.6491C15.4972 24.3397 15.7726 25.2041 15.7283 26.0822C15.7703 26.9863 15.4839 27.8752 14.9219 28.5848C14.6699 28.8917 14.3509 29.1368 13.9893 29.3013C13.6278 29.4658 13.2334 29.5453 12.8364 29.5336ZM12.8886 23.9967C12.6687 23.9905 12.4508 24.0409 12.2561 24.1432C12.0613 24.2454 11.8961 24.3961 11.7763 24.5806C11.5082 25.052 11.3672 25.585 11.3672 26.1274C11.3672 26.6697 11.5082 27.2027 11.7763 27.6741C11.8987 27.847 12.0607 27.988 12.2488 28.0853C12.4368 28.1826 12.6455 28.2334 12.8573 28.2334C13.0691 28.2334 13.2777 28.1826 13.4658 28.0853C13.6539 27.988 13.8159 27.847 13.9383 27.6741C14.2322 27.2178 14.3723 26.6794 14.338 26.1378C14.3711 25.5801 14.2354 25.0254 13.9487 24.5459C13.8322 24.3736 13.6737 24.2337 13.4883 24.1395C13.3028 24.0453 13.0965 23.9997 12.8886 24.0071V23.9967Z" fill="#002540"/>
<path d="M19.7873 24.0489H17.7018V25.6686H19.6135V26.8678H17.7018V29.419H16.374V22.8428H19.7699V24.0489H19.7873Z" fill="#002540"/>
<path d="M23.819 24.0489H21.7336V25.6686H23.6453V26.8678H21.7336V29.419H20.4023V22.8428H23.8017V24.0489H23.819Z" fill="#002540"/>
<path d="M27.9801 29.4292H24.4521V22.8252H27.8411V24.0313H25.7729V25.4911H27.6951V26.6938H25.7729V28.1953H27.9801V29.4292Z" fill="#002540"/>
<path d="M33.5235 29.4294H31.9942L31.0835 27.7332C31.0105 27.6046 30.9514 27.4899 30.8819 27.3856C30.8266 27.2929 30.7626 27.2056 30.6907 27.125C30.6356 27.0562 30.567 26.9994 30.4891 26.9581C30.4207 26.9206 30.3447 26.8991 30.2667 26.8955H29.9191V29.4155H28.5879V22.8428H30.6907C32.1181 22.8428 32.8318 23.4395 32.8318 24.6328C32.8328 24.8475 32.8 25.061 32.7345 25.2654C32.6787 25.4554 32.5879 25.6334 32.4669 25.7902C32.3499 25.9447 32.2091 26.0797 32.0498 26.19C31.879 26.3025 31.6944 26.3925 31.5006 26.4576V26.475C31.5923 26.5101 31.6779 26.5593 31.7543 26.621C31.8397 26.6956 31.9177 26.7782 31.9872 26.8678C32.0567 26.9616 32.1367 27.0589 32.2062 27.1597C32.2757 27.2605 32.3348 27.3683 32.3974 27.476L33.5235 29.4294ZM29.9087 23.9724V25.8076H30.4822C30.6115 25.8134 30.7405 25.7913 30.8605 25.7427C30.9804 25.6941 31.0885 25.6202 31.1774 25.5261C31.2643 25.433 31.3321 25.3237 31.3769 25.2044C31.4216 25.0852 31.4424 24.9582 31.4381 24.8309C31.4381 24.2574 31.1322 23.9724 30.5135 23.9724H29.9087Z" fill="#002540"/>
<path d="M12.8364 29.5336C12.4456 29.5457 12.0572 29.4691 11.7002 29.3096C11.3432 29.15 11.027 28.9117 10.7753 28.6126C10.2244 27.9365 9.94001 27.0822 9.97587 26.2108C9.93309 25.3012 10.2193 24.4066 10.7822 23.6908C11.0423 23.378 11.3704 23.1286 11.7414 22.9618C12.1125 22.7949 12.5167 22.715 12.9233 22.728C13.3099 22.7137 13.6945 22.7895 14.0468 22.9494C14.3991 23.1092 14.7094 23.3488 14.9532 23.6491C15.4972 24.3397 15.7726 25.2041 15.7283 26.0822C15.7703 26.9863 15.4839 27.8752 14.9219 28.5848C14.6699 28.8917 14.3509 29.1368 13.9893 29.3013C13.6278 29.4658 13.2334 29.5453 12.8364 29.5336ZM12.8886 23.9967C12.6687 23.9905 12.4508 24.0409 12.2561 24.1432C12.0613 24.2454 11.8961 24.3961 11.7763 24.5806C11.5082 25.052 11.3672 25.585 11.3672 26.1274C11.3672 26.6697 11.5082 27.2027 11.7763 27.6741C11.8987 27.847 12.0607 27.988 12.2488 28.0853C12.4368 28.1826 12.6455 28.2334 12.8573 28.2334C13.0691 28.2334 13.2777 28.1826 13.4658 28.0853C13.6539 27.988 13.8159 27.847 13.9383 27.6741C14.2322 27.2178 14.3723 26.6794 14.338 26.1378C14.3711 25.5801 14.2354 25.0254 13.9487 24.5459C13.8322 24.3736 13.6737 24.2337 13.4883 24.1395C13.3028 24.0453 13.0965 23.9997 12.8886 24.0071V23.9967Z" fill="#002540"/>
<path d="M19.7873 24.0489H17.7018V25.6686H19.6135V26.8678H17.7018V29.419H16.374V22.8428H19.7699V24.0489H19.7873Z" fill="#002540"/>
<path d="M23.819 24.0489H21.7336V25.6686H23.6453V26.8678H21.7336V29.419H20.4023V22.8428H23.8017V24.0489H23.819Z" fill="#002540"/>
<path d="M27.9801 29.4292H24.4521V22.8252H27.8411V24.0313H25.7729V25.4911H27.6951V26.6938H25.7729V28.1953H27.9801V29.4292Z" fill="#002540"/>
<path d="M33.5235 29.4294H31.9942L31.0835 27.7332C31.0105 27.6046 30.9514 27.4899 30.8819 27.3856C30.8266 27.2929 30.7626 27.2056 30.6907 27.125C30.6356 27.0562 30.567 26.9994 30.4891 26.9581C30.4207 26.9206 30.3447 26.8991 30.2667 26.8955H29.9191V29.4155H28.5879V22.8428H30.6907C32.1181 22.8428 32.8318 23.4395 32.8318 24.6328C32.8328 24.8475 32.8 25.061 32.7345 25.2654C32.6787 25.4554 32.5879 25.6334 32.4669 25.7902C32.3499 25.9447 32.2091 26.0797 32.0498 26.19C31.879 26.3025 31.6944 26.3925 31.5006 26.4576V26.475C31.5923 26.5101 31.6779 26.5593 31.7543 26.621C31.8397 26.6956 31.9177 26.7782 31.9872 26.8678C32.0567 26.9616 32.1367 27.0589 32.2062 27.1597C32.2757 27.2605 32.3348 27.3683 32.3974 27.476L33.5235 29.4294ZM29.9087 23.9724V25.8076H30.4822C30.6115 25.8134 30.7405 25.7913 30.8605 25.7427C30.9804 25.6941 31.0885 25.6202 31.1774 25.5261C31.2643 25.433 31.3321 25.3237 31.3769 25.2044C31.4216 25.0852 31.4424 24.9582 31.4381 24.8309C31.4381 24.2574 31.1322 23.9724 30.5135 23.9724H29.9087Z" fill="#002540"/>
<path d="M12.8364 29.5336C12.4456 29.5457 12.0572 29.4691 11.7002 29.3096C11.3432 29.15 11.027 28.9117 10.7753 28.6126C10.2244 27.9365 9.94001 27.0822 9.97587 26.2108C9.93309 25.3012 10.2193 24.4066 10.7822 23.6908C11.0423 23.378 11.3704 23.1286 11.7414 22.9618C12.1125 22.7949 12.5167 22.715 12.9233 22.728C13.3099 22.7137 13.6945 22.7895 14.0468 22.9494C14.3991 23.1092 14.7094 23.3488 14.9532 23.6491C15.4972 24.3397 15.7726 25.2041 15.7283 26.0822C15.7703 26.9863 15.4839 27.8752 14.9219 28.5848C14.6699 28.8917 14.3509 29.1368 13.9893 29.3013C13.6278 29.4658 13.2334 29.5453 12.8364 29.5336ZM12.8886 23.9967C12.6687 23.9905 12.4508 24.0409 12.2561 24.1432C12.0613 24.2454 11.8961 24.3961 11.7763 24.5806C11.5082 25.052 11.3672 25.585 11.3672 26.1274C11.3672 26.6697 11.5082 27.2027 11.7763 27.6741C11.8987 27.847 12.0607 27.988 12.2488 28.0853C12.4368 28.1826 12.6455 28.2334 12.8573 28.2334C13.0691 28.2334 13.2777 28.1826 13.4658 28.0853C13.6539 27.988 13.8159 27.847 13.9383 27.6741C14.2322 27.2178 14.3723 26.6794 14.338 26.1378C14.3711 25.5801 14.2354 25.0254 13.9487 24.5459C13.8322 24.3736 13.6737 24.2337 13.4883 24.1395C13.3028 24.0453 13.0965 23.9997 12.8886 24.0071V23.9967Z" fill="#002540"/>
<path d="M19.7873 24.0489H17.7018V25.6686H19.6135V26.8678H17.7018V29.419H16.374V22.8428H19.7699V24.0489H19.7873Z" fill="#002540"/>
<path d="M23.819 24.0489H21.7336V25.6686H23.6453V26.8678H21.7336V29.419H20.4023V22.8428H23.8017V24.0489H23.819Z" fill="#002540"/>
<path d="M27.9801 29.4292H24.4521V22.8252H27.8411V24.0313H25.7729V25.4911H27.6951V26.6938H25.7729V28.1953H27.9801V29.4292Z" fill="#002540"/>
<path d="M33.5235 29.4294H31.9942L31.0835 27.7332C31.0105 27.6046 30.9514 27.4899 30.8819 27.3856C30.8266 27.2929 30.7626 27.2056 30.6907 27.125C30.6356 27.0562 30.567 26.9994 30.4891 26.9581C30.4207 26.9206 30.3447 26.8991 30.2667 26.8955H29.9191V29.4155H28.5879V22.8428H30.6907C32.1181 22.8428 32.8318 23.4395 32.8318 24.6328C32.8328 24.8475 32.8 25.061 32.7345 25.2654C32.6787 25.4554 32.5879 25.6334 32.4669 25.7902C32.3499 25.9447 32.2091 26.0797 32.0498 26.19C31.879 26.3025 31.6944 26.3925 31.5006 26.4576V26.475C31.5923 26.5101 31.6779 26.5593 31.7543 26.621C31.8397 26.6956 31.9177 26.7782 31.9872 26.8678C32.0567 26.9616 32.1367 27.0589 32.2062 27.1597C32.2757 27.2605 32.3348 27.3683 32.3974 27.476L33.5235 29.4294ZM29.9087 23.9724V25.8076H30.4822C30.6115 25.8134 30.7405 25.7913 30.8605 25.7427C30.9804 25.6941 31.0885 25.6202 31.1774 25.5261C31.2643 25.433 31.3321 25.3237 31.3769 25.2044C31.4216 25.0852 31.4424 24.9582 31.4381 24.8309C31.4381 24.2574 31.1322 23.9724 30.5135 23.9724H29.9087Z" fill="#002540"/>
<path d="M9.05469 18.8177V18.0217C9.13924 18.1079 9.23655 18.1806 9.34318 18.2372C9.45488 18.3011 9.57104 18.3569 9.69076 18.4041C9.80466 18.4451 9.92069 18.4799 10.0383 18.5084C10.1527 18.532 10.2692 18.5436 10.3859 18.5431C10.6724 18.5654 10.957 18.4812 11.1854 18.3068C11.2749 18.2213 11.3446 18.1172 11.3896 18.002C11.4347 17.8867 11.4539 17.7629 11.446 17.6394C11.4494 17.4978 11.4196 17.3573 11.3591 17.2293C11.2958 17.1123 11.2136 17.0066 11.1158 16.9164C11.0031 16.8146 10.8809 16.7238 10.7509 16.6453L10.2886 16.3673C10.1183 16.2665 9.94101 16.1587 9.80545 16.0544C9.66122 15.9545 9.52939 15.8379 9.41271 15.7068C9.29864 15.5828 9.21006 15.4375 9.15202 15.2793C9.08729 15.0988 9.05549 14.9081 9.05817 14.7163C9.05349 14.4765 9.1034 14.2387 9.20414 14.0211C9.29154 13.831 9.4269 13.6669 9.59691 13.5449C9.76103 13.416 9.94878 13.3203 10.1496 13.2634C10.3562 13.2028 10.5703 13.1712 10.7856 13.1695C11.1535 13.1435 11.5217 13.2154 11.8527 13.3781V14.1358C11.5283 13.8915 11.1287 13.7686 10.7231 13.7882C10.5946 13.7903 10.4666 13.8043 10.3407 13.8299C10.2167 13.8581 10.0989 13.9088 9.99316 13.9794C9.89227 14.0498 9.809 14.1426 9.74985 14.2505C9.6859 14.3727 9.65362 14.5089 9.65599 14.6467C9.65389 14.7772 9.6763 14.9069 9.72204 15.0291C9.77245 15.1406 9.84454 15.241 9.93408 15.3245C10.0423 15.4222 10.1586 15.5106 10.2817 15.5887C10.4103 15.6721 10.5701 15.7625 10.7439 15.8563C10.9177 15.9502 11.0915 16.0649 11.2479 16.1796C11.4003 16.2877 11.5402 16.4124 11.665 16.5515C11.7835 16.6859 11.8798 16.8385 11.95 17.0033C12.0231 17.1855 12.0586 17.3806 12.0543 17.5768C12.0606 17.825 12.0095 18.0712 11.9048 18.2963C11.8188 18.4872 11.6847 18.6525 11.5156 18.776C11.345 18.9005 11.1529 18.9924 10.949 19.0471C10.7306 19.1017 10.5067 19.1309 10.2817 19.134C10.1908 19.1308 10.1002 19.1215 10.0105 19.1062C9.89931 19.1062 9.77765 19.0714 9.66295 19.0471C9.54466 19.0211 9.42848 18.9862 9.31537 18.9428C9.22107 18.9188 9.13247 18.8762 9.05469 18.8177Z" fill="white"/>
<path d="M13.6425 16.8749V19.0542H13.0586V13.2948H14.4246C14.6503 13.2804 14.8767 13.3131 15.0891 13.3909C15.3015 13.4687 15.4954 13.5899 15.6585 13.7467C15.8109 13.9184 15.9278 14.1186 16.0023 14.3358C16.0769 14.5529 16.1077 14.7827 16.093 15.0118C16.1126 15.5055 15.9379 15.9872 15.6063 16.3535C15.4376 16.5286 15.2334 16.6657 15.0074 16.7556C14.7814 16.8455 14.5389 16.8862 14.296 16.8749H13.6425ZM13.6425 13.9031V16.2666H14.2508C14.4169 16.2859 14.5852 16.2675 14.7432 16.2128C14.9012 16.1581 15.0448 16.0684 15.1634 15.9505C15.282 15.8326 15.3725 15.6895 15.4281 15.5318C15.4837 15.3741 15.5031 15.2059 15.4847 15.0397C15.4847 14.275 15.0954 13.9031 14.3203 13.9031H13.6425Z" fill="white"/>
<path d="M19.6659 19.0541H17.0312V13.2947H19.5512V13.8925H17.6152V15.8112H19.3948V16.4194H17.6047V18.4354H19.6555V19.0436L19.6659 19.0541Z" fill="white"/>
<path d="M24.0008 18.8108C23.5797 19.0562 23.0975 19.1768 22.6105 19.1584C22.2856 19.17 21.9625 19.1045 21.6677 18.9674C21.3729 18.8303 21.1147 18.6254 20.9143 18.3694C20.4665 17.7693 20.2427 17.0316 20.2817 16.2839C20.2441 15.476 20.501 14.6818 21.0047 14.049C21.2242 13.776 21.5036 13.5573 21.8213 13.4096C22.1389 13.262 22.4862 13.1893 22.8364 13.1974C23.2407 13.1833 23.6429 13.263 24.0112 13.4303V14.1532C23.6607 13.9224 23.2492 13.8014 22.8295 13.8057C22.5621 13.7983 22.2967 13.8543 22.0551 13.9691C21.8135 14.0838 21.6024 14.2542 21.4391 14.4661C21.0613 14.9772 20.8733 15.604 20.9073 16.2387C20.8759 16.8387 21.0514 17.4313 21.4044 17.9175C21.5553 18.1181 21.7521 18.2795 21.9783 18.3884C22.2045 18.4972 22.4534 18.5503 22.7043 18.5432C23.1655 18.5519 23.6182 18.4184 24.0008 18.1608V18.8108Z" fill="white"/>
<path d="M26.0796 13.2947V13.8925H25.593V18.4806H26.0796V19.0645H24.5225V18.4806H25.0091V13.8925H24.5225V13.3121L26.0796 13.2947Z" fill="white"/>
<path d="M30.744 19.0541H30.101L29.5727 17.4378H27.4663L26.9728 19.0541H26.3193L28.2241 13.2947H28.8254L30.744 19.0541ZM29.378 16.8296L28.596 14.3722C28.5633 14.2463 28.5378 14.1186 28.5195 13.9898C28.5021 14.119 28.4753 14.2468 28.4396 14.3722L27.6679 16.8296H29.378Z" fill="white"/>
<path d="M34.0527 19.0541H31.4736V13.2947H32.0541V18.4458H34.0527V19.0541Z" fill="white"/>
</svg>
