<svg width="59" height="59" viewBox="0 0 59 59" fill="none" xmlns="http://www.w3.org/2000/svg">
<rect x="0.580078" y="0.864014" width="57.93" height="57.93" rx="5.75" fill="white"/>
<path d="M44.896 13.1453L50.5616 14.2818L42.4873 24.6849L44.896 13.1453Z" fill="#FABD00"/>
<path d="M48.7955 20.062L51.3259 20.7468L44.2109 24.7891L48.7955 20.062Z" fill="#001B62"/>
<path d="M12.1094 46.5825L8.00098 43.6455L14.6745 34.9734L12.1094 46.5825Z" fill="#FABD00"/>
<path d="M9.7037 38.0043L7.87891 36.5028L13.4124 34.3408L9.7037 38.0043Z" fill="#001B62"/>
<path d="M47.4333 25.752C47.871 27.8356 47.894 29.9852 47.5011 32.0777C47.1081 34.1703 46.3068 36.165 45.1429 37.948C42.7924 41.5487 39.1077 44.0682 34.8995 44.9523C30.6913 45.8363 26.3043 45.0124 22.7036 42.6619C19.1028 40.3114 16.5833 36.6267 15.6992 32.4185L47.4333 25.752Z" fill="#FABD00"/>
<path d="M9.9298 33.635C9.10265 29.4501 9.95835 25.1079 12.3114 21.5497C14.6644 17.9915 18.3251 15.5042 22.4997 14.627C26.6744 13.7498 31.0266 14.5535 34.6127 16.8637C38.1988 19.174 40.7298 22.8046 41.6569 26.9684L9.9298 33.635Z" fill="#001B62"/>
<path d="M13.9612 29.3702L13.8152 28.6751C13.9058 28.7312 14.0026 28.7766 14.1037 28.8106C14.2164 28.8494 14.3329 28.8762 14.4512 28.8906C14.5662 28.9092 14.6824 28.9185 14.7988 28.9184C14.9021 28.9203 15.0051 28.9074 15.1047 28.8801C15.3574 28.8441 15.5897 28.7212 15.7616 28.5326C15.826 28.444 15.8697 28.3421 15.8895 28.2345C15.9094 28.1268 15.9049 28.0161 15.8763 27.9104C15.8573 27.7842 15.8071 27.6647 15.7303 27.5628C15.6523 27.4709 15.5609 27.3913 15.4592 27.3265C15.338 27.2605 15.2126 27.2025 15.0838 27.1527C14.9448 27.104 14.7988 27.0484 14.632 26.9997L14.1558 26.8155C14.0119 26.7541 13.8745 26.6784 13.7457 26.5896C13.6267 26.5003 13.5244 26.3909 13.4433 26.2663C13.351 26.1251 13.2883 25.9667 13.259 25.8006C13.2096 25.6067 13.2067 25.4039 13.2509 25.2087C13.295 25.0136 13.3847 24.8316 13.5128 24.6779C13.6361 24.5375 13.7832 24.4198 13.9473 24.3303C14.117 24.2392 14.2982 24.1714 14.486 24.1287C14.8052 24.0466 15.14 24.0466 15.4592 24.1287L15.5983 24.7891C15.2735 24.6338 14.9046 24.5969 14.5555 24.6848C14.4447 24.7083 14.3372 24.7457 14.2357 24.7961C14.1354 24.8443 14.0438 24.9089 13.9646 24.9872C13.8891 25.0658 13.8332 25.1611 13.8013 25.2653C13.774 25.3796 13.774 25.4986 13.8013 25.6129C13.8232 25.7284 13.8682 25.8383 13.9333 25.9361C13.998 26.0209 14.0768 26.0938 14.1662 26.1516C14.2774 26.2165 14.3937 26.2723 14.5138 26.3185C14.6424 26.3706 14.7919 26.4123 14.9657 26.4749C15.1379 26.5267 15.3063 26.5906 15.4697 26.666C15.6231 26.7335 15.7688 26.8174 15.9041 26.9163C16.1635 27.1255 16.3378 27.4221 16.3942 27.7505C16.4443 27.9654 16.4443 28.189 16.3942 28.4039C16.353 28.5846 16.267 28.752 16.144 28.8906C16.0194 29.034 15.8683 29.152 15.6991 29.2381C15.5173 29.3272 15.3244 29.3914 15.1255 29.4293C15.0399 29.4497 14.9527 29.4625 14.8649 29.4675C14.7606 29.4675 14.6563 29.4675 14.5451 29.4675C14.4391 29.4688 14.3333 29.4606 14.2288 29.4432C14.1367 29.4309 14.0467 29.4064 13.9612 29.3702Z" fill="white"/>
<path d="M17.6107 26.8295L18.0104 28.7342L17.5064 28.8385L16.4463 23.809L17.6385 23.5553C17.8337 23.5023 18.0377 23.4897 18.2379 23.5184C18.4382 23.5471 18.6304 23.6164 18.8029 23.7221C18.9681 23.8439 19.1075 23.9973 19.2131 24.1733C19.3187 24.3492 19.3884 24.5444 19.4181 24.7475C19.4736 24.9587 19.4862 25.1788 19.4551 25.3949C19.4241 25.611 19.35 25.8187 19.2374 26.0057C19.123 26.1891 18.9708 26.346 18.791 26.4659C18.6112 26.5857 18.4079 26.6659 18.1946 26.7009L17.6107 26.8295ZM17.0893 24.2331L17.5238 26.2907L18.0556 26.1795C18.2037 26.1585 18.346 26.1075 18.4738 26.0299C18.6017 25.9522 18.7125 25.8494 18.7994 25.7277C18.8747 25.6026 18.9237 25.4635 18.9434 25.3189C18.9631 25.1743 18.9531 25.0272 18.9141 24.8865C18.7751 24.2261 18.3649 23.9654 17.6906 24.101L17.0893 24.2331Z" fill="white"/>
<path d="M23.2655 27.6221L20.9715 28.1087L19.9287 23.0757L22.1289 22.6169L22.2436 23.1453L20.5474 23.4928L20.895 25.1716L22.4591 24.8414L22.5703 25.3698L21.0097 25.7L21.3816 27.4622L23.1716 27.0903L23.2655 27.6221Z" fill="white"/>
<path d="M27.0131 26.6209C26.6899 26.9039 26.2958 27.0937 25.873 27.1701C25.5915 27.2382 25.2978 27.2391 25.0158 27.1727C24.7338 27.1063 24.4714 26.9744 24.2498 26.7878C23.7494 26.3501 23.4175 25.7514 23.3114 25.0951C23.1325 24.3964 23.2089 23.6569 23.5269 23.0096C23.6688 22.7325 23.8717 22.4913 24.1204 22.3041C24.369 22.1168 24.6569 21.9885 24.9624 21.9286C25.3132 21.8451 25.6787 21.8451 26.0295 21.9286L26.1615 22.5542C25.8194 22.4177 25.4446 22.3851 25.084 22.4604C24.8498 22.5028 24.6292 22.6006 24.4405 22.7458C24.2518 22.8909 24.1006 23.0791 23.9996 23.2946C23.762 23.8093 23.7116 24.3907 23.8571 24.9386C23.9409 25.4671 24.2019 25.9512 24.5974 26.3116C24.7662 26.4591 24.9681 26.5637 25.186 26.6163C25.4038 26.669 25.6312 26.6682 25.8487 26.614C26.2469 26.5344 26.611 26.3341 26.8915 26.0405L27.0131 26.6209Z" fill="white"/>
<path d="M27.8125 21.4177L27.9168 21.9217L27.4892 22.0086L28.3338 26.0405L28.7579 25.9571L28.8622 26.4576L27.517 26.7357L27.4128 26.2317L27.8368 26.1448L26.9957 22.1233L26.5681 22.2067L26.4639 21.7062L27.8125 21.4177Z" fill="white"/>
<path d="M32.9461 25.5888L32.3831 25.7104L31.6253 24.4001L29.7832 24.7824L29.6441 26.2839L29.0811 26.4056L29.6893 21.0285L30.2176 20.9138L32.9461 25.5888ZM31.3473 23.903L30.2176 21.9044C30.164 21.8 30.1175 21.692 30.0786 21.5812C30.0857 21.6969 30.0857 21.813 30.0786 21.9287L29.8527 24.2158L31.3473 23.903Z" fill="white"/>
<path d="M35.8341 24.9978L33.5818 25.4705L32.5391 20.4375L33.0431 20.3333L33.9919 24.8518L35.7298 24.5042L35.8341 24.9978Z" fill="white"/>
<path d="M26.4222 39.4571C26.0789 39.5386 25.7216 39.5419 25.3769 39.4667C25.0321 39.3915 24.7087 39.2397 24.4305 39.0226C23.8186 38.5284 23.4112 37.8251 23.287 37.0483C23.0807 36.2526 23.1658 35.4094 23.5268 34.6709C23.6978 34.3449 23.9411 34.0623 24.2381 33.8448C24.5351 33.6273 24.878 33.4807 25.2404 33.4161C25.581 33.3353 25.9354 33.3324 26.2772 33.4076C26.6191 33.4829 26.9395 33.6343 27.2147 33.8506C27.8248 34.3601 28.2288 35.0742 28.3512 35.8596C28.559 36.652 28.4687 37.493 28.0975 38.2232C27.9315 38.5435 27.6941 38.8214 27.4036 39.0353C27.1131 39.2493 26.7773 39.3936 26.4222 39.4571ZM25.449 34.5562C25.2549 34.5924 25.0732 34.6774 24.9212 34.8033C24.7692 34.9292 24.6517 35.0918 24.58 35.2757C24.4117 35.7381 24.3839 36.24 24.5001 36.7181C24.5787 37.2074 24.807 37.6604 25.1535 38.0146C25.2881 38.1484 25.454 38.2464 25.6361 38.2998C25.8182 38.3532 26.0107 38.3603 26.1962 38.3205C26.3858 38.2838 26.5634 38.2013 26.7137 38.0801C26.864 37.959 26.9823 37.8028 27.0582 37.6253C27.2296 37.1656 27.2539 36.664 27.1278 36.1898C27.0514 35.6907 26.8274 35.2259 26.4847 34.8551C26.3523 34.7205 26.1875 34.6222 26.006 34.5698C25.8246 34.5175 25.6327 34.5128 25.449 34.5562Z" fill="white"/>
<path d="M31.5488 33.3118L29.717 33.6872L30.0194 35.1088L31.7052 34.7612L31.9311 35.8039L30.2454 36.1515L30.7215 38.4108L29.5502 38.6576L28.3232 32.8426L31.3333 32.21L31.5488 33.3118Z" fill="white"/>
<path d="M35.1123 32.5682L33.2805 32.9505L33.5829 34.3721L35.2687 34.0245L35.4946 35.0672L33.8088 35.4148L34.285 37.6741L33.1137 37.9139L31.8867 32.1024L34.8968 31.4663L35.1123 32.5682Z" fill="white"/>
<path d="M39.7868 36.5373L36.6586 37.1908L35.4316 31.3757L38.4278 30.7432L38.6572 31.8102L36.8289 32.1926L37.1 33.4856L38.8032 33.138L39.0291 34.1981L37.326 34.5457L37.604 35.8769L39.5505 35.4668L39.7868 36.5373Z" fill="white"/>
<path d="M44.688 35.5121L43.3394 35.8006L42.2202 34.4693C42.1333 34.3651 42.0569 34.2781 41.9839 34.1982C41.9157 34.1304 41.8438 34.0666 41.7684 34.007C41.7042 33.9606 41.6341 33.9232 41.5598 33.8958C41.4914 33.8784 41.4197 33.8784 41.3513 33.8958L41.0384 33.9653L41.5077 36.1864L40.3329 36.4332L39.1094 30.6181L40.9689 30.2115C42.2272 29.9404 42.9779 30.3401 43.1934 31.3933C43.2356 31.5837 43.2474 31.7796 43.2282 31.9737C43.2091 32.1514 43.1622 32.325 43.0892 32.4881C43.014 32.6475 42.9143 32.7941 42.7937 32.9226C42.6666 33.059 42.5202 33.1761 42.3592 33.2702V33.2875C42.4481 33.2975 42.5336 33.3272 42.6095 33.3744C42.7002 33.4202 42.7853 33.4762 42.8632 33.5413C42.9501 33.6108 43.0266 33.6768 43.1135 33.7568C43.1932 33.8312 43.2687 33.9101 43.3394 33.9931L44.688 35.5121ZM40.4823 31.3411L40.8299 32.9574L41.3339 32.8496C41.4477 32.8308 41.5562 32.7879 41.6521 32.7238C41.7481 32.6596 41.8292 32.5757 41.89 32.4777C42.0088 32.2793 42.045 32.0421 41.9908 31.8173C41.89 31.3133 41.5563 31.1221 41.0211 31.2264L40.4823 31.3411Z" fill="white"/>
<path d="M26.4222 39.4571C26.0789 39.5386 25.7216 39.5419 25.3769 39.4667C25.0321 39.3915 24.7087 39.2397 24.4305 39.0226C23.8186 38.5284 23.4112 37.8251 23.287 37.0483C23.0807 36.2526 23.1658 35.4094 23.5268 34.6709C23.6978 34.3449 23.9411 34.0623 24.2381 33.8448C24.5351 33.6273 24.878 33.4807 25.2404 33.4161C25.581 33.3353 25.9354 33.3324 26.2772 33.4076C26.6191 33.4829 26.9395 33.6343 27.2147 33.8506C27.8248 34.3601 28.2288 35.0742 28.3512 35.8596C28.559 36.652 28.4687 37.493 28.0975 38.2232C27.9315 38.5435 27.6941 38.8214 27.4036 39.0353C27.1131 39.2493 26.7773 39.3936 26.4222 39.4571ZM25.449 34.5562C25.2549 34.5924 25.0732 34.6774 24.9212 34.8033C24.7692 34.9292 24.6517 35.0918 24.58 35.2757C24.4117 35.7381 24.3839 36.24 24.5001 36.7181C24.5787 37.2074 24.807 37.6604 25.1535 38.0146C25.2881 38.1484 25.454 38.2464 25.6361 38.2998C25.8182 38.3532 26.0107 38.3603 26.1962 38.3205C26.3858 38.2838 26.5634 38.2013 26.7137 38.0801C26.864 37.959 26.9823 37.8028 27.0582 37.6253C27.2296 37.1656 27.2539 36.664 27.1278 36.1898C27.0514 35.6907 26.8274 35.2259 26.4847 34.8551C26.3523 34.7205 26.1875 34.6222 26.006 34.5698C25.8246 34.5175 25.6327 34.5128 25.449 34.5562Z" fill="#001B62"/>
<path d="M31.5488 33.3118L29.717 33.6872L30.0194 35.1088L31.7052 34.7612L31.9311 35.8039L30.2454 36.1515L30.7215 38.4108L29.5502 38.6576L28.3232 32.8426L31.3333 32.21L31.5488 33.3118Z" fill="#001B62"/>
<path d="M35.1123 32.5682L33.2805 32.9505L33.5829 34.3721L35.2687 34.0245L35.4946 35.0672L33.8088 35.4148L34.285 37.6741L33.1137 37.9139L31.8867 32.1024L34.8968 31.4663L35.1123 32.5682Z" fill="#001B62"/>
<path d="M39.7868 36.5373L36.6586 37.1908L35.4316 31.3757L38.4278 30.7432L38.6572 31.8102L36.8289 32.1926L37.1 33.4856L38.8032 33.138L39.0291 34.1981L37.326 34.5457L37.604 35.8769L39.5505 35.4668L39.7868 36.5373Z" fill="#001B62"/>
<path d="M44.688 35.5121L43.3394 35.8006L42.2202 34.4693C42.1333 34.3651 42.0569 34.2781 41.9839 34.1982C41.9157 34.1304 41.8438 34.0666 41.7684 34.007C41.7042 33.9606 41.6341 33.9232 41.5598 33.8958C41.4914 33.8784 41.4197 33.8784 41.3513 33.8958L41.0384 33.9653L41.5077 36.1864L40.3329 36.4332L39.1094 30.6181L40.9689 30.2115C42.2272 29.9404 42.9779 30.3401 43.1934 31.3933C43.2356 31.5837 43.2474 31.7796 43.2282 31.9737C43.2091 32.1514 43.1622 32.325 43.0892 32.4881C43.014 32.6475 42.9143 32.7941 42.7937 32.9226C42.6666 33.059 42.5202 33.1761 42.3592 33.2702V33.2875C42.4481 33.2975 42.5336 33.3272 42.6095 33.3744C42.7002 33.4202 42.7853 33.4762 42.8632 33.5413C42.9501 33.6108 43.0266 33.6768 43.1135 33.7568C43.1932 33.8312 43.2687 33.9101 43.3394 33.9931L44.688 35.5121ZM40.4823 31.3411L40.8299 32.9574L41.3339 32.8496C41.4477 32.8308 41.5562 32.7879 41.6521 32.7238C41.7481 32.6596 41.8292 32.5757 41.89 32.4777C42.0088 32.2793 42.045 32.0421 41.9908 31.8173C41.89 31.3133 41.5563 31.1221 41.0211 31.2264L40.4823 31.3411Z" fill="#001B62"/>
<path d="M26.4222 39.4571C26.0789 39.5386 25.7216 39.5419 25.3769 39.4667C25.0321 39.3915 24.7087 39.2397 24.4305 39.0226C23.8186 38.5284 23.4112 37.8251 23.287 37.0483C23.0807 36.2526 23.1658 35.4094 23.5268 34.6709C23.6978 34.3449 23.9411 34.0623 24.2381 33.8448C24.5351 33.6273 24.878 33.4807 25.2404 33.4161C25.581 33.3353 25.9354 33.3324 26.2772 33.4076C26.6191 33.4829 26.9395 33.6343 27.2147 33.8506C27.8248 34.3601 28.2288 35.0742 28.3512 35.8596C28.559 36.652 28.4687 37.493 28.0975 38.2232C27.9315 38.5435 27.6941 38.8214 27.4036 39.0353C27.1131 39.2493 26.7773 39.3936 26.4222 39.4571ZM25.449 34.5562C25.2549 34.5924 25.0732 34.6774 24.9212 34.8033C24.7692 34.9292 24.6517 35.0918 24.58 35.2757C24.4117 35.7381 24.3839 36.24 24.5001 36.7181C24.5787 37.2074 24.807 37.6604 25.1535 38.0146C25.2881 38.1484 25.454 38.2464 25.6361 38.2998C25.8182 38.3532 26.0107 38.3603 26.1962 38.3205C26.3858 38.2838 26.5634 38.2013 26.7137 38.0801C26.864 37.959 26.9823 37.8028 27.0582 37.6253C27.2296 37.1656 27.2539 36.664 27.1278 36.1898C27.0514 35.6907 26.8274 35.2259 26.4847 34.8551C26.3523 34.7205 26.1875 34.6222 26.006 34.5698C25.8246 34.5175 25.6327 34.5128 25.449 34.5562Z" fill="#001B62"/>
<path d="M31.5488 33.3118L29.717 33.6872L30.0194 35.1088L31.7052 34.7612L31.9311 35.8039L30.2454 36.1515L30.7215 38.4108L29.5502 38.6576L28.3232 32.8426L31.3333 32.21L31.5488 33.3118Z" fill="#001B62"/>
<path d="M35.1123 32.5682L33.2805 32.9505L33.5829 34.3721L35.2687 34.0245L35.4946 35.0672L33.8088 35.4148L34.285 37.6741L33.1137 37.9139L31.8867 32.1024L34.8968 31.4663L35.1123 32.5682Z" fill="#001B62"/>
<path d="M39.7868 36.5373L36.6586 37.1908L35.4316 31.3757L38.4278 30.7432L38.6572 31.8102L36.8289 32.1926L37.1 33.4856L38.8032 33.138L39.0291 34.1981L37.326 34.5457L37.604 35.8769L39.5505 35.4668L39.7868 36.5373Z" fill="#001B62"/>
<path d="M44.688 35.5121L43.3394 35.8006L42.2202 34.4693C42.1333 34.3651 42.0569 34.2781 41.9839 34.1982C41.9157 34.1304 41.8438 34.0666 41.7684 34.007C41.7042 33.9606 41.6341 33.9232 41.5598 33.8958C41.4914 33.8784 41.4197 33.8784 41.3513 33.8958L41.0384 33.9653L41.5077 36.1864L40.3329 36.4332L39.1094 30.6181L40.9689 30.2115C42.2272 29.9404 42.9779 30.3401 43.1934 31.3933C43.2356 31.5837 43.2474 31.7796 43.2282 31.9737C43.2091 32.1514 43.1622 32.325 43.0892 32.4881C43.014 32.6475 42.9143 32.7941 42.7937 32.9226C42.6666 33.059 42.5202 33.1761 42.3592 33.2702V33.2875C42.4481 33.2975 42.5336 33.3272 42.6095 33.3744C42.7002 33.4202 42.7853 33.4762 42.8632 33.5413C42.9501 33.6108 43.0266 33.6768 43.1135 33.7568C43.1932 33.8312 43.2687 33.9101 43.3394 33.9931L44.688 35.5121ZM40.4823 31.3411L40.8299 32.9574L41.3339 32.8496C41.4477 32.8308 41.5562 32.7879 41.6521 32.7238C41.7481 32.6596 41.8292 32.5757 41.89 32.4777C42.0088 32.2793 42.045 32.0421 41.9908 31.8173C41.89 31.3133 41.5563 31.1221 41.0211 31.2264L40.4823 31.3411Z" fill="#001B62"/>
<path d="M26.4222 39.4571C26.0789 39.5386 25.7216 39.5419 25.3769 39.4667C25.0321 39.3915 24.7087 39.2397 24.4305 39.0226C23.8186 38.5284 23.4112 37.8251 23.287 37.0483C23.0807 36.2526 23.1658 35.4094 23.5268 34.6709C23.6978 34.3449 23.9411 34.0623 24.2381 33.8448C24.5351 33.6273 24.878 33.4807 25.2404 33.4161C25.581 33.3353 25.9354 33.3324 26.2772 33.4076C26.6191 33.4829 26.9395 33.6343 27.2147 33.8506C27.8248 34.3601 28.2288 35.0742 28.3512 35.8596C28.559 36.652 28.4687 37.493 28.0975 38.2232C27.9315 38.5435 27.6941 38.8214 27.4036 39.0353C27.1131 39.2493 26.7773 39.3936 26.4222 39.4571ZM25.449 34.5562C25.2549 34.5924 25.0732 34.6774 24.9212 34.8033C24.7692 34.9292 24.6517 35.0918 24.58 35.2757C24.4117 35.7381 24.3839 36.24 24.5001 36.7181C24.5787 37.2074 24.807 37.6604 25.1535 38.0146C25.2881 38.1484 25.454 38.2464 25.6361 38.2998C25.8182 38.3532 26.0107 38.3603 26.1962 38.3205C26.3858 38.2838 26.5634 38.2013 26.7137 38.0801C26.864 37.959 26.9823 37.8028 27.0582 37.6253C27.2296 37.1656 27.2539 36.664 27.1278 36.1898C27.0514 35.6907 26.8274 35.2259 26.4847 34.8551C26.3523 34.7205 26.1875 34.6222 26.006 34.5698C25.8246 34.5175 25.6327 34.5128 25.449 34.5562Z" fill="#001B62"/>
<path d="M31.5488 33.3118L29.717 33.6872L30.0194 35.1088L31.7052 34.7612L31.9311 35.8039L30.2454 36.1515L30.7215 38.4108L29.5502 38.6576L28.3232 32.8426L31.3333 32.21L31.5488 33.3118Z" fill="#001B62"/>
<path d="M35.1123 32.5682L33.2805 32.9505L33.5829 34.3721L35.2687 34.0245L35.4946 35.0672L33.8088 35.4148L34.285 37.6741L33.1137 37.9139L31.8867 32.1024L34.8968 31.4663L35.1123 32.5682Z" fill="#001B62"/>
<path d="M39.7868 36.5373L36.6586 37.1908L35.4316 31.3757L38.4278 30.7432L38.6572 31.8102L36.8289 32.1926L37.1 33.4856L38.8032 33.138L39.0291 34.1981L37.326 34.5457L37.604 35.8769L39.5505 35.4668L39.7868 36.5373Z" fill="#001B62"/>
<path d="M44.688 35.5121L43.3394 35.8006L42.2202 34.4693C42.1333 34.3651 42.0569 34.2781 41.9839 34.1982C41.9157 34.1304 41.8438 34.0666 41.7684 34.007C41.7042 33.9606 41.6341 33.9232 41.5598 33.8958C41.4914 33.8784 41.4197 33.8784 41.3513 33.8958L41.0384 33.9653L41.5077 36.1864L40.3329 36.4332L39.1094 30.6181L40.9689 30.2115C42.2272 29.9404 42.9779 30.3401 43.1934 31.3933C43.2356 31.5837 43.2474 31.7796 43.2282 31.9737C43.2091 32.1514 43.1622 32.325 43.0892 32.4881C43.014 32.6475 42.9143 32.7941 42.7937 32.9226C42.6666 33.059 42.5202 33.1761 42.3592 33.2702V33.2875C42.4481 33.2975 42.5336 33.3272 42.6095 33.3744C42.7002 33.4202 42.7853 33.4762 42.8632 33.5413C42.9501 33.6108 43.0266 33.6768 43.1135 33.7568C43.1932 33.8312 43.2687 33.9101 43.3394 33.9931L44.688 35.5121ZM40.4823 31.3411L40.8299 32.9574L41.3339 32.8496C41.4477 32.8308 41.5562 32.7879 41.6521 32.7238C41.7481 32.6596 41.8292 32.5757 41.89 32.4777C42.0088 32.2793 42.045 32.0421 41.9908 31.8173C41.89 31.3133 41.5563 31.1221 41.0211 31.2264L40.4823 31.3411Z" fill="#001B62"/>
</svg>
