<svg width="44" height="24" viewBox="0 0 44 24" fill="none" xmlns="http://www.w3.org/2000/svg">
    <path d="M6.375 12.2021H42.9717L40.1493 18.0102L42.9717 23.8217H6.375L9.42328 18.0102L6.375 12.2021Z" fill="#FABD00"/>
    <path d="M15.4604 21.6509C15.0454 21.6613 14.6333 21.5787 14.2544 21.4091C13.8754 21.2395 13.5393 20.9872 13.2706 20.6707C12.6817 19.9493 12.3797 19.0359 12.4225 18.1056C12.3764 17.1369 12.6812 16.1842 13.2811 15.4222C13.5568 15.0886 13.9054 14.8226 14.3001 14.6448C14.6948 14.4671 15.1251 14.3822 15.5577 14.3969C15.9707 14.3849 16.3811 14.4673 16.7575 14.6377C17.134 14.8082 17.4666 15.0622 17.7301 15.3805C18.3102 16.1149 18.603 17.0354 18.5538 17.97C18.601 18.9313 18.2957 19.8768 17.6953 20.629C17.426 20.9592 17.0844 21.223 16.6969 21.4002C16.3093 21.5774 15.8863 21.6632 15.4604 21.6509ZM15.5229 15.742C15.2892 15.7386 15.0585 15.7941 14.8519 15.9034C14.6453 16.0128 14.4697 16.1725 14.3412 16.3677C14.0268 16.8588 13.8748 17.4364 13.9067 18.0187C13.8762 18.6008 14.0281 19.1779 14.3412 19.6697C14.4671 19.8592 14.6375 20.0149 14.8376 20.1232C15.0377 20.2314 15.2613 20.2889 15.4888 20.2907C15.7163 20.2924 15.9407 20.2382 16.1424 20.133C16.3441 20.0278 16.5169 19.8746 16.6456 19.687C16.9559 19.2009 17.1043 18.6291 17.0697 18.0534C17.104 17.4623 16.9586 16.8746 16.6526 16.3677C16.5337 16.1765 16.367 16.0198 16.1688 15.9131C15.9706 15.8064 15.7479 15.7534 15.5229 15.7594V15.742Z" fill="white"/>
    <path d="M22.8632 15.8036H20.6491V17.5207H22.6825V18.7998H20.6491V21.5213H19.2588V14.5176H22.8632V15.8036Z" fill="white"/>
    <path d="M27.1603 15.8036H24.9532V17.5207H26.9935V18.7998H24.9532V21.5213H23.542V14.5176H27.1673V15.8036H27.1603Z" fill="white"/>
    <path d="M31.5878 21.5291H27.834V14.5254H31.4523V15.8114H29.2521V17.3686H31.3028V18.6442H29.2521V20.2431H31.5983V21.5291H31.5878Z" fill="white"/>
    <path d="M37.4906 21.5291H35.8674L34.9012 19.7217C34.8386 19.6018 34.769 19.4858 34.6926 19.3741C34.6231 19.2699 34.5536 19.1725 34.4945 19.0961C34.433 19.0249 34.3588 18.966 34.2755 18.9223C34.2011 18.8809 34.1173 18.8594 34.0322 18.8597H33.6499V21.5465H32.2422V14.5254H34.4737C35.9961 14.5254 36.7584 15.1591 36.7607 16.4267C36.7643 16.6625 36.7291 16.8974 36.6565 17.1218C36.5911 17.321 36.495 17.5086 36.3714 17.6779C36.2492 17.8453 36.0986 17.9899 35.9265 18.1055C35.7478 18.231 35.5509 18.3283 35.3426 18.394C35.4399 18.4331 35.5311 18.4858 35.6137 18.5504C35.7077 18.6289 35.7928 18.7175 35.8674 18.8145C35.9439 18.9188 36.0239 19.0126 36.1003 19.1239C36.1768 19.2351 36.2394 19.3533 36.3019 19.4715L37.4906 21.5291ZM33.6673 15.7072V17.6536H34.2582C34.3939 17.6599 34.5295 17.6368 34.6555 17.5858C34.7815 17.5348 34.8949 17.4572 34.9881 17.3582C35.1735 17.1583 35.2733 16.8938 35.2661 16.6213C35.2661 16.013 34.9186 15.7002 34.2825 15.7002H33.6499L33.6673 15.7072Z" fill="white"/>
    <path d="M15.4604 21.6509C15.0454 21.6613 14.6333 21.5787 14.2544 21.4091C13.8754 21.2395 13.5393 20.9872 13.2706 20.6707C12.6817 19.9493 12.3797 19.0359 12.4225 18.1056C12.3764 17.1369 12.6812 16.1842 13.2811 15.4222C13.5568 15.0886 13.9054 14.8226 14.3001 14.6448C14.6948 14.4671 15.1251 14.3822 15.5577 14.3969C15.9707 14.3849 16.3811 14.4673 16.7575 14.6377C17.134 14.8082 17.4666 15.0622 17.7301 15.3805C18.3102 16.1149 18.603 17.0354 18.5538 17.97C18.601 18.9313 18.2957 19.8768 17.6953 20.629C17.426 20.9592 17.0844 21.223 16.6969 21.4002C16.3093 21.5774 15.8863 21.6632 15.4604 21.6509ZM15.5229 15.742C15.2892 15.7386 15.0585 15.7941 14.8519 15.9034C14.6453 16.0128 14.4697 16.1725 14.3412 16.3677C14.0268 16.8588 13.8748 17.4364 13.9067 18.0187C13.8762 18.6008 14.0281 19.1779 14.3412 19.6697C14.4671 19.8592 14.6375 20.0149 14.8376 20.1232C15.0377 20.2314 15.2613 20.2889 15.4888 20.2907C15.7163 20.2924 15.9407 20.2382 16.1424 20.133C16.3441 20.0278 16.5169 19.8746 16.6456 19.687C16.9559 19.2009 17.1043 18.6291 17.0697 18.0534C17.104 17.4623 16.9586 16.8746 16.6526 16.3677C16.5337 16.1765 16.367 16.0198 16.1688 15.9131C15.9706 15.8064 15.7479 15.7534 15.5229 15.7594V15.742Z" fill="#001B62"/>
    <path d="M22.8632 15.8036H20.6491V17.5207H22.6825V18.7998H20.6491V21.5213H19.2588V14.5176H22.8632V15.8036Z" fill="#001B62"/>
    <path d="M27.1603 15.8036H24.9532V17.5207H26.9935V18.7998H24.9532V21.5213H23.542V14.5176H27.1673V15.8036H27.1603Z" fill="#001B62"/>
    <path d="M31.5878 21.5291H27.834V14.5254H31.4523V15.8114H29.2521V17.3686H31.3028V18.6442H29.2521V20.2431H31.5983V21.5291H31.5878Z" fill="#001B62"/>
    <path d="M37.4906 21.5291H35.8674L34.9012 19.7217C34.8386 19.6018 34.769 19.4858 34.6926 19.3741C34.6231 19.2699 34.5536 19.1725 34.4945 19.0961C34.433 19.0249 34.3588 18.966 34.2755 18.9223C34.2011 18.8809 34.1173 18.8594 34.0322 18.8597H33.6499V21.5465H32.2422V14.5254H34.4737C35.9961 14.5254 36.7584 15.1591 36.7607 16.4267C36.7643 16.6625 36.7291 16.8974 36.6565 17.1218C36.5911 17.321 36.495 17.5086 36.3714 17.6779C36.2492 17.8453 36.0986 17.9899 35.9265 18.1055C35.7478 18.231 35.5509 18.3283 35.3426 18.394C35.4399 18.4331 35.5311 18.4858 35.6137 18.5504C35.7077 18.6289 35.7928 18.7175 35.8674 18.8145C35.9439 18.9188 36.0239 19.0126 36.1003 19.1239C36.1768 19.2351 36.2394 19.3533 36.3019 19.4715L37.4906 21.5291ZM33.6673 15.7072V17.6536H34.2582C34.3939 17.6599 34.5295 17.6368 34.6555 17.5858C34.7815 17.5348 34.8949 17.4572 34.9881 17.3582C35.1735 17.1583 35.2733 16.8938 35.2661 16.6213C35.2661 16.013 34.9186 15.7002 34.2825 15.7002H33.6499L33.6673 15.7072Z" fill="#001B62"/>
    <path d="M15.4604 21.6509C15.0454 21.6613 14.6333 21.5787 14.2544 21.4091C13.8754 21.2395 13.5393 20.9872 13.2706 20.6707C12.6817 19.9493 12.3797 19.0359 12.4225 18.1056C12.3764 17.1369 12.6812 16.1842 13.2811 15.4222C13.5568 15.0886 13.9054 14.8226 14.3001 14.6448C14.6948 14.4671 15.1251 14.3822 15.5577 14.3969C15.9707 14.3849 16.3811 14.4673 16.7575 14.6377C17.134 14.8082 17.4666 15.0622 17.7301 15.3805C18.3102 16.1149 18.603 17.0354 18.5538 17.97C18.601 18.9313 18.2957 19.8768 17.6953 20.629C17.426 20.9592 17.0844 21.223 16.6969 21.4002C16.3093 21.5774 15.8863 21.6632 15.4604 21.6509ZM15.5229 15.742C15.2892 15.7386 15.0585 15.7941 14.8519 15.9034C14.6453 16.0128 14.4697 16.1725 14.3412 16.3677C14.0268 16.8588 13.8748 17.4364 13.9067 18.0187C13.8762 18.6008 14.0281 19.1779 14.3412 19.6697C14.4671 19.8592 14.6375 20.0149 14.8376 20.1232C15.0377 20.2314 15.2613 20.2889 15.4888 20.2907C15.7163 20.2924 15.9407 20.2382 16.1424 20.133C16.3441 20.0278 16.5169 19.8746 16.6456 19.687C16.9559 19.2009 17.1043 18.6291 17.0697 18.0534C17.104 17.4623 16.9586 16.8746 16.6526 16.3677C16.5337 16.1765 16.367 16.0198 16.1688 15.9131C15.9706 15.8064 15.7479 15.7534 15.5229 15.7594V15.742Z" fill="#001B62"/>
    <path d="M22.8632 15.8036H20.6491V17.5207H22.6825V18.7998H20.6491V21.5213H19.2588V14.5176H22.8632V15.8036Z" fill="#001B62"/>
    <path d="M27.1603 15.8036H24.9532V17.5207H26.9935V18.7998H24.9532V21.5213H23.542V14.5176H27.1673V15.8036H27.1603Z" fill="#001B62"/>
    <path d="M31.5878 21.5291H27.834V14.5254H31.4523V15.8114H29.2521V17.3686H31.3028V18.6442H29.2521V20.2431H31.5983V21.5291H31.5878Z" fill="#001B62"/>
    <path d="M37.4906 21.5291H35.8674L34.9012 19.7217C34.8386 19.6018 34.769 19.4858 34.6926 19.3741C34.6231 19.2699 34.5536 19.1725 34.4945 19.0961C34.433 19.0249 34.3588 18.966 34.2755 18.9223C34.2011 18.8809 34.1173 18.8594 34.0322 18.8597H33.6499V21.5465H32.2422V14.5254H34.4737C35.9961 14.5254 36.7584 15.1591 36.7607 16.4267C36.7643 16.6625 36.7291 16.8974 36.6565 17.1218C36.5911 17.321 36.495 17.5086 36.3714 17.6779C36.2492 17.8453 36.0986 17.9899 35.9265 18.1055C35.7478 18.231 35.5509 18.3283 35.3426 18.394C35.4399 18.4331 35.5311 18.4858 35.6137 18.5504C35.7077 18.6289 35.7928 18.7175 35.8674 18.8145C35.9439 18.9188 36.0239 19.0126 36.1003 19.1239C36.1768 19.2351 36.2394 19.3533 36.3019 19.4715L37.4906 21.5291ZM33.6673 15.7072V17.6536H34.2582C34.3939 17.6599 34.5295 17.6368 34.6555 17.5858C34.7815 17.5348 34.8949 17.4572 34.9881 17.3582C35.1735 17.1583 35.2733 16.8938 35.2661 16.6213C35.2661 16.013 34.9186 15.7002 34.2825 15.7002H33.6499L33.6673 15.7072Z" fill="#001B62"/>
    <path d="M15.4604 21.6509C15.0454 21.6613 14.6333 21.5787 14.2544 21.4091C13.8754 21.2395 13.5393 20.9872 13.2706 20.6707C12.6817 19.9493 12.3797 19.0359 12.4225 18.1056C12.3764 17.1369 12.6812 16.1842 13.2811 15.4222C13.5568 15.0886 13.9054 14.8226 14.3001 14.6448C14.6948 14.4671 15.1251 14.3822 15.5577 14.3969C15.9707 14.3849 16.3811 14.4673 16.7575 14.6377C17.134 14.8082 17.4666 15.0622 17.7301 15.3805C18.3102 16.1149 18.603 17.0354 18.5538 17.97C18.601 18.9313 18.2957 19.8768 17.6953 20.629C17.426 20.9592 17.0844 21.223 16.6969 21.4002C16.3093 21.5774 15.8863 21.6632 15.4604 21.6509ZM15.5229 15.742C15.2892 15.7386 15.0585 15.7941 14.8519 15.9034C14.6453 16.0128 14.4697 16.1725 14.3412 16.3677C14.0268 16.8588 13.8748 17.4364 13.9067 18.0187C13.8762 18.6008 14.0281 19.1779 14.3412 19.6697C14.4671 19.8592 14.6375 20.0149 14.8376 20.1232C15.0377 20.2314 15.2613 20.2889 15.4888 20.2907C15.7163 20.2924 15.9407 20.2382 16.1424 20.133C16.3441 20.0278 16.5169 19.8746 16.6456 19.687C16.9559 19.2009 17.1043 18.6291 17.0697 18.0534C17.104 17.4623 16.9586 16.8746 16.6526 16.3677C16.5337 16.1765 16.367 16.0198 16.1688 15.9131C15.9706 15.8064 15.7479 15.7534 15.5229 15.7594V15.742Z" fill="#001B62"/>
    <path d="M22.8632 15.8036H20.6491V17.5207H22.6825V18.7998H20.6491V21.5213H19.2588V14.5176H22.8632V15.8036Z" fill="#001B62"/>
    <path d="M27.1603 15.8036H24.9532V17.5207H26.9935V18.7998H24.9532V21.5213H23.542V14.5176H27.1673V15.8036H27.1603Z" fill="#001B62"/>
    <path d="M31.5878 21.5291H27.834V14.5254H31.4523V15.8114H29.2521V17.3686H31.3028V18.6442H29.2521V20.2431H31.5983V21.5291H31.5878Z" fill="#001B62"/>
    <path d="M37.4906 21.5291H35.8674L34.9012 19.7217C34.8386 19.6018 34.769 19.4858 34.6926 19.3741C34.6231 19.2699 34.5536 19.1725 34.4945 19.0961C34.433 19.0249 34.3588 18.966 34.2755 18.9223C34.2011 18.8809 34.1173 18.8594 34.0322 18.8597H33.6499V21.5465H32.2422V14.5254H34.4737C35.9961 14.5254 36.7584 15.1591 36.7607 16.4267C36.7643 16.6625 36.7291 16.8974 36.6565 17.1218C36.5911 17.321 36.495 17.5086 36.3714 17.6779C36.2492 17.8453 36.0986 17.9899 35.9265 18.1055C35.7478 18.231 35.5509 18.3283 35.3426 18.394C35.4399 18.4331 35.5311 18.4858 35.6137 18.5504C35.7077 18.6289 35.7928 18.7175 35.8674 18.8145C35.9439 18.9188 36.0239 19.0126 36.1003 19.1239C36.1768 19.2351 36.2394 19.3533 36.3019 19.4715L37.4906 21.5291ZM33.6673 15.7072V17.6536H34.2582C34.3939 17.6599 34.5295 17.6368 34.6555 17.5858C34.7815 17.5348 34.8949 17.4572 34.9881 17.3582C35.1735 17.1583 35.2733 16.8938 35.2661 16.6213C35.2661 16.013 34.9186 15.7002 34.2825 15.7002H33.6499L33.6673 15.7072Z" fill="#001B62"/>
    <path d="M0.229492 3.96512L42.7038 0.0305176L39.4365 5.63698L43.677 10.5448L1.20272 14.4725L4.46997 8.87643L0.229492 3.96512Z" fill="#001B62"/>
    <path d="M9.98906 10.6317L9.91954 9.84968C10.0116 9.92286 10.1105 9.98688 10.215 10.0408C10.3273 10.0938 10.4435 10.138 10.5626 10.1729C10.6829 10.2028 10.8047 10.226 10.9275 10.2424C11.0433 10.2497 11.1594 10.2497 11.2751 10.2424C11.5585 10.2413 11.8321 10.139 12.0467 9.95395C12.1267 9.86196 12.1858 9.75376 12.22 9.63676C12.2542 9.51976 12.2627 9.39675 12.2449 9.27617C12.2351 9.13871 12.1935 9.00542 12.1232 8.88688C12.0501 8.77691 11.9598 8.67948 11.8556 8.59839C11.7318 8.51121 11.6004 8.43558 11.4628 8.37246C11.3168 8.29947 11.1604 8.223 10.9866 8.14654C10.8128 8.07007 10.639 7.97275 10.4826 7.88585C10.3322 7.80043 10.1922 7.69778 10.0655 7.57998C9.94251 7.46675 9.84224 7.33109 9.77009 7.18026C9.68553 7.00926 9.63255 6.82439 9.61367 6.63456C9.58056 6.39924 9.61055 6.15934 9.70057 5.9394C9.7756 5.74763 9.89467 5.57618 10.0481 5.43889C10.1991 5.29522 10.373 5.17775 10.5626 5.09131C10.7561 5.01379 10.9598 4.96462 11.1674 4.94532C11.5273 4.88979 11.8954 4.92565 12.2379 5.0496L12.3074 5.79689C11.9681 5.58365 11.5642 5.49745 11.1674 5.55359C11.0404 5.5635 10.9153 5.59038 10.7954 5.63353C10.679 5.67438 10.5707 5.73558 10.4757 5.81427C10.3849 5.89416 10.3105 5.99097 10.2567 6.09929C10.2027 6.22638 10.1847 6.36585 10.2046 6.50248C10.2167 6.62949 10.252 6.75319 10.3088 6.86744C10.3654 6.97297 10.445 7.06443 10.5417 7.13508C10.6471 7.22261 10.764 7.29513 10.8893 7.35058C11.0283 7.42357 11.1847 7.50004 11.369 7.57998C11.5532 7.65992 11.7165 7.75377 11.8868 7.84762C12.0472 7.94038 12.1965 8.05117 12.3317 8.17782C12.4602 8.2986 12.5682 8.43947 12.6515 8.59491C12.7444 8.76278 12.799 8.94914 12.8114 9.14061C12.848 9.39055 12.8241 9.6456 12.7419 9.88444C12.666 10.0767 12.5471 10.2491 12.3943 10.3884C12.242 10.5302 12.0605 10.637 11.8625 10.7012C11.6517 10.7759 11.432 10.8226 11.2091 10.8403C11.1326 10.8403 11.0388 10.8403 10.9241 10.8403C10.8074 10.838 10.6912 10.8264 10.5765 10.8055C10.4583 10.8055 10.3436 10.7638 10.2289 10.7395C10.1457 10.7112 10.0654 10.6751 9.98906 10.6317Z" fill="white"/>
    <path d="M14.2956 8.31258L14.4972 10.4571L13.9237 10.5058L13.4023 4.85416L14.7405 4.72903C14.9618 4.69643 15.1875 4.71051 15.403 4.77037C15.6185 4.83023 15.8191 4.93455 15.9918 5.07661C16.3278 5.39117 16.5253 5.82618 16.541 6.28619C16.6087 6.76621 16.4838 7.25354 16.1934 7.64175C16.0435 7.82965 15.8553 7.98353 15.6414 8.09319C15.4274 8.20285 15.1926 8.26579 14.9526 8.27782L14.2956 8.31258ZM14.028 5.39291L14.247 7.71127L14.8448 7.67651C15.0089 7.68038 15.1717 7.6472 15.3211 7.57945C15.4706 7.51171 15.6028 7.41113 15.7081 7.2852C15.8133 7.15927 15.8887 7.01124 15.9288 6.85212C15.9689 6.693 15.9726 6.52688 15.9397 6.36613C15.8702 5.61536 15.4531 5.27821 14.6953 5.34772L14.028 5.39291Z" fill="white"/>
    <path d="M20.4056 9.90142L17.8231 10.1378L17.3018 4.4896L19.7731 4.26367L19.8217 4.86151L17.9205 5.0353L18.0942 6.91223L19.8495 6.74887L19.9017 7.32933L18.1464 7.49617L18.3306 9.47737L20.3361 9.29315L20.4056 9.90142Z" fill="white"/>
    <path d="M24.6293 9.27C24.2427 9.54144 23.7872 9.69808 23.3154 9.72186C22.9969 9.76189 22.6735 9.72609 22.3715 9.61736C22.0694 9.50863 21.7974 9.33006 21.5775 9.09621C21.0865 8.54908 20.7992 7.84933 20.7642 7.11501C20.6518 6.32569 20.831 5.52247 21.2682 4.85574C21.456 4.56997 21.7069 4.33111 22.0016 4.15756C22.2963 3.98402 22.6268 3.88041 22.9678 3.85471C23.3644 3.80387 23.7673 3.84917 24.1427 3.98679L24.2122 4.68195C23.8491 4.49152 23.4386 4.41062 23.0304 4.44907C22.766 4.47032 22.5102 4.55343 22.2838 4.69169C22.0574 4.82996 21.8667 5.0195 21.727 5.24503C21.4092 5.78034 21.2864 6.4091 21.3794 7.02464C21.3992 7.617 21.6254 8.18381 22.0189 8.62698C22.1876 8.80854 22.3966 8.94783 22.6291 9.03358C22.8616 9.11933 23.111 9.14912 23.3571 9.12054C23.8115 9.09155 24.2449 8.91869 24.5945 8.62698L24.6293 9.27Z" fill="white"/>
    <path d="M26.1653 3.66211L26.2209 4.22866L25.7412 4.27037L26.1583 8.78891L26.645 8.7472L26.6971 9.31028L25.1782 9.44932L25.126 8.88624L25.6022 8.84105L25.1816 4.32251L24.7055 4.3677L24.6533 3.80114L26.1653 3.66211Z" fill="white"/>
    <path d="M31.2571 8.89358L30.6245 8.95614L29.9641 7.41636L27.8786 7.60753L27.531 9.2342L26.8984 9.29329L28.2679 3.47133L28.8588 3.41919L31.2571 8.89358ZM29.7277 6.8359L28.7302 4.49669C28.6853 4.37519 28.6481 4.25097 28.619 4.12478C28.613 4.25314 28.5979 4.38091 28.5738 4.50712L28.035 6.98188L29.7277 6.8359Z" fill="white"/>
    <path d="M34.5073 8.58749L31.9804 8.82385L31.459 3.17567L32.0325 3.12354L32.5017 8.17387L34.4586 7.98966L34.5073 8.58749Z" fill="white"/>
</svg>
