<svg width="59" height="59" viewBox="0 0 59 59" fill="none" xmlns="http://www.w3.org/2000/svg">
<rect x="0.860352" y="0.864014" width="57.93" height="57.93" rx="5.75" fill="white"/>
<path d="M48.8042 27.1636L14.0352 30.3462L15.1995 43.0666L49.9686 39.884L48.8042 27.1636Z" fill="#ADF0D1"/>
<path d="M22.1774 40.8089C21.7226 40.8644 21.261 40.8167 20.8272 40.6693C20.3933 40.5219 19.9982 40.2785 19.6714 39.9573C18.9566 39.232 18.5367 38.2671 18.4931 37.2497C18.3423 36.1894 18.5832 35.1106 19.1709 34.2153C19.4391 33.8198 19.7952 33.4917 20.2112 33.2565C20.6272 33.0214 21.092 32.8856 21.5692 32.8597C22.0201 32.8055 22.4774 32.8549 22.9063 33.0043C23.3352 33.1537 23.7243 33.3991 24.044 33.7217C24.7523 34.4683 25.1659 35.4463 25.2083 36.4746C25.3574 37.5259 25.1163 38.5954 24.5306 39.4811C24.2641 39.8658 23.914 40.1852 23.5064 40.4152C23.0989 40.6451 22.6445 40.7797 22.1774 40.8089ZM21.6561 34.3369C21.3987 34.3533 21.1498 34.4354 20.9332 34.5753C20.7165 34.7153 20.5394 34.9085 20.4187 35.1364C20.1278 35.7062 20.0186 36.3516 20.1059 36.9855C20.1323 37.626 20.3583 38.2421 20.7524 38.7477C20.9055 38.9438 21.1064 39.0973 21.3358 39.1934C21.5653 39.2896 21.8156 39.3252 22.0627 39.2969C22.3119 39.2796 22.5529 39.2006 22.764 39.0671C22.9751 38.9337 23.1498 38.7499 23.2723 38.5322C23.5611 37.9679 23.6668 37.3277 23.5747 36.7005C23.5562 36.0449 23.3379 35.4107 22.9491 34.8826C22.7983 34.6886 22.6002 34.5365 22.3738 34.441C22.1474 34.3455 21.9003 34.3096 21.6561 34.3369Z" fill="white"/>
<path d="M29.702 33.6592L27.269 33.8747L27.4428 35.762L29.6673 35.5639L29.7959 36.9542L27.5714 37.1523L27.8425 40.1346L26.2957 40.2736L25.6006 32.5921L29.57 32.2515L29.702 33.6592Z" fill="white"/>
<path d="M34.4012 33.2351L31.9682 33.4506L32.142 35.3379L34.3665 35.1363L34.4986 36.5267L32.2706 36.7248L32.5417 39.7035L30.995 39.846L30.2998 32.1611L34.2726 31.8135L34.4012 33.2351Z" fill="white"/>
<path d="M39.8345 39.0571L35.7157 39.4291L35.0205 31.7475L38.9829 31.3826L39.115 32.7903L36.6993 33.0058L36.8557 34.7193L39.0941 34.5108L39.2262 35.9011L36.9843 36.1062L37.1407 37.8649L39.7128 37.6286L39.8345 39.0571Z" fill="white"/>
<path d="M46.3057 38.4662L44.533 38.6296L43.2817 36.7526C43.1879 36.6136 43.101 36.4815 43.0106 36.3703C42.9389 36.2677 42.8549 36.1743 42.7604 36.0922C42.6855 36.0228 42.6013 35.9643 42.5101 35.9184C42.4245 35.8824 42.3317 35.8669 42.239 35.8733L41.8219 35.9115L42.093 38.8451L40.5428 38.9876L39.8477 31.3061L42.2981 31.0767C43.9665 30.9237 44.8644 31.5436 44.9918 32.9362C45.0178 33.1896 45.0025 33.4454 44.9467 33.6939C44.8968 33.9199 44.8124 34.1367 44.6964 34.337C44.5794 34.5332 44.4289 34.7073 44.2515 34.8514C44.0677 34.9957 43.8639 35.1127 43.6467 35.1989C43.7574 35.2313 43.8619 35.2818 43.9561 35.3484C44.0665 35.4209 44.169 35.5048 44.2619 35.5987C44.3592 35.696 44.4531 35.8107 44.5469 35.9219C44.6408 36.0331 44.7207 36.1478 44.8007 36.2695L46.3057 38.4662ZM41.5091 32.467L41.7003 34.6081L42.3676 34.5455C42.5168 34.5364 42.6625 34.4969 42.7958 34.4293C42.9291 34.3618 43.0472 34.2676 43.1427 34.1527C43.3269 33.9174 43.4106 33.6188 43.3756 33.322C43.3165 32.6512 42.9272 32.3488 42.2043 32.4079L41.5091 32.467Z" fill="white"/>
<path d="M22.1774 40.8089C21.7226 40.8644 21.261 40.8167 20.8272 40.6693C20.3933 40.5219 19.9982 40.2785 19.6714 39.9573C18.9566 39.232 18.5367 38.2671 18.4931 37.2497C18.3423 36.1894 18.5832 35.1106 19.1709 34.2153C19.4391 33.8198 19.7952 33.4917 20.2112 33.2565C20.6272 33.0214 21.092 32.8856 21.5692 32.8597C22.0201 32.8055 22.4774 32.8549 22.9063 33.0043C23.3352 33.1537 23.7243 33.3991 24.044 33.7217C24.7523 34.4683 25.1659 35.4463 25.2083 36.4746C25.3574 37.5259 25.1163 38.5954 24.5306 39.4811C24.2641 39.8658 23.914 40.1852 23.5064 40.4152C23.0989 40.6451 22.6445 40.7797 22.1774 40.8089ZM21.6561 34.3369C21.3987 34.3533 21.1498 34.4354 20.9332 34.5753C20.7165 34.7153 20.5394 34.9085 20.4187 35.1364C20.1278 35.7062 20.0186 36.3516 20.1059 36.9855C20.1323 37.626 20.3583 38.2421 20.7524 38.7477C20.9055 38.9438 21.1064 39.0973 21.3358 39.1934C21.5653 39.2896 21.8156 39.3252 22.0627 39.2969C22.3119 39.2796 22.5529 39.2006 22.764 39.0671C22.9751 38.9337 23.1498 38.7499 23.2723 38.5322C23.5611 37.9679 23.6668 37.3277 23.5747 36.7005C23.5562 36.0449 23.3379 35.4107 22.9491 34.8826C22.7983 34.6886 22.6002 34.5365 22.3738 34.441C22.1474 34.3455 21.9003 34.3096 21.6561 34.3369Z" fill="#00203F"/>
<path d="M29.702 33.6592L27.269 33.8747L27.4428 35.762L29.6673 35.5639L29.7959 36.9542L27.5714 37.1523L27.8425 40.1346L26.2957 40.2736L25.6006 32.5921L29.57 32.2515L29.702 33.6592Z" fill="#00203F"/>
<path d="M34.4012 33.2351L31.9682 33.4506L32.142 35.3379L34.3665 35.1363L34.4986 36.5267L32.2706 36.7248L32.5417 39.7035L30.995 39.846L30.2998 32.1611L34.2726 31.8135L34.4012 33.2351Z" fill="#00203F"/>
<path d="M39.8345 39.0571L35.7157 39.4291L35.0205 31.7475L38.9829 31.3826L39.115 32.7903L36.6993 33.0058L36.8557 34.7193L39.0941 34.5108L39.2262 35.9011L36.9843 36.1062L37.1407 37.8649L39.7128 37.6286L39.8345 39.0571Z" fill="#00203F"/>
<path d="M46.3057 38.4662L44.533 38.6296L43.2817 36.7526C43.1879 36.6136 43.101 36.4815 43.0106 36.3703C42.9389 36.2677 42.8549 36.1743 42.7604 36.0922C42.6855 36.0228 42.6013 35.9643 42.5101 35.9184C42.4245 35.8824 42.3317 35.8669 42.239 35.8733L41.8219 35.9115L42.093 38.8451L40.5428 38.9876L39.8477 31.3061L42.2981 31.0767C43.9665 30.9237 44.8644 31.5436 44.9918 32.9362C45.0178 33.1896 45.0025 33.4454 44.9467 33.6939C44.8968 33.9199 44.8124 34.1367 44.6964 34.337C44.5794 34.5332 44.4289 34.7073 44.2515 34.8514C44.0677 34.9957 43.8639 35.1127 43.6467 35.1989C43.7574 35.2313 43.8619 35.2818 43.9561 35.3484C44.0665 35.4209 44.169 35.5048 44.2619 35.5987C44.3592 35.696 44.4531 35.8107 44.5469 35.9219C44.6408 36.0331 44.7207 36.1478 44.8007 36.2695L46.3057 38.4662ZM41.5091 32.467L41.7003 34.6081L42.3676 34.5455C42.5168 34.5364 42.6625 34.4969 42.7958 34.4293C42.9291 34.3618 43.0472 34.2676 43.1427 34.1527C43.3269 33.9174 43.4106 33.6188 43.3756 33.322C43.3165 32.6512 42.9272 32.3488 42.2043 32.4079L41.5091 32.467Z" fill="#00203F"/>
<path d="M22.1774 40.8089C21.7226 40.8644 21.261 40.8167 20.8272 40.6693C20.3933 40.5219 19.9982 40.2785 19.6714 39.9573C18.9566 39.232 18.5367 38.2671 18.4931 37.2497C18.3423 36.1894 18.5832 35.1106 19.1709 34.2153C19.4391 33.8198 19.7952 33.4917 20.2112 33.2565C20.6272 33.0214 21.092 32.8856 21.5692 32.8597C22.0201 32.8055 22.4774 32.8549 22.9063 33.0043C23.3352 33.1537 23.7243 33.3991 24.044 33.7217C24.7523 34.4683 25.1659 35.4463 25.2083 36.4746C25.3574 37.5259 25.1163 38.5954 24.5306 39.4811C24.2641 39.8658 23.914 40.1852 23.5064 40.4152C23.0989 40.6451 22.6445 40.7797 22.1774 40.8089ZM21.6561 34.3369C21.3987 34.3533 21.1498 34.4354 20.9332 34.5753C20.7165 34.7153 20.5394 34.9085 20.4187 35.1364C20.1278 35.7062 20.0186 36.3516 20.1059 36.9855C20.1323 37.626 20.3583 38.2421 20.7524 38.7477C20.9055 38.9438 21.1064 39.0973 21.3358 39.1934C21.5653 39.2896 21.8156 39.3252 22.0627 39.2969C22.3119 39.2796 22.5529 39.2006 22.764 39.0671C22.9751 38.9337 23.1498 38.7499 23.2723 38.5322C23.5611 37.9679 23.6668 37.3277 23.5747 36.7005C23.5562 36.0449 23.3379 35.4107 22.9491 34.8826C22.7983 34.6886 22.6002 34.5365 22.3738 34.441C22.1474 34.3455 21.9003 34.3096 21.6561 34.3369Z" fill="#00203F"/>
<path d="M29.702 33.6592L27.269 33.8747L27.4428 35.762L29.6673 35.5639L29.7959 36.9542L27.5714 37.1523L27.8425 40.1346L26.2957 40.2736L25.6006 32.5921L29.57 32.2515L29.702 33.6592Z" fill="#00203F"/>
<path d="M34.4012 33.2351L31.9682 33.4506L32.142 35.3379L34.3665 35.1363L34.4986 36.5267L32.2706 36.7248L32.5417 39.7035L30.995 39.846L30.2998 32.1611L34.2726 31.8135L34.4012 33.2351Z" fill="#00203F"/>
<path d="M39.8345 39.0571L35.7157 39.4291L35.0205 31.7475L38.9829 31.3826L39.115 32.7903L36.6993 33.0058L36.8557 34.7193L39.0941 34.5108L39.2262 35.9011L36.9843 36.1062L37.1407 37.8649L39.7128 37.6286L39.8345 39.0571Z" fill="#00203F"/>
<path d="M46.3057 38.4662L44.533 38.6296L43.2817 36.7526C43.1879 36.6136 43.101 36.4815 43.0106 36.3703C42.9389 36.2677 42.8549 36.1743 42.7604 36.0922C42.6855 36.0228 42.6013 35.9643 42.5101 35.9184C42.4245 35.8824 42.3317 35.8669 42.239 35.8733L41.8219 35.9115L42.093 38.8451L40.5428 38.9876L39.8477 31.3061L42.2981 31.0767C43.9665 30.9237 44.8644 31.5436 44.9918 32.9362C45.0178 33.1896 45.0025 33.4454 44.9467 33.6939C44.8968 33.9199 44.8124 34.1367 44.6964 34.337C44.5794 34.5332 44.4289 34.7073 44.2515 34.8514C44.0677 34.9957 43.8639 35.1127 43.6467 35.1989C43.7574 35.2313 43.8619 35.2818 43.9561 35.3484C44.0665 35.4209 44.169 35.5048 44.2619 35.5987C44.3592 35.696 44.4531 35.8107 44.5469 35.9219C44.6408 36.0331 44.7207 36.1478 44.8007 36.2695L46.3057 38.4662ZM41.5091 32.467L41.7003 34.6081L42.3676 34.5455C42.5168 34.5364 42.6625 34.4969 42.7958 34.4293C42.9291 34.3618 43.0472 34.2676 43.1427 34.1527C43.3269 33.9174 43.4106 33.6188 43.3756 33.322C43.3165 32.6512 42.9272 32.3488 42.2043 32.4079L41.5091 32.467Z" fill="#00203F"/>
<path d="M22.1774 40.8089C21.7226 40.8644 21.261 40.8167 20.8272 40.6693C20.3933 40.5219 19.9982 40.2785 19.6714 39.9573C18.9566 39.232 18.5367 38.2671 18.4931 37.2497C18.3423 36.1894 18.5832 35.1106 19.1709 34.2153C19.4391 33.8198 19.7952 33.4917 20.2112 33.2565C20.6272 33.0214 21.092 32.8856 21.5692 32.8597C22.0201 32.8055 22.4774 32.8549 22.9063 33.0043C23.3352 33.1537 23.7243 33.3991 24.044 33.7217C24.7523 34.4683 25.1659 35.4463 25.2083 36.4746C25.3574 37.5259 25.1163 38.5954 24.5306 39.4811C24.2641 39.8658 23.914 40.1852 23.5064 40.4152C23.0989 40.6451 22.6445 40.7797 22.1774 40.8089ZM21.6561 34.3369C21.3987 34.3533 21.1498 34.4354 20.9332 34.5753C20.7165 34.7153 20.5394 34.9085 20.4187 35.1364C20.1278 35.7062 20.0186 36.3516 20.1059 36.9855C20.1323 37.626 20.3583 38.2421 20.7524 38.7477C20.9055 38.9438 21.1064 39.0973 21.3358 39.1934C21.5653 39.2896 21.8156 39.3252 22.0627 39.2969C22.3119 39.2796 22.5529 39.2006 22.764 39.0671C22.9751 38.9337 23.1498 38.7499 23.2723 38.5322C23.5611 37.9679 23.6668 37.3277 23.5747 36.7005C23.5562 36.0449 23.3379 35.4107 22.9491 34.8826C22.7983 34.6886 22.6002 34.5365 22.3738 34.441C22.1474 34.3455 21.9003 34.3096 21.6561 34.3369Z" fill="#00203F"/>
<path d="M29.702 33.6592L27.269 33.8747L27.4428 35.762L29.6673 35.5639L29.7959 36.9542L27.5714 37.1523L27.8425 40.1346L26.2957 40.2736L25.6006 32.5921L29.57 32.2515L29.702 33.6592Z" fill="#00203F"/>
<path d="M34.4012 33.2351L31.9682 33.4506L32.142 35.3379L34.3665 35.1363L34.4986 36.5267L32.2706 36.7248L32.5417 39.7035L30.995 39.846L30.2998 32.1611L34.2726 31.8135L34.4012 33.2351Z" fill="#00203F"/>
<path d="M39.8345 39.0571L35.7157 39.4291L35.0205 31.7475L38.9829 31.3826L39.115 32.7903L36.6993 33.0058L36.8557 34.7193L39.0941 34.5108L39.2262 35.9011L36.9843 36.1062L37.1407 37.8649L39.7128 37.6286L39.8345 39.0571Z" fill="#00203F"/>
<path d="M46.3057 38.4662L44.533 38.6296L43.2817 36.7526C43.1879 36.6136 43.101 36.4815 43.0106 36.3703C42.9389 36.2677 42.8549 36.1743 42.7604 36.0922C42.6855 36.0228 42.6013 35.9643 42.5101 35.9184C42.4245 35.8824 42.3317 35.8669 42.239 35.8733L41.8219 35.9115L42.093 38.8451L40.5428 38.9876L39.8477 31.3061L42.2981 31.0767C43.9665 30.9237 44.8644 31.5436 44.9918 32.9362C45.0178 33.1896 45.0025 33.4454 44.9467 33.6939C44.8968 33.9199 44.8124 34.1367 44.6964 34.337C44.5794 34.5332 44.4289 34.7073 44.2515 34.8514C44.0677 34.9957 43.8639 35.1127 43.6467 35.1989C43.7574 35.2313 43.8619 35.2818 43.9561 35.3484C44.0665 35.4209 44.169 35.5048 44.2619 35.5987C44.3592 35.696 44.4531 35.8107 44.5469 35.9219C44.6408 36.0331 44.7207 36.1478 44.8007 36.2695L46.3057 38.4662ZM41.5091 32.467L41.7003 34.6081L42.3676 34.5455C42.5168 34.5364 42.6625 34.4969 42.7958 34.4293C42.9291 34.3618 43.0472 34.2676 43.1427 34.1527C43.3269 33.9174 43.4106 33.6188 43.3756 33.322C43.3165 32.6512 42.9272 32.3488 42.2043 32.4079L41.5091 32.467Z" fill="#00203F"/>
<path d="M8.15918 20.8682L43.9008 17.5662L44.9679 29.1301L9.22625 32.4322L8.15918 20.8682Z" fill="#00203F"/>
<path d="M51.5303 16.8789L15.7949 20.1814L15.8525 20.8044L51.5879 17.5019L51.5303 16.8789Z" fill="#00203F"/>
<path d="M47.5845 16.0418L24.2158 18.2056L24.2735 18.8286L47.6421 16.6648L47.5845 16.0418Z" fill="#ADF0D1"/>
<path d="M36.7809 40.4583L11.5498 42.79L11.6074 43.413L36.8384 41.0813L36.7809 40.4583Z" fill="#ADF0D1"/>
<path d="M46.6376 40.8052L23.2686 42.9648L23.3261 43.5878L46.6951 41.4282L46.6376 40.8052Z" fill="#00203F"/>
<path d="M13.4006 29.2274L13.3206 28.3689C13.421 28.4518 13.532 28.5208 13.6508 28.574C13.7748 28.6352 13.9054 28.6819 14.0401 28.713C14.1752 28.7477 14.3121 28.7744 14.4503 28.7929C14.5751 28.8049 14.7008 28.8049 14.8256 28.7929C15.1384 28.7807 15.4366 28.6575 15.6668 28.4453C15.7576 28.3455 15.8244 28.2264 15.8624 28.0969C15.9003 27.9675 15.9083 27.8311 15.8858 27.6981C15.8724 27.5479 15.8248 27.4029 15.7467 27.274C15.6679 27.1528 15.5678 27.0469 15.4513 26.9612C15.3179 26.8601 15.1747 26.7728 15.0238 26.7005L14.5024 26.4502C14.3008 26.3529 14.1201 26.2591 13.9463 26.1618C13.7813 26.0694 13.6274 25.9587 13.4875 25.8316C13.3528 25.7088 13.2431 25.5613 13.1642 25.3971C13.071 25.2096 13.0178 25.0049 13.0078 24.7958C12.9795 24.5402 13.0129 24.2815 13.1051 24.0415C13.1837 23.8295 13.3111 23.639 13.477 23.4854C13.6422 23.3365 13.833 23.2187 14.0401 23.1378C14.2552 23.0522 14.4808 22.9961 14.711 22.971C15.1056 22.9075 15.51 22.9458 15.8858 23.0822L15.9796 23.9094C15.607 23.6758 15.1643 23.5798 14.7283 23.6383C14.5886 23.6506 14.4509 23.6798 14.3182 23.7252C14.1893 23.7668 14.0707 23.8356 13.9706 23.9268C13.8598 24.0158 13.7741 24.1322 13.7223 24.2645C13.6705 24.3969 13.6542 24.5405 13.6752 24.6811C13.6837 24.824 13.7216 24.9636 13.7864 25.0912C13.8521 25.2034 13.9367 25.3034 14.0366 25.3866C14.1592 25.4795 14.2908 25.5598 14.4294 25.6265C14.5754 25.7064 14.7492 25.7829 14.9508 25.8802C15.1524 25.9775 15.3401 26.0714 15.5243 26.1757C15.7022 26.2748 15.8659 26.3976 16.0109 26.5406C16.1474 26.6768 16.2644 26.8312 16.3585 26.9994C16.4543 27.1894 16.5132 27.3958 16.5323 27.6077C16.564 27.8753 16.533 28.1466 16.4419 28.4002C16.3663 28.6137 16.2385 28.8049 16.07 28.9563C15.8982 29.1068 15.7003 29.2246 15.486 29.3039C15.2556 29.384 15.0164 29.4365 14.7735 29.4603C14.6866 29.4603 14.5858 29.4603 14.4607 29.4603C14.3356 29.4603 14.2104 29.4603 14.0714 29.4255C13.942 29.4111 13.8141 29.3855 13.6891 29.3491C13.587 29.3241 13.4896 29.283 13.4006 29.2274Z" fill="white"/>
<path d="M18.1448 26.69L18.3603 29.0362L17.7346 29.0987L17.1611 22.8666L18.6279 22.7276C18.8711 22.6858 19.1203 22.6951 19.3597 22.7549C19.5991 22.8148 19.8234 22.9238 20.0182 23.0752C20.2012 23.2456 20.3483 23.4509 20.4509 23.6788C20.5536 23.9068 20.6097 24.153 20.6161 24.4029C20.6833 24.9337 20.5439 25.4701 20.2268 25.901C20.0611 26.1068 19.8537 26.2751 19.6183 26.395C19.3828 26.5148 19.1247 26.5834 18.8608 26.5962L18.1448 26.69ZM17.8493 23.4818L18.0822 26.0296L18.7426 25.9705C18.9233 25.9662 19.1013 25.9252 19.2656 25.8499C19.4299 25.7746 19.5772 25.6666 19.6985 25.5326C19.8053 25.3897 19.8828 25.227 19.9263 25.054C19.9699 24.881 19.9787 24.701 19.9522 24.5246C19.8723 23.7112 19.4204 23.3359 18.5619 23.4158L17.8493 23.4818Z" fill="white"/>
<path d="M24.8605 28.4279L22.0173 28.6886L21.4473 22.4774L24.1653 22.2236L24.2279 22.884L22.1424 23.0752L22.3336 25.1433L24.2731 24.9626L24.3322 25.6125L22.3927 25.7933L22.5943 27.9657L24.8118 27.7606L24.8605 28.4279Z" fill="white"/>
<path d="M29.5078 27.7327C29.0835 28.0297 28.5857 28.2041 28.0688 28.2367C27.7174 28.2801 27.3607 28.2397 27.0278 28.1189C26.695 27.9981 26.3954 27.8002 26.1536 27.5416C25.6113 26.9412 25.2954 26.1705 25.2604 25.3622C25.1423 24.4954 25.3357 23.6147 25.8061 22.877C26.0152 22.5626 26.2932 22.2999 26.6191 22.109C26.9449 21.9181 27.3099 21.8039 27.6865 21.7752C28.1201 21.7205 28.5606 21.7681 28.9725 21.9142L29.0386 22.6859C28.6402 22.4739 28.1872 22.3867 27.7386 22.4356C27.4495 22.4541 27.1688 22.5406 26.9194 22.688C26.67 22.8353 26.4588 23.0394 26.3031 23.2837C25.9492 23.8746 25.8082 24.5688 25.9034 25.251C25.9257 25.9008 26.1712 26.5232 26.5985 27.0132C26.783 27.2132 27.0118 27.3671 27.2666 27.4624C27.5213 27.5578 27.7949 27.5921 28.0653 27.5624C28.5637 27.5263 29.038 27.3342 29.4209 27.0132L29.5078 27.7327Z" fill="white"/>
<path d="M31.2036 21.5737L31.2627 22.1994L30.7414 22.248L31.2036 27.2219L31.725 27.1698L31.7876 27.7919L30.1088 27.9483L30.0497 27.3262L30.5676 27.2706L30.1088 22.3037L29.5874 22.3558L29.5283 21.7267L31.2036 21.5737Z" fill="white"/>
<path d="M36.8097 27.3158L36.1145 27.3749L35.3881 25.6822L33.1184 25.8907L32.743 27.6807L32.0479 27.7433L33.5251 21.3374L34.1785 21.2783L36.8097 27.3158ZM35.1239 25.0565L34.0534 22.4844C34.0014 22.3526 33.9607 22.2165 33.9317 22.0778H33.9144C33.9087 22.22 33.8936 22.3616 33.8692 22.5018L33.2783 25.2303L35.1239 25.0565Z" fill="white"/>
<path d="M40.3795 26.9856L37.5989 27.2462L37.0254 21.0315L37.651 20.9724L38.1655 26.5337L40.31 26.3425L40.3795 26.9856Z" fill="white"/>
</svg>
