<svg width="45" height="31" viewBox="0 0 45 31" fill="none" xmlns="http://www.w3.org/2000/svg">
<path d="M5.30469 13.3647L43.8296 12.1238L44.2885 26.2156L5.75659 27.4705L5.30469 13.3647Z" fill="#1F1F38"/>
<path d="M40.9691 23.2124L42.5507 24.9122L35.5916 30.9014L35.3379 25.5379L40.9691 23.2124Z" fill="#1F1F38"/>
<path d="M14.0642 24.617C13.5599 24.6498 13.0548 24.5677 12.587 24.3768C12.1191 24.1859 11.7007 23.8913 11.3633 23.5151C10.6193 22.6674 10.2167 21.5735 10.2336 20.4458C10.139 19.2717 10.471 18.103 11.1686 17.154C11.4928 16.7383 11.9072 16.4019 12.3805 16.17C12.8539 15.9382 13.3737 15.817 13.9008 15.8157C14.4017 15.7839 14.9031 15.867 15.367 16.0586C15.8309 16.2502 16.2448 16.5452 16.5774 16.9211C17.3155 17.7937 17.7076 18.9069 17.6793 20.0495C17.7729 21.2164 17.4393 22.3776 16.7407 23.317C16.4259 23.7264 16.0202 24.0569 15.5557 24.2826C15.0912 24.5082 14.5806 24.6227 14.0642 24.617ZM13.9077 17.4668C13.6245 17.4696 13.3467 17.5445 13.1004 17.6843C12.8541 17.8242 12.6475 18.0245 12.4999 18.2663C12.1403 18.8742 11.9765 19.5781 12.0307 20.2824C12.0152 20.9895 12.2245 21.6832 12.6286 22.2637C12.7927 22.4838 13.0074 22.6612 13.2545 22.7808C13.5017 22.9004 13.774 22.9588 14.0484 22.951C14.3229 22.9431 14.5914 22.8693 14.8313 22.7358C15.0712 22.6022 15.2755 22.4129 15.4268 22.1838C15.7893 21.5837 15.9489 20.8829 15.8821 20.1851C15.9011 19.4626 15.7011 18.7514 15.3086 18.1446C15.1515 17.9224 14.9405 17.7437 14.6955 17.6251C14.4505 17.5066 14.1795 17.4521 13.9077 17.4668Z" fill="white"/>
<path d="M22.8234 17.2302L20.1399 17.3171L20.2094 19.4028L22.6774 19.3263L22.726 20.8801L20.2615 20.96L20.3623 24.2623L18.6521 24.3144L18.374 15.8085L22.7712 15.666L22.8234 17.2302Z" fill="white"/>
<path d="M28.0382 17.0671L25.3512 17.154L25.4207 19.2397L27.8922 19.1597L27.9409 20.717L25.4764 20.7935L25.5772 24.0957L23.8669 24.1513L23.5889 15.642L27.986 15.5029L28.0382 17.0671Z" fill="white"/>
<path d="M33.6449 23.835L29.0808 23.9845L28.8027 15.4786L33.193 15.3396L33.2416 16.9003L30.5686 16.9872L30.6277 18.8817L33.113 18.8052L33.1652 20.359L30.6798 20.4389L30.7389 22.3855L33.5892 22.2882L33.6449 23.835Z" fill="white"/>
<path d="M40.812 23.6019L38.848 23.661L37.5862 21.5163C37.5047 21.3669 37.4153 21.2218 37.3186 21.0818C37.2403 20.9652 37.1531 20.8548 37.0579 20.7516C36.9784 20.669 36.887 20.5987 36.7867 20.543C36.695 20.4978 36.5935 20.4763 36.4913 20.4804L36.0324 20.5013L36.1367 23.7583L34.4265 23.8105L34.1484 15.3046L36.8667 15.2142C38.709 15.1551 39.6649 15.8921 39.7101 17.4424C39.718 17.7203 39.6852 17.9978 39.6128 18.2662C39.4795 18.7578 39.1828 19.1893 38.7716 19.4898C38.563 19.6512 38.3277 19.7747 38.0764 19.8547V19.8825C38.2025 19.9222 38.3203 19.9846 38.424 20.0668C38.5403 20.158 38.6484 20.2592 38.7472 20.3692C38.8529 20.4886 38.9515 20.6139 39.0427 20.7446C39.1365 20.8732 39.2234 21.0053 39.3034 21.1339L40.812 23.6019ZM35.9177 16.6846L35.9977 19.0483L36.7381 19.0205C36.902 19.0235 37.0647 18.9919 37.2157 18.9278C37.3666 18.8637 37.5023 18.7686 37.614 18.6486C37.8309 18.3989 37.943 18.0751 37.9269 17.7448C37.9026 16.994 37.4924 16.6394 36.6929 16.6637L35.9177 16.6846Z" fill="white"/>
<path d="M0.837891 2.98217L40.4057 0.833984L41.0974 12.225L1.5331 14.3836L0.837891 2.98217Z" fill="#FFCB00"/>
<path d="M6.26049 11.349L6.20837 10.4C6.31401 10.4948 6.43073 10.5765 6.55597 10.6433C6.69231 10.7129 6.83414 10.771 6.98004 10.8172C7.1249 10.863 7.27395 10.8944 7.42498 10.911C7.56071 10.9311 7.69807 10.9381 7.83515 10.9319C8.17741 10.9375 8.51036 10.8203 8.77369 10.6016C8.87665 10.4957 8.95423 10.3677 9.00059 10.2274C9.04695 10.0872 9.06087 9.93817 9.04133 9.79171C9.03867 9.62321 8.99321 9.45815 8.90924 9.31203C8.82535 9.17529 8.72104 9.05219 8.59988 8.94704C8.45387 8.83438 8.29929 8.73327 8.13756 8.64463C7.96376 8.5473 7.78996 8.45344 7.57445 8.34916C7.35893 8.24488 7.15385 8.12322 6.9731 8.00156C6.79482 7.89188 6.63127 7.75988 6.48645 7.60876C6.34135 7.46689 6.22353 7.29959 6.13884 7.11517C6.04575 6.90587 5.99496 6.68024 5.98937 6.45124C5.96627 6.17032 6.01036 5.88794 6.11799 5.62742C6.22095 5.40083 6.36876 5.19744 6.55249 5.02955C6.74109 4.86293 6.96083 4.73533 7.19903 4.65413C7.43784 4.5669 7.68885 4.51764 7.94291 4.50814C8.38255 4.45259 8.82908 4.51125 9.23946 4.67846L9.29161 5.58223C8.88375 5.30576 8.39118 5.18262 7.9012 5.23463C7.74806 5.24435 7.59649 5.27117 7.44932 5.31458C7.30654 5.35934 7.17164 5.42619 7.04956 5.51271C6.93277 5.60531 6.83982 5.72449 6.77844 5.86031C6.70995 6.01293 6.6801 6.18007 6.69154 6.34696C6.69519 6.50431 6.73439 6.65881 6.80624 6.79885C6.8738 6.93083 6.96582 7.04879 7.07738 7.14645C7.20656 7.25351 7.34499 7.3489 7.49103 7.43149C7.65788 7.51839 7.83863 7.62266 8.05762 7.72695C8.27661 7.83123 8.48517 7.95289 8.68331 8.07455C8.87436 8.19054 9.04961 8.33075 9.20471 8.49168C9.35678 8.64363 9.48248 8.81984 9.57665 9.01308C9.67754 9.22542 9.73429 9.45602 9.74349 9.69092C9.76667 9.98599 9.72516 10.2826 9.62184 10.5599C9.52921 10.7924 9.37983 10.9979 9.18734 11.1578C8.99572 11.3154 8.7748 11.4336 8.53732 11.5054C8.27728 11.5882 8.00711 11.635 7.73435 11.6445C7.61869 11.6543 7.50241 11.6543 7.38675 11.6445C7.2446 11.636 7.10302 11.6198 6.96266 11.5958C6.82169 11.5692 6.68241 11.5344 6.54553 11.4915C6.44615 11.4533 6.35069 11.4056 6.26049 11.349Z" fill="white"/>
<path d="M11.6029 8.71389L11.7454 11.314L11.0502 11.3487L10.6748 4.46616L12.3085 4.37926C12.5775 4.34848 12.8499 4.37332 13.1088 4.45226C13.3677 4.53119 13.6077 4.66252 13.8137 4.83809C14.0084 5.03351 14.1625 5.26564 14.2669 5.52102C14.3713 5.77639 14.424 6.04995 14.422 6.32584C14.476 6.91444 14.2976 7.50082 13.9249 7.95958C13.7325 8.17964 13.496 8.35678 13.2307 8.47954C12.9654 8.6023 12.6773 8.66793 12.385 8.67216L11.6029 8.71389ZM11.4117 5.16137L11.5716 7.98738L12.2981 7.9422C12.4965 7.95225 12.6946 7.918 12.8782 7.84195C13.0617 7.7659 13.226 7.64994 13.3591 7.5025C13.4922 7.35506 13.5908 7.17985 13.6478 6.98955C13.7048 6.79925 13.7187 6.59865 13.6885 6.40231C13.6364 5.49159 13.1498 5.06752 12.2286 5.11618L11.4117 5.16137Z" fill="white"/>
<path d="M18.9412 10.9247L15.7953 11.095L15.4199 4.21245L18.4267 4.04907L18.4684 4.77904L16.1603 4.90071L16.2785 7.18446L18.4197 7.07323L18.4615 7.79624L16.3237 7.90748L16.4523 10.3129L18.9029 10.1843L18.9412 10.9247Z" fill="white"/>
<path d="M24.103 10.3583C23.6212 10.6716 23.0613 10.8438 22.4867 10.8554C22.098 10.889 21.7069 10.831 21.3447 10.6862C20.9825 10.5413 20.6593 10.3135 20.4011 10.0211C19.8303 9.33807 19.5146 8.47799 19.5077 7.58791C19.4009 6.62959 19.6482 5.66531 20.2029 4.8766C20.4453 4.5386 20.7617 4.26048 21.128 4.06347C21.4943 3.86647 21.9007 3.7558 22.3163 3.73993C22.7979 3.69022 23.2843 3.76193 23.7311 3.94849L23.7763 4.80708C23.3453 4.55457 22.8499 4.43374 22.3511 4.45947C22.0316 4.46922 21.7189 4.55388 21.4382 4.70664C21.1574 4.85939 20.9165 5.07597 20.7347 5.33891C20.3188 5.97618 20.1347 6.73713 20.2133 7.49406C20.2115 8.21249 20.457 8.90967 20.9085 9.46845C21.1037 9.69736 21.3504 9.87663 21.6284 9.99146C21.9064 10.1063 22.2077 10.1534 22.5075 10.1289C23.059 10.1101 23.5906 9.9179 24.0266 9.57968L24.103 10.3583Z" fill="white"/>
<path d="M26.2307 3.63208L26.2654 4.32729L25.6814 4.36205L25.9804 9.86463L26.5609 9.82639L26.5956 10.5216L24.7464 10.6259L24.7082 9.93067L25.2921 9.89938L24.9967 4.39681L24.4162 4.43158L24.3779 3.73637L26.2307 3.63208Z" fill="white"/>
<path d="M32.1741 10.2122L31.3989 10.2539L30.669 8.35947L28.1593 8.49851L27.6726 10.4625L26.8975 10.5042L28.8197 3.50344L29.5427 3.45825L32.1741 10.2122ZM30.4013 7.63993L29.3133 4.74439C29.2641 4.59819 29.2269 4.44822 29.2021 4.29598H29.1847C29.1704 4.45358 29.1471 4.61025 29.1152 4.76525L28.3505 7.74422L30.4013 7.63993Z" fill="white"/>
<path d="M36.1197 9.99315L33.0434 10.16L32.668 3.27396L33.3632 3.24268L33.7108 9.39527L36.0919 9.26318L36.1197 9.99315Z" fill="white"/>
<path d="M6.26049 11.349L6.20837 10.4C6.31401 10.4948 6.43073 10.5765 6.55597 10.6433C6.69231 10.7129 6.83414 10.771 6.98004 10.8172C7.1249 10.863 7.27395 10.8944 7.42498 10.911C7.56071 10.9311 7.69807 10.9381 7.83515 10.9319C8.17741 10.9375 8.51036 10.8203 8.77369 10.6016C8.87665 10.4957 8.95423 10.3677 9.00059 10.2274C9.04695 10.0872 9.06087 9.93817 9.04133 9.79171C9.03867 9.62321 8.99321 9.45815 8.90924 9.31203C8.82535 9.17529 8.72104 9.05219 8.59988 8.94704C8.45387 8.83438 8.29929 8.73327 8.13756 8.64463C7.96376 8.5473 7.78996 8.45344 7.57445 8.34916C7.35893 8.24488 7.15385 8.12322 6.9731 8.00156C6.79482 7.89188 6.63127 7.75988 6.48645 7.60876C6.34135 7.46689 6.22353 7.29959 6.13884 7.11517C6.04575 6.90587 5.99496 6.68024 5.98937 6.45124C5.96627 6.17032 6.01036 5.88794 6.11799 5.62742C6.22095 5.40083 6.36876 5.19744 6.55249 5.02955C6.74109 4.86293 6.96083 4.73533 7.19903 4.65413C7.43784 4.5669 7.68885 4.51764 7.94291 4.50814C8.38255 4.45259 8.82908 4.51125 9.23946 4.67846L9.29161 5.58223C8.88375 5.30576 8.39118 5.18262 7.9012 5.23463C7.74806 5.24435 7.59649 5.27117 7.44932 5.31458C7.30654 5.35934 7.17164 5.42619 7.04956 5.51271C6.93277 5.60531 6.83982 5.72449 6.77844 5.86031C6.70995 6.01293 6.6801 6.18007 6.69154 6.34696C6.69519 6.50431 6.73439 6.65881 6.80624 6.79885C6.8738 6.93083 6.96582 7.04879 7.07738 7.14645C7.20656 7.25351 7.34499 7.3489 7.49103 7.43149C7.65788 7.51839 7.83863 7.62266 8.05762 7.72695C8.27661 7.83123 8.48517 7.95289 8.68331 8.07455C8.87436 8.19054 9.04961 8.33075 9.20471 8.49168C9.35678 8.64363 9.48248 8.81984 9.57665 9.01308C9.67754 9.22542 9.73429 9.45602 9.74349 9.69092C9.76667 9.98599 9.72516 10.2826 9.62184 10.5599C9.52921 10.7924 9.37983 10.9979 9.18734 11.1578C8.99572 11.3154 8.7748 11.4336 8.53732 11.5054C8.27728 11.5882 8.00711 11.635 7.73435 11.6445C7.61869 11.6543 7.50241 11.6543 7.38675 11.6445C7.2446 11.636 7.10302 11.6198 6.96266 11.5958C6.82169 11.5692 6.68241 11.5344 6.54553 11.4915C6.44615 11.4533 6.35069 11.4056 6.26049 11.349Z" fill="#1F1F38"/>
<path d="M11.6029 8.71389L11.7454 11.314L11.0502 11.3487L10.6748 4.46616L12.3085 4.37926C12.5775 4.34848 12.8499 4.37332 13.1088 4.45226C13.3677 4.53119 13.6077 4.66252 13.8137 4.83809C14.0084 5.03351 14.1625 5.26564 14.2669 5.52102C14.3713 5.77639 14.424 6.04995 14.422 6.32584C14.476 6.91444 14.2976 7.50082 13.9249 7.95958C13.7325 8.17964 13.496 8.35678 13.2307 8.47954C12.9654 8.6023 12.6773 8.66793 12.385 8.67216L11.6029 8.71389ZM11.4117 5.16137L11.5716 7.98738L12.2981 7.9422C12.4965 7.95225 12.6946 7.918 12.8782 7.84195C13.0617 7.7659 13.226 7.64994 13.3591 7.5025C13.4922 7.35506 13.5908 7.17985 13.6478 6.98955C13.7048 6.79925 13.7187 6.59865 13.6885 6.40231C13.6364 5.49159 13.1498 5.06752 12.2286 5.11618L11.4117 5.16137Z" fill="#1F1F38"/>
<path d="M18.9412 10.9247L15.7953 11.095L15.4199 4.21245L18.4267 4.04907L18.4684 4.77904L16.1603 4.90071L16.2785 7.18446L18.4197 7.07323L18.4615 7.79624L16.3237 7.90748L16.4523 10.3129L18.9029 10.1843L18.9412 10.9247Z" fill="#1F1F38"/>
<path d="M24.103 10.3583C23.6212 10.6716 23.0613 10.8438 22.4867 10.8554C22.098 10.889 21.7069 10.831 21.3447 10.6862C20.9825 10.5413 20.6593 10.3135 20.4011 10.0211C19.8303 9.33807 19.5146 8.47799 19.5077 7.58791C19.4009 6.62959 19.6482 5.66531 20.2029 4.8766C20.4453 4.5386 20.7617 4.26048 21.128 4.06347C21.4943 3.86647 21.9007 3.7558 22.3163 3.73993C22.7979 3.69022 23.2843 3.76193 23.7311 3.94849L23.7763 4.80708C23.3453 4.55457 22.8499 4.43374 22.3511 4.45947C22.0316 4.46922 21.7189 4.55388 21.4382 4.70664C21.1574 4.85939 20.9165 5.07597 20.7347 5.33891C20.3188 5.97618 20.1347 6.73713 20.2133 7.49406C20.2115 8.21249 20.457 8.90967 20.9085 9.46845C21.1037 9.69736 21.3504 9.87663 21.6284 9.99146C21.9064 10.1063 22.2077 10.1534 22.5075 10.1289C23.059 10.1101 23.5906 9.9179 24.0266 9.57968L24.103 10.3583Z" fill="#1F1F38"/>
<path d="M26.2307 3.63208L26.2654 4.32729L25.6814 4.36205L25.9804 9.86463L26.5609 9.82639L26.5956 10.5216L24.7464 10.6259L24.7082 9.93067L25.2921 9.89938L24.9967 4.39681L24.4162 4.43158L24.3779 3.73637L26.2307 3.63208Z" fill="#1F1F38"/>
<path d="M32.1741 10.2122L31.3989 10.2539L30.669 8.35947L28.1593 8.49851L27.6726 10.4625L26.8975 10.5042L28.8197 3.50344L29.5427 3.45825L32.1741 10.2122ZM30.4013 7.63993L29.3133 4.74439C29.2641 4.59819 29.2269 4.44822 29.2021 4.29598H29.1847C29.1704 4.45358 29.1471 4.61025 29.1152 4.76525L28.3505 7.74422L30.4013 7.63993Z" fill="#1F1F38"/>
<path d="M36.1197 9.99315L33.0434 10.16L32.668 3.27396L33.3632 3.24268L33.7108 9.39527L36.0919 9.26318L36.1197 9.99315Z" fill="#1F1F38"/>
<path d="M6.26049 11.349L6.20837 10.4C6.31401 10.4948 6.43073 10.5765 6.55597 10.6433C6.69231 10.7129 6.83414 10.771 6.98004 10.8172C7.1249 10.863 7.27395 10.8944 7.42498 10.911C7.56071 10.9311 7.69807 10.9381 7.83515 10.9319C8.17741 10.9375 8.51036 10.8203 8.77369 10.6016C8.87665 10.4957 8.95423 10.3677 9.00059 10.2274C9.04695 10.0872 9.06087 9.93817 9.04133 9.79171C9.03867 9.62321 8.99321 9.45815 8.90924 9.31203C8.82535 9.17529 8.72104 9.05219 8.59988 8.94704C8.45387 8.83438 8.29929 8.73327 8.13756 8.64463C7.96376 8.5473 7.78996 8.45344 7.57445 8.34916C7.35893 8.24488 7.15385 8.12322 6.9731 8.00156C6.79482 7.89188 6.63127 7.75988 6.48645 7.60876C6.34135 7.46689 6.22353 7.29959 6.13884 7.11517C6.04575 6.90587 5.99496 6.68024 5.98937 6.45124C5.96627 6.17032 6.01036 5.88794 6.11799 5.62742C6.22095 5.40083 6.36876 5.19744 6.55249 5.02955C6.74109 4.86293 6.96083 4.73533 7.19903 4.65413C7.43784 4.5669 7.68885 4.51764 7.94291 4.50814C8.38255 4.45259 8.82908 4.51125 9.23946 4.67846L9.29161 5.58223C8.88375 5.30576 8.39118 5.18262 7.9012 5.23463C7.74806 5.24435 7.59649 5.27117 7.44932 5.31458C7.30654 5.35934 7.17164 5.42619 7.04956 5.51271C6.93277 5.60531 6.83982 5.72449 6.77844 5.86031C6.70995 6.01293 6.6801 6.18007 6.69154 6.34696C6.69519 6.50431 6.73439 6.65881 6.80624 6.79885C6.8738 6.93083 6.96582 7.04879 7.07738 7.14645C7.20656 7.25351 7.34499 7.3489 7.49103 7.43149C7.65788 7.51839 7.83863 7.62266 8.05762 7.72695C8.27661 7.83123 8.48517 7.95289 8.68331 8.07455C8.87436 8.19054 9.04961 8.33075 9.20471 8.49168C9.35678 8.64363 9.48248 8.81984 9.57665 9.01308C9.67754 9.22542 9.73429 9.45602 9.74349 9.69092C9.76667 9.98599 9.72516 10.2826 9.62184 10.5599C9.52921 10.7924 9.37983 10.9979 9.18734 11.1578C8.99572 11.3154 8.7748 11.4336 8.53732 11.5054C8.27728 11.5882 8.00711 11.635 7.73435 11.6445C7.61869 11.6543 7.50241 11.6543 7.38675 11.6445C7.2446 11.636 7.10302 11.6198 6.96266 11.5958C6.82169 11.5692 6.68241 11.5344 6.54553 11.4915C6.44615 11.4533 6.35069 11.4056 6.26049 11.349Z" fill="#1F1F38"/>
<path d="M11.6029 8.71389L11.7454 11.314L11.0502 11.3487L10.6748 4.46616L12.3085 4.37926C12.5775 4.34848 12.8499 4.37332 13.1088 4.45226C13.3677 4.53119 13.6077 4.66252 13.8137 4.83809C14.0084 5.03351 14.1625 5.26564 14.2669 5.52102C14.3713 5.77639 14.424 6.04995 14.422 6.32584C14.476 6.91444 14.2976 7.50082 13.9249 7.95958C13.7325 8.17964 13.496 8.35678 13.2307 8.47954C12.9654 8.6023 12.6773 8.66793 12.385 8.67216L11.6029 8.71389ZM11.4117 5.16137L11.5716 7.98738L12.2981 7.9422C12.4965 7.95225 12.6946 7.918 12.8782 7.84195C13.0617 7.7659 13.226 7.64994 13.3591 7.5025C13.4922 7.35506 13.5908 7.17985 13.6478 6.98955C13.7048 6.79925 13.7187 6.59865 13.6885 6.40231C13.6364 5.49159 13.1498 5.06752 12.2286 5.11618L11.4117 5.16137Z" fill="#1F1F38"/>
<path d="M18.9412 10.9247L15.7953 11.095L15.4199 4.21245L18.4267 4.04907L18.4684 4.77904L16.1603 4.90071L16.2785 7.18446L18.4197 7.07323L18.4615 7.79624L16.3237 7.90748L16.4523 10.3129L18.9029 10.1843L18.9412 10.9247Z" fill="#1F1F38"/>
<path d="M24.103 10.3583C23.6212 10.6716 23.0613 10.8438 22.4867 10.8554C22.098 10.889 21.7069 10.831 21.3447 10.6862C20.9825 10.5413 20.6593 10.3135 20.4011 10.0211C19.8303 9.33807 19.5146 8.47799 19.5077 7.58791C19.4009 6.62959 19.6482 5.66531 20.2029 4.8766C20.4453 4.5386 20.7617 4.26048 21.128 4.06347C21.4943 3.86647 21.9007 3.7558 22.3163 3.73993C22.7979 3.69022 23.2843 3.76193 23.7311 3.94849L23.7763 4.80708C23.3453 4.55457 22.8499 4.43374 22.3511 4.45947C22.0316 4.46922 21.7189 4.55388 21.4382 4.70664C21.1574 4.85939 20.9165 5.07597 20.7347 5.33891C20.3188 5.97618 20.1347 6.73713 20.2133 7.49406C20.2115 8.21249 20.457 8.90967 20.9085 9.46845C21.1037 9.69736 21.3504 9.87663 21.6284 9.99146C21.9064 10.1063 22.2077 10.1534 22.5075 10.1289C23.059 10.1101 23.5906 9.9179 24.0266 9.57968L24.103 10.3583Z" fill="#1F1F38"/>
<path d="M26.2307 3.63208L26.2654 4.32729L25.6814 4.36205L25.9804 9.86463L26.5609 9.82639L26.5956 10.5216L24.7464 10.6259L24.7082 9.93067L25.2921 9.89938L24.9967 4.39681L24.4162 4.43158L24.3779 3.73637L26.2307 3.63208Z" fill="#1F1F38"/>
<path d="M32.1741 10.2122L31.3989 10.2539L30.669 8.35947L28.1593 8.49851L27.6726 10.4625L26.8975 10.5042L28.8197 3.50344L29.5427 3.45825L32.1741 10.2122ZM30.4013 7.63993L29.3133 4.74439C29.2641 4.59819 29.2269 4.44822 29.2021 4.29598H29.1847C29.1704 4.45358 29.1471 4.61025 29.1152 4.76525L28.3505 7.74422L30.4013 7.63993Z" fill="#1F1F38"/>
<path d="M36.1197 9.99315L33.0434 10.16L32.668 3.27396L33.3632 3.24268L33.7108 9.39527L36.0919 9.26318L36.1197 9.99315Z" fill="#1F1F38"/>
<path d="M6.26049 11.349L6.20837 10.4C6.31401 10.4948 6.43073 10.5765 6.55597 10.6433C6.69231 10.7129 6.83414 10.771 6.98004 10.8172C7.1249 10.863 7.27395 10.8944 7.42498 10.911C7.56071 10.9311 7.69807 10.9381 7.83515 10.9319C8.17741 10.9375 8.51036 10.8203 8.77369 10.6016C8.87665 10.4957 8.95423 10.3677 9.00059 10.2274C9.04695 10.0872 9.06087 9.93817 9.04133 9.79171C9.03867 9.62321 8.99321 9.45815 8.90924 9.31203C8.82535 9.17529 8.72104 9.05219 8.59988 8.94704C8.45387 8.83438 8.29929 8.73327 8.13756 8.64463C7.96376 8.5473 7.78996 8.45344 7.57445 8.34916C7.35893 8.24488 7.15385 8.12322 6.9731 8.00156C6.79482 7.89188 6.63127 7.75988 6.48645 7.60876C6.34135 7.46689 6.22353 7.29959 6.13884 7.11517C6.04575 6.90587 5.99496 6.68024 5.98937 6.45124C5.96627 6.17032 6.01036 5.88794 6.11799 5.62742C6.22095 5.40083 6.36876 5.19744 6.55249 5.02955C6.74109 4.86293 6.96083 4.73533 7.19903 4.65413C7.43784 4.5669 7.68885 4.51764 7.94291 4.50814C8.38255 4.45259 8.82908 4.51125 9.23946 4.67846L9.29161 5.58223C8.88375 5.30576 8.39118 5.18262 7.9012 5.23463C7.74806 5.24435 7.59649 5.27117 7.44932 5.31458C7.30654 5.35934 7.17164 5.42619 7.04956 5.51271C6.93277 5.60531 6.83982 5.72449 6.77844 5.86031C6.70995 6.01293 6.6801 6.18007 6.69154 6.34696C6.69519 6.50431 6.73439 6.65881 6.80624 6.79885C6.8738 6.93083 6.96582 7.04879 7.07738 7.14645C7.20656 7.25351 7.34499 7.3489 7.49103 7.43149C7.65788 7.51839 7.83863 7.62266 8.05762 7.72695C8.27661 7.83123 8.48517 7.95289 8.68331 8.07455C8.87436 8.19054 9.04961 8.33075 9.20471 8.49168C9.35678 8.64363 9.48248 8.81984 9.57665 9.01308C9.67754 9.22542 9.73429 9.45602 9.74349 9.69092C9.76667 9.98599 9.72516 10.2826 9.62184 10.5599C9.52921 10.7924 9.37983 10.9979 9.18734 11.1578C8.99572 11.3154 8.7748 11.4336 8.53732 11.5054C8.27728 11.5882 8.00711 11.635 7.73435 11.6445C7.61869 11.6543 7.50241 11.6543 7.38675 11.6445C7.2446 11.636 7.10302 11.6198 6.96266 11.5958C6.82169 11.5692 6.68241 11.5344 6.54553 11.4915C6.44615 11.4533 6.35069 11.4056 6.26049 11.349Z" fill="#1F1F38"/>
<path d="M11.6029 8.71389L11.7454 11.314L11.0502 11.3487L10.6748 4.46616L12.3085 4.37926C12.5775 4.34848 12.8499 4.37332 13.1088 4.45226C13.3677 4.53119 13.6077 4.66252 13.8137 4.83809C14.0084 5.03351 14.1625 5.26564 14.2669 5.52102C14.3713 5.77639 14.424 6.04995 14.422 6.32584C14.476 6.91444 14.2976 7.50082 13.9249 7.95958C13.7325 8.17964 13.496 8.35678 13.2307 8.47954C12.9654 8.6023 12.6773 8.66793 12.385 8.67216L11.6029 8.71389ZM11.4117 5.16137L11.5716 7.98738L12.2981 7.9422C12.4965 7.95225 12.6946 7.918 12.8782 7.84195C13.0617 7.7659 13.226 7.64994 13.3591 7.5025C13.4922 7.35506 13.5908 7.17985 13.6478 6.98955C13.7048 6.79925 13.7187 6.59865 13.6885 6.40231C13.6364 5.49159 13.1498 5.06752 12.2286 5.11618L11.4117 5.16137Z" fill="#1F1F38"/>
<path d="M18.9412 10.9247L15.7953 11.095L15.4199 4.21245L18.4267 4.04907L18.4684 4.77904L16.1603 4.90071L16.2785 7.18446L18.4197 7.07323L18.4615 7.79624L16.3237 7.90748L16.4523 10.3129L18.9029 10.1843L18.9412 10.9247Z" fill="#1F1F38"/>
<path d="M24.103 10.3583C23.6212 10.6716 23.0613 10.8438 22.4867 10.8554C22.098 10.889 21.7069 10.831 21.3447 10.6862C20.9825 10.5413 20.6593 10.3135 20.4011 10.0211C19.8303 9.33807 19.5146 8.47799 19.5077 7.58791C19.4009 6.62959 19.6482 5.66531 20.2029 4.8766C20.4453 4.5386 20.7617 4.26048 21.128 4.06347C21.4943 3.86647 21.9007 3.7558 22.3163 3.73993C22.7979 3.69022 23.2843 3.76193 23.7311 3.94849L23.7763 4.80708C23.3453 4.55457 22.8499 4.43374 22.3511 4.45947C22.0316 4.46922 21.7189 4.55388 21.4382 4.70664C21.1574 4.85939 20.9165 5.07597 20.7347 5.33891C20.3188 5.97618 20.1347 6.73713 20.2133 7.49406C20.2115 8.21249 20.457 8.90967 20.9085 9.46845C21.1037 9.69736 21.3504 9.87663 21.6284 9.99146C21.9064 10.1063 22.2077 10.1534 22.5075 10.1289C23.059 10.1101 23.5906 9.9179 24.0266 9.57968L24.103 10.3583Z" fill="#1F1F38"/>
<path d="M26.2307 3.63208L26.2654 4.32729L25.6814 4.36205L25.9804 9.86463L26.5609 9.82639L26.5956 10.5216L24.7464 10.6259L24.7082 9.93067L25.2921 9.89938L24.9967 4.39681L24.4162 4.43158L24.3779 3.73637L26.2307 3.63208Z" fill="#1F1F38"/>
<path d="M32.1741 10.2122L31.3989 10.2539L30.669 8.35947L28.1593 8.49851L27.6726 10.4625L26.8975 10.5042L28.8197 3.50344L29.5427 3.45825L32.1741 10.2122ZM30.4013 7.63993L29.3133 4.74439C29.2641 4.59819 29.2269 4.44822 29.2021 4.29598H29.1847C29.1704 4.45358 29.1471 4.61025 29.1152 4.76525L28.3505 7.74422L30.4013 7.63993Z" fill="#1F1F38"/>
<path d="M36.1197 9.99315L33.0434 10.16L32.668 3.27396L33.3632 3.24268L33.7108 9.39527L36.0919 9.26318L36.1197 9.99315Z" fill="#1F1F38"/>
<path d="M5.81867 12.5896L8.45003 13.2361L8.18237 17.4387L3.375 13.5455L5.81867 12.5896Z" fill="#FFCB00"/>
</svg>
