<svg width="59" height="58" viewBox="0 0 59 58" fill="none" xmlns="http://www.w3.org/2000/svg">
<rect x="0.650391" width="57.93" height="57.93" rx="6.27384" fill="white"/>
<path d="M28.7865 8.61692L22.5 17.615L22.9758 17.9474L29.2623 8.94936L28.7865 8.61692Z" fill="#001B62"/>
<path d="M29.8514 8.58476L29.4229 8.97632L38.1215 18.4958L38.55 18.1043L29.8514 8.58476Z" fill="#001B62"/>
<path d="M30.609 8.52178C30.609 8.7866 30.5304 9.04546 30.3832 9.2656C30.236 9.48573 30.0268 9.65725 29.7821 9.75843C29.5374 9.85961 29.2681 9.88591 29.0085 9.83399C28.7488 9.78207 28.5103 9.65428 28.3233 9.46678C28.1363 9.27929 28.0091 9.04052 27.9579 8.78071C27.9067 8.5209 27.9337 8.25173 28.0355 8.00727C28.1373 7.76281 28.3094 7.55405 28.5299 7.40743C28.7504 7.26081 29.0095 7.18291 29.2743 7.1836C29.4498 7.1836 29.6237 7.21824 29.7859 7.28553C29.948 7.35282 30.0953 7.45145 30.2193 7.57575C30.3433 7.70006 30.4415 7.84761 30.5084 8.00994C30.5753 8.17228 30.6094 8.34621 30.609 8.52178Z" fill="#001B62"/>
<path d="M29.2738 7.78463C29.421 7.78117 29.566 7.82172 29.6901 7.9011C29.8142 7.98048 29.9117 8.09506 29.9704 8.23021C30.029 8.36535 30.0459 8.51491 30.0191 8.65975C29.9922 8.80458 29.9228 8.93812 29.8196 9.04326C29.7164 9.14841 29.5842 9.22039 29.4399 9.25C29.2956 9.27961 29.1458 9.2655 29.0096 9.20948C28.8733 9.15346 28.7569 9.05806 28.6752 8.93551C28.5934 8.81295 28.5501 8.6688 28.5508 8.5215C28.5508 8.32845 28.6265 8.1431 28.7617 8.00531C28.8969 7.86751 29.0807 7.78827 29.2738 7.78463Z" fill="#FABD00"/>
<path d="M15.8055 45.4177C14.569 45.4243 13.3796 44.9436 12.4949 44.0797C11.6101 43.2158 11.1013 42.0382 11.0784 40.8018L10.6161 22.4705C10.5986 21.8484 10.7038 21.229 10.9258 20.6477C11.1478 20.0664 11.4823 19.5345 11.91 19.0826C12.3377 18.6306 12.8504 18.2674 13.4186 18.0138C13.9869 17.7601 14.5995 17.621 15.2216 17.6043L43.2643 16.9092C43.8857 16.8902 44.5046 16.9946 45.0854 17.2164C45.6661 17.4381 46.1972 17.7728 46.6477 18.2011C47.0983 18.6294 47.4595 19.1427 47.7104 19.7115C47.9614 20.2802 48.097 20.8931 48.1096 21.5146L48.5719 39.8494C48.6018 41.1043 48.1325 42.3196 47.267 43.2287C46.4016 44.1378 45.2108 44.6663 43.956 44.6982L15.9237 45.4177H15.8055ZM43.3825 17.4966H43.2782L15.239 18.1917C14.6939 18.2062 14.157 18.3278 13.659 18.5498C13.161 18.7718 12.7116 19.0898 12.3365 19.4855C11.9614 19.8812 11.668 20.347 11.473 20.8562C11.278 21.3654 11.1853 21.908 11.2001 22.4531L11.6589 40.7844C11.6922 41.864 12.1429 42.8886 12.9163 43.6425C13.6897 44.3965 14.7255 44.821 15.8055 44.8268H15.9063L43.9491 44.1143C44.4938 44.1017 45.0307 43.9815 45.5288 43.7608C46.027 43.5401 46.4766 43.2232 46.8519 42.8282C47.2272 42.4332 47.5208 41.9679 47.7157 41.4591C47.9107 40.9503 48.0032 40.408 47.9879 39.8634L47.5291 21.5285C47.5046 20.447 47.0562 19.4184 46.2806 18.6643C45.505 17.9102 44.4643 17.4908 43.3825 17.4966Z" fill="#001B62"/>
<path d="M41.4289 16.8117L14.8808 19.7765C13.7711 19.9048 12.7575 20.4678 12.0623 21.3422C11.367 22.2166 11.0469 23.331 11.1721 24.4411L13.1081 41.7957C13.1695 42.3471 13.339 42.8809 13.6069 43.3667C13.8748 43.8525 14.2359 44.2807 14.6695 44.6267C15.103 44.9728 15.6006 45.23 16.1337 45.3836C16.6667 45.5372 17.2249 45.5841 17.7761 45.5218L44.3243 42.5569C44.8755 42.496 45.4092 42.3269 45.895 42.0593C46.3808 41.7918 46.809 41.431 47.1551 40.9977C47.5012 40.5644 47.7584 40.0671 47.9121 39.5343C48.0657 39.0014 48.1127 38.4435 48.0503 37.8924L46.1143 20.5377C46.053 19.9847 45.883 19.4493 45.6139 18.9623C45.3449 18.4753 44.9822 18.0463 44.5468 17.7C44.1113 17.3537 43.6116 17.0969 43.0766 16.9445C42.5415 16.792 41.9815 16.7469 41.4289 16.8117Z" fill="#FABD00"/>
<path d="M19.8619 41.4478C19.3781 41.5166 18.8849 41.4748 18.4195 41.3255C17.9542 41.1762 17.5287 40.9233 17.1751 40.5858C16.3956 39.8261 15.9251 38.8045 15.8543 37.7183C15.6694 36.5925 15.8991 35.4378 16.5008 34.4684C16.7782 34.0413 17.1507 33.6841 17.5891 33.4249C18.0274 33.1656 18.5198 33.0112 19.0277 32.9738C19.507 32.9064 19.9954 32.9486 20.456 33.0973C20.9166 33.246 21.3374 33.4974 21.6867 33.8324C22.4596 34.6176 22.9225 35.6558 22.9902 36.7555C23.1696 37.8732 22.9375 39.0181 22.3367 39.9776C22.0625 40.3941 21.6973 40.7429 21.2686 40.9976C20.8399 41.2523 20.3589 41.4062 19.8619 41.4478ZM19.1668 34.5623C18.8935 34.5856 18.6308 34.6788 18.4038 34.8327C18.1767 34.9867 17.9931 35.1964 17.8703 35.4417C17.5691 36.0555 17.4658 36.7478 17.5749 37.4229C17.6128 38.1068 17.8658 38.7613 18.2978 39.2928C18.4727 39.493 18.6933 39.648 18.9408 39.7448C19.1883 39.8416 19.4555 39.8774 19.7197 39.8491C19.984 39.8208 20.2375 39.7293 20.4589 39.5822C20.6803 39.4352 20.863 39.237 20.9916 39.0044C21.2895 38.3956 21.3891 37.7088 21.2766 37.0405C21.2406 36.3429 20.9987 35.6717 20.5814 35.1115C20.4127 34.9061 20.1939 34.7477 19.9461 34.6515C19.6983 34.5553 19.4299 34.5246 19.1668 34.5623Z" fill="white"/>
<path d="M27.7348 33.6622L25.1557 33.9473L25.3782 35.9563L27.7522 35.6921L27.9155 37.1902L25.545 37.4474L25.8926 40.6312L24.2416 40.812L23.3379 32.6265L27.5714 32.1572L27.7348 33.6622Z" fill="white"/>
<path d="M32.7462 33.0956L30.1671 33.3841L30.3931 35.3896L32.7636 35.1289L32.9304 36.6235L30.5564 36.8842L30.904 40.0646L29.253 40.2453L28.3389 32.0598L32.5724 31.5906L32.7462 33.0956Z" fill="white"/>
<path d="M38.6727 39.2026L34.2862 39.6822L33.3721 31.4932L37.5882 31.0344L37.7551 32.5394L35.183 32.8245L35.3846 34.6423L37.7724 34.3747L37.9358 35.8588L35.5479 36.1265L35.7565 37.993L38.4919 37.6906L38.6727 39.2026Z" fill="white"/>
<path d="M45.5826 38.4308L43.6882 38.6394L42.3153 36.6582C42.211 36.5122 42.1172 36.3731 42.0199 36.2584C41.9373 36.1531 41.8466 36.0543 41.7487 35.963C41.6712 35.8889 41.5804 35.8299 41.4811 35.7892C41.3903 35.7544 41.2932 35.739 41.1961 35.744L40.7512 35.7996L41.0988 38.9279L39.4478 39.1086L38.5371 30.9231L41.1509 30.6276C42.9236 30.4284 43.8945 31.0714 44.0636 32.5567C44.0969 32.823 44.0875 33.0928 44.0358 33.3562C43.9876 33.6006 43.8995 33.8354 43.7751 34.0513C43.6526 34.2608 43.4964 34.4487 43.3129 34.6074C43.1205 34.775 42.9036 34.9121 42.6698 35.0141V35.0419C42.7934 35.0697 42.9111 35.1191 43.0174 35.1879C43.1341 35.2686 43.2445 35.358 43.3476 35.4555C43.4519 35.5598 43.5562 35.6745 43.6604 35.8031C43.7647 35.9317 43.8516 36.0464 43.9385 36.1507L45.5826 38.4308ZM40.3341 32.1292L40.5878 34.4093L41.283 34.3294C41.4425 34.3183 41.5979 34.2739 41.7392 34.1991C41.8805 34.1243 42.0045 34.0206 42.1033 33.8949C42.1978 33.7676 42.2662 33.6227 42.3043 33.4688C42.3425 33.3149 42.3498 33.1549 42.3257 32.9981C42.2493 32.303 41.8217 31.9554 41.0605 32.0527L40.3341 32.1292Z" fill="white"/>
<path d="M19.8619 41.4478C19.3781 41.5166 18.8849 41.4748 18.4195 41.3255C17.9542 41.1762 17.5287 40.9233 17.1751 40.5858C16.3956 39.8261 15.9251 38.8045 15.8543 37.7183C15.6694 36.5925 15.8991 35.4378 16.5008 34.4684C16.7782 34.0413 17.1507 33.6841 17.5891 33.4249C18.0274 33.1656 18.5198 33.0112 19.0277 32.9738C19.507 32.9064 19.9954 32.9486 20.456 33.0973C20.9166 33.246 21.3374 33.4974 21.6867 33.8324C22.4596 34.6176 22.9225 35.6558 22.9902 36.7555C23.1696 37.8732 22.9375 39.0181 22.3367 39.9776C22.0625 40.3941 21.6973 40.7429 21.2686 40.9976C20.8399 41.2523 20.3589 41.4062 19.8619 41.4478ZM19.1668 34.5623C18.8935 34.5856 18.6308 34.6788 18.4038 34.8327C18.1767 34.9867 17.9931 35.1964 17.8703 35.4417C17.5691 36.0555 17.4658 36.7478 17.5749 37.4229C17.6128 38.1068 17.8658 38.7613 18.2978 39.2928C18.4727 39.493 18.6933 39.648 18.9408 39.7448C19.1883 39.8416 19.4555 39.8774 19.7197 39.8491C19.984 39.8208 20.2375 39.7293 20.4589 39.5822C20.6803 39.4352 20.863 39.237 20.9916 39.0044C21.2895 38.3956 21.3891 37.7088 21.2766 37.0405C21.2406 36.3429 20.9987 35.6717 20.5814 35.1115C20.4127 34.9061 20.1939 34.7477 19.9461 34.6515C19.6983 34.5553 19.4299 34.5246 19.1668 34.5623Z" fill="#001B62"/>
<path d="M27.7348 33.6622L25.1557 33.9473L25.3782 35.9563L27.7522 35.6921L27.9155 37.1902L25.545 37.4474L25.8926 40.6312L24.2416 40.812L23.3379 32.6265L27.5714 32.1572L27.7348 33.6622Z" fill="#001B62"/>
<path d="M32.7462 33.0956L30.1671 33.3841L30.3931 35.3896L32.7636 35.1289L32.9304 36.6235L30.5564 36.8842L30.904 40.0646L29.253 40.2453L28.3389 32.0598L32.5724 31.5906L32.7462 33.0956Z" fill="#001B62"/>
<path d="M38.6727 39.2026L34.2862 39.6822L33.3721 31.4932L37.5882 31.0344L37.7551 32.5394L35.183 32.8245L35.3846 34.6423L37.7724 34.3747L37.9358 35.8588L35.5479 36.1265L35.7565 37.993L38.4919 37.6906L38.6727 39.2026Z" fill="#001B62"/>
<path d="M45.5826 38.4308L43.6882 38.6394L42.3153 36.6582C42.211 36.5122 42.1172 36.3731 42.0199 36.2584C41.9373 36.1531 41.8466 36.0543 41.7487 35.963C41.6712 35.8889 41.5804 35.8299 41.4811 35.7892C41.3903 35.7544 41.2932 35.739 41.1961 35.744L40.7512 35.7996L41.0988 38.9279L39.4478 39.1086L38.5371 30.9231L41.1509 30.6276C42.9236 30.4284 43.8945 31.0714 44.0636 32.5567C44.0969 32.823 44.0875 33.0928 44.0358 33.3562C43.9876 33.6006 43.8995 33.8354 43.7751 34.0513C43.6526 34.2608 43.4964 34.4487 43.3129 34.6074C43.1205 34.775 42.9036 34.9121 42.6698 35.0141V35.0419C42.7934 35.0697 42.9111 35.1191 43.0174 35.1879C43.1341 35.2686 43.2445 35.358 43.3476 35.4555C43.4519 35.5598 43.5562 35.6745 43.6604 35.8031C43.7647 35.9317 43.8516 36.0464 43.9385 36.1507L45.5826 38.4308ZM40.3341 32.1292L40.5878 34.4093L41.283 34.3294C41.4425 34.3183 41.5979 34.2739 41.7392 34.1991C41.8805 34.1243 42.0045 34.0206 42.1033 33.8949C42.1978 33.7676 42.2662 33.6227 42.3043 33.4688C42.3425 33.3149 42.3498 33.1549 42.3257 32.9981C42.2493 32.303 41.8217 31.9554 41.0605 32.0527L40.3341 32.1292Z" fill="#001B62"/>
<path d="M19.8619 41.4478C19.3781 41.5166 18.8849 41.4748 18.4195 41.3255C17.9542 41.1762 17.5287 40.9233 17.1751 40.5858C16.3956 39.8261 15.9251 38.8045 15.8543 37.7183C15.6694 36.5925 15.8991 35.4378 16.5008 34.4684C16.7782 34.0413 17.1507 33.6841 17.5891 33.4249C18.0274 33.1656 18.5198 33.0112 19.0277 32.9738C19.507 32.9064 19.9954 32.9486 20.456 33.0973C20.9166 33.246 21.3374 33.4974 21.6867 33.8324C22.4596 34.6176 22.9225 35.6558 22.9902 36.7555C23.1696 37.8732 22.9375 39.0181 22.3367 39.9776C22.0625 40.3941 21.6973 40.7429 21.2686 40.9976C20.8399 41.2523 20.3589 41.4062 19.8619 41.4478ZM19.1668 34.5623C18.8935 34.5856 18.6308 34.6788 18.4038 34.8327C18.1767 34.9867 17.9931 35.1964 17.8703 35.4417C17.5691 36.0555 17.4658 36.7478 17.5749 37.4229C17.6128 38.1068 17.8658 38.7613 18.2978 39.2928C18.4727 39.493 18.6933 39.648 18.9408 39.7448C19.1883 39.8416 19.4555 39.8774 19.7197 39.8491C19.984 39.8208 20.2375 39.7293 20.4589 39.5822C20.6803 39.4352 20.863 39.237 20.9916 39.0044C21.2895 38.3956 21.3891 37.7088 21.2766 37.0405C21.2406 36.3429 20.9987 35.6717 20.5814 35.1115C20.4127 34.9061 20.1939 34.7477 19.9461 34.6515C19.6983 34.5553 19.4299 34.5246 19.1668 34.5623Z" fill="#001B62"/>
<path d="M27.7348 33.6622L25.1557 33.9473L25.3782 35.9563L27.7522 35.6921L27.9155 37.1902L25.545 37.4474L25.8926 40.6312L24.2416 40.812L23.3379 32.6265L27.5714 32.1572L27.7348 33.6622Z" fill="#001B62"/>
<path d="M32.7462 33.0956L30.1671 33.3841L30.3931 35.3896L32.7636 35.1289L32.9304 36.6235L30.5564 36.8842L30.904 40.0646L29.253 40.2453L28.3389 32.0598L32.5724 31.5906L32.7462 33.0956Z" fill="#001B62"/>
<path d="M38.6727 39.2026L34.2862 39.6822L33.3721 31.4932L37.5882 31.0344L37.7551 32.5394L35.183 32.8245L35.3846 34.6423L37.7724 34.3747L37.9358 35.8588L35.5479 36.1265L35.7565 37.993L38.4919 37.6906L38.6727 39.2026Z" fill="#001B62"/>
<path d="M45.5826 38.4308L43.6882 38.6394L42.3153 36.6582C42.211 36.5122 42.1172 36.3731 42.0199 36.2584C41.9373 36.1531 41.8466 36.0543 41.7487 35.963C41.6712 35.8889 41.5804 35.8299 41.4811 35.7892C41.3903 35.7544 41.2932 35.739 41.1961 35.744L40.7512 35.7996L41.0988 38.9279L39.4478 39.1086L38.5371 30.9231L41.1509 30.6276C42.9236 30.4284 43.8945 31.0714 44.0636 32.5567C44.0969 32.823 44.0875 33.0928 44.0358 33.3562C43.9876 33.6006 43.8995 33.8354 43.7751 34.0513C43.6526 34.2608 43.4964 34.4487 43.3129 34.6074C43.1205 34.775 42.9036 34.9121 42.6698 35.0141V35.0419C42.7934 35.0697 42.9111 35.1191 43.0174 35.1879C43.1341 35.2686 43.2445 35.358 43.3476 35.4555C43.4519 35.5598 43.5562 35.6745 43.6604 35.8031C43.7647 35.9317 43.8516 36.0464 43.9385 36.1507L45.5826 38.4308ZM40.3341 32.1292L40.5878 34.4093L41.283 34.3294C41.4425 34.3183 41.5979 34.2739 41.7392 34.1991C41.8805 34.1243 42.0045 34.0206 42.1033 33.8949C42.1978 33.7676 42.2662 33.6227 42.3043 33.4688C42.3425 33.3149 42.3498 33.1549 42.3257 32.9981C42.2493 32.303 41.8217 31.9554 41.0605 32.0527L40.3341 32.1292Z" fill="#001B62"/>
<path d="M19.8619 41.4478C19.3781 41.5166 18.8849 41.4748 18.4195 41.3255C17.9542 41.1762 17.5287 40.9233 17.1751 40.5858C16.3956 39.8261 15.9251 38.8045 15.8543 37.7183C15.6694 36.5925 15.8991 35.4378 16.5008 34.4684C16.7782 34.0413 17.1507 33.6841 17.5891 33.4249C18.0274 33.1656 18.5198 33.0112 19.0277 32.9738C19.507 32.9064 19.9954 32.9486 20.456 33.0973C20.9166 33.246 21.3374 33.4974 21.6867 33.8324C22.4596 34.6176 22.9225 35.6558 22.9902 36.7555C23.1696 37.8732 22.9375 39.0181 22.3367 39.9776C22.0625 40.3941 21.6973 40.7429 21.2686 40.9976C20.8399 41.2523 20.3589 41.4062 19.8619 41.4478ZM19.1668 34.5623C18.8935 34.5856 18.6308 34.6788 18.4038 34.8327C18.1767 34.9867 17.9931 35.1964 17.8703 35.4417C17.5691 36.0555 17.4658 36.7478 17.5749 37.4229C17.6128 38.1068 17.8658 38.7613 18.2978 39.2928C18.4727 39.493 18.6933 39.648 18.9408 39.7448C19.1883 39.8416 19.4555 39.8774 19.7197 39.8491C19.984 39.8208 20.2375 39.7293 20.4589 39.5822C20.6803 39.4352 20.863 39.237 20.9916 39.0044C21.2895 38.3956 21.3891 37.7088 21.2766 37.0405C21.2406 36.3429 20.9987 35.6717 20.5814 35.1115C20.4127 34.9061 20.1939 34.7477 19.9461 34.6515C19.6983 34.5553 19.4299 34.5246 19.1668 34.5623Z" fill="#001B62"/>
<path d="M27.7348 33.6622L25.1557 33.9473L25.3782 35.9563L27.7522 35.6921L27.9155 37.1902L25.545 37.4474L25.8926 40.6312L24.2416 40.812L23.3379 32.6265L27.5714 32.1572L27.7348 33.6622Z" fill="#001B62"/>
<path d="M32.7462 33.0956L30.1671 33.3841L30.3931 35.3896L32.7636 35.1289L32.9304 36.6235L30.5564 36.8842L30.904 40.0646L29.253 40.2453L28.3389 32.0598L32.5724 31.5906L32.7462 33.0956Z" fill="#001B62"/>
<path d="M38.6727 39.2026L34.2862 39.6822L33.3721 31.4932L37.5882 31.0344L37.7551 32.5394L35.183 32.8245L35.3846 34.6423L37.7724 34.3747L37.9358 35.8588L35.5479 36.1265L35.7565 37.993L38.4919 37.6906L38.6727 39.2026Z" fill="#001B62"/>
<path d="M45.5826 38.4308L43.6882 38.6394L42.3153 36.6582C42.211 36.5122 42.1172 36.3731 42.0199 36.2584C41.9373 36.1531 41.8466 36.0543 41.7487 35.963C41.6712 35.8889 41.5804 35.8299 41.4811 35.7892C41.3903 35.7544 41.2932 35.739 41.1961 35.744L40.7512 35.7996L41.0988 38.9279L39.4478 39.1086L38.5371 30.9231L41.1509 30.6276C42.9236 30.4284 43.8945 31.0714 44.0636 32.5567C44.0969 32.823 44.0875 33.0928 44.0358 33.3562C43.9876 33.6006 43.8995 33.8354 43.7751 34.0513C43.6526 34.2608 43.4964 34.4487 43.3129 34.6074C43.1205 34.775 42.9036 34.9121 42.6698 35.0141V35.0419C42.7934 35.0697 42.9111 35.1191 43.0174 35.1879C43.1341 35.2686 43.2445 35.358 43.3476 35.4555C43.4519 35.5598 43.5562 35.6745 43.6604 35.8031C43.7647 35.9317 43.8516 36.0464 43.9385 36.1507L45.5826 38.4308ZM40.3341 32.1292L40.5878 34.4093L41.283 34.3294C41.4425 34.3183 41.5979 34.2739 41.7392 34.1991C41.8805 34.1243 42.0045 34.0206 42.1033 33.8949C42.1978 33.7676 42.2662 33.6227 42.3043 33.4688C42.3425 33.3149 42.3498 33.1549 42.3257 32.9981C42.2493 32.303 41.8217 31.9554 41.0605 32.0527L40.3341 32.1292Z" fill="#001B62"/>
<path d="M15.4574 30.4954L15.3601 29.6021C15.4669 29.6848 15.5837 29.7537 15.7077 29.8072C15.8375 29.869 15.9739 29.9157 16.1144 29.9462C16.2508 29.9829 16.3905 30.0061 16.5315 30.0157C16.6587 30.0262 16.7866 30.0262 16.9138 30.0157C17.2338 30.0085 17.5402 29.8849 17.7758 29.6682C17.8657 29.5632 17.9308 29.4393 17.9663 29.3057C18.0018 29.1721 18.0068 29.0323 17.9809 28.8965C17.969 28.7386 17.9189 28.5859 17.8349 28.4516C17.75 28.3267 17.6442 28.2173 17.5221 28.1284C17.3824 28.0284 17.2348 27.94 17.0806 27.8642C16.9138 27.7878 16.7331 27.7009 16.5315 27.614C16.3299 27.5271 16.1318 27.4297 15.958 27.3289C15.7832 27.2352 15.6218 27.1183 15.4783 26.9814C15.3436 26.8501 15.2267 26.7017 15.1307 26.5399C15.0371 26.3491 14.9782 26.1432 14.9569 25.9317C14.9191 25.6684 14.9466 25.3998 15.0369 25.1496C15.1155 24.9287 15.2439 24.7289 15.4123 24.5657C15.5811 24.4043 15.7778 24.2747 15.9927 24.1834C16.6014 23.9372 17.2759 23.9065 17.9044 24.0965L17.9983 24.9376C17.6093 24.7067 17.1522 24.6183 16.7053 24.6873C16.5639 24.707 16.4244 24.7384 16.2882 24.7812C16.1595 24.8266 16.0412 24.8976 15.9406 24.9897C15.8346 25.0838 15.7544 25.2035 15.7077 25.3373C15.6488 25.4839 15.6308 25.6436 15.6556 25.7996C15.6683 25.9467 15.7134 26.0891 15.7876 26.2167C15.8545 26.3353 15.9457 26.4383 16.0553 26.5191C16.1826 26.6143 16.3188 26.6969 16.462 26.7659C16.6184 26.8423 16.8095 26.9188 17.0111 27.0057C17.2127 27.0926 17.4178 27.2003 17.6124 27.3046C17.7972 27.3977 17.969 27.5145 18.1234 27.6522C18.2625 27.7939 18.3797 27.9555 18.471 28.1319C18.5758 28.3231 18.6408 28.5335 18.6621 28.7506C18.7001 29.0246 18.6764 29.3037 18.5926 29.5674C18.5199 29.7903 18.3919 29.9911 18.2207 30.1513C18.0485 30.3049 17.8477 30.423 17.6298 30.4989C17.3938 30.5917 17.1456 30.6502 16.893 30.6727C16.7773 30.6829 16.661 30.6829 16.5454 30.6727C16.4168 30.6727 16.2847 30.6727 16.1457 30.6483C16.0144 30.6298 15.8844 30.6031 15.7564 30.5684C15.6525 30.5667 15.5504 30.5418 15.4574 30.4954Z" fill="white"/>
<path d="M20.3034 27.7708L20.5745 30.2038L19.9315 30.2734L19.2363 23.8709L20.7553 23.6971C21.0039 23.6516 21.2593 23.659 21.5049 23.7189C21.7504 23.7788 21.9806 23.8898 22.1803 24.0447C22.3731 24.2161 22.5296 24.4243 22.6406 24.6571C22.7517 24.8899 22.815 25.1426 22.8268 25.4003C22.9051 25.9471 22.7708 26.5032 22.4514 26.954C22.2864 27.1705 22.077 27.3492 21.8372 27.4781C21.5974 27.607 21.3328 27.6831 21.0611 27.7013L20.3034 27.7708ZM19.9558 24.4583L20.2513 27.0826L20.9464 27.0026C21.1335 26.9947 21.3171 26.949 21.4861 26.8684C21.6552 26.7878 21.8062 26.6738 21.9301 26.5334C22.0375 26.3843 22.1144 26.2154 22.1561 26.0364C22.1979 25.8574 22.2038 25.6719 22.1734 25.4907C22.0761 24.6495 21.5999 24.2741 20.7379 24.3714L19.9558 24.4583Z" fill="white"/>
<path d="M27.2755 29.4356L24.3454 29.7832L23.6328 23.3634L26.4413 23.0505L26.5177 23.7283L24.3627 23.9716L24.5956 26.0988L26.5872 25.8729L26.6672 26.568L24.6756 26.794L24.9258 29.0359L27.2059 28.7821L27.2755 29.4356Z" fill="white"/>
<path d="M32.0615 28.6294C31.6269 28.9454 31.1131 29.1343 30.5774 29.1751C30.2174 29.2274 29.8502 29.1942 29.5054 29.0783C29.1606 28.9624 28.848 28.7669 28.5927 28.5078C28.0196 27.8987 27.6789 27.1077 27.6299 26.2729C27.4873 25.3807 27.6725 24.467 28.1513 23.7008C28.3599 23.373 28.6405 23.0972 28.9717 22.8942C29.303 22.6912 29.6762 22.5664 30.063 22.5294C30.5089 22.4635 30.9642 22.5052 31.3907 22.6511L31.4776 23.4505C31.0593 23.2388 30.5873 23.1565 30.122 23.2141C29.8243 23.2406 29.5371 23.3372 29.2839 23.4961C29.0308 23.655 28.8189 23.8716 28.6657 24.1283C28.3116 24.7431 28.1791 25.4609 28.2903 26.1616C28.3293 26.8342 28.5994 27.4727 29.055 27.969C29.2495 28.1725 29.4896 28.3269 29.7555 28.4194C30.0214 28.5118 30.3055 28.5397 30.5843 28.5008C31.0991 28.4554 31.5861 28.2472 31.9746 27.9065L32.0615 28.6294Z" fill="white"/>
<path d="M33.6849 22.2336L33.7579 22.8767L33.2157 22.9392L33.7927 28.0556L34.328 27.9965L34.401 28.6395L32.6631 28.8307L32.5935 28.1842L33.1323 28.1251L32.5727 22.9983L32.027 23.0678L31.9609 22.4248L33.6849 22.2336Z" fill="white"/>
<path d="M39.5871 28.0662L38.8919 28.1427L38.1098 26.4048L35.7741 26.662L35.4265 28.5215L34.707 28.6015L36.0974 21.9627L36.7647 21.8862L39.5871 28.0662ZM37.797 25.7791L36.6257 23.1479C36.568 23.0124 36.5238 22.8715 36.4936 22.7274C36.4916 22.8733 36.4765 23.0187 36.4484 23.1618L35.8958 25.9877L37.797 25.7791Z" fill="white"/>
<path d="M43.2643 27.6558L40.3933 27.9791L39.6738 21.5732L40.3134 21.5037L40.9599 27.2283L43.174 26.978L43.2643 27.6558Z" fill="white"/>
<path d="M15.4574 30.4954L15.3601 29.6021C15.4669 29.6848 15.5837 29.7537 15.7077 29.8072C15.8375 29.869 15.9739 29.9157 16.1144 29.9462C16.2508 29.9829 16.3905 30.0061 16.5315 30.0157C16.6587 30.0262 16.7866 30.0262 16.9138 30.0157C17.2338 30.0085 17.5402 29.8849 17.7758 29.6682C17.8657 29.5632 17.9308 29.4393 17.9663 29.3057C18.0018 29.1721 18.0068 29.0323 17.9809 28.8965C17.969 28.7386 17.9189 28.5859 17.8349 28.4516C17.75 28.3267 17.6442 28.2173 17.5221 28.1284C17.3824 28.0284 17.2348 27.94 17.0806 27.8642C16.9138 27.7878 16.7331 27.7009 16.5315 27.614C16.3299 27.5271 16.1318 27.4297 15.958 27.3289C15.7832 27.2352 15.6218 27.1183 15.4783 26.9814C15.3436 26.8501 15.2267 26.7017 15.1307 26.5399C15.0371 26.3491 14.9782 26.1432 14.9569 25.9317C14.9191 25.6684 14.9466 25.3998 15.0369 25.1496C15.1155 24.9287 15.2439 24.7289 15.4123 24.5657C15.5811 24.4043 15.7778 24.2747 15.9927 24.1834C16.6014 23.9372 17.2759 23.9065 17.9044 24.0965L17.9983 24.9376C17.6093 24.7067 17.1522 24.6183 16.7053 24.6873C16.5639 24.707 16.4244 24.7384 16.2882 24.7812C16.1595 24.8266 16.0412 24.8976 15.9406 24.9897C15.8346 25.0838 15.7544 25.2035 15.7077 25.3373C15.6488 25.4839 15.6308 25.6436 15.6556 25.7996C15.6683 25.9467 15.7134 26.0891 15.7876 26.2167C15.8545 26.3353 15.9457 26.4383 16.0553 26.5191C16.1826 26.6143 16.3188 26.6969 16.462 26.7659C16.6184 26.8423 16.8095 26.9188 17.0111 27.0057C17.2127 27.0926 17.4178 27.2003 17.6124 27.3046C17.7972 27.3977 17.969 27.5145 18.1234 27.6522C18.2625 27.7939 18.3797 27.9555 18.471 28.1319C18.5758 28.3231 18.6408 28.5335 18.6621 28.7506C18.7001 29.0246 18.6764 29.3037 18.5926 29.5674C18.5199 29.7903 18.3919 29.9911 18.2207 30.1513C18.0485 30.3049 17.8477 30.423 17.6298 30.4989C17.3938 30.5917 17.1456 30.6502 16.893 30.6727C16.7773 30.6829 16.661 30.6829 16.5454 30.6727C16.4168 30.6727 16.2847 30.6727 16.1457 30.6483C16.0144 30.6298 15.8844 30.6031 15.7564 30.5684C15.6525 30.5667 15.5504 30.5418 15.4574 30.4954Z" fill="#001B62"/>
<path d="M20.3034 27.7708L20.5745 30.2038L19.9315 30.2734L19.2363 23.8709L20.7553 23.6971C21.0039 23.6516 21.2593 23.659 21.5049 23.7189C21.7504 23.7788 21.9806 23.8898 22.1803 24.0447C22.3731 24.2161 22.5296 24.4243 22.6406 24.6571C22.7517 24.8899 22.815 25.1426 22.8268 25.4003C22.9051 25.9471 22.7708 26.5032 22.4514 26.954C22.2864 27.1705 22.077 27.3492 21.8372 27.4781C21.5974 27.607 21.3328 27.6831 21.0611 27.7013L20.3034 27.7708ZM19.9558 24.4583L20.2513 27.0826L20.9464 27.0026C21.1335 26.9947 21.3171 26.949 21.4861 26.8684C21.6552 26.7878 21.8062 26.6738 21.9301 26.5334C22.0375 26.3843 22.1144 26.2154 22.1561 26.0364C22.1979 25.8574 22.2038 25.6719 22.1734 25.4907C22.0761 24.6495 21.5999 24.2741 20.7379 24.3714L19.9558 24.4583Z" fill="#001B62"/>
<path d="M27.2755 29.4356L24.3454 29.7832L23.6328 23.3634L26.4413 23.0505L26.5177 23.7283L24.3627 23.9716L24.5956 26.0988L26.5872 25.8729L26.6672 26.568L24.6756 26.794L24.9258 29.0359L27.2059 28.7821L27.2755 29.4356Z" fill="#001B62"/>
<path d="M32.0615 28.6294C31.6269 28.9454 31.1131 29.1343 30.5774 29.1751C30.2174 29.2274 29.8502 29.1942 29.5054 29.0783C29.1606 28.9624 28.848 28.7669 28.5927 28.5078C28.0196 27.8987 27.6789 27.1077 27.6299 26.2729C27.4873 25.3807 27.6725 24.467 28.1513 23.7008C28.3599 23.373 28.6405 23.0972 28.9717 22.8942C29.303 22.6912 29.6762 22.5664 30.063 22.5294C30.5089 22.4635 30.9642 22.5052 31.3907 22.6511L31.4776 23.4505C31.0593 23.2388 30.5873 23.1565 30.122 23.2141C29.8243 23.2406 29.5371 23.3372 29.2839 23.4961C29.0308 23.655 28.8189 23.8716 28.6657 24.1283C28.3116 24.7431 28.1791 25.4609 28.2903 26.1616C28.3293 26.8342 28.5994 27.4727 29.055 27.969C29.2495 28.1725 29.4896 28.3269 29.7555 28.4194C30.0214 28.5118 30.3055 28.5397 30.5843 28.5008C31.0991 28.4554 31.5861 28.2472 31.9746 27.9065L32.0615 28.6294Z" fill="#001B62"/>
<path d="M33.6849 22.2336L33.7579 22.8767L33.2157 22.9392L33.7927 28.0556L34.328 27.9965L34.401 28.6395L32.6631 28.8307L32.5935 28.1842L33.1323 28.1251L32.5727 22.9983L32.027 23.0678L31.9609 22.4248L33.6849 22.2336Z" fill="#001B62"/>
<path d="M39.5871 28.0662L38.8919 28.1427L38.1098 26.4048L35.7741 26.662L35.4265 28.5215L34.707 28.6015L36.0974 21.9627L36.7647 21.8862L39.5871 28.0662ZM37.797 25.7791L36.6257 23.1479C36.568 23.0124 36.5238 22.8715 36.4936 22.7274C36.4916 22.8733 36.4765 23.0187 36.4484 23.1618L35.8958 25.9877L37.797 25.7791Z" fill="#001B62"/>
<path d="M43.2643 27.6558L40.3933 27.9791L39.6738 21.5732L40.3134 21.5037L40.9599 27.2283L43.174 26.978L43.2643 27.6558Z" fill="#001B62"/>
<path d="M15.4574 30.4954L15.3601 29.6021C15.4669 29.6848 15.5837 29.7537 15.7077 29.8072C15.8375 29.869 15.9739 29.9157 16.1144 29.9462C16.2508 29.9829 16.3905 30.0061 16.5315 30.0157C16.6587 30.0262 16.7866 30.0262 16.9138 30.0157C17.2338 30.0085 17.5402 29.8849 17.7758 29.6682C17.8657 29.5632 17.9308 29.4393 17.9663 29.3057C18.0018 29.1721 18.0068 29.0323 17.9809 28.8965C17.969 28.7386 17.9189 28.5859 17.8349 28.4516C17.75 28.3267 17.6442 28.2173 17.5221 28.1284C17.3824 28.0284 17.2348 27.94 17.0806 27.8642C16.9138 27.7878 16.7331 27.7009 16.5315 27.614C16.3299 27.5271 16.1318 27.4297 15.958 27.3289C15.7832 27.2352 15.6218 27.1183 15.4783 26.9814C15.3436 26.8501 15.2267 26.7017 15.1307 26.5399C15.0371 26.3491 14.9782 26.1432 14.9569 25.9317C14.9191 25.6684 14.9466 25.3998 15.0369 25.1496C15.1155 24.9287 15.2439 24.7289 15.4123 24.5657C15.5811 24.4043 15.7778 24.2747 15.9927 24.1834C16.6014 23.9372 17.2759 23.9065 17.9044 24.0965L17.9983 24.9376C17.6093 24.7067 17.1522 24.6183 16.7053 24.6873C16.5639 24.707 16.4244 24.7384 16.2882 24.7812C16.1595 24.8266 16.0412 24.8976 15.9406 24.9897C15.8346 25.0838 15.7544 25.2035 15.7077 25.3373C15.6488 25.4839 15.6308 25.6436 15.6556 25.7996C15.6683 25.9467 15.7134 26.0891 15.7876 26.2167C15.8545 26.3353 15.9457 26.4383 16.0553 26.5191C16.1826 26.6143 16.3188 26.6969 16.462 26.7659C16.6184 26.8423 16.8095 26.9188 17.0111 27.0057C17.2127 27.0926 17.4178 27.2003 17.6124 27.3046C17.7972 27.3977 17.969 27.5145 18.1234 27.6522C18.2625 27.7939 18.3797 27.9555 18.471 28.1319C18.5758 28.3231 18.6408 28.5335 18.6621 28.7506C18.7001 29.0246 18.6764 29.3037 18.5926 29.5674C18.5199 29.7903 18.3919 29.9911 18.2207 30.1513C18.0485 30.3049 17.8477 30.423 17.6298 30.4989C17.3938 30.5917 17.1456 30.6502 16.893 30.6727C16.7773 30.6829 16.661 30.6829 16.5454 30.6727C16.4168 30.6727 16.2847 30.6727 16.1457 30.6483C16.0144 30.6298 15.8844 30.6031 15.7564 30.5684C15.6525 30.5667 15.5504 30.5418 15.4574 30.4954Z" fill="#001B62"/>
<path d="M20.3034 27.7708L20.5745 30.2038L19.9315 30.2734L19.2363 23.8709L20.7553 23.6971C21.0039 23.6516 21.2593 23.659 21.5049 23.7189C21.7504 23.7788 21.9806 23.8898 22.1803 24.0447C22.3731 24.2161 22.5296 24.4243 22.6406 24.6571C22.7517 24.8899 22.815 25.1426 22.8268 25.4003C22.9051 25.9471 22.7708 26.5032 22.4514 26.954C22.2864 27.1705 22.077 27.3492 21.8372 27.4781C21.5974 27.607 21.3328 27.6831 21.0611 27.7013L20.3034 27.7708ZM19.9558 24.4583L20.2513 27.0826L20.9464 27.0026C21.1335 26.9947 21.3171 26.949 21.4861 26.8684C21.6552 26.7878 21.8062 26.6738 21.9301 26.5334C22.0375 26.3843 22.1144 26.2154 22.1561 26.0364C22.1979 25.8574 22.2038 25.6719 22.1734 25.4907C22.0761 24.6495 21.5999 24.2741 20.7379 24.3714L19.9558 24.4583Z" fill="#001B62"/>
<path d="M27.2755 29.4356L24.3454 29.7832L23.6328 23.3634L26.4413 23.0505L26.5177 23.7283L24.3627 23.9716L24.5956 26.0988L26.5872 25.8729L26.6672 26.568L24.6756 26.794L24.9258 29.0359L27.2059 28.7821L27.2755 29.4356Z" fill="#001B62"/>
<path d="M32.0615 28.6294C31.6269 28.9454 31.1131 29.1343 30.5774 29.1751C30.2174 29.2274 29.8502 29.1942 29.5054 29.0783C29.1606 28.9624 28.848 28.7669 28.5927 28.5078C28.0196 27.8987 27.6789 27.1077 27.6299 26.2729C27.4873 25.3807 27.6725 24.467 28.1513 23.7008C28.3599 23.373 28.6405 23.0972 28.9717 22.8942C29.303 22.6912 29.6762 22.5664 30.063 22.5294C30.5089 22.4635 30.9642 22.5052 31.3907 22.6511L31.4776 23.4505C31.0593 23.2388 30.5873 23.1565 30.122 23.2141C29.8243 23.2406 29.5371 23.3372 29.2839 23.4961C29.0308 23.655 28.8189 23.8716 28.6657 24.1283C28.3116 24.7431 28.1791 25.4609 28.2903 26.1616C28.3293 26.8342 28.5994 27.4727 29.055 27.969C29.2495 28.1725 29.4896 28.3269 29.7555 28.4194C30.0214 28.5118 30.3055 28.5397 30.5843 28.5008C31.0991 28.4554 31.5861 28.2472 31.9746 27.9065L32.0615 28.6294Z" fill="#001B62"/>
<path d="M33.6849 22.2336L33.7579 22.8767L33.2157 22.9392L33.7927 28.0556L34.328 27.9965L34.401 28.6395L32.6631 28.8307L32.5935 28.1842L33.1323 28.1251L32.5727 22.9983L32.027 23.0678L31.9609 22.4248L33.6849 22.2336Z" fill="#001B62"/>
<path d="M39.5871 28.0662L38.8919 28.1427L38.1098 26.4048L35.7741 26.662L35.4265 28.5215L34.707 28.6015L36.0974 21.9627L36.7647 21.8862L39.5871 28.0662ZM37.797 25.7791L36.6257 23.1479C36.568 23.0124 36.5238 22.8715 36.4936 22.7274C36.4916 22.8733 36.4765 23.0187 36.4484 23.1618L35.8958 25.9877L37.797 25.7791Z" fill="#001B62"/>
<path d="M43.2643 27.6558L40.3933 27.9791L39.6738 21.5732L40.3134 21.5037L40.9599 27.2283L43.174 26.978L43.2643 27.6558Z" fill="#001B62"/>
<path d="M15.4574 30.4954L15.3601 29.6021C15.4669 29.6848 15.5837 29.7537 15.7077 29.8072C15.8375 29.869 15.9739 29.9157 16.1144 29.9462C16.2508 29.9829 16.3905 30.0061 16.5315 30.0157C16.6587 30.0262 16.7866 30.0262 16.9138 30.0157C17.2338 30.0085 17.5402 29.8849 17.7758 29.6682C17.8657 29.5632 17.9308 29.4393 17.9663 29.3057C18.0018 29.1721 18.0068 29.0323 17.9809 28.8965C17.969 28.7386 17.9189 28.5859 17.8349 28.4516C17.75 28.3267 17.6442 28.2173 17.5221 28.1284C17.3824 28.0284 17.2348 27.94 17.0806 27.8642C16.9138 27.7878 16.7331 27.7009 16.5315 27.614C16.3299 27.5271 16.1318 27.4297 15.958 27.3289C15.7832 27.2352 15.6218 27.1183 15.4783 26.9814C15.3436 26.8501 15.2267 26.7017 15.1307 26.5399C15.0371 26.3491 14.9782 26.1432 14.9569 25.9317C14.9191 25.6684 14.9466 25.3998 15.0369 25.1496C15.1155 24.9287 15.2439 24.7289 15.4123 24.5657C15.5811 24.4043 15.7778 24.2747 15.9927 24.1834C16.6014 23.9372 17.2759 23.9065 17.9044 24.0965L17.9983 24.9376C17.6093 24.7067 17.1522 24.6183 16.7053 24.6873C16.5639 24.707 16.4244 24.7384 16.2882 24.7812C16.1595 24.8266 16.0412 24.8976 15.9406 24.9897C15.8346 25.0838 15.7544 25.2035 15.7077 25.3373C15.6488 25.4839 15.6308 25.6436 15.6556 25.7996C15.6683 25.9467 15.7134 26.0891 15.7876 26.2167C15.8545 26.3353 15.9457 26.4383 16.0553 26.5191C16.1826 26.6143 16.3188 26.6969 16.462 26.7659C16.6184 26.8423 16.8095 26.9188 17.0111 27.0057C17.2127 27.0926 17.4178 27.2003 17.6124 27.3046C17.7972 27.3977 17.969 27.5145 18.1234 27.6522C18.2625 27.7939 18.3797 27.9555 18.471 28.1319C18.5758 28.3231 18.6408 28.5335 18.6621 28.7506C18.7001 29.0246 18.6764 29.3037 18.5926 29.5674C18.5199 29.7903 18.3919 29.9911 18.2207 30.1513C18.0485 30.3049 17.8477 30.423 17.6298 30.4989C17.3938 30.5917 17.1456 30.6502 16.893 30.6727C16.7773 30.6829 16.661 30.6829 16.5454 30.6727C16.4168 30.6727 16.2847 30.6727 16.1457 30.6483C16.0144 30.6298 15.8844 30.6031 15.7564 30.5684C15.6525 30.5667 15.5504 30.5418 15.4574 30.4954Z" fill="#001B62"/>
<path d="M20.3034 27.7708L20.5745 30.2038L19.9315 30.2734L19.2363 23.8709L20.7553 23.6971C21.0039 23.6516 21.2593 23.659 21.5049 23.7189C21.7504 23.7788 21.9806 23.8898 22.1803 24.0447C22.3731 24.2161 22.5296 24.4243 22.6406 24.6571C22.7517 24.8899 22.815 25.1426 22.8268 25.4003C22.9051 25.9471 22.7708 26.5032 22.4514 26.954C22.2864 27.1705 22.077 27.3492 21.8372 27.4781C21.5974 27.607 21.3328 27.6831 21.0611 27.7013L20.3034 27.7708ZM19.9558 24.4583L20.2513 27.0826L20.9464 27.0026C21.1335 26.9947 21.3171 26.949 21.4861 26.8684C21.6552 26.7878 21.8062 26.6738 21.9301 26.5334C22.0375 26.3843 22.1144 26.2154 22.1561 26.0364C22.1979 25.8574 22.2038 25.6719 22.1734 25.4907C22.0761 24.6495 21.5999 24.2741 20.7379 24.3714L19.9558 24.4583Z" fill="#001B62"/>
<path d="M27.2755 29.4356L24.3454 29.7832L23.6328 23.3634L26.4413 23.0505L26.5177 23.7283L24.3627 23.9716L24.5956 26.0988L26.5872 25.8729L26.6672 26.568L24.6756 26.794L24.9258 29.0359L27.2059 28.7821L27.2755 29.4356Z" fill="#001B62"/>
<path d="M32.0615 28.6294C31.6269 28.9454 31.1131 29.1343 30.5774 29.1751C30.2174 29.2274 29.8502 29.1942 29.5054 29.0783C29.1606 28.9624 28.848 28.7669 28.5927 28.5078C28.0196 27.8987 27.6789 27.1077 27.6299 26.2729C27.4873 25.3807 27.6725 24.467 28.1513 23.7008C28.3599 23.373 28.6405 23.0972 28.9717 22.8942C29.303 22.6912 29.6762 22.5664 30.063 22.5294C30.5089 22.4635 30.9642 22.5052 31.3907 22.6511L31.4776 23.4505C31.0593 23.2388 30.5873 23.1565 30.122 23.2141C29.8243 23.2406 29.5371 23.3372 29.2839 23.4961C29.0308 23.655 28.8189 23.8716 28.6657 24.1283C28.3116 24.7431 28.1791 25.4609 28.2903 26.1616C28.3293 26.8342 28.5994 27.4727 29.055 27.969C29.2495 28.1725 29.4896 28.3269 29.7555 28.4194C30.0214 28.5118 30.3055 28.5397 30.5843 28.5008C31.0991 28.4554 31.5861 28.2472 31.9746 27.9065L32.0615 28.6294Z" fill="#001B62"/>
<path d="M33.6849 22.2336L33.7579 22.8767L33.2157 22.9392L33.7927 28.0556L34.328 27.9965L34.401 28.6395L32.6631 28.8307L32.5935 28.1842L33.1323 28.1251L32.5727 22.9983L32.027 23.0678L31.9609 22.4248L33.6849 22.2336Z" fill="#001B62"/>
<path d="M39.5871 28.0662L38.8919 28.1427L38.1098 26.4048L35.7741 26.662L35.4265 28.5215L34.707 28.6015L36.0974 21.9627L36.7647 21.8862L39.5871 28.0662ZM37.797 25.7791L36.6257 23.1479C36.568 23.0124 36.5238 22.8715 36.4936 22.7274C36.4916 22.8733 36.4765 23.0187 36.4484 23.1618L35.8958 25.9877L37.797 25.7791Z" fill="#001B62"/>
<path d="M43.2643 27.6558L40.3933 27.9791L39.6738 21.5732L40.3134 21.5037L40.9599 27.2283L43.174 26.978L43.2643 27.6558Z" fill="#001B62"/>
<path d="M38.5339 40.9507L40.1953 42.706L33.5322 50.6308L32.5938 43.3664L38.5339 40.9507Z" fill="#FABD00"/>
</svg>
