<svg width="59" height="58" viewBox="0 0 59 58" fill="none" xmlns="http://www.w3.org/2000/svg">
<rect x="0.790039" width="57.93" height="57.93" rx="6.32612" fill="white"/>
<path d="M49.052 17.2629L51.5372 20.4642L42.9346 25.8412L49.052 17.2629Z" fill="#FEBE10"/>
<path d="M48.1824 24.532L49.2182 26.1135L43.7959 26.6175L48.1824 24.532Z" fill="#371400"/>
<path d="M18.5339 29.0908L50.2401 29.1082L50.2332 40.7104L18.5234 40.7L18.5339 29.0908Z" fill="#FEBE10"/>
<path d="M25.0235 39.2299C24.6088 39.2419 24.1967 39.1599 23.8181 38.9902C23.4395 38.8204 23.1042 38.5673 22.8372 38.2497C22.2491 37.5321 21.9481 36.6218 21.9926 35.695C21.949 34.7267 22.2535 33.7748 22.8511 33.0117C23.125 32.6738 23.4733 32.4038 23.8689 32.2229C24.2644 32.042 24.6965 31.9551 25.1312 31.969C25.5428 31.9571 25.9516 32.0395 26.3263 32.21C26.7011 32.3805 27.0318 32.6345 27.2932 32.9526C27.8703 33.6888 28.1639 34.6077 28.1204 35.5421C28.1673 36.5039 27.8607 37.4497 27.2584 38.2011C26.9898 38.5325 26.6485 38.7977 26.2609 38.9761C25.8734 39.1545 25.45 39.2414 25.0235 39.2299ZM25.0861 33.3419C24.852 33.3362 24.6203 33.3907 24.4134 33.5002C24.2064 33.6098 24.0311 33.7707 23.9043 33.9676C23.5899 34.4587 23.4379 35.0363 23.4698 35.6186C23.4382 36.1975 23.5903 36.7717 23.9043 37.2591C24.0291 37.4486 24.1996 37.6037 24.4 37.71C24.6005 37.8163 24.8244 37.8704 25.0513 37.8674C25.2781 37.8725 25.5026 37.8211 25.7046 37.718C25.9066 37.6149 26.0798 37.4632 26.2087 37.2765C26.5185 36.7902 26.6669 36.2185 26.6328 35.6429C26.6685 35.0494 26.523 34.4591 26.2157 33.9502C26.0964 33.7595 25.9294 33.6032 25.7314 33.4965C25.5333 33.3899 25.3109 33.3366 25.0861 33.3419Z" fill="white"/>
<path d="M32.4197 33.3906H30.2126V35.1111H32.2459V36.3902H30.2126V39.1083H28.8223V32.115H32.4475L32.4197 33.3906Z" fill="white"/>
<path d="M36.7127 33.3906H34.5056V35.1111H36.5389V36.3902H34.5056V39.1083H33.1152V32.115H36.7405L36.7127 33.3906Z" fill="white"/>
<path d="M41.1435 39.1083H37.3896V32.115H41.0045V33.401H38.8078V34.9582H40.8585V36.2373H38.8078V37.8327H41.1539L41.1435 39.1083Z" fill="white"/>
<path d="M47.0455 39.1187H45.4258L44.4561 37.3287C44.3831 37.1931 44.3136 37.068 44.2475 36.9637C44.185 36.8677 44.1177 36.7749 44.0459 36.6857C43.9865 36.6139 43.9132 36.5548 43.8304 36.5119C43.7556 36.472 43.6719 36.4517 43.5871 36.4528H43.2048V39.1361H41.8145V32.115H44.0459C45.5683 32.115 46.3226 32.7476 46.3226 34.0163C46.3246 34.2463 46.2894 34.4752 46.2183 34.694C46.1523 34.8929 46.0562 35.0805 45.9333 35.2502C45.8108 35.4173 45.6602 35.5619 45.4884 35.6777C45.3096 35.8001 45.1141 35.8961 44.9079 35.9627C45.005 36 45.0954 36.0529 45.1755 36.1191C45.2703 36.1955 45.3555 36.283 45.4293 36.3798C45.5057 36.4736 45.5857 36.5779 45.6621 36.6926C45.7386 36.8073 45.8012 36.9185 45.8637 37.0228L47.0455 39.1187ZM43.2048 33.2968V35.2432H43.8096C43.9459 35.2503 44.0822 35.2275 44.2089 35.1765C44.3356 35.1255 44.4496 35.0474 44.5429 34.9478C44.7284 34.7479 44.8282 34.4834 44.821 34.2109C44.821 33.5992 44.4908 33.2898 43.8374 33.2898L43.2048 33.2968Z" fill="white"/>
<path d="M25.0235 39.2299C24.6088 39.2419 24.1967 39.1599 23.8181 38.9902C23.4395 38.8204 23.1042 38.5673 22.8372 38.2497C22.2491 37.5321 21.9481 36.6218 21.9926 35.695C21.949 34.7267 22.2535 33.7748 22.8511 33.0117C23.125 32.6738 23.4733 32.4038 23.8689 32.2229C24.2644 32.042 24.6965 31.9551 25.1312 31.969C25.5428 31.9571 25.9516 32.0395 26.3263 32.21C26.7011 32.3805 27.0318 32.6345 27.2932 32.9526C27.8703 33.6888 28.1639 34.6077 28.1204 35.5421C28.1673 36.5039 27.8607 37.4497 27.2584 38.2011C26.9898 38.5325 26.6485 38.7977 26.2609 38.9761C25.8734 39.1545 25.45 39.2414 25.0235 39.2299ZM25.0861 33.3419C24.852 33.3362 24.6203 33.3907 24.4134 33.5002C24.2064 33.6098 24.0311 33.7707 23.9043 33.9676C23.5899 34.4587 23.4379 35.0363 23.4698 35.6186C23.4382 36.1975 23.5903 36.7717 23.9043 37.2591C24.0291 37.4486 24.1996 37.6037 24.4 37.71C24.6005 37.8163 24.8244 37.8704 25.0513 37.8674C25.2781 37.8725 25.5026 37.8211 25.7046 37.718C25.9066 37.6149 26.0798 37.4632 26.2087 37.2765C26.5185 36.7902 26.6669 36.2185 26.6328 35.6429C26.6685 35.0494 26.523 34.4591 26.2157 33.9502C26.0964 33.7595 25.9294 33.6032 25.7314 33.4965C25.5333 33.3899 25.3109 33.3366 25.0861 33.3419Z" fill="#371400"/>
<path d="M32.4197 33.3906H30.2126V35.1111H32.2459V36.3902H30.2126V39.1083H28.8223V32.115H32.4475L32.4197 33.3906Z" fill="#371400"/>
<path d="M36.7127 33.3906H34.5056V35.1111H36.5389V36.3902H34.5056V39.1083H33.1152V32.115H36.7405L36.7127 33.3906Z" fill="#371400"/>
<path d="M41.1435 39.1083H37.3896V32.115H41.0045V33.401H38.8078V34.9582H40.8585V36.2373H38.8078V37.8327H41.1539L41.1435 39.1083Z" fill="#371400"/>
<path d="M47.0455 39.1187H45.4258L44.4561 37.3287C44.3831 37.1931 44.3136 37.068 44.2475 36.9637C44.185 36.8677 44.1177 36.7749 44.0459 36.6857C43.9865 36.6139 43.9132 36.5548 43.8304 36.5119C43.7556 36.472 43.6719 36.4517 43.5871 36.4528H43.2048V39.1361H41.8145V32.115H44.0459C45.5683 32.115 46.3226 32.7476 46.3226 34.0163C46.3246 34.2463 46.2894 34.4752 46.2183 34.694C46.1523 34.8929 46.0562 35.0805 45.9333 35.2502C45.8108 35.4173 45.6602 35.5619 45.4884 35.6777C45.3096 35.8001 45.1141 35.8961 44.9079 35.9627C45.005 36 45.0954 36.0529 45.1755 36.1191C45.2703 36.1955 45.3555 36.283 45.4293 36.3798C45.5057 36.4736 45.5857 36.5779 45.6621 36.6926C45.7386 36.8073 45.8012 36.9185 45.8637 37.0228L47.0455 39.1187ZM43.2048 33.2968V35.2432H43.8096C43.9459 35.2503 44.0822 35.2275 44.2089 35.1765C44.3356 35.1255 44.4496 35.0474 44.5429 34.9478C44.7284 34.7479 44.8282 34.4834 44.821 34.2109C44.821 33.5992 44.4908 33.2898 43.8374 33.2898L43.2048 33.2968Z" fill="#371400"/>
<path d="M25.0235 39.2299C24.6088 39.2419 24.1967 39.1599 23.8181 38.9902C23.4395 38.8204 23.1042 38.5673 22.8372 38.2497C22.2491 37.5321 21.9481 36.6218 21.9926 35.695C21.949 34.7267 22.2535 33.7748 22.8511 33.0117C23.125 32.6738 23.4733 32.4038 23.8689 32.2229C24.2644 32.042 24.6965 31.9551 25.1312 31.969C25.5428 31.9571 25.9516 32.0395 26.3263 32.21C26.7011 32.3805 27.0318 32.6345 27.2932 32.9526C27.8703 33.6888 28.1639 34.6077 28.1204 35.5421C28.1673 36.5039 27.8607 37.4497 27.2584 38.2011C26.9898 38.5325 26.6485 38.7977 26.2609 38.9761C25.8734 39.1545 25.45 39.2414 25.0235 39.2299ZM25.0861 33.3419C24.852 33.3362 24.6203 33.3907 24.4134 33.5002C24.2064 33.6098 24.0311 33.7707 23.9043 33.9676C23.5899 34.4587 23.4379 35.0363 23.4698 35.6186C23.4382 36.1975 23.5903 36.7717 23.9043 37.2591C24.0291 37.4486 24.1996 37.6037 24.4 37.71C24.6005 37.8163 24.8244 37.8704 25.0513 37.8674C25.2781 37.8725 25.5026 37.8211 25.7046 37.718C25.9066 37.6149 26.0798 37.4632 26.2087 37.2765C26.5185 36.7902 26.6669 36.2185 26.6328 35.6429C26.6685 35.0494 26.523 34.4591 26.2157 33.9502C26.0964 33.7595 25.9294 33.6032 25.7314 33.4965C25.5333 33.3899 25.3109 33.3366 25.0861 33.3419Z" fill="#371400"/>
<path d="M32.4197 33.3906H30.2126V35.1111H32.2459V36.3902H30.2126V39.1083H28.8223V32.115H32.4475L32.4197 33.3906Z" fill="#371400"/>
<path d="M36.7127 33.3906H34.5056V35.1111H36.5389V36.3902H34.5056V39.1083H33.1152V32.115H36.7405L36.7127 33.3906Z" fill="#371400"/>
<path d="M41.1435 39.1083H37.3896V32.115H41.0045V33.401H38.8078V34.9582H40.8585V36.2373H38.8078V37.8327H41.1539L41.1435 39.1083Z" fill="#371400"/>
<path d="M47.0455 39.1187H45.4258L44.4561 37.3287C44.3831 37.1931 44.3136 37.068 44.2475 36.9637C44.185 36.8677 44.1177 36.7749 44.0459 36.6857C43.9865 36.6139 43.9132 36.5548 43.8304 36.5119C43.7556 36.472 43.6719 36.4517 43.5871 36.4528H43.2048V39.1361H41.8145V32.115H44.0459C45.5683 32.115 46.3226 32.7476 46.3226 34.0163C46.3246 34.2463 46.2894 34.4752 46.2183 34.694C46.1523 34.8929 46.0562 35.0805 45.9333 35.2502C45.8108 35.4173 45.6602 35.5619 45.4884 35.6777C45.3096 35.8001 45.1141 35.8961 44.9079 35.9627C45.005 36 45.0954 36.0529 45.1755 36.1191C45.2703 36.1955 45.3555 36.283 45.4293 36.3798C45.5057 36.4736 45.5857 36.5779 45.6621 36.6926C45.7386 36.8073 45.8012 36.9185 45.8637 37.0228L47.0455 39.1187ZM43.2048 33.2968V35.2432H43.8096C43.9459 35.2503 44.0822 35.2275 44.2089 35.1765C44.3356 35.1255 44.4496 35.0474 44.5429 34.9478C44.7284 34.7479 44.8282 34.4834 44.821 34.2109C44.821 33.5992 44.4908 33.2898 43.8374 33.2898L43.2048 33.2968Z" fill="#371400"/>
<path d="M25.0235 39.2299C24.6088 39.2419 24.1967 39.1599 23.8181 38.9902C23.4395 38.8204 23.1042 38.5673 22.8372 38.2497C22.2491 37.5321 21.9481 36.6218 21.9926 35.695C21.949 34.7267 22.2535 33.7748 22.8511 33.0117C23.125 32.6738 23.4733 32.4038 23.8689 32.2229C24.2644 32.042 24.6965 31.9551 25.1312 31.969C25.5428 31.9571 25.9516 32.0395 26.3263 32.21C26.7011 32.3805 27.0318 32.6345 27.2932 32.9526C27.8703 33.6888 28.1639 34.6077 28.1204 35.5421C28.1673 36.5039 27.8607 37.4497 27.2584 38.2011C26.9898 38.5325 26.6485 38.7977 26.2609 38.9761C25.8734 39.1545 25.45 39.2414 25.0235 39.2299ZM25.0861 33.3419C24.852 33.3362 24.6203 33.3907 24.4134 33.5002C24.2064 33.6098 24.0311 33.7707 23.9043 33.9676C23.5899 34.4587 23.4379 35.0363 23.4698 35.6186C23.4382 36.1975 23.5903 36.7717 23.9043 37.2591C24.0291 37.4486 24.1996 37.6037 24.4 37.71C24.6005 37.8163 24.8244 37.8704 25.0513 37.8674C25.2781 37.8725 25.5026 37.8211 25.7046 37.718C25.9066 37.6149 26.0798 37.4632 26.2087 37.2765C26.5185 36.7902 26.6669 36.2185 26.6328 35.6429C26.6685 35.0494 26.523 34.4591 26.2157 33.9502C26.0964 33.7595 25.9294 33.6032 25.7314 33.4965C25.5333 33.3899 25.3109 33.3366 25.0861 33.3419Z" fill="#371400"/>
<path d="M32.4197 33.3906H30.2126V35.1111H32.2459V36.3902H30.2126V39.1083H28.8223V32.115H32.4475L32.4197 33.3906Z" fill="#371400"/>
<path d="M36.7127 33.3906H34.5056V35.1111H36.5389V36.3902H34.5056V39.1083H33.1152V32.115H36.7405L36.7127 33.3906Z" fill="#371400"/>
<path d="M41.1435 39.1083H37.3896V32.115H41.0045V33.401H38.8078V34.9582H40.8585V36.2373H38.8078V37.8327H41.1539L41.1435 39.1083Z" fill="#371400"/>
<path d="M47.0455 39.1187H45.4258L44.4561 37.3287C44.3831 37.1931 44.3136 37.068 44.2475 36.9637C44.185 36.8677 44.1177 36.7749 44.0459 36.6857C43.9865 36.6139 43.9132 36.5548 43.8304 36.5119C43.7556 36.472 43.6719 36.4517 43.5871 36.4528H43.2048V39.1361H41.8145V32.115H44.0459C45.5683 32.115 46.3226 32.7476 46.3226 34.0163C46.3246 34.2463 46.2894 34.4752 46.2183 34.694C46.1523 34.8929 46.0562 35.0805 45.9333 35.2502C45.8108 35.4173 45.6602 35.5619 45.4884 35.6777C45.3096 35.8001 45.1141 35.8961 44.9079 35.9627C45.005 36 45.0954 36.0529 45.1755 36.1191C45.2703 36.1955 45.3555 36.283 45.4293 36.3798C45.5057 36.4736 45.5857 36.5779 45.6621 36.6926C45.7386 36.8073 45.8012 36.9185 45.8637 37.0228L47.0455 39.1187ZM43.2048 33.2968V35.2432H43.8096C43.9459 35.2503 44.0822 35.2275 44.2089 35.1765C44.3356 35.1255 44.4496 35.0474 44.5429 34.9478C44.7284 34.7479 44.8282 34.4834 44.821 34.2109C44.821 33.5992 44.4908 33.2898 43.8374 33.2898L43.2048 33.2968Z" fill="#371400"/>
<path d="M13.7548 30.3701L15.677 30.9923L17.248 36.5814L9.0625 32.1323L13.7548 30.3701Z" fill="#000033"/>
<path d="M8.08887 21.635L40.5459 18.6284L41.5156 29.1358L9.06209 32.1319L8.08887 21.635Z" fill="#371400"/>
<path d="M12.8405 29.2207L12.771 28.4387C12.8653 28.5115 12.9652 28.5766 13.0699 28.6333C13.1829 28.6837 13.299 28.7266 13.4175 28.7619C13.5317 28.7927 13.6478 28.8159 13.7651 28.8314C13.8808 28.8402 13.997 28.8402 14.1127 28.8314C14.395 28.8258 14.6661 28.7198 14.8774 28.5325C14.9585 28.442 15.0184 28.3344 15.0526 28.2178C15.0869 28.1011 15.0947 27.9783 15.0755 27.8582C15.0651 27.7198 15.0236 27.5855 14.9538 27.4655C14.8806 27.3566 14.7902 27.2604 14.6862 27.1804C14.5663 27.09 14.4383 27.0109 14.3038 26.9441C14.1648 26.8746 13.998 26.7981 13.8242 26.7182C13.6504 26.6382 13.4766 26.5444 13.3202 26.4575C13.1699 26.3733 13.0299 26.2718 12.9031 26.1551C12.7827 26.0395 12.6828 25.9044 12.6077 25.7554C12.5275 25.5858 12.4781 25.4034 12.4617 25.2166C12.435 24.9986 12.4594 24.7774 12.533 24.5705C12.6066 24.3635 12.7273 24.1766 12.8857 24.0244C13.0359 23.8868 13.2103 23.7784 13.4001 23.7046C13.5941 23.624 13.7992 23.5736 14.0084 23.5552C14.3672 23.4981 14.7345 23.534 15.0755 23.6595L15.145 24.4068C14.8074 24.1923 14.4042 24.106 14.0084 24.1635C13.8834 24.1713 13.7603 24.1983 13.6434 24.2434C13.5252 24.2826 13.4155 24.344 13.3202 24.4241C13.2297 24.5035 13.1563 24.6005 13.1047 24.7092C13.0504 24.8362 13.0324 24.9757 13.0526 25.1123C13.0656 25.2337 13.1009 25.3515 13.1568 25.4599C13.2114 25.5678 13.2913 25.6608 13.3897 25.731C13.4957 25.8186 13.6126 25.8922 13.7373 25.95C13.8728 26.0161 14.0293 26.096 14.2135 26.1759C14.3977 26.2559 14.5611 26.3497 14.7348 26.4436C14.8944 26.536 15.0425 26.6468 15.1763 26.7738C15.3058 26.8945 15.415 27.0353 15.4995 27.1909C15.5902 27.3607 15.6435 27.5479 15.6559 27.7401C15.6847 27.9826 15.6585 28.2285 15.5795 28.4595C15.5047 28.6524 15.3856 28.8251 15.2319 28.9635C15.0808 29.1052 14.9005 29.212 14.7036 29.2763C14.4928 29.351 14.2731 29.3977 14.0501 29.4154C13.9702 29.4154 13.8763 29.4154 13.7616 29.4154C13.645 29.4133 13.5288 29.4016 13.414 29.3806C13.2971 29.3635 13.181 29.3403 13.0665 29.3111C12.9887 29.2874 12.9131 29.2572 12.8405 29.2207Z" fill="white"/>
<path d="M17.1536 26.9022L17.3517 29.0398L16.7782 29.0919L16.2568 23.4438L17.595 23.3221C17.8151 23.2871 18.04 23.2984 18.2555 23.3553C18.4709 23.4121 18.6722 23.5133 18.8463 23.6523C19.0127 23.8071 19.1466 23.9935 19.2403 24.2005C19.334 24.4076 19.3856 24.6312 19.392 24.8584C19.4265 25.0961 19.4136 25.3383 19.3539 25.571C19.2942 25.8037 19.1891 26.0222 19.0444 26.214C18.895 26.4033 18.7065 26.5582 18.4918 26.668C18.277 26.7777 18.0411 26.8399 17.8001 26.8501L17.1536 26.9022ZM16.8825 23.9895L17.098 26.3044L17.6993 26.2487C17.8642 26.2474 18.0269 26.2111 18.1767 26.1422C18.3265 26.0733 18.46 25.9734 18.5683 25.849C18.6663 25.7208 18.7369 25.5738 18.7758 25.4172C18.8146 25.2605 18.8209 25.0975 18.7942 24.9384C18.7246 24.1911 18.3075 23.8539 17.5498 23.92L16.8825 23.9895Z" fill="white"/>
<path d="M23.2543 28.491L20.6718 28.7274L20.1504 23.0792L22.6182 22.8533L22.6703 23.4546L20.7656 23.6249L20.9429 25.5053L22.6808 25.3385L22.7294 25.9294L20.9915 26.0927L21.1723 28.067L23.1778 27.8828L23.2543 28.491Z" fill="white"/>
<path d="M27.4734 27.8581C27.0896 28.1326 26.6344 28.2896 26.163 28.3099C25.8445 28.3508 25.5208 28.3154 25.2186 28.2067C24.9164 28.0979 24.6445 27.9188 24.4251 27.6843C23.933 27.1375 23.6446 26.4378 23.6083 25.7031C23.4972 24.9171 23.6764 24.1176 24.1123 23.4543C24.3008 23.1684 24.5524 22.9296 24.8476 22.756C25.1429 22.5825 25.4739 22.4789 25.8154 22.4532C26.2085 22.4017 26.6082 22.4471 26.9798 22.5853L27.0493 23.2805C26.6854 23.0923 26.2759 23.0104 25.8676 23.0441C25.606 23.0633 25.3525 23.1434 25.1274 23.278C24.9023 23.4126 24.7118 23.5979 24.5711 23.8192C24.2547 24.3563 24.132 24.9857 24.2235 25.6023C24.2487 26.1931 24.4757 26.7574 24.8665 27.2012C25.0352 27.3827 25.2442 27.522 25.4767 27.6078C25.7091 27.6935 25.9586 27.7233 26.2047 27.6947C26.6578 27.6648 27.0898 27.492 27.4386 27.2012L27.4734 27.8581Z" fill="white"/>
<path d="M29.0131 22.2607L29.0652 22.8238L28.589 22.869L29.0026 27.3875L29.4823 27.3424L29.5344 27.9089L28.0155 28.0445L27.9599 27.4814L28.4395 27.4397L28.0224 22.9211L27.5428 22.9629L27.4941 22.3998L29.0131 22.2607Z" fill="white"/>
<path d="M34.1058 27.4813L33.4732 27.5439L32.8128 26.0075L30.7517 26.1987L30.4041 27.8219L29.7715 27.881L31.1201 22.0695L31.711 22.0173L34.1058 27.4813ZM32.566 25.434L31.5858 23.0948C31.5379 22.9732 31.5007 22.8476 31.4746 22.7194H31.4538C31.4491 22.8477 31.4352 22.9755 31.4121 23.1018L30.8837 25.58L32.566 25.434Z" fill="white"/>
<path d="M37.345 27.1908L34.8251 27.4237L34.3037 21.7755L34.8807 21.7234L35.3465 26.7702L37.3033 26.5895L37.345 27.1908Z" fill="white"/>
</svg>
