<svg width="44" height="13" viewBox="0 0 44 13" fill="none" xmlns="http://www.w3.org/2000/svg">
<path d="M41.9337 2.33813H1.99678C1.53586 2.33813 1.09382 2.52124 0.767899 2.84716C0.44198 3.17308 0.258876 3.61512 0.258876 4.07603V11.2119C0.256579 11.4415 0.299834 11.6694 0.386142 11.8823C0.472451 12.0951 0.600096 12.2888 0.761704 12.452C0.923313 12.6152 1.11568 12.7448 1.32767 12.8332C1.53966 12.9216 1.76708 12.9671 1.99678 12.9671H41.9337C42.1634 12.9671 42.3908 12.9216 42.6028 12.8332C42.8148 12.7448 43.0072 12.6152 43.1688 12.452C43.3304 12.2888 43.4581 12.0951 43.5444 11.8823C43.6307 11.6694 43.6739 11.4415 43.6716 11.2119V4.08994C43.6735 3.86055 43.6299 3.63307 43.5433 3.42061C43.4568 3.20815 43.3291 3.01492 43.1675 2.85207C43.006 2.68921 42.8138 2.55995 42.602 2.47174C42.3902 2.38354 42.1631 2.33813 41.9337 2.33813Z" fill="#000033"/>
<path d="M41.9337 0.676758H1.99678C1.76708 0.676746 1.53966 0.722274 1.32767 0.810696C1.11568 0.899119 0.923313 1.02869 0.761704 1.19191C0.600096 1.35514 0.472451 1.54878 0.386142 1.76164C0.299834 1.9745 0.256579 2.20236 0.258876 2.43204V9.56786C0.258876 10.0288 0.44198 10.4708 0.767899 10.7967C1.09382 11.1227 1.53586 11.3058 1.99678 11.3058H41.9337C42.3946 11.3058 42.8367 11.1227 43.1626 10.7967C43.4885 10.4708 43.6716 10.0288 43.6716 9.56786V2.43204C43.6739 2.20236 43.6307 1.9745 43.5444 1.76164C43.4581 1.54878 43.3304 1.35514 43.1688 1.19191C43.0072 1.02869 42.8148 0.899119 42.6028 0.810696C42.3908 0.722274 42.1634 0.676746 41.9337 0.676758Z" fill="#011F37"/>
<path d="M26.8596 8.2888C26.5958 8.29501 26.334 8.24203 26.0934 8.13376C25.8528 8.02549 25.6395 7.86468 25.4692 7.66315C25.0991 7.20511 24.9077 6.62839 24.9305 6.03995C24.9019 5.42136 25.0968 4.81311 25.4796 4.32638C25.6556 4.11461 25.8777 3.94594 26.129 3.83328C26.3802 3.72061 26.6539 3.66695 26.9291 3.6764C27.1931 3.6659 27.456 3.71659 27.6971 3.82453C27.9383 3.93246 28.1513 4.0947 28.3194 4.29858C28.6684 4.78764 28.8545 5.37418 28.8514 5.97499C28.8483 6.57579 28.656 7.16035 28.302 7.64577C28.1283 7.85798 27.9075 8.02664 27.657 8.13829C27.4066 8.24994 27.1335 8.30148 26.8596 8.2888ZM26.8943 4.53493C26.7445 4.53176 26.5963 4.5668 26.4637 4.63673C26.3311 4.70666 26.2186 4.80918 26.1366 4.93464C25.9399 5.2458 25.8429 5.6096 25.8585 5.97738C25.841 6.34537 25.9382 6.7097 26.1366 7.02012C26.2198 7.13706 26.3298 7.2324 26.4574 7.29818C26.585 7.36397 26.7264 7.39829 26.87 7.39829C27.0135 7.39829 27.155 7.36397 27.2826 7.29818C27.4101 7.2324 27.5201 7.13706 27.6034 7.02012C27.8019 6.71004 27.8969 6.34491 27.8745 5.97738C27.8961 5.60033 27.8054 5.22535 27.6138 4.89989C27.5348 4.78294 27.4272 4.68805 27.3013 4.6242C27.1754 4.56034 27.0354 4.52962 26.8943 4.53493Z" fill="white"/>
<path d="M31.5761 4.56974H30.1857V5.66462H31.4822V6.48143H30.1683V8.21933H29.2646V3.75293H31.5761V4.56974Z" fill="white"/>
<path d="M34.3143 4.56974H32.9031V5.66462H34.1996V6.48143H32.9031V8.21933H32.0029V3.75293H34.3143V4.56974Z" fill="white"/>
<path d="M37.1376 8.21926H34.7393V3.74243H37.0437V4.55925H35.6534V5.55332H36.9568V6.37014H35.6534V7.39202H37.148V8.20884L37.1376 8.21926Z" fill="white"/>
<path d="M40.9011 8.21933H39.8584L39.2397 7.07232C39.198 6.98543 39.1528 6.90896 39.1111 6.83944C39.074 6.77659 39.0296 6.71827 38.979 6.66565C38.9425 6.61821 38.8963 6.57911 38.8435 6.55096C38.7948 6.52763 38.741 6.51686 38.687 6.51966H38.4403V8.21933H37.54V3.75293H38.9651C39.9349 3.75293 40.4145 4.1596 40.4145 4.96946C40.4172 5.11671 40.3961 5.26342 40.352 5.40393C40.3122 5.52936 40.2511 5.64695 40.1712 5.75151C40.0915 5.85964 39.9953 5.95463 39.8862 6.03305C39.7726 6.10838 39.65 6.16912 39.5212 6.2138C39.5864 6.23473 39.6459 6.27041 39.695 6.31807C39.7529 6.36899 39.8075 6.42355 39.8584 6.48143C39.9128 6.54303 39.9617 6.60933 40.0044 6.67956L40.1365 6.88811L40.9011 8.21933ZM38.4472 4.51065V5.75499H38.84C38.9273 5.75827 39.0143 5.74292 39.0952 5.70996C39.1761 5.67699 39.2491 5.62717 39.3092 5.56382C39.427 5.43519 39.4894 5.26539 39.483 5.09111C39.483 4.70183 39.2745 4.51065 38.8574 4.51065H38.4472Z" fill="white"/>
<path d="M26.8596 8.2888C26.5958 8.29501 26.334 8.24203 26.0934 8.13376C25.8528 8.02549 25.6395 7.86468 25.4692 7.66315C25.0991 7.20511 24.9077 6.62839 24.9305 6.03995C24.9019 5.42136 25.0968 4.81311 25.4796 4.32638C25.6556 4.11461 25.8777 3.94594 26.129 3.83328C26.3802 3.72061 26.6539 3.66695 26.9291 3.6764C27.1931 3.6659 27.456 3.71659 27.6971 3.82453C27.9383 3.93246 28.1513 4.0947 28.3194 4.29858C28.6684 4.78764 28.8545 5.37418 28.8514 5.97499C28.8483 6.57579 28.656 7.16035 28.302 7.64577C28.1283 7.85798 27.9075 8.02664 27.657 8.13829C27.4066 8.24994 27.1335 8.30148 26.8596 8.2888ZM26.8943 4.53493C26.7445 4.53176 26.5963 4.5668 26.4637 4.63673C26.3311 4.70666 26.2186 4.80918 26.1366 4.93464C25.9399 5.2458 25.8429 5.6096 25.8585 5.97738C25.841 6.34537 25.9382 6.7097 26.1366 7.02012C26.2198 7.13706 26.3298 7.2324 26.4574 7.29818C26.585 7.36397 26.7264 7.39829 26.87 7.39829C27.0135 7.39829 27.155 7.36397 27.2826 7.29818C27.4101 7.2324 27.5201 7.13706 27.6034 7.02012C27.8019 6.71004 27.8969 6.34491 27.8745 5.97738C27.8961 5.60033 27.8054 5.22535 27.6138 4.89989C27.5348 4.78294 27.4272 4.68805 27.3013 4.6242C27.1754 4.56034 27.0354 4.52962 26.8943 4.53493Z" fill="#00F7FF"/>
<path d="M31.5761 4.56974H30.1857V5.66462H31.4822V6.48143H30.1683V8.21933H29.2646V3.75293H31.5761V4.56974Z" fill="#00F7FF"/>
<path d="M34.3143 4.56974H32.9031V5.66462H34.1996V6.48143H32.9031V8.21933H32.0029V3.75293H34.3143V4.56974Z" fill="#00F7FF"/>
<path d="M37.1376 8.21926H34.7393V3.74243H37.0437V4.55925H35.6534V5.55332H36.9568V6.37014H35.6534V7.39202H37.148V8.20884L37.1376 8.21926Z" fill="#00F7FF"/>
<path d="M40.9011 8.21933H39.8584L39.2397 7.07232C39.198 6.98543 39.1528 6.90896 39.1111 6.83944C39.074 6.77659 39.0296 6.71827 38.979 6.66565C38.9425 6.61821 38.8963 6.57911 38.8435 6.55096C38.7948 6.52763 38.741 6.51686 38.687 6.51966H38.4403V8.21933H37.54V3.75293H38.9651C39.9349 3.75293 40.4145 4.1596 40.4145 4.96946C40.4172 5.11671 40.3961 5.26342 40.352 5.40393C40.3122 5.52936 40.2511 5.64695 40.1712 5.75151C40.0915 5.85964 39.9953 5.95463 39.8862 6.03305C39.7726 6.10838 39.65 6.16912 39.5212 6.2138C39.5864 6.23473 39.6459 6.27041 39.695 6.31807C39.7529 6.36899 39.8075 6.42355 39.8584 6.48143C39.9128 6.54303 39.9617 6.60933 40.0044 6.67956L40.1365 6.88811L40.9011 8.21933ZM38.4472 4.51065V5.75499H38.84C38.9273 5.75827 39.0143 5.74292 39.0952 5.70996C39.1761 5.67699 39.2491 5.62717 39.3092 5.56382C39.427 5.43519 39.4894 5.26539 39.483 5.09111C39.483 4.70183 39.2745 4.51065 38.8574 4.51065H38.4472Z" fill="#00F7FF"/>
<path d="M26.8596 8.2888C26.5958 8.29501 26.334 8.24203 26.0934 8.13376C25.8528 8.02549 25.6395 7.86468 25.4692 7.66315C25.0991 7.20511 24.9077 6.62839 24.9305 6.03995C24.9019 5.42136 25.0968 4.81311 25.4796 4.32638C25.6556 4.11461 25.8777 3.94594 26.129 3.83328C26.3802 3.72061 26.6539 3.66695 26.9291 3.6764C27.1931 3.6659 27.456 3.71659 27.6971 3.82453C27.9383 3.93246 28.1513 4.0947 28.3194 4.29858C28.6684 4.78764 28.8545 5.37418 28.8514 5.97499C28.8483 6.57579 28.656 7.16035 28.302 7.64577C28.1283 7.85798 27.9075 8.02664 27.657 8.13829C27.4066 8.24994 27.1335 8.30148 26.8596 8.2888ZM26.8943 4.53493C26.7445 4.53176 26.5963 4.5668 26.4637 4.63673C26.3311 4.70666 26.2186 4.80918 26.1366 4.93464C25.9399 5.2458 25.8429 5.6096 25.8585 5.97738C25.841 6.34537 25.9382 6.7097 26.1366 7.02012C26.2198 7.13706 26.3298 7.2324 26.4574 7.29818C26.585 7.36397 26.7264 7.39829 26.87 7.39829C27.0135 7.39829 27.155 7.36397 27.2826 7.29818C27.4101 7.2324 27.5201 7.13706 27.6034 7.02012C27.8019 6.71004 27.8969 6.34491 27.8745 5.97738C27.8961 5.60033 27.8054 5.22535 27.6138 4.89989C27.5348 4.78294 27.4272 4.68805 27.3013 4.6242C27.1754 4.56034 27.0354 4.52962 26.8943 4.53493Z" fill="#00F7FF"/>
<path d="M31.5761 4.56974H30.1857V5.66462H31.4822V6.48143H30.1683V8.21933H29.2646V3.75293H31.5761V4.56974Z" fill="#00F7FF"/>
<path d="M34.3143 4.56974H32.9031V5.66462H34.1996V6.48143H32.9031V8.21933H32.0029V3.75293H34.3143V4.56974Z" fill="#00F7FF"/>
<path d="M37.1376 8.21926H34.7393V3.74243H37.0437V4.55925H35.6534V5.55332H36.9568V6.37014H35.6534V7.39202H37.148V8.20884L37.1376 8.21926Z" fill="#00F7FF"/>
<path d="M40.9011 8.21933H39.8584L39.2397 7.07232C39.198 6.98543 39.1528 6.90896 39.1111 6.83944C39.074 6.77659 39.0296 6.71827 38.979 6.66565C38.9425 6.61821 38.8963 6.57911 38.8435 6.55096C38.7948 6.52763 38.741 6.51686 38.687 6.51966H38.4403V8.21933H37.54V3.75293H38.9651C39.9349 3.75293 40.4145 4.1596 40.4145 4.96946C40.4172 5.11671 40.3961 5.26342 40.352 5.40393C40.3122 5.52936 40.2511 5.64695 40.1712 5.75151C40.0915 5.85964 39.9953 5.95463 39.8862 6.03305C39.7726 6.10838 39.65 6.16912 39.5212 6.2138C39.5864 6.23473 39.6459 6.27041 39.695 6.31807C39.7529 6.36899 39.8075 6.42355 39.8584 6.48143C39.9128 6.54303 39.9617 6.60933 40.0044 6.67956L40.1365 6.88811L40.9011 8.21933ZM38.4472 4.51065V5.75499H38.84C38.9273 5.75827 39.0143 5.74292 39.0952 5.70996C39.1761 5.67699 39.2491 5.62717 39.3092 5.56382C39.427 5.43519 39.4894 5.26539 39.483 5.09111C39.483 4.70183 39.2745 4.51065 38.8574 4.51065H38.4472Z" fill="#00F7FF"/>
<path d="M26.8596 8.2888C26.5958 8.29501 26.334 8.24203 26.0934 8.13376C25.8528 8.02549 25.6395 7.86468 25.4692 7.66315C25.0991 7.20511 24.9077 6.62839 24.9305 6.03995C24.9019 5.42136 25.0968 4.81311 25.4796 4.32638C25.6556 4.11461 25.8777 3.94594 26.129 3.83328C26.3802 3.72061 26.6539 3.66695 26.9291 3.6764C27.1931 3.6659 27.456 3.71659 27.6971 3.82453C27.9383 3.93246 28.1513 4.0947 28.3194 4.29858C28.6684 4.78764 28.8545 5.37418 28.8514 5.97499C28.8483 6.57579 28.656 7.16035 28.302 7.64577C28.1283 7.85798 27.9075 8.02664 27.657 8.13829C27.4066 8.24994 27.1335 8.30148 26.8596 8.2888ZM26.8943 4.53493C26.7445 4.53176 26.5963 4.5668 26.4637 4.63673C26.3311 4.70666 26.2186 4.80918 26.1366 4.93464C25.9399 5.2458 25.8429 5.6096 25.8585 5.97738C25.841 6.34537 25.9382 6.7097 26.1366 7.02012C26.2198 7.13706 26.3298 7.2324 26.4574 7.29818C26.585 7.36397 26.7264 7.39829 26.87 7.39829C27.0135 7.39829 27.155 7.36397 27.2826 7.29818C27.4101 7.2324 27.5201 7.13706 27.6034 7.02012C27.8019 6.71004 27.8969 6.34491 27.8745 5.97738C27.8961 5.60033 27.8054 5.22535 27.6138 4.89989C27.5348 4.78294 27.4272 4.68805 27.3013 4.6242C27.1754 4.56034 27.0354 4.52962 26.8943 4.53493Z" fill="#00F7FF"/>
<path d="M31.5761 4.56974H30.1857V5.66462H31.4822V6.48143H30.1683V8.21933H29.2646V3.75293H31.5761V4.56974Z" fill="#00F7FF"/>
<path d="M34.3143 4.56974H32.9031V5.66462H34.1996V6.48143H32.9031V8.21933H32.0029V3.75293H34.3143V4.56974Z" fill="#00F7FF"/>
<path d="M37.1376 8.21926H34.7393V3.74243H37.0437V4.55925H35.6534V5.55332H36.9568V6.37014H35.6534V7.39202H37.148V8.20884L37.1376 8.21926Z" fill="#00F7FF"/>
<path d="M40.9011 8.21933H39.8584L39.2397 7.07232C39.198 6.98543 39.1528 6.90896 39.1111 6.83944C39.074 6.77659 39.0296 6.71827 38.979 6.66565C38.9425 6.61821 38.8963 6.57911 38.8435 6.55096C38.7948 6.52763 38.741 6.51686 38.687 6.51966H38.4403V8.21933H37.54V3.75293H38.9651C39.9349 3.75293 40.4145 4.1596 40.4145 4.96946C40.4172 5.11671 40.3961 5.26342 40.352 5.40393C40.3122 5.52936 40.2511 5.64695 40.1712 5.75151C40.0915 5.85964 39.9953 5.95463 39.8862 6.03305C39.7726 6.10838 39.65 6.16912 39.5212 6.2138C39.5864 6.23473 39.6459 6.27041 39.695 6.31807C39.7529 6.36899 39.8075 6.42355 39.8584 6.48143C39.9128 6.54303 39.9617 6.60933 40.0044 6.67956L40.1365 6.88811L40.9011 8.21933ZM38.4472 4.51065V5.75499H38.84C38.9273 5.75827 39.0143 5.74292 39.0952 5.70996C39.1761 5.67699 39.2491 5.62717 39.3092 5.56382C39.427 5.43519 39.4894 5.26539 39.483 5.09111C39.483 4.70183 39.2745 4.51065 38.8574 4.51065H38.4472Z" fill="#00F7FF"/>
<path d="M3.4043 8.02814V7.41988C3.46728 7.48512 3.53997 7.54023 3.61979 7.58324C3.70315 7.63195 3.79033 7.6738 3.88048 7.70837C3.97246 7.7403 4.06655 7.76585 4.16204 7.78483C4.24792 7.80196 4.33517 7.81126 4.42272 7.81264C4.63847 7.8275 4.85257 7.76598 5.02751 7.63885C5.09583 7.57462 5.14927 7.49623 5.1841 7.40917C5.21892 7.32211 5.23427 7.22849 5.22909 7.13486C5.23114 7.02543 5.20734 6.91705 5.15959 6.81856C5.11337 6.72896 5.05224 6.64786 4.97884 6.57873C4.89064 6.50344 4.79777 6.43378 4.70078 6.37018C4.59303 6.29719 4.47138 6.23115 4.3532 6.16163L3.97781 5.92528C3.86867 5.85127 3.7694 5.76368 3.68238 5.66459C3.59641 5.56778 3.52922 5.45581 3.48425 5.3344C3.43087 5.19969 3.40716 5.05506 3.41473 4.91035C3.4075 4.74047 3.44058 4.57129 3.51126 4.41664C3.58194 4.26198 3.68821 4.12626 3.8214 4.02055C3.94975 3.92353 4.0946 3.85052 4.24893 3.80504C4.40529 3.75644 4.56835 3.73299 4.73205 3.73553C5.01439 3.7162 5.29695 3.77007 5.55236 3.89193V4.47588C5.30584 4.28697 5.00062 4.19098 4.69035 4.20477C4.59075 4.20299 4.49138 4.21467 4.39491 4.23951C4.3016 4.26109 4.21317 4.3 4.13423 4.35422C4.05639 4.40581 3.99297 4.47639 3.95 4.55929C3.90383 4.65462 3.88005 4.75924 3.88048 4.86517C3.87811 4.96646 3.89707 5.06711 3.9361 5.16061C3.97269 5.24558 4.02587 5.32238 4.09252 5.38654C4.17282 5.46083 4.26012 5.52718 4.3532 5.58466L4.70078 5.79668C4.83213 5.86961 4.95867 5.95089 5.07963 6.03999C5.19897 6.12098 5.30758 6.21674 5.40288 6.32499C5.49779 6.42485 5.57114 6.54316 5.61838 6.67257C5.67446 6.81041 5.70168 6.95828 5.69834 7.10705C5.70515 7.29632 5.66703 7.48453 5.58711 7.65623C5.51549 7.79248 5.4146 7.91118 5.29167 8.00381C5.16584 8.10182 5.01981 8.17068 4.86414 8.2054C4.697 8.24661 4.52533 8.26647 4.3532 8.2645C4.27649 8.26263 4.19991 8.25683 4.12379 8.24711C4.0329 8.23985 3.94314 8.22236 3.85617 8.19498C3.76744 8.17621 3.68029 8.15064 3.59548 8.11851C3.52657 8.10089 3.46165 8.07022 3.4043 8.02814Z" fill="white"/>
<path d="M6.90778 6.54058V8.21939H6.46289V3.79469H7.50563C7.67929 3.78325 7.85342 3.80827 8.01684 3.86813C8.18026 3.92798 8.32934 4.02137 8.45452 4.14227C8.5749 4.2728 8.66772 4.42627 8.72744 4.59348C8.78716 4.7607 8.81255 4.93825 8.8021 5.1155C8.80963 5.49331 8.6686 5.85899 8.40933 6.13391C8.27927 6.26798 8.12204 6.3727 7.94819 6.44104C7.77434 6.50938 7.58789 6.53977 7.40134 6.53015L6.90778 6.54058ZM6.90778 4.27435V6.08177H7.36659C7.49281 6.0894 7.6193 6.07181 7.73865 6.03004C7.858 5.98827 7.96783 5.92314 8.06175 5.83846C8.14848 5.74592 8.21492 5.63629 8.25682 5.51658C8.29872 5.39688 8.31515 5.26973 8.30506 5.1433C8.32105 5.02389 8.30899 4.9024 8.26982 4.78846C8.23066 4.67452 8.16548 4.57128 8.07944 4.48693C7.99341 4.40259 7.8889 4.33946 7.77421 4.30256C7.65952 4.26566 7.53781 4.256 7.41874 4.27435H6.89041H6.90778Z" fill="white"/>
<path d="M11.5026 8.2192H9.49707V3.80493H11.4227V4.27417H9.9385V5.74443H11.3288V6.20324H9.9385V7.73954H11.5026V8.2192Z" fill="white"/>
<path d="M14.8224 8.02805C14.5062 8.2111 14.1448 8.30144 13.7796 8.28874C13.5314 8.29678 13.2847 8.24585 13.06 8.14011C12.8352 8.03437 12.6387 7.87686 12.4866 7.68047C12.1457 7.22314 11.9738 6.66184 12 6.09203C11.9703 5.47541 12.1654 4.86896 12.5492 4.38541C12.7157 4.17787 12.9277 4.01132 13.1687 3.89863C13.4098 3.78594 13.6735 3.73011 13.9395 3.73544C14.2474 3.72415 14.5535 3.78609 14.8328 3.91618V4.46536C14.5636 4.29175 14.2494 4.2011 13.9291 4.20467C13.7251 4.19853 13.5225 4.24103 13.3382 4.32866C13.1538 4.4163 12.993 4.54655 12.869 4.70866C12.5827 5.10085 12.4392 5.57919 12.4623 6.06422C12.4393 6.52344 12.5729 6.97687 12.8412 7.35027C12.9578 7.50411 13.1095 7.62789 13.2836 7.71132C13.4577 7.79475 13.6492 7.83541 13.8422 7.82993C14.1954 7.83929 14.5424 7.7358 14.8328 7.53449V8.02805H14.8224Z" fill="white"/>
<path d="M16.4035 3.80493V4.24983H16.0281V7.76735H16.4035V8.2192H15.2217V7.76735H15.5936V4.24983H15.2217V3.80493H16.4035Z" fill="white"/>
<path d="M19.977 8.21927H19.4799L19.0802 6.98537H17.4744L17.099 8.21927H16.6055L18.0584 3.81543H18.5172L19.977 8.21927ZM18.9343 6.52656L18.3364 4.64963C18.3364 4.59054 18.3017 4.49322 18.2773 4.35419C18.267 4.4546 18.246 4.55364 18.2148 4.64963L17.6239 6.52656H18.9343Z" fill="white"/>
<path d="M22.4967 8.2192H20.5225V3.80493H20.9674V7.73954H22.4863V8.20877L22.4967 8.2192Z" fill="white"/>
</svg>
