<svg width="59" height="59" viewBox="0 0 59 59" fill="none" xmlns="http://www.w3.org/2000/svg">
<rect x="0.929688" y="0.864014" width="57.93" height="57.93" rx="5.75" fill="white"/>
<path d="M29.0658 9.6008L22.7793 18.5989L23.258 18.9333L29.5445 9.93523L29.0658 9.6008Z" fill="#011F37"/>
<path d="M30.1311 9.55729L29.7002 9.95142L38.4038 19.4664L38.8346 19.0722L30.1311 9.55729Z" fill="#011F37"/>
<path d="M30.8883 9.50128C30.8883 9.76609 30.8097 10.0249 30.6625 10.2451C30.5153 10.4652 30.3061 10.6367 30.0614 10.7379C29.8167 10.8391 29.5474 10.8654 29.2877 10.8135C29.0281 10.7616 28.7896 10.6338 28.6026 10.4463C28.4156 10.2588 28.2884 10.02 28.2372 9.76021C28.186 9.50039 28.213 9.23122 28.3148 8.98676C28.4166 8.7423 28.5887 8.53355 28.8092 8.38693C29.0297 8.2403 29.2888 8.1624 29.5536 8.16309C29.7291 8.16309 29.903 8.19773 30.0651 8.26502C30.2273 8.33231 30.3746 8.43094 30.4986 8.55525C30.6226 8.67956 30.7208 8.8271 30.7877 8.98944C30.8546 9.15177 30.8887 9.32571 30.8883 9.50128Z" fill="#011F37"/>
<path d="M29.5531 8.76436C29.7003 8.76091 29.8453 8.80146 29.9694 8.88084C30.0934 8.96021 30.191 9.0748 30.2496 9.20994C30.3083 9.34509 30.3252 9.49465 30.2984 9.63948C30.2715 9.78432 30.2021 9.91785 30.0989 10.023C29.9957 10.1281 29.8635 10.2001 29.7192 10.2297C29.5749 10.2594 29.4251 10.2452 29.2889 10.1892C29.1526 10.1332 29.0362 10.0378 28.9545 9.91525C28.8727 9.79269 28.8294 9.64854 28.8301 9.50124C28.8301 9.30819 28.9058 9.12284 29.041 8.98504C29.1762 8.84725 29.36 8.76801 29.5531 8.76436Z" fill="#00F7FF"/>
<path d="M16.0847 46.3969C14.8482 46.4035 13.6588 45.9228 12.7741 45.0589C11.8893 44.195 11.3805 43.0174 11.3576 41.7811L10.8953 23.4497C10.8782 22.8278 10.9838 22.2086 11.2059 21.6275C11.4281 21.0463 11.7626 20.5147 12.1902 20.0628C12.6179 19.6109 13.1304 19.2477 13.6984 18.9939C14.2664 18.7401 14.8789 18.6007 15.5008 18.5836L43.5435 17.8884C44.1649 17.8695 44.7838 17.9739 45.3646 18.1956C45.9453 18.4174 46.4764 18.7521 46.9269 19.1803C47.3775 19.6086 47.7387 20.122 47.9896 20.6907C48.2406 21.2595 48.3762 21.8723 48.3888 22.4939L48.8511 40.8287C48.881 42.0835 48.4117 43.2989 47.5462 44.208C46.6808 45.1171 45.49 45.6456 44.2352 45.6774L16.2029 46.3969H16.0847ZM43.6617 18.4758H43.5574L15.5182 19.171C14.4192 19.2001 13.3767 19.6641 12.6195 20.4611C11.8623 21.258 11.4522 22.3229 11.4793 23.4219L11.9381 41.7533C11.9687 42.8347 12.4183 43.8619 13.192 44.618C13.9657 45.3742 15.0029 45.8002 16.0847 45.806H16.1855L44.2283 45.0935C44.7728 45.0803 45.3094 44.9599 45.8074 44.7392C46.3053 44.5185 46.755 44.2019 47.1306 43.8075C47.5071 43.414 47.8016 42.9495 47.9967 42.4411C48.1919 41.9327 48.2838 41.3904 48.2672 40.8461L47.8083 22.5112C47.7838 21.4294 47.3355 20.4005 46.56 19.6458C45.7845 18.8911 44.7438 18.471 43.6617 18.4758Z" fill="#011F37"/>
<path d="M41.7082 17.7912L15.1601 20.756C14.0504 20.8843 13.0368 21.4473 12.3416 22.3217C11.6463 23.1961 11.3262 24.3105 11.4514 25.4205L13.3874 42.7752C13.4488 43.3266 13.6183 43.8604 13.8862 44.3462C14.1541 44.832 14.5152 45.2602 14.9487 45.6062C15.3823 45.9523 15.8799 46.2095 16.413 46.3631C16.946 46.5167 17.5042 46.5636 18.0554 46.5013L44.6036 43.5399C45.1549 43.4785 45.6888 43.309 46.1745 43.0411C46.6603 42.7732 47.0885 42.4121 47.4346 41.9785C47.7807 41.545 48.0379 41.0474 48.1914 40.5143C48.345 39.9813 48.392 39.4231 48.3296 38.8719L46.3936 21.5172C46.3323 20.9642 46.1623 20.4288 45.8932 19.9418C45.6242 19.4548 45.2615 19.0258 44.8261 18.6795C44.3906 18.3332 43.8909 18.0764 43.3559 17.9239C42.8208 17.7715 42.2608 17.7264 41.7082 17.7912Z" fill="#00F7FF"/>
<path d="M20.1412 42.4275C19.6574 42.4962 19.1642 42.4544 18.6988 42.3051C18.2334 42.1558 17.808 41.9029 17.4544 41.5655C16.6749 40.8057 16.2044 39.7842 16.1336 38.6979C15.9487 37.5721 16.1784 36.4174 16.7801 35.4481C17.0575 35.0209 17.43 34.6638 17.8684 34.4045C18.3067 34.1452 18.7991 33.9908 19.307 33.9535C19.7863 33.8868 20.2744 33.9294 20.7349 34.078C21.1954 34.2267 21.6163 34.4776 21.966 34.812C22.7389 35.5973 23.2018 36.6354 23.2695 37.7351C23.4493 38.8528 23.217 39.9978 22.616 40.9572C22.3418 41.3737 21.9766 41.7225 21.5479 41.9772C21.1191 42.2319 20.6382 42.3859 20.1412 42.4275ZM19.4461 35.5454C19.1729 35.5674 18.9099 35.6596 18.6828 35.8131C18.4557 35.9665 18.272 36.176 18.1496 36.4213C17.8484 37.0352 17.7451 37.7274 17.8542 38.4025C17.8921 39.0864 18.1451 39.7409 18.5771 40.2725C18.7529 40.4711 18.9736 40.6248 19.2209 40.7207C19.4681 40.8166 19.7348 40.8519 19.9985 40.8237C20.2622 40.7954 20.5153 40.7044 20.7367 40.5584C20.958 40.4123 21.1412 40.2153 21.2709 39.984C21.5687 39.3752 21.6684 38.6885 21.5559 38.0201C21.5199 37.3226 21.278 36.6513 20.8607 36.0911C20.6923 35.8855 20.4734 35.7272 20.2254 35.6316C19.9775 35.5359 19.7089 35.5062 19.4461 35.5454Z" fill="white"/>
<path d="M28.0141 34.6383L25.435 34.9268L25.6575 36.9358L28.0315 36.6751L28.1948 38.1697L25.8243 38.4269L26.1719 41.6072L24.5209 41.7915L23.6172 33.606L27.8507 33.1367L28.0141 34.6383Z" fill="white"/>
<path d="M33.0255 34.0751L30.4464 34.3636L30.6724 36.3691L33.0429 36.1084L33.2097 37.603L30.8357 37.8637L31.1833 41.0441L29.5323 41.2248L28.6182 33.0393L32.8517 32.5701L33.0255 34.0751Z" fill="white"/>
<path d="M38.952 40.1823L34.5655 40.662L33.6514 32.473L37.8675 32.0142L38.0344 33.5192L35.4623 33.8042L35.6639 35.622L38.0517 35.3544L38.2151 36.8386L35.8272 37.1062L36.0358 38.9727L38.7712 38.6703L38.952 40.1823Z" fill="white"/>
<path d="M45.8619 39.4106L43.9675 39.6191L42.5946 37.6379C42.4903 37.4919 42.3965 37.3494 42.2992 37.2382C42.2148 37.1344 42.1243 37.0357 42.028 36.9427C41.9505 36.8686 41.8597 36.8096 41.7604 36.7689C41.6696 36.7341 41.5725 36.7187 41.4754 36.7238L41.0305 36.7794L41.3781 39.9076L39.7271 40.0883L38.8164 31.9028L41.4302 31.6074C43.2029 31.4093 44.1761 32.0488 44.3429 33.5365C44.3762 33.8027 44.3668 34.0726 44.3151 34.3359C44.2668 34.5803 44.1788 34.8152 44.0544 35.031C43.9319 35.2405 43.7757 35.4284 43.5922 35.5872C43.3989 35.7535 43.1823 35.8906 42.9491 35.9939V36.0182C43.0723 36.0488 43.1897 36.0993 43.2967 36.1676C43.4118 36.2505 43.522 36.3398 43.6269 36.4353C43.7312 36.5395 43.8355 36.6542 43.9397 36.7829C44.044 36.9115 44.1309 37.0262 44.2178 37.1304L45.8619 39.4106ZM40.6134 33.1124L40.8671 35.3891L41.5623 35.3091C41.7218 35.2981 41.8772 35.2537 42.0185 35.1788C42.1598 35.104 42.2838 35.0004 42.3826 34.8746C42.477 34.7479 42.5453 34.6037 42.5835 34.4503C42.6217 34.297 42.629 34.1376 42.605 33.9814C42.5286 33.2653 42.101 32.9386 41.3398 33.0325L40.6134 33.1124Z" fill="white"/>
<path d="M20.1412 42.4275C19.6574 42.4962 19.1642 42.4544 18.6988 42.3051C18.2334 42.1558 17.808 41.9029 17.4544 41.5655C16.6749 40.8057 16.2044 39.7842 16.1336 38.6979C15.9487 37.5721 16.1784 36.4174 16.7801 35.4481C17.0575 35.0209 17.43 34.6638 17.8684 34.4045C18.3067 34.1452 18.7991 33.9908 19.307 33.9535C19.7863 33.8868 20.2744 33.9294 20.7349 34.078C21.1954 34.2267 21.6163 34.4776 21.966 34.812C22.7389 35.5973 23.2018 36.6354 23.2695 37.7351C23.4493 38.8528 23.217 39.9978 22.616 40.9572C22.3418 41.3737 21.9766 41.7225 21.5479 41.9772C21.1191 42.2319 20.6382 42.3859 20.1412 42.4275ZM19.4461 35.5454C19.1729 35.5674 18.9099 35.6596 18.6828 35.8131C18.4557 35.9665 18.272 36.176 18.1496 36.4213C17.8484 37.0352 17.7451 37.7274 17.8542 38.4025C17.8921 39.0864 18.1451 39.7409 18.5771 40.2725C18.7529 40.4711 18.9736 40.6248 19.2209 40.7207C19.4681 40.8166 19.7348 40.8519 19.9985 40.8237C20.2622 40.7954 20.5153 40.7044 20.7367 40.5584C20.958 40.4123 21.1412 40.2153 21.2709 39.984C21.5687 39.3752 21.6684 38.6885 21.5559 38.0201C21.5199 37.3226 21.278 36.6513 20.8607 36.0911C20.6923 35.8855 20.4734 35.7272 20.2254 35.6316C19.9775 35.5359 19.7089 35.5062 19.4461 35.5454Z" fill="#011F37"/>
<path d="M28.0141 34.6383L25.435 34.9268L25.6575 36.9358L28.0315 36.6751L28.1948 38.1697L25.8243 38.4269L26.1719 41.6072L24.5209 41.7915L23.6172 33.606L27.8507 33.1367L28.0141 34.6383Z" fill="#011F37"/>
<path d="M33.0255 34.0751L30.4464 34.3636L30.6724 36.3691L33.0429 36.1084L33.2097 37.603L30.8357 37.8637L31.1833 41.0441L29.5323 41.2248L28.6182 33.0393L32.8517 32.5701L33.0255 34.0751Z" fill="#011F37"/>
<path d="M38.952 40.1823L34.5655 40.662L33.6514 32.473L37.8675 32.0142L38.0344 33.5192L35.4623 33.8042L35.6639 35.622L38.0517 35.3544L38.2151 36.8386L35.8272 37.1062L36.0358 38.9727L38.7712 38.6703L38.952 40.1823Z" fill="#011F37"/>
<path d="M45.8619 39.4106L43.9675 39.6191L42.5946 37.6379C42.4903 37.4919 42.3965 37.3494 42.2992 37.2382C42.2148 37.1344 42.1243 37.0357 42.028 36.9427C41.9505 36.8686 41.8597 36.8096 41.7604 36.7689C41.6696 36.7341 41.5725 36.7187 41.4754 36.7238L41.0305 36.7794L41.3781 39.9076L39.7271 40.0883L38.8164 31.9028L41.4302 31.6074C43.2029 31.4093 44.1761 32.0488 44.3429 33.5365C44.3762 33.8027 44.3668 34.0726 44.3151 34.3359C44.2668 34.5803 44.1788 34.8152 44.0544 35.031C43.9319 35.2405 43.7757 35.4284 43.5922 35.5872C43.3989 35.7535 43.1823 35.8906 42.9491 35.9939V36.0182C43.0723 36.0488 43.1897 36.0993 43.2967 36.1676C43.4118 36.2505 43.522 36.3398 43.6269 36.4353C43.7312 36.5395 43.8355 36.6542 43.9397 36.7829C44.044 36.9115 44.1309 37.0262 44.2178 37.1304L45.8619 39.4106ZM40.6134 33.1124L40.8671 35.3891L41.5623 35.3091C41.7218 35.2981 41.8772 35.2537 42.0185 35.1788C42.1598 35.104 42.2838 35.0004 42.3826 34.8746C42.477 34.7479 42.5453 34.6037 42.5835 34.4503C42.6217 34.297 42.629 34.1376 42.605 33.9814C42.5286 33.2653 42.101 32.9386 41.3398 33.0325L40.6134 33.1124Z" fill="#011F37"/>
<path d="M20.1412 42.4275C19.6574 42.4962 19.1642 42.4544 18.6988 42.3051C18.2334 42.1558 17.808 41.9029 17.4544 41.5655C16.6749 40.8057 16.2044 39.7842 16.1336 38.6979C15.9487 37.5721 16.1784 36.4174 16.7801 35.4481C17.0575 35.0209 17.43 34.6638 17.8684 34.4045C18.3067 34.1452 18.7991 33.9908 19.307 33.9535C19.7863 33.8868 20.2744 33.9294 20.7349 34.078C21.1954 34.2267 21.6163 34.4776 21.966 34.812C22.7389 35.5973 23.2018 36.6354 23.2695 37.7351C23.4493 38.8528 23.217 39.9978 22.616 40.9572C22.3418 41.3737 21.9766 41.7225 21.5479 41.9772C21.1191 42.2319 20.6382 42.3859 20.1412 42.4275ZM19.4461 35.5454C19.1729 35.5674 18.9099 35.6596 18.6828 35.8131C18.4557 35.9665 18.272 36.176 18.1496 36.4213C17.8484 37.0352 17.7451 37.7274 17.8542 38.4025C17.8921 39.0864 18.1451 39.7409 18.5771 40.2725C18.7529 40.4711 18.9736 40.6248 19.2209 40.7207C19.4681 40.8166 19.7348 40.8519 19.9985 40.8237C20.2622 40.7954 20.5153 40.7044 20.7367 40.5584C20.958 40.4123 21.1412 40.2153 21.2709 39.984C21.5687 39.3752 21.6684 38.6885 21.5559 38.0201C21.5199 37.3226 21.278 36.6513 20.8607 36.0911C20.6923 35.8855 20.4734 35.7272 20.2254 35.6316C19.9775 35.5359 19.7089 35.5062 19.4461 35.5454Z" fill="#011F37"/>
<path d="M28.0141 34.6383L25.435 34.9268L25.6575 36.9358L28.0315 36.6751L28.1948 38.1697L25.8243 38.4269L26.1719 41.6072L24.5209 41.7915L23.6172 33.606L27.8507 33.1367L28.0141 34.6383Z" fill="#011F37"/>
<path d="M33.0255 34.0751L30.4464 34.3636L30.6724 36.3691L33.0429 36.1084L33.2097 37.603L30.8357 37.8637L31.1833 41.0441L29.5323 41.2248L28.6182 33.0393L32.8517 32.5701L33.0255 34.0751Z" fill="#011F37"/>
<path d="M38.952 40.1823L34.5655 40.662L33.6514 32.473L37.8675 32.0142L38.0344 33.5192L35.4623 33.8042L35.6639 35.622L38.0517 35.3544L38.2151 36.8386L35.8272 37.1062L36.0358 38.9727L38.7712 38.6703L38.952 40.1823Z" fill="#011F37"/>
<path d="M45.8619 39.4106L43.9675 39.6191L42.5946 37.6379C42.4903 37.4919 42.3965 37.3494 42.2992 37.2382C42.2148 37.1344 42.1243 37.0357 42.028 36.9427C41.9505 36.8686 41.8597 36.8096 41.7604 36.7689C41.6696 36.7341 41.5725 36.7187 41.4754 36.7238L41.0305 36.7794L41.3781 39.9076L39.7271 40.0883L38.8164 31.9028L41.4302 31.6074C43.2029 31.4093 44.1761 32.0488 44.3429 33.5365C44.3762 33.8027 44.3668 34.0726 44.3151 34.3359C44.2668 34.5803 44.1788 34.8152 44.0544 35.031C43.9319 35.2405 43.7757 35.4284 43.5922 35.5872C43.3989 35.7535 43.1823 35.8906 42.9491 35.9939V36.0182C43.0723 36.0488 43.1897 36.0993 43.2967 36.1676C43.4118 36.2505 43.522 36.3398 43.6269 36.4353C43.7312 36.5395 43.8355 36.6542 43.9397 36.7829C44.044 36.9115 44.1309 37.0262 44.2178 37.1304L45.8619 39.4106ZM40.6134 33.1124L40.8671 35.3891L41.5623 35.3091C41.7218 35.2981 41.8772 35.2537 42.0185 35.1788C42.1598 35.104 42.2838 35.0004 42.3826 34.8746C42.477 34.7479 42.5453 34.6037 42.5835 34.4503C42.6217 34.297 42.629 34.1376 42.605 33.9814C42.5286 33.2653 42.101 32.9386 41.3398 33.0325L40.6134 33.1124Z" fill="#011F37"/>
<path d="M20.1412 42.4275C19.6574 42.4962 19.1642 42.4544 18.6988 42.3051C18.2334 42.1558 17.808 41.9029 17.4544 41.5655C16.6749 40.8057 16.2044 39.7842 16.1336 38.6979C15.9487 37.5721 16.1784 36.4174 16.7801 35.4481C17.0575 35.0209 17.43 34.6638 17.8684 34.4045C18.3067 34.1452 18.7991 33.9908 19.307 33.9535C19.7863 33.8868 20.2744 33.9294 20.7349 34.078C21.1954 34.2267 21.6163 34.4776 21.966 34.812C22.7389 35.5973 23.2018 36.6354 23.2695 37.7351C23.4493 38.8528 23.217 39.9978 22.616 40.9572C22.3418 41.3737 21.9766 41.7225 21.5479 41.9772C21.1191 42.2319 20.6382 42.3859 20.1412 42.4275ZM19.4461 35.5454C19.1729 35.5674 18.9099 35.6596 18.6828 35.8131C18.4557 35.9665 18.272 36.176 18.1496 36.4213C17.8484 37.0352 17.7451 37.7274 17.8542 38.4025C17.8921 39.0864 18.1451 39.7409 18.5771 40.2725C18.7529 40.4711 18.9736 40.6248 19.2209 40.7207C19.4681 40.8166 19.7348 40.8519 19.9985 40.8237C20.2622 40.7954 20.5153 40.7044 20.7367 40.5584C20.958 40.4123 21.1412 40.2153 21.2709 39.984C21.5687 39.3752 21.6684 38.6885 21.5559 38.0201C21.5199 37.3226 21.278 36.6513 20.8607 36.0911C20.6923 35.8855 20.4734 35.7272 20.2254 35.6316C19.9775 35.5359 19.7089 35.5062 19.4461 35.5454Z" fill="#011F37"/>
<path d="M28.0141 34.6383L25.435 34.9268L25.6575 36.9358L28.0315 36.6751L28.1948 38.1697L25.8243 38.4269L26.1719 41.6072L24.5209 41.7915L23.6172 33.606L27.8507 33.1367L28.0141 34.6383Z" fill="#011F37"/>
<path d="M33.0255 34.0751L30.4464 34.3636L30.6724 36.3691L33.0429 36.1084L33.2097 37.603L30.8357 37.8637L31.1833 41.0441L29.5323 41.2248L28.6182 33.0393L32.8517 32.5701L33.0255 34.0751Z" fill="#011F37"/>
<path d="M38.952 40.1823L34.5655 40.662L33.6514 32.473L37.8675 32.0142L38.0344 33.5192L35.4623 33.8042L35.6639 35.622L38.0517 35.3544L38.2151 36.8386L35.8272 37.1062L36.0358 38.9727L38.7712 38.6703L38.952 40.1823Z" fill="#011F37"/>
<path d="M45.8619 39.4106L43.9675 39.6191L42.5946 37.6379C42.4903 37.4919 42.3965 37.3494 42.2992 37.2382C42.2148 37.1344 42.1243 37.0357 42.028 36.9427C41.9505 36.8686 41.8597 36.8096 41.7604 36.7689C41.6696 36.7341 41.5725 36.7187 41.4754 36.7238L41.0305 36.7794L41.3781 39.9076L39.7271 40.0883L38.8164 31.9028L41.4302 31.6074C43.2029 31.4093 44.1761 32.0488 44.3429 33.5365C44.3762 33.8027 44.3668 34.0726 44.3151 34.3359C44.2668 34.5803 44.1788 34.8152 44.0544 35.031C43.9319 35.2405 43.7757 35.4284 43.5922 35.5872C43.3989 35.7535 43.1823 35.8906 42.9491 35.9939V36.0182C43.0723 36.0488 43.1897 36.0993 43.2967 36.1676C43.4118 36.2505 43.522 36.3398 43.6269 36.4353C43.7312 36.5395 43.8355 36.6542 43.9397 36.7829C44.044 36.9115 44.1309 37.0262 44.2178 37.1304L45.8619 39.4106ZM40.6134 33.1124L40.8671 35.3891L41.5623 35.3091C41.7218 35.2981 41.8772 35.2537 42.0185 35.1788C42.1598 35.104 42.2838 35.0004 42.3826 34.8746C42.477 34.7479 42.5453 34.6037 42.5835 34.4503C42.6217 34.297 42.629 34.1376 42.605 33.9814C42.5286 33.2653 42.101 32.9386 41.3398 33.0325L40.6134 33.1124Z" fill="#011F37"/>
<path d="M15.7367 31.4752L15.6394 30.5819C15.7462 30.6646 15.863 30.7335 15.987 30.787C16.1173 30.8484 16.2536 30.8962 16.3937 30.9295C16.5306 30.9633 16.6701 30.9854 16.8108 30.9955C16.938 31.006 17.0659 31.006 17.1931 30.9955C17.5131 30.9883 17.8195 30.8647 18.0551 30.648C18.1451 30.5423 18.2102 30.4178 18.2457 30.2837C18.2812 30.1496 18.2861 30.0092 18.2602 29.8729C18.2478 29.7161 18.1977 29.5647 18.1142 29.4314C18.0293 29.3065 17.9235 29.1971 17.8014 29.1082C17.6617 29.0082 17.5141 28.9198 17.3599 28.844C17.1931 28.7676 17.0124 28.6807 16.8108 28.5938C16.6148 28.5074 16.4234 28.4111 16.2373 28.3053C16.0616 28.2128 15.9001 28.0958 15.7576 27.9577C15.6229 27.8265 15.506 27.678 15.41 27.5163C15.3164 27.3255 15.2575 27.1195 15.2362 26.908C15.1984 26.6447 15.2258 26.3761 15.3162 26.1259C15.3948 25.905 15.5232 25.7052 15.6916 25.542C15.8604 25.3806 16.0571 25.2511 16.272 25.1597C16.8807 24.9135 17.5552 24.8828 18.1837 25.0728L18.2776 25.9139C17.8893 25.6814 17.4316 25.5928 16.9846 25.6637C16.8432 25.6833 16.7036 25.7147 16.5675 25.7575C16.4388 25.8029 16.3205 25.8739 16.2199 25.9661C16.1147 26.0608 16.0346 26.1803 15.987 26.3136C15.9281 26.4602 15.9101 26.6199 15.9349 26.7759C15.9476 26.923 15.9927 27.0654 16.0669 27.193C16.1338 27.3116 16.225 27.4147 16.3346 27.4954C16.4619 27.5906 16.5981 27.6732 16.7413 27.7422C16.8977 27.8187 17.0888 27.8986 17.2904 27.982C17.492 28.0654 17.6971 28.1767 17.8917 28.2809C18.0765 28.374 18.2483 28.4909 18.4027 28.6285C18.5429 28.7706 18.6601 28.9336 18.7503 29.1117C18.8551 29.3029 18.9201 29.5133 18.9414 29.7303C18.9794 30.0044 18.9557 30.2835 18.8719 30.5472C18.7992 30.7701 18.6712 30.9709 18.5 31.1311C18.3286 31.2858 18.1276 31.4041 17.9091 31.4787C17.6731 31.5715 17.4249 31.63 17.1723 31.6525C17.0566 31.6627 16.9403 31.6627 16.8247 31.6525C16.6961 31.6525 16.564 31.6525 16.425 31.6281C16.2934 31.6112 16.1633 31.5845 16.0357 31.5482C15.9318 31.5465 15.8297 31.5216 15.7367 31.4752Z" fill="white"/>
<path d="M20.5827 28.7469L20.8538 31.1799L20.2108 31.2494L19.5156 24.847L21.0346 24.6732C21.2832 24.6277 21.5386 24.6351 21.7842 24.695C22.0297 24.7549 22.2599 24.8659 22.4596 25.0208C22.6524 25.1922 22.8089 25.4004 22.9199 25.6332C23.031 25.866 23.0943 26.1187 23.1061 26.3764C23.1844 26.9232 23.0501 27.4793 22.7307 27.93C22.5651 28.1459 22.3555 28.3242 22.1158 28.453C21.8762 28.5818 21.6119 28.6583 21.3404 28.6773L20.5827 28.7469ZM20.2351 25.4379L20.5306 28.0621L21.2257 27.9822C21.4128 27.9742 21.5964 27.9286 21.7654 27.848C21.9345 27.7673 22.0855 27.6534 22.2094 27.5129C22.3179 27.3644 22.3954 27.1955 22.4372 27.0163C22.479 26.8372 22.4842 26.6514 22.4527 26.4702C22.3554 25.6256 21.8792 25.2502 21.0172 25.3475L20.2351 25.4379Z" fill="white"/>
<path d="M27.5547 30.4186L24.6246 30.7453L23.9121 24.3428L26.7206 24.03L26.797 24.7252L24.642 24.9685L24.8749 27.0957L26.8665 26.8698L26.9465 27.5649L24.9548 27.7908L25.2051 30.0327L27.4852 29.779L27.5547 30.4186Z" fill="white"/>
<path d="M32.3408 29.6089C31.9058 29.9247 31.3924 30.1146 30.8567 30.1581C30.4965 30.2088 30.1294 30.1746 29.7848 30.0581C29.4402 29.9416 29.1276 29.7461 28.872 29.4873C28.2989 28.8782 27.9582 28.0872 27.9092 27.2524C27.7666 26.3602 27.9518 25.4465 28.4306 24.6802C28.6392 24.3525 28.9198 24.0766 29.251 23.8737C29.5823 23.6707 29.9555 23.5459 30.3423 23.5089C30.7882 23.443 31.2435 23.4847 31.67 23.6306L31.7569 24.43C31.3386 24.2183 30.8666 24.136 30.4013 24.1936C30.1036 24.2201 29.8164 24.3167 29.5632 24.4756C29.3101 24.6345 29.0982 24.8511 28.945 25.1078C28.5909 25.7226 28.4584 26.4404 28.5696 27.1411C28.6086 27.8137 28.8787 28.4522 29.3343 28.9485C29.5285 29.1523 29.7686 29.3067 30.0347 29.3986C30.3008 29.4905 30.585 29.5174 30.8636 29.4769C31.378 29.4324 31.8649 29.2255 32.2539 28.886L32.3408 29.6089Z" fill="white"/>
<path d="M33.9641 23.2134L34.0371 23.8564L33.4949 23.919L34.0719 29.0353L34.6071 28.9763L34.6801 29.6193L32.9422 29.807L32.8727 29.1674L33.4115 29.1049L32.8519 23.9781L32.3131 24.0406L32.2471 23.3976L33.9641 23.2134Z" fill="white"/>
<path d="M39.8664 29.0422L39.1712 29.1222L38.3891 27.3843L36.0534 27.6415L35.7058 29.501L34.9863 29.581L36.3766 22.9422L37.044 22.8657L39.8664 29.0422ZM38.0763 26.7586L36.905 24.1274C36.8473 23.9919 36.8031 23.851 36.7729 23.7069C36.7709 23.8528 36.7558 23.9982 36.7277 24.1413L36.1751 26.9672L38.0763 26.7586Z" fill="white"/>
<path d="M43.5437 28.6356L40.6727 28.9588L39.9775 22.5529L40.6171 22.4834L41.2636 28.208L43.4777 27.9578L43.5437 28.6356Z" fill="white"/>
<path d="M15.7367 31.4752L15.6394 30.5819C15.7462 30.6646 15.863 30.7335 15.987 30.787C16.1173 30.8484 16.2536 30.8962 16.3937 30.9295C16.5306 30.9633 16.6701 30.9854 16.8108 30.9955C16.938 31.006 17.0659 31.006 17.1931 30.9955C17.5131 30.9883 17.8195 30.8647 18.0551 30.648C18.1451 30.5423 18.2102 30.4178 18.2457 30.2837C18.2812 30.1496 18.2861 30.0092 18.2602 29.8729C18.2478 29.7161 18.1977 29.5647 18.1142 29.4314C18.0293 29.3065 17.9235 29.1971 17.8014 29.1082C17.6617 29.0082 17.5141 28.9198 17.3599 28.844C17.1931 28.7676 17.0124 28.6807 16.8108 28.5938C16.6148 28.5074 16.4234 28.4111 16.2373 28.3053C16.0616 28.2128 15.9001 28.0958 15.7576 27.9577C15.6229 27.8265 15.506 27.678 15.41 27.5163C15.3164 27.3255 15.2575 27.1195 15.2362 26.908C15.1984 26.6447 15.2258 26.3761 15.3162 26.1259C15.3948 25.905 15.5232 25.7052 15.6916 25.542C15.8604 25.3806 16.0571 25.2511 16.272 25.1597C16.8807 24.9135 17.5552 24.8828 18.1837 25.0728L18.2776 25.9139C17.8893 25.6814 17.4316 25.5928 16.9846 25.6637C16.8432 25.6833 16.7036 25.7147 16.5675 25.7575C16.4388 25.8029 16.3205 25.8739 16.2199 25.9661C16.1147 26.0608 16.0346 26.1803 15.987 26.3136C15.9281 26.4602 15.9101 26.6199 15.9349 26.7759C15.9476 26.923 15.9927 27.0654 16.0669 27.193C16.1338 27.3116 16.225 27.4147 16.3346 27.4954C16.4619 27.5906 16.5981 27.6732 16.7413 27.7422C16.8977 27.8187 17.0888 27.8986 17.2904 27.982C17.492 28.0654 17.6971 28.1767 17.8917 28.2809C18.0765 28.374 18.2483 28.4909 18.4027 28.6285C18.5429 28.7706 18.6601 28.9336 18.7503 29.1117C18.8551 29.3029 18.9201 29.5133 18.9414 29.7303C18.9794 30.0044 18.9557 30.2835 18.8719 30.5472C18.7992 30.7701 18.6712 30.9709 18.5 31.1311C18.3286 31.2858 18.1276 31.4041 17.9091 31.4787C17.6731 31.5715 17.4249 31.63 17.1723 31.6525C17.0566 31.6627 16.9403 31.6627 16.8247 31.6525C16.6961 31.6525 16.564 31.6525 16.425 31.6281C16.2934 31.6112 16.1633 31.5845 16.0357 31.5482C15.9318 31.5465 15.8297 31.5216 15.7367 31.4752Z" fill="#011F37"/>
<path d="M20.5827 28.7469L20.8538 31.1799L20.2108 31.2494L19.5156 24.847L21.0346 24.6732C21.2832 24.6277 21.5386 24.6351 21.7842 24.695C22.0297 24.7549 22.2599 24.8659 22.4596 25.0208C22.6524 25.1922 22.8089 25.4004 22.9199 25.6332C23.031 25.866 23.0943 26.1187 23.1061 26.3764C23.1844 26.9232 23.0501 27.4793 22.7307 27.93C22.5651 28.1459 22.3555 28.3242 22.1158 28.453C21.8762 28.5818 21.6119 28.6583 21.3404 28.6773L20.5827 28.7469ZM20.2351 25.4379L20.5306 28.0621L21.2257 27.9822C21.4128 27.9742 21.5964 27.9286 21.7654 27.848C21.9345 27.7673 22.0855 27.6534 22.2094 27.5129C22.3179 27.3644 22.3954 27.1955 22.4372 27.0163C22.479 26.8372 22.4842 26.6514 22.4527 26.4702C22.3554 25.6256 21.8792 25.2502 21.0172 25.3475L20.2351 25.4379Z" fill="#011F37"/>
<path d="M27.5547 30.4186L24.6246 30.7453L23.9121 24.3428L26.7206 24.03L26.797 24.7252L24.642 24.9685L24.8749 27.0957L26.8665 26.8698L26.9465 27.5649L24.9548 27.7908L25.2051 30.0327L27.4852 29.779L27.5547 30.4186Z" fill="#011F37"/>
<path d="M32.3408 29.6089C31.9058 29.9247 31.3924 30.1146 30.8567 30.1581C30.4965 30.2088 30.1294 30.1746 29.7848 30.0581C29.4402 29.9416 29.1276 29.7461 28.872 29.4873C28.2989 28.8782 27.9582 28.0872 27.9092 27.2524C27.7666 26.3602 27.9518 25.4465 28.4306 24.6802C28.6392 24.3525 28.9198 24.0766 29.251 23.8737C29.5823 23.6707 29.9555 23.5459 30.3423 23.5089C30.7882 23.443 31.2435 23.4847 31.67 23.6306L31.7569 24.43C31.3386 24.2183 30.8666 24.136 30.4013 24.1936C30.1036 24.2201 29.8164 24.3167 29.5632 24.4756C29.3101 24.6345 29.0982 24.8511 28.945 25.1078C28.5909 25.7226 28.4584 26.4404 28.5696 27.1411C28.6086 27.8137 28.8787 28.4522 29.3343 28.9485C29.5285 29.1523 29.7686 29.3067 30.0347 29.3986C30.3008 29.4905 30.585 29.5174 30.8636 29.4769C31.378 29.4324 31.8649 29.2255 32.2539 28.886L32.3408 29.6089Z" fill="#011F37"/>
<path d="M33.9641 23.2134L34.0371 23.8564L33.4949 23.919L34.0719 29.0353L34.6071 28.9763L34.6801 29.6193L32.9422 29.807L32.8727 29.1674L33.4115 29.1049L32.8519 23.9781L32.3131 24.0406L32.2471 23.3976L33.9641 23.2134Z" fill="#011F37"/>
<path d="M39.8664 29.0422L39.1712 29.1222L38.3891 27.3843L36.0534 27.6415L35.7058 29.501L34.9863 29.581L36.3766 22.9422L37.044 22.8657L39.8664 29.0422ZM38.0763 26.7586L36.905 24.1274C36.8473 23.9919 36.8031 23.851 36.7729 23.7069C36.7709 23.8528 36.7558 23.9982 36.7277 24.1413L36.1751 26.9672L38.0763 26.7586Z" fill="#011F37"/>
<path d="M43.5437 28.6356L40.6727 28.9588L39.9775 22.5529L40.6171 22.4834L41.2636 28.208L43.4777 27.9578L43.5437 28.6356Z" fill="#011F37"/>
<path d="M15.7367 31.4752L15.6394 30.5819C15.7462 30.6646 15.863 30.7335 15.987 30.787C16.1173 30.8484 16.2536 30.8962 16.3937 30.9295C16.5306 30.9633 16.6701 30.9854 16.8108 30.9955C16.938 31.006 17.0659 31.006 17.1931 30.9955C17.5131 30.9883 17.8195 30.8647 18.0551 30.648C18.1451 30.5423 18.2102 30.4178 18.2457 30.2837C18.2812 30.1496 18.2861 30.0092 18.2602 29.8729C18.2478 29.7161 18.1977 29.5647 18.1142 29.4314C18.0293 29.3065 17.9235 29.1971 17.8014 29.1082C17.6617 29.0082 17.5141 28.9198 17.3599 28.844C17.1931 28.7676 17.0124 28.6807 16.8108 28.5938C16.6148 28.5074 16.4234 28.4111 16.2373 28.3053C16.0616 28.2128 15.9001 28.0958 15.7576 27.9577C15.6229 27.8265 15.506 27.678 15.41 27.5163C15.3164 27.3255 15.2575 27.1195 15.2362 26.908C15.1984 26.6447 15.2258 26.3761 15.3162 26.1259C15.3948 25.905 15.5232 25.7052 15.6916 25.542C15.8604 25.3806 16.0571 25.2511 16.272 25.1597C16.8807 24.9135 17.5552 24.8828 18.1837 25.0728L18.2776 25.9139C17.8893 25.6814 17.4316 25.5928 16.9846 25.6637C16.8432 25.6833 16.7036 25.7147 16.5675 25.7575C16.4388 25.8029 16.3205 25.8739 16.2199 25.9661C16.1147 26.0608 16.0346 26.1803 15.987 26.3136C15.9281 26.4602 15.9101 26.6199 15.9349 26.7759C15.9476 26.923 15.9927 27.0654 16.0669 27.193C16.1338 27.3116 16.225 27.4147 16.3346 27.4954C16.4619 27.5906 16.5981 27.6732 16.7413 27.7422C16.8977 27.8187 17.0888 27.8986 17.2904 27.982C17.492 28.0654 17.6971 28.1767 17.8917 28.2809C18.0765 28.374 18.2483 28.4909 18.4027 28.6285C18.5429 28.7706 18.6601 28.9336 18.7503 29.1117C18.8551 29.3029 18.9201 29.5133 18.9414 29.7303C18.9794 30.0044 18.9557 30.2835 18.8719 30.5472C18.7992 30.7701 18.6712 30.9709 18.5 31.1311C18.3286 31.2858 18.1276 31.4041 17.9091 31.4787C17.6731 31.5715 17.4249 31.63 17.1723 31.6525C17.0566 31.6627 16.9403 31.6627 16.8247 31.6525C16.6961 31.6525 16.564 31.6525 16.425 31.6281C16.2934 31.6112 16.1633 31.5845 16.0357 31.5482C15.9318 31.5465 15.8297 31.5216 15.7367 31.4752Z" fill="#011F37"/>
<path d="M20.5827 28.7469L20.8538 31.1799L20.2108 31.2494L19.5156 24.847L21.0346 24.6732C21.2832 24.6277 21.5386 24.6351 21.7842 24.695C22.0297 24.7549 22.2599 24.8659 22.4596 25.0208C22.6524 25.1922 22.8089 25.4004 22.9199 25.6332C23.031 25.866 23.0943 26.1187 23.1061 26.3764C23.1844 26.9232 23.0501 27.4793 22.7307 27.93C22.5651 28.1459 22.3555 28.3242 22.1158 28.453C21.8762 28.5818 21.6119 28.6583 21.3404 28.6773L20.5827 28.7469ZM20.2351 25.4379L20.5306 28.0621L21.2257 27.9822C21.4128 27.9742 21.5964 27.9286 21.7654 27.848C21.9345 27.7673 22.0855 27.6534 22.2094 27.5129C22.3179 27.3644 22.3954 27.1955 22.4372 27.0163C22.479 26.8372 22.4842 26.6514 22.4527 26.4702C22.3554 25.6256 21.8792 25.2502 21.0172 25.3475L20.2351 25.4379Z" fill="#011F37"/>
<path d="M27.5547 30.4186L24.6246 30.7453L23.9121 24.3428L26.7206 24.03L26.797 24.7252L24.642 24.9685L24.8749 27.0957L26.8665 26.8698L26.9465 27.5649L24.9548 27.7908L25.2051 30.0327L27.4852 29.779L27.5547 30.4186Z" fill="#011F37"/>
<path d="M32.3408 29.6089C31.9058 29.9247 31.3924 30.1146 30.8567 30.1581C30.4965 30.2088 30.1294 30.1746 29.7848 30.0581C29.4402 29.9416 29.1276 29.7461 28.872 29.4873C28.2989 28.8782 27.9582 28.0872 27.9092 27.2524C27.7666 26.3602 27.9518 25.4465 28.4306 24.6802C28.6392 24.3525 28.9198 24.0766 29.251 23.8737C29.5823 23.6707 29.9555 23.5459 30.3423 23.5089C30.7882 23.443 31.2435 23.4847 31.67 23.6306L31.7569 24.43C31.3386 24.2183 30.8666 24.136 30.4013 24.1936C30.1036 24.2201 29.8164 24.3167 29.5632 24.4756C29.3101 24.6345 29.0982 24.8511 28.945 25.1078C28.5909 25.7226 28.4584 26.4404 28.5696 27.1411C28.6086 27.8137 28.8787 28.4522 29.3343 28.9485C29.5285 29.1523 29.7686 29.3067 30.0347 29.3986C30.3008 29.4905 30.585 29.5174 30.8636 29.4769C31.378 29.4324 31.8649 29.2255 32.2539 28.886L32.3408 29.6089Z" fill="#011F37"/>
<path d="M33.9641 23.2134L34.0371 23.8564L33.4949 23.919L34.0719 29.0353L34.6071 28.9763L34.6801 29.6193L32.9422 29.807L32.8727 29.1674L33.4115 29.1049L32.8519 23.9781L32.3131 24.0406L32.2471 23.3976L33.9641 23.2134Z" fill="#011F37"/>
<path d="M39.8664 29.0422L39.1712 29.1222L38.3891 27.3843L36.0534 27.6415L35.7058 29.501L34.9863 29.581L36.3766 22.9422L37.044 22.8657L39.8664 29.0422ZM38.0763 26.7586L36.905 24.1274C36.8473 23.9919 36.8031 23.851 36.7729 23.7069C36.7709 23.8528 36.7558 23.9982 36.7277 24.1413L36.1751 26.9672L38.0763 26.7586Z" fill="#011F37"/>
<path d="M43.5437 28.6356L40.6727 28.9588L39.9775 22.5529L40.6171 22.4834L41.2636 28.208L43.4777 27.9578L43.5437 28.6356Z" fill="#011F37"/>
<path d="M15.7367 31.4752L15.6394 30.5819C15.7462 30.6646 15.863 30.7335 15.987 30.787C16.1173 30.8484 16.2536 30.8962 16.3937 30.9295C16.5306 30.9633 16.6701 30.9854 16.8108 30.9955C16.938 31.006 17.0659 31.006 17.1931 30.9955C17.5131 30.9883 17.8195 30.8647 18.0551 30.648C18.1451 30.5423 18.2102 30.4178 18.2457 30.2837C18.2812 30.1496 18.2861 30.0092 18.2602 29.8729C18.2478 29.7161 18.1977 29.5647 18.1142 29.4314C18.0293 29.3065 17.9235 29.1971 17.8014 29.1082C17.6617 29.0082 17.5141 28.9198 17.3599 28.844C17.1931 28.7676 17.0124 28.6807 16.8108 28.5938C16.6148 28.5074 16.4234 28.4111 16.2373 28.3053C16.0616 28.2128 15.9001 28.0958 15.7576 27.9577C15.6229 27.8265 15.506 27.678 15.41 27.5163C15.3164 27.3255 15.2575 27.1195 15.2362 26.908C15.1984 26.6447 15.2258 26.3761 15.3162 26.1259C15.3948 25.905 15.5232 25.7052 15.6916 25.542C15.8604 25.3806 16.0571 25.2511 16.272 25.1597C16.8807 24.9135 17.5552 24.8828 18.1837 25.0728L18.2776 25.9139C17.8893 25.6814 17.4316 25.5928 16.9846 25.6637C16.8432 25.6833 16.7036 25.7147 16.5675 25.7575C16.4388 25.8029 16.3205 25.8739 16.2199 25.9661C16.1147 26.0608 16.0346 26.1803 15.987 26.3136C15.9281 26.4602 15.9101 26.6199 15.9349 26.7759C15.9476 26.923 15.9927 27.0654 16.0669 27.193C16.1338 27.3116 16.225 27.4147 16.3346 27.4954C16.4619 27.5906 16.5981 27.6732 16.7413 27.7422C16.8977 27.8187 17.0888 27.8986 17.2904 27.982C17.492 28.0654 17.6971 28.1767 17.8917 28.2809C18.0765 28.374 18.2483 28.4909 18.4027 28.6285C18.5429 28.7706 18.6601 28.9336 18.7503 29.1117C18.8551 29.3029 18.9201 29.5133 18.9414 29.7303C18.9794 30.0044 18.9557 30.2835 18.8719 30.5472C18.7992 30.7701 18.6712 30.9709 18.5 31.1311C18.3286 31.2858 18.1276 31.4041 17.9091 31.4787C17.6731 31.5715 17.4249 31.63 17.1723 31.6525C17.0566 31.6627 16.9403 31.6627 16.8247 31.6525C16.6961 31.6525 16.564 31.6525 16.425 31.6281C16.2934 31.6112 16.1633 31.5845 16.0357 31.5482C15.9318 31.5465 15.8297 31.5216 15.7367 31.4752Z" fill="#011F37"/>
<path d="M20.5827 28.7469L20.8538 31.1799L20.2108 31.2494L19.5156 24.847L21.0346 24.6732C21.2832 24.6277 21.5386 24.6351 21.7842 24.695C22.0297 24.7549 22.2599 24.8659 22.4596 25.0208C22.6524 25.1922 22.8089 25.4004 22.9199 25.6332C23.031 25.866 23.0943 26.1187 23.1061 26.3764C23.1844 26.9232 23.0501 27.4793 22.7307 27.93C22.5651 28.1459 22.3555 28.3242 22.1158 28.453C21.8762 28.5818 21.6119 28.6583 21.3404 28.6773L20.5827 28.7469ZM20.2351 25.4379L20.5306 28.0621L21.2257 27.9822C21.4128 27.9742 21.5964 27.9286 21.7654 27.848C21.9345 27.7673 22.0855 27.6534 22.2094 27.5129C22.3179 27.3644 22.3954 27.1955 22.4372 27.0163C22.479 26.8372 22.4842 26.6514 22.4527 26.4702C22.3554 25.6256 21.8792 25.2502 21.0172 25.3475L20.2351 25.4379Z" fill="#011F37"/>
<path d="M27.5547 30.4186L24.6246 30.7453L23.9121 24.3428L26.7206 24.03L26.797 24.7252L24.642 24.9685L24.8749 27.0957L26.8665 26.8698L26.9465 27.5649L24.9548 27.7908L25.2051 30.0327L27.4852 29.779L27.5547 30.4186Z" fill="#011F37"/>
<path d="M32.3408 29.6089C31.9058 29.9247 31.3924 30.1146 30.8567 30.1581C30.4965 30.2088 30.1294 30.1746 29.7848 30.0581C29.4402 29.9416 29.1276 29.7461 28.872 29.4873C28.2989 28.8782 27.9582 28.0872 27.9092 27.2524C27.7666 26.3602 27.9518 25.4465 28.4306 24.6802C28.6392 24.3525 28.9198 24.0766 29.251 23.8737C29.5823 23.6707 29.9555 23.5459 30.3423 23.5089C30.7882 23.443 31.2435 23.4847 31.67 23.6306L31.7569 24.43C31.3386 24.2183 30.8666 24.136 30.4013 24.1936C30.1036 24.2201 29.8164 24.3167 29.5632 24.4756C29.3101 24.6345 29.0982 24.8511 28.945 25.1078C28.5909 25.7226 28.4584 26.4404 28.5696 27.1411C28.6086 27.8137 28.8787 28.4522 29.3343 28.9485C29.5285 29.1523 29.7686 29.3067 30.0347 29.3986C30.3008 29.4905 30.585 29.5174 30.8636 29.4769C31.378 29.4324 31.8649 29.2255 32.2539 28.886L32.3408 29.6089Z" fill="#011F37"/>
<path d="M33.9641 23.2134L34.0371 23.8564L33.4949 23.919L34.0719 29.0353L34.6071 28.9763L34.6801 29.6193L32.9422 29.807L32.8727 29.1674L33.4115 29.1049L32.8519 23.9781L32.3131 24.0406L32.2471 23.3976L33.9641 23.2134Z" fill="#011F37"/>
<path d="M39.8664 29.0422L39.1712 29.1222L38.3891 27.3843L36.0534 27.6415L35.7058 29.501L34.9863 29.581L36.3766 22.9422L37.044 22.8657L39.8664 29.0422ZM38.0763 26.7586L36.905 24.1274C36.8473 23.9919 36.8031 23.851 36.7729 23.7069C36.7709 23.8528 36.7558 23.9982 36.7277 24.1413L36.1751 26.9672L38.0763 26.7586Z" fill="#011F37"/>
<path d="M43.5437 28.6356L40.6727 28.9588L39.9775 22.5529L40.6171 22.4834L41.2636 28.208L43.4777 27.9578L43.5437 28.6356Z" fill="#011F37"/>
<path d="M38.8132 41.9304L40.4746 43.6857L33.8115 51.6105L32.873 44.3461L38.8132 41.9304Z" fill="#00F7FF"/>
</svg>
