<svg width="58" height="59" viewBox="0 0 58 59" fill="none" xmlns="http://www.w3.org/2000/svg">
<rect y="0.864014" width="57.93" height="57.93" rx="5.75" fill="white"/>
<path d="M48.9337 25.3381H8.99678C8.53586 25.3381 8.09382 25.5212 7.7679 25.8472C7.44198 26.1731 7.25888 26.6151 7.25888 27.076V34.2119C7.25658 34.4415 7.29983 34.6694 7.38614 34.8823C7.47245 35.0951 7.6001 35.2888 7.7617 35.452C7.92331 35.6152 8.11568 35.7448 8.32767 35.8332C8.53966 35.9216 8.76708 35.9671 8.99678 35.9671H48.9337C49.1634 35.9671 49.3908 35.9216 49.6028 35.8332C49.8148 35.7448 50.0072 35.6152 50.1688 35.452C50.3304 35.2888 50.4581 35.0951 50.5444 34.8823C50.6307 34.6694 50.6739 34.4415 50.6716 34.2119V27.0899C50.6735 26.8605 50.6299 26.6331 50.5433 26.4206C50.4568 26.2082 50.3291 26.0149 50.1675 25.8521C50.006 25.6892 49.8138 25.56 49.602 25.4717C49.3902 25.3835 49.1631 25.3381 48.9337 25.3381Z" fill="#000033"/>
<path d="M48.9337 23.6768H8.99678C8.76708 23.6767 8.53966 23.7223 8.32767 23.8107C8.11568 23.8991 7.92331 24.0287 7.7617 24.1919C7.6001 24.3551 7.47245 24.5488 7.38614 24.7616C7.29983 24.9745 7.25658 25.2024 7.25888 25.432V32.5679C7.25888 33.0288 7.44198 33.4708 7.7679 33.7967C8.09382 34.1227 8.53586 34.3058 8.99678 34.3058H48.9337C49.3946 34.3058 49.8367 34.1227 50.1626 33.7967C50.4885 33.4708 50.6716 33.0288 50.6716 32.5679V25.432C50.6739 25.2024 50.6307 24.9745 50.5444 24.7616C50.4581 24.5488 50.3304 24.3551 50.1688 24.1919C50.0072 24.0287 49.8148 23.8991 49.6028 23.8107C49.3908 23.7223 49.1634 23.6767 48.9337 23.6768Z" fill="#011F37"/>
<path d="M33.8596 31.2888C33.5958 31.295 33.334 31.242 33.0934 31.1338C32.8528 31.0255 32.6395 30.8647 32.4692 30.6631C32.0991 30.2051 31.9077 29.6284 31.9305 29.04C31.9019 28.4214 32.0968 27.8131 32.4796 27.3264C32.6556 27.1146 32.8777 26.9459 33.129 26.8333C33.3802 26.7206 33.6539 26.6669 33.9291 26.6764C34.1931 26.6659 34.456 26.7166 34.6971 26.8245C34.9383 26.9325 35.1513 27.0947 35.3194 27.2986C35.6684 27.7876 35.8545 28.3742 35.8514 28.975C35.8483 29.5758 35.656 30.1604 35.302 30.6458C35.1283 30.858 34.9075 31.0266 34.657 31.1383C34.4066 31.2499 34.1335 31.3015 33.8596 31.2888ZM33.8943 27.5349C33.7445 27.5318 33.5963 27.5668 33.4637 27.6367C33.3311 27.7067 33.2186 27.8092 33.1366 27.9346C32.9399 28.2458 32.8429 28.6096 32.8585 28.9774C32.841 29.3454 32.9382 29.7097 33.1366 30.0201C33.2198 30.1371 33.3298 30.2324 33.4574 30.2982C33.585 30.364 33.7264 30.3983 33.87 30.3983C34.0135 30.3983 34.155 30.364 34.2826 30.2982C34.4101 30.2324 34.5201 30.1371 34.6034 30.0201C34.8019 29.71 34.8969 29.3449 34.8745 28.9774C34.8961 28.6003 34.8054 28.2253 34.6138 27.8999C34.5348 27.7829 34.4272 27.6881 34.3013 27.6242C34.1754 27.5603 34.0354 27.5296 33.8943 27.5349Z" fill="white"/>
<path d="M38.5761 27.5697H37.1857V28.6646H38.4822V29.4814H37.1683V31.2193H36.2646V26.7529H38.5761V27.5697Z" fill="white"/>
<path d="M41.3143 27.5697H39.9031V28.6646H41.1996V29.4814H39.9031V31.2193H39.0029V26.7529H41.3143V27.5697Z" fill="white"/>
<path d="M44.1376 31.2193H41.7393V26.7424H44.0437V27.5592H42.6534V28.5533H43.9568V29.3701H42.6534V30.392H44.148V31.2088L44.1376 31.2193Z" fill="white"/>
<path d="M47.9011 31.2193H46.8584L46.2397 30.0723C46.198 29.9854 46.1528 29.909 46.1111 29.8394C46.074 29.7766 46.0296 29.7183 45.979 29.6657C45.9425 29.6182 45.8963 29.5791 45.8435 29.551C45.7948 29.5276 45.741 29.5169 45.687 29.5197H45.4403V31.2193H44.54V26.7529H45.9651C46.9349 26.7529 47.4145 27.1596 47.4145 27.9695C47.4172 28.1167 47.3961 28.2634 47.352 28.4039C47.3122 28.5294 47.2511 28.647 47.1712 28.7515C47.0915 28.8596 46.9953 28.9546 46.8862 29.0331C46.7726 29.1084 46.65 29.1691 46.5212 29.2138C46.5864 29.2347 46.6459 29.2704 46.695 29.3181C46.7529 29.369 46.8075 29.4236 46.8584 29.4814C46.9128 29.543 46.9617 29.6093 47.0044 29.6796L47.1365 29.8881L47.9011 31.2193ZM45.4472 27.5107V28.755H45.84C45.9273 28.7583 46.0143 28.7429 46.0952 28.71C46.1761 28.677 46.2491 28.6272 46.3092 28.5638C46.427 28.4352 46.4894 28.2654 46.483 28.0911C46.483 27.7018 46.2745 27.5107 45.8574 27.5107H45.4472Z" fill="white"/>
<path d="M33.8596 31.2888C33.5958 31.295 33.334 31.242 33.0934 31.1338C32.8528 31.0255 32.6395 30.8647 32.4692 30.6631C32.0991 30.2051 31.9077 29.6284 31.9305 29.04C31.9019 28.4214 32.0968 27.8131 32.4796 27.3264C32.6556 27.1146 32.8777 26.9459 33.129 26.8333C33.3802 26.7206 33.6539 26.6669 33.9291 26.6764C34.1931 26.6659 34.456 26.7166 34.6971 26.8245C34.9383 26.9325 35.1513 27.0947 35.3194 27.2986C35.6684 27.7876 35.8545 28.3742 35.8514 28.975C35.8483 29.5758 35.656 30.1604 35.302 30.6458C35.1283 30.858 34.9075 31.0266 34.657 31.1383C34.4066 31.2499 34.1335 31.3015 33.8596 31.2888ZM33.8943 27.5349C33.7445 27.5318 33.5963 27.5668 33.4637 27.6367C33.3311 27.7067 33.2186 27.8092 33.1366 27.9346C32.9399 28.2458 32.8429 28.6096 32.8585 28.9774C32.841 29.3454 32.9382 29.7097 33.1366 30.0201C33.2198 30.1371 33.3298 30.2324 33.4574 30.2982C33.585 30.364 33.7264 30.3983 33.87 30.3983C34.0135 30.3983 34.155 30.364 34.2826 30.2982C34.4101 30.2324 34.5201 30.1371 34.6034 30.0201C34.8019 29.71 34.8969 29.3449 34.8745 28.9774C34.8961 28.6003 34.8054 28.2253 34.6138 27.8999C34.5348 27.7829 34.4272 27.6881 34.3013 27.6242C34.1754 27.5603 34.0354 27.5296 33.8943 27.5349Z" fill="#00F7FF"/>
<path d="M38.5761 27.5697H37.1857V28.6646H38.4822V29.4814H37.1683V31.2193H36.2646V26.7529H38.5761V27.5697Z" fill="#00F7FF"/>
<path d="M41.3143 27.5697H39.9031V28.6646H41.1996V29.4814H39.9031V31.2193H39.0029V26.7529H41.3143V27.5697Z" fill="#00F7FF"/>
<path d="M44.1376 31.2193H41.7393V26.7424H44.0437V27.5592H42.6534V28.5533H43.9568V29.3701H42.6534V30.392H44.148V31.2088L44.1376 31.2193Z" fill="#00F7FF"/>
<path d="M47.9011 31.2193H46.8584L46.2397 30.0723C46.198 29.9854 46.1528 29.909 46.1111 29.8394C46.074 29.7766 46.0296 29.7183 45.979 29.6657C45.9425 29.6182 45.8963 29.5791 45.8435 29.551C45.7948 29.5276 45.741 29.5169 45.687 29.5197H45.4403V31.2193H44.54V26.7529H45.9651C46.9349 26.7529 47.4145 27.1596 47.4145 27.9695C47.4172 28.1167 47.3961 28.2634 47.352 28.4039C47.3122 28.5294 47.2511 28.647 47.1712 28.7515C47.0915 28.8596 46.9953 28.9546 46.8862 29.0331C46.7726 29.1084 46.65 29.1691 46.5212 29.2138C46.5864 29.2347 46.6459 29.2704 46.695 29.3181C46.7529 29.369 46.8075 29.4236 46.8584 29.4814C46.9128 29.543 46.9617 29.6093 47.0044 29.6796L47.1365 29.8881L47.9011 31.2193ZM45.4472 27.5107V28.755H45.84C45.9273 28.7583 46.0143 28.7429 46.0952 28.71C46.1761 28.677 46.2491 28.6272 46.3092 28.5638C46.427 28.4352 46.4894 28.2654 46.483 28.0911C46.483 27.7018 46.2745 27.5107 45.8574 27.5107H45.4472Z" fill="#00F7FF"/>
<path d="M33.8596 31.2888C33.5958 31.295 33.334 31.242 33.0934 31.1338C32.8528 31.0255 32.6395 30.8647 32.4692 30.6631C32.0991 30.2051 31.9077 29.6284 31.9305 29.04C31.9019 28.4214 32.0968 27.8131 32.4796 27.3264C32.6556 27.1146 32.8777 26.9459 33.129 26.8333C33.3802 26.7206 33.6539 26.6669 33.9291 26.6764C34.1931 26.6659 34.456 26.7166 34.6971 26.8245C34.9383 26.9325 35.1513 27.0947 35.3194 27.2986C35.6684 27.7876 35.8545 28.3742 35.8514 28.975C35.8483 29.5758 35.656 30.1604 35.302 30.6458C35.1283 30.858 34.9075 31.0266 34.657 31.1383C34.4066 31.2499 34.1335 31.3015 33.8596 31.2888ZM33.8943 27.5349C33.7445 27.5318 33.5963 27.5668 33.4637 27.6367C33.3311 27.7067 33.2186 27.8092 33.1366 27.9346C32.9399 28.2458 32.8429 28.6096 32.8585 28.9774C32.841 29.3454 32.9382 29.7097 33.1366 30.0201C33.2198 30.1371 33.3298 30.2324 33.4574 30.2982C33.585 30.364 33.7264 30.3983 33.87 30.3983C34.0135 30.3983 34.155 30.364 34.2826 30.2982C34.4101 30.2324 34.5201 30.1371 34.6034 30.0201C34.8019 29.71 34.8969 29.3449 34.8745 28.9774C34.8961 28.6003 34.8054 28.2253 34.6138 27.8999C34.5348 27.7829 34.4272 27.6881 34.3013 27.6242C34.1754 27.5603 34.0354 27.5296 33.8943 27.5349Z" fill="#00F7FF"/>
<path d="M38.5761 27.5697H37.1857V28.6646H38.4822V29.4814H37.1683V31.2193H36.2646V26.7529H38.5761V27.5697Z" fill="#00F7FF"/>
<path d="M41.3143 27.5697H39.9031V28.6646H41.1996V29.4814H39.9031V31.2193H39.0029V26.7529H41.3143V27.5697Z" fill="#00F7FF"/>
<path d="M44.1376 31.2193H41.7393V26.7424H44.0437V27.5592H42.6534V28.5533H43.9568V29.3701H42.6534V30.392H44.148V31.2088L44.1376 31.2193Z" fill="#00F7FF"/>
<path d="M47.9011 31.2193H46.8584L46.2397 30.0723C46.198 29.9854 46.1528 29.909 46.1111 29.8394C46.074 29.7766 46.0296 29.7183 45.979 29.6657C45.9425 29.6182 45.8963 29.5791 45.8435 29.551C45.7948 29.5276 45.741 29.5169 45.687 29.5197H45.4403V31.2193H44.54V26.7529H45.9651C46.9349 26.7529 47.4145 27.1596 47.4145 27.9695C47.4172 28.1167 47.3961 28.2634 47.352 28.4039C47.3122 28.5294 47.2511 28.647 47.1712 28.7515C47.0915 28.8596 46.9953 28.9546 46.8862 29.0331C46.7726 29.1084 46.65 29.1691 46.5212 29.2138C46.5864 29.2347 46.6459 29.2704 46.695 29.3181C46.7529 29.369 46.8075 29.4236 46.8584 29.4814C46.9128 29.543 46.9617 29.6093 47.0044 29.6796L47.1365 29.8881L47.9011 31.2193ZM45.4472 27.5107V28.755H45.84C45.9273 28.7583 46.0143 28.7429 46.0952 28.71C46.1761 28.677 46.2491 28.6272 46.3092 28.5638C46.427 28.4352 46.4894 28.2654 46.483 28.0911C46.483 27.7018 46.2745 27.5107 45.8574 27.5107H45.4472Z" fill="#00F7FF"/>
<path d="M33.8596 31.2888C33.5958 31.295 33.334 31.242 33.0934 31.1338C32.8528 31.0255 32.6395 30.8647 32.4692 30.6631C32.0991 30.2051 31.9077 29.6284 31.9305 29.04C31.9019 28.4214 32.0968 27.8131 32.4796 27.3264C32.6556 27.1146 32.8777 26.9459 33.129 26.8333C33.3802 26.7206 33.6539 26.6669 33.9291 26.6764C34.1931 26.6659 34.456 26.7166 34.6971 26.8245C34.9383 26.9325 35.1513 27.0947 35.3194 27.2986C35.6684 27.7876 35.8545 28.3742 35.8514 28.975C35.8483 29.5758 35.656 30.1604 35.302 30.6458C35.1283 30.858 34.9075 31.0266 34.657 31.1383C34.4066 31.2499 34.1335 31.3015 33.8596 31.2888ZM33.8943 27.5349C33.7445 27.5318 33.5963 27.5668 33.4637 27.6367C33.3311 27.7067 33.2186 27.8092 33.1366 27.9346C32.9399 28.2458 32.8429 28.6096 32.8585 28.9774C32.841 29.3454 32.9382 29.7097 33.1366 30.0201C33.2198 30.1371 33.3298 30.2324 33.4574 30.2982C33.585 30.364 33.7264 30.3983 33.87 30.3983C34.0135 30.3983 34.155 30.364 34.2826 30.2982C34.4101 30.2324 34.5201 30.1371 34.6034 30.0201C34.8019 29.71 34.8969 29.3449 34.8745 28.9774C34.8961 28.6003 34.8054 28.2253 34.6138 27.8999C34.5348 27.7829 34.4272 27.6881 34.3013 27.6242C34.1754 27.5603 34.0354 27.5296 33.8943 27.5349Z" fill="#00F7FF"/>
<path d="M38.5761 27.5697H37.1857V28.6646H38.4822V29.4814H37.1683V31.2193H36.2646V26.7529H38.5761V27.5697Z" fill="#00F7FF"/>
<path d="M41.3143 27.5697H39.9031V28.6646H41.1996V29.4814H39.9031V31.2193H39.0029V26.7529H41.3143V27.5697Z" fill="#00F7FF"/>
<path d="M44.1376 31.2193H41.7393V26.7424H44.0437V27.5592H42.6534V28.5533H43.9568V29.3701H42.6534V30.392H44.148V31.2088L44.1376 31.2193Z" fill="#00F7FF"/>
<path d="M47.9011 31.2193H46.8584L46.2397 30.0723C46.198 29.9854 46.1528 29.909 46.1111 29.8394C46.074 29.7766 46.0296 29.7183 45.979 29.6657C45.9425 29.6182 45.8963 29.5791 45.8435 29.551C45.7948 29.5276 45.741 29.5169 45.687 29.5197H45.4403V31.2193H44.54V26.7529H45.9651C46.9349 26.7529 47.4145 27.1596 47.4145 27.9695C47.4172 28.1167 47.3961 28.2634 47.352 28.4039C47.3122 28.5294 47.2511 28.647 47.1712 28.7515C47.0915 28.8596 46.9953 28.9546 46.8862 29.0331C46.7726 29.1084 46.65 29.1691 46.5212 29.2138C46.5864 29.2347 46.6459 29.2704 46.695 29.3181C46.7529 29.369 46.8075 29.4236 46.8584 29.4814C46.9128 29.543 46.9617 29.6093 47.0044 29.6796L47.1365 29.8881L47.9011 31.2193ZM45.4472 27.5107V28.755H45.84C45.9273 28.7583 46.0143 28.7429 46.0952 28.71C46.1761 28.677 46.2491 28.6272 46.3092 28.5638C46.427 28.4352 46.4894 28.2654 46.483 28.0911C46.483 27.7018 46.2745 27.5107 45.8574 27.5107H45.4472Z" fill="#00F7FF"/>
<path d="M10.4043 31.0281V30.4199C10.4673 30.4851 10.54 30.5402 10.6198 30.5832C10.7032 30.632 10.7903 30.6738 10.8805 30.7084C10.9725 30.7403 11.0665 30.7659 11.162 30.7848C11.2479 30.802 11.3352 30.8113 11.4227 30.8126C11.6385 30.8275 11.8526 30.766 12.0275 30.6388C12.0958 30.5746 12.1493 30.4962 12.1841 30.4092C12.2189 30.3221 12.2343 30.2285 12.2291 30.1349C12.2311 30.0254 12.2073 29.9171 12.1596 29.8186C12.1134 29.729 12.0522 29.6479 11.9788 29.5787C11.8906 29.5034 11.7978 29.4338 11.7008 29.3702C11.593 29.2972 11.4714 29.2311 11.3532 29.1616L10.9778 28.9253C10.8687 28.8513 10.7694 28.7637 10.6824 28.6646C10.5964 28.5678 10.5292 28.4558 10.4843 28.3344C10.4309 28.1997 10.4072 28.0551 10.4147 27.9104C10.4075 27.7405 10.4406 27.5713 10.5113 27.4166C10.5819 27.262 10.6882 27.1263 10.8214 27.0205C10.9498 26.9235 11.0946 26.8505 11.2489 26.805C11.4053 26.7564 11.5683 26.733 11.7321 26.7355C12.0144 26.7162 12.2969 26.7701 12.5524 26.8919V27.4759C12.3058 27.287 12.0006 27.191 11.6903 27.2048C11.5907 27.203 11.4914 27.2147 11.3949 27.2395C11.3016 27.2611 11.2132 27.3 11.1342 27.3542C11.0564 27.4058 10.993 27.4764 10.95 27.5593C10.9038 27.6546 10.88 27.7592 10.8805 27.8652C10.8781 27.9665 10.8971 28.0671 10.9361 28.1606C10.9727 28.2456 11.0259 28.3224 11.0925 28.3865C11.1728 28.4608 11.2601 28.5272 11.3532 28.5847L11.7008 28.7967C11.8321 28.8696 11.9587 28.9509 12.0796 29.04C12.199 29.121 12.3076 29.2167 12.4029 29.325C12.4978 29.4249 12.5711 29.5432 12.6184 29.6726C12.6745 29.8104 12.7017 29.9583 12.6983 30.107C12.7052 30.2963 12.667 30.4845 12.5871 30.6562C12.5155 30.7925 12.4146 30.9112 12.2917 31.0038C12.1658 31.1018 12.0198 31.1707 11.8641 31.2054C11.697 31.2466 11.5253 31.2665 11.3532 31.2645C11.2765 31.2626 11.1999 31.2568 11.1238 31.2471C11.0329 31.2398 10.9431 31.2224 10.8562 31.195C10.7674 31.1762 10.6803 31.1506 10.5955 31.1185C10.5266 31.1009 10.4617 31.0702 10.4043 31.0281Z" fill="white"/>
<path d="M13.9078 29.5406V31.2194H13.4629V26.7947H14.5056C14.6793 26.7833 14.8534 26.8083 15.0168 26.8681C15.1803 26.928 15.3293 27.0214 15.4545 27.1423C15.5749 27.2728 15.6677 27.4263 15.7274 27.5935C15.7872 27.7607 15.8126 27.9382 15.8021 28.1155C15.8096 28.4933 15.6686 28.859 15.4093 29.1339C15.2793 29.268 15.122 29.3727 14.9482 29.441C14.7743 29.5094 14.5879 29.5398 14.4013 29.5302L13.9078 29.5406ZM13.9078 27.2744V29.0818H14.3666C14.4928 29.0894 14.6193 29.0718 14.7387 29.03C14.858 28.9883 14.9678 28.9231 15.0618 28.8385C15.1485 28.7459 15.2149 28.6363 15.2568 28.5166C15.2987 28.3969 15.3151 28.2697 15.3051 28.1433C15.3211 28.0239 15.309 27.9024 15.2698 27.7885C15.2307 27.6745 15.1655 27.5713 15.0794 27.4869C14.9934 27.4026 14.8889 27.3395 14.7742 27.3026C14.6595 27.2657 14.5378 27.256 14.4187 27.2744H13.8904H13.9078Z" fill="white"/>
<path d="M18.5026 31.2192H16.4971V26.8049H18.4227V27.2742H16.9385V28.7444H18.3288V29.2032H16.9385V30.7395H18.5026V31.2192Z" fill="white"/>
<path d="M21.8224 31.0281C21.5062 31.2111 21.1448 31.3014 20.7796 31.2887C20.5314 31.2968 20.2847 31.2458 20.06 31.1401C19.8352 31.0344 19.6387 30.8769 19.4866 30.6805C19.1457 30.2231 18.9738 29.6618 19 29.092C18.9703 28.4754 19.1654 27.869 19.5492 27.3854C19.7157 27.1779 19.9277 27.0113 20.1687 26.8986C20.4098 26.7859 20.6735 26.7301 20.9395 26.7354C21.2474 26.7241 21.5535 26.7861 21.8328 26.9162V27.4654C21.5636 27.2918 21.2494 27.2011 20.9291 27.2047C20.7251 27.1985 20.5225 27.241 20.3382 27.3287C20.1538 27.4163 19.993 27.5466 19.869 27.7087C19.5827 28.1009 19.4392 28.5792 19.4623 29.0642C19.4393 29.5234 19.5729 29.9769 19.8412 30.3503C19.9578 30.5041 20.1095 30.6279 20.2836 30.7113C20.4577 30.7947 20.6492 30.8354 20.8422 30.8299C21.1954 30.8393 21.5424 30.7358 21.8328 30.5345V31.0281H21.8224Z" fill="white"/>
<path d="M23.4035 26.8049V27.2498H23.0281V30.7674H23.4035V31.2192H22.2217V30.7674H22.5936V27.2498H22.2217V26.8049H23.4035Z" fill="white"/>
<path d="M26.977 31.2193H26.4799L26.0802 29.9854H24.4744L24.099 31.2193H23.6055L25.0584 26.8154H25.5172L26.977 31.2193ZM25.9343 29.5266L25.3364 27.6496C25.3364 27.5905 25.3017 27.4932 25.2773 27.3542C25.267 27.4546 25.246 27.5536 25.2148 27.6496L24.6239 29.5266H25.9343Z" fill="white"/>
<path d="M29.4967 31.2192H27.5225V26.8049H27.9674V30.7395H29.4863V31.2088L29.4967 31.2192Z" fill="white"/>
</svg>
