<svg width="59" height="59" viewBox="0 0 59 59" fill="none" xmlns="http://www.w3.org/2000/svg">
<rect x="0.719727" y="0.864014" width="57.93" height="57.93" rx="5.75" fill="white"/>
<path d="M45.4255 8.04736V31.5785L29.6906 47.3239L13.9521 31.5785V8.04736H29.6906H45.4255Z" fill="#371400"/>
<path d="M29.691 45.0126L29.6388 44.9605L15.6592 30.9704V9.09717H15.8052V30.9078L29.691 44.8041L43.5768 30.9078V9.09717H43.7263V30.9704L43.7054 30.9947L29.691 45.0126Z" fill="white"/>
<path d="M20.7299 25.4369C20.3268 25.4485 19.9264 25.3692 19.5581 25.205C19.1899 25.0407 18.8633 24.7957 18.6027 24.488C18.0326 23.7912 17.7382 22.9093 17.7755 22.0098C17.7332 21.0691 18.0291 20.1443 18.6096 19.4029C18.8796 19.0795 19.2194 18.8217 19.6036 18.6489C19.9878 18.4761 20.4062 18.3928 20.8272 18.4054C21.2276 18.3927 21.6255 18.4723 21.9901 18.638C22.3548 18.8038 22.6764 19.0512 22.9301 19.3612C23.4923 20.0743 23.7763 20.9674 23.7295 21.8742C23.7757 22.8069 23.479 23.7243 22.8953 24.4533C22.6334 24.7716 22.3021 25.0258 21.9267 25.1963C21.5514 25.3668 21.142 25.4491 20.7299 25.4369ZM20.782 19.7157C20.5545 19.7115 20.3298 19.7655 20.129 19.8725C19.9283 19.9796 19.7582 20.1362 19.635 20.3275C19.357 20.8145 19.2108 21.3656 19.2108 21.9264C19.2108 22.4871 19.357 23.0382 19.635 23.5252C19.7601 23.7048 19.9265 23.8518 20.1202 23.9539C20.3138 24.0559 20.5291 24.1101 20.748 24.1118C20.9669 24.1135 21.183 24.0627 21.3782 23.9637C21.5734 23.8646 21.742 23.7202 21.8699 23.5426C22.1721 23.0726 22.3181 22.5191 22.287 21.9611C22.3231 21.3853 22.1837 20.8121 21.8873 20.3171C21.7721 20.1286 21.6093 19.9739 21.4152 19.8683C21.2212 19.7628 21.0028 19.7101 20.782 19.7157Z" fill="white"/>
<path d="M27.9081 19.7607H25.7636V21.4291H27.7343V22.6734H25.7636V25.3115H24.3906V18.5164H27.9012V19.7607H27.9081Z" fill="white"/>
<path d="M32.0721 19.7607H29.924V21.4291H31.8983V22.6734H29.924V25.3115H28.5615V18.5164H32.0721V19.7607Z" fill="white"/>
<path d="M36.3751 25.3115H32.7324V18.5164H36.2326V19.7607H34.0949V21.2727H36.0866V22.5135H34.0949V24.0707H36.3751V25.3115Z" fill="white"/>
<path d="M42.0996 25.3117H40.525L39.5796 23.5738C39.5101 23.4452 39.4406 23.32 39.378 23.2262C39.3205 23.131 39.2541 23.0414 39.1799 22.9586C39.1203 22.8897 39.0498 22.831 38.9713 22.7848C38.9004 22.7412 38.8182 22.7194 38.735 22.7222H38.3874V25.3221H36.9971V18.5095H39.1694C40.6467 18.5095 41.387 19.1282 41.387 20.3586C41.3871 20.5835 41.3543 20.8072 41.2897 21.0225C41.2257 21.2149 41.1331 21.3965 41.0151 21.5613C40.8959 21.7223 40.7515 21.8632 40.5876 21.9784C40.4115 22.095 40.221 22.1885 40.021 22.2564C40.1156 22.2981 40.2044 22.3518 40.2852 22.4163C40.3737 22.4911 40.4541 22.575 40.525 22.6666C40.6038 22.7639 40.6803 22.8647 40.7544 22.969C40.8204 23.0837 40.89 23.188 40.9525 23.2922L42.0996 25.3117ZM38.3804 19.667V21.5613H38.9679C39.0976 21.5655 39.2267 21.542 39.3466 21.4922C39.4665 21.4425 39.5744 21.3676 39.663 21.2728C39.8405 21.0853 39.9378 20.8358 39.9341 20.5776C39.9341 19.9867 39.6109 19.6843 38.9783 19.6843L38.3804 19.667Z" fill="white"/>
<path d="M20.7299 25.4369C20.3268 25.4485 19.9264 25.3692 19.5581 25.205C19.1899 25.0407 18.8633 24.7957 18.6027 24.488C18.0326 23.7912 17.7382 22.9093 17.7755 22.0098C17.7332 21.0691 18.0291 20.1443 18.6096 19.4029C18.8796 19.0795 19.2194 18.8217 19.6036 18.6489C19.9878 18.4761 20.4062 18.3928 20.8272 18.4054C21.2276 18.3927 21.6255 18.4723 21.9901 18.638C22.3548 18.8038 22.6764 19.0512 22.9301 19.3612C23.4923 20.0743 23.7763 20.9674 23.7295 21.8742C23.7757 22.8069 23.479 23.7243 22.8953 24.4533C22.6334 24.7716 22.3021 25.0258 21.9267 25.1963C21.5514 25.3668 21.142 25.4491 20.7299 25.4369ZM20.782 19.7157C20.5545 19.7115 20.3298 19.7655 20.129 19.8725C19.9283 19.9796 19.7582 20.1362 19.635 20.3275C19.357 20.8145 19.2108 21.3656 19.2108 21.9264C19.2108 22.4871 19.357 23.0382 19.635 23.5252C19.7601 23.7048 19.9265 23.8518 20.1202 23.9539C20.3138 24.0559 20.5291 24.1101 20.748 24.1118C20.9669 24.1135 21.183 24.0627 21.3782 23.9637C21.5734 23.8646 21.742 23.7202 21.8699 23.5426C22.1721 23.0726 22.3181 22.5191 22.287 21.9611C22.3231 21.3853 22.1837 20.8121 21.8873 20.3171C21.7721 20.1286 21.6093 19.9739 21.4152 19.8683C21.2212 19.7628 21.0028 19.7101 20.782 19.7157Z" fill="#FEBE10"/>
<path d="M27.9081 19.7607H25.7636V21.4291H27.7343V22.6734H25.7636V25.3115H24.3906V18.5164H27.9012V19.7607H27.9081Z" fill="#FEBE10"/>
<path d="M32.0721 19.7607H29.924V21.4291H31.8983V22.6734H29.924V25.3115H28.5615V18.5164H32.0721V19.7607Z" fill="#FEBE10"/>
<path d="M36.3751 25.3115H32.7324V18.5164H36.2326V19.7607H34.0949V21.2727H36.0866V22.5135H34.0949V24.0707H36.3751V25.3115Z" fill="#FEBE10"/>
<path d="M42.0996 25.3117H40.525L39.5796 23.5738C39.5101 23.4452 39.4406 23.32 39.378 23.2262C39.3205 23.131 39.2541 23.0414 39.1799 22.9586C39.1203 22.8897 39.0498 22.831 38.9713 22.7848C38.9004 22.7412 38.8182 22.7194 38.735 22.7222H38.3874V25.3221H36.9971V18.5095H39.1694C40.6467 18.5095 41.387 19.1282 41.387 20.3586C41.3871 20.5835 41.3543 20.8072 41.2897 21.0225C41.2257 21.2149 41.1331 21.3965 41.0151 21.5613C40.8959 21.7223 40.7515 21.8632 40.5876 21.9784C40.4115 22.095 40.221 22.1885 40.021 22.2564C40.1156 22.2981 40.2044 22.3518 40.2852 22.4163C40.3737 22.4911 40.4541 22.575 40.525 22.6666C40.6038 22.7639 40.6803 22.8647 40.7544 22.969C40.8204 23.0837 40.89 23.188 40.9525 23.2922L42.0996 25.3117ZM38.3804 19.667V21.5613H38.9679C39.0976 21.5655 39.2267 21.542 39.3466 21.4922C39.4665 21.4425 39.5744 21.3676 39.663 21.2728C39.8405 21.0853 39.9378 20.8358 39.9341 20.5776C39.9341 19.9867 39.6109 19.6843 38.9783 19.6843L38.3804 19.667Z" fill="#FEBE10"/>
<path d="M20.7299 25.4369C20.3268 25.4485 19.9264 25.3692 19.5581 25.205C19.1899 25.0407 18.8633 24.7957 18.6027 24.488C18.0326 23.7912 17.7382 22.9093 17.7755 22.0098C17.7332 21.0691 18.0291 20.1443 18.6096 19.4029C18.8796 19.0795 19.2194 18.8217 19.6036 18.6489C19.9878 18.4761 20.4062 18.3928 20.8272 18.4054C21.2276 18.3927 21.6255 18.4723 21.9901 18.638C22.3548 18.8038 22.6764 19.0512 22.9301 19.3612C23.4923 20.0743 23.7763 20.9674 23.7295 21.8742C23.7757 22.8069 23.479 23.7243 22.8953 24.4533C22.6334 24.7716 22.3021 25.0258 21.9267 25.1963C21.5514 25.3668 21.142 25.4491 20.7299 25.4369ZM20.782 19.7157C20.5545 19.7115 20.3298 19.7655 20.129 19.8725C19.9283 19.9796 19.7582 20.1362 19.635 20.3275C19.357 20.8145 19.2108 21.3656 19.2108 21.9264C19.2108 22.4871 19.357 23.0382 19.635 23.5252C19.7601 23.7048 19.9265 23.8518 20.1202 23.9539C20.3138 24.0559 20.5291 24.1101 20.748 24.1118C20.9669 24.1135 21.183 24.0627 21.3782 23.9637C21.5734 23.8646 21.742 23.7202 21.8699 23.5426C22.1721 23.0726 22.3181 22.5191 22.287 21.9611C22.3231 21.3853 22.1837 20.8121 21.8873 20.3171C21.7721 20.1286 21.6093 19.9739 21.4152 19.8683C21.2212 19.7628 21.0028 19.7101 20.782 19.7157Z" fill="#FEBE10"/>
<path d="M27.9081 19.7607H25.7636V21.4291H27.7343V22.6734H25.7636V25.3115H24.3906V18.5164H27.9012V19.7607H27.9081Z" fill="#FEBE10"/>
<path d="M32.0721 19.7607H29.924V21.4291H31.8983V22.6734H29.924V25.3115H28.5615V18.5164H32.0721V19.7607Z" fill="#FEBE10"/>
<path d="M36.3751 25.3115H32.7324V18.5164H36.2326V19.7607H34.0949V21.2727H36.0866V22.5135H34.0949V24.0707H36.3751V25.3115Z" fill="#FEBE10"/>
<path d="M42.0996 25.3117H40.525L39.5796 23.5738C39.5101 23.4452 39.4406 23.32 39.378 23.2262C39.3205 23.131 39.2541 23.0414 39.1799 22.9586C39.1203 22.8897 39.0498 22.831 38.9713 22.7848C38.9004 22.7412 38.8182 22.7194 38.735 22.7222H38.3874V25.3221H36.9971V18.5095H39.1694C40.6467 18.5095 41.387 19.1282 41.387 20.3586C41.3871 20.5835 41.3543 20.8072 41.2897 21.0225C41.2257 21.2149 41.1331 21.3965 41.0151 21.5613C40.8959 21.7223 40.7515 21.8632 40.5876 21.9784C40.4115 22.095 40.221 22.1885 40.021 22.2564C40.1156 22.2981 40.2044 22.3518 40.2852 22.4163C40.3737 22.4911 40.4541 22.575 40.525 22.6666C40.6038 22.7639 40.6803 22.8647 40.7544 22.969C40.8204 23.0837 40.89 23.188 40.9525 23.2922L42.0996 25.3117ZM38.3804 19.667V21.5613H38.9679C39.0976 21.5655 39.2267 21.542 39.3466 21.4922C39.4665 21.4425 39.5744 21.3676 39.663 21.2728C39.8405 21.0853 39.9378 20.8358 39.9341 20.5776C39.9341 19.9867 39.6109 19.6843 38.9783 19.6843L38.3804 19.667Z" fill="#FEBE10"/>
<path d="M20.7299 25.4369C20.3268 25.4485 19.9264 25.3692 19.5581 25.205C19.1899 25.0407 18.8633 24.7957 18.6027 24.488C18.0326 23.7912 17.7382 22.9093 17.7755 22.0098C17.7332 21.0691 18.0291 20.1443 18.6096 19.4029C18.8796 19.0795 19.2194 18.8217 19.6036 18.6489C19.9878 18.4761 20.4062 18.3928 20.8272 18.4054C21.2276 18.3927 21.6255 18.4723 21.9901 18.638C22.3548 18.8038 22.6764 19.0512 22.9301 19.3612C23.4923 20.0743 23.7763 20.9674 23.7295 21.8742C23.7757 22.8069 23.479 23.7243 22.8953 24.4533C22.6334 24.7716 22.3021 25.0258 21.9267 25.1963C21.5514 25.3668 21.142 25.4491 20.7299 25.4369ZM20.782 19.7157C20.5545 19.7115 20.3298 19.7655 20.129 19.8725C19.9283 19.9796 19.7582 20.1362 19.635 20.3275C19.357 20.8145 19.2108 21.3656 19.2108 21.9264C19.2108 22.4871 19.357 23.0382 19.635 23.5252C19.7601 23.7048 19.9265 23.8518 20.1202 23.9539C20.3138 24.0559 20.5291 24.1101 20.748 24.1118C20.9669 24.1135 21.183 24.0627 21.3782 23.9637C21.5734 23.8646 21.742 23.7202 21.8699 23.5426C22.1721 23.0726 22.3181 22.5191 22.287 21.9611C22.3231 21.3853 22.1837 20.8121 21.8873 20.3171C21.7721 20.1286 21.6093 19.9739 21.4152 19.8683C21.2212 19.7628 21.0028 19.7101 20.782 19.7157Z" fill="#FEBE10"/>
<path d="M27.9081 19.7607H25.7636V21.4291H27.7343V22.6734H25.7636V25.3115H24.3906V18.5164H27.9012V19.7607H27.9081Z" fill="#FEBE10"/>
<path d="M32.0721 19.7607H29.924V21.4291H31.8983V22.6734H29.924V25.3115H28.5615V18.5164H32.0721V19.7607Z" fill="#FEBE10"/>
<path d="M36.3751 25.3115H32.7324V18.5164H36.2326V19.7607H34.0949V21.2727H36.0866V22.5135H34.0949V24.0707H36.3751V25.3115Z" fill="#FEBE10"/>
<path d="M42.0996 25.3117H40.525L39.5796 23.5738C39.5101 23.4452 39.4406 23.32 39.378 23.2262C39.3205 23.131 39.2541 23.0414 39.1799 22.9586C39.1203 22.8897 39.0498 22.831 38.9713 22.7848C38.9004 22.7412 38.8182 22.7194 38.735 22.7222H38.3874V25.3221H36.9971V18.5095H39.1694C40.6467 18.5095 41.387 19.1282 41.387 20.3586C41.3871 20.5835 41.3543 20.8072 41.2897 21.0225C41.2257 21.2149 41.1331 21.3965 41.0151 21.5613C40.8959 21.7223 40.7515 21.8632 40.5876 21.9784C40.4115 22.095 40.221 22.1885 40.021 22.2564C40.1156 22.2981 40.2044 22.3518 40.2852 22.4163C40.3737 22.4911 40.4541 22.575 40.525 22.6666C40.6038 22.7639 40.6803 22.8647 40.7544 22.969C40.8204 23.0837 40.89 23.188 40.9525 23.2922L42.0996 25.3117ZM38.3804 19.667V21.5613H38.9679C39.0976 21.5655 39.2267 21.542 39.3466 21.4922C39.4665 21.4425 39.5744 21.3676 39.663 21.2728C39.8405 21.0853 39.9378 20.8358 39.9341 20.5776C39.9341 19.9867 39.6109 19.6843 38.9783 19.6843L38.3804 19.667Z" fill="#FEBE10"/>
<path d="M18.1055 15.9723V15.2146C18.1858 15.2962 18.2771 15.3664 18.3766 15.4231C18.4818 15.485 18.5923 15.5373 18.7068 15.5795C18.8187 15.6247 18.9352 15.6574 19.0544 15.6768C19.1611 15.6963 19.2692 15.7079 19.3776 15.7116C19.6506 15.7337 19.9224 15.6559 20.1423 15.4926C20.2278 15.4119 20.2945 15.3134 20.3377 15.2041C20.381 15.0948 20.3997 14.9773 20.3925 14.86C20.3938 14.7275 20.3641 14.5966 20.3056 14.4777C20.2472 14.3625 20.1669 14.2598 20.0693 14.1753C19.9615 14.0781 19.8452 13.9909 19.7217 13.9146C19.5827 13.8277 19.4436 13.7408 19.2872 13.6539C19.1308 13.567 18.964 13.4558 18.8284 13.3585C18.6891 13.2589 18.563 13.1421 18.453 13.0109C18.3475 12.889 18.263 12.7503 18.2028 12.6007C18.1381 12.4287 18.1074 12.2457 18.1124 12.062C18.1053 11.8369 18.1543 11.6135 18.2549 11.412C18.3423 11.2327 18.4695 11.0758 18.6268 10.9532C18.7843 10.8304 18.9636 10.7385 19.1552 10.6821C19.35 10.6229 19.5528 10.5936 19.7565 10.5952C20.1154 10.5693 20.4748 10.6376 20.7992 10.7933V11.5163C20.4917 11.2781 20.1105 11.1552 19.7217 11.1687C19.599 11.1706 19.4767 11.1846 19.3567 11.2104C19.24 11.238 19.1301 11.2888 19.0335 11.3599C18.9393 11.429 18.8601 11.5165 18.8006 11.6171C18.7375 11.7356 18.7075 11.8688 18.7137 12.0029C18.712 12.128 18.7356 12.2522 18.7832 12.3679C18.8277 12.4742 18.8954 12.5692 18.9814 12.6459C19.0801 12.7373 19.1885 12.8178 19.3046 12.8858C19.4332 12.9657 19.5723 13.0526 19.7391 13.1464C19.9059 13.2403 20.0693 13.348 20.2257 13.4523C20.3739 13.5498 20.5083 13.6667 20.6254 13.7999C20.7392 13.9294 20.8297 14.0776 20.8931 14.2379C20.9675 14.4099 21.0031 14.5962 20.9973 14.7836C21.0092 15.0232 20.9615 15.2621 20.8583 15.4787C20.7719 15.6596 20.6446 15.8179 20.4864 15.941C20.3262 16.0619 20.1428 16.1483 19.9476 16.1947C19.7371 16.2458 19.5212 16.2714 19.3046 16.2712C19.2247 16.2712 19.1413 16.2712 19.0266 16.2538C18.9119 16.2364 18.8006 16.2191 18.679 16.1947C18.5708 16.1679 18.464 16.1354 18.3592 16.0974C18.2706 16.0643 18.1856 16.0224 18.1055 15.9723Z" fill="white"/>
<path d="M22.4848 14.1302V16.2157H21.9287V10.6961H23.2356C23.4513 10.6828 23.6675 10.7139 23.8708 10.7874C24.074 10.861 24.2601 10.9754 24.4174 11.1236C24.5628 11.2893 24.6742 11.482 24.7452 11.6908C24.8162 11.8995 24.8453 12.1201 24.831 12.3402C24.8518 12.8102 24.687 13.2696 24.3722 13.6193C24.2103 13.7853 24.0151 13.9151 23.7995 14.0002C23.5838 14.0852 23.3525 14.1236 23.1209 14.1128H22.4848V14.1302ZM22.4848 11.2905V13.5497H23.0861C23.2457 13.5602 23.4058 13.5384 23.5568 13.4859C23.7079 13.4334 23.8469 13.3511 23.9655 13.2439C24.0712 13.1285 24.1524 12.993 24.2044 12.8455C24.2563 12.698 24.2779 12.5414 24.2679 12.3853C24.2679 11.6554 23.896 11.3009 23.1557 11.3009H22.5022L22.4848 11.2905Z" fill="white"/>
<path d="M28.2405 16.2156H25.7275V10.696H28.1363V11.28H26.2837V13.1152H27.9938V13.6957H26.2837V15.6247H28.2405V16.2156Z" fill="white"/>
<path d="M32.3737 15.9723C31.9758 16.2002 31.5215 16.3111 31.0633 16.292C30.7534 16.3036 30.4451 16.2413 30.1641 16.1101C29.883 15.979 29.6372 15.7828 29.4471 15.5378C29.0183 14.9691 28.803 14.2679 28.8388 13.5566C28.8064 12.7837 29.0531 12.025 29.534 11.419C29.7429 11.1601 30.0079 10.9521 30.3089 10.8106C30.61 10.6691 30.9392 10.5978 31.2719 10.6021C31.6573 10.5909 32.0402 10.6682 32.3911 10.8281V11.5232C32.0574 11.3085 31.6686 11.195 31.2719 11.1965C31.0171 11.1882 30.7641 11.2414 30.5342 11.3515C30.3043 11.4616 30.1043 11.6254 29.9511 11.8291C29.59 12.3184 29.4106 12.9181 29.4436 13.5253C29.4099 14.0981 29.5798 14.6644 29.9233 15.1242C30.0677 15.3161 30.2561 15.4705 30.4726 15.5746C30.6892 15.6786 30.9275 15.7292 31.1676 15.722C31.6052 15.7386 32.0369 15.617 32.4015 15.3744L32.3806 16.0001L32.3737 15.9723Z" fill="white"/>
<path d="M34.365 10.696V11.2556H33.9027V15.6525H34.365V16.2156H32.8809V15.6595H33.3397V11.2556H32.8809V10.696H34.365Z" fill="white"/>
<path d="M38.8138 16.2156H38.1951L37.6842 14.6515H35.6786L35.2163 16.2156H34.5977L36.4155 10.7134H36.989L38.8138 16.2156ZM37.5208 14.0953L36.77 11.7492C36.7366 11.6297 36.7133 11.5076 36.7005 11.3842C36.6856 11.5078 36.66 11.63 36.6241 11.7492L35.8837 14.0953H37.5208Z" fill="white"/>
<path d="M41.9776 16.2156H39.5098V10.696H40.0659V15.6178H41.9706V16.1982L41.9776 16.2156Z" fill="white"/>
<path d="M27.6925 35.2107C27.6751 35.235 27.6334 35.2107 27.6473 35.1759C29.1419 32.795 30.6018 30.4071 32.6455 27.9636L33.3998 28.565C31.6445 31.0397 29.6042 33.1773 27.6925 35.2107Z" fill="white"/>
<path d="M36.1144 36.0553L35.9475 35.2976C35.1341 35.3607 34.3299 35.5122 33.5492 35.7495C32.2727 36.0081 31.0133 36.3447 29.778 36.7574C29.7502 36.7574 29.778 36.7991 29.778 36.7991C31.0863 36.7665 32.3912 36.6504 33.6848 36.4516C34.5079 36.4199 35.3239 36.2869 36.1144 36.0553Z" fill="white"/>
<path d="M28.1861 27.0321L27.4561 26.8931C27.2038 27.6403 27.0347 28.4132 26.9521 29.1975C26.702 30.4279 26.5256 31.6722 26.4238 32.9236C26.4238 32.9514 26.4586 32.9514 26.469 32.9236C26.9333 31.7497 27.3245 30.5483 27.6404 29.3261C27.917 28.5871 28.1004 27.8165 28.1861 27.0321Z" fill="white"/>
<path d="M31.4282 41.4047C31.5381 41.307 31.6274 41.1884 31.691 41.0558C31.7546 40.9232 31.7911 40.7793 31.7986 40.6325C31.806 40.4856 31.7842 40.3387 31.7343 40.2004C31.6845 40.0621 31.6076 39.935 31.5082 39.8267L23.712 31.2032C23.5276 30.9705 23.2583 30.8205 22.9634 30.7863C22.6684 30.7521 22.3719 30.8364 22.1392 31.0208C21.9064 31.2051 21.7564 31.4744 21.7222 31.7694C21.688 32.0643 21.7723 32.3608 21.9567 32.5936L18.8632 38.9195L16.232 41.3004C16.0557 41.4614 15.9168 41.659 15.8249 41.8794C15.7331 42.0997 15.6905 42.3375 15.7002 42.5761L15.7419 43.3512L15.3283 43.7335C15.0357 43.9984 14.86 44.3685 14.8398 44.7627C14.8196 45.1568 14.9566 45.543 15.2206 45.8364L16.1278 46.8339C16.3916 47.1222 16.7582 47.295 17.1484 47.3152C17.5386 47.3354 17.9211 47.2012 18.2132 46.9417L18.6338 46.5593L19.4054 46.6775C19.6168 46.7146 19.8336 46.7063 20.0415 46.6532L24.1499 51.1961C24.325 51.3895 24.5695 51.5057 24.83 51.5194C25.0905 51.5331 25.3459 51.4431 25.5402 51.269L26.0894 50.772C26.1884 50.6819 26.2681 50.5726 26.3238 50.4508C26.3794 50.3291 26.4097 50.1973 26.413 50.0634C26.4162 49.9296 26.3923 49.7965 26.3427 49.6721C26.293 49.5478 26.2187 49.4348 26.1242 49.34C25.3557 48.5716 24.7286 47.6739 24.2716 46.6879L24.8555 46.1666C24.9496 46.0899 25.0272 45.995 25.0834 45.8874C25.1396 45.7798 25.1733 45.6619 25.1824 45.5409C25.1915 45.4199 25.1759 45.2982 25.1364 45.1835C25.097 45.0687 25.0346 44.9631 24.953 44.8733C24.8714 44.7834 24.7724 44.7111 24.6619 44.6608C24.5515 44.6105 24.4319 44.5832 24.3106 44.5806C24.1893 44.5781 24.0687 44.6003 23.9562 44.6458C23.8437 44.6914 23.7417 44.7594 23.6563 44.8458C23.5868 44.5225 23.5277 44.1923 23.4826 43.8552L29.8502 41.363C30.0548 41.5762 30.3352 41.7002 30.6307 41.708C30.9261 41.7158 31.2127 41.6068 31.4282 41.4047Z" fill="#371400"/>
<path d="M19.472 46.2116L18.5961 46.0795C18.5632 46.0749 18.5297 46.0775 18.4979 46.0871C18.466 46.0967 18.4367 46.1131 18.4119 46.1352L17.9148 46.587C17.7092 46.7699 17.4397 46.8641 17.165 46.8492C16.8902 46.8342 16.6325 46.7112 16.448 46.5071L15.5443 45.5095C15.3599 45.3042 15.2644 45.0342 15.2788 44.7586C15.2931 44.483 15.4161 44.2243 15.6208 44.0393L16.1178 43.5874C16.1431 43.5666 16.1627 43.5398 16.1748 43.5094C16.187 43.479 16.1913 43.4461 16.1873 43.4136L16.1352 42.5273C16.1269 42.3547 16.1573 42.1825 16.224 42.0231C16.2908 41.8638 16.3922 41.7213 16.521 41.6062L19.0132 39.3469L22.913 43.6743L20.4209 45.9336C20.343 46.004 20.2552 46.0626 20.1602 46.1074L17.3517 42.9791C17.3097 42.9388 17.2536 42.9162 17.1953 42.9162C17.137 42.9162 17.081 42.9388 17.0389 42.9791C17.0169 42.9983 16.999 43.0217 16.9862 43.048C16.9734 43.0742 16.966 43.1027 16.9644 43.1319C16.9627 43.161 16.967 43.1902 16.9768 43.2177C16.9866 43.2452 17.0018 43.2704 17.0215 43.292L19.6805 46.2394C19.6104 46.2355 19.5407 46.2262 19.472 46.2116Z" fill="white"/>
<path d="M20.7228 46.2533L23.069 44.1331C23.2597 45.4999 23.7396 46.8105 24.4767 47.9773L23.0377 49.2772L20.4795 46.4549C20.5673 46.3962 20.6488 46.3286 20.7228 46.2533Z" fill="#FEBE10"/>
<path d="M23.949 50.2783L23.3477 49.6179L24.738 48.3562C24.9107 48.5978 25.0964 48.8298 25.2941 49.0514L23.949 50.2783Z" fill="white"/>
<path d="M19.3047 38.9993L22.28 32.9514L29.5235 40.9735L23.3053 43.4136L19.3047 38.9993Z" fill="#FEBE10"/>
<path d="M17.7757 45.3079L16.952 46.0552C16.9092 46.095 16.8835 46.1498 16.8802 46.2081C16.877 46.2664 16.8965 46.3237 16.9346 46.368C16.977 46.4076 17.0329 46.4296 17.091 46.4296C17.149 46.4296 17.2049 46.4076 17.2474 46.368L18.0712 45.6207C18.0931 45.6015 18.1111 45.5781 18.1239 45.5519C18.1367 45.5256 18.1441 45.4971 18.1457 45.468C18.1473 45.4388 18.1431 45.4096 18.1333 45.3821C18.1235 45.3547 18.1083 45.3294 18.0885 45.3079C18.0687 45.2862 18.0445 45.2689 18.0176 45.257C17.9907 45.2451 17.9616 45.239 17.9321 45.239C17.9027 45.239 17.8736 45.2451 17.8467 45.257C17.8197 45.2689 17.7956 45.2862 17.7757 45.3079Z" fill="#371400"/>
<path d="M17.1776 44.6405L16.3504 45.3843C16.3092 45.4259 16.2861 45.4821 16.2861 45.5407C16.2861 45.5992 16.3092 45.6554 16.3504 45.6971C16.3691 45.7192 16.392 45.7374 16.4178 45.7504C16.4436 45.7635 16.4718 45.7712 16.5007 45.7732C16.5295 45.7751 16.5585 45.7712 16.5858 45.7618C16.6132 45.7523 16.6383 45.7374 16.6598 45.7179L17.487 44.9672C17.528 44.9261 17.551 44.8705 17.551 44.8125C17.551 44.7545 17.528 44.6989 17.487 44.6578C17.4474 44.6161 17.3933 44.591 17.3358 44.5878C17.2783 44.5845 17.2217 44.6034 17.1776 44.6405Z" fill="#371400"/>
<path d="M16.5767 43.9802L15.7529 44.7171C15.7322 44.7372 15.7158 44.7612 15.7045 44.7878C15.6933 44.8144 15.6875 44.8429 15.6875 44.8718C15.6875 44.9006 15.6933 44.9292 15.7045 44.9557C15.7158 44.9823 15.7322 45.0063 15.7529 45.0264C15.7927 45.0692 15.8475 45.0949 15.9059 45.0982C15.9642 45.1014 16.0215 45.0819 16.0658 45.0438L16.8895 44.3C16.9338 44.2605 16.9608 44.2053 16.9647 44.1461C16.9686 44.0869 16.9491 44.0286 16.9104 43.9837C16.8904 43.9588 16.8652 43.9386 16.8365 43.9246C16.8078 43.9106 16.7763 43.9032 16.7444 43.9028C16.7124 43.9025 16.6808 43.9093 16.6518 43.9227C16.6228 43.936 16.5972 43.9557 16.5767 43.9802Z" fill="#371400"/>
<path d="M22.4332 31.4569C22.5649 31.3373 22.7385 31.2746 22.9162 31.2824C23.094 31.2902 23.2614 31.3679 23.3821 31.4987L31.1748 40.1221C31.2401 40.1864 31.2915 40.2634 31.3258 40.3484C31.3602 40.4333 31.3768 40.5244 31.3746 40.6159C31.3724 40.7075 31.3515 40.7977 31.3131 40.8809C31.2747 40.9641 31.2197 41.0385 31.1514 41.0996C31.0832 41.1608 31.0031 41.2072 30.9162 41.2362C30.8293 41.2652 30.7374 41.2761 30.6461 41.2682C30.5549 41.2603 30.4662 41.2338 30.3855 41.1903C30.3049 41.1469 30.234 41.0873 30.1773 41.0154C29.8297 40.6331 22.6939 32.736 22.3845 32.3954C22.3256 32.3308 22.2801 32.2552 22.2506 32.1729C22.2211 32.0906 22.2083 32.0033 22.2128 31.916C22.2173 31.8287 22.2391 31.7432 22.277 31.6644C22.3148 31.5856 22.3679 31.5151 22.4332 31.4569Z" fill="white"/>
<path d="M25.7874 50.4105L25.2417 50.9041C25.1352 50.9997 24.9953 51.0497 24.8522 51.0432C24.7092 51.0367 24.5744 50.9743 24.477 50.8693L24.2441 50.6086L25.5893 49.3921L25.8152 49.625C25.8671 49.6772 25.9078 49.7396 25.9347 49.8082C25.9615 49.8768 25.9741 49.9501 25.9714 50.0238C25.9688 50.0974 25.9512 50.1697 25.9195 50.2362C25.8879 50.3027 25.8429 50.362 25.7874 50.4105Z" fill="#FEBE10"/>
<path d="M23.9561 45.1445C24.0446 45.0648 24.1612 45.0235 24.2801 45.0297C24.3991 45.0359 24.5107 45.0891 24.5905 45.1775C24.6702 45.266 24.7115 45.3826 24.7053 45.5016C24.6991 45.6205 24.6459 45.7321 24.5574 45.8119L24.0847 46.2394C23.9635 45.9376 23.8602 45.6288 23.7754 45.3148L23.9561 45.1445Z" fill="white"/>
<path d="M23.0346 35.1238C22.9926 35.164 22.9674 35.2187 22.9642 35.2768C22.961 35.3348 22.9799 35.392 23.0172 35.4366L27.2125 40.0768C27.2518 40.1204 27.3068 40.1466 27.3654 40.1499C27.424 40.1531 27.4815 40.1331 27.5254 40.0942C27.5694 40.0554 27.5964 40.0007 27.6003 39.9421C27.6042 39.8835 27.5847 39.8257 27.5462 39.7814L23.3475 35.1412C23.3077 35.0984 23.2529 35.0727 23.1945 35.0694C23.1362 35.0662 23.0789 35.0857 23.0346 35.1238Z" fill="#371400"/>
<path d="M23.4062 37.2025C23.3847 37.2216 23.3672 37.2448 23.3547 37.2708C23.3422 37.2967 23.335 37.3248 23.3334 37.3535C23.3317 37.3823 23.3358 37.411 23.3453 37.4382C23.3548 37.4653 23.3696 37.4904 23.3888 37.5118L25.1892 39.5035C25.2298 39.5413 25.2831 39.5626 25.3387 39.5632C25.3942 39.5637 25.4479 39.5435 25.4893 39.5065C25.5306 39.4695 25.5567 39.4184 25.5623 39.3631C25.5678 39.3079 25.5526 39.2526 25.5194 39.208L23.7224 37.2164C23.6821 37.1731 23.6263 37.1473 23.5671 37.1447C23.508 37.1421 23.4502 37.1629 23.4062 37.2025Z" fill="#371400"/>
<path d="M23.0245 38.4607C22.9815 38.5011 22.9557 38.5565 22.9525 38.6154C22.9493 38.6743 22.9688 38.7322 23.0072 38.777L23.9109 39.7746C23.9529 39.8149 24.009 39.8375 24.0673 39.8375C24.1256 39.8375 24.1816 39.8149 24.2237 39.7746C24.2678 39.7358 24.2947 39.6811 24.2986 39.6225C24.3025 39.5638 24.2831 39.5061 24.2445 39.4618L23.3478 38.4607C23.327 38.4387 23.302 38.4212 23.2742 38.4093C23.2464 38.3973 23.2164 38.3911 23.1862 38.3911C23.1559 38.3911 23.126 38.3973 23.0982 38.4093C23.0704 38.4212 23.0453 38.4387 23.0245 38.4607Z" fill="#371400"/>
<path d="M48.5818 8.04736H10.7998V8.93369H48.5818V8.04736Z" fill="#371400"/>
</svg>
