<svg width="59" height="59" viewBox="0 0 59 59" fill="none" xmlns="http://www.w3.org/2000/svg">
<rect x="0.538086" y="0.929932" width="57.934" height="57.934" rx="5.74571" fill="white"/>
<path d="M12.3047 27.3647L50.8296 26.1238L51.2885 40.2156L12.7566 41.4705L12.3047 27.3647Z" fill="#1F1F38"/>
<path d="M47.9691 37.2124L49.5507 38.9122L42.5916 44.9014L42.3379 39.5379L47.9691 37.2124Z" fill="#1F1F38"/>
<path d="M21.0642 38.617C20.5599 38.6498 20.0548 38.5677 19.587 38.3768C19.1191 38.1859 18.7007 37.8913 18.3633 37.5151C17.6193 36.6674 17.2167 35.5735 17.2336 34.4458C17.139 33.2717 17.471 32.103 18.1686 31.154C18.4928 30.7383 18.9072 30.4019 19.3805 30.17C19.8539 29.9382 20.3737 29.817 20.9008 29.8157C21.4017 29.7839 21.9031 29.867 22.367 30.0586C22.8309 30.2502 23.2448 30.5452 23.5774 30.9211C24.3155 31.7937 24.7076 32.9069 24.6793 34.0495C24.7729 35.2164 24.4393 36.3776 23.7407 37.317C23.4259 37.7264 23.0202 38.0569 22.5557 38.2826C22.0912 38.5082 21.5806 38.6227 21.0642 38.617ZM20.9077 31.4668C20.6245 31.4696 20.3467 31.5445 20.1004 31.6843C19.8541 31.8242 19.6475 32.0245 19.4999 32.2663C19.1403 32.8742 18.9765 33.5781 19.0307 34.2824C19.0152 34.9895 19.2245 35.6832 19.6286 36.2637C19.7927 36.4838 20.0074 36.6612 20.2545 36.7808C20.5017 36.9004 20.774 36.9588 21.0484 36.951C21.3229 36.9431 21.5914 36.8693 21.8313 36.7358C22.0712 36.6022 22.2755 36.4129 22.4268 36.1838C22.7893 35.5837 22.9489 34.8829 22.8821 34.1851C22.9011 33.4626 22.7011 32.7514 22.3086 32.1446C22.1515 31.9224 21.9405 31.7437 21.6955 31.6251C21.4505 31.5066 21.1795 31.4521 20.9077 31.4668Z" fill="white"/>
<path d="M29.8234 31.2302L27.1399 31.3171L27.2094 33.4028L29.6774 33.3263L29.726 34.8801L27.2615 34.96L27.3623 38.2623L25.6521 38.3144L25.374 29.8085L29.7712 29.666L29.8234 31.2302Z" fill="white"/>
<path d="M35.0382 31.0671L32.3512 31.154L32.4207 33.2397L34.8922 33.1597L34.9409 34.717L32.4764 34.7935L32.5772 38.0957L30.8669 38.1513L30.5889 29.642L34.986 29.5029L35.0382 31.0671Z" fill="white"/>
<path d="M40.6449 37.835L36.0808 37.9845L35.8027 29.4786L40.193 29.3396L40.2416 30.9003L37.5686 30.9872L37.6277 32.8817L40.113 32.8052L40.1652 34.359L37.6798 34.4389L37.7389 36.3855L40.5892 36.2882L40.6449 37.835Z" fill="white"/>
<path d="M47.812 37.6019L45.848 37.661L44.5862 35.5163C44.5047 35.3669 44.4153 35.2218 44.3186 35.0818C44.2403 34.9652 44.1531 34.8548 44.0579 34.7516C43.9784 34.669 43.887 34.5987 43.7867 34.543C43.695 34.4978 43.5935 34.4763 43.4913 34.4804L43.0324 34.5013L43.1367 37.7583L41.4265 37.8105L41.1484 29.3046L43.8667 29.2142C45.709 29.1551 46.6649 29.8921 46.7101 31.4424C46.718 31.7203 46.6852 31.9978 46.6128 32.2662C46.4795 32.7578 46.1828 33.1893 45.7716 33.4898C45.563 33.6512 45.3277 33.7747 45.0764 33.8547V33.8825C45.2025 33.9222 45.3203 33.9846 45.424 34.0668C45.5403 34.158 45.6484 34.2592 45.7472 34.3692C45.8529 34.4886 45.9515 34.6139 46.0427 34.7446C46.1365 34.8732 46.2234 35.0053 46.3034 35.1339L47.812 37.6019ZM42.9177 30.6846L42.9977 33.0483L43.7381 33.0205C43.902 33.0235 44.0647 32.9919 44.2157 32.9278C44.3666 32.8637 44.5023 32.7686 44.614 32.6486C44.8309 32.3989 44.943 32.0751 44.9269 31.7448C44.9026 30.994 44.4924 30.6394 43.6929 30.6637L42.9177 30.6846Z" fill="white"/>
<path d="M7.83789 16.9822L47.4057 14.834L48.0974 26.225L8.5331 28.3836L7.83789 16.9822Z" fill="#FFCB00"/>
<path d="M13.2605 25.349L13.2084 24.4C13.314 24.4948 13.4307 24.5765 13.556 24.6433C13.6923 24.7129 13.8341 24.771 13.98 24.8172C14.1249 24.863 14.2739 24.8944 14.425 24.911C14.5607 24.9311 14.6981 24.9381 14.8352 24.9319C15.1774 24.9375 15.5104 24.8203 15.7737 24.6016C15.8767 24.4957 15.9542 24.3677 16.0006 24.2274C16.047 24.0872 16.0609 23.9382 16.0413 23.7917C16.0387 23.6232 15.9932 23.4581 15.9092 23.312C15.8254 23.1753 15.721 23.0522 15.5999 22.947C15.4539 22.8344 15.2993 22.7333 15.1376 22.6446C14.9638 22.5473 14.79 22.4534 14.5744 22.3492C14.3589 22.2449 14.1539 22.1232 13.9731 22.0016C13.7948 21.8919 13.6313 21.7599 13.4864 21.6088C13.3413 21.4669 13.2235 21.2996 13.1388 21.1152C13.0458 20.9059 12.995 20.6802 12.9894 20.4512C12.9663 20.1703 13.0104 19.8879 13.118 19.6274C13.2209 19.4008 13.3688 19.1974 13.5525 19.0295C13.7411 18.8629 13.9608 18.7353 14.199 18.6541C14.4378 18.5669 14.6888 18.5176 14.9429 18.5081C15.3826 18.4526 15.8291 18.5112 16.2395 18.6785L16.2916 19.5822C15.8838 19.3058 15.3912 19.1826 14.9012 19.2346C14.7481 19.2443 14.5965 19.2712 14.4493 19.3146C14.3065 19.3593 14.1716 19.4262 14.0496 19.5127C13.9328 19.6053 13.8398 19.7245 13.7784 19.8603C13.71 20.0129 13.6801 20.1801 13.6915 20.347C13.6952 20.5043 13.7344 20.6588 13.8062 20.7988C13.8738 20.9308 13.9658 21.0488 14.0774 21.1465C14.2066 21.2535 14.345 21.3489 14.491 21.4315C14.6579 21.5184 14.8386 21.6227 15.0576 21.7269C15.2766 21.8312 15.4852 21.9529 15.6833 22.0745C15.8744 22.1905 16.0496 22.3307 16.2047 22.4917C16.3568 22.6436 16.4825 22.8198 16.5767 23.0131C16.6775 23.2254 16.7343 23.456 16.7435 23.6909C16.7667 23.986 16.7252 24.2826 16.6218 24.5599C16.5292 24.7924 16.3798 24.9979 16.1873 25.1578C15.9957 25.3154 15.7748 25.4336 15.5373 25.5054C15.2773 25.5882 15.0071 25.635 14.7344 25.6445C14.6187 25.6543 14.5024 25.6543 14.3867 25.6445C14.2446 25.636 14.103 25.6198 13.9627 25.5958C13.8217 25.5692 13.6824 25.5344 13.5455 25.4915C13.4461 25.4533 13.3507 25.4056 13.2605 25.349Z" fill="white"/>
<path d="M18.6029 22.7139L18.7454 25.314L18.0502 25.3487L17.6748 18.4662L19.3085 18.3793C19.5775 18.3485 19.8499 18.3733 20.1088 18.4523C20.3677 18.5312 20.6077 18.6625 20.8137 18.8381C21.0084 19.0335 21.1625 19.2656 21.2669 19.521C21.3713 19.7764 21.424 20.0499 21.422 20.3258C21.476 20.9144 21.2976 21.5008 20.9249 21.9596C20.7325 22.1796 20.496 22.3568 20.2307 22.4795C19.9654 22.6023 19.6773 22.6679 19.385 22.6722L18.6029 22.7139ZM18.4117 19.1614L18.5716 21.9874L19.2981 21.9422C19.4965 21.9523 19.6946 21.918 19.8782 21.8419C20.0617 21.7659 20.226 21.6499 20.3591 21.5025C20.4922 21.3551 20.5908 21.1798 20.6478 20.9896C20.7048 20.7993 20.7187 20.5987 20.6885 20.4023C20.6364 19.4916 20.1498 19.0675 19.2286 19.1162L18.4117 19.1614Z" fill="white"/>
<path d="M25.9412 24.9247L22.7953 25.095L22.4199 18.2124L25.4267 18.0491L25.4684 18.779L23.1603 18.9007L23.2785 21.1845L25.4197 21.0732L25.4615 21.7962L23.3237 21.9075L23.4523 24.3129L25.9029 24.1843L25.9412 24.9247Z" fill="white"/>
<path d="M31.103 24.3583C30.6212 24.6716 30.0613 24.8438 29.4867 24.8554C29.098 24.889 28.7069 24.831 28.3447 24.6862C27.9825 24.5413 27.6593 24.3135 27.4011 24.0211C26.8303 23.3381 26.5146 22.478 26.5077 21.5879C26.4009 20.6296 26.6482 19.6653 27.2029 18.8766C27.4453 18.5386 27.7617 18.2605 28.128 18.0635C28.4943 17.8665 28.9007 17.7558 29.3163 17.7399C29.7979 17.6902 30.2843 17.7619 30.7311 17.9485L30.7763 18.8071C30.3453 18.5546 29.8499 18.4337 29.3511 18.4595C29.0316 18.4692 28.7189 18.5539 28.4382 18.7066C28.1574 18.8594 27.9165 19.076 27.7347 19.3389C27.3188 19.9762 27.1347 20.7371 27.2133 21.4941C27.2115 22.2125 27.457 22.9097 27.9085 23.4684C28.1037 23.6974 28.3504 23.8766 28.6284 23.9915C28.9064 24.1063 29.2077 24.1534 29.5075 24.1289C30.059 24.1101 30.5906 23.9179 31.0266 23.5797L31.103 24.3583Z" fill="white"/>
<path d="M33.2307 17.6321L33.2654 18.3273L32.6814 18.3621L32.9804 23.8646L33.5609 23.8264L33.5956 24.5216L31.7464 24.6259L31.7082 23.9307L32.2921 23.8994L31.9967 18.3968L31.4162 18.4316L31.3779 17.7364L33.2307 17.6321Z" fill="white"/>
<path d="M39.1741 24.2122L38.3989 24.2539L37.669 22.3595L35.1593 22.4985L34.6726 24.4625L33.8975 24.5042L35.8197 17.5034L36.5427 17.4583L39.1741 24.2122ZM37.4013 21.6399L36.3133 18.7444C36.2641 18.5982 36.2269 18.4482 36.2021 18.296H36.1847C36.1704 18.4536 36.1471 18.6103 36.1152 18.7652L35.3505 21.7442L37.4013 21.6399Z" fill="white"/>
<path d="M43.1197 23.9932L40.0434 24.16L39.668 17.274L40.3632 17.2427L40.7108 23.3953L43.0919 23.2632L43.1197 23.9932Z" fill="white"/>
<path d="M13.2605 25.349L13.2084 24.4C13.314 24.4948 13.4307 24.5765 13.556 24.6433C13.6923 24.7129 13.8341 24.771 13.98 24.8172C14.1249 24.863 14.2739 24.8944 14.425 24.911C14.5607 24.9311 14.6981 24.9381 14.8352 24.9319C15.1774 24.9375 15.5104 24.8203 15.7737 24.6016C15.8767 24.4957 15.9542 24.3677 16.0006 24.2274C16.047 24.0872 16.0609 23.9382 16.0413 23.7917C16.0387 23.6232 15.9932 23.4581 15.9092 23.312C15.8254 23.1753 15.721 23.0522 15.5999 22.947C15.4539 22.8344 15.2993 22.7333 15.1376 22.6446C14.9638 22.5473 14.79 22.4534 14.5744 22.3492C14.3589 22.2449 14.1539 22.1232 13.9731 22.0016C13.7948 21.8919 13.6313 21.7599 13.4864 21.6088C13.3413 21.4669 13.2235 21.2996 13.1388 21.1152C13.0458 20.9059 12.995 20.6802 12.9894 20.4512C12.9663 20.1703 13.0104 19.8879 13.118 19.6274C13.2209 19.4008 13.3688 19.1974 13.5525 19.0295C13.7411 18.8629 13.9608 18.7353 14.199 18.6541C14.4378 18.5669 14.6888 18.5176 14.9429 18.5081C15.3826 18.4526 15.8291 18.5112 16.2395 18.6785L16.2916 19.5822C15.8838 19.3058 15.3912 19.1826 14.9012 19.2346C14.7481 19.2443 14.5965 19.2712 14.4493 19.3146C14.3065 19.3593 14.1716 19.4262 14.0496 19.5127C13.9328 19.6053 13.8398 19.7245 13.7784 19.8603C13.71 20.0129 13.6801 20.1801 13.6915 20.347C13.6952 20.5043 13.7344 20.6588 13.8062 20.7988C13.8738 20.9308 13.9658 21.0488 14.0774 21.1465C14.2066 21.2535 14.345 21.3489 14.491 21.4315C14.6579 21.5184 14.8386 21.6227 15.0576 21.7269C15.2766 21.8312 15.4852 21.9529 15.6833 22.0745C15.8744 22.1905 16.0496 22.3307 16.2047 22.4917C16.3568 22.6436 16.4825 22.8198 16.5767 23.0131C16.6775 23.2254 16.7343 23.456 16.7435 23.6909C16.7667 23.986 16.7252 24.2826 16.6218 24.5599C16.5292 24.7924 16.3798 24.9979 16.1873 25.1578C15.9957 25.3154 15.7748 25.4336 15.5373 25.5054C15.2773 25.5882 15.0071 25.635 14.7344 25.6445C14.6187 25.6543 14.5024 25.6543 14.3867 25.6445C14.2446 25.636 14.103 25.6198 13.9627 25.5958C13.8217 25.5692 13.6824 25.5344 13.5455 25.4915C13.4461 25.4533 13.3507 25.4056 13.2605 25.349Z" fill="#1F1F38"/>
<path d="M18.6029 22.7139L18.7454 25.314L18.0502 25.3487L17.6748 18.4662L19.3085 18.3793C19.5775 18.3485 19.8499 18.3733 20.1088 18.4523C20.3677 18.5312 20.6077 18.6625 20.8137 18.8381C21.0084 19.0335 21.1625 19.2656 21.2669 19.521C21.3713 19.7764 21.424 20.0499 21.422 20.3258C21.476 20.9144 21.2976 21.5008 20.9249 21.9596C20.7325 22.1796 20.496 22.3568 20.2307 22.4795C19.9654 22.6023 19.6773 22.6679 19.385 22.6722L18.6029 22.7139ZM18.4117 19.1614L18.5716 21.9874L19.2981 21.9422C19.4965 21.9523 19.6946 21.918 19.8782 21.8419C20.0617 21.7659 20.226 21.6499 20.3591 21.5025C20.4922 21.3551 20.5908 21.1798 20.6478 20.9896C20.7048 20.7993 20.7187 20.5987 20.6885 20.4023C20.6364 19.4916 20.1498 19.0675 19.2286 19.1162L18.4117 19.1614Z" fill="#1F1F38"/>
<path d="M25.9412 24.9247L22.7953 25.095L22.4199 18.2124L25.4267 18.0491L25.4684 18.779L23.1603 18.9007L23.2785 21.1845L25.4197 21.0732L25.4615 21.7962L23.3237 21.9075L23.4523 24.3129L25.9029 24.1843L25.9412 24.9247Z" fill="#1F1F38"/>
<path d="M31.103 24.3583C30.6212 24.6716 30.0613 24.8438 29.4867 24.8554C29.098 24.889 28.7069 24.831 28.3447 24.6862C27.9825 24.5413 27.6593 24.3135 27.4011 24.0211C26.8303 23.3381 26.5146 22.478 26.5077 21.5879C26.4009 20.6296 26.6482 19.6653 27.2029 18.8766C27.4453 18.5386 27.7617 18.2605 28.128 18.0635C28.4943 17.8665 28.9007 17.7558 29.3163 17.7399C29.7979 17.6902 30.2843 17.7619 30.7311 17.9485L30.7763 18.8071C30.3453 18.5546 29.8499 18.4337 29.3511 18.4595C29.0316 18.4692 28.7189 18.5539 28.4382 18.7066C28.1574 18.8594 27.9165 19.076 27.7347 19.3389C27.3188 19.9762 27.1347 20.7371 27.2133 21.4941C27.2115 22.2125 27.457 22.9097 27.9085 23.4684C28.1037 23.6974 28.3504 23.8766 28.6284 23.9915C28.9064 24.1063 29.2077 24.1534 29.5075 24.1289C30.059 24.1101 30.5906 23.9179 31.0266 23.5797L31.103 24.3583Z" fill="#1F1F38"/>
<path d="M33.2307 17.6321L33.2654 18.3273L32.6814 18.3621L32.9804 23.8646L33.5609 23.8264L33.5956 24.5216L31.7464 24.6259L31.7082 23.9307L32.2921 23.8994L31.9967 18.3968L31.4162 18.4316L31.3779 17.7364L33.2307 17.6321Z" fill="#1F1F38"/>
<path d="M39.1741 24.2122L38.3989 24.2539L37.669 22.3595L35.1593 22.4985L34.6726 24.4625L33.8975 24.5042L35.8197 17.5034L36.5427 17.4583L39.1741 24.2122ZM37.4013 21.6399L36.3133 18.7444C36.2641 18.5982 36.2269 18.4482 36.2021 18.296H36.1847C36.1704 18.4536 36.1471 18.6103 36.1152 18.7652L35.3505 21.7442L37.4013 21.6399Z" fill="#1F1F38"/>
<path d="M43.1197 23.9932L40.0434 24.16L39.668 17.274L40.3632 17.2427L40.7108 23.3953L43.0919 23.2632L43.1197 23.9932Z" fill="#1F1F38"/>
<path d="M13.2605 25.349L13.2084 24.4C13.314 24.4948 13.4307 24.5765 13.556 24.6433C13.6923 24.7129 13.8341 24.771 13.98 24.8172C14.1249 24.863 14.2739 24.8944 14.425 24.911C14.5607 24.9311 14.6981 24.9381 14.8352 24.9319C15.1774 24.9375 15.5104 24.8203 15.7737 24.6016C15.8767 24.4957 15.9542 24.3677 16.0006 24.2274C16.047 24.0872 16.0609 23.9382 16.0413 23.7917C16.0387 23.6232 15.9932 23.4581 15.9092 23.312C15.8254 23.1753 15.721 23.0522 15.5999 22.947C15.4539 22.8344 15.2993 22.7333 15.1376 22.6446C14.9638 22.5473 14.79 22.4534 14.5744 22.3492C14.3589 22.2449 14.1539 22.1232 13.9731 22.0016C13.7948 21.8919 13.6313 21.7599 13.4864 21.6088C13.3413 21.4669 13.2235 21.2996 13.1388 21.1152C13.0458 20.9059 12.995 20.6802 12.9894 20.4512C12.9663 20.1703 13.0104 19.8879 13.118 19.6274C13.2209 19.4008 13.3688 19.1974 13.5525 19.0295C13.7411 18.8629 13.9608 18.7353 14.199 18.6541C14.4378 18.5669 14.6888 18.5176 14.9429 18.5081C15.3826 18.4526 15.8291 18.5112 16.2395 18.6785L16.2916 19.5822C15.8838 19.3058 15.3912 19.1826 14.9012 19.2346C14.7481 19.2443 14.5965 19.2712 14.4493 19.3146C14.3065 19.3593 14.1716 19.4262 14.0496 19.5127C13.9328 19.6053 13.8398 19.7245 13.7784 19.8603C13.71 20.0129 13.6801 20.1801 13.6915 20.347C13.6952 20.5043 13.7344 20.6588 13.8062 20.7988C13.8738 20.9308 13.9658 21.0488 14.0774 21.1465C14.2066 21.2535 14.345 21.3489 14.491 21.4315C14.6579 21.5184 14.8386 21.6227 15.0576 21.7269C15.2766 21.8312 15.4852 21.9529 15.6833 22.0745C15.8744 22.1905 16.0496 22.3307 16.2047 22.4917C16.3568 22.6436 16.4825 22.8198 16.5767 23.0131C16.6775 23.2254 16.7343 23.456 16.7435 23.6909C16.7667 23.986 16.7252 24.2826 16.6218 24.5599C16.5292 24.7924 16.3798 24.9979 16.1873 25.1578C15.9957 25.3154 15.7748 25.4336 15.5373 25.5054C15.2773 25.5882 15.0071 25.635 14.7344 25.6445C14.6187 25.6543 14.5024 25.6543 14.3867 25.6445C14.2446 25.636 14.103 25.6198 13.9627 25.5958C13.8217 25.5692 13.6824 25.5344 13.5455 25.4915C13.4461 25.4533 13.3507 25.4056 13.2605 25.349Z" fill="#1F1F38"/>
<path d="M18.6029 22.7139L18.7454 25.314L18.0502 25.3487L17.6748 18.4662L19.3085 18.3793C19.5775 18.3485 19.8499 18.3733 20.1088 18.4523C20.3677 18.5312 20.6077 18.6625 20.8137 18.8381C21.0084 19.0335 21.1625 19.2656 21.2669 19.521C21.3713 19.7764 21.424 20.0499 21.422 20.3258C21.476 20.9144 21.2976 21.5008 20.9249 21.9596C20.7325 22.1796 20.496 22.3568 20.2307 22.4795C19.9654 22.6023 19.6773 22.6679 19.385 22.6722L18.6029 22.7139ZM18.4117 19.1614L18.5716 21.9874L19.2981 21.9422C19.4965 21.9523 19.6946 21.918 19.8782 21.8419C20.0617 21.7659 20.226 21.6499 20.3591 21.5025C20.4922 21.3551 20.5908 21.1798 20.6478 20.9896C20.7048 20.7993 20.7187 20.5987 20.6885 20.4023C20.6364 19.4916 20.1498 19.0675 19.2286 19.1162L18.4117 19.1614Z" fill="#1F1F38"/>
<path d="M25.9412 24.9247L22.7953 25.095L22.4199 18.2124L25.4267 18.0491L25.4684 18.779L23.1603 18.9007L23.2785 21.1845L25.4197 21.0732L25.4615 21.7962L23.3237 21.9075L23.4523 24.3129L25.9029 24.1843L25.9412 24.9247Z" fill="#1F1F38"/>
<path d="M31.103 24.3583C30.6212 24.6716 30.0613 24.8438 29.4867 24.8554C29.098 24.889 28.7069 24.831 28.3447 24.6862C27.9825 24.5413 27.6593 24.3135 27.4011 24.0211C26.8303 23.3381 26.5146 22.478 26.5077 21.5879C26.4009 20.6296 26.6482 19.6653 27.2029 18.8766C27.4453 18.5386 27.7617 18.2605 28.128 18.0635C28.4943 17.8665 28.9007 17.7558 29.3163 17.7399C29.7979 17.6902 30.2843 17.7619 30.7311 17.9485L30.7763 18.8071C30.3453 18.5546 29.8499 18.4337 29.3511 18.4595C29.0316 18.4692 28.7189 18.5539 28.4382 18.7066C28.1574 18.8594 27.9165 19.076 27.7347 19.3389C27.3188 19.9762 27.1347 20.7371 27.2133 21.4941C27.2115 22.2125 27.457 22.9097 27.9085 23.4684C28.1037 23.6974 28.3504 23.8766 28.6284 23.9915C28.9064 24.1063 29.2077 24.1534 29.5075 24.1289C30.059 24.1101 30.5906 23.9179 31.0266 23.5797L31.103 24.3583Z" fill="#1F1F38"/>
<path d="M33.2307 17.6321L33.2654 18.3273L32.6814 18.3621L32.9804 23.8646L33.5609 23.8264L33.5956 24.5216L31.7464 24.6259L31.7082 23.9307L32.2921 23.8994L31.9967 18.3968L31.4162 18.4316L31.3779 17.7364L33.2307 17.6321Z" fill="#1F1F38"/>
<path d="M39.1741 24.2122L38.3989 24.2539L37.669 22.3595L35.1593 22.4985L34.6726 24.4625L33.8975 24.5042L35.8197 17.5034L36.5427 17.4583L39.1741 24.2122ZM37.4013 21.6399L36.3133 18.7444C36.2641 18.5982 36.2269 18.4482 36.2021 18.296H36.1847C36.1704 18.4536 36.1471 18.6103 36.1152 18.7652L35.3505 21.7442L37.4013 21.6399Z" fill="#1F1F38"/>
<path d="M43.1197 23.9932L40.0434 24.16L39.668 17.274L40.3632 17.2427L40.7108 23.3953L43.0919 23.2632L43.1197 23.9932Z" fill="#1F1F38"/>
<path d="M13.2605 25.349L13.2084 24.4C13.314 24.4948 13.4307 24.5765 13.556 24.6433C13.6923 24.7129 13.8341 24.771 13.98 24.8172C14.1249 24.863 14.2739 24.8944 14.425 24.911C14.5607 24.9311 14.6981 24.9381 14.8352 24.9319C15.1774 24.9375 15.5104 24.8203 15.7737 24.6016C15.8767 24.4957 15.9542 24.3677 16.0006 24.2274C16.047 24.0872 16.0609 23.9382 16.0413 23.7917C16.0387 23.6232 15.9932 23.4581 15.9092 23.312C15.8254 23.1753 15.721 23.0522 15.5999 22.947C15.4539 22.8344 15.2993 22.7333 15.1376 22.6446C14.9638 22.5473 14.79 22.4534 14.5744 22.3492C14.3589 22.2449 14.1539 22.1232 13.9731 22.0016C13.7948 21.8919 13.6313 21.7599 13.4864 21.6088C13.3413 21.4669 13.2235 21.2996 13.1388 21.1152C13.0458 20.9059 12.995 20.6802 12.9894 20.4512C12.9663 20.1703 13.0104 19.8879 13.118 19.6274C13.2209 19.4008 13.3688 19.1974 13.5525 19.0295C13.7411 18.8629 13.9608 18.7353 14.199 18.6541C14.4378 18.5669 14.6888 18.5176 14.9429 18.5081C15.3826 18.4526 15.8291 18.5112 16.2395 18.6785L16.2916 19.5822C15.8838 19.3058 15.3912 19.1826 14.9012 19.2346C14.7481 19.2443 14.5965 19.2712 14.4493 19.3146C14.3065 19.3593 14.1716 19.4262 14.0496 19.5127C13.9328 19.6053 13.8398 19.7245 13.7784 19.8603C13.71 20.0129 13.6801 20.1801 13.6915 20.347C13.6952 20.5043 13.7344 20.6588 13.8062 20.7988C13.8738 20.9308 13.9658 21.0488 14.0774 21.1465C14.2066 21.2535 14.345 21.3489 14.491 21.4315C14.6579 21.5184 14.8386 21.6227 15.0576 21.7269C15.2766 21.8312 15.4852 21.9529 15.6833 22.0745C15.8744 22.1905 16.0496 22.3307 16.2047 22.4917C16.3568 22.6436 16.4825 22.8198 16.5767 23.0131C16.6775 23.2254 16.7343 23.456 16.7435 23.6909C16.7667 23.986 16.7252 24.2826 16.6218 24.5599C16.5292 24.7924 16.3798 24.9979 16.1873 25.1578C15.9957 25.3154 15.7748 25.4336 15.5373 25.5054C15.2773 25.5882 15.0071 25.635 14.7344 25.6445C14.6187 25.6543 14.5024 25.6543 14.3867 25.6445C14.2446 25.636 14.103 25.6198 13.9627 25.5958C13.8217 25.5692 13.6824 25.5344 13.5455 25.4915C13.4461 25.4533 13.3507 25.4056 13.2605 25.349Z" fill="#1F1F38"/>
<path d="M18.6029 22.7139L18.7454 25.314L18.0502 25.3487L17.6748 18.4662L19.3085 18.3793C19.5775 18.3485 19.8499 18.3733 20.1088 18.4523C20.3677 18.5312 20.6077 18.6625 20.8137 18.8381C21.0084 19.0335 21.1625 19.2656 21.2669 19.521C21.3713 19.7764 21.424 20.0499 21.422 20.3258C21.476 20.9144 21.2976 21.5008 20.9249 21.9596C20.7325 22.1796 20.496 22.3568 20.2307 22.4795C19.9654 22.6023 19.6773 22.6679 19.385 22.6722L18.6029 22.7139ZM18.4117 19.1614L18.5716 21.9874L19.2981 21.9422C19.4965 21.9523 19.6946 21.918 19.8782 21.8419C20.0617 21.7659 20.226 21.6499 20.3591 21.5025C20.4922 21.3551 20.5908 21.1798 20.6478 20.9896C20.7048 20.7993 20.7187 20.5987 20.6885 20.4023C20.6364 19.4916 20.1498 19.0675 19.2286 19.1162L18.4117 19.1614Z" fill="#1F1F38"/>
<path d="M25.9412 24.9247L22.7953 25.095L22.4199 18.2124L25.4267 18.0491L25.4684 18.779L23.1603 18.9007L23.2785 21.1845L25.4197 21.0732L25.4615 21.7962L23.3237 21.9075L23.4523 24.3129L25.9029 24.1843L25.9412 24.9247Z" fill="#1F1F38"/>
<path d="M31.103 24.3583C30.6212 24.6716 30.0613 24.8438 29.4867 24.8554C29.098 24.889 28.7069 24.831 28.3447 24.6862C27.9825 24.5413 27.6593 24.3135 27.4011 24.0211C26.8303 23.3381 26.5146 22.478 26.5077 21.5879C26.4009 20.6296 26.6482 19.6653 27.2029 18.8766C27.4453 18.5386 27.7617 18.2605 28.128 18.0635C28.4943 17.8665 28.9007 17.7558 29.3163 17.7399C29.7979 17.6902 30.2843 17.7619 30.7311 17.9485L30.7763 18.8071C30.3453 18.5546 29.8499 18.4337 29.3511 18.4595C29.0316 18.4692 28.7189 18.5539 28.4382 18.7066C28.1574 18.8594 27.9165 19.076 27.7347 19.3389C27.3188 19.9762 27.1347 20.7371 27.2133 21.4941C27.2115 22.2125 27.457 22.9097 27.9085 23.4684C28.1037 23.6974 28.3504 23.8766 28.6284 23.9915C28.9064 24.1063 29.2077 24.1534 29.5075 24.1289C30.059 24.1101 30.5906 23.9179 31.0266 23.5797L31.103 24.3583Z" fill="#1F1F38"/>
<path d="M33.2307 17.6321L33.2654 18.3273L32.6814 18.3621L32.9804 23.8646L33.5609 23.8264L33.5956 24.5216L31.7464 24.6259L31.7082 23.9307L32.2921 23.8994L31.9967 18.3968L31.4162 18.4316L31.3779 17.7364L33.2307 17.6321Z" fill="#1F1F38"/>
<path d="M39.1741 24.2122L38.3989 24.2539L37.669 22.3595L35.1593 22.4985L34.6726 24.4625L33.8975 24.5042L35.8197 17.5034L36.5427 17.4583L39.1741 24.2122ZM37.4013 21.6399L36.3133 18.7444C36.2641 18.5982 36.2269 18.4482 36.2021 18.296H36.1847C36.1704 18.4536 36.1471 18.6103 36.1152 18.7652L35.3505 21.7442L37.4013 21.6399Z" fill="#1F1F38"/>
<path d="M43.1197 23.9932L40.0434 24.16L39.668 17.274L40.3632 17.2427L40.7108 23.3953L43.0919 23.2632L43.1197 23.9932Z" fill="#1F1F38"/>
<path d="M12.8187 26.5896L15.45 27.2361L15.1824 31.4387L10.375 27.5455L12.8187 26.5896Z" fill="#FFCB00"/>
</svg>
