<svg width="59" height="59" viewBox="0 0 59 59" fill="none" xmlns="http://www.w3.org/2000/svg">
<rect x="0.868164" y="0.929932" width="57.934" height="57.934" rx="5.74571" fill="white"/>
<path d="M35.2344 32.5799H9.35528C9.00956 32.5799 8.67801 32.4426 8.43355 32.1982C8.1891 31.9537 8.05176 31.6221 8.05176 31.2764V25.9859C8.0513 25.8146 8.08471 25.6449 8.15005 25.4865C8.2154 25.3282 8.3114 25.1843 8.43253 25.0632C8.55366 24.942 8.69754 24.846 8.8559 24.7807C9.01426 24.7153 9.18397 24.6819 9.35528 24.6824H10.3529L12.7097 26.4204L15.3584 24.6824H35.2448V32.5799H35.2344Z" fill="#011F37"/>
<path d="M51.5024 31.2763C51.5024 31.622 51.3651 31.9536 51.1207 32.198C50.8762 32.4425 50.5446 32.5798 50.1989 32.5798H35.252V24.6892H50.2163C50.3876 24.6888 50.5573 24.7222 50.7157 24.7875C50.874 24.8528 51.0179 24.9488 51.1391 25.07C51.2602 25.1911 51.3562 25.335 51.4215 25.4934C51.4869 25.6517 51.5203 25.8214 51.5198 25.9927L51.5024 31.2763Z" fill="#00F7FF"/>
<path d="M39.1902 30.3135C38.9927 30.3208 38.7961 30.2829 38.6154 30.2028C38.4347 30.1227 38.2747 30.0025 38.1474 29.8512C37.8667 29.514 37.7239 29.0831 37.7477 28.645C37.727 28.1871 37.8713 27.7369 38.1544 27.3763C38.2854 27.2177 38.4509 27.0912 38.6382 27.0062C38.8256 26.9213 39.0298 26.8802 39.2354 26.8861C39.4329 26.8789 39.6295 26.9167 39.8102 26.9968C39.9909 27.0769 40.151 27.1972 40.2782 27.3484C40.5502 27.6979 40.6883 28.1331 40.6675 28.5755C40.6875 29.0307 40.5418 29.4778 40.2574 29.8338C40.1286 29.9908 39.9653 30.1158 39.7801 30.199C39.595 30.2822 39.3931 30.3214 39.1902 30.3135ZM39.2146 27.5327C39.1042 27.5298 38.995 27.5554 38.8976 27.6072C38.8001 27.659 38.7177 27.7351 38.6584 27.8281C38.5091 28.062 38.4362 28.3366 38.4498 28.6137C38.4341 28.8889 38.5072 29.1619 38.6584 29.3924C38.7172 29.4814 38.7973 29.5543 38.8913 29.6047C38.9854 29.6551 39.0905 29.6812 39.1972 29.6809C39.3038 29.682 39.4092 29.6573 39.5042 29.6089C39.5993 29.5605 39.6812 29.4898 39.7429 29.4028C39.8925 29.1732 39.9633 28.9011 39.9445 28.6276C39.9597 28.3469 39.8894 28.0681 39.7429 27.8281C39.6907 27.7347 39.6138 27.6573 39.5206 27.6046C39.4275 27.5519 39.3216 27.5258 39.2146 27.5292V27.5327Z" fill="white"/>
<path d="M42.6799 27.5501H41.6371V28.3635H42.593V28.9718H41.6371V30.2579H40.9697V26.9487H42.6799V27.5501Z" fill="white"/>
<path d="M44.7239 27.5501H43.6811V28.3635H44.6405V28.9718H43.6811V30.2579H43.0137V26.9487H44.7239V27.5501Z" fill="white"/>
<path d="M46.8099 30.2511H45.0371V26.9419H46.7404V27.5502H45.6976V28.2871H46.6604V28.8954H45.6976V29.6532H46.8099V30.2511Z" fill="white"/>
<path d="M49.5903 30.2511H48.829L48.3667 29.3995L48.2694 29.2257C48.2414 29.1793 48.2101 29.1352 48.1755 29.0936C48.1434 29.0626 48.1085 29.0347 48.0713 29.0101C48.0365 28.99 47.9967 28.9804 47.9566 28.9823H47.7758V30.2511H47.1084V26.9419H48.1512C48.8742 26.9419 49.2288 27.2443 49.2288 27.8422C49.23 27.9514 49.2159 28.0602 49.1871 28.1655C49.1548 28.2572 49.1116 28.3447 49.0585 28.4262C49.0002 28.5044 48.9284 28.5715 48.8464 28.6243C48.767 28.686 48.676 28.7309 48.5788 28.7564C48.6253 28.7786 48.6696 28.8054 48.7109 28.8363C48.7526 28.8711 48.7873 28.9163 48.829 28.958C48.8708 29.005 48.9092 29.0549 48.9437 29.1075C48.9803 29.1563 49.0118 29.2087 49.0376 29.2639L49.5903 30.2511ZM47.7654 27.505V28.4262H48.0539C48.1183 28.4287 48.1826 28.4177 48.2425 28.3937C48.3024 28.3698 48.3566 28.3334 48.4015 28.2871C48.4888 28.1927 48.5362 28.0681 48.5336 27.9395C48.5336 27.651 48.3772 27.505 48.0713 27.505H47.7654Z" fill="white"/>
<path d="M39.1902 30.3135C38.9927 30.3208 38.7961 30.2829 38.6154 30.2028C38.4347 30.1227 38.2747 30.0025 38.1474 29.8512C37.8667 29.514 37.7239 29.0831 37.7477 28.645C37.727 28.1871 37.8713 27.7369 38.1544 27.3763C38.2854 27.2177 38.4509 27.0912 38.6382 27.0062C38.8256 26.9213 39.0298 26.8802 39.2354 26.8861C39.4329 26.8789 39.6295 26.9167 39.8102 26.9968C39.9909 27.0769 40.151 27.1972 40.2782 27.3484C40.5502 27.6979 40.6883 28.1331 40.6675 28.5755C40.6875 29.0307 40.5418 29.4778 40.2574 29.8338C40.1286 29.9908 39.9653 30.1158 39.7801 30.199C39.595 30.2822 39.3931 30.3214 39.1902 30.3135ZM39.2146 27.5327C39.1042 27.5298 38.995 27.5554 38.8976 27.6072C38.8001 27.659 38.7177 27.7351 38.6584 27.8281C38.5091 28.062 38.4362 28.3366 38.4498 28.6137C38.4341 28.8889 38.5072 29.1619 38.6584 29.3924C38.7172 29.4814 38.7973 29.5543 38.8913 29.6047C38.9854 29.6551 39.0905 29.6812 39.1972 29.6809C39.3038 29.682 39.4092 29.6573 39.5042 29.6089C39.5993 29.5605 39.6812 29.4898 39.7429 29.4028C39.8925 29.1732 39.9633 28.9011 39.9445 28.6276C39.9597 28.3469 39.8894 28.0681 39.7429 27.8281C39.6907 27.7347 39.6138 27.6573 39.5206 27.6046C39.4275 27.5519 39.3216 27.5258 39.2146 27.5292V27.5327Z" fill="#011F37"/>
<path d="M42.6799 27.5501H41.6371V28.3635H42.593V28.9718H41.6371V30.2579H40.9697V26.9487H42.6799V27.5501Z" fill="#011F37"/>
<path d="M44.7239 27.5501H43.6811V28.3635H44.6405V28.9718H43.6811V30.2579H43.0137V26.9487H44.7239V27.5501Z" fill="#011F37"/>
<path d="M46.8099 30.2511H45.0371V26.9419H46.7404V27.5502H45.6976V28.2871H46.6604V28.8954H45.6976V29.6532H46.8099V30.2511Z" fill="#011F37"/>
<path d="M49.5903 30.2511H48.829L48.3667 29.3995L48.2694 29.2257C48.2414 29.1793 48.2101 29.1352 48.1755 29.0936C48.1434 29.0626 48.1085 29.0347 48.0713 29.0101C48.0365 28.99 47.9967 28.9804 47.9566 28.9823H47.7758V30.2511H47.1084V26.9419H48.1512C48.8742 26.9419 49.2288 27.2443 49.2288 27.8422C49.23 27.9514 49.2159 28.0602 49.1871 28.1655C49.1548 28.2572 49.1116 28.3447 49.0585 28.4262C49.0002 28.5044 48.9284 28.5715 48.8464 28.6243C48.767 28.686 48.676 28.7309 48.5788 28.7564C48.6253 28.7786 48.6696 28.8054 48.7109 28.8363C48.7526 28.8711 48.7873 28.9163 48.829 28.958C48.8708 29.005 48.9092 29.0549 48.9437 29.1075C48.9803 29.1563 49.0118 29.2087 49.0376 29.2639L49.5903 30.2511ZM47.7654 27.505V28.4262H48.0539C48.1183 28.4287 48.1826 28.4177 48.2425 28.3937C48.3024 28.3698 48.3566 28.3334 48.4015 28.2871C48.4888 28.1927 48.5362 28.0681 48.5336 27.9395C48.5336 27.651 48.3772 27.505 48.0713 27.505H47.7654Z" fill="#011F37"/>
<path d="M39.1902 30.3135C38.9927 30.3208 38.7961 30.2829 38.6154 30.2028C38.4347 30.1227 38.2747 30.0025 38.1474 29.8512C37.8667 29.514 37.7239 29.0831 37.7477 28.645C37.727 28.1871 37.8713 27.7369 38.1544 27.3763C38.2854 27.2177 38.4509 27.0912 38.6382 27.0062C38.8256 26.9213 39.0298 26.8802 39.2354 26.8861C39.4329 26.8789 39.6295 26.9167 39.8102 26.9968C39.9909 27.0769 40.151 27.1972 40.2782 27.3484C40.5502 27.6979 40.6883 28.1331 40.6675 28.5755C40.6875 29.0307 40.5418 29.4778 40.2574 29.8338C40.1286 29.9908 39.9653 30.1158 39.7801 30.199C39.595 30.2822 39.3931 30.3214 39.1902 30.3135ZM39.2146 27.5327C39.1042 27.5298 38.995 27.5554 38.8976 27.6072C38.8001 27.659 38.7177 27.7351 38.6584 27.8281C38.5091 28.062 38.4362 28.3366 38.4498 28.6137C38.4341 28.8889 38.5072 29.1619 38.6584 29.3924C38.7172 29.4814 38.7973 29.5543 38.8913 29.6047C38.9854 29.6551 39.0905 29.6812 39.1972 29.6809C39.3038 29.682 39.4092 29.6573 39.5042 29.6089C39.5993 29.5605 39.6812 29.4898 39.7429 29.4028C39.8925 29.1732 39.9633 28.9011 39.9445 28.6276C39.9597 28.3469 39.8894 28.0681 39.7429 27.8281C39.6907 27.7347 39.6138 27.6573 39.5206 27.6046C39.4275 27.5519 39.3216 27.5258 39.2146 27.5292V27.5327Z" fill="#011F37"/>
<path d="M42.6799 27.5501H41.6371V28.3635H42.593V28.9718H41.6371V30.2579H40.9697V26.9487H42.6799V27.5501Z" fill="#011F37"/>
<path d="M44.7239 27.5501H43.6811V28.3635H44.6405V28.9718H43.6811V30.2579H43.0137V26.9487H44.7239V27.5501Z" fill="#011F37"/>
<path d="M46.8099 30.2511H45.0371V26.9419H46.7404V27.5502H45.6976V28.2871H46.6604V28.8954H45.6976V29.6532H46.8099V30.2511Z" fill="#011F37"/>
<path d="M49.5903 30.2511H48.829L48.3667 29.3995L48.2694 29.2257C48.2414 29.1793 48.2101 29.1352 48.1755 29.0936C48.1434 29.0626 48.1085 29.0347 48.0713 29.0101C48.0365 28.99 47.9967 28.9804 47.9566 28.9823H47.7758V30.2511H47.1084V26.9419H48.1512C48.8742 26.9419 49.2288 27.2443 49.2288 27.8422C49.23 27.9514 49.2159 28.0602 49.1871 28.1655C49.1548 28.2572 49.1116 28.3447 49.0585 28.4262C49.0002 28.5044 48.9284 28.5715 48.8464 28.6243C48.767 28.686 48.676 28.7309 48.5788 28.7564C48.6253 28.7786 48.6696 28.8054 48.7109 28.8363C48.7526 28.8711 48.7873 28.9163 48.829 28.958C48.8708 29.005 48.9092 29.0549 48.9437 29.1075C48.9803 29.1563 49.0118 29.2087 49.0376 29.2639L49.5903 30.2511ZM47.7654 27.505V28.4262H48.0539C48.1183 28.4287 48.1826 28.4177 48.2425 28.3937C48.3024 28.3698 48.3566 28.3334 48.4015 28.2871C48.4888 28.1927 48.5362 28.0681 48.5336 27.9395C48.5336 27.651 48.3772 27.505 48.0713 27.505H47.7654Z" fill="#011F37"/>
<path d="M39.1902 30.3135C38.9927 30.3208 38.7961 30.2829 38.6154 30.2028C38.4347 30.1227 38.2747 30.0025 38.1474 29.8512C37.8667 29.514 37.7239 29.0831 37.7477 28.645C37.727 28.1871 37.8713 27.7369 38.1544 27.3763C38.2854 27.2177 38.4509 27.0912 38.6382 27.0062C38.8256 26.9213 39.0298 26.8802 39.2354 26.8861C39.4329 26.8789 39.6295 26.9167 39.8102 26.9968C39.9909 27.0769 40.151 27.1972 40.2782 27.3484C40.5502 27.6979 40.6883 28.1331 40.6675 28.5755C40.6875 29.0307 40.5418 29.4778 40.2574 29.8338C40.1286 29.9908 39.9653 30.1158 39.7801 30.199C39.595 30.2822 39.3931 30.3214 39.1902 30.3135ZM39.2146 27.5327C39.1042 27.5298 38.995 27.5554 38.8976 27.6072C38.8001 27.659 38.7177 27.7351 38.6584 27.8281C38.5091 28.062 38.4362 28.3366 38.4498 28.6137C38.4341 28.8889 38.5072 29.1619 38.6584 29.3924C38.7172 29.4814 38.7973 29.5543 38.8913 29.6047C38.9854 29.6551 39.0905 29.6812 39.1972 29.6809C39.3038 29.682 39.4092 29.6573 39.5042 29.6089C39.5993 29.5605 39.6812 29.4898 39.7429 29.4028C39.8925 29.1732 39.9633 28.9011 39.9445 28.6276C39.9597 28.3469 39.8894 28.0681 39.7429 27.8281C39.6907 27.7347 39.6138 27.6573 39.5206 27.6046C39.4275 27.5519 39.3216 27.5258 39.2146 27.5292V27.5327Z" fill="#011F37"/>
<path d="M42.6799 27.5501H41.6371V28.3635H42.593V28.9718H41.6371V30.2579H40.9697V26.9487H42.6799V27.5501Z" fill="#011F37"/>
<path d="M44.7239 27.5501H43.6811V28.3635H44.6405V28.9718H43.6811V30.2579H43.0137V26.9487H44.7239V27.5501Z" fill="#011F37"/>
<path d="M46.8099 30.2511H45.0371V26.9419H46.7404V27.5502H45.6976V28.2871H46.6604V28.8954H45.6976V29.6532H46.8099V30.2511Z" fill="#011F37"/>
<path d="M49.5903 30.2511H48.829L48.3667 29.3995L48.2694 29.2257C48.2414 29.1793 48.2101 29.1352 48.1755 29.0936C48.1434 29.0626 48.1085 29.0347 48.0713 29.0101C48.0365 28.99 47.9967 28.9804 47.9566 28.9823H47.7758V30.2511H47.1084V26.9419H48.1512C48.8742 26.9419 49.2288 27.2443 49.2288 27.8422C49.23 27.9514 49.2159 28.0602 49.1871 28.1655C49.1548 28.2572 49.1116 28.3447 49.0585 28.4262C49.0002 28.5044 48.9284 28.5715 48.8464 28.6243C48.767 28.686 48.676 28.7309 48.5788 28.7564C48.6253 28.7786 48.6696 28.8054 48.7109 28.8363C48.7526 28.8711 48.7873 28.9163 48.829 28.958C48.8708 29.005 48.9092 29.0549 48.9437 29.1075C48.9803 29.1563 49.0118 29.2087 49.0376 29.2639L49.5903 30.2511ZM47.7654 27.505V28.4262H48.0539C48.1183 28.4287 48.1826 28.4177 48.2425 28.3937C48.3024 28.3698 48.3566 28.3334 48.4015 28.2871C48.4888 28.1927 48.5362 28.0681 48.5336 27.9395C48.5336 27.651 48.3772 27.505 48.0713 27.505H47.7654Z" fill="#011F37"/>
<path d="M17.8892 30.1185V29.6666C17.9361 29.7145 17.9886 29.7565 18.0457 29.7917C18.1105 29.8278 18.1779 29.8592 18.2473 29.8856C18.3133 29.9099 18.3863 29.9273 18.4524 29.9447C18.5158 29.9615 18.5814 29.9685 18.647 29.9655C18.8076 29.9779 18.9672 29.9309 19.0954 29.8334C19.1709 29.755 19.2206 29.6554 19.238 29.5479C19.2554 29.4405 19.2396 29.3303 19.1928 29.2321C19.1572 29.1643 19.1101 29.1031 19.0537 29.0513C18.9911 29.0003 18.9216 28.9482 18.8451 28.8949C18.7611 28.8382 18.6741 28.786 18.5844 28.7385C18.4871 28.6794 18.3933 28.6238 18.3064 28.5647C18.2224 28.5079 18.1464 28.4401 18.0804 28.3631C18.017 28.2911 17.9664 28.2088 17.9309 28.1197C17.8969 28.0166 17.8804 27.9085 17.8823 27.7999C17.8778 27.6642 17.9065 27.5294 17.9657 27.4071C18.0169 27.3001 18.0947 27.208 18.1917 27.1395C18.2877 27.0703 18.3946 27.0174 18.508 26.9831C18.8269 26.8956 19.1659 26.9176 19.4708 27.0456V27.4767C19.285 27.3399 19.0583 27.2701 18.8278 27.2785C18.7542 27.2799 18.6809 27.2881 18.6088 27.3029C18.5403 27.3187 18.4761 27.3495 18.4211 27.3932C18.3611 27.4314 18.3129 27.4856 18.282 27.5497C18.2441 27.6176 18.2249 27.6944 18.2264 27.7721C18.2272 27.8474 18.2426 27.9217 18.2716 27.9911C18.3022 28.0533 18.3434 28.1098 18.3933 28.158C18.4532 28.2114 18.5172 28.2602 18.5844 28.304C18.6609 28.3457 18.7478 28.3978 18.8451 28.4604C18.9434 28.5166 19.0386 28.5781 19.1302 28.6446C19.2176 28.7037 19.2971 28.7738 19.3666 28.8532C19.4353 28.9303 19.4905 29.0184 19.5299 29.1139C19.575 29.2143 19.5964 29.3237 19.5925 29.4337C19.5949 29.5742 19.5689 29.7137 19.516 29.8438C19.4646 29.9488 19.3897 30.0404 19.297 30.1115C19.2024 30.1829 19.0932 30.2327 18.9772 30.2575C18.8514 30.2905 18.7215 30.3058 18.5914 30.3027C18.537 30.3071 18.4824 30.3071 18.428 30.3027C18.3599 30.2976 18.2923 30.2859 18.2264 30.2679C18.162 30.2545 18.0992 30.2347 18.0387 30.2088C17.9847 30.1863 17.9343 30.1559 17.8892 30.1185Z" fill="white"/>
<path d="M20.4863 29.0166V30.2506H20.1387V26.9832H20.9138C21.0406 26.9755 21.1677 26.9937 21.2872 27.0367C21.4067 27.0797 21.5162 27.1467 21.609 27.2334C21.7842 27.4322 21.8741 27.6919 21.8593 27.9565C21.8704 28.2352 21.7718 28.5072 21.5847 28.7142C21.488 28.8143 21.3709 28.8925 21.2414 28.9434C21.1118 28.9944 20.9729 29.017 20.8339 29.0097H20.4863V29.0166ZM20.4863 27.3308V28.669H20.8339C20.9275 28.6782 21.0219 28.6665 21.1104 28.6349C21.1989 28.6032 21.2793 28.5523 21.3458 28.4858C21.4123 28.4193 21.4632 28.3389 21.4949 28.2504C21.5266 28.1618 21.5383 28.0674 21.5291 27.9738C21.5291 27.5393 21.3101 27.3308 20.8686 27.3308H20.4863Z" fill="white"/>
<path d="M23.8961 30.2506H22.4014V26.9832H23.8231V27.3308H22.7385V28.4188H23.7535V28.7664H22.7385V29.9065H23.903V30.2541L23.8961 30.2506Z" fill="white"/>
<path d="M26.3539 30.1117C26.119 30.248 25.8501 30.3143 25.5787 30.3029C25.3939 30.3097 25.21 30.2723 25.0425 30.1937C24.875 30.1151 24.7288 29.9976 24.6159 29.851C24.3608 29.5153 24.2317 29.1007 24.2509 28.6796C24.231 28.2201 24.3766 27.7687 24.6611 27.4074C24.7857 27.2517 24.9447 27.127 25.1257 27.0432C25.3066 26.9593 25.5045 26.9186 25.7039 26.9242C25.9299 26.9155 26.1548 26.9595 26.3609 27.0528V27.463C26.1635 27.3306 25.9311 27.2603 25.6935 27.2614C25.5429 27.2568 25.3935 27.2882 25.2575 27.3529C25.1215 27.4176 25.0028 27.5137 24.9113 27.6333C24.6979 27.926 24.5912 28.283 24.6089 28.6448C24.5919 28.9819 24.6886 29.3148 24.8835 29.5903C24.9711 29.7022 25.0837 29.7919 25.2123 29.8523C25.3409 29.9126 25.4819 29.942 25.6239 29.9379C25.8844 29.9488 26.1411 29.873 26.3539 29.7224L26.3713 30.1048L26.3539 30.1117Z" fill="white"/>
<path d="M27.5279 26.9832V27.3134H27.2567V29.9204H27.5348V30.268H26.6484V29.9204H26.9265V27.3134H26.6484V26.9832H27.5279Z" fill="white"/>
<path d="M30.1663 30.2506H29.8014L29.5094 29.3364H28.3171L28.039 30.2506H27.6914L28.769 26.9832H29.1166L30.1663 30.2506ZM29.3947 28.9888L28.9532 27.5984C28.9311 27.5282 28.9159 27.456 28.908 27.3829C28.9028 27.4564 28.8876 27.5289 28.8628 27.5984L28.4283 28.9888H29.3947Z" fill="white"/>
<path d="M32.0468 30.2506H30.5869V26.9832H30.9345V29.903H32.0642L32.0468 30.2506Z" fill="white"/>
<path d="M10.3564 35.0478V24.6892H15.3793V35.0478L12.8905 32.917L10.3564 35.0478Z" fill="#00F7FF"/>
</svg>
