<svg width="59" height="58" viewBox="0 0 59 58" fill="none" xmlns="http://www.w3.org/2000/svg">
<rect x="0.509766" width="57.93" height="57.93" rx="6.27384" fill="white"/>
<path d="M7.80859 24.8938L8.68449 23.1038L16.2895 27.4833L7.80859 24.8938Z" fill="#011F37"/>
<path d="M12.9287 24.5984L13.4501 23.8337L16.3767 26.9029L12.9287 24.5984Z" fill="#00F7FF"/>
<path d="M51.2556 32.3249L50.5431 34.7406L42.6113 29.9509L51.2556 32.3249Z" fill="#011F37"/>
<path d="M46.2092 33.295L45.7539 34.3552L42.584 30.7056L46.2092 33.295Z" fill="#00F7FF"/>
<path d="M45.5805 28.978H20.2697L14.4199 22.2454H39.7446L45.5805 28.978Z" fill="#011F37"/>
<path d="M44.9475 35.7144H22.1984L16.3486 28.9783H39.1082L44.9475 35.7144Z" fill="#00F7FF"/>
<path d="M25.7088 34.2442C25.4865 34.2504 25.2656 34.2068 25.0623 34.1165C24.859 34.0263 24.6785 33.8918 24.534 33.7228C24.2202 33.3388 24.0604 32.852 24.0856 32.3568C24.0632 31.8401 24.2259 31.3323 24.5444 30.9248C24.6916 30.7462 24.8779 30.6039 25.0888 30.5087C25.2997 30.4135 25.5296 30.3679 25.7609 30.3756C25.9806 30.37 26.1987 30.414 26.3991 30.5042C26.5995 30.5945 26.777 30.7287 26.9184 30.897C27.2052 31.3048 27.3574 31.792 27.3537 32.2906C27.3499 32.7892 27.1904 33.2741 26.8975 33.6776C26.759 33.86 26.5787 34.0067 26.3719 34.1052C26.1651 34.2038 25.9378 34.2514 25.7088 34.2442ZM25.7435 31.1159C25.6181 31.1146 25.4944 31.1459 25.3847 31.2069C25.275 31.2678 25.183 31.3563 25.1179 31.4635C24.9654 31.7277 24.8851 32.0274 24.8851 32.3325C24.8851 32.6375 24.9654 32.9372 25.1179 33.2014C25.1868 33.2997 25.2784 33.3799 25.3849 33.4352C25.4914 33.4906 25.6096 33.5195 25.7296 33.5195C25.8497 33.5195 25.9679 33.4906 26.0744 33.4352C26.1809 33.3799 26.2725 33.2997 26.3414 33.2014C26.5091 32.9439 26.5895 32.6392 26.5708 32.3325C26.5859 32.0165 26.5099 31.7028 26.3518 31.4288C26.2872 31.3267 26.1972 31.2432 26.0905 31.1865C25.9839 31.1298 25.8643 31.1019 25.7435 31.1055V31.1159Z" fill="white"/>
<path d="M29.654 31.1331H28.4896V32.0542H29.5741V32.7493H28.4896V34.1918H27.7354V30.4553H29.6644V31.1505L29.654 31.1331Z" fill="white"/>
<path d="M31.9653 31.1331H30.7836V32.0542H31.868V32.7493H30.7836V34.1918H30.0293V30.4553H31.9549V31.1505L31.9653 31.1331Z" fill="white"/>
<path d="M34.3121 34.1917H32.3135V30.4482H34.2425V31.1434H33.0677V31.9776H34.1626V32.6728H33.0677V33.4965H34.319V34.1917H34.3121Z" fill="white"/>
<path d="M37.4572 34.1917H36.5882L36.0669 33.2254C36.0338 33.1587 35.9955 33.0948 35.9522 33.0342C35.9239 32.9813 35.8888 32.9322 35.8479 32.8883C35.8161 32.8502 35.7786 32.8174 35.7367 32.7909C35.6965 32.7678 35.6509 32.7558 35.6046 32.7562H35.4065V34.1917H34.6592V30.4482H35.8479C36.6589 30.4482 37.0644 30.7866 37.0644 31.4632C37.0648 31.5808 37.0484 31.6978 37.0158 31.8108C36.9808 31.9161 36.9305 32.0156 36.8663 32.1062C36.7295 32.286 36.538 32.4165 36.3206 32.4781C36.3738 32.4986 36.4232 32.528 36.4666 32.565C36.5083 32.6067 36.5604 32.6519 36.6056 32.704C36.65 32.7555 36.6907 32.8101 36.7273 32.8674C36.762 32.93 36.8037 32.9891 36.8316 33.0412L37.4572 34.1917ZM35.4065 31.0635V32.1062H35.7541C35.8273 32.1102 35.9004 32.0979 35.9684 32.0702C36.0363 32.0426 36.0972 32.0003 36.1468 31.9463C36.2434 31.8399 36.2956 31.7007 36.2928 31.557C36.2928 31.2094 36.119 31.0704 35.7714 31.0704H35.4239L35.4065 31.0635Z" fill="white"/>
<path d="M25.7088 34.2442C25.4865 34.2504 25.2656 34.2068 25.0623 34.1165C24.859 34.0263 24.6785 33.8918 24.534 33.7228C24.2202 33.3388 24.0604 32.852 24.0856 32.3568C24.0632 31.8401 24.2259 31.3323 24.5444 30.9248C24.6916 30.7462 24.8779 30.6039 25.0888 30.5087C25.2997 30.4135 25.5296 30.3679 25.7609 30.3756C25.9806 30.37 26.1987 30.414 26.3991 30.5042C26.5995 30.5945 26.777 30.7287 26.9184 30.897C27.2052 31.3048 27.3574 31.792 27.3537 32.2906C27.3499 32.7892 27.1904 33.2741 26.8975 33.6776C26.759 33.86 26.5787 34.0067 26.3719 34.1052C26.1651 34.2038 25.9378 34.2514 25.7088 34.2442ZM25.7435 31.1159C25.6181 31.1146 25.4944 31.1459 25.3847 31.2069C25.275 31.2678 25.183 31.3563 25.1179 31.4635C24.9654 31.7277 24.8851 32.0274 24.8851 32.3325C24.8851 32.6375 24.9654 32.9372 25.1179 33.2014C25.1868 33.2997 25.2784 33.3799 25.3849 33.4352C25.4914 33.4906 25.6096 33.5195 25.7296 33.5195C25.8497 33.5195 25.9679 33.4906 26.0744 33.4352C26.1809 33.3799 26.2725 33.2997 26.3414 33.2014C26.5091 32.9439 26.5895 32.6392 26.5708 32.3325C26.5859 32.0165 26.5099 31.7028 26.3518 31.4288C26.2872 31.3267 26.1972 31.2432 26.0905 31.1865C25.9839 31.1298 25.8643 31.1019 25.7435 31.1055V31.1159Z" fill="#011F37"/>
<path d="M29.654 31.1331H28.4896V32.0542H29.5741V32.7493H28.4896V34.1918H27.7354V30.4553H29.6644V31.1505L29.654 31.1331Z" fill="#011F37"/>
<path d="M31.9653 31.1331H30.7836V32.0542H31.868V32.7493H30.7836V34.1918H30.0293V30.4553H31.9549V31.1505L31.9653 31.1331Z" fill="#011F37"/>
<path d="M34.3121 34.1917H32.3135V30.4482H34.2425V31.1434H33.0677V31.9776H34.1626V32.6728H33.0677V33.4965H34.319V34.1917H34.3121Z" fill="#011F37"/>
<path d="M37.4572 34.1917H36.5882L36.0669 33.2254C36.0338 33.1587 35.9955 33.0948 35.9522 33.0342C35.9239 32.9813 35.8888 32.9322 35.8479 32.8883C35.8161 32.8502 35.7786 32.8174 35.7367 32.7909C35.6965 32.7678 35.6509 32.7558 35.6046 32.7562H35.4065V34.1917H34.6592V30.4482H35.8479C36.6589 30.4482 37.0644 30.7866 37.0644 31.4632C37.0648 31.5808 37.0484 31.6978 37.0158 31.8108C36.9808 31.9161 36.9305 32.0156 36.8663 32.1062C36.7295 32.286 36.538 32.4165 36.3206 32.4781C36.3738 32.4986 36.4232 32.528 36.4666 32.565C36.5083 32.6067 36.5604 32.6519 36.6056 32.704C36.65 32.7555 36.6907 32.8101 36.7273 32.8674C36.762 32.93 36.8037 32.9891 36.8316 33.0412L37.4572 34.1917ZM35.4065 31.0635V32.1062H35.7541C35.8273 32.1102 35.9004 32.0979 35.9684 32.0702C36.0363 32.0426 36.0972 32.0003 36.1468 31.9463C36.2434 31.8399 36.2956 31.7007 36.2928 31.557C36.2928 31.2094 36.119 31.0704 35.7714 31.0704H35.4239L35.4065 31.0635Z" fill="#011F37"/>
<path d="M25.7088 34.2442C25.4865 34.2504 25.2656 34.2068 25.0623 34.1165C24.859 34.0263 24.6785 33.8918 24.534 33.7228C24.2202 33.3388 24.0604 32.852 24.0856 32.3568C24.0632 31.8401 24.2259 31.3323 24.5444 30.9248C24.6916 30.7462 24.8779 30.6039 25.0888 30.5087C25.2997 30.4135 25.5296 30.3679 25.7609 30.3756C25.9806 30.37 26.1987 30.414 26.3991 30.5042C26.5995 30.5945 26.777 30.7287 26.9184 30.897C27.2052 31.3048 27.3574 31.792 27.3537 32.2906C27.3499 32.7892 27.1904 33.2741 26.8975 33.6776C26.759 33.86 26.5787 34.0067 26.3719 34.1052C26.1651 34.2038 25.9378 34.2514 25.7088 34.2442ZM25.7435 31.1159C25.6181 31.1146 25.4944 31.1459 25.3847 31.2069C25.275 31.2678 25.183 31.3563 25.1179 31.4635C24.9654 31.7277 24.8851 32.0274 24.8851 32.3325C24.8851 32.6375 24.9654 32.9372 25.1179 33.2014C25.1868 33.2997 25.2784 33.3799 25.3849 33.4352C25.4914 33.4906 25.6096 33.5195 25.7296 33.5195C25.8497 33.5195 25.9679 33.4906 26.0744 33.4352C26.1809 33.3799 26.2725 33.2997 26.3414 33.2014C26.5091 32.9439 26.5895 32.6392 26.5708 32.3325C26.5859 32.0165 26.5099 31.7028 26.3518 31.4288C26.2872 31.3267 26.1972 31.2432 26.0905 31.1865C25.9839 31.1298 25.8643 31.1019 25.7435 31.1055V31.1159Z" fill="#011F37"/>
<path d="M29.654 31.1331H28.4896V32.0542H29.5741V32.7493H28.4896V34.1918H27.7354V30.4553H29.6644V31.1505L29.654 31.1331Z" fill="#011F37"/>
<path d="M31.9653 31.1331H30.7836V32.0542H31.868V32.7493H30.7836V34.1918H30.0293V30.4553H31.9549V31.1505L31.9653 31.1331Z" fill="#011F37"/>
<path d="M34.3121 34.1917H32.3135V30.4482H34.2425V31.1434H33.0677V31.9776H34.1626V32.6728H33.0677V33.4965H34.319V34.1917H34.3121Z" fill="#011F37"/>
<path d="M37.4572 34.1917H36.5882L36.0669 33.2254C36.0338 33.1587 35.9955 33.0948 35.9522 33.0342C35.9239 32.9813 35.8888 32.9322 35.8479 32.8883C35.8161 32.8502 35.7786 32.8174 35.7367 32.7909C35.6965 32.7678 35.6509 32.7558 35.6046 32.7562H35.4065V34.1917H34.6592V30.4482H35.8479C36.6589 30.4482 37.0644 30.7866 37.0644 31.4632C37.0648 31.5808 37.0484 31.6978 37.0158 31.8108C36.9808 31.9161 36.9305 32.0156 36.8663 32.1062C36.7295 32.286 36.538 32.4165 36.3206 32.4781C36.3738 32.4986 36.4232 32.528 36.4666 32.565C36.5083 32.6067 36.5604 32.6519 36.6056 32.704C36.65 32.7555 36.6907 32.8101 36.7273 32.8674C36.762 32.93 36.8037 32.9891 36.8316 33.0412L37.4572 34.1917ZM35.4065 31.0635V32.1062H35.7541C35.8273 32.1102 35.9004 32.0979 35.9684 32.0702C36.0363 32.0426 36.0972 32.0003 36.1468 31.9463C36.2434 31.8399 36.2956 31.7007 36.2928 31.557C36.2928 31.2094 36.119 31.0704 35.7714 31.0704H35.4239L35.4065 31.0635Z" fill="#011F37"/>
<path d="M25.7088 34.2442C25.4865 34.2504 25.2656 34.2068 25.0623 34.1165C24.859 34.0263 24.6785 33.8918 24.534 33.7228C24.2202 33.3388 24.0604 32.852 24.0856 32.3568C24.0632 31.8401 24.2259 31.3323 24.5444 30.9248C24.6916 30.7462 24.8779 30.6039 25.0888 30.5087C25.2997 30.4135 25.5296 30.3679 25.7609 30.3756C25.9806 30.37 26.1987 30.414 26.3991 30.5042C26.5995 30.5945 26.777 30.7287 26.9184 30.897C27.2052 31.3048 27.3574 31.792 27.3537 32.2906C27.3499 32.7892 27.1904 33.2741 26.8975 33.6776C26.759 33.86 26.5787 34.0067 26.3719 34.1052C26.1651 34.2038 25.9378 34.2514 25.7088 34.2442ZM25.7435 31.1159C25.6181 31.1146 25.4944 31.1459 25.3847 31.2069C25.275 31.2678 25.183 31.3563 25.1179 31.4635C24.9654 31.7277 24.8851 32.0274 24.8851 32.3325C24.8851 32.6375 24.9654 32.9372 25.1179 33.2014C25.1868 33.2997 25.2784 33.3799 25.3849 33.4352C25.4914 33.4906 25.6096 33.5195 25.7296 33.5195C25.8497 33.5195 25.9679 33.4906 26.0744 33.4352C26.1809 33.3799 26.2725 33.2997 26.3414 33.2014C26.5091 32.9439 26.5895 32.6392 26.5708 32.3325C26.5859 32.0165 26.5099 31.7028 26.3518 31.4288C26.2872 31.3267 26.1972 31.2432 26.0905 31.1865C25.9839 31.1298 25.8643 31.1019 25.7435 31.1055V31.1159Z" fill="#011F37"/>
<path d="M29.654 31.1331H28.4896V32.0542H29.5741V32.7493H28.4896V34.1918H27.7354V30.4553H29.6644V31.1505L29.654 31.1331Z" fill="#011F37"/>
<path d="M31.9653 31.1331H30.7836V32.0542H31.868V32.7493H30.7836V34.1918H30.0293V30.4553H31.9549V31.1505L31.9653 31.1331Z" fill="#011F37"/>
<path d="M34.3121 34.1917H32.3135V30.4482H34.2425V31.1434H33.0677V31.9776H34.1626V32.6728H33.0677V33.4965H34.319V34.1917H34.3121Z" fill="#011F37"/>
<path d="M37.4572 34.1917H36.5882L36.0669 33.2254C36.0338 33.1587 35.9955 33.0948 35.9522 33.0342C35.9239 32.9813 35.8888 32.9322 35.8479 32.8883C35.8161 32.8502 35.7786 32.8174 35.7367 32.7909C35.6965 32.7678 35.6509 32.7558 35.6046 32.7562H35.4065V34.1917H34.6592V30.4482H35.8479C36.6589 30.4482 37.0644 30.7866 37.0644 31.4632C37.0648 31.5808 37.0484 31.6978 37.0158 31.8108C36.9808 31.9161 36.9305 32.0156 36.8663 32.1062C36.7295 32.286 36.538 32.4165 36.3206 32.4781C36.3738 32.4986 36.4232 32.528 36.4666 32.565C36.5083 32.6067 36.5604 32.6519 36.6056 32.704C36.65 32.7555 36.6907 32.8101 36.7273 32.8674C36.762 32.93 36.8037 32.9891 36.8316 33.0412L37.4572 34.1917ZM35.4065 31.0635V32.1062H35.7541C35.8273 32.1102 35.9004 32.0979 35.9684 32.0702C36.0363 32.0426 36.0972 32.0003 36.1468 31.9463C36.2434 31.8399 36.2956 31.7007 36.2928 31.557C36.2928 31.2094 36.119 31.0704 35.7714 31.0704H35.4239L35.4065 31.0635Z" fill="#011F37"/>
<path d="M22.6152 27.2925V26.7815C22.6704 26.8342 22.731 26.8808 22.796 26.9206C22.8662 26.961 22.9394 26.9958 23.0149 27.0249L23.2478 27.0944C23.32 27.1088 23.3932 27.1169 23.4668 27.1187C23.6489 27.1309 23.8296 27.0793 23.9777 26.9727C24.037 26.919 24.0836 26.8527 24.1143 26.7788C24.1449 26.7049 24.1588 26.6251 24.155 26.5452C24.1551 26.4553 24.1361 26.3665 24.0994 26.2845C24.0601 26.2082 24.0071 26.1399 23.943 26.0829C23.8701 26.019 23.7922 25.9608 23.7101 25.9091L23.4147 25.7353C23.3052 25.6778 23.2006 25.6116 23.1018 25.5372C23.0106 25.4736 22.9257 25.4014 22.8481 25.3217C22.7788 25.2412 22.7235 25.1495 22.6847 25.0506C22.6403 24.9402 22.619 24.8219 22.6222 24.703C22.6211 24.5538 22.6544 24.4063 22.7195 24.272C22.7782 24.1521 22.8639 24.0474 22.9698 23.9662C23.0755 23.8873 23.1927 23.8252 23.3173 23.7819C23.4492 23.7422 23.5863 23.7223 23.724 23.7228C23.9632 23.7062 24.2027 23.7517 24.4192 23.8549V24.3381C24.2104 24.184 23.9554 24.1056 23.6962 24.1156C23.6156 24.1151 23.5352 24.1232 23.4564 24.1399C23.3773 24.1565 23.3027 24.1897 23.2374 24.2373C23.1741 24.2841 23.121 24.3432 23.081 24.4111C23.0357 24.4901 23.0151 24.5809 23.0219 24.6717C23.0198 24.7537 23.034 24.8352 23.0636 24.9116C23.0952 24.9832 23.1387 25.049 23.1922 25.1062C23.2607 25.1664 23.334 25.2211 23.4112 25.2696C23.4981 25.3217 23.5919 25.3808 23.7066 25.4434C23.8186 25.5043 23.9255 25.574 24.0264 25.6519C24.1293 25.7179 24.2209 25.8 24.2975 25.8952C24.3713 25.9816 24.4332 26.0775 24.4817 26.1802C24.532 26.3131 24.5555 26.4546 24.5507 26.5966C24.546 26.7386 24.5131 26.8783 24.4539 27.0075C24.3961 27.128 24.3088 27.232 24.2002 27.3099C24.0973 27.3907 23.9791 27.4499 23.8526 27.4837C23.7141 27.5191 23.5716 27.5367 23.4286 27.5358C23.3672 27.5403 23.3057 27.5403 23.2444 27.5358C23.1682 27.527 23.0927 27.513 23.0184 27.4941C22.944 27.4756 22.8709 27.4524 22.7995 27.4246C22.735 27.3849 22.6735 27.3408 22.6152 27.2925Z" fill="white"/>
<path d="M25.5418 26.0516V27.442H25.1699V23.7646H26.0562C26.2003 23.7549 26.3449 23.7752 26.4807 23.8242C26.6165 23.8733 26.7406 23.95 26.8452 24.0496C26.9424 24.1591 27.0169 24.2867 27.0647 24.4251C27.1124 24.5634 27.1323 24.7099 27.1233 24.856C27.1362 25.1732 27.0239 25.4828 26.8105 25.718C26.7043 25.834 26.5739 25.9252 26.4286 25.9853C26.2832 26.0453 26.1265 26.0727 25.9694 26.0656H25.5592L25.5418 26.0516ZM25.5418 24.1469V25.6589H25.9346C26.0421 25.6663 26.15 25.6516 26.2516 25.6158C26.3532 25.5799 26.4465 25.5236 26.5255 25.4503C26.5957 25.3732 26.6495 25.2826 26.6836 25.184C26.7176 25.0854 26.7313 24.9809 26.7236 24.8768C26.7365 24.7767 26.726 24.6749 26.693 24.5795C26.66 24.4841 26.6053 24.3976 26.5332 24.3269C26.4611 24.2562 26.3737 24.2031 26.2776 24.1719C26.1816 24.1407 26.0797 24.1321 25.9798 24.1469H25.5418Z" fill="white"/>
<path d="M29.3928 27.4418H27.707V23.7644H29.3163V24.1467H28.072V25.3702H29.219V25.763H28.072V27.049H29.3858V27.4418H29.3928Z" fill="white"/>
<path d="M32.1666 27.2822C31.9003 27.4374 31.5952 27.5133 31.2872 27.5012C31.079 27.5084 30.8721 27.4665 30.6831 27.379C30.4941 27.2914 30.3284 27.1606 30.1993 26.9972C29.916 26.614 29.7725 26.1455 29.7926 25.6694C29.7672 25.1538 29.9316 24.6468 30.2549 24.2443C30.3942 24.0709 30.5711 23.9314 30.7722 23.8363C30.9733 23.7412 31.1934 23.6929 31.4158 23.6952C31.6742 23.6871 31.931 23.7382 32.1666 23.8446V24.3034C31.9415 24.1566 31.6776 24.0803 31.4088 24.0844C31.2378 24.0802 31.0682 24.1168 30.914 24.1911C30.7599 24.2655 30.6257 24.3754 30.5225 24.512C30.2806 24.8375 30.1579 25.2363 30.1749 25.6416C30.1506 26.0252 30.264 26.4048 30.4947 26.7122C30.594 26.8378 30.7209 26.9389 30.8656 27.0077C31.0102 27.0764 31.1688 27.1108 31.3289 27.1084C31.6235 27.117 31.9132 27.0318 32.1561 26.8651V27.2822H32.1666Z" fill="white"/>
<path d="M33.4945 23.7644V24.1363H33.1817V27.0664H33.4945V27.4418H32.5039V27.0664H32.8167V24.112H32.5039V23.7644H33.4945Z" fill="white"/>
<path d="M36.4834 27.4422H36.0663L35.7187 26.3994H34.3979L34.0851 27.4422H33.668L34.8845 23.7578H35.2668L36.4834 27.4422ZM35.6144 26.0171L35.1104 24.4599C35.0864 24.3804 35.069 24.299 35.0583 24.2166C35.0583 24.3209 35.0201 24.3974 35.0062 24.4599L34.5091 26.0345L35.6144 26.0171Z" fill="white"/>
<path d="M38.5969 27.4418H36.9424V23.7644H37.3178V27.056H38.5969V27.4418Z" fill="white"/>
</svg>
