<svg width="59" height="58" viewBox="0 0 59 58" fill="none" xmlns="http://www.w3.org/2000/svg">
<rect x="0.719727" width="57.93" height="57.93" rx="6.32612" fill="white"/>
<path d="M8.01855 24.8962L8.89446 23.1062L16.4995 27.4822L8.01855 24.8962Z" fill="#001B62"/>
<path d="M13.1348 24.6013L13.6596 23.8367L16.5862 26.9023L13.1348 24.6013Z" fill="#FABD00"/>
<path d="M51.4666 32.3241L50.754 34.7398L42.8223 29.9536L51.4666 32.3241Z" fill="#001B62"/>
<path d="M46.4157 33.2977L45.9639 34.3578L42.7939 30.7083L46.4157 33.2977Z" fill="#FABD00"/>
<path d="M45.7904 28.981H20.4797L14.6299 22.2449H39.9546L45.7904 28.981Z" fill="#001B62"/>
<path d="M45.1575 35.7128H22.4084L16.5586 28.9802H39.3181L45.1575 35.7128Z" fill="#FABD00"/>
<path d="M25.9186 34.243C25.6958 34.2479 25.4748 34.203 25.2715 34.1116C25.0683 34.0202 24.888 33.8846 24.7438 33.7147C24.4307 33.3304 24.2709 32.8438 24.2954 32.3487C24.2766 31.8378 24.4391 31.3367 24.7542 30.9341C24.9009 30.7549 25.0871 30.6121 25.2981 30.5169C25.5092 30.4216 25.7394 30.3764 25.9708 30.3849C26.1913 30.3753 26.4111 30.4168 26.6131 30.506C26.815 30.5952 26.9937 30.7298 27.1351 30.8993C27.4492 31.2923 27.6076 31.7873 27.58 32.2896C27.6049 32.8069 27.4364 33.3148 27.1073 33.7147C26.9644 33.8897 26.7824 34.0287 26.5759 34.1205C26.3694 34.2122 26.1443 34.2542 25.9186 34.243ZM25.9534 31.1148C25.8297 31.1123 25.7073 31.1413 25.5979 31.1991C25.4884 31.2568 25.3955 31.3415 25.3277 31.445C25.1583 31.7059 25.0756 32.0137 25.0914 32.3244C25.0744 32.6352 25.1572 32.9433 25.3277 33.2038C25.3966 33.3027 25.4883 33.3835 25.5951 33.4394C25.7019 33.4952 25.8207 33.5243 25.9412 33.5243C26.0617 33.5243 26.1805 33.4952 26.2873 33.4394C26.3941 33.3835 26.4859 33.3027 26.5547 33.2038C26.7254 32.9435 26.8071 32.635 26.7876 32.3244C26.8041 32.0087 26.7293 31.6949 26.5721 31.4207C26.5053 31.319 26.4131 31.2365 26.3045 31.1816C26.1959 31.1267 26.0749 31.1013 25.9534 31.1079V31.1148Z" fill="white"/>
<path d="M29.8638 31.1358H28.682V32.0569H29.7664V32.7521H28.682V34.205H27.9277V30.4546H29.8568V31.1497L29.8638 31.1358Z" fill="white"/>
<path d="M32.1577 31.1358H30.9759V32.0569H32.0604V32.7521H30.9759V34.205H30.2217V30.4546H32.1473V31.1497L32.1577 31.1358Z" fill="white"/>
<path d="M34.5217 34.1845H32.5127V30.448H34.4348V31.1432H33.2704V31.9773H34.3653V32.6725H33.2704V33.5067H34.5217V34.2019V34.1845Z" fill="white"/>
<path d="M37.6672 34.1845H36.7982L36.2768 33.2217C36.2485 33.1514 36.2136 33.0839 36.1726 33.0201C36.1445 32.9659 36.1095 32.9157 36.0683 32.8706C36.0365 32.8336 35.9989 32.8019 35.9571 32.7768C35.9176 32.7521 35.8715 32.7399 35.825 32.742H35.6164V34.1741H34.8691V30.448H36.0579C36.8677 30.448 37.2744 30.7956 37.2744 31.4664C37.2729 31.5839 37.2566 31.7006 37.2257 31.814C37.1908 31.9182 37.1404 32.0166 37.0763 32.106C37.009 32.1925 36.9294 32.2686 36.8399 32.3319C36.7444 32.3961 36.6403 32.4464 36.5306 32.4813C36.5846 32.5019 36.6341 32.5325 36.6766 32.5717C36.7255 32.6154 36.7719 32.6618 36.8156 32.7107C36.86 32.7622 36.9006 32.8168 36.9372 32.8741C36.972 32.9367 37.0137 32.9958 37.0415 33.0479L37.6672 34.1845ZM35.6164 31.0563V32.099H35.9466C36.017 32.1073 36.0882 32.1007 36.1559 32.0797C36.2235 32.0588 36.286 32.0239 36.3394 31.9773C36.4353 31.8706 36.4875 31.7316 36.4854 31.5881C36.4854 31.2579 36.3116 31.098 35.964 31.098H35.6164V31.0563Z" fill="white"/>
<path d="M25.9186 34.243C25.6958 34.2479 25.4748 34.203 25.2715 34.1116C25.0683 34.0202 24.888 33.8846 24.7438 33.7147C24.4307 33.3304 24.2709 32.8438 24.2954 32.3487C24.2766 31.8378 24.4391 31.3367 24.7542 30.9341C24.9009 30.7549 25.0871 30.6121 25.2981 30.5169C25.5092 30.4216 25.7394 30.3764 25.9708 30.3849C26.1913 30.3753 26.4111 30.4168 26.6131 30.506C26.815 30.5952 26.9937 30.7298 27.1351 30.8993C27.4492 31.2923 27.6076 31.7873 27.58 32.2896C27.6049 32.8069 27.4364 33.3148 27.1073 33.7147C26.9644 33.8897 26.7824 34.0287 26.5759 34.1205C26.3694 34.2122 26.1443 34.2542 25.9186 34.243ZM25.9534 31.1148C25.8297 31.1123 25.7073 31.1413 25.5979 31.1991C25.4884 31.2568 25.3955 31.3415 25.3277 31.445C25.1583 31.7059 25.0756 32.0137 25.0914 32.3244C25.0744 32.6352 25.1572 32.9433 25.3277 33.2038C25.3966 33.3027 25.4883 33.3835 25.5951 33.4394C25.7019 33.4952 25.8207 33.5243 25.9412 33.5243C26.0617 33.5243 26.1805 33.4952 26.2873 33.4394C26.3941 33.3835 26.4859 33.3027 26.5547 33.2038C26.7254 32.9435 26.8071 32.635 26.7876 32.3244C26.8041 32.0087 26.7293 31.6949 26.5721 31.4207C26.5053 31.319 26.4131 31.2365 26.3045 31.1816C26.1959 31.1267 26.0749 31.1013 25.9534 31.1079V31.1148Z" fill="#001B62"/>
<path d="M29.8638 31.1358H28.682V32.0569H29.7664V32.7521H28.682V34.205H27.9277V30.4546H29.8568V31.1497L29.8638 31.1358Z" fill="#001B62"/>
<path d="M32.1577 31.1358H30.9759V32.0569H32.0604V32.7521H30.9759V34.205H30.2217V30.4546H32.1473V31.1497L32.1577 31.1358Z" fill="#001B62"/>
<path d="M34.5217 34.1845H32.5127V30.448H34.4348V31.1432H33.2704V31.9773H34.3653V32.6725H33.2704V33.5067H34.5217V34.2019V34.1845Z" fill="#001B62"/>
<path d="M37.6672 34.1845H36.7982L36.2768 33.2217C36.2485 33.1514 36.2136 33.0839 36.1726 33.0201C36.1445 32.9659 36.1095 32.9157 36.0683 32.8706C36.0365 32.8336 35.9989 32.8019 35.9571 32.7768C35.9176 32.7521 35.8715 32.7399 35.825 32.742H35.6164V34.1741H34.8691V30.448H36.0579C36.8677 30.448 37.2744 30.7956 37.2744 31.4664C37.2729 31.5839 37.2566 31.7006 37.2257 31.814C37.1908 31.9182 37.1404 32.0166 37.0763 32.106C37.009 32.1925 36.9294 32.2686 36.8399 32.3319C36.7444 32.3961 36.6403 32.4464 36.5306 32.4813C36.5846 32.5019 36.6341 32.5325 36.6766 32.5717C36.7255 32.6154 36.7719 32.6618 36.8156 32.7107C36.86 32.7622 36.9006 32.8168 36.9372 32.8741C36.972 32.9367 37.0137 32.9958 37.0415 33.0479L37.6672 34.1845ZM35.6164 31.0563V32.099H35.9466C36.017 32.1073 36.0882 32.1007 36.1559 32.0797C36.2235 32.0588 36.286 32.0239 36.3394 31.9773C36.4353 31.8706 36.4875 31.7316 36.4854 31.5881C36.4854 31.2579 36.3116 31.098 35.964 31.098H35.6164V31.0563Z" fill="#001B62"/>
<path d="M25.9186 34.243C25.6958 34.2479 25.4748 34.203 25.2715 34.1116C25.0683 34.0202 24.888 33.8846 24.7438 33.7147C24.4307 33.3304 24.2709 32.8438 24.2954 32.3487C24.2766 31.8378 24.4391 31.3367 24.7542 30.9341C24.9009 30.7549 25.0871 30.6121 25.2981 30.5169C25.5092 30.4216 25.7394 30.3764 25.9708 30.3849C26.1913 30.3753 26.4111 30.4168 26.6131 30.506C26.815 30.5952 26.9937 30.7298 27.1351 30.8993C27.4492 31.2923 27.6076 31.7873 27.58 32.2896C27.6049 32.8069 27.4364 33.3148 27.1073 33.7147C26.9644 33.8897 26.7824 34.0287 26.5759 34.1205C26.3694 34.2122 26.1443 34.2542 25.9186 34.243ZM25.9534 31.1148C25.8297 31.1123 25.7073 31.1413 25.5979 31.1991C25.4884 31.2568 25.3955 31.3415 25.3277 31.445C25.1583 31.7059 25.0756 32.0137 25.0914 32.3244C25.0744 32.6352 25.1572 32.9433 25.3277 33.2038C25.3966 33.3027 25.4883 33.3835 25.5951 33.4394C25.7019 33.4952 25.8207 33.5243 25.9412 33.5243C26.0617 33.5243 26.1805 33.4952 26.2873 33.4394C26.3941 33.3835 26.4859 33.3027 26.5547 33.2038C26.7254 32.9435 26.8071 32.635 26.7876 32.3244C26.8041 32.0087 26.7293 31.6949 26.5721 31.4207C26.5053 31.319 26.4131 31.2365 26.3045 31.1816C26.1959 31.1267 26.0749 31.1013 25.9534 31.1079V31.1148Z" fill="#001B62"/>
<path d="M29.8638 31.1358H28.682V32.0569H29.7664V32.7521H28.682V34.205H27.9277V30.4546H29.8568V31.1497L29.8638 31.1358Z" fill="#001B62"/>
<path d="M32.1577 31.1358H30.9759V32.0569H32.0604V32.7521H30.9759V34.205H30.2217V30.4546H32.1473V31.1497L32.1577 31.1358Z" fill="#001B62"/>
<path d="M34.5217 34.1845H32.5127V30.448H34.4348V31.1432H33.2704V31.9773H34.3653V32.6725H33.2704V33.5067H34.5217V34.2019V34.1845Z" fill="#001B62"/>
<path d="M37.6672 34.1845H36.7982L36.2768 33.2217C36.2485 33.1514 36.2136 33.0839 36.1726 33.0201C36.1445 32.9659 36.1095 32.9157 36.0683 32.8706C36.0365 32.8336 35.9989 32.8019 35.9571 32.7768C35.9176 32.7521 35.8715 32.7399 35.825 32.742H35.6164V34.1741H34.8691V30.448H36.0579C36.8677 30.448 37.2744 30.7956 37.2744 31.4664C37.2729 31.5839 37.2566 31.7006 37.2257 31.814C37.1908 31.9182 37.1404 32.0166 37.0763 32.106C37.009 32.1925 36.9294 32.2686 36.8399 32.3319C36.7444 32.3961 36.6403 32.4464 36.5306 32.4813C36.5846 32.5019 36.6341 32.5325 36.6766 32.5717C36.7255 32.6154 36.7719 32.6618 36.8156 32.7107C36.86 32.7622 36.9006 32.8168 36.9372 32.8741C36.972 32.9367 37.0137 32.9958 37.0415 33.0479L37.6672 34.1845ZM35.6164 31.0563V32.099H35.9466C36.017 32.1073 36.0882 32.1007 36.1559 32.0797C36.2235 32.0588 36.286 32.0239 36.3394 31.9773C36.4353 31.8706 36.4875 31.7316 36.4854 31.5881C36.4854 31.2579 36.3116 31.098 35.964 31.098H35.6164V31.0563Z" fill="#001B62"/>
<path d="M25.9186 34.243C25.6958 34.2479 25.4748 34.203 25.2715 34.1116C25.0683 34.0202 24.888 33.8846 24.7438 33.7147C24.4307 33.3304 24.2709 32.8438 24.2954 32.3487C24.2766 31.8378 24.4391 31.3367 24.7542 30.9341C24.9009 30.7549 25.0871 30.6121 25.2981 30.5169C25.5092 30.4216 25.7394 30.3764 25.9708 30.3849C26.1913 30.3753 26.4111 30.4168 26.6131 30.506C26.815 30.5952 26.9937 30.7298 27.1351 30.8993C27.4492 31.2923 27.6076 31.7873 27.58 32.2896C27.6049 32.8069 27.4364 33.3148 27.1073 33.7147C26.9644 33.8897 26.7824 34.0287 26.5759 34.1205C26.3694 34.2122 26.1443 34.2542 25.9186 34.243ZM25.9534 31.1148C25.8297 31.1123 25.7073 31.1413 25.5979 31.1991C25.4884 31.2568 25.3955 31.3415 25.3277 31.445C25.1583 31.7059 25.0756 32.0137 25.0914 32.3244C25.0744 32.6352 25.1572 32.9433 25.3277 33.2038C25.3966 33.3027 25.4883 33.3835 25.5951 33.4394C25.7019 33.4952 25.8207 33.5243 25.9412 33.5243C26.0617 33.5243 26.1805 33.4952 26.2873 33.4394C26.3941 33.3835 26.4859 33.3027 26.5547 33.2038C26.7254 32.9435 26.8071 32.635 26.7876 32.3244C26.8041 32.0087 26.7293 31.6949 26.5721 31.4207C26.5053 31.319 26.4131 31.2365 26.3045 31.1816C26.1959 31.1267 26.0749 31.1013 25.9534 31.1079V31.1148Z" fill="#001B62"/>
<path d="M29.8638 31.1358H28.682V32.0569H29.7664V32.7521H28.682V34.205H27.9277V30.4546H29.8568V31.1497L29.8638 31.1358Z" fill="#001B62"/>
<path d="M32.1577 31.1358H30.9759V32.0569H32.0604V32.7521H30.9759V34.205H30.2217V30.4546H32.1473V31.1497L32.1577 31.1358Z" fill="#001B62"/>
<path d="M34.5217 34.1845H32.5127V30.448H34.4348V31.1432H33.2704V31.9773H34.3653V32.6725H33.2704V33.5067H34.5217V34.2019V34.1845Z" fill="#001B62"/>
<path d="M37.6672 34.1845H36.7982L36.2768 33.2217C36.2485 33.1514 36.2136 33.0839 36.1726 33.0201C36.1445 32.9659 36.1095 32.9157 36.0683 32.8706C36.0365 32.8336 35.9989 32.8019 35.9571 32.7768C35.9176 32.7521 35.8715 32.7399 35.825 32.742H35.6164V34.1741H34.8691V30.448H36.0579C36.8677 30.448 37.2744 30.7956 37.2744 31.4664C37.2729 31.5839 37.2566 31.7006 37.2257 31.814C37.1908 31.9182 37.1404 32.0166 37.0763 32.106C37.009 32.1925 36.9294 32.2686 36.8399 32.3319C36.7444 32.3961 36.6403 32.4464 36.5306 32.4813C36.5846 32.5019 36.6341 32.5325 36.6766 32.5717C36.7255 32.6154 36.7719 32.6618 36.8156 32.7107C36.86 32.7622 36.9006 32.8168 36.9372 32.8741C36.972 32.9367 37.0137 32.9958 37.0415 33.0479L37.6672 34.1845ZM35.6164 31.0563V32.099H35.9466C36.017 32.1073 36.0882 32.1007 36.1559 32.0797C36.2235 32.0588 36.286 32.0239 36.3394 31.9773C36.4353 31.8706 36.4875 31.7316 36.4854 31.5881C36.4854 31.2579 36.3116 31.098 35.964 31.098H35.6164V31.0563Z" fill="#001B62"/>
<path d="M22.8252 27.2921V26.7811C22.8795 26.8348 22.9402 26.8815 23.0059 26.9202C23.0758 26.9612 23.149 26.9961 23.2249 27.0245C23.301 27.0524 23.3788 27.0756 23.4578 27.094C23.5297 27.1101 23.6031 27.1182 23.6768 27.1183C23.8601 27.1316 24.0422 27.0799 24.1912 26.9723C24.2495 26.9188 24.2954 26.853 24.3254 26.7797C24.3555 26.7064 24.369 26.6274 24.365 26.5483C24.3645 26.4577 24.3468 26.3681 24.3128 26.2841C24.2722 26.2088 24.218 26.1416 24.153 26.086C24.0802 26.0218 24.0023 25.9636 23.9201 25.9122L23.6246 25.7384C23.5169 25.678 23.4124 25.6119 23.3118 25.5403C23.2209 25.4764 23.137 25.403 23.0615 25.3213C22.9907 25.2425 22.9343 25.1519 22.8947 25.0537C22.8508 24.9432 22.8296 24.825 22.8321 24.7061C22.8281 24.5521 22.8615 24.3994 22.9295 24.2612C22.9902 24.1426 23.0755 24.0384 23.1797 23.9553C23.2845 23.8758 23.402 23.8146 23.5273 23.7746C23.6588 23.7329 23.7961 23.713 23.934 23.7155C24.1729 23.6977 24.4124 23.742 24.6291 23.8441V24.3307C24.4208 24.1755 24.1658 24.0958 23.9062 24.1048C23.8257 24.1059 23.7454 24.1141 23.6663 24.1291C23.5885 24.1494 23.5146 24.1823 23.4474 24.2264C23.3848 24.2741 23.3318 24.333 23.291 24.4002C23.2464 24.4796 23.2259 24.5701 23.2319 24.6609C23.2297 24.744 23.2439 24.8266 23.2736 24.9042C23.305 24.9758 23.3498 25.0407 23.4057 25.0954C23.4722 25.1564 23.5444 25.2111 23.6212 25.2587C23.708 25.3144 23.8019 25.3734 23.9166 25.436C24.029 25.4949 24.136 25.5635 24.2364 25.6411C24.3379 25.7102 24.4291 25.7933 24.5075 25.8879C24.582 25.9737 24.644 26.0697 24.6917 26.1729C24.7359 26.2835 24.7594 26.4013 24.7612 26.5205C24.7661 26.679 24.7327 26.8364 24.6639 26.9793C24.6039 27.0993 24.5171 27.204 24.4102 27.2851C24.3062 27.3643 24.1883 27.4233 24.0626 27.4589C23.9229 27.4946 23.7792 27.5121 23.6351 27.5111C23.5829 27.5111 23.5238 27.5111 23.4543 27.5111C23.378 27.5014 23.3025 27.4863 23.2284 27.4659C23.1539 27.4492 23.0807 27.4271 23.0094 27.3998C22.9225 27.3547 22.8669 27.3199 22.8252 27.2921Z" fill="white"/>
<path d="M25.745 26.0687V27.459H25.3975V23.7572H26.2664C26.4105 23.7475 26.555 23.7678 26.6908 23.8169C26.8267 23.866 26.9508 23.9427 27.0554 24.0423C27.252 24.2647 27.3532 24.5557 27.337 24.8521C27.3442 25.1744 27.2243 25.4865 27.0033 25.7211C26.8948 25.8327 26.7634 25.9197 26.6183 25.9761C26.4732 26.0325 26.3176 26.0569 26.1621 26.0478H25.745V26.0687ZM25.745 24.1674V25.662H26.1343C26.2418 25.6686 26.3494 25.6536 26.451 25.6177C26.5525 25.5819 26.6457 25.526 26.7252 25.4534C26.7951 25.3761 26.8487 25.2854 26.8827 25.1869C26.9168 25.0883 26.9306 24.9839 26.9233 24.8799C26.937 24.7796 26.927 24.6776 26.8942 24.5818C26.8615 24.486 26.8068 24.3993 26.7345 24.3284C26.6623 24.2575 26.5745 24.2044 26.4781 24.1735C26.3818 24.1425 26.2795 24.1345 26.1795 24.15L25.745 24.1674Z" fill="white"/>
<path d="M29.6028 27.4595H27.917V23.7578H29.5263V24.1506H28.282V25.3741H29.429V25.7633H28.282V27.0529H29.5958V27.4595H29.6028Z" fill="white"/>
<path d="M32.3764 27.2856C32.1091 27.4379 31.8045 27.5126 31.497 27.5011C31.2888 27.5091 31.0815 27.4676 30.8924 27.38C30.7033 27.2924 30.5376 27.1611 30.4091 26.9971C30.1259 26.6139 29.9823 26.1454 30.0024 25.6693C29.9777 25.1538 30.1421 24.647 30.4647 24.2442C30.6048 24.0718 30.7819 23.9333 30.9829 23.8388C31.1839 23.7443 31.4036 23.6964 31.6256 23.6985C31.8836 23.6908 32.1401 23.7407 32.3764 23.8445V24.3033C32.1499 24.1599 31.8868 24.0851 31.6187 24.0878C31.4479 24.0829 31.2783 24.1188 31.1242 24.1925C30.97 24.2663 30.8357 24.3758 30.7324 24.5119C30.4904 24.8374 30.3677 25.2362 30.3848 25.6415C30.3598 26.0251 30.4733 26.405 30.7046 26.712C30.8045 26.8398 30.933 26.9424 31.0796 27.0118C31.2262 27.0812 31.387 27.1154 31.5492 27.1118C31.8437 27.1204 32.1334 27.0352 32.3764 26.8685V27.2856Z" fill="white"/>
<path d="M33.7045 23.7587V24.1306H33.3916V27.0711H33.7045V27.4604H32.7139V27.0711H33.0441V24.1236H32.7312V23.7517H33.7045V23.7587Z" fill="white"/>
<path d="M36.6827 27.4585H36.276L35.9285 26.4158H34.5903L34.2774 27.4585H33.8604L35.0769 23.7742H35.4766L36.6827 27.4585ZM35.8242 26.0161L35.3202 24.4415C35.2962 24.362 35.2788 24.2806 35.2681 24.1982C35.2545 24.2804 35.236 24.3616 35.2124 24.4415L34.7119 26.0161H35.8242Z" fill="white"/>
<path d="M38.8068 27.4595H37.1523V23.7578H37.5277V27.0529H38.8068V27.4595Z" fill="white"/>
</svg>
