<svg width="44" height="31" viewBox="0 0 44 31" fill="none" xmlns="http://www.w3.org/2000/svg">
<path d="M4.50293 13.3647L43.0279 12.1238L43.4867 26.2156L4.95481 27.4705L4.50293 13.3647Z" fill="#371400"/>
<path d="M40.1673 23.2124L41.7489 24.9122L34.7899 30.9014L34.5361 25.5379L40.1673 23.2124Z" fill="#371400"/>
<path d="M13.2628 24.6171C12.7586 24.6502 12.2534 24.5681 11.7855 24.3772C11.3176 24.1863 10.8992 23.8916 10.5619 23.5152C9.81797 22.6675 9.41537 21.5736 9.43223 20.4458C9.33612 19.2711 9.66961 18.1015 10.3708 17.154C10.6933 16.7375 11.1069 16.4004 11.5799 16.1684C12.0529 15.9365 12.5727 15.8158 13.0994 15.8158C13.5998 15.7838 14.1009 15.8668 14.5642 16.0584C15.0276 16.25 15.4409 16.5451 15.7725 16.9211C16.5134 17.7924 16.9069 18.9063 16.8779 20.0496C16.9715 21.2165 16.638 22.3777 15.9394 23.3171C15.6246 23.7265 15.2189 24.057 14.7544 24.2827C14.2899 24.5083 13.7792 24.6228 13.2628 24.6171ZM13.1064 17.4669C12.823 17.4687 12.5448 17.5432 12.2983 17.6831C12.0518 17.8231 11.8454 18.0239 11.6986 18.2664C11.3375 18.8737 11.1736 19.5781 11.2293 20.2825C11.2132 20.9902 11.4239 21.6845 11.8307 22.2638C11.9948 22.4839 12.2095 22.6613 12.4567 22.7809C12.7038 22.9005 12.9761 22.9589 13.2506 22.951C13.525 22.9432 13.7936 22.8694 14.0335 22.7359C14.2734 22.6023 14.4776 22.413 14.6289 22.1839C14.989 21.583 15.1462 20.8822 15.0773 20.1851C15.0996 19.4623 14.8994 18.7501 14.5038 18.1447C14.3474 17.9225 14.1371 17.7438 13.8927 17.6252C13.6483 17.5066 13.3777 17.4522 13.1064 17.4669Z" fill="white"/>
<path d="M22.0216 17.2302L19.3346 17.3171L19.4076 19.4028L21.8756 19.3263L21.9277 20.8801L19.4563 20.96L19.564 24.2623L17.8503 24.3144L17.5723 15.8085L21.9695 15.666L22.0216 17.2302Z" fill="white"/>
<path d="M27.2364 17.0671L24.5495 17.154L24.6225 19.2397L27.0904 19.1597L27.1391 20.717L24.6711 20.7935L24.7754 24.0957L23.0652 24.1513L22.7871 15.642L27.1843 15.5029L27.2364 17.0671Z" fill="white"/>
<path d="M32.8396 23.8351L28.2791 23.9846L28.001 15.4787L32.3912 15.3362L32.4434 16.9004L29.7633 16.9873L29.8259 18.8817L32.3113 18.8053L32.3634 20.3591L29.878 20.439L29.9371 22.3856L32.791 22.2883L32.8396 23.8351Z" fill="white"/>
<path d="M40.0103 23.602L38.0463 23.661L36.7845 21.5163C36.7029 21.3669 36.6136 21.2219 36.5168 21.0818C36.4393 20.9592 36.3521 20.843 36.2561 20.7342C36.1766 20.6516 36.0852 20.5813 35.985 20.5257C35.8932 20.4807 35.7917 20.4592 35.6895 20.4631L35.2307 20.484L35.335 23.741L33.6213 23.7931L33.3467 15.2873L36.0649 15.1969C37.9072 15.1378 38.8632 15.8747 38.9083 17.425C38.9162 17.7029 38.8835 17.9805 38.811 18.2489C38.7426 18.4969 38.6333 18.7319 38.4877 18.9441C38.3471 19.152 38.1705 19.3333 37.9663 19.4794C37.7582 19.6415 37.5228 19.7651 37.2711 19.8444V19.8722C37.3976 19.911 37.5156 19.9735 37.6187 20.0564C37.7358 20.1468 37.844 20.248 37.942 20.3588C38.0475 20.4773 38.1451 20.6028 38.234 20.7342C38.328 20.8591 38.4151 20.989 38.4947 21.1235L40.0103 23.602ZM35.116 16.6846L35.1959 19.0483L35.9329 19.0205C36.0982 19.0231 36.2622 18.9903 36.4139 18.9244C36.5656 18.8585 36.7014 18.7609 36.8123 18.6382C37.0296 18.3901 37.1418 18.0672 37.1251 17.7379C37.0973 16.9871 36.6906 16.6325 35.8911 16.6568L35.116 16.6846Z" fill="white"/>
<path d="M0.0361328 2.98217L39.6004 0.833984L40.2956 12.225L0.731341 14.3836L0.0361328 2.98217Z" fill="#FEBE10"/>
<path d="M5.45916 11.3487L5.40701 10.4032C5.51266 10.498 5.62937 10.5797 5.75462 10.6465C5.89029 10.7175 6.03226 10.7756 6.17869 10.8203C6.32346 10.8665 6.47254 10.898 6.62363 10.9142C6.75935 10.9345 6.89672 10.9415 7.0338 10.935C7.37606 10.9407 7.709 10.8235 7.97233 10.6048C8.0755 10.499 8.15324 10.3711 8.19961 10.2307C8.24599 10.0904 8.25979 9.94136 8.23999 9.7949C8.23637 9.62697 8.19225 9.46241 8.11138 9.3152C8.0251 9.17919 7.91974 9.05628 7.79852 8.95022C7.65251 8.83756 7.49794 8.73645 7.33621 8.64781C7.16241 8.55048 6.97123 8.45662 6.76962 8.35234C6.56801 8.24806 6.35249 8.1264 6.17174 8.00474C5.99282 7.89597 5.82917 7.76388 5.6851 7.61194C5.54012 7.46997 5.42231 7.30268 5.33749 7.11834C5.14922 6.64029 5.14922 6.10864 5.33749 5.63059C5.43672 5.40185 5.58506 5.19773 5.772 5.03272C5.95827 4.86471 6.17719 4.73692 6.41507 4.65731C6.6537 4.56946 6.9048 4.52017 7.15893 4.51131C7.59858 4.454 8.04557 4.51272 8.4555 4.68164L8.50764 5.58542C8.09978 5.30894 7.6072 5.1858 7.11722 5.23781C6.96426 5.24893 6.81284 5.27572 6.66534 5.31775C6.52256 5.36251 6.38767 5.42937 6.26559 5.51589C6.14708 5.60592 6.05469 5.72591 5.99794 5.86349C5.92653 6.01526 5.89541 6.18285 5.90756 6.35014C5.91121 6.50749 5.95042 6.66199 6.02227 6.80203C6.08984 6.93401 6.18184 7.05197 6.2934 7.14963C6.42258 7.25669 6.56101 7.35207 6.70705 7.43466C6.8739 7.52156 7.05466 7.62584 7.27365 7.73013C7.49264 7.83441 7.7012 7.95607 7.89933 8.07773C8.09101 8.19282 8.26638 8.33312 8.42074 8.49486C8.57276 8.64763 8.69949 8.82364 8.79616 9.01627C8.89426 9.22941 8.94976 9.45966 8.95953 9.69409C8.98106 9.98911 8.93959 10.2853 8.83787 10.5631C8.74434 10.7951 8.59511 11.0004 8.40336 11.161C8.21174 11.3186 7.99083 11.4367 7.75334 11.5086C7.4933 11.5914 7.22313 11.6382 6.95038 11.6476C6.83472 11.6575 6.71843 11.6575 6.60278 11.6476C6.4606 11.6396 6.31899 11.6234 6.17869 11.599C6.03755 11.5732 5.89821 11.5384 5.76157 11.4947C5.65491 11.4592 5.55326 11.4102 5.45916 11.3487Z" fill="white"/>
<path d="M10.8046 8.71377L10.9402 11.3138L10.245 11.3486L9.87305 4.46605L11.5068 4.37915C11.776 4.34842 12.0486 4.37362 12.3076 4.45317C12.5666 4.53273 12.8064 4.66492 13.0119 4.84146C13.2063 5.03647 13.3601 5.26802 13.4645 5.52277C13.5689 5.77752 13.6218 6.05042 13.6202 6.32573C13.6743 6.91432 13.4958 7.50071 13.1231 7.95947C12.9311 8.17909 12.6952 8.35599 12.4305 8.47873C12.1659 8.60148 11.8784 8.66733 11.5867 8.67205L10.8046 8.71377ZM10.61 5.16126L10.7664 7.98727L11.4998 7.94209C11.6981 7.95268 11.8961 7.91893 12.0797 7.84329C12.2632 7.76765 12.4276 7.65202 12.5608 7.50484C12.6939 7.35766 12.7926 7.18262 12.8497 6.99247C12.9067 6.80233 12.9205 6.60186 12.8903 6.40568C12.8381 5.49148 12.3515 5.06741 11.4303 5.11607L10.61 5.16126Z" fill="white"/>
<path d="M18.1394 10.9247L14.9901 11.0985L14.6182 4.21245L17.6249 4.04907L17.6701 4.77904L15.3586 4.90071L15.4767 7.18794L17.618 7.07323L17.6597 7.79624L15.5219 7.90748L15.654 10.3164L18.1046 10.1843L18.1394 10.9247Z" fill="white"/>
<path d="M23.3013 10.3582C22.8185 10.672 22.2573 10.8442 21.6815 10.8552C21.2928 10.8891 20.9016 10.8313 20.5394 10.6864C20.1771 10.5415 19.8539 10.3136 19.5959 10.021C19.0239 9.33865 18.7079 8.47809 18.7025 7.58775C18.5971 6.62952 18.8442 5.66569 19.3977 4.87644C19.6395 4.53787 19.9558 4.25933 20.3222 4.06226C20.6886 3.86519 21.0954 3.75486 21.5112 3.73977C21.9928 3.6884 22.4796 3.76016 22.9259 3.94833L22.9711 4.80691C22.5402 4.55441 22.0447 4.43357 21.5459 4.45931C21.2266 4.46987 20.9142 4.55489 20.6336 4.70758C20.3529 4.86027 20.1119 5.07639 19.9296 5.33875C19.5152 5.9767 19.3312 6.73708 19.4082 7.4939C19.4063 8.21233 19.6518 8.9095 20.1034 9.46828C20.2985 9.6972 20.5452 9.87646 20.8232 9.99129C21.1012 10.1061 21.4026 10.1532 21.7023 10.1287C22.2538 10.1099 22.7854 9.91774 23.2214 9.57952L23.3013 10.3582Z" fill="white"/>
<path d="M25.4283 3.63208L25.4631 4.32729L24.8791 4.36205L25.1746 9.86115L25.7586 9.82639L25.7933 10.5216L23.9406 10.6259L23.9059 9.93067L24.4898 9.89938L24.1944 4.39681L23.6104 4.43158L23.5791 3.73637L25.4283 3.63208Z" fill="white"/>
<path d="M31.3728 10.2087L30.5976 10.2539L29.8676 8.35947L27.3579 8.49851L26.8713 10.4625L26.0996 10.5042L28.0184 3.50344L28.7414 3.45825L31.3728 10.2087ZM29.6 7.63993L28.512 4.74439C28.4628 4.59819 28.4256 4.44822 28.4007 4.29598H28.3834C28.369 4.45358 28.3458 4.61025 28.3138 4.76525L27.5491 7.74422L29.6 7.63993Z" fill="white"/>
<path d="M35.3179 9.9932L32.2416 10.16L31.8662 3.27749L32.5614 3.23926L32.909 9.39532L35.2901 9.26323L35.3179 9.9932Z" fill="white"/>
<path d="M5.45916 11.3487L5.40701 10.4032C5.51266 10.498 5.62937 10.5797 5.75462 10.6465C5.89029 10.7175 6.03226 10.7756 6.17869 10.8203C6.32346 10.8665 6.47254 10.898 6.62363 10.9142C6.75935 10.9345 6.89672 10.9415 7.0338 10.935C7.37606 10.9407 7.709 10.8235 7.97233 10.6048C8.0755 10.499 8.15324 10.3711 8.19961 10.2307C8.24599 10.0904 8.25979 9.94136 8.23999 9.7949C8.23637 9.62697 8.19225 9.46241 8.11138 9.3152C8.0251 9.17919 7.91974 9.05628 7.79852 8.95022C7.65251 8.83756 7.49794 8.73645 7.33621 8.64781C7.16241 8.55048 6.97123 8.45662 6.76962 8.35234C6.56801 8.24806 6.35249 8.1264 6.17174 8.00474C5.99282 7.89597 5.82917 7.76388 5.6851 7.61194C5.54012 7.46997 5.42231 7.30268 5.33749 7.11834C5.14922 6.64029 5.14922 6.10864 5.33749 5.63059C5.43672 5.40185 5.58506 5.19773 5.772 5.03272C5.95827 4.86471 6.17719 4.73692 6.41507 4.65731C6.6537 4.56946 6.9048 4.52017 7.15893 4.51131C7.59858 4.454 8.04557 4.51272 8.4555 4.68164L8.50764 5.58542C8.09978 5.30894 7.6072 5.1858 7.11722 5.23781C6.96426 5.24893 6.81284 5.27572 6.66534 5.31775C6.52256 5.36251 6.38767 5.42937 6.26559 5.51589C6.14708 5.60592 6.05469 5.72591 5.99794 5.86349C5.92653 6.01526 5.89541 6.18285 5.90756 6.35014C5.91121 6.50749 5.95042 6.66199 6.02227 6.80203C6.08984 6.93401 6.18184 7.05197 6.2934 7.14963C6.42258 7.25669 6.56101 7.35207 6.70705 7.43466C6.8739 7.52156 7.05466 7.62584 7.27365 7.73013C7.49264 7.83441 7.7012 7.95607 7.89933 8.07773C8.09101 8.19282 8.26638 8.33312 8.42074 8.49486C8.57276 8.64763 8.69949 8.82364 8.79616 9.01627C8.89426 9.22941 8.94976 9.45966 8.95953 9.69409C8.98106 9.98911 8.93959 10.2853 8.83787 10.5631C8.74434 10.7951 8.59511 11.0004 8.40336 11.161C8.21174 11.3186 7.99083 11.4367 7.75334 11.5086C7.4933 11.5914 7.22313 11.6382 6.95038 11.6476C6.83472 11.6575 6.71843 11.6575 6.60278 11.6476C6.4606 11.6396 6.31899 11.6234 6.17869 11.599C6.03755 11.5732 5.89821 11.5384 5.76157 11.4947C5.65491 11.4592 5.55326 11.4102 5.45916 11.3487Z" fill="#371400"/>
<path d="M10.8046 8.71377L10.9402 11.3138L10.245 11.3486L9.87305 4.46605L11.5068 4.37915C11.776 4.34842 12.0486 4.37362 12.3076 4.45317C12.5666 4.53273 12.8064 4.66492 13.0119 4.84146C13.2063 5.03647 13.3601 5.26802 13.4645 5.52277C13.5689 5.77752 13.6218 6.05042 13.6202 6.32573C13.6743 6.91432 13.4958 7.50071 13.1231 7.95947C12.9311 8.17909 12.6952 8.35599 12.4305 8.47873C12.1659 8.60148 11.8784 8.66733 11.5867 8.67205L10.8046 8.71377ZM10.61 5.16126L10.7664 7.98727L11.4998 7.94209C11.6981 7.95268 11.8961 7.91893 12.0797 7.84329C12.2632 7.76765 12.4276 7.65202 12.5608 7.50484C12.6939 7.35766 12.7926 7.18262 12.8497 6.99247C12.9067 6.80233 12.9205 6.60186 12.8903 6.40568C12.8381 5.49148 12.3515 5.06741 11.4303 5.11607L10.61 5.16126Z" fill="#371400"/>
<path d="M18.1394 10.9247L14.9901 11.0985L14.6182 4.21245L17.6249 4.04907L17.6701 4.77904L15.3586 4.90071L15.4767 7.18794L17.618 7.07323L17.6597 7.79624L15.5219 7.90748L15.654 10.3164L18.1046 10.1843L18.1394 10.9247Z" fill="#371400"/>
<path d="M23.3013 10.3582C22.8185 10.672 22.2573 10.8442 21.6815 10.8552C21.2928 10.8891 20.9016 10.8313 20.5394 10.6864C20.1771 10.5415 19.8539 10.3136 19.5959 10.021C19.0239 9.33865 18.7079 8.47809 18.7025 7.58775C18.5971 6.62952 18.8442 5.66569 19.3977 4.87644C19.6395 4.53787 19.9558 4.25933 20.3222 4.06226C20.6886 3.86519 21.0954 3.75486 21.5112 3.73977C21.9928 3.6884 22.4796 3.76016 22.9259 3.94833L22.9711 4.80691C22.5402 4.55441 22.0447 4.43357 21.5459 4.45931C21.2266 4.46987 20.9142 4.55489 20.6336 4.70758C20.3529 4.86027 20.1119 5.07639 19.9296 5.33875C19.5152 5.9767 19.3312 6.73708 19.4082 7.4939C19.4063 8.21233 19.6518 8.9095 20.1034 9.46828C20.2985 9.6972 20.5452 9.87646 20.8232 9.99129C21.1012 10.1061 21.4026 10.1532 21.7023 10.1287C22.2538 10.1099 22.7854 9.91774 23.2214 9.57952L23.3013 10.3582Z" fill="#371400"/>
<path d="M25.4283 3.63208L25.4631 4.32729L24.8791 4.36205L25.1746 9.86115L25.7586 9.82639L25.7933 10.5216L23.9406 10.6259L23.9059 9.93067L24.4898 9.89938L24.1944 4.39681L23.6104 4.43158L23.5791 3.73637L25.4283 3.63208Z" fill="#371400"/>
<path d="M31.3728 10.2087L30.5976 10.2539L29.8676 8.35947L27.3579 8.49851L26.8713 10.4625L26.0996 10.5042L28.0184 3.50344L28.7414 3.45825L31.3728 10.2087ZM29.6 7.63993L28.512 4.74439C28.4628 4.59819 28.4256 4.44822 28.4007 4.29598H28.3834C28.369 4.45358 28.3458 4.61025 28.3138 4.76525L27.5491 7.74422L29.6 7.63993Z" fill="#371400"/>
<path d="M35.3179 9.9932L32.2416 10.16L31.8662 3.27749L32.5614 3.23926L32.909 9.39532L35.2901 9.26323L35.3179 9.9932Z" fill="#371400"/>
<path d="M5.45916 11.3487L5.40701 10.4032C5.51266 10.498 5.62937 10.5797 5.75462 10.6465C5.89029 10.7175 6.03226 10.7756 6.17869 10.8203C6.32346 10.8665 6.47254 10.898 6.62363 10.9142C6.75935 10.9345 6.89672 10.9415 7.0338 10.935C7.37606 10.9407 7.709 10.8235 7.97233 10.6048C8.0755 10.499 8.15324 10.3711 8.19961 10.2307C8.24599 10.0904 8.25979 9.94136 8.23999 9.7949C8.23637 9.62697 8.19225 9.46241 8.11138 9.3152C8.0251 9.17919 7.91974 9.05628 7.79852 8.95022C7.65251 8.83756 7.49794 8.73645 7.33621 8.64781C7.16241 8.55048 6.97123 8.45662 6.76962 8.35234C6.56801 8.24806 6.35249 8.1264 6.17174 8.00474C5.99282 7.89597 5.82917 7.76388 5.6851 7.61194C5.54012 7.46997 5.42231 7.30268 5.33749 7.11834C5.14922 6.64029 5.14922 6.10864 5.33749 5.63059C5.43672 5.40185 5.58506 5.19773 5.772 5.03272C5.95827 4.86471 6.17719 4.73692 6.41507 4.65731C6.6537 4.56946 6.9048 4.52017 7.15893 4.51131C7.59858 4.454 8.04557 4.51272 8.4555 4.68164L8.50764 5.58542C8.09978 5.30894 7.6072 5.1858 7.11722 5.23781C6.96426 5.24893 6.81284 5.27572 6.66534 5.31775C6.52256 5.36251 6.38767 5.42937 6.26559 5.51589C6.14708 5.60592 6.05469 5.72591 5.99794 5.86349C5.92653 6.01526 5.89541 6.18285 5.90756 6.35014C5.91121 6.50749 5.95042 6.66199 6.02227 6.80203C6.08984 6.93401 6.18184 7.05197 6.2934 7.14963C6.42258 7.25669 6.56101 7.35207 6.70705 7.43466C6.8739 7.52156 7.05466 7.62584 7.27365 7.73013C7.49264 7.83441 7.7012 7.95607 7.89933 8.07773C8.09101 8.19282 8.26638 8.33312 8.42074 8.49486C8.57276 8.64763 8.69949 8.82364 8.79616 9.01627C8.89426 9.22941 8.94976 9.45966 8.95953 9.69409C8.98106 9.98911 8.93959 10.2853 8.83787 10.5631C8.74434 10.7951 8.59511 11.0004 8.40336 11.161C8.21174 11.3186 7.99083 11.4367 7.75334 11.5086C7.4933 11.5914 7.22313 11.6382 6.95038 11.6476C6.83472 11.6575 6.71843 11.6575 6.60278 11.6476C6.4606 11.6396 6.31899 11.6234 6.17869 11.599C6.03755 11.5732 5.89821 11.5384 5.76157 11.4947C5.65491 11.4592 5.55326 11.4102 5.45916 11.3487Z" fill="#371400"/>
<path d="M10.8046 8.71377L10.9402 11.3138L10.245 11.3486L9.87305 4.46605L11.5068 4.37915C11.776 4.34842 12.0486 4.37362 12.3076 4.45317C12.5666 4.53273 12.8064 4.66492 13.0119 4.84146C13.2063 5.03647 13.3601 5.26802 13.4645 5.52277C13.5689 5.77752 13.6218 6.05042 13.6202 6.32573C13.6743 6.91432 13.4958 7.50071 13.1231 7.95947C12.9311 8.17909 12.6952 8.35599 12.4305 8.47873C12.1659 8.60148 11.8784 8.66733 11.5867 8.67205L10.8046 8.71377ZM10.61 5.16126L10.7664 7.98727L11.4998 7.94209C11.6981 7.95268 11.8961 7.91893 12.0797 7.84329C12.2632 7.76765 12.4276 7.65202 12.5608 7.50484C12.6939 7.35766 12.7926 7.18262 12.8497 6.99247C12.9067 6.80233 12.9205 6.60186 12.8903 6.40568C12.8381 5.49148 12.3515 5.06741 11.4303 5.11607L10.61 5.16126Z" fill="#371400"/>
<path d="M18.1394 10.9247L14.9901 11.0985L14.6182 4.21245L17.6249 4.04907L17.6701 4.77904L15.3586 4.90071L15.4767 7.18794L17.618 7.07323L17.6597 7.79624L15.5219 7.90748L15.654 10.3164L18.1046 10.1843L18.1394 10.9247Z" fill="#371400"/>
<path d="M23.3013 10.3582C22.8185 10.672 22.2573 10.8442 21.6815 10.8552C21.2928 10.8891 20.9016 10.8313 20.5394 10.6864C20.1771 10.5415 19.8539 10.3136 19.5959 10.021C19.0239 9.33865 18.7079 8.47809 18.7025 7.58775C18.5971 6.62952 18.8442 5.66569 19.3977 4.87644C19.6395 4.53787 19.9558 4.25933 20.3222 4.06226C20.6886 3.86519 21.0954 3.75486 21.5112 3.73977C21.9928 3.6884 22.4796 3.76016 22.9259 3.94833L22.9711 4.80691C22.5402 4.55441 22.0447 4.43357 21.5459 4.45931C21.2266 4.46987 20.9142 4.55489 20.6336 4.70758C20.3529 4.86027 20.1119 5.07639 19.9296 5.33875C19.5152 5.9767 19.3312 6.73708 19.4082 7.4939C19.4063 8.21233 19.6518 8.9095 20.1034 9.46828C20.2985 9.6972 20.5452 9.87646 20.8232 9.99129C21.1012 10.1061 21.4026 10.1532 21.7023 10.1287C22.2538 10.1099 22.7854 9.91774 23.2214 9.57952L23.3013 10.3582Z" fill="#371400"/>
<path d="M25.4283 3.63208L25.4631 4.32729L24.8791 4.36205L25.1746 9.86115L25.7586 9.82639L25.7933 10.5216L23.9406 10.6259L23.9059 9.93067L24.4898 9.89938L24.1944 4.39681L23.6104 4.43158L23.5791 3.73637L25.4283 3.63208Z" fill="#371400"/>
<path d="M31.3728 10.2087L30.5976 10.2539L29.8676 8.35947L27.3579 8.49851L26.8713 10.4625L26.0996 10.5042L28.0184 3.50344L28.7414 3.45825L31.3728 10.2087ZM29.6 7.63993L28.512 4.74439C28.4628 4.59819 28.4256 4.44822 28.4007 4.29598H28.3834C28.369 4.45358 28.3458 4.61025 28.3138 4.76525L27.5491 7.74422L29.6 7.63993Z" fill="#371400"/>
<path d="M35.3179 9.9932L32.2416 10.16L31.8662 3.27749L32.5614 3.23926L32.909 9.39532L35.2901 9.26323L35.3179 9.9932Z" fill="#371400"/>
<path d="M5.45916 11.3487L5.40701 10.4032C5.51266 10.498 5.62937 10.5797 5.75462 10.6465C5.89029 10.7175 6.03226 10.7756 6.17869 10.8203C6.32346 10.8665 6.47254 10.898 6.62363 10.9142C6.75935 10.9345 6.89672 10.9415 7.0338 10.935C7.37606 10.9407 7.709 10.8235 7.97233 10.6048C8.0755 10.499 8.15324 10.3711 8.19961 10.2307C8.24599 10.0904 8.25979 9.94136 8.23999 9.7949C8.23637 9.62697 8.19225 9.46241 8.11138 9.3152C8.0251 9.17919 7.91974 9.05628 7.79852 8.95022C7.65251 8.83756 7.49794 8.73645 7.33621 8.64781C7.16241 8.55048 6.97123 8.45662 6.76962 8.35234C6.56801 8.24806 6.35249 8.1264 6.17174 8.00474C5.99282 7.89597 5.82917 7.76388 5.6851 7.61194C5.54012 7.46997 5.42231 7.30268 5.33749 7.11834C5.14922 6.64029 5.14922 6.10864 5.33749 5.63059C5.43672 5.40185 5.58506 5.19773 5.772 5.03272C5.95827 4.86471 6.17719 4.73692 6.41507 4.65731C6.6537 4.56946 6.9048 4.52017 7.15893 4.51131C7.59858 4.454 8.04557 4.51272 8.4555 4.68164L8.50764 5.58542C8.09978 5.30894 7.6072 5.1858 7.11722 5.23781C6.96426 5.24893 6.81284 5.27572 6.66534 5.31775C6.52256 5.36251 6.38767 5.42937 6.26559 5.51589C6.14708 5.60592 6.05469 5.72591 5.99794 5.86349C5.92653 6.01526 5.89541 6.18285 5.90756 6.35014C5.91121 6.50749 5.95042 6.66199 6.02227 6.80203C6.08984 6.93401 6.18184 7.05197 6.2934 7.14963C6.42258 7.25669 6.56101 7.35207 6.70705 7.43466C6.8739 7.52156 7.05466 7.62584 7.27365 7.73013C7.49264 7.83441 7.7012 7.95607 7.89933 8.07773C8.09101 8.19282 8.26638 8.33312 8.42074 8.49486C8.57276 8.64763 8.69949 8.82364 8.79616 9.01627C8.89426 9.22941 8.94976 9.45966 8.95953 9.69409C8.98106 9.98911 8.93959 10.2853 8.83787 10.5631C8.74434 10.7951 8.59511 11.0004 8.40336 11.161C8.21174 11.3186 7.99083 11.4367 7.75334 11.5086C7.4933 11.5914 7.22313 11.6382 6.95038 11.6476C6.83472 11.6575 6.71843 11.6575 6.60278 11.6476C6.4606 11.6396 6.31899 11.6234 6.17869 11.599C6.03755 11.5732 5.89821 11.5384 5.76157 11.4947C5.65491 11.4592 5.55326 11.4102 5.45916 11.3487Z" fill="#371400"/>
<path d="M10.8046 8.71377L10.9402 11.3138L10.245 11.3486L9.87305 4.46605L11.5068 4.37915C11.776 4.34842 12.0486 4.37362 12.3076 4.45317C12.5666 4.53273 12.8064 4.66492 13.0119 4.84146C13.2063 5.03647 13.3601 5.26802 13.4645 5.52277C13.5689 5.77752 13.6218 6.05042 13.6202 6.32573C13.6743 6.91432 13.4958 7.50071 13.1231 7.95947C12.9311 8.17909 12.6952 8.35599 12.4305 8.47873C12.1659 8.60148 11.8784 8.66733 11.5867 8.67205L10.8046 8.71377ZM10.61 5.16126L10.7664 7.98727L11.4998 7.94209C11.6981 7.95268 11.8961 7.91893 12.0797 7.84329C12.2632 7.76765 12.4276 7.65202 12.5608 7.50484C12.6939 7.35766 12.7926 7.18262 12.8497 6.99247C12.9067 6.80233 12.9205 6.60186 12.8903 6.40568C12.8381 5.49148 12.3515 5.06741 11.4303 5.11607L10.61 5.16126Z" fill="#371400"/>
<path d="M18.1394 10.9247L14.9901 11.0985L14.6182 4.21245L17.6249 4.04907L17.6701 4.77904L15.3586 4.90071L15.4767 7.18794L17.618 7.07323L17.6597 7.79624L15.5219 7.90748L15.654 10.3164L18.1046 10.1843L18.1394 10.9247Z" fill="#371400"/>
<path d="M23.3013 10.3582C22.8185 10.672 22.2573 10.8442 21.6815 10.8552C21.2928 10.8891 20.9016 10.8313 20.5394 10.6864C20.1771 10.5415 19.8539 10.3136 19.5959 10.021C19.0239 9.33865 18.7079 8.47809 18.7025 7.58775C18.5971 6.62952 18.8442 5.66569 19.3977 4.87644C19.6395 4.53787 19.9558 4.25933 20.3222 4.06226C20.6886 3.86519 21.0954 3.75486 21.5112 3.73977C21.9928 3.6884 22.4796 3.76016 22.9259 3.94833L22.9711 4.80691C22.5402 4.55441 22.0447 4.43357 21.5459 4.45931C21.2266 4.46987 20.9142 4.55489 20.6336 4.70758C20.3529 4.86027 20.1119 5.07639 19.9296 5.33875C19.5152 5.9767 19.3312 6.73708 19.4082 7.4939C19.4063 8.21233 19.6518 8.9095 20.1034 9.46828C20.2985 9.6972 20.5452 9.87646 20.8232 9.99129C21.1012 10.1061 21.4026 10.1532 21.7023 10.1287C22.2538 10.1099 22.7854 9.91774 23.2214 9.57952L23.3013 10.3582Z" fill="#371400"/>
<path d="M25.4283 3.63208L25.4631 4.32729L24.8791 4.36205L25.1746 9.86115L25.7586 9.82639L25.7933 10.5216L23.9406 10.6259L23.9059 9.93067L24.4898 9.89938L24.1944 4.39681L23.6104 4.43158L23.5791 3.73637L25.4283 3.63208Z" fill="#371400"/>
<path d="M31.3728 10.2087L30.5976 10.2539L29.8676 8.35947L27.3579 8.49851L26.8713 10.4625L26.0996 10.5042L28.0184 3.50344L28.7414 3.45825L31.3728 10.2087ZM29.6 7.63993L28.512 4.74439C28.4628 4.59819 28.4256 4.44822 28.4007 4.29598H28.3834C28.369 4.45358 28.3458 4.61025 28.3138 4.76525L27.5491 7.74422L29.6 7.63993Z" fill="#371400"/>
<path d="M35.3179 9.9932L32.2416 10.16L31.8662 3.27749L32.5614 3.23926L32.909 9.39532L35.2901 9.26323L35.3179 9.9932Z" fill="#371400"/>
<path d="M5.01342 12.5896L7.64826 13.2361L7.38061 17.4387L2.57324 13.5455L5.01342 12.5896Z" fill="#FEBE10"/>
</svg>
