<svg width="59" height="59" viewBox="0 0 59 59" fill="none" xmlns="http://www.w3.org/2000/svg">
<rect x="0.509766" y="0.864014" width="57.93" height="57.93" rx="5.75" fill="white"/>
<path d="M48.2949 26.2964V31.0235L50.8044 28.7503L48.2949 26.2964Z" fill="#AB0000"/>
<path d="M10.6692 31.1904V26.4702L8.15625 28.7503L10.6692 31.1904Z" fill="#AB0000"/>
<path d="M10.6689 19.025L29.48 8.16309L48.2945 19.025V40.7487L29.48 51.6106L10.6689 40.7487V19.025Z" fill="#002540"/>
<path d="M12.6152 20.1475L29.4798 10.4153L46.3444 20.1475V39.6259L29.4798 49.3582L12.6152 39.6259V20.1475Z" fill="#002540"/>
<path d="M29.4808 49.4661L29.4391 49.4382L12.5293 39.6713V20.1025L12.571 20.0782L29.4808 10.3181L29.526 10.3459L46.4357 20.1025V39.6713L46.3906 39.6956L29.4808 49.4661ZM12.6996 39.5774L29.4808 49.2645L46.262 39.5774V20.1963L29.4808 10.5093L12.6996 20.1963V39.5774Z" fill="white"/>
<path d="M50.8113 28.7468H8.15625V39.6087H50.8113V28.7468Z" fill="#F50000"/>
<path d="M29.4801 13.0361L29.9841 13.8912L30.9574 14.1067L30.2969 14.854L30.3943 15.8376L29.4801 15.4449L28.5695 15.8376L28.6564 14.854L28.0029 14.1067L28.9761 13.8912L29.4801 13.0361Z" fill="#F50000"/>
<path d="M23.9645 15.5073L24.4685 16.3589L25.4417 16.5744L24.7813 17.3217L24.8752 18.3123L23.9645 17.923L23.0504 18.3123L23.1442 17.3217L22.4873 16.5744L23.457 16.3589L23.9645 15.5073Z" fill="#F50000"/>
<path d="M34.9997 15.5073L35.5037 16.3589L36.4769 16.5744L35.8165 17.3217L35.9103 18.3123L34.9997 17.923L34.0855 18.3123L34.1724 17.3217L33.5225 16.5744L34.4922 16.3589L34.9997 15.5073Z" fill="#F50000"/>
<path d="M29.4805 41.2354L30.3564 42.7056L32.0352 43.0879L30.9056 44.3809L31.0516 46.0841L29.4805 45.4132L27.899 46.0841L28.0554 44.3809L26.9258 43.0879L28.6046 42.7056L29.4805 41.2354Z" fill="white"/>
<path d="M20.8364 37.5336C20.4456 37.5457 20.0572 37.4691 19.7002 37.3096C19.3432 37.15 19.027 36.9117 18.7753 36.6126C18.2244 35.9365 17.94 35.0822 17.9759 34.2108C17.9331 33.3012 18.2193 32.4066 18.7822 31.6908C19.0423 31.378 19.3704 31.1286 19.7414 30.9618C20.1125 30.7949 20.5167 30.715 20.9233 30.728C21.3099 30.7137 21.6945 30.7895 22.0468 30.9494C22.3991 31.1092 22.7094 31.3488 22.9532 31.6491C23.4972 32.3397 23.7726 33.2041 23.7283 34.0822C23.7703 34.9863 23.4839 35.8752 22.9219 36.5848C22.6699 36.8917 22.3509 37.1368 21.9893 37.3013C21.6278 37.4658 21.2334 37.5453 20.8364 37.5336ZM20.8886 31.9967C20.6687 31.9905 20.4508 32.0409 20.2561 32.1432C20.0613 32.2454 19.8961 32.3961 19.7763 32.5806C19.5082 33.052 19.3672 33.585 19.3672 34.1274C19.3672 34.6697 19.5082 35.2027 19.7763 35.6741C19.8987 35.847 20.0607 35.988 20.2488 36.0853C20.4368 36.1826 20.6455 36.2334 20.8573 36.2334C21.0691 36.2334 21.2777 36.1826 21.4658 36.0853C21.6539 35.988 21.8159 35.847 21.9383 35.6741C22.2322 35.2178 22.3723 34.6794 22.338 34.1378C22.3711 33.5801 22.2354 33.0254 21.9487 32.5459C21.8322 32.3736 21.6737 32.2337 21.4883 32.1395C21.3028 32.0453 21.0965 31.9997 20.8886 32.0071V31.9967Z" fill="white"/>
<path d="M27.7873 32.0489H25.7018V33.6686H27.6135V34.8678H25.7018V37.419H24.374V30.8428H27.7699V32.0489H27.7873Z" fill="white"/>
<path d="M31.819 32.0489H29.7336V33.6686H31.6453V34.8678H29.7336V37.419H28.4023V30.8428H31.8017V32.0489H31.819Z" fill="white"/>
<path d="M35.9801 37.4292H32.4521V30.8252H35.8411V32.0313H33.7729V33.4911H35.6951V34.6938H33.7729V36.1953H35.9801V37.4292Z" fill="white"/>
<path d="M41.5235 37.4294H39.9942L39.0835 35.7332C39.0105 35.6046 38.9514 35.4899 38.8819 35.3856C38.8266 35.2929 38.7626 35.2056 38.6907 35.125C38.6356 35.0562 38.567 34.9994 38.4891 34.9581C38.4207 34.9206 38.3447 34.8991 38.2667 34.8955H37.9191V37.4155H36.5879V30.8428H38.6907C40.1181 30.8428 40.8318 31.4395 40.8318 32.6328C40.8328 32.8475 40.8 33.061 40.7345 33.2654C40.6787 33.4554 40.5879 33.6334 40.4669 33.7902C40.3499 33.9447 40.2091 34.0797 40.0498 34.19C39.879 34.3025 39.6944 34.3925 39.5006 34.4576V34.475C39.5923 34.5101 39.6779 34.5593 39.7543 34.621C39.8397 34.6956 39.9177 34.7782 39.9872 34.8678C40.0567 34.9616 40.1367 35.0589 40.2062 35.1597C40.2757 35.2605 40.3348 35.3683 40.3974 35.476L41.5235 37.4294ZM37.9087 31.9724V33.8076H38.4822C38.6115 33.8134 38.7405 33.7913 38.8605 33.7427C38.9804 33.6941 39.0885 33.6202 39.1774 33.5261C39.2643 33.433 39.3321 33.3237 39.3769 33.2044C39.4216 33.0852 39.4424 32.9582 39.4381 32.8309C39.4381 32.2574 39.1322 31.9724 38.5135 31.9724H37.9087Z" fill="white"/>
<path d="M20.8364 37.5336C20.4456 37.5457 20.0572 37.4691 19.7002 37.3096C19.3432 37.15 19.027 36.9117 18.7753 36.6126C18.2244 35.9365 17.94 35.0822 17.9759 34.2108C17.9331 33.3012 18.2193 32.4066 18.7822 31.6908C19.0423 31.378 19.3704 31.1286 19.7414 30.9618C20.1125 30.7949 20.5167 30.715 20.9233 30.728C21.3099 30.7137 21.6945 30.7895 22.0468 30.9494C22.3991 31.1092 22.7094 31.3488 22.9532 31.6491C23.4972 32.3397 23.7726 33.2041 23.7283 34.0822C23.7703 34.9863 23.4839 35.8752 22.9219 36.5848C22.6699 36.8917 22.3509 37.1368 21.9893 37.3013C21.6278 37.4658 21.2334 37.5453 20.8364 37.5336ZM20.8886 31.9967C20.6687 31.9905 20.4508 32.0409 20.2561 32.1432C20.0613 32.2454 19.8961 32.3961 19.7763 32.5806C19.5082 33.052 19.3672 33.585 19.3672 34.1274C19.3672 34.6697 19.5082 35.2027 19.7763 35.6741C19.8987 35.847 20.0607 35.988 20.2488 36.0853C20.4368 36.1826 20.6455 36.2334 20.8573 36.2334C21.0691 36.2334 21.2777 36.1826 21.4658 36.0853C21.6539 35.988 21.8159 35.847 21.9383 35.6741C22.2322 35.2178 22.3723 34.6794 22.338 34.1378C22.3711 33.5801 22.2354 33.0254 21.9487 32.5459C21.8322 32.3736 21.6737 32.2337 21.4883 32.1395C21.3028 32.0453 21.0965 31.9997 20.8886 32.0071V31.9967Z" fill="#002540"/>
<path d="M27.7873 32.0489H25.7018V33.6686H27.6135V34.8678H25.7018V37.419H24.374V30.8428H27.7699V32.0489H27.7873Z" fill="#002540"/>
<path d="M31.819 32.0489H29.7336V33.6686H31.6453V34.8678H29.7336V37.419H28.4023V30.8428H31.8017V32.0489H31.819Z" fill="#002540"/>
<path d="M35.9801 37.4292H32.4521V30.8252H35.8411V32.0313H33.7729V33.4911H35.6951V34.6938H33.7729V36.1953H35.9801V37.4292Z" fill="#002540"/>
<path d="M41.5235 37.4294H39.9942L39.0835 35.7332C39.0105 35.6046 38.9514 35.4899 38.8819 35.3856C38.8266 35.2929 38.7626 35.2056 38.6907 35.125C38.6356 35.0562 38.567 34.9994 38.4891 34.9581C38.4207 34.9206 38.3447 34.8991 38.2667 34.8955H37.9191V37.4155H36.5879V30.8428H38.6907C40.1181 30.8428 40.8318 31.4395 40.8318 32.6328C40.8328 32.8475 40.8 33.061 40.7345 33.2654C40.6787 33.4554 40.5879 33.6334 40.4669 33.7902C40.3499 33.9447 40.2091 34.0797 40.0498 34.19C39.879 34.3025 39.6944 34.3925 39.5006 34.4576V34.475C39.5923 34.5101 39.6779 34.5593 39.7543 34.621C39.8397 34.6956 39.9177 34.7782 39.9872 34.8678C40.0567 34.9616 40.1367 35.0589 40.2062 35.1597C40.2757 35.2605 40.3348 35.3683 40.3974 35.476L41.5235 37.4294ZM37.9087 31.9724V33.8076H38.4822C38.6115 33.8134 38.7405 33.7913 38.8605 33.7427C38.9804 33.6941 39.0885 33.6202 39.1774 33.5261C39.2643 33.433 39.3321 33.3237 39.3769 33.2044C39.4216 33.0852 39.4424 32.9582 39.4381 32.8309C39.4381 32.2574 39.1322 31.9724 38.5135 31.9724H37.9087Z" fill="#002540"/>
<path d="M20.8364 37.5336C20.4456 37.5457 20.0572 37.4691 19.7002 37.3096C19.3432 37.15 19.027 36.9117 18.7753 36.6126C18.2244 35.9365 17.94 35.0822 17.9759 34.2108C17.9331 33.3012 18.2193 32.4066 18.7822 31.6908C19.0423 31.378 19.3704 31.1286 19.7414 30.9618C20.1125 30.7949 20.5167 30.715 20.9233 30.728C21.3099 30.7137 21.6945 30.7895 22.0468 30.9494C22.3991 31.1092 22.7094 31.3488 22.9532 31.6491C23.4972 32.3397 23.7726 33.2041 23.7283 34.0822C23.7703 34.9863 23.4839 35.8752 22.9219 36.5848C22.6699 36.8917 22.3509 37.1368 21.9893 37.3013C21.6278 37.4658 21.2334 37.5453 20.8364 37.5336ZM20.8886 31.9967C20.6687 31.9905 20.4508 32.0409 20.2561 32.1432C20.0613 32.2454 19.8961 32.3961 19.7763 32.5806C19.5082 33.052 19.3672 33.585 19.3672 34.1274C19.3672 34.6697 19.5082 35.2027 19.7763 35.6741C19.8987 35.847 20.0607 35.988 20.2488 36.0853C20.4368 36.1826 20.6455 36.2334 20.8573 36.2334C21.0691 36.2334 21.2777 36.1826 21.4658 36.0853C21.6539 35.988 21.8159 35.847 21.9383 35.6741C22.2322 35.2178 22.3723 34.6794 22.338 34.1378C22.3711 33.5801 22.2354 33.0254 21.9487 32.5459C21.8322 32.3736 21.6737 32.2337 21.4883 32.1395C21.3028 32.0453 21.0965 31.9997 20.8886 32.0071V31.9967Z" fill="#002540"/>
<path d="M27.7873 32.0489H25.7018V33.6686H27.6135V34.8678H25.7018V37.419H24.374V30.8428H27.7699V32.0489H27.7873Z" fill="#002540"/>
<path d="M31.819 32.0489H29.7336V33.6686H31.6453V34.8678H29.7336V37.419H28.4023V30.8428H31.8017V32.0489H31.819Z" fill="#002540"/>
<path d="M35.9801 37.4292H32.4521V30.8252H35.8411V32.0313H33.7729V33.4911H35.6951V34.6938H33.7729V36.1953H35.9801V37.4292Z" fill="#002540"/>
<path d="M41.5235 37.4294H39.9942L39.0835 35.7332C39.0105 35.6046 38.9514 35.4899 38.8819 35.3856C38.8266 35.2929 38.7626 35.2056 38.6907 35.125C38.6356 35.0562 38.567 34.9994 38.4891 34.9581C38.4207 34.9206 38.3447 34.8991 38.2667 34.8955H37.9191V37.4155H36.5879V30.8428H38.6907C40.1181 30.8428 40.8318 31.4395 40.8318 32.6328C40.8328 32.8475 40.8 33.061 40.7345 33.2654C40.6787 33.4554 40.5879 33.6334 40.4669 33.7902C40.3499 33.9447 40.2091 34.0797 40.0498 34.19C39.879 34.3025 39.6944 34.3925 39.5006 34.4576V34.475C39.5923 34.5101 39.6779 34.5593 39.7543 34.621C39.8397 34.6956 39.9177 34.7782 39.9872 34.8678C40.0567 34.9616 40.1367 35.0589 40.2062 35.1597C40.2757 35.2605 40.3348 35.3683 40.3974 35.476L41.5235 37.4294ZM37.9087 31.9724V33.8076H38.4822C38.6115 33.8134 38.7405 33.7913 38.8605 33.7427C38.9804 33.6941 39.0885 33.6202 39.1774 33.5261C39.2643 33.433 39.3321 33.3237 39.3769 33.2044C39.4216 33.0852 39.4424 32.9582 39.4381 32.8309C39.4381 32.2574 39.1322 31.9724 38.5135 31.9724H37.9087Z" fill="#002540"/>
<path d="M20.8364 37.5336C20.4456 37.5457 20.0572 37.4691 19.7002 37.3096C19.3432 37.15 19.027 36.9117 18.7753 36.6126C18.2244 35.9365 17.94 35.0822 17.9759 34.2108C17.9331 33.3012 18.2193 32.4066 18.7822 31.6908C19.0423 31.378 19.3704 31.1286 19.7414 30.9618C20.1125 30.7949 20.5167 30.715 20.9233 30.728C21.3099 30.7137 21.6945 30.7895 22.0468 30.9494C22.3991 31.1092 22.7094 31.3488 22.9532 31.6491C23.4972 32.3397 23.7726 33.2041 23.7283 34.0822C23.7703 34.9863 23.4839 35.8752 22.9219 36.5848C22.6699 36.8917 22.3509 37.1368 21.9893 37.3013C21.6278 37.4658 21.2334 37.5453 20.8364 37.5336ZM20.8886 31.9967C20.6687 31.9905 20.4508 32.0409 20.2561 32.1432C20.0613 32.2454 19.8961 32.3961 19.7763 32.5806C19.5082 33.052 19.3672 33.585 19.3672 34.1274C19.3672 34.6697 19.5082 35.2027 19.7763 35.6741C19.8987 35.847 20.0607 35.988 20.2488 36.0853C20.4368 36.1826 20.6455 36.2334 20.8573 36.2334C21.0691 36.2334 21.2777 36.1826 21.4658 36.0853C21.6539 35.988 21.8159 35.847 21.9383 35.6741C22.2322 35.2178 22.3723 34.6794 22.338 34.1378C22.3711 33.5801 22.2354 33.0254 21.9487 32.5459C21.8322 32.3736 21.6737 32.2337 21.4883 32.1395C21.3028 32.0453 21.0965 31.9997 20.8886 32.0071V31.9967Z" fill="#002540"/>
<path d="M27.7873 32.0489H25.7018V33.6686H27.6135V34.8678H25.7018V37.419H24.374V30.8428H27.7699V32.0489H27.7873Z" fill="#002540"/>
<path d="M31.819 32.0489H29.7336V33.6686H31.6453V34.8678H29.7336V37.419H28.4023V30.8428H31.8017V32.0489H31.819Z" fill="#002540"/>
<path d="M35.9801 37.4292H32.4521V30.8252H35.8411V32.0313H33.7729V33.4911H35.6951V34.6938H33.7729V36.1953H35.9801V37.4292Z" fill="#002540"/>
<path d="M41.5235 37.4294H39.9942L39.0835 35.7332C39.0105 35.6046 38.9514 35.4899 38.8819 35.3856C38.8266 35.2929 38.7626 35.2056 38.6907 35.125C38.6356 35.0562 38.567 34.9994 38.4891 34.9581C38.4207 34.9206 38.3447 34.8991 38.2667 34.8955H37.9191V37.4155H36.5879V30.8428H38.6907C40.1181 30.8428 40.8318 31.4395 40.8318 32.6328C40.8328 32.8475 40.8 33.061 40.7345 33.2654C40.6787 33.4554 40.5879 33.6334 40.4669 33.7902C40.3499 33.9447 40.2091 34.0797 40.0498 34.19C39.879 34.3025 39.6944 34.3925 39.5006 34.4576V34.475C39.5923 34.5101 39.6779 34.5593 39.7543 34.621C39.8397 34.6956 39.9177 34.7782 39.9872 34.8678C40.0567 34.9616 40.1367 35.0589 40.2062 35.1597C40.2757 35.2605 40.3348 35.3683 40.3974 35.476L41.5235 37.4294ZM37.9087 31.9724V33.8076H38.4822C38.6115 33.8134 38.7405 33.7913 38.8605 33.7427C38.9804 33.6941 39.0885 33.6202 39.1774 33.5261C39.2643 33.433 39.3321 33.3237 39.3769 33.2044C39.4216 33.0852 39.4424 32.9582 39.4381 32.8309C39.4381 32.2574 39.1322 31.9724 38.5135 31.9724H37.9087Z" fill="#002540"/>
<path d="M17.0547 26.8177V26.0217C17.1392 26.1079 17.2365 26.1806 17.3432 26.2372C17.4549 26.3011 17.571 26.3569 17.6908 26.4041C17.8047 26.4451 17.9207 26.4799 18.0383 26.5084C18.1527 26.532 18.2692 26.5436 18.3859 26.5431C18.6724 26.5654 18.957 26.4812 19.1854 26.3068C19.2749 26.2213 19.3446 26.1172 19.3896 26.002C19.4347 25.8867 19.4539 25.7629 19.446 25.6394C19.4494 25.4978 19.4196 25.3573 19.3591 25.2293C19.2958 25.1123 19.2136 25.0066 19.1158 24.9164C19.0031 24.8146 18.8809 24.7238 18.7509 24.6453L18.2886 24.3673C18.1183 24.2665 17.941 24.1587 17.8055 24.0544C17.6612 23.9545 17.5294 23.8379 17.4127 23.7068C17.2986 23.5828 17.2101 23.4375 17.152 23.2793C17.0873 23.0988 17.0555 22.9081 17.0582 22.7163C17.0535 22.4765 17.1034 22.2387 17.2041 22.0211C17.2915 21.831 17.4269 21.6669 17.5969 21.5449C17.761 21.416 17.9488 21.3203 18.1496 21.2634C18.3562 21.2028 18.5703 21.1712 18.7856 21.1695C19.1535 21.1435 19.5217 21.2154 19.8527 21.3781V22.1358C19.5283 21.8915 19.1287 21.7686 18.7231 21.7882C18.5946 21.7903 18.4666 21.8043 18.3407 21.8299C18.2167 21.8581 18.0989 21.9088 17.9932 21.9794C17.8923 22.0498 17.809 22.1426 17.7498 22.2505C17.6859 22.3727 17.6536 22.5089 17.656 22.6467C17.6539 22.7772 17.6763 22.9069 17.722 23.0291C17.7725 23.1406 17.8445 23.241 17.9341 23.3245C18.0423 23.4222 18.1586 23.5106 18.2817 23.5887C18.4103 23.6721 18.5701 23.7625 18.7439 23.8563C18.9177 23.9502 19.0915 24.0649 19.2479 24.1796C19.4003 24.2877 19.5402 24.4124 19.665 24.5515C19.7835 24.6859 19.8798 24.8385 19.95 25.0033C20.0231 25.1855 20.0586 25.3806 20.0543 25.5768C20.0606 25.825 20.0095 26.0712 19.9048 26.2963C19.8188 26.4872 19.6847 26.6525 19.5156 26.776C19.345 26.9005 19.1529 26.9924 18.949 27.0471C18.7306 27.1017 18.5067 27.1309 18.2817 27.134C18.1908 27.1308 18.1002 27.1215 18.0105 27.1062C17.8993 27.1062 17.7777 27.0714 17.663 27.0471C17.5447 27.0211 17.4285 26.9862 17.3154 26.9428C17.2211 26.9188 17.1325 26.8762 17.0547 26.8177Z" fill="white"/>
<path d="M21.6425 24.8749V27.0542H21.0586V21.2948H22.4246C22.6503 21.2804 22.8767 21.3131 23.0891 21.3909C23.3015 21.4687 23.4954 21.5899 23.6585 21.7467C23.8109 21.9184 23.9278 22.1186 24.0023 22.3358C24.0769 22.5529 24.1077 22.7827 24.093 23.0118C24.1126 23.5055 23.9379 23.9872 23.6063 24.3535C23.4376 24.5286 23.2334 24.6657 23.0074 24.7556C22.7814 24.8455 22.5389 24.8862 22.296 24.8749H21.6425ZM21.6425 21.9031V24.2666H22.2508C22.4169 24.2859 22.5852 24.2675 22.7432 24.2128C22.9012 24.1581 23.0448 24.0684 23.1634 23.9505C23.282 23.8326 23.3725 23.6895 23.4281 23.5318C23.4837 23.3741 23.5031 23.2059 23.4847 23.0397C23.4847 22.275 23.0954 21.9031 22.3203 21.9031H21.6425Z" fill="white"/>
<path d="M27.6659 27.0541H25.0312V21.2947H27.5512V21.8925H25.6152V23.8112H27.3948V24.4194H25.6047V26.4354H27.6555V27.0436L27.6659 27.0541Z" fill="white"/>
<path d="M32.0008 26.8108C31.5797 27.0562 31.0975 27.1768 30.6105 27.1584C30.2856 27.17 29.9625 27.1045 29.6677 26.9674C29.3729 26.8303 29.1147 26.6254 28.9143 26.3694C28.4665 25.7693 28.2427 25.0316 28.2817 24.2839C28.2441 23.476 28.501 22.6818 29.0047 22.049C29.2242 21.776 29.5036 21.5573 29.8213 21.4096C30.1389 21.262 30.4862 21.1893 30.8364 21.1974C31.2407 21.1833 31.6429 21.263 32.0112 21.4303V22.1532C31.6607 21.9224 31.2492 21.8014 30.8295 21.8057C30.5621 21.7983 30.2967 21.8543 30.0551 21.9691C29.8135 22.0838 29.6024 22.2542 29.4391 22.4661C29.0613 22.9772 28.8733 23.604 28.9073 24.2387C28.8759 24.8387 29.0514 25.4313 29.4044 25.9175C29.5553 26.1181 29.7521 26.2795 29.9783 26.3884C30.2045 26.4972 30.4534 26.5503 30.7043 26.5432C31.1655 26.5519 31.6182 26.4184 32.0008 26.1608V26.8108Z" fill="white"/>
<path d="M34.0796 21.2947V21.8925H33.593V26.4806H34.0796V27.0645H32.5225V26.4806H33.0091V21.8925H32.5225V21.3121L34.0796 21.2947Z" fill="white"/>
<path d="M38.744 27.0541H38.101L37.5727 25.4378H35.4663L34.9728 27.0541H34.3193L36.2241 21.2947H36.8254L38.744 27.0541ZM37.378 24.8296L36.596 22.3722C36.5633 22.2463 36.5378 22.1186 36.5195 21.9898C36.5021 22.119 36.4753 22.2468 36.4396 22.3722L35.6679 24.8296H37.378Z" fill="white"/>
<path d="M42.0527 27.0541H39.4736V21.2947H40.0541V26.4458H42.0527V27.0541Z" fill="white"/>
</svg>
