<svg width="45" height="28" viewBox="0 0 45 28" fill="none" xmlns="http://www.w3.org/2000/svg">
<path d="M41.5181 11.2971L6.74902 14.4797L7.91338 27.2001L42.6824 24.0175L41.5181 11.2971Z" fill="#FEBE10"/>
<path d="M14.897 24.9368C14.4425 24.992 13.9813 24.9445 13.5476 24.7977C13.1138 24.6509 12.7186 24.4086 12.391 24.0887C11.6774 23.3612 11.2577 22.3957 11.2127 21.3776C11.0622 20.3174 11.3031 19.2386 11.8904 18.3432C12.1587 17.9477 12.5147 17.6196 12.9308 17.3844C13.3468 17.1493 13.8116 17.0135 14.2887 16.9877C14.7397 16.9334 15.197 16.9829 15.6259 17.1323C16.0548 17.2816 16.4439 17.527 16.7635 17.8497C17.4713 18.5966 17.8849 19.5744 17.9279 20.6025C18.077 21.6538 17.8359 22.7234 17.2501 23.6091C16.9837 23.9938 16.6336 24.3131 16.226 24.5431C15.8184 24.773 15.3641 24.9077 14.897 24.9368ZM14.3756 18.4718C14.1182 18.4895 13.8694 18.5725 13.6529 18.713C13.4364 18.8535 13.2593 19.0468 13.1383 19.2747C12.8473 19.8446 12.7381 20.49 12.8254 21.1239C12.8518 21.7643 13.0779 22.3805 13.4719 22.8861C13.6246 23.0827 13.8255 23.2365 14.055 23.3327C14.2846 23.4289 14.5351 23.4643 14.7823 23.4353C15.0315 23.4179 15.2724 23.339 15.4836 23.2055C15.6947 23.072 15.8693 22.8882 15.9919 22.6706C16.2805 22.1062 16.3862 21.466 16.2943 20.8388C16.2765 20.1832 16.0581 19.5487 15.6686 19.021C15.5181 18.8261 15.3204 18.6727 15.0942 18.5754C14.868 18.4781 14.6207 18.4401 14.3756 18.4649V18.4718Z" fill="white"/>
<path d="M22.4218 17.7868L19.9887 18.0023L20.1625 19.8896L22.387 19.688L22.5156 21.0784L20.2911 21.2765L20.5622 24.2587L19.0155 24.3978L18.3203 16.7162L22.2897 16.3687L22.4218 17.7868Z" fill="white"/>
<path d="M27.121 17.3593L24.6879 17.5783L24.8617 19.4656L27.0862 19.264L27.2183 20.6543L24.9938 20.8525L25.2614 23.8347L23.7147 23.9737L23.0195 16.2887L26.9924 15.9412L27.121 17.3593Z" fill="white"/>
<path d="M32.5542 23.1813L28.4354 23.5567L27.7402 15.8752L31.7026 15.5276L31.8347 16.9179L29.419 17.1369L29.5755 18.847L31.8139 18.6384L31.946 20.0287L29.7041 20.2373L29.8605 21.9961L32.4326 21.7597L32.5542 23.1813Z" fill="white"/>
<path d="M39.0254 22.5937L37.2528 22.7571L36.0015 20.8802C35.9041 20.7411 35.8207 20.6125 35.7304 20.4978C35.6595 20.3945 35.5754 20.301 35.4801 20.2198C35.4052 20.1504 35.321 20.0919 35.2298 20.046C35.1442 20.0099 35.0514 19.9945 34.9587 20.0008L34.5416 20.0355L34.8093 22.9761L33.2625 23.1151L32.5674 15.4301L35.0178 15.2042C36.6862 15.0513 37.583 15.6769 37.7116 17.0637C37.7376 17.3171 37.7223 17.573 37.6664 17.8215C37.6165 18.0474 37.5321 18.2643 37.4161 18.4645C37.2992 18.6607 37.1486 18.8349 36.9712 18.9789C36.7874 19.1232 36.5837 19.2403 36.3664 19.3265C36.4776 19.3604 36.583 19.4107 36.6792 19.4759C36.7872 19.5503 36.8884 19.634 36.9816 19.7262C37.0755 19.8235 37.1728 19.9382 37.2667 20.0495C37.3605 20.1607 37.4405 20.2754 37.5204 20.397L39.0254 22.5937ZM34.2288 16.5945L34.42 18.7321L35.0873 18.673C35.2362 18.6642 35.3817 18.6251 35.5149 18.5581C35.6482 18.4912 35.7664 18.3979 35.8624 18.2837C36.0461 18.0468 36.1297 17.7474 36.0953 17.4496C36.0351 16.7799 35.6446 16.4752 34.924 16.5354L34.2288 16.5945Z" fill="white"/>
<path d="M14.897 24.9368C14.4425 24.992 13.9813 24.9445 13.5476 24.7977C13.1138 24.6509 12.7186 24.4086 12.391 24.0887C11.6774 23.3612 11.2577 22.3957 11.2127 21.3776C11.0622 20.3174 11.3031 19.2386 11.8904 18.3432C12.1587 17.9477 12.5147 17.6196 12.9308 17.3844C13.3468 17.1493 13.8116 17.0135 14.2887 16.9877C14.7397 16.9334 15.197 16.9829 15.6259 17.1323C16.0548 17.2816 16.4439 17.527 16.7635 17.8497C17.4713 18.5966 17.8849 19.5744 17.9279 20.6025C18.077 21.6538 17.8359 22.7234 17.2501 23.6091C16.9837 23.9938 16.6336 24.3131 16.226 24.5431C15.8184 24.773 15.3641 24.9077 14.897 24.9368ZM14.3756 18.4718C14.1182 18.4895 13.8694 18.5725 13.6529 18.713C13.4364 18.8535 13.2593 19.0468 13.1383 19.2747C12.8473 19.8446 12.7381 20.49 12.8254 21.1239C12.8518 21.7643 13.0779 22.3805 13.4719 22.8861C13.6246 23.0827 13.8255 23.2365 14.055 23.3327C14.2846 23.4289 14.5351 23.4643 14.7823 23.4353C15.0315 23.4179 15.2724 23.339 15.4836 23.2055C15.6947 23.072 15.8693 22.8882 15.9919 22.6706C16.2805 22.1062 16.3862 21.466 16.2943 20.8388C16.2765 20.1832 16.0581 19.5487 15.6686 19.021C15.5181 18.8261 15.3204 18.6727 15.0942 18.5754C14.868 18.4781 14.6207 18.4401 14.3756 18.4649V18.4718Z" fill="#371400"/>
<path d="M22.4218 17.7868L19.9887 18.0023L20.1625 19.8896L22.387 19.688L22.5156 21.0784L20.2911 21.2765L20.5622 24.2587L19.0155 24.3978L18.3203 16.7162L22.2897 16.3687L22.4218 17.7868Z" fill="#371400"/>
<path d="M27.121 17.3593L24.6879 17.5783L24.8617 19.4656L27.0862 19.264L27.2183 20.6543L24.9938 20.8525L25.2614 23.8347L23.7147 23.9737L23.0195 16.2887L26.9924 15.9412L27.121 17.3593Z" fill="#371400"/>
<path d="M32.5542 23.1813L28.4354 23.5567L27.7402 15.8752L31.7026 15.5276L31.8347 16.9179L29.419 17.1369L29.5755 18.847L31.8139 18.6384L31.946 20.0287L29.7041 20.2373L29.8605 21.9961L32.4326 21.7597L32.5542 23.1813Z" fill="#371400"/>
<path d="M39.0254 22.5937L37.2528 22.7571L36.0015 20.8802C35.9041 20.7411 35.8207 20.6125 35.7304 20.4978C35.6595 20.3945 35.5754 20.301 35.4801 20.2198C35.4052 20.1504 35.321 20.0919 35.2298 20.046C35.1442 20.0099 35.0514 19.9945 34.9587 20.0008L34.5416 20.0355L34.8093 22.9761L33.2625 23.1151L32.5674 15.4301L35.0178 15.2042C36.6862 15.0513 37.583 15.6769 37.7116 17.0637C37.7376 17.3171 37.7223 17.573 37.6664 17.8215C37.6165 18.0474 37.5321 18.2643 37.4161 18.4645C37.2992 18.6607 37.1486 18.8349 36.9712 18.9789C36.7874 19.1232 36.5837 19.2403 36.3664 19.3265C36.4776 19.3604 36.583 19.4107 36.6792 19.4759C36.7872 19.5503 36.8884 19.634 36.9816 19.7262C37.0755 19.8235 37.1728 19.9382 37.2667 20.0495C37.3605 20.1607 37.4405 20.2754 37.5204 20.397L39.0254 22.5937ZM34.2288 16.5945L34.42 18.7321L35.0873 18.673C35.2362 18.6642 35.3817 18.6251 35.5149 18.5581C35.6482 18.4912 35.7664 18.3979 35.8624 18.2837C36.0461 18.0468 36.1297 17.7474 36.0953 17.4496C36.0351 16.7799 35.6446 16.4752 34.924 16.5354L34.2288 16.5945Z" fill="#371400"/>
<path d="M14.897 24.9368C14.4425 24.992 13.9813 24.9445 13.5476 24.7977C13.1138 24.6509 12.7186 24.4086 12.391 24.0887C11.6774 23.3612 11.2577 22.3957 11.2127 21.3776C11.0622 20.3174 11.3031 19.2386 11.8904 18.3432C12.1587 17.9477 12.5147 17.6196 12.9308 17.3844C13.3468 17.1493 13.8116 17.0135 14.2887 16.9877C14.7397 16.9334 15.197 16.9829 15.6259 17.1323C16.0548 17.2816 16.4439 17.527 16.7635 17.8497C17.4713 18.5966 17.8849 19.5744 17.9279 20.6025C18.077 21.6538 17.8359 22.7234 17.2501 23.6091C16.9837 23.9938 16.6336 24.3131 16.226 24.5431C15.8184 24.773 15.3641 24.9077 14.897 24.9368ZM14.3756 18.4718C14.1182 18.4895 13.8694 18.5725 13.6529 18.713C13.4364 18.8535 13.2593 19.0468 13.1383 19.2747C12.8473 19.8446 12.7381 20.49 12.8254 21.1239C12.8518 21.7643 13.0779 22.3805 13.4719 22.8861C13.6246 23.0827 13.8255 23.2365 14.055 23.3327C14.2846 23.4289 14.5351 23.4643 14.7823 23.4353C15.0315 23.4179 15.2724 23.339 15.4836 23.2055C15.6947 23.072 15.8693 22.8882 15.9919 22.6706C16.2805 22.1062 16.3862 21.466 16.2943 20.8388C16.2765 20.1832 16.0581 19.5487 15.6686 19.021C15.5181 18.8261 15.3204 18.6727 15.0942 18.5754C14.868 18.4781 14.6207 18.4401 14.3756 18.4649V18.4718Z" fill="#371400"/>
<path d="M22.4218 17.7868L19.9887 18.0023L20.1625 19.8896L22.387 19.688L22.5156 21.0784L20.2911 21.2765L20.5622 24.2587L19.0155 24.3978L18.3203 16.7162L22.2897 16.3687L22.4218 17.7868Z" fill="#371400"/>
<path d="M27.121 17.3593L24.6879 17.5783L24.8617 19.4656L27.0862 19.264L27.2183 20.6543L24.9938 20.8525L25.2614 23.8347L23.7147 23.9737L23.0195 16.2887L26.9924 15.9412L27.121 17.3593Z" fill="#371400"/>
<path d="M32.5542 23.1813L28.4354 23.5567L27.7402 15.8752L31.7026 15.5276L31.8347 16.9179L29.419 17.1369L29.5755 18.847L31.8139 18.6384L31.946 20.0287L29.7041 20.2373L29.8605 21.9961L32.4326 21.7597L32.5542 23.1813Z" fill="#371400"/>
<path d="M39.0254 22.5937L37.2528 22.7571L36.0015 20.8802C35.9041 20.7411 35.8207 20.6125 35.7304 20.4978C35.6595 20.3945 35.5754 20.301 35.4801 20.2198C35.4052 20.1504 35.321 20.0919 35.2298 20.046C35.1442 20.0099 35.0514 19.9945 34.9587 20.0008L34.5416 20.0355L34.8093 22.9761L33.2625 23.1151L32.5674 15.4301L35.0178 15.2042C36.6862 15.0513 37.583 15.6769 37.7116 17.0637C37.7376 17.3171 37.7223 17.573 37.6664 17.8215C37.6165 18.0474 37.5321 18.2643 37.4161 18.4645C37.2992 18.6607 37.1486 18.8349 36.9712 18.9789C36.7874 19.1232 36.5837 19.2403 36.3664 19.3265C36.4776 19.3604 36.583 19.4107 36.6792 19.4759C36.7872 19.5503 36.8884 19.634 36.9816 19.7262C37.0755 19.8235 37.1728 19.9382 37.2667 20.0495C37.3605 20.1607 37.4405 20.2754 37.5204 20.397L39.0254 22.5937ZM34.2288 16.5945L34.42 18.7321L35.0873 18.673C35.2362 18.6642 35.3817 18.6251 35.5149 18.5581C35.6482 18.4912 35.7664 18.3979 35.8624 18.2837C36.0461 18.0468 36.1297 17.7474 36.0953 17.4496C36.0351 16.7799 35.6446 16.4752 34.924 16.5354L34.2288 16.5945Z" fill="#371400"/>
<path d="M14.897 24.9368C14.4425 24.992 13.9813 24.9445 13.5476 24.7977C13.1138 24.6509 12.7186 24.4086 12.391 24.0887C11.6774 23.3612 11.2577 22.3957 11.2127 21.3776C11.0622 20.3174 11.3031 19.2386 11.8904 18.3432C12.1587 17.9477 12.5147 17.6196 12.9308 17.3844C13.3468 17.1493 13.8116 17.0135 14.2887 16.9877C14.7397 16.9334 15.197 16.9829 15.6259 17.1323C16.0548 17.2816 16.4439 17.527 16.7635 17.8497C17.4713 18.5966 17.8849 19.5744 17.9279 20.6025C18.077 21.6538 17.8359 22.7234 17.2501 23.6091C16.9837 23.9938 16.6336 24.3131 16.226 24.5431C15.8184 24.773 15.3641 24.9077 14.897 24.9368ZM14.3756 18.4718C14.1182 18.4895 13.8694 18.5725 13.6529 18.713C13.4364 18.8535 13.2593 19.0468 13.1383 19.2747C12.8473 19.8446 12.7381 20.49 12.8254 21.1239C12.8518 21.7643 13.0779 22.3805 13.4719 22.8861C13.6246 23.0827 13.8255 23.2365 14.055 23.3327C14.2846 23.4289 14.5351 23.4643 14.7823 23.4353C15.0315 23.4179 15.2724 23.339 15.4836 23.2055C15.6947 23.072 15.8693 22.8882 15.9919 22.6706C16.2805 22.1062 16.3862 21.466 16.2943 20.8388C16.2765 20.1832 16.0581 19.5487 15.6686 19.021C15.5181 18.8261 15.3204 18.6727 15.0942 18.5754C14.868 18.4781 14.6207 18.4401 14.3756 18.4649V18.4718Z" fill="#371400"/>
<path d="M22.4218 17.7868L19.9887 18.0023L20.1625 19.8896L22.387 19.688L22.5156 21.0784L20.2911 21.2765L20.5622 24.2587L19.0155 24.3978L18.3203 16.7162L22.2897 16.3687L22.4218 17.7868Z" fill="#371400"/>
<path d="M27.121 17.3593L24.6879 17.5783L24.8617 19.4656L27.0862 19.264L27.2183 20.6543L24.9938 20.8525L25.2614 23.8347L23.7147 23.9737L23.0195 16.2887L26.9924 15.9412L27.121 17.3593Z" fill="#371400"/>
<path d="M32.5542 23.1813L28.4354 23.5567L27.7402 15.8752L31.7026 15.5276L31.8347 16.9179L29.419 17.1369L29.5755 18.847L31.8139 18.6384L31.946 20.0287L29.7041 20.2373L29.8605 21.9961L32.4326 21.7597L32.5542 23.1813Z" fill="#371400"/>
<path d="M39.0254 22.5937L37.2528 22.7571L36.0015 20.8802C35.9041 20.7411 35.8207 20.6125 35.7304 20.4978C35.6595 20.3945 35.5754 20.301 35.4801 20.2198C35.4052 20.1504 35.321 20.0919 35.2298 20.046C35.1442 20.0099 35.0514 19.9945 34.9587 20.0008L34.5416 20.0355L34.8093 22.9761L33.2625 23.1151L32.5674 15.4301L35.0178 15.2042C36.6862 15.0513 37.583 15.6769 37.7116 17.0637C37.7376 17.3171 37.7223 17.573 37.6664 17.8215C37.6165 18.0474 37.5321 18.2643 37.4161 18.4645C37.2992 18.6607 37.1486 18.8349 36.9712 18.9789C36.7874 19.1232 36.5837 19.2403 36.3664 19.3265C36.4776 19.3604 36.583 19.4107 36.6792 19.4759C36.7872 19.5503 36.8884 19.634 36.9816 19.7262C37.0755 19.8235 37.1728 19.9382 37.2667 20.0495C37.3605 20.1607 37.4405 20.2754 37.5204 20.397L39.0254 22.5937ZM34.2288 16.5945L34.42 18.7321L35.0873 18.673C35.2362 18.6642 35.3817 18.6251 35.5149 18.5581C35.6482 18.4912 35.7664 18.3979 35.8624 18.2837C36.0461 18.0468 36.1297 17.7474 36.0953 17.4496C36.0351 16.7799 35.6446 16.4752 34.924 16.5354L34.2288 16.5945Z" fill="#371400"/>
<path d="M0.878906 4.9961L36.6171 1.69409L37.6876 13.2616L1.94598 16.5636L0.878906 4.9961Z" fill="#371400"/>
<path d="M44.2607 1L8.52539 4.30249L8.58296 4.92548L44.3183 1.62299L44.2607 1Z" fill="#371400"/>
<path d="M40.2944 0.177335L16.9258 2.34106L16.9835 2.96404L40.3521 0.800314L40.2944 0.177335Z" fill="#FEBE10"/>
<path d="M29.5113 24.5799L4.28027 26.9116L4.33785 27.5346L29.5689 25.2029L29.5113 24.5799Z" fill="#FEBE10"/>
<path d="M39.3745 24.9085L16.0059 27.0723L16.0635 27.6952L39.4322 25.5315L39.3745 24.9085Z" fill="#371400"/>
<path d="M6.1205 13.3553L6.04056 12.4968C6.147 12.5809 6.26382 12.651 6.38814 12.7053C6.51271 12.7651 6.64318 12.8117 6.77743 12.8444C6.91252 12.8779 7.04947 12.9035 7.18757 12.9208C7.31242 12.9328 7.43812 12.9328 7.56296 12.9208C7.87614 12.9104 8.17494 12.787 8.4041 12.5733C8.49458 12.474 8.56131 12.3554 8.59924 12.2266C8.63718 12.0977 8.64533 11.9619 8.62308 11.8294C8.61086 11.678 8.56324 11.5316 8.48405 11.4019C8.40517 11.2807 8.30509 11.1748 8.1886 11.0891C8.05522 10.9881 7.91199 10.9007 7.76108 10.8284L7.23971 10.5782C7.03812 10.4808 6.85737 10.387 6.68358 10.2897C6.51855 10.1907 6.36472 10.0742 6.22478 9.94209C6.08959 9.81985 5.97976 9.67222 5.90153 9.50761C5.80832 9.32016 5.75506 9.1154 5.74512 8.9063C5.71683 8.65072 5.7502 8.39208 5.84244 8.15205C5.921 7.94003 6.04841 7.7495 6.21435 7.59592C6.38139 7.44953 6.5717 7.33205 6.77743 7.24834C6.99313 7.16541 7.21858 7.11051 7.44826 7.08498C7.84295 7.02151 8.24731 7.05979 8.62308 7.1962L8.69955 8.03735C8.32579 7.80651 7.88374 7.71196 7.44826 7.76971C7.30854 7.78202 7.17082 7.8112 7.03811 7.85661C6.90999 7.89832 6.79171 7.96573 6.69053 8.05473C6.58981 8.14184 6.50917 8.24975 6.45418 8.37102C6.39534 8.51023 6.37494 8.66267 6.39509 8.81245C6.40362 8.95535 6.44148 9.09497 6.50632 9.2226C6.57204 9.33379 6.65674 9.43261 6.75658 9.51456C6.87889 9.60978 7.01047 9.69246 7.14934 9.76134C7.29532 9.83781 7.46912 9.91428 7.67071 10.0116C7.87231 10.1089 8.06 10.2028 8.24422 10.307C8.42113 10.4008 8.58477 10.5177 8.73083 10.6546C8.86649 10.7915 8.98338 10.9458 9.07841 11.1134C9.1747 11.3044 9.23369 11.5121 9.2522 11.7252C9.28428 11.9916 9.25332 12.2619 9.16182 12.5142C9.08626 12.7277 8.95841 12.9189 8.78992 13.0703C8.61895 13.222 8.42081 13.3399 8.20598 13.4179C7.97502 13.4963 7.73603 13.5488 7.49344 13.5743C7.40655 13.5743 7.30575 13.5743 7.18062 13.5743C7.0555 13.5743 6.93036 13.5743 6.79133 13.5395C6.66192 13.5251 6.534 13.4995 6.409 13.4631C6.30821 13.441 6.21107 13.4047 6.1205 13.3553Z" fill="white"/>
<path d="M10.8645 10.8178L11.08 13.164L10.4544 13.2266L9.88086 6.99445L11.3476 6.85542C11.592 6.81601 11.8419 6.82812 12.0814 6.89097C12.3208 6.95382 12.5445 7.06602 12.738 7.22038C12.9216 7.39099 13.0691 7.59673 13.1718 7.82539C13.2745 8.05406 13.3303 8.30101 13.3358 8.55161C13.4012 9.08012 13.2619 9.61362 12.9465 10.0427C12.7819 10.2497 12.5748 10.4189 12.3391 10.5388C12.1034 10.6587 11.8447 10.7266 11.5805 10.7379L10.8645 10.8178ZM10.5691 7.61314L10.8019 10.1574L11.4624 10.0983C11.6431 10.0941 11.821 10.053 11.9853 9.97773C12.1497 9.90243 12.297 9.79446 12.4182 9.66039C12.5251 9.51751 12.6025 9.35485 12.6461 9.18182C12.6896 9.0088 12.6984 8.82885 12.6719 8.65241C12.592 7.83907 12.1401 7.46368 11.2816 7.54015L10.5691 7.61314Z" fill="white"/>
<path d="M17.5802 12.5559L14.737 12.8165L14.167 6.60529L16.8851 6.35156L16.9476 7.01196L14.8622 7.20313L15.0533 9.28861L16.9928 9.1044L17.0415 9.74047L15.102 9.92121L15.3036 12.0936L17.5211 11.8885L17.5802 12.5559Z" fill="white"/>
<path d="M22.2275 11.8608C21.8025 12.1564 21.3051 12.3306 20.7885 12.3648C20.4371 12.4076 20.0806 12.3669 19.7479 12.2461C19.4151 12.1254 19.1155 11.9279 18.8734 11.6696C18.3318 11.0674 18.0161 10.2959 17.9801 9.48683C17.862 8.61995 18.0554 7.7393 18.5258 7.00163C18.7349 6.68718 19.0129 6.42451 19.3388 6.2336C19.6646 6.04268 20.0297 5.92852 20.4062 5.89981C20.8385 5.84577 21.2774 5.89216 21.6888 6.03536L21.7583 6.81047C21.3597 6.59893 20.9072 6.51061 20.4583 6.55673C20.1687 6.57658 19.8879 6.66433 19.6385 6.81287C19.3891 6.96142 19.1782 7.16659 19.0228 7.41178C18.6689 8.00141 18.5278 8.69455 18.6231 9.3756C18.6455 10.0254 18.8909 10.6478 19.3183 11.1378C19.5015 11.3392 19.7303 11.4938 19.9854 11.5887C20.2406 11.6837 20.5148 11.7162 20.7851 11.6835C21.2838 11.6602 21.7622 11.4788 22.1511 11.1656L22.2275 11.8608Z" fill="white"/>
<path d="M23.9233 5.69849L23.9858 6.32761L23.4645 6.37975L23.9233 11.3501L24.4446 11.298L24.5072 11.9202L22.8284 12.0766L22.7693 11.4544L23.2872 11.3988L22.8284 6.43188L22.307 6.48054L22.2549 5.85838L23.9233 5.69849Z" fill="white"/>
<path d="M29.5304 11.4438L28.8352 11.5063L28.1053 9.81015L25.8356 10.0187L25.4637 11.8087L24.7686 11.8678L26.2458 5.4654L26.8957 5.40283L29.5304 11.4438ZM27.8446 9.1845L26.7741 6.61241C26.7242 6.47981 26.6836 6.34393 26.6524 6.20574H26.6351C26.6285 6.34772 26.6145 6.48925 26.5933 6.62979L25.999 9.35829L27.8446 9.1845Z" fill="white"/>
<path d="M33.0993 11.1135L30.3186 11.3742L29.7451 5.16291L30.3708 5.10034L30.8852 10.6616L33.0298 10.4705L33.0993 11.1135Z" fill="white"/>
</svg>
