<svg width="44" height="44" viewBox="0 0 44 44" fill="none" xmlns="http://www.w3.org/2000/svg">
<path d="M21.6155 0.163086C23.8678 0.163086 25.717 2.42236 27.7329 3.08276C29.8184 3.76054 32.6512 3.048 34.3891 4.31667C36.127 5.58533 36.3355 8.50501 37.6042 10.2707C38.8729 12.0364 41.5909 13.0826 42.2757 15.1681C42.9291 17.1876 41.3824 19.6449 41.3824 21.8868C41.3824 24.1287 42.9395 26.5792 42.2757 28.6056C41.6014 30.691 38.8729 31.7651 37.6042 33.5064C36.3355 35.2478 36.1339 38.1779 34.3786 39.457C32.6234 40.7361 29.8184 40.0027 27.7329 40.6909C25.717 41.3513 23.8678 43.6106 21.6155 43.6106C19.3632 43.6106 17.521 41.3513 15.5051 40.6909C13.4196 40.0131 10.5868 40.7257 8.8489 39.457C7.111 38.1883 6.91288 35.2687 5.62684 33.5064C4.34079 31.7442 1.64705 30.6876 0.962313 28.6056C0.308863 26.5792 1.85559 24.1461 1.85559 21.8868C1.85559 19.6276 0.301912 17.1945 0.962313 15.1681C1.65747 13.0826 4.3686 12.0086 5.63726 10.2707C6.90593 8.53281 7.10405 5.59229 8.85933 4.33405C10.6146 3.07581 13.43 3.77097 15.5155 3.08276C17.5314 2.42236 19.3841 0.163086 21.6155 0.163086Z" fill="#FEBE10"/>
<path d="M43.2001 21.8869C43.2001 24.6676 40.767 26.9685 39.7591 29.3946C38.7163 31.9146 38.7789 35.2409 36.8846 37.1387C34.9903 39.0365 31.6535 38.9705 29.1405 40.0132C26.7074 41.0212 24.4238 43.4543 21.6328 43.4543C18.8417 43.4543 16.5511 41.0212 14.125 40.0132C11.6051 38.9705 8.27874 39.033 6.38443 37.1387C4.49012 35.2444 4.54921 31.9077 3.50647 29.3946C2.49849 26.9685 0.0654297 24.6745 0.0654297 21.8869C0.0654297 19.0993 2.49849 16.8053 3.50647 14.3792C4.54921 11.8592 4.49012 8.5329 6.38443 6.63511C8.27874 4.73732 11.5981 4.80336 14.125 3.76062C16.5581 2.75264 18.8452 0.31958 21.6328 0.31958C24.4204 0.31958 26.7179 2.75264 29.1405 3.76062C31.6604 4.80336 34.9903 4.7408 36.8846 6.63511C38.7789 8.52942 38.7163 11.8662 39.7591 14.3792C40.7601 16.8053 43.2001 19.0959 43.2001 21.8869Z" fill="#371400"/>
<path d="M21.6258 39.457C31.3296 39.457 39.196 31.5906 39.196 21.8868C39.196 12.1831 31.3296 4.31665 21.6258 4.31665C11.9221 4.31665 4.05566 12.1831 4.05566 21.8868C4.05566 31.5906 11.9221 39.457 21.6258 39.457Z" fill="#371400"/>
<path d="M21.6155 39.5509C18.1223 39.5489 14.7082 38.5111 11.8048 36.5689C8.90129 34.6267 6.63887 31.8673 5.30352 28.6394C3.96818 25.4116 3.61986 21.8603 4.3026 18.4345C4.98535 15.0087 6.66851 11.8622 9.13928 9.39289C11.61 6.92358 14.7575 5.24228 18.1837 4.56156C21.6099 3.88083 25.161 4.23125 28.3881 5.5685C31.6151 6.90575 34.3733 9.1698 36.3137 12.0744C38.2542 14.979 39.2899 18.3938 39.2899 21.8869C39.2844 26.5718 37.4202 31.0631 34.1065 34.3749C30.7928 37.6866 26.3004 39.5482 21.6155 39.5509ZM21.6155 4.40365C18.1576 4.40365 14.7774 5.42902 11.9023 7.35011C9.02721 9.2712 6.78634 12.0017 5.46307 15.1964C4.1398 18.391 3.79358 21.9063 4.46817 25.2977C5.14277 28.6892 6.80789 31.8044 9.25297 34.2495C11.698 36.6945 14.8133 38.3597 18.2047 39.0343C21.5961 39.7089 25.1114 39.3626 28.3061 38.0394C31.5007 36.7161 34.2312 34.4752 36.1523 31.6001C38.0734 28.725 39.0988 25.3448 39.0988 21.8869C39.0923 17.252 37.2483 12.8088 33.9709 9.53149C30.6936 6.25413 26.2504 4.41008 21.6155 4.40365Z" fill="white"/>
<path d="M11.633 29.8464C11.1884 29.8621 10.7461 29.7764 10.3396 29.5957C9.93312 29.415 9.57309 29.1442 9.28683 28.8037C8.65642 28.0343 8.33435 27.0582 8.38312 26.0647C8.33204 25.0267 8.65932 24.0053 9.30421 23.1902C9.59867 22.8334 9.97124 22.5491 10.3931 22.3592C10.815 22.1694 11.2749 22.0791 11.7373 22.0954C12.1782 22.0803 12.6168 22.1665 13.0192 22.3472C13.4217 22.528 13.7774 22.7985 14.0591 23.1381C14.6798 23.928 14.9945 24.9154 14.9454 25.9188C14.9961 26.9483 14.6685 27.9607 14.0243 28.7654C13.7346 29.1161 13.3684 29.3957 12.954 29.5831C12.5395 29.7705 12.0876 29.8605 11.633 29.8464ZM11.6921 23.5448C11.4426 23.54 11.196 23.5992 10.9757 23.7166C10.7555 23.834 10.569 24.0058 10.4338 24.2156C10.0985 24.7402 9.93457 25.356 9.96461 25.9778C9.93173 26.6011 10.0959 27.2189 10.4338 27.7435C10.5666 27.9461 10.7483 28.1118 10.9622 28.2255C11.1761 28.3391 11.4152 28.3969 11.6573 28.3935C11.9011 28.4007 12.1428 28.3466 12.3602 28.236C12.5776 28.1255 12.7638 27.9621 12.9017 27.7609C13.2327 27.2439 13.3931 26.6361 13.3605 26.023C13.4037 25.3848 13.2522 24.7485 12.926 24.1982C12.7942 23.9921 12.6112 23.8236 12.395 23.7091C12.1788 23.5946 11.9367 23.538 11.6921 23.5448Z" fill="white"/>
<path d="M19.5577 23.59H17.1942V25.4322H19.3665V26.8225H17.1942V29.7074H15.6787V22.217H19.5577V23.59Z" fill="white"/>
<path d="M24.1529 23.59H21.7893V25.4322H23.9617V26.8225H21.7893V29.7074H20.2773V22.217H24.1529V23.59Z" fill="white"/>
<path d="M28.9149 29.7074H24.876V22.217H28.7411V23.6074H26.388V25.2757H28.5673V26.6661H26.3775V28.3518H28.8905L28.9149 29.7074Z" fill="white"/>
<path d="M35.2128 29.7074H33.4749L32.4322 27.7783C32.3557 27.6289 32.2758 27.4968 32.2097 27.3856C32.1443 27.2817 32.0711 27.1829 31.9908 27.0901C31.9239 27.0248 31.8478 26.9697 31.7648 26.9267C31.6859 26.8803 31.5957 26.8563 31.5041 26.8572H31.0975V29.7074H29.582V22.217H31.9838C33.607 22.217 34.4169 22.9122 34.4169 24.2608C34.4194 24.5046 34.3842 24.7473 34.3126 24.9803C34.2429 25.1938 34.1409 25.3955 34.0102 25.5781C33.8769 25.7576 33.7148 25.9138 33.5305 26.0404C33.3406 26.1704 33.1336 26.2734 32.9153 26.3463C33.0205 26.3856 33.1172 26.4446 33.2003 26.5201C33.2981 26.6029 33.3877 26.6948 33.468 26.7947C33.5594 26.9054 33.6441 27.0214 33.7217 27.1423C33.8017 27.2639 33.8781 27.3786 33.9407 27.4898L35.2128 29.7074ZM31.1044 23.4857V25.5712H31.7579C31.9028 25.5763 32.0472 25.5511 32.1819 25.4973C32.3166 25.4434 32.4385 25.362 32.5399 25.2584C32.7393 25.0436 32.8455 24.7587 32.8354 24.4659C32.8354 23.8159 32.4878 23.4857 31.7926 23.4857H31.1044Z" fill="white"/>
<path d="M11.633 29.8464C11.1884 29.8621 10.7461 29.7764 10.3396 29.5957C9.93312 29.415 9.57309 29.1442 9.28683 28.8037C8.65642 28.0343 8.33435 27.0582 8.38312 26.0647C8.33204 25.0267 8.65932 24.0053 9.30421 23.1902C9.59867 22.8334 9.97124 22.5491 10.3931 22.3592C10.815 22.1694 11.2749 22.0791 11.7373 22.0954C12.1782 22.0803 12.6168 22.1665 13.0192 22.3472C13.4217 22.528 13.7774 22.7985 14.0591 23.1381C14.6798 23.928 14.9945 24.9154 14.9454 25.9188C14.9961 26.9483 14.6685 27.9607 14.0243 28.7654C13.7346 29.1161 13.3684 29.3957 12.954 29.5831C12.5395 29.7705 12.0876 29.8605 11.633 29.8464ZM11.6921 23.5448C11.4426 23.54 11.196 23.5992 10.9757 23.7166C10.7555 23.834 10.569 24.0058 10.4338 24.2156C10.0985 24.7402 9.93457 25.356 9.96461 25.9778C9.93173 26.6011 10.0959 27.2189 10.4338 27.7435C10.5666 27.9461 10.7483 28.1118 10.9622 28.2255C11.1761 28.3391 11.4152 28.3969 11.6573 28.3935C11.9011 28.4007 12.1428 28.3466 12.3602 28.236C12.5776 28.1255 12.7638 27.9621 12.9017 27.7609C13.2327 27.2439 13.3931 26.6361 13.3605 26.023C13.4037 25.3848 13.2522 24.7485 12.926 24.1982C12.7942 23.9921 12.6112 23.8236 12.395 23.7091C12.1788 23.5946 11.9367 23.538 11.6921 23.5448Z" fill="#FEBE10"/>
<path d="M19.5577 23.59H17.1942V25.4322H19.3665V26.8225H17.1942V29.7074H15.6787V22.217H19.5577V23.59Z" fill="#FEBE10"/>
<path d="M24.1529 23.59H21.7893V25.4322H23.9617V26.8225H21.7893V29.7074H20.2773V22.217H24.1529V23.59Z" fill="#FEBE10"/>
<path d="M28.9149 29.7074H24.876V22.217H28.7411V23.6074H26.388V25.2757H28.5673V26.6661H26.3775V28.3518H28.8905L28.9149 29.7074Z" fill="#FEBE10"/>
<path d="M35.2128 29.7074H33.4749L32.4322 27.7783C32.3557 27.6289 32.2758 27.4968 32.2097 27.3856C32.1443 27.2817 32.0711 27.1829 31.9908 27.0901C31.9239 27.0248 31.8478 26.9697 31.7648 26.9267C31.6859 26.8803 31.5957 26.8563 31.5041 26.8572H31.0975V29.7074H29.582V22.217H31.9838C33.607 22.217 34.4169 22.9122 34.4169 24.2608C34.4194 24.5046 34.3842 24.7473 34.3126 24.9803C34.2429 25.1938 34.1409 25.3955 34.0102 25.5781C33.8769 25.7576 33.7148 25.9138 33.5305 26.0404C33.3406 26.1704 33.1336 26.2734 32.9153 26.3463C33.0205 26.3856 33.1172 26.4446 33.2003 26.5201C33.2981 26.6029 33.3877 26.6948 33.468 26.7947C33.5594 26.9054 33.6441 27.0214 33.7217 27.1423C33.8017 27.2639 33.8781 27.3786 33.9407 27.4898L35.2128 29.7074ZM31.1044 23.4857V25.5712H31.7579C31.9028 25.5763 32.0472 25.5511 32.1819 25.4973C32.3166 25.4434 32.4385 25.362 32.5399 25.2584C32.7393 25.0436 32.8455 24.7587 32.8354 24.4659C32.8354 23.8159 32.4878 23.4857 31.7926 23.4857H31.1044Z" fill="#FEBE10"/>
<path d="M11.633 29.8464C11.1884 29.8621 10.7461 29.7764 10.3396 29.5957C9.93312 29.415 9.57309 29.1442 9.28683 28.8037C8.65642 28.0343 8.33435 27.0582 8.38312 26.0647C8.33204 25.0267 8.65932 24.0053 9.30421 23.1902C9.59867 22.8334 9.97124 22.5491 10.3931 22.3592C10.815 22.1694 11.2749 22.0791 11.7373 22.0954C12.1782 22.0803 12.6168 22.1665 13.0192 22.3472C13.4217 22.528 13.7774 22.7985 14.0591 23.1381C14.6798 23.928 14.9945 24.9154 14.9454 25.9188C14.9961 26.9483 14.6685 27.9607 14.0243 28.7654C13.7346 29.1161 13.3684 29.3957 12.954 29.5831C12.5395 29.7705 12.0876 29.8605 11.633 29.8464ZM11.6921 23.5448C11.4426 23.54 11.196 23.5992 10.9757 23.7166C10.7555 23.834 10.569 24.0058 10.4338 24.2156C10.0985 24.7402 9.93457 25.356 9.96461 25.9778C9.93173 26.6011 10.0959 27.2189 10.4338 27.7435C10.5666 27.9461 10.7483 28.1118 10.9622 28.2255C11.1761 28.3391 11.4152 28.3969 11.6573 28.3935C11.9011 28.4007 12.1428 28.3466 12.3602 28.236C12.5776 28.1255 12.7638 27.9621 12.9017 27.7609C13.2327 27.2439 13.3931 26.6361 13.3605 26.023C13.4037 25.3848 13.2522 24.7485 12.926 24.1982C12.7942 23.9921 12.6112 23.8236 12.395 23.7091C12.1788 23.5946 11.9367 23.538 11.6921 23.5448Z" fill="#FEBE10"/>
<path d="M19.5577 23.59H17.1942V25.4322H19.3665V26.8225H17.1942V29.7074H15.6787V22.217H19.5577V23.59Z" fill="#FEBE10"/>
<path d="M24.1529 23.59H21.7893V25.4322H23.9617V26.8225H21.7893V29.7074H20.2773V22.217H24.1529V23.59Z" fill="#FEBE10"/>
<path d="M28.9149 29.7074H24.876V22.217H28.7411V23.6074H26.388V25.2757H28.5673V26.6661H26.3775V28.3518H28.8905L28.9149 29.7074Z" fill="#FEBE10"/>
<path d="M35.2128 29.7074H33.4749L32.4322 27.7783C32.3557 27.6289 32.2758 27.4968 32.2097 27.3856C32.1443 27.2817 32.0711 27.1829 31.9908 27.0901C31.9239 27.0248 31.8478 26.9697 31.7648 26.9267C31.6859 26.8803 31.5957 26.8563 31.5041 26.8572H31.0975V29.7074H29.582V22.217H31.9838C33.607 22.217 34.4169 22.9122 34.4169 24.2608C34.4194 24.5046 34.3842 24.7473 34.3126 24.9803C34.2429 25.1938 34.1409 25.3955 34.0102 25.5781C33.8769 25.7576 33.7148 25.9138 33.5305 26.0404C33.3406 26.1704 33.1336 26.2734 32.9153 26.3463C33.0205 26.3856 33.1172 26.4446 33.2003 26.5201C33.2981 26.6029 33.3877 26.6948 33.468 26.7947C33.5594 26.9054 33.6441 27.0214 33.7217 27.1423C33.8017 27.2639 33.8781 27.3786 33.9407 27.4898L35.2128 29.7074ZM31.1044 23.4857V25.5712H31.7579C31.9028 25.5763 32.0472 25.5511 32.1819 25.4973C32.3166 25.4434 32.4385 25.362 32.5399 25.2584C32.7393 25.0436 32.8455 24.7587 32.8354 24.4659C32.8354 23.8159 32.4878 23.4857 31.7926 23.4857H31.1044Z" fill="#FEBE10"/>
<path d="M11.633 29.8464C11.1884 29.8621 10.7461 29.7764 10.3396 29.5957C9.93312 29.415 9.57309 29.1442 9.28683 28.8037C8.65642 28.0343 8.33435 27.0582 8.38312 26.0647C8.33204 25.0267 8.65932 24.0053 9.30421 23.1902C9.59867 22.8334 9.97124 22.5491 10.3931 22.3592C10.815 22.1694 11.2749 22.0791 11.7373 22.0954C12.1782 22.0803 12.6168 22.1665 13.0192 22.3472C13.4217 22.528 13.7774 22.7985 14.0591 23.1381C14.6798 23.928 14.9945 24.9154 14.9454 25.9188C14.9961 26.9483 14.6685 27.9607 14.0243 28.7654C13.7346 29.1161 13.3684 29.3957 12.954 29.5831C12.5395 29.7705 12.0876 29.8605 11.633 29.8464ZM11.6921 23.5448C11.4426 23.54 11.196 23.5992 10.9757 23.7166C10.7555 23.834 10.569 24.0058 10.4338 24.2156C10.0985 24.7402 9.93457 25.356 9.96461 25.9778C9.93173 26.6011 10.0959 27.2189 10.4338 27.7435C10.5666 27.9461 10.7483 28.1118 10.9622 28.2255C11.1761 28.3391 11.4152 28.3969 11.6573 28.3935C11.9011 28.4007 12.1428 28.3466 12.3602 28.236C12.5776 28.1255 12.7638 27.9621 12.9017 27.7609C13.2327 27.2439 13.3931 26.6361 13.3605 26.023C13.4037 25.3848 13.2522 24.7485 12.926 24.1982C12.7942 23.9921 12.6112 23.8236 12.395 23.7091C12.1788 23.5946 11.9367 23.538 11.6921 23.5448Z" fill="#FEBE10"/>
<path d="M19.5577 23.59H17.1942V25.4322H19.3665V26.8225H17.1942V29.7074H15.6787V22.217H19.5577V23.59Z" fill="#FEBE10"/>
<path d="M24.1529 23.59H21.7893V25.4322H23.9617V26.8225H21.7893V29.7074H20.2773V22.217H24.1529V23.59Z" fill="#FEBE10"/>
<path d="M28.9149 29.7074H24.876V22.217H28.7411V23.6074H26.388V25.2757H28.5673V26.6661H26.3775V28.3518H28.8905L28.9149 29.7074Z" fill="#FEBE10"/>
<path d="M35.2128 29.7074H33.4749L32.4322 27.7783C32.3557 27.6289 32.2758 27.4968 32.2097 27.3856C32.1443 27.2817 32.0711 27.1829 31.9908 27.0901C31.9239 27.0248 31.8478 26.9697 31.7648 26.9267C31.6859 26.8803 31.5957 26.8563 31.5041 26.8572H31.0975V29.7074H29.582V22.217H31.9838C33.607 22.217 34.4169 22.9122 34.4169 24.2608C34.4194 24.5046 34.3842 24.7473 34.3126 24.9803C34.2429 25.1938 34.1409 25.3955 34.0102 25.5781C33.8769 25.7576 33.7148 25.9138 33.5305 26.0404C33.3406 26.1704 33.1336 26.2734 32.9153 26.3463C33.0205 26.3856 33.1172 26.4446 33.2003 26.5201C33.2981 26.6029 33.3877 26.6948 33.468 26.7947C33.5594 26.9054 33.6441 27.0214 33.7217 27.1423C33.8017 27.2639 33.8781 27.3786 33.9407 27.4898L35.2128 29.7074ZM31.1044 23.4857V25.5712H31.7579C31.9028 25.5763 32.0472 25.5511 32.1819 25.4973C32.3166 25.4434 32.4385 25.362 32.5399 25.2584C32.7393 25.0436 32.8455 24.7587 32.8354 24.4659C32.8354 23.8159 32.4878 23.4857 31.7926 23.4857H31.1044Z" fill="#FEBE10"/>
<path d="M8.82422 19.5929V18.7865C8.91037 18.8708 9.00739 18.9433 9.11271 19.002C9.22144 19.0705 9.33817 19.1253 9.46029 19.1653C9.58298 19.2093 9.70837 19.2452 9.83568 19.2731C9.95014 19.2959 10.0665 19.3075 10.1833 19.3079C10.4761 19.3295 10.7671 19.2456 11.0035 19.0715C11.0959 18.9857 11.1679 18.8802 11.2142 18.763C11.2605 18.6457 11.28 18.5195 11.2712 18.3937C11.2761 18.2497 11.2463 18.1067 11.1843 17.9766C11.1247 17.8533 11.0394 17.7443 10.934 17.6568C10.8179 17.5515 10.6923 17.4573 10.5586 17.3753C10.4127 17.2884 10.2562 17.1946 10.0894 17.1007L9.59585 16.7879C9.44853 16.6893 9.31424 16.5725 9.19613 16.4403C9.08305 16.311 8.99151 16.1643 8.92502 16.0058C8.85598 15.8228 8.82408 15.6278 8.83117 15.4323C8.826 15.1925 8.87594 14.9547 8.97715 14.7372C9.07234 14.5471 9.20893 14.3808 9.37687 14.2506C9.54567 14.1193 9.73795 14.0213 9.94343 13.9621C10.1524 13.9012 10.3688 13.8697 10.5864 13.8682C10.9632 13.8437 11.34 13.9155 11.6813 14.0768V14.8484C11.3515 14.6018 10.9456 14.4788 10.5343 14.5008C10.4022 14.5021 10.2705 14.5173 10.1415 14.546C10.0169 14.5739 9.89879 14.6259 9.79397 14.6989C9.69176 14.7722 9.60838 14.8687 9.55066 14.9805C9.48555 15.1 9.45093 15.2337 9.44986 15.3698C9.4488 15.5035 9.47115 15.6365 9.5159 15.7625C9.57009 15.8737 9.64433 15.9738 9.73488 16.058C9.84298 16.1548 9.95928 16.242 10.0825 16.3187C10.2215 16.4056 10.3779 16.4925 10.5517 16.5933C10.7291 16.7001 10.9008 16.8161 11.0661 16.9408C11.2239 17.0487 11.3666 17.1773 11.4902 17.3232C11.6104 17.4609 11.71 17.6155 11.7856 17.782C11.8587 17.9678 11.8941 18.1663 11.8899 18.3659C11.8962 18.6197 11.8451 18.8715 11.7404 19.1028C11.6543 19.2975 11.5175 19.4656 11.3442 19.5894C11.1733 19.7169 10.9781 19.808 10.7707 19.857C10.5434 19.9148 10.31 19.9451 10.0755 19.9474C9.98199 19.9398 9.88909 19.9258 9.79744 19.9057C9.68011 19.8906 9.56397 19.8674 9.44986 19.8362C9.33183 19.8091 9.21572 19.7743 9.10228 19.7319C9.00329 19.6994 8.9096 19.6526 8.82422 19.5929Z" fill="white"/>
<path d="M13.4993 17.6117V19.8293H12.9258V13.9517H14.3161C14.544 13.9406 14.7718 13.9758 14.9857 14.0552C15.1996 14.1347 15.3951 14.2568 15.5604 14.414C15.7157 14.5905 15.8346 14.7958 15.9103 15.0183C15.9861 15.2407 16.0172 15.476 16.0019 15.7105C16.0233 16.2119 15.8459 16.7016 15.5083 17.073C15.3359 17.2515 15.1273 17.391 14.8964 17.4821C14.6656 17.5733 14.418 17.6139 14.1701 17.6013H13.4993V17.6117ZM13.4993 14.5808V16.9861H14.1249C14.2948 16.9981 14.4653 16.976 14.6265 16.9211C14.7877 16.8662 14.9362 16.7796 15.0634 16.6663C15.1769 16.5427 15.2641 16.3974 15.3197 16.239C15.3753 16.0807 15.398 15.9127 15.3866 15.7452C15.3866 14.9701 14.9869 14.5808 14.1944 14.5808H13.4993Z" fill="white"/>
<path d="M19.6335 19.8292H16.9502V13.9517H19.5292V14.5808H17.548V16.5342H19.3728V17.1529H17.5411V19.2105H19.6266V19.8292H19.6335Z" fill="white"/>
<path d="M24.048 19.5859C23.6241 19.8243 23.1439 19.9443 22.6577 19.9335C22.3246 19.9457 21.9934 19.8786 21.6913 19.7378C21.3892 19.597 21.1248 19.3865 20.9198 19.1237C20.4614 18.5148 20.2302 17.7648 20.2664 17.0034C20.2288 16.1816 20.4879 15.3736 20.9963 14.7268C21.2177 14.4494 21.4999 14.2268 21.8212 14.0761C22.1425 13.9254 22.4941 13.8507 22.8489 13.8578C23.259 13.841 23.6671 13.9246 24.0376 14.1011V14.831C23.6808 14.5998 23.2637 14.4789 22.8385 14.4835C22.5658 14.4767 22.2953 14.5342 22.0489 14.6513C21.8025 14.7685 21.5872 14.942 21.4203 15.1578C21.0369 15.6795 20.8476 16.3188 20.8851 16.9652C20.851 17.5773 21.029 18.1825 21.3891 18.6788C21.5442 18.8823 21.7455 19.0462 21.9763 19.1568C22.2071 19.2673 22.4609 19.3215 22.7168 19.3148C23.1897 19.3304 23.6555 19.1966 24.048 18.9325V19.6033V19.5859Z" fill="white"/>
<path d="M26.1757 13.9517V14.546H25.6821V19.2384H26.1757V19.8292H24.5977V19.2384H25.0912V14.546H24.5977V13.9517H26.1757Z" fill="white"/>
<path d="M30.93 19.8292H30.2696L29.7308 18.1852H27.5828L27.0823 19.8292H26.4219L28.3579 13.9517H28.9766L30.93 19.8292ZM29.5397 17.57L28.7507 15.0674C28.7146 14.9386 28.6879 14.8073 28.6707 14.6746C28.6464 14.838 28.6186 14.9701 28.5942 15.0674L27.8018 17.57H29.5397Z" fill="white"/>
<path d="M34.3022 19.8292H31.6953V13.9517H32.2862V19.2001H34.3022V19.8292Z" fill="white"/>
<path d="M21.5355 6.26318L22.0951 7.18427L23.1448 7.42758L22.4323 8.23744L22.5296 9.31146L21.5355 8.88741L20.5484 9.31146L20.6422 8.23744L19.9297 7.42758L20.9829 7.18427L21.5355 6.26318Z" fill="#FEBE10"/>
<path d="M15.5256 7.7854L16.0818 8.71344L17.1314 8.95674L16.4189 9.76661L16.5232 10.8441L15.5256 10.4166L14.535 10.8441L14.6289 9.76661L13.9268 8.95674L14.9764 8.71344L15.5256 7.7854Z" fill="#FEBE10"/>
<path d="M27.5517 7.7854L28.1078 8.71344L29.1575 8.95674L28.445 9.76661L28.5423 10.8441L27.5517 10.4166L26.5611 10.8441L26.6549 9.76661L25.9424 8.95674L26.9956 8.71344L27.5517 7.7854Z" fill="#FEBE10"/>
<path d="M21.5355 34.2363L22.0951 35.1644L23.1448 35.4007L22.4323 36.2141L22.5296 37.2846L21.5355 36.8675L20.5484 37.2846L20.6422 36.2141L19.9297 35.4007L20.9898 35.1644L21.5355 34.2363Z" fill="#FEBE10"/>
<path d="M27.5517 35.7623L26.9956 34.8342L25.9424 34.6013L26.6549 33.7811L26.5611 32.707L27.5517 33.1311L28.5423 32.707L28.445 33.7811L29.1575 34.6013L28.0974 34.8342L27.5517 35.7623Z" fill="#FEBE10"/>
<path d="M15.5256 35.7623L14.9764 34.8342L13.9268 34.6013L14.6289 33.7811L14.535 32.707L15.5256 33.1311L16.5232 32.707L16.4189 33.7811L17.1314 34.6013L16.0818 34.8342L15.5256 35.7623Z" fill="#FEBE10"/>
</svg>
