<svg xmlns="http://www.w3.org/2000/svg" width="44" height="44" viewBox="0 0 44 44" fill="none">
    <path d="M43.6311 21.9071C43.6311 26.2036 42.357 30.4037 39.97 33.9762C37.583 37.5486 34.1902 40.333 30.2207 41.9772C26.2512 43.6214 21.8833 44.0517 17.6693 43.2134C13.4553 42.3752 9.58446 40.3062 6.54634 37.2681C3.50822 34.23 1.43923 30.3592 0.601019 26.1452C-0.237197 21.9312 0.193007 17.5633 1.83723 13.5938C3.48144 9.62428 6.26583 6.2315 9.83829 3.84446C13.4107 1.45743 17.6108 0.18335 21.9074 0.18335C27.6688 0.18335 33.1944 2.47209 37.2684 6.54609C41.3424 10.6201 43.6311 16.1456 43.6311 21.9071Z" fill="#1F1F38"/>
    <path d="M21.9076 41.4118C32.6805 41.4118 41.4137 32.6786 41.4137 21.9056C41.4137 11.1326 32.6805 2.39941 21.9076 2.39941C11.1346 2.39941 2.40137 11.1326 2.40137 21.9056C2.40137 32.6786 11.1346 41.4118 21.9076 41.4118Z" fill="#1F1F38"/>
    <path d="M21.9075 41.5174C18.0279 41.5181 14.2353 40.3683 11.0092 38.2133C7.78321 36.0584 5.2687 32.9952 3.78374 29.411C2.29877 25.8269 1.91006 21.8829 2.66675 18.0779C3.42345 14.2728 5.29157 10.7776 8.03484 8.03435C10.7781 5.29108 14.2733 3.42296 18.0784 2.66627C21.8834 1.90957 25.8274 2.29828 29.4115 3.78325C32.9956 5.26821 36.0589 7.78272 38.2138 11.0087C40.3688 14.2348 41.5186 18.0274 41.5179 21.907C41.5115 27.106 39.4433 32.0903 35.767 35.7666C32.0908 39.4428 27.1065 41.511 21.9075 41.5174ZM21.9075 2.50158C18.0694 2.50158 14.3176 3.63969 11.1264 5.77198C7.9352 7.90427 5.44797 10.935 3.97922 14.4809C2.51047 18.0267 2.12618 21.9285 2.87494 25.6928C3.6237 29.4571 5.47189 32.9148 8.18578 35.6287C10.8997 38.3425 14.3574 40.1907 18.1217 40.9395C21.8859 41.6883 25.7877 41.304 29.3336 39.8352C32.8795 38.3665 35.9102 35.8792 38.0425 32.688C40.1747 29.4968 41.3129 25.745 41.3129 21.907C41.3064 16.7623 39.2599 11.8302 35.622 8.1924C31.9842 4.55458 27.0521 2.50802 21.9075 2.50158Z" fill="white"/>
    <path d="M10.4962 30.9966C9.98907 31.0117 9.48507 30.9116 9.02212 30.7039C8.55918 30.4963 8.14932 30.1863 7.82336 29.7975C7.10277 28.9185 6.73152 27.8048 6.78062 26.6693C6.7211 25.4834 7.09134 24.316 7.82336 23.3812C8.16126 22.975 8.58731 22.6511 9.06914 22.4343C9.55097 22.2175 10.0759 22.1134 10.604 22.1299C11.1077 22.1144 11.6083 22.2144 12.0674 22.4223C12.5264 22.6301 12.9319 22.9403 13.2526 23.329C13.9617 24.2274 14.321 25.3524 14.264 26.4955C14.3248 27.6719 13.954 28.83 13.2213 29.7523C12.8923 30.1541 12.4756 30.4751 12.0032 30.6908C11.5309 30.9065 11.0153 31.0111 10.4962 30.9966ZM10.5762 23.8017C10.2902 23.7939 10.0071 23.8602 9.75432 23.9942C9.50156 24.1282 9.28777 24.3253 9.13374 24.5664C8.78751 25.1819 8.60563 25.8762 8.60563 26.5824C8.60563 27.2886 8.78751 27.9828 9.13374 28.5983C9.28523 28.828 9.49183 29.0161 9.73469 29.1454C9.97755 29.2747 10.2489 29.3412 10.5241 29.3387C10.8018 29.3452 11.0769 29.2826 11.3245 29.1564C11.572 29.0302 11.7843 28.8444 11.9422 28.6157C12.3223 28.0211 12.5048 27.3216 12.4636 26.6171C12.5105 25.887 12.3347 25.1598 11.9596 24.5316C11.8115 24.301 11.6064 24.1125 11.3639 23.9846C11.1215 23.8567 10.8502 23.7937 10.5762 23.8017Z" fill="white"/>
    <path d="M19.5433 23.8539H16.8391V25.9568H19.3278V27.5209H16.8391V30.8472H15.1221V22.2898H19.5433V23.8539Z" fill="white"/>
    <path d="M24.7923 23.8539H22.0881V25.9568H24.5768V27.5209H22.0881V30.8472H20.3711V22.2898H24.7923V23.8539Z" fill="white"/>
    <path d="M30.2043 30.8472H25.6162V22.2898H30.0305V23.8609H27.3367V25.7656H29.8428V27.3297H27.3367V29.2831H30.2043V30.8472Z" fill="white"/>
    <path d="M37.4166 30.846H35.4354L34.2466 28.6424C34.1597 28.4755 34.0728 28.3296 33.9929 28.1905C33.9218 28.0663 33.8379 27.9498 33.7426 27.8429C33.6684 27.7571 33.5803 27.6842 33.482 27.6274C33.3931 27.5732 33.2906 27.5454 33.1865 27.5475H32.7242V30.8252H30.9863V22.2712H33.7253C35.579 22.2712 36.5059 23.0475 36.5059 24.6C36.5074 24.8789 36.4676 25.1565 36.3877 25.4238C36.3086 25.6721 36.1914 25.9067 36.0401 26.119C35.8899 26.3207 35.708 26.4968 35.5014 26.6403C35.2859 26.7862 35.0522 26.9031 34.8062 26.9879V27.0157C34.9266 27.0597 35.0383 27.1244 35.1364 27.2069C35.2501 27.3001 35.3548 27.4036 35.4493 27.5162L35.7377 27.902C35.8212 28.0411 35.9115 28.1697 35.988 28.3018L37.4166 30.846ZM32.7242 23.7311V26.112H33.4715C33.637 26.1202 33.8024 26.0934 33.9569 26.0336C34.1114 25.9737 34.2515 25.882 34.3683 25.7644C34.5982 25.5218 34.7231 25.1983 34.7159 24.8642C34.7159 24.1134 34.3161 23.7415 33.5167 23.7415L32.7242 23.7311Z" fill="white"/>
    <path d="M10.4962 30.9966C9.98907 31.0117 9.48507 30.9116 9.02212 30.7039C8.55918 30.4963 8.14932 30.1863 7.82336 29.7975C7.10277 28.9185 6.73152 27.8048 6.78062 26.6693C6.7211 25.4834 7.09134 24.316 7.82336 23.3812C8.16126 22.975 8.58731 22.6511 9.06914 22.4343C9.55097 22.2175 10.0759 22.1134 10.604 22.1299C11.1077 22.1144 11.6083 22.2144 12.0674 22.4223C12.5264 22.6301 12.9319 22.9403 13.2526 23.329C13.9617 24.2274 14.321 25.3524 14.264 26.4955C14.3248 27.6719 13.954 28.83 13.2213 29.7523C12.8923 30.1541 12.4756 30.4751 12.0032 30.6908C11.5309 30.9065 11.0153 31.0111 10.4962 30.9966ZM10.5762 23.8017C10.2902 23.7939 10.0071 23.8602 9.75432 23.9942C9.50156 24.1282 9.28777 24.3253 9.13374 24.5664C8.78751 25.1819 8.60563 25.8762 8.60563 26.5824C8.60563 27.2886 8.78751 27.9828 9.13374 28.5983C9.28523 28.828 9.49183 29.0161 9.73469 29.1454C9.97755 29.2747 10.2489 29.3412 10.5241 29.3387C10.8018 29.3452 11.0769 29.2826 11.3245 29.1564C11.572 29.0302 11.7843 28.8444 11.9422 28.6157C12.3223 28.0211 12.5048 27.3216 12.4636 26.6171C12.5105 25.887 12.3347 25.1598 11.9596 24.5316C11.8115 24.301 11.6064 24.1125 11.3639 23.9846C11.1215 23.8567 10.8502 23.7937 10.5762 23.8017Z" fill="#FFCB00"/>
    <path d="M19.5433 23.8539H16.8391V25.9568H19.3278V27.5209H16.8391V30.8472H15.1221V22.2898H19.5433V23.8539Z" fill="#FFCB00"/>
    <path d="M24.7923 23.8539H22.0881V25.9568H24.5768V27.5209H22.0881V30.8472H20.3711V22.2898H24.7923V23.8539Z" fill="#FFCB00"/>
    <path d="M30.2043 30.8472H25.6162V22.2898H30.0305V23.8609H27.3367V25.7656H29.8428V27.3297H27.3367V29.2831H30.2043V30.8472Z" fill="#FFCB00"/>
    <path d="M37.4166 30.846H35.4354L34.2466 28.6424C34.1597 28.4755 34.0728 28.3296 33.9929 28.1905C33.9218 28.0663 33.8379 27.9498 33.7426 27.8429C33.6684 27.7571 33.5803 27.6842 33.482 27.6274C33.3931 27.5732 33.2906 27.5454 33.1865 27.5475H32.7242V30.8252H30.9863V22.2712H33.7253C35.579 22.2712 36.5059 23.0475 36.5059 24.6C36.5074 24.8789 36.4676 25.1565 36.3877 25.4238C36.3086 25.6721 36.1914 25.9067 36.0401 26.119C35.8899 26.3207 35.708 26.4968 35.5014 26.6403C35.2859 26.7862 35.0522 26.9031 34.8062 26.9879V27.0157C34.9266 27.0597 35.0383 27.1244 35.1364 27.2069C35.2501 27.3001 35.3548 27.4036 35.4493 27.5162L35.7377 27.902C35.8212 28.0411 35.9115 28.1697 35.988 28.3018L37.4166 30.846ZM32.7242 23.7311V26.112H33.4715C33.637 26.1202 33.8024 26.0934 33.9569 26.0336C34.1114 25.9737 34.2515 25.882 34.3683 25.7644C34.5982 25.5218 34.7231 25.1983 34.7159 24.8642C34.7159 24.1134 34.3161 23.7415 33.5167 23.7415L32.7242 23.7311Z" fill="#FFCB00"/>
    <path d="M10.4962 30.9966C9.98907 31.0117 9.48507 30.9116 9.02212 30.7039C8.55918 30.4963 8.14932 30.1863 7.82336 29.7975C7.10277 28.9185 6.73152 27.8048 6.78062 26.6693C6.7211 25.4834 7.09134 24.316 7.82336 23.3812C8.16126 22.975 8.58731 22.6511 9.06914 22.4343C9.55097 22.2175 10.0759 22.1134 10.604 22.1299C11.1077 22.1144 11.6083 22.2144 12.0674 22.4223C12.5264 22.6301 12.9319 22.9403 13.2526 23.329C13.9617 24.2274 14.321 25.3524 14.264 26.4955C14.3248 27.6719 13.954 28.83 13.2213 29.7523C12.8923 30.1541 12.4756 30.4751 12.0032 30.6908C11.5309 30.9065 11.0153 31.0111 10.4962 30.9966ZM10.5762 23.8017C10.2902 23.7939 10.0071 23.8602 9.75432 23.9942C9.50156 24.1282 9.28777 24.3253 9.13374 24.5664C8.78751 25.1819 8.60563 25.8762 8.60563 26.5824C8.60563 27.2886 8.78751 27.9828 9.13374 28.5983C9.28523 28.828 9.49183 29.0161 9.73469 29.1454C9.97755 29.2747 10.2489 29.3412 10.5241 29.3387C10.8018 29.3452 11.0769 29.2826 11.3245 29.1564C11.572 29.0302 11.7843 28.8444 11.9422 28.6157C12.3223 28.0211 12.5048 27.3216 12.4636 26.6171C12.5105 25.887 12.3347 25.1598 11.9596 24.5316C11.8115 24.301 11.6064 24.1125 11.3639 23.9846C11.1215 23.8567 10.8502 23.7937 10.5762 23.8017Z" fill="#FFCB00"/>
    <path d="M19.5433 23.8539H16.8391V25.9568H19.3278V27.5209H16.8391V30.8472H15.1221V22.2898H19.5433V23.8539Z" fill="#FFCB00"/>
    <path d="M24.7923 23.8539H22.0881V25.9568H24.5768V27.5209H22.0881V30.8472H20.3711V22.2898H24.7923V23.8539Z" fill="#FFCB00"/>
    <path d="M30.2043 30.8472H25.6162V22.2898H30.0305V23.8609H27.3367V25.7656H29.8428V27.3297H27.3367V29.2831H30.2043V30.8472Z" fill="#FFCB00"/>
    <path d="M37.4166 30.846H35.4354L34.2466 28.6424C34.1597 28.4755 34.0728 28.3296 33.9929 28.1905C33.9218 28.0663 33.8379 27.9498 33.7426 27.8429C33.6684 27.7571 33.5803 27.6842 33.482 27.6274C33.3931 27.5732 33.2906 27.5454 33.1865 27.5475H32.7242V30.8252H30.9863V22.2712H33.7253C35.579 22.2712 36.5059 23.0475 36.5059 24.6C36.5074 24.8789 36.4676 25.1565 36.3877 25.4238C36.3086 25.6721 36.1914 25.9067 36.0401 26.119C35.8899 26.3207 35.708 26.4968 35.5014 26.6403C35.2859 26.7862 35.0522 26.9031 34.8062 26.9879V27.0157C34.9266 27.0597 35.0383 27.1244 35.1364 27.2069C35.2501 27.3001 35.3548 27.4036 35.4493 27.5162L35.7377 27.902C35.8212 28.0411 35.9115 28.1697 35.988 28.3018L37.4166 30.846ZM32.7242 23.7311V26.112H33.4715C33.637 26.1202 33.8024 26.0934 33.9569 26.0336C34.1114 25.9737 34.2515 25.882 34.3683 25.7644C34.5982 25.5218 34.7231 25.1983 34.7159 24.8642C34.7159 24.1134 34.3161 23.7415 33.5167 23.7415L32.7242 23.7311Z" fill="#FFCB00"/>
    <path d="M10.4962 30.9966C9.98907 31.0117 9.48507 30.9116 9.02212 30.7039C8.55918 30.4963 8.14932 30.1863 7.82336 29.7975C7.10277 28.9185 6.73152 27.8048 6.78062 26.6693C6.7211 25.4834 7.09134 24.316 7.82336 23.3812C8.16126 22.975 8.58731 22.6511 9.06914 22.4343C9.55097 22.2175 10.0759 22.1134 10.604 22.1299C11.1077 22.1144 11.6083 22.2144 12.0674 22.4223C12.5264 22.6301 12.9319 22.9403 13.2526 23.329C13.9617 24.2274 14.321 25.3524 14.264 26.4955C14.3248 27.6719 13.954 28.83 13.2213 29.7523C12.8923 30.1541 12.4756 30.4751 12.0032 30.6908C11.5309 30.9065 11.0153 31.0111 10.4962 30.9966ZM10.5762 23.8017C10.2902 23.7939 10.0071 23.8602 9.75432 23.9942C9.50156 24.1282 9.28777 24.3253 9.13374 24.5664C8.78751 25.1819 8.60563 25.8762 8.60563 26.5824C8.60563 27.2886 8.78751 27.9828 9.13374 28.5983C9.28523 28.828 9.49183 29.0161 9.73469 29.1454C9.97755 29.2747 10.2489 29.3412 10.5241 29.3387C10.8018 29.3452 11.0769 29.2826 11.3245 29.1564C11.572 29.0302 11.7843 28.8444 11.9422 28.6157C12.3223 28.0211 12.5048 27.3216 12.4636 26.6171C12.5105 25.887 12.3347 25.1598 11.9596 24.5316C11.8115 24.301 11.6064 24.1125 11.3639 23.9846C11.1215 23.8567 10.8502 23.7937 10.5762 23.8017Z" fill="#FFCB00"/>
    <path d="M19.5433 23.8539H16.8391V25.9568H19.3278V27.5209H16.8391V30.8472H15.1221V22.2898H19.5433V23.8539Z" fill="#FFCB00"/>
    <path d="M24.7923 23.8539H22.0881V25.9568H24.5768V27.5209H22.0881V30.8472H20.3711V22.2898H24.7923V23.8539Z" fill="#FFCB00"/>
    <path d="M30.2043 30.8472H25.6162V22.2898H30.0305V23.8609H27.3367V25.7656H29.8428V27.3297H27.3367V29.2831H30.2043V30.8472Z" fill="#FFCB00"/>
    <path d="M37.4166 30.846H35.4354L34.2466 28.6424C34.1597 28.4755 34.0728 28.3296 33.9929 28.1905C33.9218 28.0663 33.8379 27.9498 33.7426 27.8429C33.6684 27.7571 33.5803 27.6842 33.482 27.6274C33.3931 27.5732 33.2906 27.5454 33.1865 27.5475H32.7242V30.8252H30.9863V22.2712H33.7253C35.579 22.2712 36.5059 23.0475 36.5059 24.6C36.5074 24.8789 36.4676 25.1565 36.3877 25.4238C36.3086 25.6721 36.1914 25.9067 36.0401 26.119C35.8899 26.3207 35.708 26.4968 35.5014 26.6403C35.2859 26.7862 35.0522 26.9031 34.8062 26.9879V27.0157C34.9266 27.0597 35.0383 27.1244 35.1364 27.2069C35.2501 27.3001 35.3548 27.4036 35.4493 27.5162L35.7377 27.902C35.8212 28.0411 35.9115 28.1697 35.988 28.3018L37.4166 30.846ZM32.7242 23.7311V26.112H33.4715C33.637 26.1202 33.8024 26.0934 33.9569 26.0336C34.1114 25.9737 34.2515 25.882 34.3683 25.7644C34.5982 25.5218 34.7231 25.1983 34.7159 24.8642C34.7159 24.1134 34.3161 23.7415 33.5167 23.7415L32.7242 23.7311Z" fill="#FFCB00"/>
    <path d="M7.30923 19.2926V18.3611C7.40616 18.4591 7.5161 18.5433 7.63595 18.6113C7.76433 18.688 7.89926 18.7531 8.03914 18.806C8.17818 18.8581 8.32416 18.8894 8.46319 18.9276C8.59155 18.9525 8.72178 18.9664 8.85248 18.9693C9.18587 18.9977 9.51787 18.901 9.784 18.6982C9.88971 18.6009 9.9721 18.4809 10.0251 18.3474C10.078 18.2138 10.1002 18.0699 10.0899 17.9266C10.0934 17.7637 10.0563 17.6024 9.98212 17.4574C9.90933 17.3249 9.8127 17.2071 9.6971 17.1098C9.56558 16.9893 9.42236 16.8821 9.26958 16.79C9.10621 16.6823 8.922 16.578 8.74126 16.4668C8.56051 16.3555 8.35197 16.2304 8.17818 16.1192C8.00922 16.0082 7.85705 15.8736 7.72632 15.7195C7.59412 15.5757 7.49034 15.4083 7.42045 15.2259C7.34089 15.009 7.30315 14.7791 7.30923 14.5481C7.30309 14.2705 7.36264 13.9954 7.48302 13.7452C7.59235 13.5308 7.74504 13.3414 7.9314 13.1891C8.12388 13.0474 8.33893 12.9393 8.56747 12.8693C8.80781 12.7985 9.05725 12.7634 9.30781 12.765C9.73569 12.7347 10.1642 12.8149 10.5521 12.9979V13.8773C10.1755 13.5917 9.71041 13.4477 9.2383 13.4706C9.08838 13.4691 8.93889 13.4866 8.79339 13.5228C8.6538 13.5555 8.5217 13.6145 8.4041 13.6966C8.28737 13.7752 8.19185 13.8815 8.12604 14.0059C8.04752 14.1499 8.00574 14.3111 8.00439 14.4751C7.99944 14.6281 8.02914 14.7802 8.09128 14.92C8.14957 15.0512 8.23348 15.1693 8.33806 15.2676C8.45638 15.3803 8.58696 15.4794 8.72735 15.5631L9.25567 15.8828C9.4677 16.0045 9.65539 16.1261 9.85004 16.2582C10.0304 16.384 10.196 16.5297 10.3436 16.6927C10.4816 16.849 10.5921 17.0277 10.6703 17.221C10.7502 17.4294 10.7891 17.6513 10.785 17.8745C10.7942 18.1635 10.7384 18.451 10.6217 18.7156C10.5196 18.9356 10.3643 19.1268 10.1698 19.2717C9.97265 19.4154 9.75133 19.5225 9.51636 19.588C9.26039 19.6506 8.99781 19.6821 8.7343 19.6819C8.61796 19.6803 8.50184 19.671 8.38672 19.6541C8.2577 19.6373 8.12996 19.6117 8.00439 19.5776C7.86653 19.5525 7.73064 19.5177 7.59772 19.4733C7.49518 19.4239 7.39843 19.3633 7.30923 19.2926Z" fill="white"/>
    <path d="M12.6375 17.0389V19.5762H11.9424V12.8679H13.5656C13.8278 12.8517 14.0906 12.8896 14.3376 12.9793C14.5845 13.069 14.8104 13.2086 15.0011 13.3893C15.1789 13.5893 15.3156 13.8224 15.4032 14.0753C15.4909 14.3282 15.5279 14.5958 15.512 14.863C15.5327 15.4391 15.3297 16.0009 14.9455 16.4306C14.7474 16.6383 14.5064 16.8004 14.2392 16.9054C13.9721 17.0105 13.6853 17.056 13.3987 17.0389H12.6375ZM12.6375 13.5631V16.3089H13.3327C13.5271 16.3237 13.7225 16.2983 13.9066 16.2343C14.0908 16.1703 14.2598 16.0691 14.4033 15.937C14.6512 15.6484 14.776 15.274 14.7508 14.8943C14.7717 14.0068 14.3303 13.5631 13.4265 13.5631H12.6375Z" fill="white"/>
    <path d="M19.6413 19.5591H16.5791V12.8682H19.5092V13.5633H17.2499V15.7983H19.3354V16.4934H17.2499V18.8396H19.6309V19.5347L19.6413 19.5591Z" fill="white"/>
    <path d="M24.6886 19.282C24.2011 19.5582 23.6462 19.693 23.0863 19.6712C22.7083 19.685 22.3324 19.6087 21.9897 19.4485C21.647 19.2884 21.3474 19.049 21.1155 18.7502C20.5947 18.0597 20.3316 17.2089 20.3717 16.3449C20.3264 15.4027 20.6253 14.4761 21.2128 13.7381C21.4651 13.4224 21.7866 13.1689 22.1524 12.9971C22.5182 12.8254 22.9186 12.7399 23.3226 12.7474C23.7934 12.7321 24.2613 12.8273 24.6886 13.0255V13.8597C24.275 13.5917 23.7911 13.4526 23.2983 13.46C22.9875 13.4546 22.6798 13.5215 22.3993 13.6554C22.1188 13.7893 21.8732 13.9866 21.6821 14.2316C21.248 14.8284 21.0309 15.5557 21.0668 16.2928C21.0294 16.9924 21.2344 17.6836 21.6473 18.2496C21.8249 18.4834 22.0556 18.6716 22.3203 18.7985C22.5851 18.9254 22.8762 18.9875 23.1697 18.9796C23.7068 18.9937 24.2342 18.8353 24.6747 18.5277V19.282H24.6886Z" fill="white"/>
    <path d="M27.1209 12.8682V13.5286H26.5578V18.8813H27.1209V19.5521H25.3135V18.8813H25.8766V13.5286H25.3135V12.8682H27.1209Z" fill="white"/>
    <path d="M32.5261 19.5591H31.7788L31.1705 17.6821H28.7201L28.164 19.5591H27.4062L29.6064 12.8682H30.3016L32.5261 19.5591ZM30.9446 16.9696L30.0409 14.1125C29.9993 13.9634 29.9703 13.8111 29.954 13.6572H29.9366C29.9151 13.8108 29.8838 13.9629 29.8428 14.1125L28.946 16.9696H30.9446Z" fill="white"/>
    <path d="M36.3741 19.5591H33.3779V12.8682H34.0731V18.857H36.3914L36.3741 19.5591Z" fill="white"/>
    <path d="M21.8103 4.07642L22.4394 5.12958L23.6455 5.40417L22.8287 6.33569L22.9399 7.56264L21.8103 7.07603L20.6737 7.56264L20.7884 6.33569L19.9785 5.40417L21.1777 5.12958L21.8103 4.07642Z" fill="#FFCB00"/>
    <path d="M14.945 5.81348L15.5811 6.8736L16.7803 7.14123L15.9704 8.07275L16.0851 9.2997L14.945 8.81309L13.8154 9.2997L13.9301 8.07275L13.1133 7.14123L14.3194 6.8736L14.945 5.81348Z" fill="#FFCB00"/>
    <path d="M28.6682 5.81348L29.3043 6.8736L30.5 7.14123L29.6936 8.07275L29.7979 9.2997L28.6682 8.81309L27.5386 9.2997L27.6533 8.07275L26.833 7.14123L28.0426 6.8736L28.6682 5.81348Z" fill="#FFCB00"/>
    <path d="M21.8103 36L22.4394 37.0497L23.6455 37.3312L22.8287 38.2593L22.9399 39.4828L21.8103 38.9996L20.6737 39.4828L20.7884 38.2593L19.9785 37.3312L21.1777 37.0497L21.8103 36Z" fill="#FFCB00"/>
    <path d="M28.6682 37.7391L28.0356 36.6894L26.833 36.4079L27.6533 35.4798L27.5386 34.2563L28.6682 34.743L29.7979 34.2563L29.6936 35.4798L30.5 36.4079L29.3043 36.6894L28.6682 37.7391Z" fill="#FFCB00"/>
    <path d="M14.945 37.7391L14.3194 36.6894L13.1133 36.4079L13.9301 35.4798L13.8154 34.2563L14.945 34.743L16.0851 34.2563L15.9704 35.4798L16.7803 36.4079L15.5811 36.6894L14.945 37.7391Z" fill="#FFCB00"/>
</svg>