<svg width="58" height="58" viewBox="0 0 58 58" fill="none" xmlns="http://www.w3.org/2000/svg">
<rect width="57.93" height="57.93" rx="6.32612" fill="white"/>
<path d="M50.6311 28.9071C50.6311 33.2036 49.357 37.4037 46.97 40.9762C44.583 44.5486 41.1902 47.333 37.2207 48.9772C33.2512 50.6214 28.8833 51.0517 24.6693 50.2134C20.4553 49.3752 16.5845 47.3062 13.5463 44.2681C10.5082 41.23 8.43923 37.3592 7.60102 33.1452C6.7628 28.9312 7.19301 24.5633 8.83723 20.5938C10.4814 16.6243 13.2658 13.2315 16.8383 10.8445C20.4107 8.45743 24.6108 7.18335 28.9074 7.18335C34.6688 7.18335 40.1944 9.47209 44.2684 13.5461C48.3424 17.6201 50.6311 23.1456 50.6311 28.9071Z" fill="#1F1F38"/>
<path d="M28.9076 48.4118C39.6805 48.4118 48.4137 39.6786 48.4137 28.9056C48.4137 18.1326 39.6805 9.39941 28.9076 9.39941C18.1346 9.39941 9.40137 18.1326 9.40137 28.9056C9.40137 39.6786 18.1346 48.4118 28.9076 48.4118Z" fill="#1F1F38"/>
<path d="M28.9075 48.5174C25.0279 48.5181 21.2353 47.3683 18.0092 45.2133C14.7832 43.0584 12.2687 39.9952 10.7837 36.411C9.29877 32.8269 8.91006 28.8829 9.66675 25.0779C10.4235 21.2728 12.2916 17.7776 15.0348 15.0343C17.7781 12.2911 21.2733 10.423 25.0784 9.66627C28.8834 8.90957 32.8274 9.29828 36.4115 10.7832C39.9956 12.2682 43.0589 14.7827 45.2138 18.0087C47.3688 21.2348 48.5186 25.0274 48.5179 28.907C48.5115 34.106 46.4433 39.0903 42.767 42.7666C39.0908 46.4428 34.1065 48.511 28.9075 48.5174ZM28.9075 9.50158C25.0694 9.50158 21.3176 10.6397 18.1264 12.772C14.9352 14.9043 12.448 17.935 10.9792 21.4809C9.51047 25.0267 9.12618 28.9285 9.87494 32.6928C10.6237 36.4571 12.4719 39.9148 15.1858 42.6287C17.8997 45.3425 21.3574 47.1907 25.1217 47.9395C28.8859 48.6883 32.7877 48.304 36.3336 46.8352C39.8795 45.3665 42.9102 42.8792 45.0425 39.688C47.1747 36.4968 48.3129 32.745 48.3129 28.907C48.3064 23.7623 46.2599 18.8302 42.622 15.1924C38.9842 11.5546 34.0521 9.50802 28.9075 9.50158Z" fill="white"/>
<path d="M17.4962 37.9966C16.9891 38.0117 16.4851 37.9116 16.0221 37.7039C15.5592 37.4963 15.1493 37.1863 14.8234 36.7975C14.1028 35.9185 13.7315 34.8048 13.7806 33.6693C13.7211 32.4834 14.0913 31.316 14.8234 30.3812C15.1613 29.975 15.5873 29.6511 16.0691 29.4343C16.551 29.2175 17.0759 29.1134 17.604 29.1299C18.1077 29.1144 18.6083 29.2144 19.0674 29.4223C19.5264 29.6301 19.9319 29.9403 20.2526 30.329C20.9617 31.2274 21.321 32.3524 21.264 33.4955C21.3248 34.6719 20.954 35.83 20.2213 36.7523C19.8923 37.1541 19.4756 37.4751 19.0032 37.6908C18.5309 37.9065 18.0153 38.0111 17.4962 37.9966ZM17.5762 30.8017C17.2902 30.7939 17.0071 30.8602 16.7543 30.9942C16.5016 31.1282 16.2878 31.3253 16.1337 31.5664C15.7875 32.1819 15.6056 32.8762 15.6056 33.5824C15.6056 34.2886 15.7875 34.9828 16.1337 35.5983C16.2852 35.828 16.4918 36.0161 16.7347 36.1454C16.9775 36.2747 17.2489 36.3412 17.5241 36.3387C17.8018 36.3452 18.0769 36.2826 18.3245 36.1564C18.572 36.0302 18.7843 35.8444 18.9422 35.6157C19.3223 35.0211 19.5048 34.3216 19.4636 33.6171C19.5105 32.887 19.3347 32.1598 18.9596 31.5316C18.8115 31.301 18.6064 31.1125 18.3639 30.9846C18.1215 30.8567 17.8502 30.7937 17.5762 30.8017Z" fill="white"/>
<path d="M26.5433 30.8539H23.8391V32.9568H26.3278V34.5209H23.8391V37.8472H22.1221V29.2898H26.5433V30.8539Z" fill="white"/>
<path d="M31.7923 30.8539H29.0881V32.9568H31.5768V34.5209H29.0881V37.8472H27.3711V29.2898H31.7923V30.8539Z" fill="white"/>
<path d="M37.2043 37.8472H32.6162V29.2898H37.0305V30.8609H34.3367V32.7656H36.8428V34.3297H34.3367V36.2831H37.2043V37.8472Z" fill="white"/>
<path d="M44.4166 37.846H42.4354L41.2466 35.6424C41.1597 35.4755 41.0728 35.3296 40.9929 35.1905C40.9218 35.0663 40.8379 34.9498 40.7426 34.8429C40.6684 34.7571 40.5803 34.6842 40.482 34.6274C40.3931 34.5732 40.2906 34.5454 40.1865 34.5475H39.7242V37.8252H37.9863V29.2712H40.7253C42.579 29.2712 43.5059 30.0475 43.5059 31.6C43.5074 31.8789 43.4676 32.1565 43.3877 32.4238C43.3086 32.6721 43.1914 32.9067 43.0401 33.119C42.8899 33.3207 42.708 33.4968 42.5014 33.6403C42.2859 33.7862 42.0522 33.9031 41.8062 33.9879V34.0157C41.9266 34.0597 42.0383 34.1244 42.1364 34.2069C42.2501 34.3001 42.3548 34.4036 42.4493 34.5162L42.7377 34.902C42.8212 35.0411 42.9115 35.1697 42.988 35.3018L44.4166 37.846ZM39.7242 30.7311V33.112H40.4715C40.637 33.1202 40.8024 33.0934 40.9569 33.0336C41.1114 32.9737 41.2515 32.882 41.3683 32.7644C41.5982 32.5218 41.7231 32.1983 41.7159 31.8642C41.7159 31.1134 41.3161 30.7415 40.5167 30.7415L39.7242 30.7311Z" fill="white"/>
<path d="M17.4962 37.9966C16.9891 38.0117 16.4851 37.9116 16.0221 37.7039C15.5592 37.4963 15.1493 37.1863 14.8234 36.7975C14.1028 35.9185 13.7315 34.8048 13.7806 33.6693C13.7211 32.4834 14.0913 31.316 14.8234 30.3812C15.1613 29.975 15.5873 29.6511 16.0691 29.4343C16.551 29.2175 17.0759 29.1134 17.604 29.1299C18.1077 29.1144 18.6083 29.2144 19.0674 29.4223C19.5264 29.6301 19.9319 29.9403 20.2526 30.329C20.9617 31.2274 21.321 32.3524 21.264 33.4955C21.3248 34.6719 20.954 35.83 20.2213 36.7523C19.8923 37.1541 19.4756 37.4751 19.0032 37.6908C18.5309 37.9065 18.0153 38.0111 17.4962 37.9966ZM17.5762 30.8017C17.2902 30.7939 17.0071 30.8602 16.7543 30.9942C16.5016 31.1282 16.2878 31.3253 16.1337 31.5664C15.7875 32.1819 15.6056 32.8762 15.6056 33.5824C15.6056 34.2886 15.7875 34.9828 16.1337 35.5983C16.2852 35.828 16.4918 36.0161 16.7347 36.1454C16.9775 36.2747 17.2489 36.3412 17.5241 36.3387C17.8018 36.3452 18.0769 36.2826 18.3245 36.1564C18.572 36.0302 18.7843 35.8444 18.9422 35.6157C19.3223 35.0211 19.5048 34.3216 19.4636 33.6171C19.5105 32.887 19.3347 32.1598 18.9596 31.5316C18.8115 31.301 18.6064 31.1125 18.3639 30.9846C18.1215 30.8567 17.8502 30.7937 17.5762 30.8017Z" fill="#FFCB00"/>
<path d="M26.5433 30.8539H23.8391V32.9568H26.3278V34.5209H23.8391V37.8472H22.1221V29.2898H26.5433V30.8539Z" fill="#FFCB00"/>
<path d="M31.7923 30.8539H29.0881V32.9568H31.5768V34.5209H29.0881V37.8472H27.3711V29.2898H31.7923V30.8539Z" fill="#FFCB00"/>
<path d="M37.2043 37.8472H32.6162V29.2898H37.0305V30.8609H34.3367V32.7656H36.8428V34.3297H34.3367V36.2831H37.2043V37.8472Z" fill="#FFCB00"/>
<path d="M44.4166 37.846H42.4354L41.2466 35.6424C41.1597 35.4755 41.0728 35.3296 40.9929 35.1905C40.9218 35.0663 40.8379 34.9498 40.7426 34.8429C40.6684 34.7571 40.5803 34.6842 40.482 34.6274C40.3931 34.5732 40.2906 34.5454 40.1865 34.5475H39.7242V37.8252H37.9863V29.2712H40.7253C42.579 29.2712 43.5059 30.0475 43.5059 31.6C43.5074 31.8789 43.4676 32.1565 43.3877 32.4238C43.3086 32.6721 43.1914 32.9067 43.0401 33.119C42.8899 33.3207 42.708 33.4968 42.5014 33.6403C42.2859 33.7862 42.0522 33.9031 41.8062 33.9879V34.0157C41.9266 34.0597 42.0383 34.1244 42.1364 34.2069C42.2501 34.3001 42.3548 34.4036 42.4493 34.5162L42.7377 34.902C42.8212 35.0411 42.9115 35.1697 42.988 35.3018L44.4166 37.846ZM39.7242 30.7311V33.112H40.4715C40.637 33.1202 40.8024 33.0934 40.9569 33.0336C41.1114 32.9737 41.2515 32.882 41.3683 32.7644C41.5982 32.5218 41.7231 32.1983 41.7159 31.8642C41.7159 31.1134 41.3161 30.7415 40.5167 30.7415L39.7242 30.7311Z" fill="#FFCB00"/>
<path d="M17.4962 37.9966C16.9891 38.0117 16.4851 37.9116 16.0221 37.7039C15.5592 37.4963 15.1493 37.1863 14.8234 36.7975C14.1028 35.9185 13.7315 34.8048 13.7806 33.6693C13.7211 32.4834 14.0913 31.316 14.8234 30.3812C15.1613 29.975 15.5873 29.6511 16.0691 29.4343C16.551 29.2175 17.0759 29.1134 17.604 29.1299C18.1077 29.1144 18.6083 29.2144 19.0674 29.4223C19.5264 29.6301 19.9319 29.9403 20.2526 30.329C20.9617 31.2274 21.321 32.3524 21.264 33.4955C21.3248 34.6719 20.954 35.83 20.2213 36.7523C19.8923 37.1541 19.4756 37.4751 19.0032 37.6908C18.5309 37.9065 18.0153 38.0111 17.4962 37.9966ZM17.5762 30.8017C17.2902 30.7939 17.0071 30.8602 16.7543 30.9942C16.5016 31.1282 16.2878 31.3253 16.1337 31.5664C15.7875 32.1819 15.6056 32.8762 15.6056 33.5824C15.6056 34.2886 15.7875 34.9828 16.1337 35.5983C16.2852 35.828 16.4918 36.0161 16.7347 36.1454C16.9775 36.2747 17.2489 36.3412 17.5241 36.3387C17.8018 36.3452 18.0769 36.2826 18.3245 36.1564C18.572 36.0302 18.7843 35.8444 18.9422 35.6157C19.3223 35.0211 19.5048 34.3216 19.4636 33.6171C19.5105 32.887 19.3347 32.1598 18.9596 31.5316C18.8115 31.301 18.6064 31.1125 18.3639 30.9846C18.1215 30.8567 17.8502 30.7937 17.5762 30.8017Z" fill="#FFCB00"/>
<path d="M26.5433 30.8539H23.8391V32.9568H26.3278V34.5209H23.8391V37.8472H22.1221V29.2898H26.5433V30.8539Z" fill="#FFCB00"/>
<path d="M31.7923 30.8539H29.0881V32.9568H31.5768V34.5209H29.0881V37.8472H27.3711V29.2898H31.7923V30.8539Z" fill="#FFCB00"/>
<path d="M37.2043 37.8472H32.6162V29.2898H37.0305V30.8609H34.3367V32.7656H36.8428V34.3297H34.3367V36.2831H37.2043V37.8472Z" fill="#FFCB00"/>
<path d="M44.4166 37.846H42.4354L41.2466 35.6424C41.1597 35.4755 41.0728 35.3296 40.9929 35.1905C40.9218 35.0663 40.8379 34.9498 40.7426 34.8429C40.6684 34.7571 40.5803 34.6842 40.482 34.6274C40.3931 34.5732 40.2906 34.5454 40.1865 34.5475H39.7242V37.8252H37.9863V29.2712H40.7253C42.579 29.2712 43.5059 30.0475 43.5059 31.6C43.5074 31.8789 43.4676 32.1565 43.3877 32.4238C43.3086 32.6721 43.1914 32.9067 43.0401 33.119C42.8899 33.3207 42.708 33.4968 42.5014 33.6403C42.2859 33.7862 42.0522 33.9031 41.8062 33.9879V34.0157C41.9266 34.0597 42.0383 34.1244 42.1364 34.2069C42.2501 34.3001 42.3548 34.4036 42.4493 34.5162L42.7377 34.902C42.8212 35.0411 42.9115 35.1697 42.988 35.3018L44.4166 37.846ZM39.7242 30.7311V33.112H40.4715C40.637 33.1202 40.8024 33.0934 40.9569 33.0336C41.1114 32.9737 41.2515 32.882 41.3683 32.7644C41.5982 32.5218 41.7231 32.1983 41.7159 31.8642C41.7159 31.1134 41.3161 30.7415 40.5167 30.7415L39.7242 30.7311Z" fill="#FFCB00"/>
<path d="M17.4962 37.9966C16.9891 38.0117 16.4851 37.9116 16.0221 37.7039C15.5592 37.4963 15.1493 37.1863 14.8234 36.7975C14.1028 35.9185 13.7315 34.8048 13.7806 33.6693C13.7211 32.4834 14.0913 31.316 14.8234 30.3812C15.1613 29.975 15.5873 29.6511 16.0691 29.4343C16.551 29.2175 17.0759 29.1134 17.604 29.1299C18.1077 29.1144 18.6083 29.2144 19.0674 29.4223C19.5264 29.6301 19.9319 29.9403 20.2526 30.329C20.9617 31.2274 21.321 32.3524 21.264 33.4955C21.3248 34.6719 20.954 35.83 20.2213 36.7523C19.8923 37.1541 19.4756 37.4751 19.0032 37.6908C18.5309 37.9065 18.0153 38.0111 17.4962 37.9966ZM17.5762 30.8017C17.2902 30.7939 17.0071 30.8602 16.7543 30.9942C16.5016 31.1282 16.2878 31.3253 16.1337 31.5664C15.7875 32.1819 15.6056 32.8762 15.6056 33.5824C15.6056 34.2886 15.7875 34.9828 16.1337 35.5983C16.2852 35.828 16.4918 36.0161 16.7347 36.1454C16.9775 36.2747 17.2489 36.3412 17.5241 36.3387C17.8018 36.3452 18.0769 36.2826 18.3245 36.1564C18.572 36.0302 18.7843 35.8444 18.9422 35.6157C19.3223 35.0211 19.5048 34.3216 19.4636 33.6171C19.5105 32.887 19.3347 32.1598 18.9596 31.5316C18.8115 31.301 18.6064 31.1125 18.3639 30.9846C18.1215 30.8567 17.8502 30.7937 17.5762 30.8017Z" fill="#FFCB00"/>
<path d="M26.5433 30.8539H23.8391V32.9568H26.3278V34.5209H23.8391V37.8472H22.1221V29.2898H26.5433V30.8539Z" fill="#FFCB00"/>
<path d="M31.7923 30.8539H29.0881V32.9568H31.5768V34.5209H29.0881V37.8472H27.3711V29.2898H31.7923V30.8539Z" fill="#FFCB00"/>
<path d="M37.2043 37.8472H32.6162V29.2898H37.0305V30.8609H34.3367V32.7656H36.8428V34.3297H34.3367V36.2831H37.2043V37.8472Z" fill="#FFCB00"/>
<path d="M44.4166 37.846H42.4354L41.2466 35.6424C41.1597 35.4755 41.0728 35.3296 40.9929 35.1905C40.9218 35.0663 40.8379 34.9498 40.7426 34.8429C40.6684 34.7571 40.5803 34.6842 40.482 34.6274C40.3931 34.5732 40.2906 34.5454 40.1865 34.5475H39.7242V37.8252H37.9863V29.2712H40.7253C42.579 29.2712 43.5059 30.0475 43.5059 31.6C43.5074 31.8789 43.4676 32.1565 43.3877 32.4238C43.3086 32.6721 43.1914 32.9067 43.0401 33.119C42.8899 33.3207 42.708 33.4968 42.5014 33.6403C42.2859 33.7862 42.0522 33.9031 41.8062 33.9879V34.0157C41.9266 34.0597 42.0383 34.1244 42.1364 34.2069C42.2501 34.3001 42.3548 34.4036 42.4493 34.5162L42.7377 34.902C42.8212 35.0411 42.9115 35.1697 42.988 35.3018L44.4166 37.846ZM39.7242 30.7311V33.112H40.4715C40.637 33.1202 40.8024 33.0934 40.9569 33.0336C41.1114 32.9737 41.2515 32.882 41.3683 32.7644C41.5982 32.5218 41.7231 32.1983 41.7159 31.8642C41.7159 31.1134 41.3161 30.7415 40.5167 30.7415L39.7242 30.7311Z" fill="#FFCB00"/>
<path d="M14.3092 26.2926V25.3611C14.4062 25.4591 14.5161 25.5433 14.636 25.6113C14.7643 25.688 14.8993 25.7531 15.0391 25.806C15.1782 25.8581 15.3242 25.8894 15.4632 25.9276C15.5916 25.9525 15.7218 25.9664 15.8525 25.9693C16.1859 25.9977 16.5179 25.901 16.784 25.6982C16.8897 25.6009 16.9721 25.4809 17.0251 25.3474C17.078 25.2138 17.1002 25.0699 17.0899 24.9266C17.0934 24.7637 17.0563 24.6024 16.9821 24.4574C16.9093 24.3249 16.8127 24.2071 16.6971 24.1098C16.5656 23.9893 16.4224 23.8821 16.2696 23.79C16.1062 23.6823 15.922 23.578 15.7413 23.4668C15.5605 23.3555 15.352 23.2304 15.1782 23.1192C15.0092 23.0082 14.8571 22.8736 14.7263 22.7195C14.5941 22.5757 14.4903 22.4083 14.4205 22.2259C14.3409 22.009 14.3031 21.7791 14.3092 21.5481C14.3031 21.2705 14.3626 20.9954 14.483 20.7452C14.5924 20.5308 14.745 20.3414 14.9314 20.1891C15.1239 20.0474 15.3389 19.9393 15.5675 19.8693C15.8078 19.7985 16.0573 19.7634 16.3078 19.765C16.7357 19.7347 17.1642 19.8149 17.5521 19.9979V20.8773C17.1755 20.5917 16.7104 20.4477 16.2383 20.4706C16.0884 20.4691 15.9389 20.4866 15.7934 20.5228C15.6538 20.5555 15.5217 20.6145 15.4041 20.6966C15.2874 20.7752 15.1919 20.8815 15.126 21.0059C15.0475 21.1499 15.0057 21.3111 15.0044 21.4751C14.9994 21.6281 15.0291 21.7802 15.0913 21.92C15.1496 22.0512 15.2335 22.1693 15.3381 22.2676C15.4564 22.3803 15.587 22.4794 15.7274 22.5631L16.2557 22.8828C16.4677 23.0045 16.6554 23.1261 16.85 23.2582C17.0304 23.384 17.196 23.5297 17.3436 23.6927C17.4816 23.849 17.5921 24.0277 17.6703 24.221C17.7502 24.4294 17.7891 24.6513 17.785 24.8745C17.7942 25.1635 17.7384 25.451 17.6217 25.7156C17.5196 25.9356 17.3643 26.1268 17.1698 26.2717C16.9727 26.4154 16.7513 26.5225 16.5164 26.588C16.2604 26.6506 15.9978 26.6821 15.7343 26.6819C15.618 26.6803 15.5018 26.671 15.3867 26.6541C15.2577 26.6373 15.13 26.6117 15.0044 26.5776C14.8665 26.5525 14.7306 26.5177 14.5977 26.4733C14.4952 26.4239 14.3984 26.3633 14.3092 26.2926Z" fill="white"/>
<path d="M19.6375 24.0389V26.5762H18.9424V19.8679H20.5656C20.8278 19.8517 21.0906 19.8896 21.3376 19.9793C21.5845 20.069 21.8104 20.2086 22.0011 20.3893C22.1789 20.5893 22.3156 20.8224 22.4032 21.0753C22.4909 21.3282 22.5279 21.5958 22.512 21.863C22.5327 22.4391 22.3297 23.0009 21.9455 23.4306C21.7474 23.6383 21.5064 23.8004 21.2392 23.9054C20.9721 24.0105 20.6853 24.056 20.3987 24.0389H19.6375ZM19.6375 20.5631V23.3089H20.3327C20.5271 23.3237 20.7225 23.2983 20.9066 23.2343C21.0908 23.1703 21.2598 23.0691 21.4033 22.937C21.6512 22.6484 21.776 22.274 21.7508 21.8943C21.7717 21.0068 21.3303 20.5631 20.4265 20.5631H19.6375Z" fill="white"/>
<path d="M26.6413 26.5591H23.5791V19.8682H26.5092V20.5633H24.2499V22.7983H26.3354V23.4934H24.2499V25.8396H26.6309V26.5347L26.6413 26.5591Z" fill="white"/>
<path d="M31.6886 26.282C31.2011 26.5582 30.6462 26.693 30.0863 26.6712C29.7083 26.685 29.3324 26.6087 28.9897 26.4485C28.647 26.2884 28.3474 26.049 28.1155 25.7502C27.5947 25.0597 27.3316 24.2089 27.3717 23.3449C27.3264 22.4027 27.6253 21.4761 28.2128 20.7381C28.4651 20.4224 28.7866 20.1689 29.1524 19.9971C29.5182 19.8254 29.9186 19.7399 30.3226 19.7474C30.7934 19.7321 31.2613 19.8273 31.6886 20.0255V20.8597C31.275 20.5917 30.7911 20.4526 30.2983 20.46C29.9875 20.4546 29.6798 20.5215 29.3993 20.6554C29.1188 20.7893 28.8732 20.9866 28.6821 21.2316C28.248 21.8284 28.0309 22.5557 28.0668 23.2928C28.0294 23.9924 28.2344 24.6836 28.6473 25.2496C28.8249 25.4834 29.0556 25.6716 29.3203 25.7985C29.5851 25.9254 29.8762 25.9875 30.1697 25.9796C30.7068 25.9937 31.2342 25.8353 31.6747 25.5277V26.282H31.6886Z" fill="white"/>
<path d="M34.1209 19.8682V20.5286H33.5578V25.8813H34.1209V26.5521H32.3135V25.8813H32.8766V20.5286H32.3135V19.8682H34.1209Z" fill="white"/>
<path d="M39.5261 26.5591H38.7788L38.1705 24.6821H35.7201L35.164 26.5591H34.4062L36.6064 19.8682H37.3016L39.5261 26.5591ZM37.9446 23.9696L37.0409 21.1125C36.9993 20.9634 36.9703 20.8111 36.954 20.6572H36.9366C36.9151 20.8108 36.8838 20.9629 36.8428 21.1125L35.946 23.9696H37.9446Z" fill="white"/>
<path d="M43.3741 26.5591H40.3779V19.8682H41.0731V25.857H43.3914L43.3741 26.5591Z" fill="white"/>
<path d="M28.8103 11.0764L29.4394 12.1296L30.6455 12.4042L29.8287 13.3357L29.9399 14.5626L28.8103 14.076L27.6737 14.5626L27.7884 13.3357L26.9785 12.4042L28.1777 12.1296L28.8103 11.0764Z" fill="#FFCB00"/>
<path d="M21.945 12.8135L22.5811 13.8736L23.7803 14.1412L22.9704 15.0727L23.0851 16.2997L21.945 15.8131L20.8154 16.2997L20.9301 15.0727L20.1133 14.1412L21.3194 13.8736L21.945 12.8135Z" fill="#FFCB00"/>
<path d="M35.6682 12.8135L36.3043 13.8736L37.5 14.1412L36.6936 15.0727L36.7979 16.2997L35.6682 15.8131L34.5386 16.2997L34.6533 15.0727L33.833 14.1412L35.0426 13.8736L35.6682 12.8135Z" fill="#FFCB00"/>
<path d="M28.8103 43L29.4394 44.0497L30.6455 44.3312L29.8287 45.2593L29.9399 46.4828L28.8103 45.9996L27.6737 46.4828L27.7884 45.2593L26.9785 44.3312L28.1777 44.0497L28.8103 43Z" fill="#FFCB00"/>
<path d="M35.6682 44.7391L35.0356 43.6894L33.833 43.4079L34.6533 42.4798L34.5386 41.2563L35.6682 41.743L36.7979 41.2563L36.6936 42.4798L37.5 43.4079L36.3043 43.6894L35.6682 44.7391Z" fill="#FFCB00"/>
<path d="M21.945 44.7391L21.3194 43.6894L20.1133 43.4079L20.9301 42.4798L20.8154 41.2563L21.945 41.743L23.0851 41.2563L22.9704 42.4798L23.7803 43.4079L22.5811 43.6894L21.945 44.7391Z" fill="#FFCB00"/>
</svg>
