<svg width="38" height="44" viewBox="0 0 38 44" fill="none" xmlns="http://www.w3.org/2000/svg">
<path d="M34.643 0.114014V23.6468L18.9069 39.3933L3.1709 23.6468V0.114014H18.9069H34.643Z" fill="#002540"/>
<path d="M18.9068 37.0817L18.8546 37.0296L4.87402 23.0385V1.16382H5.02001V22.9794L18.9068 36.8732L32.7936 22.9794V1.16382H32.943V23.0385L32.9257 23.0629L18.9068 37.0817Z" fill="white"/>
<path d="M9.946 17.5011C9.54313 17.5136 9.14264 17.4351 8.77432 17.2714C8.406 17.1077 8.07933 16.863 7.81866 16.5556C7.24796 15.8591 6.95349 14.9769 6.99136 14.0772C6.94853 13.1358 7.2459 12.2104 7.8291 11.4702C8.09715 11.1454 8.4362 10.8866 8.8201 10.7136C9.20401 10.5407 9.62251 10.4582 10.0433 10.4725C10.4407 10.4633 10.835 10.5446 11.1963 10.7102C11.5576 10.8758 11.8766 11.1214 12.129 11.4285C12.6912 12.1403 12.9754 13.0323 12.9284 13.9382C12.9755 14.8721 12.6788 15.7909 12.0942 16.5209C11.8341 16.8366 11.5054 17.089 11.1332 17.2589C10.761 17.4287 10.355 17.5116 9.946 17.5011ZM10.0016 11.7865C9.77387 11.7813 9.54857 11.8344 9.34717 11.9409C9.14578 12.0474 8.97499 12.2036 8.85106 12.3948C8.54664 12.8693 8.39834 13.4272 8.42697 13.9903C8.39546 14.5547 8.54396 15.1146 8.85106 15.5893C8.97493 15.7704 9.14073 15.919 9.33436 16.0223C9.52798 16.1257 9.7437 16.1807 9.96316 16.1828C10.1826 16.1848 10.3993 16.1338 10.5948 16.0341C10.7904 15.9344 10.9589 15.789 11.0861 15.6101C11.3888 15.139 11.5348 14.5842 11.5033 14.0251C11.5388 13.4503 11.3994 12.8783 11.1035 12.3844C10.9881 12.1971 10.8257 12.0433 10.6323 11.9384C10.439 11.8335 10.2215 11.7811 10.0016 11.7865Z" fill="white"/>
<path d="M17.1275 11.8282H14.9793V13.4967H16.9537V14.7411H14.9793V17.3794H13.5889V10.5837H17.0997V11.8282H17.1275Z" fill="white"/>
<path d="M21.2881 11.8282H19.1399V13.4967H21.1143V14.7411H19.1399V17.3794H17.7773V10.5837H21.2881V11.8282Z" fill="white"/>
<path d="M25.5876 17.3794H21.9482V10.5837H25.4521V11.8282H23.3108V13.3402H25.3026V14.5812H23.3108V16.1385H25.5876V17.3794Z" fill="white"/>
<path d="M31.3168 17.3795H29.7422L28.7967 15.6415C28.7272 15.5094 28.6576 15.3912 28.5985 15.2939C28.5396 15.1988 28.4721 15.1092 28.3969 15.0262C28.3364 14.9583 28.2661 14.8997 28.1884 14.8524C28.1188 14.8087 28.0376 14.7869 27.9555 14.7899H27.5974V17.3899H26.207V10.5769H28.3796C29.8569 10.5769 30.5938 11.1956 30.5938 12.4262C30.5936 12.6508 30.562 12.8742 30.4999 13.0901C30.4334 13.282 30.3397 13.4634 30.2219 13.6289C30.1026 13.7899 29.9583 13.9308 29.7943 14.046C29.6186 14.1633 29.428 14.2569 29.2277 14.3241C29.3223 14.3637 29.4102 14.4176 29.4884 14.484C29.5781 14.5586 29.6596 14.6425 29.7317 14.7342C29.814 14.8317 29.8906 14.9339 29.9612 15.0401L30.1593 15.3599L31.3168 17.3795ZM27.5974 11.7309V13.6289H28.1884C28.3182 13.6336 28.4475 13.6102 28.5674 13.5604C28.6874 13.5106 28.7952 13.4356 28.8836 13.3404C29.0586 13.1515 29.1544 12.9026 29.1512 12.6451C29.1512 12.0542 28.8314 11.7483 28.1988 11.7483L27.5974 11.7309Z" fill="white"/>
<path d="M9.946 17.5011C9.54313 17.5136 9.14264 17.4351 8.77432 17.2714C8.406 17.1077 8.07933 16.863 7.81866 16.5556C7.24796 15.8591 6.95349 14.9769 6.99136 14.0772C6.94853 13.1358 7.2459 12.2104 7.8291 11.4702C8.09715 11.1454 8.4362 10.8866 8.8201 10.7136C9.20401 10.5407 9.62251 10.4582 10.0433 10.4725C10.4407 10.4633 10.835 10.5446 11.1963 10.7102C11.5576 10.8758 11.8766 11.1214 12.129 11.4285C12.6912 12.1403 12.9754 13.0323 12.9284 13.9382C12.9755 14.8721 12.6788 15.7909 12.0942 16.5209C11.8341 16.8366 11.5054 17.089 11.1332 17.2589C10.761 17.4287 10.355 17.5116 9.946 17.5011ZM10.0016 11.7865C9.77387 11.7813 9.54857 11.8344 9.34717 11.9409C9.14578 12.0474 8.97499 12.2036 8.85106 12.3948C8.54664 12.8693 8.39834 13.4272 8.42697 13.9903C8.39546 14.5547 8.54396 15.1146 8.85106 15.5893C8.97493 15.7704 9.14073 15.919 9.33436 16.0223C9.52798 16.1257 9.7437 16.1807 9.96316 16.1828C10.1826 16.1848 10.3993 16.1338 10.5948 16.0341C10.7904 15.9344 10.9589 15.789 11.0861 15.6101C11.3888 15.139 11.5348 14.5842 11.5033 14.0251C11.5388 13.4503 11.3994 12.8783 11.1035 12.3844C10.9881 12.1971 10.8257 12.0433 10.6323 11.9384C10.439 11.8335 10.2215 11.7811 10.0016 11.7865Z" fill="#F50000"/>
<path d="M17.1275 11.8282H14.9793V13.4967H16.9537V14.7411H14.9793V17.3794H13.5889V10.5837H17.0997V11.8282H17.1275Z" fill="#F50000"/>
<path d="M21.2881 11.8282H19.1399V13.4967H21.1143V14.7411H19.1399V17.3794H17.7773V10.5837H21.2881V11.8282Z" fill="#F50000"/>
<path d="M25.5876 17.3794H21.9482V10.5837H25.4521V11.8282H23.3108V13.3402H25.3026V14.5812H23.3108V16.1385H25.5876V17.3794Z" fill="#F50000"/>
<path d="M31.3168 17.3795H29.7422L28.7967 15.6415C28.7272 15.5094 28.6576 15.3912 28.5985 15.2939C28.5396 15.1988 28.4721 15.1092 28.3969 15.0262C28.3364 14.9583 28.2661 14.8997 28.1884 14.8524C28.1188 14.8087 28.0376 14.7869 27.9555 14.7899H27.5974V17.3899H26.207V10.5769H28.3796C29.8569 10.5769 30.5938 11.1956 30.5938 12.4262C30.5936 12.6508 30.562 12.8742 30.4999 13.0901C30.4334 13.282 30.3397 13.4634 30.2219 13.6289C30.1026 13.7899 29.9583 13.9308 29.7943 14.046C29.6186 14.1633 29.428 14.2569 29.2277 14.3241C29.3223 14.3637 29.4102 14.4176 29.4884 14.484C29.5781 14.5586 29.6596 14.6425 29.7317 14.7342C29.814 14.8317 29.8906 14.9339 29.9612 15.0401L30.1593 15.3599L31.3168 17.3795ZM27.5974 11.7309V13.6289H28.1884C28.3182 13.6336 28.4475 13.6102 28.5674 13.5604C28.6874 13.5106 28.7952 13.4356 28.8836 13.3404C29.0586 13.1515 29.1544 12.9026 29.1512 12.6451C29.1512 12.0542 28.8314 11.7483 28.1988 11.7483L27.5974 11.7309Z" fill="#F50000"/>
<path d="M9.946 17.5011C9.54313 17.5136 9.14264 17.4351 8.77432 17.2714C8.406 17.1077 8.07933 16.863 7.81866 16.5556C7.24796 15.8591 6.95349 14.9769 6.99136 14.0772C6.94853 13.1358 7.2459 12.2104 7.8291 11.4702C8.09715 11.1454 8.4362 10.8866 8.8201 10.7136C9.20401 10.5407 9.62251 10.4582 10.0433 10.4725C10.4407 10.4633 10.835 10.5446 11.1963 10.7102C11.5576 10.8758 11.8766 11.1214 12.129 11.4285C12.6912 12.1403 12.9754 13.0323 12.9284 13.9382C12.9755 14.8721 12.6788 15.7909 12.0942 16.5209C11.8341 16.8366 11.5054 17.089 11.1332 17.2589C10.761 17.4287 10.355 17.5116 9.946 17.5011ZM10.0016 11.7865C9.77387 11.7813 9.54857 11.8344 9.34717 11.9409C9.14578 12.0474 8.97499 12.2036 8.85106 12.3948C8.54664 12.8693 8.39834 13.4272 8.42697 13.9903C8.39546 14.5547 8.54396 15.1146 8.85106 15.5893C8.97493 15.7704 9.14073 15.919 9.33436 16.0223C9.52798 16.1257 9.7437 16.1807 9.96316 16.1828C10.1826 16.1848 10.3993 16.1338 10.5948 16.0341C10.7904 15.9344 10.9589 15.789 11.0861 15.6101C11.3888 15.139 11.5348 14.5842 11.5033 14.0251C11.5388 13.4503 11.3994 12.8783 11.1035 12.3844C10.9881 12.1971 10.8257 12.0433 10.6323 11.9384C10.439 11.8335 10.2215 11.7811 10.0016 11.7865Z" fill="#F50000"/>
<path d="M17.1275 11.8282H14.9793V13.4967H16.9537V14.7411H14.9793V17.3794H13.5889V10.5837H17.0997V11.8282H17.1275Z" fill="#F50000"/>
<path d="M21.2881 11.8282H19.1399V13.4967H21.1143V14.7411H19.1399V17.3794H17.7773V10.5837H21.2881V11.8282Z" fill="#F50000"/>
<path d="M25.5876 17.3794H21.9482V10.5837H25.4521V11.8282H23.3108V13.3402H25.3026V14.5812H23.3108V16.1385H25.5876V17.3794Z" fill="#F50000"/>
<path d="M31.3168 17.3795H29.7422L28.7967 15.6415C28.7272 15.5094 28.6576 15.3912 28.5985 15.2939C28.5396 15.1988 28.4721 15.1092 28.3969 15.0262C28.3364 14.9583 28.2661 14.8997 28.1884 14.8524C28.1188 14.8087 28.0376 14.7869 27.9555 14.7899H27.5974V17.3899H26.207V10.5769H28.3796C29.8569 10.5769 30.5938 11.1956 30.5938 12.4262C30.5936 12.6508 30.562 12.8742 30.4999 13.0901C30.4334 13.282 30.3397 13.4634 30.2219 13.6289C30.1026 13.7899 29.9583 13.9308 29.7943 14.046C29.6186 14.1633 29.428 14.2569 29.2277 14.3241C29.3223 14.3637 29.4102 14.4176 29.4884 14.484C29.5781 14.5586 29.6596 14.6425 29.7317 14.7342C29.814 14.8317 29.8906 14.9339 29.9612 15.0401L30.1593 15.3599L31.3168 17.3795ZM27.5974 11.7309V13.6289H28.1884C28.3182 13.6336 28.4475 13.6102 28.5674 13.5604C28.6874 13.5106 28.7952 13.4356 28.8836 13.3404C29.0586 13.1515 29.1544 12.9026 29.1512 12.6451C29.1512 12.0542 28.8314 11.7483 28.1988 11.7483L27.5974 11.7309Z" fill="#F50000"/>
<path d="M9.946 17.5011C9.54313 17.5136 9.14264 17.4351 8.77432 17.2714C8.406 17.1077 8.07933 16.863 7.81866 16.5556C7.24796 15.8591 6.95349 14.9769 6.99136 14.0772C6.94853 13.1358 7.2459 12.2104 7.8291 11.4702C8.09715 11.1454 8.4362 10.8866 8.8201 10.7136C9.20401 10.5407 9.62251 10.4582 10.0433 10.4725C10.4407 10.4633 10.835 10.5446 11.1963 10.7102C11.5576 10.8758 11.8766 11.1214 12.129 11.4285C12.6912 12.1403 12.9754 13.0323 12.9284 13.9382C12.9755 14.8721 12.6788 15.7909 12.0942 16.5209C11.8341 16.8366 11.5054 17.089 11.1332 17.2589C10.761 17.4287 10.355 17.5116 9.946 17.5011ZM10.0016 11.7865C9.77387 11.7813 9.54857 11.8344 9.34717 11.9409C9.14578 12.0474 8.97499 12.2036 8.85106 12.3948C8.54664 12.8693 8.39834 13.4272 8.42697 13.9903C8.39546 14.5547 8.54396 15.1146 8.85106 15.5893C8.97493 15.7704 9.14073 15.919 9.33436 16.0223C9.52798 16.1257 9.7437 16.1807 9.96316 16.1828C10.1826 16.1848 10.3993 16.1338 10.5948 16.0341C10.7904 15.9344 10.9589 15.789 11.0861 15.6101C11.3888 15.139 11.5348 14.5842 11.5033 14.0251C11.5388 13.4503 11.3994 12.8783 11.1035 12.3844C10.9881 12.1971 10.8257 12.0433 10.6323 11.9384C10.439 11.8335 10.2215 11.7811 10.0016 11.7865Z" fill="#F50000"/>
<path d="M17.1275 11.8282H14.9793V13.4967H16.9537V14.7411H14.9793V17.3794H13.5889V10.5837H17.0997V11.8282H17.1275Z" fill="#F50000"/>
<path d="M21.2881 11.8282H19.1399V13.4967H21.1143V14.7411H19.1399V17.3794H17.7773V10.5837H21.2881V11.8282Z" fill="#F50000"/>
<path d="M25.5876 17.3794H21.9482V10.5837H25.4521V11.8282H23.3108V13.3402H25.3026V14.5812H23.3108V16.1385H25.5876V17.3794Z" fill="#F50000"/>
<path d="M31.3168 17.3795H29.7422L28.7967 15.6415C28.7272 15.5094 28.6576 15.3912 28.5985 15.2939C28.5396 15.1988 28.4721 15.1092 28.3969 15.0262C28.3364 14.9583 28.2661 14.8997 28.1884 14.8524C28.1188 14.8087 28.0376 14.7869 27.9555 14.7899H27.5974V17.3899H26.207V10.5769H28.3796C29.8569 10.5769 30.5938 11.1956 30.5938 12.4262C30.5936 12.6508 30.562 12.8742 30.4999 13.0901C30.4334 13.282 30.3397 13.4634 30.2219 13.6289C30.1026 13.7899 29.9583 13.9308 29.7943 14.046C29.6186 14.1633 29.428 14.2569 29.2277 14.3241C29.3223 14.3637 29.4102 14.4176 29.4884 14.484C29.5781 14.5586 29.6596 14.6425 29.7317 14.7342C29.814 14.8317 29.8906 14.9339 29.9612 15.0401L30.1593 15.3599L31.3168 17.3795ZM27.5974 11.7309V13.6289H28.1884C28.3182 13.6336 28.4475 13.6102 28.5674 13.5604C28.6874 13.5106 28.7952 13.4356 28.8836 13.3404C29.0586 13.1515 29.1544 12.9026 29.1512 12.6451C29.1512 12.0542 28.8314 11.7483 28.1988 11.7483L27.5974 11.7309Z" fill="#F50000"/>
<path d="M7.32129 8.03927V7.2815C7.40254 7.36313 7.49362 7.43436 7.59243 7.49353C7.69907 7.55264 7.80937 7.60489 7.92266 7.64996C8.03518 7.69251 8.15161 7.72395 8.27026 7.74381C8.37703 7.76324 8.48507 7.77486 8.59353 7.77857C8.86656 7.8007 9.13833 7.72287 9.35826 7.55958C9.44375 7.47888 9.51046 7.38039 9.55371 7.27108C9.59695 7.16176 9.61567 7.04428 9.60853 6.92694C9.61118 6.7943 9.58134 6.66304 9.52163 6.54457C9.46536 6.42704 9.3848 6.32278 9.28526 6.23868C9.17748 6.14149 9.06114 6.05423 8.93766 5.97798C8.79861 5.89108 8.65957 5.80418 8.50315 5.71728C8.34673 5.63038 8.18335 5.51567 8.04431 5.42181C7.90414 5.32332 7.77786 5.2064 7.66889 5.07421C7.56352 4.95149 7.47792 4.81311 7.41515 4.66404C7.35371 4.49241 7.32425 4.31098 7.32825 4.12873C7.32187 3.90254 7.37078 3.67822 7.47076 3.47523C7.55902 3.29649 7.68609 3.13973 7.8427 3.01639C7.99936 2.89229 8.17888 2.80017 8.37106 2.74526C8.56596 2.68603 8.76871 2.65673 8.97241 2.65836C9.33128 2.63337 9.69052 2.70162 10.0152 2.8565V3.58994C9.70766 3.35175 9.32642 3.22877 8.93766 3.24234C8.82063 3.24648 8.70425 3.26161 8.59005 3.28753C8.47415 3.31437 8.3652 3.36529 8.27026 3.437C8.17339 3.50561 8.0927 3.59459 8.03387 3.6977C7.97069 3.81363 7.94063 3.94471 7.94697 4.07659C7.94484 4.20286 7.9685 4.32824 8.0165 4.44505C8.06144 4.55101 8.13048 4.64503 8.21811 4.71965C8.31627 4.81231 8.42339 4.89499 8.5379 4.96645L8.97241 5.22716C9.14621 5.32101 9.32002 5.42529 9.45906 5.52957C9.60727 5.62702 9.74171 5.74394 9.85879 5.87718C9.9724 6.00745 10.064 6.15538 10.1299 6.31516C10.2015 6.48797 10.2358 6.67392 10.2307 6.86089C10.2426 7.10057 10.1949 7.33945 10.0917 7.5561C10.0064 7.73765 9.87882 7.89616 9.71977 8.01842C9.55839 8.13725 9.37538 8.22345 9.18098 8.27217C8.97044 8.32319 8.75454 8.34887 8.5379 8.34864C8.46143 8.34864 8.37453 8.34864 8.25982 8.33126C8.14511 8.31388 8.03388 8.2965 7.91222 8.27217C7.80285 8.24534 7.69495 8.21285 7.58895 8.17484C7.49559 8.13833 7.40596 8.09293 7.32129 8.03927Z" fill="white"/>
<path d="M11.7042 6.19698V8.2826H11.1445V2.76265H12.448C12.6644 2.74847 12.8814 2.77912 13.0854 2.85269C13.2893 2.92626 13.4759 3.04117 13.6334 3.1902C13.7801 3.35521 13.8925 3.54774 13.9641 3.75661C14.0358 3.96548 14.0651 4.1865 14.0505 4.40682C14.0709 4.87642 13.9047 5.33502 13.5882 5.68252C13.4286 5.85286 13.2343 5.98694 13.0184 6.0757C12.8025 6.16445 12.5701 6.20581 12.3368 6.19698H11.7042ZM11.7042 3.35358V5.613H12.3021C12.4617 5.62342 12.6217 5.60172 12.7728 5.54918C12.9238 5.49663 13.0628 5.41432 13.1815 5.30711C13.2868 5.19153 13.3678 5.05598 13.4198 4.9085C13.4717 4.76101 13.4936 4.6046 13.4839 4.44853C13.4839 3.71856 13.112 3.36401 12.3716 3.36401H11.7216L11.7042 3.35358Z" fill="white"/>
<path d="M17.4575 8.28265H14.9443V2.7627H17.3533V3.34667H15.5005V5.18202H17.2142V5.76252H15.5005V7.69172H17.4575V8.28265Z" fill="white"/>
<path d="M21.5904 8.03951C21.1928 8.2687 20.7385 8.38077 20.2799 8.36279C19.9697 8.37371 19.6613 8.3107 19.3803 8.17894C19.0992 8.04718 18.8536 7.85045 18.6636 7.60501C18.2364 7.03547 18.0213 6.33478 18.0552 5.62367C18.02 4.85034 18.2671 4.09057 18.7505 3.4859C18.9589 3.22645 19.2238 3.018 19.525 2.87643C19.8262 2.73487 20.1557 2.66394 20.4885 2.66903C20.8739 2.65784 21.2568 2.73513 21.6078 2.89497V3.59018C21.277 3.36679 20.8876 3.24588 20.4885 3.24258C20.233 3.23531 19.9795 3.28925 19.7491 3.39991C19.5187 3.51057 19.3181 3.67473 19.1641 3.8787C18.8068 4.36957 18.63 4.96878 18.6636 5.575C18.6289 6.14746 18.7976 6.71377 19.1398 7.17398C19.2842 7.36591 19.4727 7.52038 19.6892 7.62441C19.9057 7.72845 20.1441 7.77901 20.3842 7.77186C20.8218 7.78842 21.2536 7.66681 21.6182 7.42426L21.5973 8.04994L21.5904 8.03951Z" fill="white"/>
<path d="M23.5825 2.7627V3.32234H23.1236V7.71953H23.5825V8.28265H22.0947V7.72648H22.557V3.32234H22.0947V2.7627H23.5825Z" fill="white"/>
<path d="M28.0313 8.2826H27.4126L26.9016 6.71838H24.8924L24.4336 8.2826H23.8184L25.6328 2.78003H26.2064L28.0313 8.2826ZM26.7382 6.16222L25.9909 3.81589C25.9529 3.69737 25.9284 3.57493 25.9179 3.45091C25.9029 3.57454 25.8774 3.69665 25.8414 3.81589L25.101 6.16222H26.7382Z" fill="white"/>
<path d="M31.1945 8.28265H28.7266V2.7627H29.2827V7.68129H31.1876V8.26527L31.1945 8.28265Z" fill="white"/>
<path d="M16.9082 27.279C16.9082 27.3068 16.8491 27.279 16.8665 27.2443C18.3577 24.8632 19.8211 22.4752 21.8615 20.0315L22.6158 20.6294C20.8639 23.1078 18.82 25.2456 16.9082 27.279Z" fill="white"/>
<path d="M25.3271 28.1235L25.1638 27.3657C24.3503 27.4288 23.546 27.5804 22.7653 27.8176C21.4887 28.0763 20.2292 28.4129 18.9938 28.8257C18.966 28.8257 18.9938 28.8708 18.9938 28.8708C20.3033 28.8365 21.6093 28.7204 22.9044 28.5232C23.7254 28.4908 24.5392 28.3565 25.3271 28.1235Z" fill="white"/>
<path d="M17.402 19.0999L16.672 18.9644C16.4188 19.71 16.2509 20.482 16.1715 21.2655C15.9219 22.4962 15.7443 23.7404 15.6396 24.9918C15.6396 24.9973 15.6418 25.0026 15.6458 25.0066C15.6497 25.0105 15.655 25.0127 15.6605 25.0127C15.666 25.0127 15.6714 25.0105 15.6753 25.0066C15.6792 25.0026 15.6814 24.9973 15.6814 24.9918C16.1499 23.8191 16.5423 22.6173 16.8563 21.3941C17.133 20.6551 17.3163 19.8844 17.402 19.0999Z" fill="white"/>
<path d="M20.6451 33.4738C20.7551 33.3761 20.8446 33.2573 20.9081 33.1246C20.9716 32.9919 21.008 32.8478 21.0152 32.7008C21.0223 32.5538 21 32.4069 20.9496 32.2686C20.8992 32.1304 20.8216 32.0036 20.7216 31.8957L12.9283 23.2716C12.7337 23.0756 12.4736 22.9585 12.1979 22.9427C11.9222 22.927 11.6504 23.0137 11.4348 23.1862C11.2192 23.3587 11.0749 23.6048 11.0298 23.8773C10.9846 24.1497 11.0418 24.4292 11.1903 24.662L8.09661 30.9884L5.46524 33.3695C5.28894 33.5305 5.14998 33.7281 5.05811 33.9485C4.96624 34.1688 4.92367 34.4066 4.9334 34.6452L4.97859 35.4204L4.56146 35.8027C4.27369 36.067 4.10145 36.4339 4.08194 36.8242C4.06242 37.2144 4.19721 37.5967 4.45718 37.8883L5.36097 38.886C5.62527 39.1734 5.99178 39.3457 6.38176 39.3659C6.77174 39.386 7.15407 39.2524 7.44659 38.9937L7.86022 38.6079L8.63539 38.733C8.84711 38.7673 9.0636 38.7578 9.27151 38.7052L13.3802 43.2484C13.5557 43.441 13.8001 43.5567 14.0604 43.5704C14.3207 43.584 14.5758 43.4946 14.7706 43.3214L15.3163 42.8243C15.4155 42.7339 15.4953 42.6243 15.5509 42.5023C15.6066 42.3802 15.6369 42.2481 15.6402 42.1139C15.6434 41.9798 15.6195 41.8464 15.5698 41.7218C15.5201 41.5971 15.4457 41.4838 15.3511 41.3887C14.5819 40.6222 13.9546 39.7254 13.4984 38.74L14.0823 38.2186C14.1765 38.142 14.254 38.047 14.3102 37.9394C14.3665 37.8318 14.4001 37.7139 14.4093 37.5929C14.4184 37.4718 14.4028 37.3502 14.3633 37.2354C14.3239 37.1206 14.2615 37.0151 14.1799 36.9252C14.0983 36.8353 13.9992 36.763 13.8888 36.7127C13.7783 36.6624 13.6588 36.6351 13.5374 36.6325C13.4161 36.63 13.2954 36.6521 13.183 36.6977C13.0705 36.7433 12.9684 36.8114 12.8831 36.8977C12.8136 36.5779 12.7545 36.2477 12.7093 35.907L19.0809 33.4147C19.2822 33.627 19.5586 33.7521 19.8509 33.7631C20.1433 33.7742 20.4284 33.6703 20.6451 33.4738Z" fill="#002540"/>
<path d="M8.68773 38.281L7.81178 38.1523C7.77913 38.1465 7.74557 38.1482 7.71366 38.1572C7.68174 38.1662 7.6523 38.1824 7.62754 38.2045L7.13395 38.6564C6.92818 38.8404 6.65786 38.9352 6.38224 38.9203C6.10662 38.9053 5.8482 38.7816 5.66359 38.5764L4.75981 37.5753C4.5769 37.3697 4.48266 37.1002 4.49764 36.8254C4.51262 36.5506 4.6356 36.2929 4.83977 36.1084L5.33336 35.6565C5.35862 35.6357 5.37824 35.6089 5.39039 35.5785C5.40254 35.5482 5.40684 35.5152 5.40289 35.4827L5.35074 34.5963C5.34178 34.424 5.37146 34.2519 5.43762 34.0925C5.50378 33.9331 5.60473 33.7905 5.73309 33.6752L8.22543 31.4158L12.129 35.7434L9.6367 38.0029C9.55883 38.0733 9.47098 38.1319 9.376 38.1767L6.56735 35.0482C6.52757 35.0055 6.47276 34.9797 6.41443 34.9765C6.3561 34.9733 6.29878 34.9927 6.2545 35.0309C6.23252 35.0501 6.21461 35.0735 6.2018 35.0997C6.189 35.1259 6.18157 35.1545 6.17995 35.1836C6.17833 35.2128 6.18256 35.2419 6.19238 35.2694C6.2022 35.2969 6.2174 35.3222 6.23712 35.3437L8.8963 38.2914C8.82662 38.2931 8.75689 38.2897 8.68773 38.281Z" fill="white"/>
<path d="M9.93864 38.3223L12.285 36.2019C12.4763 37.5687 12.9562 38.8792 13.6928 40.0464L12.2502 41.3464L9.69531 38.5239C9.78237 38.4642 9.86382 38.3967 9.93864 38.3223Z" fill="#F50000"/>
<path d="M13.1648 42.3478L12.5635 41.6873L13.9539 40.4255C14.1266 40.6671 14.3123 40.8992 14.5101 41.1207L13.1648 42.3478Z" fill="white"/>
<path d="M8.52441 31.0681L11.4964 25.0198L18.7405 33.039L12.5219 35.4827L8.52441 31.0681Z" fill="#F50000"/>
<path d="M6.99158 37.3775L6.16776 38.1249C6.12498 38.1646 6.09929 38.2194 6.09605 38.2778C6.09281 38.3361 6.11228 38.3934 6.15039 38.4377C6.19061 38.4797 6.24529 38.5049 6.30337 38.5081C6.36146 38.5113 6.4186 38.4924 6.46324 38.4551L7.29054 37.7077C7.3309 37.6657 7.35344 37.6096 7.35344 37.5513C7.35344 37.493 7.3309 37.437 7.29054 37.3949C7.25268 37.3538 7.20034 37.329 7.14457 37.3258C7.0888 37.3226 7.03395 37.3411 6.99158 37.3775Z" fill="#002540"/>
<path d="M6.39309 36.7063L5.56927 37.4536C5.52317 37.4924 5.49435 37.5478 5.48914 37.6078C5.48392 37.6678 5.50273 37.7273 5.54145 37.7734C5.58017 37.8195 5.63562 37.8484 5.69559 37.8536C5.75556 37.8588 5.81515 37.84 5.86124 37.8013L6.68854 37.0539C6.70935 37.0335 6.72588 37.0092 6.73717 36.9823C6.74846 36.9555 6.75427 36.9266 6.75427 36.8975C6.75427 36.8684 6.74846 36.8395 6.73717 36.8126C6.72588 36.7858 6.70935 36.7614 6.68854 36.7411C6.65145 36.7011 6.60136 36.6757 6.54722 36.6693C6.49308 36.6629 6.43844 36.676 6.39309 36.7063Z" fill="#002540"/>
<path d="M5.792 36.0494L4.96818 36.7863C4.92782 36.8284 4.90527 36.8844 4.90527 36.9427C4.90527 37.001 4.92782 37.0571 4.96818 37.0991C5.00837 37.1409 5.0627 37.1662 5.12055 37.1701C5.17841 37.1739 5.23563 37.1561 5.28101 37.12L6.10831 36.3726C6.1489 36.33 6.17153 36.2734 6.17153 36.2145C6.17153 36.1556 6.1489 36.099 6.10831 36.0563C6.08862 36.0341 6.06453 36.0161 6.03758 36.0036C6.01062 35.9911 5.98138 35.9843 5.95167 35.9837C5.92197 35.983 5.89244 35.9885 5.86496 35.9998C5.83748 36.0111 5.81265 36.028 5.792 36.0494Z" fill="#002540"/>
<path d="M11.6529 23.5251C11.7179 23.4658 11.7939 23.4198 11.8766 23.39C11.9594 23.3601 12.0472 23.3469 12.1351 23.3511C12.2229 23.3553 12.3091 23.3768 12.3886 23.4145C12.4681 23.4521 12.5394 23.505 12.5984 23.5703L20.3952 32.1909C20.5075 32.3259 20.5646 32.4985 20.5549 32.6739C20.5453 32.8493 20.4696 33.0145 20.343 33.1364C20.2778 33.1963 20.2012 33.2425 20.1179 33.2724C20.0345 33.3022 19.946 33.3151 19.8576 33.3103C19.7691 33.3054 19.6826 33.2829 19.603 33.2441C19.5234 33.2053 19.4523 33.1509 19.3941 33.0842C19.0465 32.7019 11.9136 24.8008 11.6008 24.4637C11.542 24.3989 11.4968 24.3231 11.4676 24.2406C11.4384 24.1582 11.4259 24.0708 11.4307 23.9835C11.4356 23.8962 11.4577 23.8107 11.4958 23.732C11.534 23.6533 11.5874 23.583 11.6529 23.5251Z" fill="white"/>
<path d="M15.0068 42.4797L14.4576 42.9733C14.351 43.069 14.2112 43.119 14.0681 43.1124C13.925 43.1059 13.7903 43.0435 13.6928 42.9385L13.46 42.6778L14.8052 41.4612L15.0311 41.6941C15.0828 41.7464 15.1233 41.8086 15.1502 41.877C15.1771 41.9454 15.1898 42.0186 15.1875 42.0921C15.1852 42.1656 15.168 42.2378 15.137 42.3044C15.1059 42.3711 15.0616 42.4307 15.0068 42.4797Z" fill="#F50000"/>
<path d="M13.1715 37.2141C13.2149 37.1719 13.2663 37.1389 13.3226 37.1171C13.379 37.0953 13.4392 37.0851 13.4997 37.0872C13.5601 37.0892 13.6195 37.1035 13.6743 37.1291C13.729 37.1547 13.7781 37.1911 13.8184 37.2361C13.8588 37.2812 13.8896 37.3339 13.909 37.3911C13.9285 37.4484 13.9361 37.509 13.9315 37.5693C13.927 37.6296 13.9103 37.6883 13.8824 37.742C13.8545 37.7956 13.8161 37.8431 13.7694 37.8815L13.3036 38.3091C13.1806 38.0083 13.075 37.7008 12.9873 37.3879L13.1715 37.2141Z" fill="white"/>
<path d="M12.2504 27.1924C12.2084 27.2326 12.1833 27.2873 12.18 27.3454C12.1768 27.4035 12.1958 27.4606 12.2331 27.5052L16.4321 32.1457C16.4713 32.1918 16.5272 32.2205 16.5875 32.2254C16.6478 32.2303 16.7076 32.211 16.7537 32.1718C16.7997 32.1326 16.8284 32.0767 16.8333 32.0164C16.8382 31.9561 16.8189 31.8964 16.7797 31.8503L12.5807 27.2098C12.5607 27.186 12.5361 27.1666 12.5084 27.1527C12.4806 27.1388 12.4503 27.1308 12.4193 27.1292C12.3884 27.1276 12.3574 27.1324 12.3283 27.1432C12.2993 27.1541 12.2727 27.1708 12.2504 27.1924Z" fill="#002540"/>
<path d="M12.6221 29.2709C12.6014 29.291 12.5849 29.315 12.5737 29.3416C12.5624 29.3682 12.5566 29.3967 12.5566 29.4256C12.5566 29.4544 12.5624 29.483 12.5737 29.5096C12.5849 29.5361 12.6014 29.5602 12.6221 29.5803L14.4192 31.572C14.4386 31.5949 14.4623 31.6137 14.489 31.6273C14.5156 31.641 14.5447 31.6493 14.5746 31.6517C14.6044 31.6541 14.6345 31.6506 14.663 31.6414C14.6915 31.6322 14.7179 31.6175 14.7407 31.5981C14.7636 31.5787 14.7824 31.555 14.796 31.5284C14.8097 31.5017 14.818 31.4726 14.8204 31.4428C14.8228 31.4129 14.8193 31.3829 14.8101 31.3543C14.8009 31.3258 14.7862 31.2994 14.7668 31.2766L12.9697 29.2883C12.9502 29.2611 12.9248 29.2387 12.8955 29.2227C12.8661 29.2067 12.8335 29.1975 12.8001 29.1958C12.7667 29.1942 12.7333 29.2 12.7025 29.213C12.6717 29.226 12.6442 29.2458 12.6221 29.2709Z" fill="#002540"/>
<path d="M12.2429 30.5292C12.2209 30.5484 12.203 30.5718 12.1902 30.5981C12.1774 30.6243 12.1699 30.6528 12.1683 30.682C12.1667 30.7111 12.1709 30.7403 12.1807 30.7678C12.1906 30.7953 12.2058 30.8205 12.2255 30.8421L13.1293 31.8397C13.169 31.8825 13.2239 31.9082 13.2822 31.9114C13.3405 31.9147 13.3978 31.8952 13.4421 31.8571C13.4849 31.8173 13.5106 31.7625 13.5138 31.7041C13.5171 31.6458 13.4976 31.5885 13.4595 31.5442L12.5627 30.5292C12.5419 30.5078 12.5171 30.4907 12.4896 30.4791C12.4621 30.4674 12.4326 30.4614 12.4028 30.4614C12.3729 30.4614 12.3434 30.4674 12.3159 30.4791C12.2885 30.4907 12.2636 30.5078 12.2429 30.5292Z" fill="#002540"/>
<path d="M37.7992 0.11377H0.0146484V1.00016H37.7992V0.11377Z" fill="#002540"/>
</svg>
