<svg width="58" height="59" viewBox="0 0 58 59" fill="none" xmlns="http://www.w3.org/2000/svg">
<rect y="0.929932" width="57.934" height="57.934" rx="5.74571" fill="white"/>
<path d="M7.18359 25.5082L9.0676 23.353L14.8587 28.3238L7.18359 25.5082Z" fill="#FFCB00"/>
<path d="M12.7979 24.9973L13.7711 24.0657L15.2589 27.639L12.7979 24.9973Z" fill="#1F1F38"/>
<path d="M31.342 40.7336L29.6318 42.6106L22.9404 39.3362L31.342 40.7336Z" fill="#FFCB00"/>
<path d="M25.5125 41.7173L24.6088 42.5516L22.5996 39.9167L25.5125 41.7173Z" fill="#1F1F38"/>
<path d="M50.6338 20.423C50.6498 19.9798 50.5695 19.5383 50.3985 19.1291C50.2275 18.7198 49.9698 18.3525 49.6432 18.0524C49.3176 17.756 48.931 17.5346 48.5106 17.4036C48.0902 17.2727 47.6463 17.2355 47.2099 17.2946L18.5152 21.2851C18.1083 21.3386 17.7169 21.4758 17.3657 21.6882C17.0145 21.9006 16.7111 22.1835 16.4748 22.5191C16.2369 22.8529 16.0679 23.2308 15.9778 23.6307C15.8877 24.0306 15.8782 24.4444 15.9499 24.848L18.0112 35.7976C18.1471 36.5238 18.5435 37.1753 19.126 37.6298C19.7085 38.0843 20.4369 38.3104 21.1744 38.2656L47.2447 36.7187C47.9951 36.6745 48.7024 36.353 49.2291 35.8167C49.7558 35.2803 50.0645 34.5674 50.0951 33.8162L50.6338 20.423Z" fill="#1F1F38"/>
<path d="M29.9516 35.7454C29.603 35.7873 29.2495 35.7507 28.9169 35.6382C28.5842 35.5257 28.281 35.3402 28.0294 35.0954C27.473 34.5403 27.1476 33.7951 27.1187 33.0097C27.0022 32.2003 27.1812 31.376 27.6227 30.6877C27.8277 30.3852 28.0995 30.1337 28.4172 29.9529C28.7348 29.7721 29.0897 29.6667 29.4546 29.6449C29.799 29.6017 30.1488 29.6378 30.4771 29.7504C30.8054 29.8631 31.1037 30.0494 31.349 30.2949C31.8889 30.8605 32.2093 31.6 32.2528 32.3806C32.3674 33.1844 32.1885 34.0026 31.7488 34.6852C31.5533 34.9904 31.2888 35.2454 30.9766 35.4296C30.6645 35.6138 30.3133 35.7219 29.9516 35.7454ZM29.5345 30.799C29.3383 30.8136 29.1491 30.8781 28.9848 30.9863C28.8206 31.0946 28.6867 31.2431 28.596 31.4177C28.3747 31.8554 28.2922 32.3502 28.3596 32.8359C28.377 33.326 28.5513 33.7975 28.8567 34.1812C28.9771 34.3287 29.1322 34.444 29.3081 34.5168C29.4841 34.5896 29.6753 34.6176 29.8647 34.5983C30.0542 34.5867 30.2377 34.5274 30.3982 34.4259C30.5586 34.3244 30.6908 34.1841 30.7824 34.0178C31.0052 33.5906 31.0855 33.1035 31.0118 32.6274C30.9922 32.1251 30.8214 31.6405 30.5217 31.237C30.4109 31.0854 30.2626 30.9654 30.0914 30.8886C29.9201 30.8118 29.7318 30.7809 29.545 30.799H29.5345Z" fill="white"/>
<path d="M35.7046 30.2531L33.8519 30.4269L33.9944 31.8695L35.6977 31.7061L35.8019 32.7802L34.0952 32.947L34.3142 35.2343L33.1324 35.3455L32.5762 29.4606L35.6177 29.1755L35.7046 30.2531Z" fill="white"/>
<path d="M39.3091 29.9125L37.4598 30.0863L37.5989 31.5288L39.3022 31.3655L39.4064 32.443L37.7032 32.6099L37.9187 34.8936L36.7403 35.0084L36.1807 29.1234L39.2222 28.8384L39.3091 29.9125Z" fill="white"/>
<path d="M43.4804 34.3655L40.3276 34.6575L39.7715 28.776L42.8026 28.491L42.9104 29.5651L41.0576 29.7389L41.1793 31.0459L42.9173 30.8964L43.0216 31.974L41.301 32.1408L41.4296 33.486L43.404 33.3018L43.4804 34.3655Z" fill="white"/>
<path d="M48.4339 33.8963L47.0713 34.0249L46.1154 32.5823C46.0542 32.4804 45.9845 32.3839 45.9069 32.2938C45.8494 32.2166 45.7854 32.1445 45.7157 32.0783C45.66 32.0246 45.5953 31.981 45.5245 31.9497C45.4579 31.9247 45.387 31.9129 45.3159 31.9149L44.9961 31.9393L45.2117 34.1883L44.0298 34.303L43.4736 28.418L45.3507 28.2442C46.6264 28.1261 47.3146 28.5918 47.4363 29.6625C47.4553 29.8543 47.4436 30.0479 47.4016 30.236C47.3631 30.4092 47.2986 30.5757 47.2104 30.7296C47.1177 30.8814 47.0002 31.0165 46.8628 31.1293C46.7219 31.2453 46.5665 31.3423 46.4005 31.4179C46.487 31.4416 46.5692 31.4792 46.6438 31.5291C46.7246 31.5888 46.8023 31.6526 46.8767 31.7203C46.9568 31.796 47.03 31.8786 47.0957 31.9671C47.1652 32.0505 47.2347 32.1409 47.2973 32.2243L48.4339 33.8963ZM44.7528 29.3149L44.9092 30.9486L45.4202 30.8965C45.5343 30.89 45.6459 30.8598 45.7476 30.8077C45.8494 30.7556 45.9391 30.6828 46.0111 30.594C46.1524 30.41 46.2149 30.1775 46.1849 29.9475C46.1328 29.4365 45.8373 29.2036 45.2916 29.2523L44.7528 29.3149Z" fill="white"/>
<path d="M29.9516 35.7454C29.603 35.7873 29.2495 35.7507 28.9169 35.6382C28.5842 35.5257 28.281 35.3402 28.0294 35.0954C27.473 34.5403 27.1476 33.7951 27.1187 33.0097C27.0022 32.2003 27.1812 31.376 27.6227 30.6877C27.8277 30.3852 28.0995 30.1337 28.4172 29.9529C28.7348 29.7721 29.0897 29.6667 29.4546 29.6449C29.799 29.6017 30.1488 29.6378 30.4771 29.7504C30.8054 29.8631 31.1037 30.0494 31.349 30.2949C31.8889 30.8605 32.2093 31.6 32.2528 32.3806C32.3674 33.1844 32.1885 34.0026 31.7488 34.6852C31.5533 34.9904 31.2888 35.2454 30.9766 35.4296C30.6645 35.6138 30.3133 35.7219 29.9516 35.7454ZM29.5345 30.799C29.3383 30.8136 29.1491 30.8781 28.9848 30.9863C28.8206 31.0946 28.6867 31.2431 28.596 31.4177C28.3747 31.8554 28.2922 32.3502 28.3596 32.8359C28.377 33.326 28.5513 33.7975 28.8567 34.1812C28.9771 34.3287 29.1322 34.444 29.3081 34.5168C29.4841 34.5896 29.6753 34.6176 29.8647 34.5983C30.0542 34.5867 30.2377 34.5274 30.3982 34.4259C30.5586 34.3244 30.6908 34.1841 30.7824 34.0178C31.0052 33.5906 31.0855 33.1035 31.0118 32.6274C30.9922 32.1251 30.8214 31.6405 30.5217 31.237C30.4109 31.0854 30.2626 30.9654 30.0914 30.8886C29.9201 30.8118 29.7318 30.7809 29.545 30.799H29.5345Z" fill="#FFCB00"/>
<path d="M35.7046 30.2531L33.8519 30.4269L33.9944 31.8695L35.6977 31.7061L35.8019 32.7802L34.0952 32.947L34.3142 35.2343L33.1324 35.3455L32.5762 29.4606L35.6177 29.1755L35.7046 30.2531Z" fill="#FFCB00"/>
<path d="M39.3091 29.9125L37.4598 30.0863L37.5989 31.5288L39.3022 31.3655L39.4064 32.443L37.7032 32.6099L37.9187 34.8936L36.7403 35.0084L36.1807 29.1234L39.2222 28.8384L39.3091 29.9125Z" fill="#FFCB00"/>
<path d="M43.4804 34.3655L40.3276 34.6575L39.7715 28.776L42.8026 28.491L42.9104 29.5651L41.0576 29.7389L41.1793 31.0459L42.9173 30.8964L43.0216 31.974L41.301 32.1408L41.4296 33.486L43.404 33.3018L43.4804 34.3655Z" fill="#FFCB00"/>
<path d="M48.4339 33.8963L47.0713 34.0249L46.1154 32.5823C46.0542 32.4804 45.9845 32.3839 45.9069 32.2938C45.8494 32.2166 45.7854 32.1445 45.7157 32.0783C45.66 32.0246 45.5953 31.981 45.5245 31.9497C45.4579 31.9247 45.387 31.9129 45.3159 31.9149L44.9961 31.9393L45.2117 34.1883L44.0298 34.303L43.4736 28.418L45.3507 28.2442C46.6264 28.1261 47.3146 28.5918 47.4363 29.6625C47.4553 29.8543 47.4436 30.0479 47.4016 30.236C47.3631 30.4092 47.2986 30.5757 47.2104 30.7296C47.1177 30.8814 47.0002 31.0165 46.8628 31.1293C46.7219 31.2453 46.5665 31.3423 46.4005 31.4179C46.487 31.4416 46.5692 31.4792 46.6438 31.5291C46.7246 31.5888 46.8023 31.6526 46.8767 31.7203C46.9568 31.796 47.03 31.8786 47.0957 31.9671C47.1652 32.0505 47.2347 32.1409 47.2973 32.2243L48.4339 33.8963ZM44.7528 29.3149L44.9092 30.9486L45.4202 30.8965C45.5343 30.89 45.6459 30.8598 45.7476 30.8077C45.8494 30.7556 45.9391 30.6828 46.0111 30.594C46.1524 30.41 46.2149 30.1775 46.1849 29.9475C46.1328 29.4365 45.8373 29.2036 45.2916 29.2523L44.7528 29.3149Z" fill="#FFCB00"/>
<path d="M29.9516 35.7454C29.603 35.7873 29.2495 35.7507 28.9169 35.6382C28.5842 35.5257 28.281 35.3402 28.0294 35.0954C27.473 34.5403 27.1476 33.7951 27.1187 33.0097C27.0022 32.2003 27.1812 31.376 27.6227 30.6877C27.8277 30.3852 28.0995 30.1337 28.4172 29.9529C28.7348 29.7721 29.0897 29.6667 29.4546 29.6449C29.799 29.6017 30.1488 29.6378 30.4771 29.7504C30.8054 29.8631 31.1037 30.0494 31.349 30.2949C31.8889 30.8605 32.2093 31.6 32.2528 32.3806C32.3674 33.1844 32.1885 34.0026 31.7488 34.6852C31.5533 34.9904 31.2888 35.2454 30.9766 35.4296C30.6645 35.6138 30.3133 35.7219 29.9516 35.7454ZM29.5345 30.799C29.3383 30.8136 29.1491 30.8781 28.9848 30.9863C28.8206 31.0946 28.6867 31.2431 28.596 31.4177C28.3747 31.8554 28.2922 32.3502 28.3596 32.8359C28.377 33.326 28.5513 33.7975 28.8567 34.1812C28.9771 34.3287 29.1322 34.444 29.3081 34.5168C29.4841 34.5896 29.6753 34.6176 29.8647 34.5983C30.0542 34.5867 30.2377 34.5274 30.3982 34.4259C30.5586 34.3244 30.6908 34.1841 30.7824 34.0178C31.0052 33.5906 31.0855 33.1035 31.0118 32.6274C30.9922 32.1251 30.8214 31.6405 30.5217 31.237C30.4109 31.0854 30.2626 30.9654 30.0914 30.8886C29.9201 30.8118 29.7318 30.7809 29.545 30.799H29.5345Z" fill="#FFCB00"/>
<path d="M35.7046 30.2531L33.8519 30.4269L33.9944 31.8695L35.6977 31.7061L35.8019 32.7802L34.0952 32.947L34.3142 35.2343L33.1324 35.3455L32.5762 29.4606L35.6177 29.1755L35.7046 30.2531Z" fill="#FFCB00"/>
<path d="M39.3091 29.9125L37.4598 30.0863L37.5989 31.5288L39.3022 31.3655L39.4064 32.443L37.7032 32.6099L37.9187 34.8936L36.7403 35.0084L36.1807 29.1234L39.2222 28.8384L39.3091 29.9125Z" fill="#FFCB00"/>
<path d="M43.4804 34.3655L40.3276 34.6575L39.7715 28.776L42.8026 28.491L42.9104 29.5651L41.0576 29.7389L41.1793 31.0459L42.9173 30.8964L43.0216 31.974L41.301 32.1408L41.4296 33.486L43.404 33.3018L43.4804 34.3655Z" fill="#FFCB00"/>
<path d="M48.4339 33.8963L47.0713 34.0249L46.1154 32.5823C46.0542 32.4804 45.9845 32.3839 45.9069 32.2938C45.8494 32.2166 45.7854 32.1445 45.7157 32.0783C45.66 32.0246 45.5953 31.981 45.5245 31.9497C45.4579 31.9247 45.387 31.9129 45.3159 31.9149L44.9961 31.9393L45.2117 34.1883L44.0298 34.303L43.4736 28.418L45.3507 28.2442C46.6264 28.1261 47.3146 28.5918 47.4363 29.6625C47.4553 29.8543 47.4436 30.0479 47.4016 30.236C47.3631 30.4092 47.2986 30.5757 47.2104 30.7296C47.1177 30.8814 47.0002 31.0165 46.8628 31.1293C46.7219 31.2453 46.5665 31.3423 46.4005 31.4179C46.487 31.4416 46.5692 31.4792 46.6438 31.5291C46.7246 31.5888 46.8023 31.6526 46.8767 31.7203C46.9568 31.796 47.03 31.8786 47.0957 31.9671C47.1652 32.0505 47.2347 32.1409 47.2973 32.2243L48.4339 33.8963ZM44.7528 29.3149L44.9092 30.9486L45.4202 30.8965C45.5343 30.89 45.6459 30.8598 45.7476 30.8077C45.8494 30.7556 45.9391 30.6828 46.0111 30.594C46.1524 30.41 46.2149 30.1775 46.1849 29.9475C46.1328 29.4365 45.8373 29.2036 45.2916 29.2523L44.7528 29.3149Z" fill="#FFCB00"/>
<path d="M29.9516 35.7454C29.603 35.7873 29.2495 35.7507 28.9169 35.6382C28.5842 35.5257 28.281 35.3402 28.0294 35.0954C27.473 34.5403 27.1476 33.7951 27.1187 33.0097C27.0022 32.2003 27.1812 31.376 27.6227 30.6877C27.8277 30.3852 28.0995 30.1337 28.4172 29.9529C28.7348 29.7721 29.0897 29.6667 29.4546 29.6449C29.799 29.6017 30.1488 29.6378 30.4771 29.7504C30.8054 29.8631 31.1037 30.0494 31.349 30.2949C31.8889 30.8605 32.2093 31.6 32.2528 32.3806C32.3674 33.1844 32.1885 34.0026 31.7488 34.6852C31.5533 34.9904 31.2888 35.2454 30.9766 35.4296C30.6645 35.6138 30.3133 35.7219 29.9516 35.7454ZM29.5345 30.799C29.3383 30.8136 29.1491 30.8781 28.9848 30.9863C28.8206 31.0946 28.6867 31.2431 28.596 31.4177C28.3747 31.8554 28.2922 32.3502 28.3596 32.8359C28.377 33.326 28.5513 33.7975 28.8567 34.1812C28.9771 34.3287 29.1322 34.444 29.3081 34.5168C29.4841 34.5896 29.6753 34.6176 29.8647 34.5983C30.0542 34.5867 30.2377 34.5274 30.3982 34.4259C30.5586 34.3244 30.6908 34.1841 30.7824 34.0178C31.0052 33.5906 31.0855 33.1035 31.0118 32.6274C30.9922 32.1251 30.8214 31.6405 30.5217 31.237C30.4109 31.0854 30.2626 30.9654 30.0914 30.8886C29.9201 30.8118 29.7318 30.7809 29.545 30.799H29.5345Z" fill="#FFCB00"/>
<path d="M35.7046 30.2531L33.8519 30.4269L33.9944 31.8695L35.6977 31.7061L35.8019 32.7802L34.0952 32.947L34.3142 35.2343L33.1324 35.3455L32.5762 29.4606L35.6177 29.1755L35.7046 30.2531Z" fill="#FFCB00"/>
<path d="M39.3091 29.9125L37.4598 30.0863L37.5989 31.5288L39.3022 31.3655L39.4064 32.443L37.7032 32.6099L37.9187 34.8936L36.7403 35.0084L36.1807 29.1234L39.2222 28.8384L39.3091 29.9125Z" fill="#FFCB00"/>
<path d="M43.4804 34.3655L40.3276 34.6575L39.7715 28.776L42.8026 28.491L42.9104 29.5651L41.0576 29.7389L41.1793 31.0459L42.9173 30.8964L43.0216 31.974L41.301 32.1408L41.4296 33.486L43.404 33.3018L43.4804 34.3655Z" fill="#FFCB00"/>
<path d="M48.4339 33.8963L47.0713 34.0249L46.1154 32.5823C46.0542 32.4804 45.9845 32.3839 45.9069 32.2938C45.8494 32.2166 45.7854 32.1445 45.7157 32.0783C45.66 32.0246 45.5953 31.981 45.5245 31.9497C45.4579 31.9247 45.387 31.9129 45.3159 31.9149L44.9961 31.9393L45.2117 34.1883L44.0298 34.303L43.4736 28.418L45.3507 28.2442C46.6264 28.1261 47.3146 28.5918 47.4363 29.6625C47.4553 29.8543 47.4436 30.0479 47.4016 30.236C47.3631 30.4092 47.2986 30.5757 47.2104 30.7296C47.1177 30.8814 47.0002 31.0165 46.8628 31.1293C46.7219 31.2453 46.5665 31.3423 46.4005 31.4179C46.487 31.4416 46.5692 31.4792 46.6438 31.5291C46.7246 31.5888 46.8023 31.6526 46.8767 31.7203C46.9568 31.796 47.03 31.8786 47.0957 31.9671C47.1652 32.0505 47.2347 32.1409 47.2973 32.2243L48.4339 33.8963ZM44.7528 29.3149L44.9092 30.9486L45.4202 30.8965C45.5343 30.89 45.6459 30.8598 45.7476 30.8077C45.8494 30.7556 45.9391 30.6828 46.0111 30.594C46.1524 30.41 46.2149 30.1775 46.1849 29.9475C46.1328 29.4365 45.8373 29.2036 45.2916 29.2523L44.7528 29.3149Z" fill="#FFCB00"/>
<path d="M27.6647 26.5617L27.6056 25.9255C27.6782 25.988 27.7604 26.0385 27.8489 26.075C27.9416 26.1159 28.0368 26.1507 28.134 26.1793C28.2323 26.2034 28.3322 26.2208 28.4329 26.2314C28.5243 26.2384 28.6161 26.2384 28.7075 26.2314C28.9386 26.2252 29.1601 26.1379 29.3332 25.9846C29.3994 25.9115 29.4487 25.8247 29.4776 25.7304C29.5064 25.6361 29.5141 25.5365 29.5001 25.4389C29.4926 25.3242 29.4567 25.2131 29.3958 25.1156C29.3363 25.0275 29.2636 24.9489 29.1803 24.8827C29.082 24.8096 28.9773 24.7456 28.8674 24.6916C28.7458 24.6325 28.6137 24.5699 28.4746 24.5108C28.3356 24.4517 28.1861 24.3718 28.0679 24.2988C27.9428 24.2331 27.8261 24.1526 27.7203 24.0589C27.6239 23.9636 27.5419 23.8547 27.477 23.7356C27.409 23.5975 27.3678 23.4477 27.3554 23.2942C27.332 23.1048 27.3559 22.9125 27.4249 22.7345C27.4828 22.5762 27.5782 22.4343 27.703 22.3209C27.8255 22.2074 27.9666 22.1157 28.1201 22.0498C28.2784 21.9873 28.4444 21.9464 28.6137 21.9281C28.906 21.8807 29.2056 21.9107 29.4827 22.015L29.5453 22.6233C29.2677 22.4497 28.9378 22.3795 28.6137 22.4252C28.5107 22.4359 28.4093 22.458 28.3113 22.4912C28.2181 22.5292 28.1304 22.5795 28.0506 22.6407C27.9748 22.7032 27.9151 22.7831 27.8768 22.8736C27.8312 22.9834 27.8156 23.1034 27.8316 23.2212C27.8396 23.3258 27.8692 23.4275 27.9185 23.5201C27.9698 23.6032 28.0357 23.6762 28.1131 23.7356C28.2024 23.8045 28.2978 23.865 28.3982 23.9164C28.5129 23.9685 28.6415 24.0415 28.7875 24.1006C28.9335 24.1597 29.0864 24.2397 29.215 24.3161C29.3482 24.3899 29.4709 24.4811 29.58 24.5873C29.6824 24.6907 29.7701 24.8077 29.8407 24.9349C29.914 25.0766 29.9589 25.2313 29.9728 25.3902C29.995 25.5883 29.9737 25.7888 29.9102 25.9777C29.852 26.1343 29.7607 26.2766 29.6426 26.3948C29.5216 26.5114 29.3753 26.5982 29.215 26.6486C29.0448 26.7096 28.867 26.747 28.6867 26.7598C28.608 26.7658 28.529 26.7658 28.4503 26.7598C28.3548 26.7588 28.2595 26.7506 28.1653 26.7355C28.0679 26.7146 27.9741 26.6972 27.8872 26.6729C27.8102 26.6419 27.7357 26.6047 27.6647 26.5617Z" fill="white"/>
<path d="M31.186 24.657L31.3529 26.3951L30.8906 26.4368L30.4561 21.831L31.5441 21.7302C31.7225 21.7003 31.9054 21.7087 32.0804 21.7548C32.2554 21.801 32.4185 21.8838 32.5591 21.9979C32.6959 22.1247 32.8058 22.2778 32.8822 22.448C32.9587 22.6182 33.0001 22.802 33.004 22.9885C33.0582 23.3818 32.9544 23.7804 32.7155 24.0974C32.5951 24.2514 32.4425 24.3773 32.2684 24.4661C32.0942 24.555 31.9028 24.6047 31.7074 24.6119L31.186 24.657ZM30.9601 22.2933L31.1443 24.1808L31.6275 24.1356C31.8987 24.1263 32.1556 24.0116 32.3435 23.8158C32.4244 23.7103 32.4823 23.5889 32.5134 23.4596C32.5446 23.3303 32.5483 23.1959 32.5243 23.065C32.5286 22.9381 32.5034 22.8119 32.4507 22.6964C32.3979 22.5809 32.3191 22.4792 32.2203 22.3993C32.1216 22.3195 32.0057 22.2636 31.8817 22.2362C31.7577 22.2087 31.629 22.2105 31.5058 22.2412L30.9601 22.2933Z" fill="white"/>
<path d="M36.1566 25.9362L34.0536 26.1343L33.6191 21.5286L35.6352 21.3374L35.677 21.824L34.1336 21.9735L34.2796 23.503L35.7152 23.3639L35.7569 23.8471L34.3213 23.9896L34.4708 25.5956L36.101 25.4391L36.1566 25.9362Z" fill="white"/>
<path d="M39.6088 25.4219C39.2925 25.6411 38.9223 25.7697 38.5382 25.7939C38.2793 25.8274 38.0162 25.7992 37.7703 25.7116C37.5244 25.624 37.3028 25.4795 37.1234 25.2898C36.722 24.8475 36.4851 24.2804 36.4526 23.6839C36.3618 23.0418 36.5035 22.3884 36.8523 21.8416C37.006 21.6083 37.2114 21.4136 37.4525 21.2725C37.6936 21.1314 37.964 21.0478 38.2427 21.0282C38.5649 20.9881 38.8919 21.0226 39.1986 21.129L39.2508 21.7026C38.9531 21.5494 38.6173 21.4866 38.2844 21.5218C38.0706 21.5389 37.8637 21.6052 37.6797 21.7155C37.4958 21.8259 37.3399 21.9773 37.2242 22.1579C36.9612 22.5949 36.8603 23.1105 36.9392 23.6144C36.9571 24.0961 37.1414 24.5567 37.4606 24.9179C37.5964 25.0661 37.7657 25.1797 37.9544 25.2493C38.143 25.3188 38.3456 25.3422 38.5451 25.3176C38.9172 25.2941 39.2718 25.1515 39.5567 24.9109L39.6088 25.4219Z" fill="white"/>
<path d="M40.8421 20.8508L40.8838 21.3097L40.4945 21.3444L40.8421 25.0221L41.2314 24.9873L41.2731 25.4496L40.0322 25.5678L39.9905 25.109L40.3798 25.0742L40.0322 21.3966L39.6428 21.4313L39.5977 20.9725L40.8421 20.8508Z" fill="white"/>
<path d="M45.0028 25.1017L44.4918 25.1539L43.953 23.899L42.2637 24.0554L41.996 25.3868L41.4746 25.4389L42.5626 20.6941L43.0388 20.6489L45.0028 25.1017ZM43.7514 23.4228L42.945 21.5179C42.9035 21.4212 42.8743 21.3196 42.8581 21.2155C42.8529 21.3204 42.8413 21.4249 42.8233 21.5284L42.3888 23.5445L43.7514 23.4228Z" fill="white"/>
<path d="M47.645 24.8481L45.5941 25.0393L45.1631 20.4336L45.6219 20.3918L46.0112 24.511L47.6033 24.3615L47.645 24.8481Z" fill="white"/>
<path d="M21.9559 27.9766C21.9559 28.001 21.9073 27.9766 21.9246 27.9419C23.1646 25.8349 24.5588 23.8226 26.0959 21.9214L26.7285 22.4254C25.2712 24.3866 23.6763 26.2417 21.9559 27.9766Z" fill="white"/>
<path d="M28.9848 28.6897L28.8492 28.064C28.168 28.1145 27.4942 28.2392 26.8401 28.4359C25.7756 28.6546 24.7251 28.9366 23.6942 29.2806C23.6769 29.2806 23.6942 29.3153 23.6942 29.3153C24.7857 29.2886 25.8745 29.1957 26.9548 29.0373C27.6427 29.0009 28.324 28.8843 28.9848 28.6897Z" fill="white"/>
<path d="M22.3665 21.1569L21.7548 21.0422C21.5455 21.6649 21.4034 22.3081 21.3307 22.961C21.1231 23.9945 20.9745 25.039 20.8857 26.0894C20.8874 26.0932 20.89 26.0963 20.8934 26.0986C20.8968 26.1008 20.9008 26.102 20.9049 26.102C20.9089 26.102 20.9129 26.1008 20.9163 26.0986C20.9197 26.0963 20.9224 26.0932 20.924 26.0894C21.3069 25.1064 21.6342 24.1025 21.9042 23.0827C22.1402 22.4632 22.2956 21.816 22.3665 21.1569Z" fill="white"/>
<path d="M25.085 33.1556C25.2678 32.9887 25.3776 32.7566 25.3906 32.5094C25.4036 32.2622 25.3188 32.0199 25.1545 31.8347L18.6439 24.6393C18.484 24.4697 18.2666 24.366 18.0342 24.3484C17.8017 24.3308 17.5711 24.4006 17.3875 24.5442C17.204 24.6877 17.0806 24.8947 17.0416 25.1245C17.0027 25.3543 17.051 25.5903 17.177 25.7864L14.5873 31.0596L12.387 33.0444C12.2413 33.1751 12.1262 33.3363 12.0499 33.5165C11.9736 33.6967 11.938 33.8916 11.9456 34.0872L11.9803 34.7372L11.6327 35.05C11.394 35.2709 11.2512 35.5765 11.235 35.9013C11.2187 36.2262 11.3303 36.5445 11.5458 36.7881L12.2932 37.6223C12.5151 37.8654 12.8242 38.0109 13.153 38.0272C13.4818 38.0435 13.8037 37.9292 14.0486 37.7092L14.3962 37.3964L15.0392 37.4937C15.2166 37.5195 15.3973 37.5101 15.5711 37.4659L19.0019 41.2617C19.074 41.3428 19.1614 41.4088 19.2591 41.4558C19.3568 41.5029 19.4628 41.5301 19.5711 41.536C19.6794 41.5418 19.7878 41.5261 19.8899 41.4897C19.9921 41.4534 20.0861 41.3972 20.1664 41.3243L20.6287 40.9072C20.7116 40.8316 20.7782 40.7399 20.8246 40.6377C20.8709 40.5355 20.896 40.425 20.8983 40.3128C20.9005 40.2006 20.88 40.0891 20.8378 39.9852C20.7957 39.8812 20.7328 39.7869 20.653 39.7079C20.0101 39.0675 19.4863 38.3177 19.1062 37.4937L19.5929 37.0592C19.7394 36.9269 19.8275 36.7418 19.8376 36.5446C19.8477 36.3474 19.779 36.1543 19.6467 36.0077C19.5144 35.8611 19.3293 35.7731 19.1321 35.763C18.9349 35.7529 18.7418 35.8215 18.5952 35.9538C18.5311 35.6808 18.4812 35.4047 18.4458 35.1265L23.7641 33.0409C23.9242 33.231 24.1532 33.3499 24.4008 33.3714C24.6485 33.3929 24.8945 33.3153 25.085 33.1556Z" fill="#1F1F38"/>
<path d="M15.0917 37.1603L14.3617 37.0491C14.3339 37.0453 14.3057 37.0474 14.2787 37.0552C14.2518 37.063 14.2268 37.0763 14.2053 37.0943L13.7882 37.4662C13.6176 37.621 13.3925 37.7017 13.1624 37.6907C12.9323 37.6796 12.716 37.5776 12.5611 37.4071L11.8172 36.5729C11.6625 36.4023 11.5817 36.1772 11.5928 35.9471C11.6039 35.7171 11.7059 35.5008 11.8763 35.3458L12.2935 34.9739C12.3137 34.9547 12.3296 34.9315 12.3404 34.9057C12.3512 34.88 12.3565 34.8523 12.356 34.8244L12.3213 34.084C12.313 33.9416 12.3364 33.7991 12.3899 33.6669C12.4434 33.5346 12.5256 33.4159 12.6306 33.3193L14.7163 31.4353L17.9698 35.033L15.8842 36.917C15.818 36.9762 15.7444 37.0264 15.6652 37.0665L13.3119 34.4595C13.2797 34.4226 13.2341 34.4 13.1852 34.3968C13.1363 34.3935 13.0881 34.4098 13.0512 34.4421C13.0144 34.4743 12.9918 34.5199 12.9885 34.5688C12.9853 34.6177 13.0016 34.6659 13.0339 34.7028L15.2481 37.1603C15.1969 37.1742 15.1429 37.1742 15.0917 37.1603Z" fill="white"/>
<path d="M16.1345 37.2054L18.0915 35.4326C18.2483 36.574 18.6516 37.6676 19.2733 38.6375L18.0637 39.7255L15.9189 37.3514C15.9972 37.313 16.0698 37.2639 16.1345 37.2054Z" fill="#FFCB00"/>
<path d="M18.8287 40.5597L18.3281 40.0035L19.4926 38.9607C19.6322 39.1676 19.7855 39.3651 19.9514 39.5516L18.8287 40.5597Z" fill="white"/>
<path d="M14.9521 31.1465L17.4306 26.0889L23.4858 32.7907L18.2892 34.8346L14.9521 31.1465Z" fill="#FFCB00"/>
<path d="M13.6732 36.406L12.978 37.0317C12.96 37.0483 12.9456 37.0684 12.9358 37.0908C12.926 37.1133 12.9209 37.1375 12.9209 37.162C12.9209 37.1865 12.926 37.2107 12.9358 37.2332C12.9456 37.2556 12.96 37.2758 12.978 37.2924C12.9949 37.3099 13.0151 37.3239 13.0375 37.3334C13.0599 37.343 13.084 37.3479 13.1084 37.3479C13.1327 37.3479 13.1568 37.343 13.1792 37.3334C13.2016 37.3239 13.2218 37.3099 13.2387 37.2924L13.9339 36.6667C13.9671 36.6307 13.9856 36.5835 13.9856 36.5346C13.9856 36.4856 13.9671 36.4385 13.9339 36.4025C13.8985 36.3692 13.8515 36.3509 13.8029 36.3516C13.7542 36.3522 13.7078 36.3717 13.6732 36.406Z" fill="#1F1F38"/>
<path d="M13.1695 35.8497L12.4743 36.4754C12.4394 36.5105 12.4199 36.558 12.4199 36.6075C12.4199 36.6569 12.4394 36.7044 12.4743 36.7396C12.5096 36.7726 12.5562 36.7909 12.6046 36.7909C12.653 36.7909 12.6996 36.7726 12.735 36.7396L13.4302 36.1174C13.4473 36.1002 13.4609 36.0799 13.4702 36.0576C13.4795 36.0352 13.4842 36.0112 13.4842 35.987C13.4842 35.9628 13.4795 35.9388 13.4702 35.9165C13.4609 35.8941 13.4473 35.8738 13.4302 35.8567C13.3957 35.8227 13.3496 35.8031 13.3012 35.8018C13.2528 35.8005 13.2057 35.8176 13.1695 35.8497Z" fill="#1F1F38"/>
<path d="M12.6753 35.3042L11.9801 35.9299C11.9626 35.9464 11.9487 35.9664 11.9392 35.9885C11.9297 36.0106 11.9248 36.0344 11.9248 36.0585C11.9248 36.0825 11.9297 36.1064 11.9392 36.1285C11.9487 36.1506 11.9626 36.1705 11.9801 36.1871C11.9972 36.2047 12.0178 36.2188 12.0405 36.2284C12.0632 36.2379 12.0875 36.2429 12.1122 36.2429C12.1368 36.2429 12.1612 36.2379 12.1839 36.2284C12.2065 36.2188 12.2271 36.2047 12.2443 36.1871L12.9395 35.5614C12.9578 35.5455 12.9728 35.5261 12.9836 35.5043C12.9944 35.4826 13.0008 35.4589 13.0024 35.4347C13.004 35.4104 13.0008 35.3861 12.993 35.3631C12.9852 35.3401 12.9729 35.3189 12.9568 35.3007C12.9187 35.2644 12.868 35.2445 12.8153 35.2451C12.7627 35.2458 12.7125 35.267 12.6753 35.3042Z" fill="#1F1F38"/>
<path d="M17.5594 24.8482C17.6141 24.7985 17.6782 24.7602 17.7478 24.7355C17.8175 24.7109 17.8914 24.7003 17.9652 24.7045C18.039 24.7087 18.1112 24.7276 18.1776 24.76C18.244 24.7925 18.3033 24.8378 18.352 24.8934L24.8591 32.0853C24.9587 32.196 25.0102 32.3416 25.0024 32.4902C24.9946 32.6389 24.928 32.7783 24.8174 32.8779C24.7068 32.9774 24.5611 33.029 24.4125 33.0212C24.2638 33.0133 24.1244 32.9468 24.0249 32.8362L17.5142 25.6373C17.4183 25.5254 17.3695 25.3808 17.3779 25.2337C17.3863 25.0865 17.4514 24.9484 17.5594 24.8482Z" fill="white"/>
<path d="M20.3678 40.6744L19.9055 41.0916C19.8619 41.1314 19.8107 41.1621 19.755 41.1819C19.6993 41.2016 19.6401 41.2099 19.5811 41.2063C19.5221 41.2027 19.4644 41.1874 19.4115 41.1611C19.3585 41.1348 19.3114 41.0982 19.2729 41.0533L19.0713 40.8378L20.1906 39.8193C20.2508 39.8865 20.3146 39.9503 20.3817 40.0105C20.4249 40.0548 20.4588 40.1072 20.4815 40.1647C20.5042 40.2222 20.5152 40.2836 20.5139 40.3454C20.5126 40.4072 20.499 40.4681 20.4739 40.5246C20.4489 40.5811 20.4128 40.632 20.3678 40.6744Z" fill="#FFCB00"/>
<path d="M18.8282 36.2772C18.8643 36.2439 18.9068 36.218 18.953 36.2012C18.9992 36.1844 19.0483 36.1768 19.0974 36.1791C19.1466 36.1814 19.1948 36.1934 19.2393 36.2144C19.2837 36.2354 19.3236 36.265 19.3565 36.3016C19.3898 36.3382 19.4154 36.3811 19.432 36.4278C19.4486 36.4744 19.4559 36.5238 19.4533 36.5733C19.4507 36.6227 19.4383 36.6711 19.417 36.7158C19.3956 36.7604 19.3656 36.8004 19.3287 36.8334L18.9394 37.181C18.8344 36.9291 18.7473 36.67 18.6787 36.4058L18.8282 36.2772Z" fill="white"/>
<path d="M18.0638 27.9068C18.0467 27.9239 18.0331 27.9442 18.0238 27.9666C18.0145 27.989 18.0098 28.0129 18.0098 28.0371C18.0098 28.0614 18.0145 28.0853 18.0238 28.1077C18.0331 28.1301 18.0467 28.1504 18.0638 28.1675L21.5642 32.0433C21.5813 32.0604 21.6016 32.074 21.624 32.0833C21.6464 32.0926 21.6703 32.0973 21.6945 32.0973C21.7187 32.0973 21.7427 32.0926 21.7651 32.0833C21.7875 32.074 21.8078 32.0604 21.8249 32.0433C21.8424 32.0264 21.8564 32.0062 21.866 31.9838C21.8755 31.9614 21.8804 31.9373 21.8804 31.9129C21.8804 31.8886 21.8755 31.8645 21.866 31.8421C21.8564 31.8197 21.8424 31.7994 21.8249 31.7826L18.3245 27.9242C18.3088 27.9054 18.2895 27.8901 18.2678 27.879C18.246 27.8679 18.2222 27.8614 18.1979 27.8598C18.1735 27.8582 18.1491 27.8615 18.126 27.8696C18.103 27.8776 18.0818 27.8903 18.0638 27.9068Z" fill="#1F1F38"/>
<path d="M18.3768 29.6448C18.3593 29.6616 18.3453 29.6819 18.3358 29.7043C18.3262 29.7267 18.3213 29.7508 18.3213 29.7751C18.3213 29.7995 18.3262 29.8236 18.3358 29.846C18.3453 29.8684 18.3593 29.8886 18.3768 29.9055L19.882 31.5636C19.9146 31.5995 19.9598 31.6217 20.0082 31.6255C20.0566 31.6294 20.1047 31.6147 20.1427 31.5844C20.1749 31.5487 20.1927 31.5022 20.1927 31.4541C20.1927 31.4059 20.1749 31.3595 20.1427 31.3237L18.6375 29.6622C18.6044 29.6267 18.559 29.6052 18.5106 29.602C18.4622 29.5988 18.4144 29.6141 18.3768 29.6448Z" fill="#1F1F38"/>
<path d="M18.0566 30.6877C18.0228 30.7227 18.0039 30.7694 18.0039 30.818C18.0039 30.8667 18.0228 30.9134 18.0566 30.9484L18.8039 31.7826C18.8393 31.8156 18.8859 31.834 18.9343 31.834C18.9826 31.834 19.0292 31.8156 19.0646 31.7826C19.0817 31.7655 19.0953 31.7452 19.1046 31.7228C19.1139 31.7005 19.1186 31.6765 19.1186 31.6523C19.1186 31.6281 19.1139 31.6041 19.1046 31.5817C19.0953 31.5594 19.0817 31.5391 19.0646 31.5219L18.3173 30.6877C18.302 30.6675 18.2823 30.6512 18.2597 30.6399C18.2371 30.6287 18.2122 30.6228 18.1869 30.6228C18.1617 30.6228 18.1367 30.6287 18.1141 30.6399C18.0915 30.6512 18.0718 30.6675 18.0566 30.6877Z" fill="#1F1F38"/>
</svg>
