<svg width="44" height="14" viewBox="0 0 44 14" fill="none" xmlns="http://www.w3.org/2000/svg">
<path d="M0.101562 2.82483L0.977521 1.03467L8.5831 5.41448L0.101562 2.82483Z" fill="#371400"/>
<path d="M5.22168 2.52937L5.74309 1.76465L8.66991 4.83051L5.22168 2.52937Z" fill="#FEBE10"/>
<path d="M43.5521 10.2567L42.8396 12.6691L34.9072 7.88257L43.5521 10.2567Z" fill="#371400"/>
<path d="M38.5044 11.2303L38.0491 12.2905L34.8789 8.64062L38.5044 11.2303Z" fill="#FEBE10"/>
<path d="M37.8756 6.90936H12.5631L6.71289 0.17627H32.0393L37.8756 6.90936Z" fill="#371400"/>
<path d="M37.2434 13.646H14.4927L8.64258 6.90942H31.4037L37.2434 13.646Z" fill="#FEBE10"/>
<path d="M18.0028 12.1759C17.7805 12.1821 17.5596 12.1385 17.3563 12.0483C17.153 11.9581 16.9725 11.8235 16.8279 11.6545C16.5142 11.2705 16.3544 10.7836 16.3795 10.2884C16.3571 9.77164 16.5198 9.26382 16.8384 8.85629C16.9858 8.67818 17.1722 8.53634 17.3831 8.44171C17.5941 8.34708 17.8239 8.30221 18.055 8.31055C18.2745 8.30429 18.4925 8.3476 18.6929 8.43728C18.8933 8.52695 19.0709 8.66067 19.2125 8.82848C19.5033 9.238 19.6578 9.7287 19.6541 10.231C19.6503 10.7332 19.4885 11.2216 19.1917 11.6267C19.0513 11.806 18.8702 11.9493 18.6635 12.0448C18.4568 12.1402 18.2304 12.1852 18.0028 12.1759ZM18.0376 9.04747C17.9121 9.04613 17.7884 9.07747 17.6787 9.13841C17.569 9.19936 17.4771 9.28782 17.4119 9.39508C17.2594 9.65929 17.1791 9.959 17.1791 10.2641C17.1791 10.5692 17.2594 10.8689 17.4119 11.1331C17.4809 11.2313 17.5724 11.3116 17.6789 11.3669C17.7854 11.4223 17.9037 11.4512 18.0237 11.4512C18.1437 11.4512 18.262 11.4223 18.3685 11.3669C18.475 11.3116 18.5666 11.2313 18.6355 11.1331C18.8032 10.8755 18.8837 10.5709 18.8649 10.2641C18.8796 9.94811 18.8036 9.63451 18.6459 9.36031C18.5813 9.25822 18.4913 9.17472 18.3846 9.11804C18.2779 9.06135 18.1583 9.03344 18.0376 9.03704V9.04747Z" fill="white"/>
<path d="M21.9481 9.0648H20.7836V9.98594H21.8681V10.6812H20.7836V12.1237H20.0293V8.38696H21.9585V9.0648H21.9481Z" fill="white"/>
<path d="M24.2604 9.0648H23.0785V9.98594H24.163V10.6812H23.0785V12.1237H22.3242V8.38696H24.2499V9.0648H24.2604Z" fill="white"/>
<path d="M26.6061 12.1233H24.6074V8.37964H26.5366V9.07485H25.3617V9.90909H26.4567V10.6043H25.3617V11.4281H26.6131V12.1233H26.6061Z" fill="white"/>
<path d="M29.7523 12.1233H28.8833L28.3619 11.1605C28.3288 11.0938 28.2905 11.0298 28.2472 10.9693C28.2199 10.9157 28.1847 10.8665 28.1429 10.8233C28.1111 10.7853 28.0736 10.7524 28.0317 10.726C27.9915 10.7028 27.9459 10.6908 27.8996 10.6912H27.7015V12.1233H26.9541V8.37964H28.1429C28.954 8.37964 29.3595 8.71797 29.3595 9.39464C29.3619 9.51806 29.3455 9.64113 29.3109 9.75963C29.2767 9.86527 29.2262 9.96494 29.1614 10.0551C29.0941 10.1416 29.0145 10.2177 28.925 10.281C28.8294 10.3442 28.7252 10.3933 28.6157 10.427C28.6689 10.4475 28.7183 10.4769 28.7616 10.5139C28.8034 10.5591 28.8555 10.6008 28.9007 10.653C28.9451 10.7044 28.9857 10.759 29.0224 10.8163C29.0571 10.8789 29.0988 10.938 29.1266 10.9936L29.7523 12.1233ZM27.7015 8.99489V10.0377H28.0491C28.1219 10.0414 28.1947 10.0293 28.2625 10.0023C28.3303 9.97536 28.3915 9.93406 28.4419 9.88128C28.5386 9.77363 28.5908 9.63321 28.5878 9.4885C28.5878 9.15827 28.414 9.00184 28.0664 9.00184H27.7188L27.7015 8.99489Z" fill="white"/>
<path d="M18.0028 12.1759C17.7805 12.1821 17.5596 12.1385 17.3563 12.0483C17.153 11.9581 16.9725 11.8235 16.8279 11.6545C16.5142 11.2705 16.3544 10.7836 16.3795 10.2884C16.3571 9.77164 16.5198 9.26382 16.8384 8.85629C16.9858 8.67818 17.1722 8.53634 17.3831 8.44171C17.5941 8.34708 17.8239 8.30221 18.055 8.31055C18.2745 8.30429 18.4925 8.3476 18.6929 8.43728C18.8933 8.52695 19.0709 8.66067 19.2125 8.82848C19.5033 9.238 19.6578 9.7287 19.6541 10.231C19.6503 10.7332 19.4885 11.2216 19.1917 11.6267C19.0513 11.806 18.8702 11.9493 18.6635 12.0448C18.4568 12.1402 18.2304 12.1852 18.0028 12.1759ZM18.0376 9.04747C17.9121 9.04613 17.7884 9.07747 17.6787 9.13841C17.569 9.19936 17.4771 9.28782 17.4119 9.39508C17.2594 9.65929 17.1791 9.959 17.1791 10.2641C17.1791 10.5692 17.2594 10.8689 17.4119 11.1331C17.4809 11.2313 17.5724 11.3116 17.6789 11.3669C17.7854 11.4223 17.9037 11.4512 18.0237 11.4512C18.1437 11.4512 18.262 11.4223 18.3685 11.3669C18.475 11.3116 18.5666 11.2313 18.6355 11.1331C18.8032 10.8755 18.8837 10.5709 18.8649 10.2641C18.8796 9.94811 18.8036 9.63451 18.6459 9.36031C18.5813 9.25822 18.4913 9.17472 18.3846 9.11804C18.2779 9.06135 18.1583 9.03344 18.0376 9.03704V9.04747Z" fill="#371400"/>
<path d="M21.9481 9.0648H20.7836V9.98594H21.8681V10.6812H20.7836V12.1237H20.0293V8.38696H21.9585V9.0648H21.9481Z" fill="#371400"/>
<path d="M24.2604 9.0648H23.0785V9.98594H24.163V10.6812H23.0785V12.1237H22.3242V8.38696H24.2499V9.0648H24.2604Z" fill="#371400"/>
<path d="M26.6061 12.1233H24.6074V8.37964H26.5366V9.07485H25.3617V9.90909H26.4567V10.6043H25.3617V11.4281H26.6131V12.1233H26.6061Z" fill="#371400"/>
<path d="M29.7523 12.1233H28.8833L28.3619 11.1605C28.3288 11.0938 28.2905 11.0298 28.2472 10.9693C28.2199 10.9157 28.1847 10.8665 28.1429 10.8233C28.1111 10.7853 28.0736 10.7524 28.0317 10.726C27.9915 10.7028 27.9459 10.6908 27.8996 10.6912H27.7015V12.1233H26.9541V8.37964H28.1429C28.954 8.37964 29.3595 8.71797 29.3595 9.39464C29.3619 9.51806 29.3455 9.64113 29.3109 9.75963C29.2767 9.86527 29.2262 9.96494 29.1614 10.0551C29.0941 10.1416 29.0145 10.2177 28.925 10.281C28.8294 10.3442 28.7252 10.3933 28.6157 10.427C28.6689 10.4475 28.7183 10.4769 28.7616 10.5139C28.8034 10.5591 28.8555 10.6008 28.9007 10.653C28.9451 10.7044 28.9857 10.759 29.0224 10.8163C29.0571 10.8789 29.0988 10.938 29.1266 10.9936L29.7523 12.1233ZM27.7015 8.99489V10.0377H28.0491C28.1219 10.0414 28.1947 10.0293 28.2625 10.0023C28.3303 9.97536 28.3915 9.93406 28.4419 9.88128C28.5386 9.77363 28.5908 9.63321 28.5878 9.4885C28.5878 9.15827 28.414 9.00184 28.0664 9.00184H27.7188L27.7015 8.99489Z" fill="#371400"/>
<path d="M18.0028 12.1759C17.7805 12.1821 17.5596 12.1385 17.3563 12.0483C17.153 11.9581 16.9725 11.8235 16.8279 11.6545C16.5142 11.2705 16.3544 10.7836 16.3795 10.2884C16.3571 9.77164 16.5198 9.26382 16.8384 8.85629C16.9858 8.67818 17.1722 8.53634 17.3831 8.44171C17.5941 8.34708 17.8239 8.30221 18.055 8.31055C18.2745 8.30429 18.4925 8.3476 18.6929 8.43728C18.8933 8.52695 19.0709 8.66067 19.2125 8.82848C19.5033 9.238 19.6578 9.7287 19.6541 10.231C19.6503 10.7332 19.4885 11.2216 19.1917 11.6267C19.0513 11.806 18.8702 11.9493 18.6635 12.0448C18.4568 12.1402 18.2304 12.1852 18.0028 12.1759ZM18.0376 9.04747C17.9121 9.04613 17.7884 9.07747 17.6787 9.13841C17.569 9.19936 17.4771 9.28782 17.4119 9.39508C17.2594 9.65929 17.1791 9.959 17.1791 10.2641C17.1791 10.5692 17.2594 10.8689 17.4119 11.1331C17.4809 11.2313 17.5724 11.3116 17.6789 11.3669C17.7854 11.4223 17.9037 11.4512 18.0237 11.4512C18.1437 11.4512 18.262 11.4223 18.3685 11.3669C18.475 11.3116 18.5666 11.2313 18.6355 11.1331C18.8032 10.8755 18.8837 10.5709 18.8649 10.2641C18.8796 9.94811 18.8036 9.63451 18.6459 9.36031C18.5813 9.25822 18.4913 9.17472 18.3846 9.11804C18.2779 9.06135 18.1583 9.03344 18.0376 9.03704V9.04747Z" fill="#371400"/>
<path d="M21.9481 9.0648H20.7836V9.98594H21.8681V10.6812H20.7836V12.1237H20.0293V8.38696H21.9585V9.0648H21.9481Z" fill="#371400"/>
<path d="M24.2604 9.0648H23.0785V9.98594H24.163V10.6812H23.0785V12.1237H22.3242V8.38696H24.2499V9.0648H24.2604Z" fill="#371400"/>
<path d="M26.6061 12.1233H24.6074V8.37964H26.5366V9.07485H25.3617V9.90909H26.4567V10.6043H25.3617V11.4281H26.6131V12.1233H26.6061Z" fill="#371400"/>
<path d="M29.7523 12.1233H28.8833L28.3619 11.1605C28.3288 11.0938 28.2905 11.0298 28.2472 10.9693C28.2199 10.9157 28.1847 10.8665 28.1429 10.8233C28.1111 10.7853 28.0736 10.7524 28.0317 10.726C27.9915 10.7028 27.9459 10.6908 27.8996 10.6912H27.7015V12.1233H26.9541V8.37964H28.1429C28.954 8.37964 29.3595 8.71797 29.3595 9.39464C29.3619 9.51806 29.3455 9.64113 29.3109 9.75963C29.2767 9.86527 29.2262 9.96494 29.1614 10.0551C29.0941 10.1416 29.0145 10.2177 28.925 10.281C28.8294 10.3442 28.7252 10.3933 28.6157 10.427C28.6689 10.4475 28.7183 10.4769 28.7616 10.5139C28.8034 10.5591 28.8555 10.6008 28.9007 10.653C28.9451 10.7044 28.9857 10.759 29.0224 10.8163C29.0571 10.8789 29.0988 10.938 29.1266 10.9936L29.7523 12.1233ZM27.7015 8.99489V10.0377H28.0491C28.1219 10.0414 28.1947 10.0293 28.2625 10.0023C28.3303 9.97536 28.3915 9.93406 28.4419 9.88128C28.5386 9.77363 28.5908 9.63321 28.5878 9.4885C28.5878 9.15827 28.414 9.00184 28.0664 9.00184H27.7188L27.7015 8.99489Z" fill="#371400"/>
<path d="M18.0028 12.1759C17.7805 12.1821 17.5596 12.1385 17.3563 12.0483C17.153 11.9581 16.9725 11.8235 16.8279 11.6545C16.5142 11.2705 16.3544 10.7836 16.3795 10.2884C16.3571 9.77164 16.5198 9.26382 16.8384 8.85629C16.9858 8.67818 17.1722 8.53634 17.3831 8.44171C17.5941 8.34708 17.8239 8.30221 18.055 8.31055C18.2745 8.30429 18.4925 8.3476 18.6929 8.43728C18.8933 8.52695 19.0709 8.66067 19.2125 8.82848C19.5033 9.238 19.6578 9.7287 19.6541 10.231C19.6503 10.7332 19.4885 11.2216 19.1917 11.6267C19.0513 11.806 18.8702 11.9493 18.6635 12.0448C18.4568 12.1402 18.2304 12.1852 18.0028 12.1759ZM18.0376 9.04747C17.9121 9.04613 17.7884 9.07747 17.6787 9.13841C17.569 9.19936 17.4771 9.28782 17.4119 9.39508C17.2594 9.65929 17.1791 9.959 17.1791 10.2641C17.1791 10.5692 17.2594 10.8689 17.4119 11.1331C17.4809 11.2313 17.5724 11.3116 17.6789 11.3669C17.7854 11.4223 17.9037 11.4512 18.0237 11.4512C18.1437 11.4512 18.262 11.4223 18.3685 11.3669C18.475 11.3116 18.5666 11.2313 18.6355 11.1331C18.8032 10.8755 18.8837 10.5709 18.8649 10.2641C18.8796 9.94811 18.8036 9.63451 18.6459 9.36031C18.5813 9.25822 18.4913 9.17472 18.3846 9.11804C18.2779 9.06135 18.1583 9.03344 18.0376 9.03704V9.04747Z" fill="#371400"/>
<path d="M21.9481 9.0648H20.7836V9.98594H21.8681V10.6812H20.7836V12.1237H20.0293V8.38696H21.9585V9.0648H21.9481Z" fill="#371400"/>
<path d="M24.2604 9.0648H23.0785V9.98594H24.163V10.6812H23.0785V12.1237H22.3242V8.38696H24.2499V9.0648H24.2604Z" fill="#371400"/>
<path d="M26.6061 12.1233H24.6074V8.37964H26.5366V9.07485H25.3617V9.90909H26.4567V10.6043H25.3617V11.4281H26.6131V12.1233H26.6061Z" fill="#371400"/>
<path d="M29.7523 12.1233H28.8833L28.3619 11.1605C28.3288 11.0938 28.2905 11.0298 28.2472 10.9693C28.2199 10.9157 28.1847 10.8665 28.1429 10.8233C28.1111 10.7853 28.0736 10.7524 28.0317 10.726C27.9915 10.7028 27.9459 10.6908 27.8996 10.6912H27.7015V12.1233H26.9541V8.37964H28.1429C28.954 8.37964 29.3595 8.71797 29.3595 9.39464C29.3619 9.51806 29.3455 9.64113 29.3109 9.75963C29.2767 9.86527 29.2262 9.96494 29.1614 10.0551C29.0941 10.1416 29.0145 10.2177 28.925 10.281C28.8294 10.3442 28.7252 10.3933 28.6157 10.427C28.6689 10.4475 28.7183 10.4769 28.7616 10.5139C28.8034 10.5591 28.8555 10.6008 28.9007 10.653C28.9451 10.7044 28.9857 10.759 29.0224 10.8163C29.0571 10.8789 29.0988 10.938 29.1266 10.9936L29.7523 12.1233ZM27.7015 8.99489V10.0377H28.0491C28.1219 10.0414 28.1947 10.0293 28.2625 10.0023C28.3303 9.97536 28.3915 9.93406 28.4419 9.88128C28.5386 9.77363 28.5908 9.63321 28.5878 9.4885C28.5878 9.15827 28.414 9.00184 28.0664 9.00184H27.7188L27.7015 8.99489Z" fill="#371400"/>
<path d="M14.9092 5.2237V4.71272C14.9643 4.76533 15.0249 4.81194 15.0899 4.85176C15.1601 4.89214 15.2333 4.92701 15.3089 4.95605L15.5418 5.02557C15.614 5.03996 15.6872 5.0481 15.7608 5.0499C15.9435 5.06289 16.1249 5.00985 16.2718 4.90043C16.3316 4.84783 16.3786 4.7823 16.4093 4.70883C16.44 4.63536 16.4536 4.55586 16.4491 4.47636C16.4487 4.38655 16.4298 4.29778 16.3934 4.21565C16.3542 4.13937 16.3012 4.07102 16.237 4.01405C16.1641 3.95008 16.0862 3.89197 16.0041 3.84025L15.7087 3.66644C15.5992 3.60895 15.4946 3.54269 15.3958 3.46831C15.3046 3.40465 15.2196 3.33249 15.1421 3.25279C15.0734 3.17176 15.0183 3.08021 14.9787 2.98166C14.9341 2.87136 14.9128 2.753 14.9161 2.63406C14.9147 2.48366 14.948 2.33496 15.0135 2.19955C15.0731 2.08025 15.1586 1.97574 15.2637 1.89366C15.3687 1.81359 15.4861 1.75135 15.6113 1.70943C15.7432 1.6697 15.8803 1.64978 16.018 1.65033C16.2573 1.63367 16.4968 1.67917 16.7132 1.78242V2.2656C16.5045 2.11157 16.2495 2.03312 15.9902 2.04313C15.9096 2.04261 15.8292 2.05077 15.7504 2.06746C15.6713 2.08402 15.5967 2.1172 15.5314 2.16479C15.4681 2.21166 15.4149 2.27076 15.375 2.33859C15.3296 2.41763 15.309 2.50844 15.3159 2.5993C15.3138 2.68122 15.3279 2.76275 15.3576 2.83914C15.3892 2.91081 15.4327 2.97662 15.4862 3.0338C15.5556 3.09293 15.6287 3.14751 15.7052 3.19718C15.7921 3.24932 15.8859 3.30841 16.0007 3.37098C16.1119 3.43316 16.2187 3.50284 16.3205 3.57954C16.4234 3.6455 16.5149 3.72766 16.5916 3.82286C16.6661 3.90871 16.7281 4.00468 16.7758 4.1079C16.8221 4.2252 16.8457 4.35024 16.8453 4.47636C16.8494 4.63483 16.8161 4.79203 16.748 4.9352C16.6902 5.05571 16.6029 5.15971 16.4943 5.23761C16.3906 5.31724 16.2726 5.37625 16.1466 5.41141C16.0083 5.44811 15.8657 5.4668 15.7226 5.46703C15.6607 5.46447 15.5992 5.4575 15.5383 5.44617C15.4622 5.43733 15.3867 5.4234 15.3124 5.40446C15.2376 5.38758 15.1643 5.36432 15.0934 5.33494C15.0296 5.302 14.968 5.26484 14.9092 5.2237Z" fill="white"/>
<path d="M17.8358 3.98271V5.37312H17.4639V1.69548H18.3503C18.4943 1.68576 18.6389 1.70608 18.7747 1.75515C18.9105 1.80421 19.0347 1.88096 19.1393 1.98052C19.2364 2.09003 19.311 2.21763 19.3587 2.35602C19.4065 2.49441 19.4264 2.64085 19.4174 2.78696C19.4303 3.10424 19.3179 3.41386 19.1046 3.64901C18.9968 3.76186 18.8656 3.84986 18.7204 3.90689C18.5751 3.96392 18.4191 3.98862 18.2634 3.97924H17.8532L17.8358 3.98271ZM17.8358 2.07784V3.58992H18.2286C18.3361 3.59736 18.444 3.58268 18.5456 3.54681C18.6473 3.51094 18.7405 3.45464 18.8195 3.38136C18.8898 3.30422 18.9435 3.21359 18.9776 3.11498C19.0117 3.01637 19.0253 2.91186 19.0177 2.80782C19.0306 2.70767 19.0201 2.60588 18.987 2.51046C18.954 2.41504 18.8993 2.32858 18.8272 2.25785C18.7552 2.18713 18.6677 2.13407 18.5717 2.10284C18.4756 2.0716 18.3737 2.06305 18.2738 2.07784H17.8358Z" fill="white"/>
<path d="M21.6878 5.36949H20.002V1.69531H21.6114V2.08463H20.3669V3.3082H21.514V3.70098H20.3669V4.98712H21.6809V5.37644L21.6878 5.36949Z" fill="white"/>
<path d="M24.4617 5.21334C24.1953 5.36853 23.8902 5.4445 23.5822 5.43233C23.374 5.43955 23.1671 5.39769 22.9781 5.31013C22.7891 5.22257 22.6233 5.09177 22.4942 4.9283C22.211 4.54514 22.0674 4.07654 22.0875 3.60046C22.0621 3.08484 22.2266 2.57779 22.5498 2.17529C22.6892 2.00187 22.8661 1.86235 23.0672 1.76722C23.2683 1.67208 23.4884 1.62381 23.7108 1.62606C23.9692 1.61802 24.226 1.66916 24.4617 1.77554V2.23437C24.2365 2.08749 23.9727 2.01124 23.7039 2.01539C23.5328 2.01115 23.3632 2.04771 23.209 2.12206C23.0549 2.19641 22.9207 2.3064 22.8175 2.44294C22.5756 2.76853 22.4528 3.16737 22.4699 3.57265C22.4448 3.95523 22.5583 4.33406 22.7897 4.6398C22.8886 4.76612 23.0154 4.8679 23.1601 4.93724C23.3048 5.00657 23.4635 5.04158 23.6239 5.03954C23.9185 5.04816 24.2082 4.96296 24.4512 4.79622V5.21334H24.4617Z" fill="white"/>
<path d="M25.7895 1.69531V2.06725H25.4767V5.0045H25.7895V5.37644H24.7988V4.99755H25.1117V2.04292H24.7988V1.69531H25.7895Z" fill="white"/>
<path d="M28.7785 5.3696H28.3614L28.0138 4.32679H26.6929L26.38 5.3696H25.9629L27.1795 1.68848H27.5619L28.7785 5.3696ZM27.9095 3.9479L27.4054 2.39063C27.3819 2.31098 27.3644 2.22963 27.3533 2.14731C27.3533 2.25159 27.3151 2.32806 27.3012 2.39063L26.8041 3.96528L27.9095 3.9479Z" fill="white"/>
<path d="M30.8919 5.36949H29.2373V1.69531H29.6127V4.98712H30.8919V5.36949Z" fill="white"/>
</svg>
