<svg width="59" height="58" viewBox="0 0 59 58" fill="none" xmlns="http://www.w3.org/2000/svg">
<rect x="0.580078" width="57.93" height="57.93" rx="6.27384" fill="white"/>
<path d="M48.5181 26.2971L13.749 29.4797L14.9134 42.2001L49.6824 39.0175L48.5181 26.2971Z" fill="#FEBE10"/>
<path d="M21.897 39.9368C21.4425 39.992 20.9813 39.9445 20.5476 39.7977C20.1138 39.6509 19.7186 39.4086 19.391 39.0887C18.6774 38.3612 18.2577 37.3957 18.2127 36.3776C18.0622 35.3174 18.3031 34.2386 18.8904 33.3432C19.1587 32.9477 19.5147 32.6196 19.9308 32.3844C20.3468 32.1493 20.8116 32.0135 21.2887 31.9877C21.7397 31.9334 22.197 31.9829 22.6259 32.1323C23.0548 32.2816 23.4439 32.527 23.7635 32.8497C24.4713 33.5966 24.8849 34.5744 24.9279 35.6025C25.077 36.6538 24.8359 37.7234 24.2501 38.6091C23.9837 38.9938 23.6336 39.3131 23.226 39.5431C22.8184 39.773 22.3641 39.9077 21.897 39.9368ZM21.3756 33.4718C21.1182 33.4895 20.8694 33.5725 20.6529 33.713C20.4364 33.8535 20.2593 34.0468 20.1383 34.2747C19.8473 34.8446 19.7381 35.49 19.8254 36.1239C19.8518 36.7643 20.0779 37.3805 20.4719 37.8861C20.6246 38.0827 20.8255 38.2365 21.055 38.3327C21.2846 38.4289 21.5351 38.4643 21.7823 38.4353C22.0315 38.4179 22.2724 38.339 22.4836 38.2055C22.6947 38.072 22.8693 37.8882 22.9919 37.6706C23.2805 37.1062 23.3862 36.466 23.2943 35.8388C23.2765 35.1832 23.0581 34.5487 22.6686 34.021C22.5181 33.8261 22.3204 33.6727 22.0942 33.5754C21.868 33.4781 21.6207 33.4401 21.3756 33.4649V33.4718Z" fill="white"/>
<path d="M29.4218 32.7868L26.9887 33.0023L27.1625 34.8896L29.387 34.688L29.5156 36.0784L27.2911 36.2765L27.5622 39.2587L26.0155 39.3978L25.3203 31.7162L29.2897 31.3687L29.4218 32.7868Z" fill="white"/>
<path d="M34.121 32.3593L31.6879 32.5783L31.8617 34.4656L34.0862 34.264L34.2183 35.6543L31.9938 35.8525L32.2614 38.8347L30.7147 38.9737L30.0195 31.2887L33.9924 30.9412L34.121 32.3593Z" fill="white"/>
<path d="M39.5542 38.1813L35.4354 38.5567L34.7402 30.8752L38.7026 30.5276L38.8347 31.9179L36.419 32.1369L36.5755 33.847L38.8139 33.6384L38.946 35.0287L36.7041 35.2373L36.8605 36.9961L39.4326 36.7597L39.5542 38.1813Z" fill="white"/>
<path d="M46.0254 37.5937L44.2528 37.7571L43.0015 35.8802C42.9041 35.7411 42.8207 35.6125 42.7304 35.4978C42.6595 35.3945 42.5754 35.301 42.4801 35.2198C42.4052 35.1504 42.321 35.0919 42.2298 35.046C42.1442 35.0099 42.0514 34.9945 41.9587 35.0008L41.5416 35.0355L41.8093 37.9761L40.2625 38.1151L39.5674 30.4301L42.0178 30.2042C43.6862 30.0513 44.583 30.6769 44.7116 32.0637C44.7376 32.3171 44.7223 32.573 44.6664 32.8215C44.6165 33.0474 44.5321 33.2643 44.4161 33.4645C44.2992 33.6607 44.1486 33.8349 43.9712 33.9789C43.7874 34.1232 43.5837 34.2403 43.3664 34.3265C43.4776 34.3604 43.583 34.4107 43.6792 34.4759C43.7872 34.5503 43.8884 34.634 43.9816 34.7262C44.0755 34.8235 44.1728 34.9382 44.2667 35.0495C44.3605 35.1607 44.4405 35.2754 44.5204 35.397L46.0254 37.5937ZM41.2288 31.5945L41.42 33.7321L42.0873 33.673C42.2362 33.6642 42.3817 33.6251 42.5149 33.5581C42.6482 33.4912 42.7664 33.3979 42.8624 33.2837C43.0461 33.0468 43.1297 32.7474 43.0953 32.4496C43.0351 31.7799 42.6446 31.4752 41.924 31.5354L41.2288 31.5945Z" fill="white"/>
<path d="M21.897 39.9368C21.4425 39.992 20.9813 39.9445 20.5476 39.7977C20.1138 39.6509 19.7186 39.4086 19.391 39.0887C18.6774 38.3612 18.2577 37.3957 18.2127 36.3776C18.0622 35.3174 18.3031 34.2386 18.8904 33.3432C19.1587 32.9477 19.5147 32.6196 19.9308 32.3844C20.3468 32.1493 20.8116 32.0135 21.2887 31.9877C21.7397 31.9334 22.197 31.9829 22.6259 32.1323C23.0548 32.2816 23.4439 32.527 23.7635 32.8497C24.4713 33.5966 24.8849 34.5744 24.9279 35.6025C25.077 36.6538 24.8359 37.7234 24.2501 38.6091C23.9837 38.9938 23.6336 39.3131 23.226 39.5431C22.8184 39.773 22.3641 39.9077 21.897 39.9368ZM21.3756 33.4718C21.1182 33.4895 20.8694 33.5725 20.6529 33.713C20.4364 33.8535 20.2593 34.0468 20.1383 34.2747C19.8473 34.8446 19.7381 35.49 19.8254 36.1239C19.8518 36.7643 20.0779 37.3805 20.4719 37.8861C20.6246 38.0827 20.8255 38.2365 21.055 38.3327C21.2846 38.4289 21.5351 38.4643 21.7823 38.4353C22.0315 38.4179 22.2724 38.339 22.4836 38.2055C22.6947 38.072 22.8693 37.8882 22.9919 37.6706C23.2805 37.1062 23.3862 36.466 23.2943 35.8388C23.2765 35.1832 23.0581 34.5487 22.6686 34.021C22.5181 33.8261 22.3204 33.6727 22.0942 33.5754C21.868 33.4781 21.6207 33.4401 21.3756 33.4649V33.4718Z" fill="#371400"/>
<path d="M29.4218 32.7868L26.9887 33.0023L27.1625 34.8896L29.387 34.688L29.5156 36.0784L27.2911 36.2765L27.5622 39.2587L26.0155 39.3978L25.3203 31.7162L29.2897 31.3687L29.4218 32.7868Z" fill="#371400"/>
<path d="M34.121 32.3593L31.6879 32.5783L31.8617 34.4656L34.0862 34.264L34.2183 35.6543L31.9938 35.8525L32.2614 38.8347L30.7147 38.9737L30.0195 31.2887L33.9924 30.9412L34.121 32.3593Z" fill="#371400"/>
<path d="M39.5542 38.1813L35.4354 38.5567L34.7402 30.8752L38.7026 30.5276L38.8347 31.9179L36.419 32.1369L36.5755 33.847L38.8139 33.6384L38.946 35.0287L36.7041 35.2373L36.8605 36.9961L39.4326 36.7597L39.5542 38.1813Z" fill="#371400"/>
<path d="M46.0254 37.5937L44.2528 37.7571L43.0015 35.8802C42.9041 35.7411 42.8207 35.6125 42.7304 35.4978C42.6595 35.3945 42.5754 35.301 42.4801 35.2198C42.4052 35.1504 42.321 35.0919 42.2298 35.046C42.1442 35.0099 42.0514 34.9945 41.9587 35.0008L41.5416 35.0355L41.8093 37.9761L40.2625 38.1151L39.5674 30.4301L42.0178 30.2042C43.6862 30.0513 44.583 30.6769 44.7116 32.0637C44.7376 32.3171 44.7223 32.573 44.6664 32.8215C44.6165 33.0474 44.5321 33.2643 44.4161 33.4645C44.2992 33.6607 44.1486 33.8349 43.9712 33.9789C43.7874 34.1232 43.5837 34.2403 43.3664 34.3265C43.4776 34.3604 43.583 34.4107 43.6792 34.4759C43.7872 34.5503 43.8884 34.634 43.9816 34.7262C44.0755 34.8235 44.1728 34.9382 44.2667 35.0495C44.3605 35.1607 44.4405 35.2754 44.5204 35.397L46.0254 37.5937ZM41.2288 31.5945L41.42 33.7321L42.0873 33.673C42.2362 33.6642 42.3817 33.6251 42.5149 33.5581C42.6482 33.4912 42.7664 33.3979 42.8624 33.2837C43.0461 33.0468 43.1297 32.7474 43.0953 32.4496C43.0351 31.7799 42.6446 31.4752 41.924 31.5354L41.2288 31.5945Z" fill="#371400"/>
<path d="M21.897 39.9368C21.4425 39.992 20.9813 39.9445 20.5476 39.7977C20.1138 39.6509 19.7186 39.4086 19.391 39.0887C18.6774 38.3612 18.2577 37.3957 18.2127 36.3776C18.0622 35.3174 18.3031 34.2386 18.8904 33.3432C19.1587 32.9477 19.5147 32.6196 19.9308 32.3844C20.3468 32.1493 20.8116 32.0135 21.2887 31.9877C21.7397 31.9334 22.197 31.9829 22.6259 32.1323C23.0548 32.2816 23.4439 32.527 23.7635 32.8497C24.4713 33.5966 24.8849 34.5744 24.9279 35.6025C25.077 36.6538 24.8359 37.7234 24.2501 38.6091C23.9837 38.9938 23.6336 39.3131 23.226 39.5431C22.8184 39.773 22.3641 39.9077 21.897 39.9368ZM21.3756 33.4718C21.1182 33.4895 20.8694 33.5725 20.6529 33.713C20.4364 33.8535 20.2593 34.0468 20.1383 34.2747C19.8473 34.8446 19.7381 35.49 19.8254 36.1239C19.8518 36.7643 20.0779 37.3805 20.4719 37.8861C20.6246 38.0827 20.8255 38.2365 21.055 38.3327C21.2846 38.4289 21.5351 38.4643 21.7823 38.4353C22.0315 38.4179 22.2724 38.339 22.4836 38.2055C22.6947 38.072 22.8693 37.8882 22.9919 37.6706C23.2805 37.1062 23.3862 36.466 23.2943 35.8388C23.2765 35.1832 23.0581 34.5487 22.6686 34.021C22.5181 33.8261 22.3204 33.6727 22.0942 33.5754C21.868 33.4781 21.6207 33.4401 21.3756 33.4649V33.4718Z" fill="#371400"/>
<path d="M29.4218 32.7868L26.9887 33.0023L27.1625 34.8896L29.387 34.688L29.5156 36.0784L27.2911 36.2765L27.5622 39.2587L26.0155 39.3978L25.3203 31.7162L29.2897 31.3687L29.4218 32.7868Z" fill="#371400"/>
<path d="M34.121 32.3593L31.6879 32.5783L31.8617 34.4656L34.0862 34.264L34.2183 35.6543L31.9938 35.8525L32.2614 38.8347L30.7147 38.9737L30.0195 31.2887L33.9924 30.9412L34.121 32.3593Z" fill="#371400"/>
<path d="M39.5542 38.1813L35.4354 38.5567L34.7402 30.8752L38.7026 30.5276L38.8347 31.9179L36.419 32.1369L36.5755 33.847L38.8139 33.6384L38.946 35.0287L36.7041 35.2373L36.8605 36.9961L39.4326 36.7597L39.5542 38.1813Z" fill="#371400"/>
<path d="M46.0254 37.5937L44.2528 37.7571L43.0015 35.8802C42.9041 35.7411 42.8207 35.6125 42.7304 35.4978C42.6595 35.3945 42.5754 35.301 42.4801 35.2198C42.4052 35.1504 42.321 35.0919 42.2298 35.046C42.1442 35.0099 42.0514 34.9945 41.9587 35.0008L41.5416 35.0355L41.8093 37.9761L40.2625 38.1151L39.5674 30.4301L42.0178 30.2042C43.6862 30.0513 44.583 30.6769 44.7116 32.0637C44.7376 32.3171 44.7223 32.573 44.6664 32.8215C44.6165 33.0474 44.5321 33.2643 44.4161 33.4645C44.2992 33.6607 44.1486 33.8349 43.9712 33.9789C43.7874 34.1232 43.5837 34.2403 43.3664 34.3265C43.4776 34.3604 43.583 34.4107 43.6792 34.4759C43.7872 34.5503 43.8884 34.634 43.9816 34.7262C44.0755 34.8235 44.1728 34.9382 44.2667 35.0495C44.3605 35.1607 44.4405 35.2754 44.5204 35.397L46.0254 37.5937ZM41.2288 31.5945L41.42 33.7321L42.0873 33.673C42.2362 33.6642 42.3817 33.6251 42.5149 33.5581C42.6482 33.4912 42.7664 33.3979 42.8624 33.2837C43.0461 33.0468 43.1297 32.7474 43.0953 32.4496C43.0351 31.7799 42.6446 31.4752 41.924 31.5354L41.2288 31.5945Z" fill="#371400"/>
<path d="M21.897 39.9368C21.4425 39.992 20.9813 39.9445 20.5476 39.7977C20.1138 39.6509 19.7186 39.4086 19.391 39.0887C18.6774 38.3612 18.2577 37.3957 18.2127 36.3776C18.0622 35.3174 18.3031 34.2386 18.8904 33.3432C19.1587 32.9477 19.5147 32.6196 19.9308 32.3844C20.3468 32.1493 20.8116 32.0135 21.2887 31.9877C21.7397 31.9334 22.197 31.9829 22.6259 32.1323C23.0548 32.2816 23.4439 32.527 23.7635 32.8497C24.4713 33.5966 24.8849 34.5744 24.9279 35.6025C25.077 36.6538 24.8359 37.7234 24.2501 38.6091C23.9837 38.9938 23.6336 39.3131 23.226 39.5431C22.8184 39.773 22.3641 39.9077 21.897 39.9368ZM21.3756 33.4718C21.1182 33.4895 20.8694 33.5725 20.6529 33.713C20.4364 33.8535 20.2593 34.0468 20.1383 34.2747C19.8473 34.8446 19.7381 35.49 19.8254 36.1239C19.8518 36.7643 20.0779 37.3805 20.4719 37.8861C20.6246 38.0827 20.8255 38.2365 21.055 38.3327C21.2846 38.4289 21.5351 38.4643 21.7823 38.4353C22.0315 38.4179 22.2724 38.339 22.4836 38.2055C22.6947 38.072 22.8693 37.8882 22.9919 37.6706C23.2805 37.1062 23.3862 36.466 23.2943 35.8388C23.2765 35.1832 23.0581 34.5487 22.6686 34.021C22.5181 33.8261 22.3204 33.6727 22.0942 33.5754C21.868 33.4781 21.6207 33.4401 21.3756 33.4649V33.4718Z" fill="#371400"/>
<path d="M29.4218 32.7868L26.9887 33.0023L27.1625 34.8896L29.387 34.688L29.5156 36.0784L27.2911 36.2765L27.5622 39.2587L26.0155 39.3978L25.3203 31.7162L29.2897 31.3687L29.4218 32.7868Z" fill="#371400"/>
<path d="M34.121 32.3593L31.6879 32.5783L31.8617 34.4656L34.0862 34.264L34.2183 35.6543L31.9938 35.8525L32.2614 38.8347L30.7147 38.9737L30.0195 31.2887L33.9924 30.9412L34.121 32.3593Z" fill="#371400"/>
<path d="M39.5542 38.1813L35.4354 38.5567L34.7402 30.8752L38.7026 30.5276L38.8347 31.9179L36.419 32.1369L36.5755 33.847L38.8139 33.6384L38.946 35.0287L36.7041 35.2373L36.8605 36.9961L39.4326 36.7597L39.5542 38.1813Z" fill="#371400"/>
<path d="M46.0254 37.5937L44.2528 37.7571L43.0015 35.8802C42.9041 35.7411 42.8207 35.6125 42.7304 35.4978C42.6595 35.3945 42.5754 35.301 42.4801 35.2198C42.4052 35.1504 42.321 35.0919 42.2298 35.046C42.1442 35.0099 42.0514 34.9945 41.9587 35.0008L41.5416 35.0355L41.8093 37.9761L40.2625 38.1151L39.5674 30.4301L42.0178 30.2042C43.6862 30.0513 44.583 30.6769 44.7116 32.0637C44.7376 32.3171 44.7223 32.573 44.6664 32.8215C44.6165 33.0474 44.5321 33.2643 44.4161 33.4645C44.2992 33.6607 44.1486 33.8349 43.9712 33.9789C43.7874 34.1232 43.5837 34.2403 43.3664 34.3265C43.4776 34.3604 43.583 34.4107 43.6792 34.4759C43.7872 34.5503 43.8884 34.634 43.9816 34.7262C44.0755 34.8235 44.1728 34.9382 44.2667 35.0495C44.3605 35.1607 44.4405 35.2754 44.5204 35.397L46.0254 37.5937ZM41.2288 31.5945L41.42 33.7321L42.0873 33.673C42.2362 33.6642 42.3817 33.6251 42.5149 33.5581C42.6482 33.4912 42.7664 33.3979 42.8624 33.2837C43.0461 33.0468 43.1297 32.7474 43.0953 32.4496C43.0351 31.7799 42.6446 31.4752 41.924 31.5354L41.2288 31.5945Z" fill="#371400"/>
<path d="M7.87891 19.9961L43.6171 16.6941L44.6876 28.2616L8.94598 31.5636L7.87891 19.9961Z" fill="#371400"/>
<path d="M51.2607 16L15.5254 19.3025L15.583 19.9255L51.3183 16.623L51.2607 16Z" fill="#371400"/>
<path d="M47.2944 15.1773L23.9258 17.3411L23.9835 17.964L47.3521 15.8003L47.2944 15.1773Z" fill="#FEBE10"/>
<path d="M36.5113 39.5799L11.2803 41.9116L11.3378 42.5346L36.5689 40.2029L36.5113 39.5799Z" fill="#FEBE10"/>
<path d="M46.3745 39.9085L23.0059 42.0723L23.0635 42.6952L46.4322 40.5315L46.3745 39.9085Z" fill="#371400"/>
<path d="M13.1205 28.3553L13.0406 27.4968C13.147 27.5809 13.2638 27.651 13.3881 27.7053C13.5127 27.7651 13.6432 27.8117 13.7774 27.8444C13.9125 27.8779 14.0495 27.9035 14.1876 27.9208C14.3124 27.9328 14.4381 27.9328 14.563 27.9208C14.8761 27.9104 15.1749 27.787 15.4041 27.5733C15.4946 27.474 15.5613 27.3554 15.5992 27.2266C15.6372 27.0977 15.6453 26.9619 15.6231 26.8294C15.6109 26.678 15.5632 26.5316 15.484 26.4019C15.4052 26.2807 15.3051 26.1748 15.1886 26.0891C15.0552 25.9881 14.912 25.9007 14.7611 25.8284L14.2397 25.5782C14.0381 25.4808 13.8574 25.387 13.6836 25.2897C13.5186 25.1907 13.3647 25.0742 13.2248 24.9421C13.0896 24.8198 12.9798 24.6722 12.9015 24.5076C12.8083 24.3202 12.7551 24.1154 12.7451 23.9063C12.7168 23.6507 12.7502 23.3921 12.8424 23.152C12.921 22.94 13.0484 22.7495 13.2144 22.5959C13.3814 22.4495 13.5717 22.3321 13.7774 22.2483C13.9931 22.1654 14.2186 22.1105 14.4483 22.085C14.8429 22.0215 15.2473 22.0598 15.6231 22.1962L15.6995 23.0373C15.3258 22.8065 14.8837 22.712 14.4483 22.7697C14.3085 22.782 14.1708 22.8112 14.0381 22.8566C13.91 22.8983 13.7917 22.9657 13.6905 23.0547C13.5898 23.1418 13.5092 23.2497 13.4542 23.371C13.3953 23.5102 13.3749 23.6627 13.3951 23.8125C13.4036 23.9554 13.4415 24.095 13.5063 24.2226C13.572 24.3338 13.6567 24.4326 13.7566 24.5146C13.8789 24.6098 14.0105 24.6925 14.1493 24.7613C14.2953 24.8378 14.4691 24.9143 14.6707 25.0116C14.8723 25.1089 15.06 25.2028 15.2442 25.307C15.4211 25.4008 15.5848 25.5177 15.7308 25.6546C15.8665 25.7915 15.9834 25.9458 16.0784 26.1134C16.1747 26.3044 16.2337 26.5121 16.2522 26.7252C16.2843 26.9916 16.2533 27.2619 16.1618 27.5142C16.0863 27.7277 15.9584 27.9189 15.7899 28.0703C15.619 28.222 15.4208 28.3399 15.206 28.4179C14.975 28.4963 14.736 28.5488 14.4934 28.5743C14.4065 28.5743 14.3058 28.5743 14.1806 28.5743C14.0555 28.5743 13.9304 28.5743 13.7913 28.5395C13.6619 28.5251 13.534 28.4995 13.409 28.4631C13.3082 28.441 13.2111 28.4047 13.1205 28.3553Z" fill="white"/>
<path d="M17.8645 25.8178L18.08 28.164L17.4544 28.2266L16.8809 21.9945L18.3476 21.8554C18.592 21.816 18.8419 21.8281 19.0814 21.891C19.3208 21.9538 19.5445 22.066 19.738 22.2204C19.9216 22.391 20.0691 22.5967 20.1718 22.8254C20.2745 23.0541 20.3303 23.301 20.3358 23.5516C20.4012 24.0801 20.2619 24.6136 19.9465 25.0427C19.7819 25.2497 19.5748 25.4189 19.3391 25.5388C19.1034 25.6587 18.8447 25.7266 18.5805 25.7379L17.8645 25.8178ZM17.5691 22.6131L17.8019 25.1574L18.4624 25.0983C18.6431 25.0941 18.821 25.053 18.9853 24.9777C19.1497 24.9024 19.297 24.7945 19.4182 24.6604C19.5251 24.5175 19.6025 24.3548 19.6461 24.1818C19.6896 24.0088 19.6984 23.8289 19.6719 23.6524C19.592 22.8391 19.1401 22.4637 18.2816 22.5402L17.5691 22.6131Z" fill="white"/>
<path d="M24.5802 27.5559L21.737 27.8165L21.167 21.6053L23.8851 21.3516L23.9476 22.012L21.8622 22.2031L22.0533 24.2886L23.9928 24.1044L24.0415 24.7405L22.102 24.9212L22.3036 27.0936L24.5211 26.8885L24.5802 27.5559Z" fill="white"/>
<path d="M29.2275 26.8608C28.8025 27.1564 28.3051 27.3306 27.7885 27.3648C27.4371 27.4076 27.0806 27.3669 26.7479 27.2461C26.4151 27.1254 26.1155 26.9279 25.8734 26.6696C25.3318 26.0674 25.0161 25.2959 24.9801 24.4868C24.862 23.62 25.0554 22.7393 25.5258 22.0016C25.7349 21.6872 26.0129 21.4245 26.3388 21.2336C26.6646 21.0427 27.0297 20.9285 27.4062 20.8998C27.8385 20.8458 28.2774 20.8922 28.6888 21.0354L28.7583 21.8105C28.3597 21.5989 27.9072 21.5106 27.4583 21.5567C27.1687 21.5766 26.8879 21.6643 26.6385 21.8129C26.3891 21.9614 26.1782 22.1666 26.0228 22.4118C25.6689 23.0014 25.5278 23.6945 25.6231 24.3756C25.6455 25.0254 25.8909 25.6478 26.3183 26.1378C26.5015 26.3392 26.7303 26.4938 26.9854 26.5887C27.2406 26.6837 27.5148 26.7162 27.7851 26.6835C28.2838 26.6602 28.7622 26.4788 29.1511 26.1656L29.2275 26.8608Z" fill="white"/>
<path d="M30.9233 20.6985L30.9858 21.3276L30.4645 21.3797L30.9233 26.3501L31.4446 26.298L31.5072 26.9202L29.8284 27.0766L29.7693 26.4544L30.2872 26.3988L29.8284 21.4319L29.307 21.4805L29.2549 20.8584L30.9233 20.6985Z" fill="white"/>
<path d="M36.5304 26.4438L35.8352 26.5063L35.1053 24.8101L32.8356 25.0187L32.4637 26.8087L31.7686 26.8678L33.2458 20.4654L33.8957 20.4028L36.5304 26.4438ZM34.8446 24.1845L33.7741 21.6124C33.7242 21.4798 33.6836 21.3439 33.6524 21.2057H33.6351C33.6285 21.3477 33.6145 21.4893 33.5933 21.6298L32.999 24.3583L34.8446 24.1845Z" fill="white"/>
<path d="M40.0993 26.1135L37.3186 26.3742L36.7451 20.1629L37.3708 20.1003L37.8852 25.6616L40.0298 25.4705L40.0993 26.1135Z" fill="white"/>
</svg>
