<svg width="59" height="59" viewBox="0 0 59 59" fill="none" xmlns="http://www.w3.org/2000/svg">
<rect x="0.736328" y="0.929932" width="57.934" height="57.934" rx="5.74571" fill="white"/>
<path d="M12.5029 27.3647L51.0279 26.1238L51.4867 40.2156L12.9548 41.4705L12.5029 27.3647Z" fill="#371400"/>
<path d="M48.1673 37.2124L49.7489 38.9122L42.7899 44.9014L42.5361 39.5379L48.1673 37.2124Z" fill="#371400"/>
<path d="M21.2628 38.6171C20.7586 38.6502 20.2534 38.5681 19.7855 38.3772C19.3176 38.1863 18.8992 37.8916 18.5619 37.5152C17.818 36.6675 17.4154 35.5736 17.4322 34.4458C17.3361 33.2711 17.6696 32.1015 18.3708 31.154C18.6933 30.7375 19.1069 30.4004 19.5799 30.1684C20.0529 29.9365 20.5727 29.8158 21.0994 29.8158C21.5998 29.7838 22.1009 29.8668 22.5642 30.0584C23.0276 30.25 23.4409 30.5451 23.7725 30.9211C24.5134 31.7924 24.9069 32.9063 24.8779 34.0496C24.9715 35.2165 24.638 36.3777 23.9394 37.3171C23.6246 37.7265 23.2189 38.057 22.7544 38.2827C22.2899 38.5083 21.7792 38.6228 21.2628 38.6171ZM21.1064 31.4669C20.823 31.4687 20.5448 31.5432 20.2983 31.6831C20.0518 31.8231 19.8454 32.0239 19.6986 32.2664C19.3375 32.8737 19.1736 33.5781 19.2293 34.2825C19.2132 34.9902 19.4239 35.6845 19.8307 36.2638C19.9948 36.4839 20.2095 36.6613 20.4567 36.7809C20.7038 36.9005 20.9761 36.9589 21.2506 36.951C21.525 36.9432 21.7936 36.8694 22.0335 36.7359C22.2734 36.6023 22.4776 36.413 22.6289 36.1839C22.989 35.583 23.1462 34.8822 23.0773 34.1851C23.0996 33.4623 22.8994 32.7501 22.5038 32.1447C22.3474 31.9225 22.1371 31.7438 21.8927 31.6252C21.6483 31.5066 21.3777 31.4522 21.1064 31.4669Z" fill="white"/>
<path d="M30.0216 31.2302L27.3346 31.3171L27.4076 33.4028L29.8756 33.3263L29.9277 34.8801L27.4563 34.96L27.564 38.2623L25.8503 38.3144L25.5723 29.8085L29.9695 29.666L30.0216 31.2302Z" fill="white"/>
<path d="M35.2364 31.0671L32.5495 31.154L32.6225 33.2397L35.0904 33.1597L35.1391 34.717L32.6711 34.7935L32.7754 38.0957L31.0652 38.1513L30.7871 29.642L35.1843 29.5029L35.2364 31.0671Z" fill="white"/>
<path d="M40.8396 37.8351L36.2791 37.9846L36.001 29.4787L40.3912 29.3362L40.4434 30.9004L37.7633 30.9873L37.8259 32.8817L40.3113 32.8053L40.3634 34.3591L37.878 34.439L37.9371 36.3856L40.791 36.2883L40.8396 37.8351Z" fill="white"/>
<path d="M48.0103 37.602L46.0463 37.661L44.7845 35.5163C44.7029 35.3669 44.6136 35.2219 44.5168 35.0818C44.4393 34.9592 44.3521 34.843 44.2561 34.7342C44.1766 34.6516 44.0852 34.5813 43.985 34.5257C43.8932 34.4807 43.7917 34.4592 43.6895 34.4631L43.2307 34.484L43.335 37.741L41.6213 37.7931L41.3467 29.2873L44.0649 29.1969C45.9072 29.1378 46.8632 29.8747 46.9083 31.425C46.9162 31.7029 46.8835 31.9805 46.811 32.2489C46.7426 32.4969 46.6333 32.7319 46.4877 32.9441C46.3471 33.152 46.1705 33.3333 45.9663 33.4794C45.7582 33.6415 45.5228 33.7651 45.2711 33.8444V33.8722C45.3976 33.911 45.5156 33.9735 45.6187 34.0564C45.7358 34.1468 45.844 34.248 45.942 34.3588C46.0475 34.4773 46.1451 34.6028 46.234 34.7342C46.328 34.8591 46.4151 34.989 46.4947 35.1235L48.0103 37.602ZM43.116 30.6846L43.1959 33.0483L43.9329 33.0205C44.0982 33.0231 44.2622 32.9903 44.4139 32.9244C44.5656 32.8585 44.7014 32.7609 44.8123 32.6382C45.0296 32.3901 45.1418 32.0672 45.1251 31.7379C45.0973 30.9871 44.6906 30.6325 43.8911 30.6568L43.116 30.6846Z" fill="white"/>
<path d="M8.03613 16.9822L47.6004 14.834L48.2956 26.225L8.73134 28.3836L8.03613 16.9822Z" fill="#FEBE10"/>
<path d="M13.4592 25.3487L13.407 24.4032C13.5127 24.498 13.6294 24.5797 13.7546 24.6465C13.8903 24.7175 14.0323 24.7756 14.1787 24.8203C14.3235 24.8665 14.4725 24.898 14.6236 24.9142C14.7593 24.9345 14.8967 24.9415 15.0338 24.935C15.3761 24.9407 15.709 24.8235 15.9723 24.6048C16.0755 24.499 16.1532 24.3711 16.1996 24.2307C16.246 24.0904 16.2598 23.9414 16.24 23.7949C16.2364 23.627 16.1923 23.4624 16.1114 23.3152C16.0251 23.1792 15.9197 23.0563 15.7985 22.9502C15.6525 22.8376 15.4979 22.7364 15.3362 22.6478C15.1624 22.5505 14.9712 22.4566 14.7696 22.3523C14.568 22.2481 14.3525 22.1264 14.1717 22.0047C13.9928 21.896 13.8292 21.7639 13.6851 21.6119C13.5401 21.47 13.4223 21.3027 13.3375 21.1183C13.1492 20.6403 13.1492 20.1086 13.3375 19.6306C13.4367 19.4018 13.5851 19.1977 13.772 19.0327C13.9583 18.8647 14.1772 18.7369 14.4151 18.6573C14.6537 18.5695 14.9048 18.5202 15.1589 18.5113C15.5986 18.454 16.0456 18.5127 16.4555 18.6816L16.5076 19.5854C16.0998 19.3089 15.6072 19.1858 15.1172 19.2378C14.9643 19.2489 14.8128 19.2757 14.6653 19.3178C14.5226 19.3625 14.3877 19.4294 14.2656 19.5159C14.1471 19.6059 14.0547 19.7259 13.9979 19.8635C13.9265 20.0153 13.8954 20.1829 13.9076 20.3501C13.9112 20.5075 13.9504 20.662 14.0223 20.802C14.0898 20.934 14.1818 21.052 14.2934 21.1496C14.4226 21.2567 14.561 21.3521 14.7071 21.4347C14.8739 21.5216 15.0547 21.6258 15.2736 21.7301C15.4926 21.8344 15.7012 21.9561 15.8993 22.0777C16.091 22.1928 16.2664 22.3331 16.4207 22.4949C16.5728 22.6476 16.6995 22.8236 16.7962 23.0163C16.8943 23.2294 16.9498 23.4597 16.9595 23.6941C16.9811 23.9891 16.9396 24.2853 16.8379 24.5631C16.7443 24.7951 16.5951 25.0004 16.4034 25.161C16.2117 25.3186 15.9908 25.4367 15.7533 25.5086C15.4933 25.5914 15.2231 25.6382 14.9504 25.6476C14.8347 25.6575 14.7184 25.6575 14.6028 25.6476C14.4606 25.6396 14.319 25.6234 14.1787 25.599C14.0375 25.5732 13.8982 25.5384 13.7616 25.4947C13.6549 25.4592 13.5533 25.4102 13.4592 25.3487Z" fill="white"/>
<path d="M18.8046 22.7138L18.9402 25.3138L18.245 25.3486L17.873 18.4661L19.5068 18.3792C19.776 18.3484 20.0486 18.3736 20.3076 18.4532C20.5666 18.5327 20.8064 18.6649 21.0119 18.8415C21.2063 19.0365 21.3601 19.268 21.4645 19.5228C21.5689 19.7775 21.6218 20.0504 21.6202 20.3257C21.6743 20.9143 21.4958 21.5007 21.1231 21.9595C20.9311 22.1791 20.6952 22.356 20.4305 22.4787C20.1659 22.6015 19.8784 22.6673 19.5867 22.6721L18.8046 22.7138ZM18.61 19.1613L18.7664 21.9873L19.4998 21.9421C19.6981 21.9527 19.8961 21.9189 20.0797 21.8433C20.2632 21.7676 20.4276 21.652 20.5608 21.5048C20.6939 21.3577 20.7926 21.1826 20.8497 20.9925C20.9067 20.8023 20.9205 20.6019 20.8903 20.4057C20.8381 19.4915 20.3515 19.0674 19.4303 19.1161L18.61 19.1613Z" fill="white"/>
<path d="M26.1394 24.9247L22.9901 25.0985L22.6182 18.2124L25.6249 18.0491L25.6701 18.779L23.3586 18.9007L23.4767 21.1879L25.618 21.0732L25.6597 21.7962L23.5219 21.9075L23.654 24.3164L26.1046 24.1843L26.1394 24.9247Z" fill="white"/>
<path d="M31.3013 24.3582C30.8185 24.672 30.2573 24.8442 29.6815 24.8552C29.2928 24.8891 28.9016 24.8313 28.5394 24.6864C28.1771 24.5415 27.8539 24.3136 27.5959 24.021C27.0239 23.3386 26.7079 22.4781 26.7025 21.5877C26.5971 20.6295 26.8442 19.6657 27.3977 18.8764C27.6395 18.5379 27.9558 18.2593 28.3222 18.0623C28.6886 17.8652 29.0954 17.7549 29.5112 17.7398C29.9928 17.6884 30.4796 17.7602 30.9259 17.9483L30.9711 18.8069C30.5402 18.5544 30.0447 18.4336 29.5459 18.4593C29.2266 18.4699 28.9142 18.5549 28.6336 18.7076C28.3529 18.8603 28.1119 19.0764 27.9296 19.3387C27.5152 19.9767 27.3312 20.7371 27.4082 21.4939C27.4063 22.2123 27.6518 22.9095 28.1034 23.4683C28.2985 23.6972 28.5452 23.8765 28.8232 23.9913C29.1012 24.1061 29.4026 24.1532 29.7023 24.1287C30.2538 24.1099 30.7854 23.9177 31.2214 23.5795L31.3013 24.3582Z" fill="white"/>
<path d="M33.4283 17.6321L33.4631 18.3273L32.8791 18.3621L33.1746 23.8611L33.7586 23.8264L33.7933 24.5216L31.9406 24.6259L31.9059 23.9307L32.4898 23.8994L32.1944 18.3968L31.6104 18.4316L31.5791 17.7364L33.4283 17.6321Z" fill="white"/>
<path d="M39.3728 24.2087L38.5976 24.2539L37.8676 22.3595L35.3579 22.4985L34.8713 24.4625L34.0996 24.5042L36.0184 17.5034L36.7414 17.4583L39.3728 24.2087ZM37.6 21.6399L36.512 18.7444C36.4628 18.5982 36.4256 18.4482 36.4007 18.296H36.3834C36.369 18.4536 36.3458 18.6103 36.3138 18.7652L35.5491 21.7442L37.6 21.6399Z" fill="white"/>
<path d="M43.3179 23.9932L40.2416 24.16L39.8662 17.2775L40.5614 17.2393L40.909 23.3953L43.2901 23.2632L43.3179 23.9932Z" fill="white"/>
<path d="M13.4592 25.3487L13.407 24.4032C13.5127 24.498 13.6294 24.5797 13.7546 24.6465C13.8903 24.7175 14.0323 24.7756 14.1787 24.8203C14.3235 24.8665 14.4725 24.898 14.6236 24.9142C14.7593 24.9345 14.8967 24.9415 15.0338 24.935C15.3761 24.9407 15.709 24.8235 15.9723 24.6048C16.0755 24.499 16.1532 24.3711 16.1996 24.2307C16.246 24.0904 16.2598 23.9414 16.24 23.7949C16.2364 23.627 16.1923 23.4624 16.1114 23.3152C16.0251 23.1792 15.9197 23.0563 15.7985 22.9502C15.6525 22.8376 15.4979 22.7364 15.3362 22.6478C15.1624 22.5505 14.9712 22.4566 14.7696 22.3523C14.568 22.2481 14.3525 22.1264 14.1717 22.0047C13.9928 21.896 13.8292 21.7639 13.6851 21.6119C13.5401 21.47 13.4223 21.3027 13.3375 21.1183C13.1492 20.6403 13.1492 20.1086 13.3375 19.6306C13.4367 19.4018 13.5851 19.1977 13.772 19.0327C13.9583 18.8647 14.1772 18.7369 14.4151 18.6573C14.6537 18.5695 14.9048 18.5202 15.1589 18.5113C15.5986 18.454 16.0456 18.5127 16.4555 18.6816L16.5076 19.5854C16.0998 19.3089 15.6072 19.1858 15.1172 19.2378C14.9643 19.2489 14.8128 19.2757 14.6653 19.3178C14.5226 19.3625 14.3877 19.4294 14.2656 19.5159C14.1471 19.6059 14.0547 19.7259 13.9979 19.8635C13.9265 20.0153 13.8954 20.1829 13.9076 20.3501C13.9112 20.5075 13.9504 20.662 14.0223 20.802C14.0898 20.934 14.1818 21.052 14.2934 21.1496C14.4226 21.2567 14.561 21.3521 14.7071 21.4347C14.8739 21.5216 15.0547 21.6258 15.2736 21.7301C15.4926 21.8344 15.7012 21.9561 15.8993 22.0777C16.091 22.1928 16.2664 22.3331 16.4207 22.4949C16.5728 22.6476 16.6995 22.8236 16.7962 23.0163C16.8943 23.2294 16.9498 23.4597 16.9595 23.6941C16.9811 23.9891 16.9396 24.2853 16.8379 24.5631C16.7443 24.7951 16.5951 25.0004 16.4034 25.161C16.2117 25.3186 15.9908 25.4367 15.7533 25.5086C15.4933 25.5914 15.2231 25.6382 14.9504 25.6476C14.8347 25.6575 14.7184 25.6575 14.6028 25.6476C14.4606 25.6396 14.319 25.6234 14.1787 25.599C14.0375 25.5732 13.8982 25.5384 13.7616 25.4947C13.6549 25.4592 13.5533 25.4102 13.4592 25.3487Z" fill="#371400"/>
<path d="M18.8046 22.7138L18.9402 25.3138L18.245 25.3486L17.873 18.4661L19.5068 18.3792C19.776 18.3484 20.0486 18.3736 20.3076 18.4532C20.5666 18.5327 20.8064 18.6649 21.0119 18.8415C21.2063 19.0365 21.3601 19.268 21.4645 19.5228C21.5689 19.7775 21.6218 20.0504 21.6202 20.3257C21.6743 20.9143 21.4958 21.5007 21.1231 21.9595C20.9311 22.1791 20.6952 22.356 20.4305 22.4787C20.1659 22.6015 19.8784 22.6673 19.5867 22.6721L18.8046 22.7138ZM18.61 19.1613L18.7664 21.9873L19.4998 21.9421C19.6981 21.9527 19.8961 21.9189 20.0797 21.8433C20.2632 21.7676 20.4276 21.652 20.5608 21.5048C20.6939 21.3577 20.7926 21.1826 20.8497 20.9925C20.9067 20.8023 20.9205 20.6019 20.8903 20.4057C20.8381 19.4915 20.3515 19.0674 19.4303 19.1161L18.61 19.1613Z" fill="#371400"/>
<path d="M26.1394 24.9247L22.9901 25.0985L22.6182 18.2124L25.6249 18.0491L25.6701 18.779L23.3586 18.9007L23.4767 21.1879L25.618 21.0732L25.6597 21.7962L23.5219 21.9075L23.654 24.3164L26.1046 24.1843L26.1394 24.9247Z" fill="#371400"/>
<path d="M31.3013 24.3582C30.8185 24.672 30.2573 24.8442 29.6815 24.8552C29.2928 24.8891 28.9016 24.8313 28.5394 24.6864C28.1771 24.5415 27.8539 24.3136 27.5959 24.021C27.0239 23.3386 26.7079 22.4781 26.7025 21.5877C26.5971 20.6295 26.8442 19.6657 27.3977 18.8764C27.6395 18.5379 27.9558 18.2593 28.3222 18.0623C28.6886 17.8652 29.0954 17.7549 29.5112 17.7398C29.9928 17.6884 30.4796 17.7602 30.9259 17.9483L30.9711 18.8069C30.5402 18.5544 30.0447 18.4336 29.5459 18.4593C29.2266 18.4699 28.9142 18.5549 28.6336 18.7076C28.3529 18.8603 28.1119 19.0764 27.9296 19.3387C27.5152 19.9767 27.3312 20.7371 27.4082 21.4939C27.4063 22.2123 27.6518 22.9095 28.1034 23.4683C28.2985 23.6972 28.5452 23.8765 28.8232 23.9913C29.1012 24.1061 29.4026 24.1532 29.7023 24.1287C30.2538 24.1099 30.7854 23.9177 31.2214 23.5795L31.3013 24.3582Z" fill="#371400"/>
<path d="M33.4283 17.6321L33.4631 18.3273L32.8791 18.3621L33.1746 23.8611L33.7586 23.8264L33.7933 24.5216L31.9406 24.6259L31.9059 23.9307L32.4898 23.8994L32.1944 18.3968L31.6104 18.4316L31.5791 17.7364L33.4283 17.6321Z" fill="#371400"/>
<path d="M39.3728 24.2087L38.5976 24.2539L37.8676 22.3595L35.3579 22.4985L34.8713 24.4625L34.0996 24.5042L36.0184 17.5034L36.7414 17.4583L39.3728 24.2087ZM37.6 21.6399L36.512 18.7444C36.4628 18.5982 36.4256 18.4482 36.4007 18.296H36.3834C36.369 18.4536 36.3458 18.6103 36.3138 18.7652L35.5491 21.7442L37.6 21.6399Z" fill="#371400"/>
<path d="M43.3179 23.9932L40.2416 24.16L39.8662 17.2775L40.5614 17.2393L40.909 23.3953L43.2901 23.2632L43.3179 23.9932Z" fill="#371400"/>
<path d="M13.4592 25.3487L13.407 24.4032C13.5127 24.498 13.6294 24.5797 13.7546 24.6465C13.8903 24.7175 14.0323 24.7756 14.1787 24.8203C14.3235 24.8665 14.4725 24.898 14.6236 24.9142C14.7593 24.9345 14.8967 24.9415 15.0338 24.935C15.3761 24.9407 15.709 24.8235 15.9723 24.6048C16.0755 24.499 16.1532 24.3711 16.1996 24.2307C16.246 24.0904 16.2598 23.9414 16.24 23.7949C16.2364 23.627 16.1923 23.4624 16.1114 23.3152C16.0251 23.1792 15.9197 23.0563 15.7985 22.9502C15.6525 22.8376 15.4979 22.7364 15.3362 22.6478C15.1624 22.5505 14.9712 22.4566 14.7696 22.3523C14.568 22.2481 14.3525 22.1264 14.1717 22.0047C13.9928 21.896 13.8292 21.7639 13.6851 21.6119C13.5401 21.47 13.4223 21.3027 13.3375 21.1183C13.1492 20.6403 13.1492 20.1086 13.3375 19.6306C13.4367 19.4018 13.5851 19.1977 13.772 19.0327C13.9583 18.8647 14.1772 18.7369 14.4151 18.6573C14.6537 18.5695 14.9048 18.5202 15.1589 18.5113C15.5986 18.454 16.0456 18.5127 16.4555 18.6816L16.5076 19.5854C16.0998 19.3089 15.6072 19.1858 15.1172 19.2378C14.9643 19.2489 14.8128 19.2757 14.6653 19.3178C14.5226 19.3625 14.3877 19.4294 14.2656 19.5159C14.1471 19.6059 14.0547 19.7259 13.9979 19.8635C13.9265 20.0153 13.8954 20.1829 13.9076 20.3501C13.9112 20.5075 13.9504 20.662 14.0223 20.802C14.0898 20.934 14.1818 21.052 14.2934 21.1496C14.4226 21.2567 14.561 21.3521 14.7071 21.4347C14.8739 21.5216 15.0547 21.6258 15.2736 21.7301C15.4926 21.8344 15.7012 21.9561 15.8993 22.0777C16.091 22.1928 16.2664 22.3331 16.4207 22.4949C16.5728 22.6476 16.6995 22.8236 16.7962 23.0163C16.8943 23.2294 16.9498 23.4597 16.9595 23.6941C16.9811 23.9891 16.9396 24.2853 16.8379 24.5631C16.7443 24.7951 16.5951 25.0004 16.4034 25.161C16.2117 25.3186 15.9908 25.4367 15.7533 25.5086C15.4933 25.5914 15.2231 25.6382 14.9504 25.6476C14.8347 25.6575 14.7184 25.6575 14.6028 25.6476C14.4606 25.6396 14.319 25.6234 14.1787 25.599C14.0375 25.5732 13.8982 25.5384 13.7616 25.4947C13.6549 25.4592 13.5533 25.4102 13.4592 25.3487Z" fill="#371400"/>
<path d="M18.8046 22.7138L18.9402 25.3138L18.245 25.3486L17.873 18.4661L19.5068 18.3792C19.776 18.3484 20.0486 18.3736 20.3076 18.4532C20.5666 18.5327 20.8064 18.6649 21.0119 18.8415C21.2063 19.0365 21.3601 19.268 21.4645 19.5228C21.5689 19.7775 21.6218 20.0504 21.6202 20.3257C21.6743 20.9143 21.4958 21.5007 21.1231 21.9595C20.9311 22.1791 20.6952 22.356 20.4305 22.4787C20.1659 22.6015 19.8784 22.6673 19.5867 22.6721L18.8046 22.7138ZM18.61 19.1613L18.7664 21.9873L19.4998 21.9421C19.6981 21.9527 19.8961 21.9189 20.0797 21.8433C20.2632 21.7676 20.4276 21.652 20.5608 21.5048C20.6939 21.3577 20.7926 21.1826 20.8497 20.9925C20.9067 20.8023 20.9205 20.6019 20.8903 20.4057C20.8381 19.4915 20.3515 19.0674 19.4303 19.1161L18.61 19.1613Z" fill="#371400"/>
<path d="M26.1394 24.9247L22.9901 25.0985L22.6182 18.2124L25.6249 18.0491L25.6701 18.779L23.3586 18.9007L23.4767 21.1879L25.618 21.0732L25.6597 21.7962L23.5219 21.9075L23.654 24.3164L26.1046 24.1843L26.1394 24.9247Z" fill="#371400"/>
<path d="M31.3013 24.3582C30.8185 24.672 30.2573 24.8442 29.6815 24.8552C29.2928 24.8891 28.9016 24.8313 28.5394 24.6864C28.1771 24.5415 27.8539 24.3136 27.5959 24.021C27.0239 23.3386 26.7079 22.4781 26.7025 21.5877C26.5971 20.6295 26.8442 19.6657 27.3977 18.8764C27.6395 18.5379 27.9558 18.2593 28.3222 18.0623C28.6886 17.8652 29.0954 17.7549 29.5112 17.7398C29.9928 17.6884 30.4796 17.7602 30.9259 17.9483L30.9711 18.8069C30.5402 18.5544 30.0447 18.4336 29.5459 18.4593C29.2266 18.4699 28.9142 18.5549 28.6336 18.7076C28.3529 18.8603 28.1119 19.0764 27.9296 19.3387C27.5152 19.9767 27.3312 20.7371 27.4082 21.4939C27.4063 22.2123 27.6518 22.9095 28.1034 23.4683C28.2985 23.6972 28.5452 23.8765 28.8232 23.9913C29.1012 24.1061 29.4026 24.1532 29.7023 24.1287C30.2538 24.1099 30.7854 23.9177 31.2214 23.5795L31.3013 24.3582Z" fill="#371400"/>
<path d="M33.4283 17.6321L33.4631 18.3273L32.8791 18.3621L33.1746 23.8611L33.7586 23.8264L33.7933 24.5216L31.9406 24.6259L31.9059 23.9307L32.4898 23.8994L32.1944 18.3968L31.6104 18.4316L31.5791 17.7364L33.4283 17.6321Z" fill="#371400"/>
<path d="M39.3728 24.2087L38.5976 24.2539L37.8676 22.3595L35.3579 22.4985L34.8713 24.4625L34.0996 24.5042L36.0184 17.5034L36.7414 17.4583L39.3728 24.2087ZM37.6 21.6399L36.512 18.7444C36.4628 18.5982 36.4256 18.4482 36.4007 18.296H36.3834C36.369 18.4536 36.3458 18.6103 36.3138 18.7652L35.5491 21.7442L37.6 21.6399Z" fill="#371400"/>
<path d="M43.3179 23.9932L40.2416 24.16L39.8662 17.2775L40.5614 17.2393L40.909 23.3953L43.2901 23.2632L43.3179 23.9932Z" fill="#371400"/>
<path d="M13.4592 25.3487L13.407 24.4032C13.5127 24.498 13.6294 24.5797 13.7546 24.6465C13.8903 24.7175 14.0323 24.7756 14.1787 24.8203C14.3235 24.8665 14.4725 24.898 14.6236 24.9142C14.7593 24.9345 14.8967 24.9415 15.0338 24.935C15.3761 24.9407 15.709 24.8235 15.9723 24.6048C16.0755 24.499 16.1532 24.3711 16.1996 24.2307C16.246 24.0904 16.2598 23.9414 16.24 23.7949C16.2364 23.627 16.1923 23.4624 16.1114 23.3152C16.0251 23.1792 15.9197 23.0563 15.7985 22.9502C15.6525 22.8376 15.4979 22.7364 15.3362 22.6478C15.1624 22.5505 14.9712 22.4566 14.7696 22.3523C14.568 22.2481 14.3525 22.1264 14.1717 22.0047C13.9928 21.896 13.8292 21.7639 13.6851 21.6119C13.5401 21.47 13.4223 21.3027 13.3375 21.1183C13.1492 20.6403 13.1492 20.1086 13.3375 19.6306C13.4367 19.4018 13.5851 19.1977 13.772 19.0327C13.9583 18.8647 14.1772 18.7369 14.4151 18.6573C14.6537 18.5695 14.9048 18.5202 15.1589 18.5113C15.5986 18.454 16.0456 18.5127 16.4555 18.6816L16.5076 19.5854C16.0998 19.3089 15.6072 19.1858 15.1172 19.2378C14.9643 19.2489 14.8128 19.2757 14.6653 19.3178C14.5226 19.3625 14.3877 19.4294 14.2656 19.5159C14.1471 19.6059 14.0547 19.7259 13.9979 19.8635C13.9265 20.0153 13.8954 20.1829 13.9076 20.3501C13.9112 20.5075 13.9504 20.662 14.0223 20.802C14.0898 20.934 14.1818 21.052 14.2934 21.1496C14.4226 21.2567 14.561 21.3521 14.7071 21.4347C14.8739 21.5216 15.0547 21.6258 15.2736 21.7301C15.4926 21.8344 15.7012 21.9561 15.8993 22.0777C16.091 22.1928 16.2664 22.3331 16.4207 22.4949C16.5728 22.6476 16.6995 22.8236 16.7962 23.0163C16.8943 23.2294 16.9498 23.4597 16.9595 23.6941C16.9811 23.9891 16.9396 24.2853 16.8379 24.5631C16.7443 24.7951 16.5951 25.0004 16.4034 25.161C16.2117 25.3186 15.9908 25.4367 15.7533 25.5086C15.4933 25.5914 15.2231 25.6382 14.9504 25.6476C14.8347 25.6575 14.7184 25.6575 14.6028 25.6476C14.4606 25.6396 14.319 25.6234 14.1787 25.599C14.0375 25.5732 13.8982 25.5384 13.7616 25.4947C13.6549 25.4592 13.5533 25.4102 13.4592 25.3487Z" fill="#371400"/>
<path d="M18.8046 22.7138L18.9402 25.3138L18.245 25.3486L17.873 18.4661L19.5068 18.3792C19.776 18.3484 20.0486 18.3736 20.3076 18.4532C20.5666 18.5327 20.8064 18.6649 21.0119 18.8415C21.2063 19.0365 21.3601 19.268 21.4645 19.5228C21.5689 19.7775 21.6218 20.0504 21.6202 20.3257C21.6743 20.9143 21.4958 21.5007 21.1231 21.9595C20.9311 22.1791 20.6952 22.356 20.4305 22.4787C20.1659 22.6015 19.8784 22.6673 19.5867 22.6721L18.8046 22.7138ZM18.61 19.1613L18.7664 21.9873L19.4998 21.9421C19.6981 21.9527 19.8961 21.9189 20.0797 21.8433C20.2632 21.7676 20.4276 21.652 20.5608 21.5048C20.6939 21.3577 20.7926 21.1826 20.8497 20.9925C20.9067 20.8023 20.9205 20.6019 20.8903 20.4057C20.8381 19.4915 20.3515 19.0674 19.4303 19.1161L18.61 19.1613Z" fill="#371400"/>
<path d="M26.1394 24.9247L22.9901 25.0985L22.6182 18.2124L25.6249 18.0491L25.6701 18.779L23.3586 18.9007L23.4767 21.1879L25.618 21.0732L25.6597 21.7962L23.5219 21.9075L23.654 24.3164L26.1046 24.1843L26.1394 24.9247Z" fill="#371400"/>
<path d="M31.3013 24.3582C30.8185 24.672 30.2573 24.8442 29.6815 24.8552C29.2928 24.8891 28.9016 24.8313 28.5394 24.6864C28.1771 24.5415 27.8539 24.3136 27.5959 24.021C27.0239 23.3386 26.7079 22.4781 26.7025 21.5877C26.5971 20.6295 26.8442 19.6657 27.3977 18.8764C27.6395 18.5379 27.9558 18.2593 28.3222 18.0623C28.6886 17.8652 29.0954 17.7549 29.5112 17.7398C29.9928 17.6884 30.4796 17.7602 30.9259 17.9483L30.9711 18.8069C30.5402 18.5544 30.0447 18.4336 29.5459 18.4593C29.2266 18.4699 28.9142 18.5549 28.6336 18.7076C28.3529 18.8603 28.1119 19.0764 27.9296 19.3387C27.5152 19.9767 27.3312 20.7371 27.4082 21.4939C27.4063 22.2123 27.6518 22.9095 28.1034 23.4683C28.2985 23.6972 28.5452 23.8765 28.8232 23.9913C29.1012 24.1061 29.4026 24.1532 29.7023 24.1287C30.2538 24.1099 30.7854 23.9177 31.2214 23.5795L31.3013 24.3582Z" fill="#371400"/>
<path d="M33.4283 17.6321L33.4631 18.3273L32.8791 18.3621L33.1746 23.8611L33.7586 23.8264L33.7933 24.5216L31.9406 24.6259L31.9059 23.9307L32.4898 23.8994L32.1944 18.3968L31.6104 18.4316L31.5791 17.7364L33.4283 17.6321Z" fill="#371400"/>
<path d="M39.3728 24.2087L38.5976 24.2539L37.8676 22.3595L35.3579 22.4985L34.8713 24.4625L34.0996 24.5042L36.0184 17.5034L36.7414 17.4583L39.3728 24.2087ZM37.6 21.6399L36.512 18.7444C36.4628 18.5982 36.4256 18.4482 36.4007 18.296H36.3834C36.369 18.4536 36.3458 18.6103 36.3138 18.7652L35.5491 21.7442L37.6 21.6399Z" fill="#371400"/>
<path d="M43.3179 23.9932L40.2416 24.16L39.8662 17.2775L40.5614 17.2393L40.909 23.3953L43.2901 23.2632L43.3179 23.9932Z" fill="#371400"/>
<path d="M13.0134 26.5896L15.6483 27.2361L15.3806 31.4387L10.5732 27.5455L13.0134 26.5896Z" fill="#FEBE10"/>
</svg>
