<svg width="59" height="59" viewBox="0 0 59 59" fill="none" xmlns="http://www.w3.org/2000/svg">
<rect x="0.604492" y="0.929932" width="57.934" height="57.934" rx="5.74571" fill="white"/>
<path d="M32.0106 34.6478H12.597C11.3524 34.6478 10.1588 34.1534 9.27874 33.2733C8.39869 32.3933 7.9043 31.1997 7.9043 29.9551C7.9043 28.7105 8.39869 27.5169 9.27874 26.6369C10.1588 25.7568 11.3524 25.2625 12.597 25.2625H32.0211V34.6478H32.0106Z" fill="#001B62"/>
<path d="M51.3549 29.9551C51.3503 31.1983 50.8545 32.3892 49.9754 33.2682C49.0964 34.1473 47.9054 34.6432 46.6623 34.6478H32.0107V25.2625H46.6623C47.9054 25.267 49.0964 25.7629 49.9754 26.642C50.8545 27.521 51.3503 28.7119 51.3549 29.9551Z" fill="#FABD00"/>
<path d="M35.6781 31.7519C35.4448 31.7586 35.2129 31.713 34.9994 31.6186C34.7859 31.5242 34.5962 31.3833 34.4441 31.2062C34.1101 30.8046 33.9389 30.2923 33.9644 29.7706C33.9399 29.2239 34.114 28.6869 34.4545 28.2585C34.6095 28.0721 34.805 27.9235 35.026 27.8241C35.2471 27.7248 35.488 27.6771 35.7302 27.685C35.9626 27.6769 36.1937 27.7234 36.4049 27.8206C36.6162 27.9177 36.8017 28.063 36.9469 28.2446C37.2748 28.6544 37.4417 29.1699 37.4161 29.6941C37.4402 30.2349 37.2673 30.766 36.9295 31.1888C36.7778 31.372 36.5861 31.518 36.3692 31.6156C36.1522 31.7133 35.9159 31.7599 35.6781 31.7519ZM35.7129 28.4428C35.5822 28.4391 35.4528 28.4692 35.3371 28.5301C35.2215 28.591 35.1234 28.6806 35.0524 28.7904C34.8769 29.0682 34.7919 29.3937 34.8091 29.7219C34.7908 30.0459 34.876 30.3673 35.0524 30.6396C35.1225 30.7462 35.218 30.8337 35.3302 30.8944C35.4424 30.955 35.5679 30.9869 35.6955 30.9872C35.8244 30.9865 35.9513 30.9545 36.0651 30.894C36.1789 30.8334 36.2764 30.7461 36.349 30.6396C36.5237 30.3652 36.6087 30.0433 36.5923 29.7185C36.6115 29.3833 36.5291 29.0502 36.3559 28.7626C36.284 28.6598 36.1874 28.5766 36.0751 28.5208C35.9628 28.4649 35.8382 28.4381 35.7129 28.4428Z" fill="white"/>
<path d="M39.8418 28.4671H38.5973V29.4334H39.734V30.1565H38.5973V31.6929H37.7979V27.7476H39.8313V28.4671H39.8418Z" fill="white"/>
<path d="M42.2473 28.4671H41.0029V29.4334H42.1431V30.1565H41.0029V31.6929H40.2139V27.7476H42.2473V28.4671Z" fill="white"/>
<path d="M44.7433 31.6929H42.6299V27.7476H44.6634V28.4671H43.4294V29.3465H44.5765V30.0696H43.4294V30.9698H44.7503V31.6929H44.7433Z" fill="white"/>
<path d="M48.053 31.6933H47.1422L46.593 30.6783C46.5563 30.6066 46.5157 30.537 46.4714 30.4697C46.4373 30.4155 46.4001 30.3633 46.3601 30.3133C46.3257 30.2739 46.2845 30.2409 46.2385 30.216C46.196 30.1923 46.148 30.1803 46.0994 30.1812H45.8804V31.6933H45.0879V27.7375H46.3497C47.2002 27.7375 47.6266 28.0944 47.6289 28.8082C47.6299 28.9383 47.6087 29.0675 47.5663 29.1905C47.5312 29.3025 47.4784 29.4081 47.4099 29.5034C47.3413 29.5997 47.2552 29.6822 47.1561 29.7467C47.0593 29.8168 46.9511 29.8697 46.8363 29.9031C46.8912 29.9254 46.9437 29.9534 46.9928 29.9866C47.0443 30.0313 47.0909 30.0814 47.1318 30.136C47.1735 30.1882 47.2187 30.2507 47.2604 30.3098C47.3031 30.3683 47.3415 30.4299 47.3751 30.494L48.053 31.6933ZM45.8978 28.4189V29.5138H46.2454C46.3214 29.518 46.3973 29.5052 46.4676 29.4764C46.538 29.4475 46.601 29.4033 46.6521 29.347C46.7044 29.2919 46.7452 29.227 46.7721 29.1559C46.7989 29.0849 46.8113 29.0092 46.8085 28.9333C46.8085 28.5857 46.6278 28.4189 46.2524 28.4189H45.8978Z" fill="white"/>
<path d="M35.6781 31.7519C35.4448 31.7586 35.2129 31.713 34.9994 31.6186C34.7859 31.5242 34.5962 31.3833 34.4441 31.2062C34.1101 30.8046 33.9389 30.2923 33.9644 29.7706C33.9399 29.2239 34.114 28.6869 34.4545 28.2585C34.6095 28.0721 34.805 27.9235 35.026 27.8241C35.2471 27.7248 35.488 27.6771 35.7302 27.685C35.9626 27.6769 36.1937 27.7234 36.4049 27.8206C36.6162 27.9177 36.8017 28.063 36.9469 28.2446C37.2748 28.6544 37.4417 29.1699 37.4161 29.6941C37.4402 30.2349 37.2673 30.766 36.9295 31.1888C36.7778 31.372 36.5861 31.518 36.3692 31.6156C36.1522 31.7133 35.9159 31.7599 35.6781 31.7519ZM35.7129 28.4428C35.5822 28.4391 35.4528 28.4692 35.3371 28.5301C35.2215 28.591 35.1234 28.6806 35.0524 28.7904C34.8769 29.0682 34.7919 29.3937 34.8091 29.7219C34.7908 30.0459 34.876 30.3673 35.0524 30.6396C35.1225 30.7462 35.218 30.8337 35.3302 30.8944C35.4424 30.955 35.5679 30.9869 35.6955 30.9872C35.8244 30.9865 35.9513 30.9545 36.0651 30.894C36.1789 30.8334 36.2764 30.7461 36.349 30.6396C36.5237 30.3652 36.6087 30.0433 36.5923 29.7185C36.6115 29.3833 36.5291 29.0502 36.3559 28.7626C36.284 28.6598 36.1874 28.5766 36.0751 28.5208C35.9628 28.4649 35.8382 28.4381 35.7129 28.4428Z" fill="#001B62"/>
<path d="M39.8418 28.4671H38.5973V29.4334H39.734V30.1565H38.5973V31.6929H37.7979V27.7476H39.8313V28.4671H39.8418Z" fill="#001B62"/>
<path d="M42.2473 28.4671H41.0029V29.4334H42.1431V30.1565H41.0029V31.6929H40.2139V27.7476H42.2473V28.4671Z" fill="#001B62"/>
<path d="M44.7433 31.6929H42.6299V27.7476H44.6634V28.4671H43.4294V29.3465H44.5765V30.0696H43.4294V30.9698H44.7503V31.6929H44.7433Z" fill="#001B62"/>
<path d="M48.053 31.6933H47.1422L46.593 30.6783C46.5563 30.6066 46.5157 30.537 46.4714 30.4697C46.4373 30.4155 46.4001 30.3633 46.3601 30.3133C46.3257 30.2739 46.2845 30.2409 46.2385 30.216C46.196 30.1923 46.148 30.1803 46.0994 30.1812H45.8804V31.6933H45.0879V27.7375H46.3497C47.2002 27.7375 47.6266 28.0944 47.6289 28.8082C47.6299 28.9383 47.6087 29.0675 47.5663 29.1905C47.5312 29.3025 47.4784 29.4081 47.4099 29.5034C47.3413 29.5997 47.2552 29.6822 47.1561 29.7467C47.0593 29.8168 46.9511 29.8697 46.8363 29.9031C46.8912 29.9254 46.9437 29.9534 46.9928 29.9866C47.0443 30.0313 47.0909 30.0814 47.1318 30.136C47.1735 30.1882 47.2187 30.2507 47.2604 30.3098C47.3031 30.3683 47.3415 30.4299 47.3751 30.494L48.053 31.6933ZM45.8978 28.4189V29.5138H46.2454C46.3214 29.518 46.3973 29.5052 46.4676 29.4764C46.538 29.4475 46.601 29.4033 46.6521 29.347C46.7044 29.2919 46.7452 29.227 46.7721 29.1559C46.7989 29.0849 46.8113 29.0092 46.8085 28.9333C46.8085 28.5857 46.6278 28.4189 46.2524 28.4189H45.8978Z" fill="#001B62"/>
<path d="M35.6781 31.7519C35.4448 31.7586 35.2129 31.713 34.9994 31.6186C34.7859 31.5242 34.5962 31.3833 34.4441 31.2062C34.1101 30.8046 33.9389 30.2923 33.9644 29.7706C33.9399 29.2239 34.114 28.6869 34.4545 28.2585C34.6095 28.0721 34.805 27.9235 35.026 27.8241C35.2471 27.7248 35.488 27.6771 35.7302 27.685C35.9626 27.6769 36.1937 27.7234 36.4049 27.8206C36.6162 27.9177 36.8017 28.063 36.9469 28.2446C37.2748 28.6544 37.4417 29.1699 37.4161 29.6941C37.4402 30.2349 37.2673 30.766 36.9295 31.1888C36.7778 31.372 36.5861 31.518 36.3692 31.6156C36.1522 31.7133 35.9159 31.7599 35.6781 31.7519ZM35.7129 28.4428C35.5822 28.4391 35.4528 28.4692 35.3371 28.5301C35.2215 28.591 35.1234 28.6806 35.0524 28.7904C34.8769 29.0682 34.7919 29.3937 34.8091 29.7219C34.7908 30.0459 34.876 30.3673 35.0524 30.6396C35.1225 30.7462 35.218 30.8337 35.3302 30.8944C35.4424 30.955 35.5679 30.9869 35.6955 30.9872C35.8244 30.9865 35.9513 30.9545 36.0651 30.894C36.1789 30.8334 36.2764 30.7461 36.349 30.6396C36.5237 30.3652 36.6087 30.0433 36.5923 29.7185C36.6115 29.3833 36.5291 29.0502 36.3559 28.7626C36.284 28.6598 36.1874 28.5766 36.0751 28.5208C35.9628 28.4649 35.8382 28.4381 35.7129 28.4428Z" fill="#001B62"/>
<path d="M39.8418 28.4671H38.5973V29.4334H39.734V30.1565H38.5973V31.6929H37.7979V27.7476H39.8313V28.4671H39.8418Z" fill="#001B62"/>
<path d="M42.2473 28.4671H41.0029V29.4334H42.1431V30.1565H41.0029V31.6929H40.2139V27.7476H42.2473V28.4671Z" fill="#001B62"/>
<path d="M44.7433 31.6929H42.6299V27.7476H44.6634V28.4671H43.4294V29.3465H44.5765V30.0696H43.4294V30.9698H44.7503V31.6929H44.7433Z" fill="#001B62"/>
<path d="M48.053 31.6933H47.1422L46.593 30.6783C46.5563 30.6066 46.5157 30.537 46.4714 30.4697C46.4373 30.4155 46.4001 30.3633 46.3601 30.3133C46.3257 30.2739 46.2845 30.2409 46.2385 30.216C46.196 30.1923 46.148 30.1803 46.0994 30.1812H45.8804V31.6933H45.0879V27.7375H46.3497C47.2002 27.7375 47.6266 28.0944 47.6289 28.8082C47.6299 28.9383 47.6087 29.0675 47.5663 29.1905C47.5312 29.3025 47.4784 29.4081 47.4099 29.5034C47.3413 29.5997 47.2552 29.6822 47.1561 29.7467C47.0593 29.8168 46.9511 29.8697 46.8363 29.9031C46.8912 29.9254 46.9437 29.9534 46.9928 29.9866C47.0443 30.0313 47.0909 30.0814 47.1318 30.136C47.1735 30.1882 47.2187 30.2507 47.2604 30.3098C47.3031 30.3683 47.3415 30.4299 47.3751 30.494L48.053 31.6933ZM45.8978 28.4189V29.5138H46.2454C46.3214 29.518 46.3973 29.5052 46.4676 29.4764C46.538 29.4475 46.601 29.4033 46.6521 29.347C46.7044 29.2919 46.7452 29.227 46.7721 29.1559C46.7989 29.0849 46.8113 29.0092 46.8085 28.9333C46.8085 28.5857 46.6278 28.4189 46.2524 28.4189H45.8978Z" fill="#001B62"/>
<path d="M35.6781 31.7519C35.4448 31.7586 35.2129 31.713 34.9994 31.6186C34.7859 31.5242 34.5962 31.3833 34.4441 31.2062C34.1101 30.8046 33.9389 30.2923 33.9644 29.7706C33.9399 29.2239 34.114 28.6869 34.4545 28.2585C34.6095 28.0721 34.805 27.9235 35.026 27.8241C35.2471 27.7248 35.488 27.6771 35.7302 27.685C35.9626 27.6769 36.1937 27.7234 36.4049 27.8206C36.6162 27.9177 36.8017 28.063 36.9469 28.2446C37.2748 28.6544 37.4417 29.1699 37.4161 29.6941C37.4402 30.2349 37.2673 30.766 36.9295 31.1888C36.7778 31.372 36.5861 31.518 36.3692 31.6156C36.1522 31.7133 35.9159 31.7599 35.6781 31.7519ZM35.7129 28.4428C35.5822 28.4391 35.4528 28.4692 35.3371 28.5301C35.2215 28.591 35.1234 28.6806 35.0524 28.7904C34.8769 29.0682 34.7919 29.3937 34.8091 29.7219C34.7908 30.0459 34.876 30.3673 35.0524 30.6396C35.1225 30.7462 35.218 30.8337 35.3302 30.8944C35.4424 30.955 35.5679 30.9869 35.6955 30.9872C35.8244 30.9865 35.9513 30.9545 36.0651 30.894C36.1789 30.8334 36.2764 30.7461 36.349 30.6396C36.5237 30.3652 36.6087 30.0433 36.5923 29.7185C36.6115 29.3833 36.5291 29.0502 36.3559 28.7626C36.284 28.6598 36.1874 28.5766 36.0751 28.5208C35.9628 28.4649 35.8382 28.4381 35.7129 28.4428Z" fill="#001B62"/>
<path d="M39.8418 28.4671H38.5973V29.4334H39.734V30.1565H38.5973V31.6929H37.7979V27.7476H39.8313V28.4671H39.8418Z" fill="#001B62"/>
<path d="M42.2473 28.4671H41.0029V29.4334H42.1431V30.1565H41.0029V31.6929H40.2139V27.7476H42.2473V28.4671Z" fill="#001B62"/>
<path d="M44.7433 31.6929H42.6299V27.7476H44.6634V28.4671H43.4294V29.3465H44.5765V30.0696H43.4294V30.9698H44.7503V31.6929H44.7433Z" fill="#001B62"/>
<path d="M48.053 31.6933H47.1422L46.593 30.6783C46.5563 30.6066 46.5157 30.537 46.4714 30.4697C46.4373 30.4155 46.4001 30.3633 46.3601 30.3133C46.3257 30.2739 46.2845 30.2409 46.2385 30.216C46.196 30.1923 46.148 30.1803 46.0994 30.1812H45.8804V31.6933H45.0879V27.7375H46.3497C47.2002 27.7375 47.6266 28.0944 47.6289 28.8082C47.6299 28.9383 47.6087 29.0675 47.5663 29.1905C47.5312 29.3025 47.4784 29.4081 47.4099 29.5034C47.3413 29.5997 47.2552 29.6822 47.1561 29.7467C47.0593 29.8168 46.9511 29.8697 46.8363 29.9031C46.8912 29.9254 46.9437 29.9534 46.9928 29.9866C47.0443 30.0313 47.0909 30.0814 47.1318 30.136C47.1735 30.1882 47.2187 30.2507 47.2604 30.3098C47.3031 30.3683 47.3415 30.4299 47.3751 30.494L48.053 31.6933ZM45.8978 28.4189V29.5138H46.2454C46.3214 29.518 46.3973 29.5052 46.4676 29.4764C46.538 29.4475 46.601 29.4033 46.6521 29.347C46.7044 29.2919 46.7452 29.227 46.7721 29.1559C46.7989 29.0849 46.8113 29.0092 46.8085 28.9333C46.8085 28.5857 46.6278 28.4189 46.2524 28.4189H45.8978Z" fill="#001B62"/>
<path d="M12.6212 31.5193V30.9979C12.6797 31.0556 12.7451 31.1058 12.8159 31.1474C12.8904 31.1906 12.9683 31.2278 13.0488 31.2586C13.1286 31.2861 13.2098 31.3094 13.2921 31.3282C13.3663 31.3443 13.4421 31.3524 13.5181 31.3525C13.7108 31.3691 13.9029 31.3133 14.0568 31.1961C14.119 31.1399 14.1675 31.0703 14.1988 30.9927C14.2301 30.915 14.2434 30.8312 14.2376 30.7477C14.2422 30.6536 14.2218 30.5601 14.1785 30.4765C14.1347 30.3993 14.0796 30.329 14.0151 30.268C13.9362 30.2001 13.8513 30.1396 13.7614 30.0872C13.6606 30.02 13.5562 29.9585 13.4485 29.903C13.3373 29.8334 13.2226 29.7639 13.1009 29.6944C13.0025 29.6307 12.9146 29.5522 12.8402 29.4615C12.7673 29.3752 12.7087 29.2778 12.6664 29.173C12.6222 29.0529 12.601 28.9255 12.6039 28.7976C12.5995 28.6379 12.6367 28.4798 12.7116 28.3387C12.7752 28.2151 12.864 28.1062 12.9723 28.019C13.0821 27.9308 13.2086 27.8657 13.3443 27.8278C13.4814 27.7844 13.6245 27.7633 13.7683 27.7652C14.0174 27.7457 14.2672 27.7938 14.4913 27.9042V28.4187C14.2741 28.2564 14.008 28.1731 13.737 28.1823C13.6478 28.1821 13.559 28.1938 13.4729 28.2171C13.3902 28.233 13.3126 28.2688 13.2469 28.3214C13.1788 28.3677 13.1227 28.4297 13.0835 28.5021C13.04 28.5856 13.0196 28.6792 13.0244 28.7733C13.0221 28.8626 13.0387 28.9515 13.0731 29.034C13.1106 29.1077 13.1586 29.1756 13.2156 29.2356C13.2842 29.3004 13.3586 29.3586 13.4381 29.4094L13.7544 29.5901C13.8747 29.6559 13.9908 29.729 14.102 29.8091C14.205 29.8804 14.2984 29.9645 14.3801 30.0594C14.4602 30.1489 14.5248 30.2511 14.5713 30.3618C14.6166 30.4854 14.6402 30.616 14.6408 30.7477C14.6444 30.9136 14.6124 31.0783 14.5469 31.2308C14.4899 31.3596 14.4 31.4711 14.2862 31.5541C14.171 31.6381 14.0414 31.7005 13.9039 31.7383C13.7543 31.7709 13.6016 31.7872 13.4485 31.787C13.3822 31.7851 13.316 31.7793 13.2504 31.7696C13.1708 31.7608 13.0918 31.7468 13.014 31.7279C12.9386 31.7089 12.8644 31.6857 12.7916 31.6584C12.729 31.5889 12.6664 31.5541 12.6212 31.5193Z" fill="white"/>
<path d="M15.7253 30.216V31.6934H15.3359V27.8002H16.2571C16.4093 27.7921 16.5616 27.8147 16.7049 27.8666C16.8483 27.9186 16.9797 27.9988 17.0913 28.1026C17.1944 28.218 17.2736 28.3527 17.3243 28.4989C17.375 28.645 17.3962 28.7998 17.3868 28.9542C17.3942 29.2895 17.2693 29.6141 17.0392 29.858C16.9254 29.9766 16.7872 30.0691 16.6341 30.1291C16.4811 30.1891 16.3169 30.2152 16.1528 30.2056H15.7253V30.216ZM15.7253 28.2069V29.7989H16.1354C16.2476 29.808 16.3605 29.7932 16.4665 29.7554C16.5726 29.7177 16.6695 29.6579 16.7507 29.5799C16.9011 29.414 16.9799 29.1953 16.9697 28.9716C16.9811 28.8669 16.9686 28.7609 16.9331 28.6617C16.8976 28.5625 16.8399 28.4727 16.7646 28.399C16.6893 28.3254 16.5982 28.2698 16.4982 28.2365C16.3983 28.2032 16.292 28.1931 16.1876 28.2069H15.7253Z" fill="white"/>
<path d="M19.7679 31.6935H17.9951V27.8003H19.6879V28.2174H18.3844V29.514H19.5941V29.9241H18.3844V31.2798H19.7748L19.7679 31.6935Z" fill="white"/>
<path d="M22.6774 31.5196C22.3963 31.6764 22.078 31.7544 21.7563 31.7456C21.5375 31.7551 21.3196 31.7117 21.1211 31.6191C20.9227 31.5265 20.7494 31.3875 20.6161 31.2137C20.3175 30.8136 20.1675 30.322 20.192 29.8233C20.1678 29.2804 20.3407 28.7471 20.6787 28.3217C20.8244 28.1377 21.0106 27.9899 21.2229 27.8898C21.4351 27.7897 21.6676 27.74 21.9023 27.7446C22.1742 27.7355 22.4444 27.7902 22.6913 27.9045V28.3877C22.4567 28.2348 22.1824 28.1538 21.9023 28.1548C21.7233 28.1493 21.5455 28.1868 21.384 28.2643C21.2226 28.3417 21.082 28.4567 20.9742 28.5997C20.7251 28.9443 20.6023 29.3641 20.6266 29.7886C20.6069 30.1942 20.7299 30.5939 20.9742 30.9183C21.0766 31.0523 21.2095 31.16 21.3618 31.2325C21.5141 31.3051 21.6815 31.3403 21.8501 31.3354C22.1603 31.344 22.4649 31.2526 22.7191 31.0747L22.6948 31.5266L22.6774 31.5196Z" fill="white"/>
<path d="M24.0848 27.8003V28.1896H23.7546V31.2937H24.0848V31.6935H23.042V31.3041H23.3896V28.2H23.042V27.8003H24.0848Z" fill="white"/>
<path d="M27.2315 31.693H26.7969L26.4493 30.6085H25.0311L24.6835 31.693H24.249L25.5351 27.8103H25.9419L27.2315 31.693ZM26.3103 30.1914L25.8063 28.5298C25.782 28.4445 25.7646 28.3573 25.7541 28.2691C25.7541 28.3804 25.7159 28.4673 25.702 28.5298L25.1806 30.181L26.3103 30.1914Z" fill="white"/>
<path d="M29.4558 31.6935H27.7178V27.8003H28.1106V31.2763H29.4558V31.6935Z" fill="white"/>
</svg>
