<svg width="39" height="44" viewBox="0 0 39 44" fill="none" xmlns="http://www.w3.org/2000/svg">
<path d="M35.4255 0.0473633V23.5785L19.6906 39.3239L3.95215 23.5785V0.0473633H19.6906H35.4255Z" fill="#371400"/>
<path d="M19.691 37.0126L19.6388 36.9605L5.65918 22.9704V1.09717H5.80516V22.9078L19.691 36.8041L33.5768 22.9078V1.09717H33.7263V22.9704L33.7054 22.9947L19.691 37.0126Z" fill="white"/>
<path d="M10.7299 17.4369C10.3268 17.4485 9.92636 17.3692 9.55812 17.205C9.18988 17.0407 8.86334 16.7957 8.6027 16.488C8.03262 15.7912 7.73824 14.9093 7.77546 14.0098C7.7332 13.0691 8.02912 12.1443 8.60965 11.4029C8.87958 11.0795 9.21945 10.8217 9.6036 10.6489C9.98776 10.4761 10.4062 10.3928 10.8272 10.4054C11.2276 10.3927 11.6255 10.4723 11.9901 10.638C12.3548 10.8038 12.6764 11.0512 12.9301 11.3612C13.4923 12.0743 13.7763 12.9674 13.7295 13.8742C13.7757 14.8069 13.479 15.7243 12.8953 16.4533C12.6334 16.7716 12.3021 17.0258 11.9267 17.1963C11.5514 17.3668 11.142 17.4491 10.7299 17.4369ZM10.782 11.7157C10.5545 11.7115 10.3298 11.7655 10.129 11.8725C9.92825 11.9796 9.75821 12.1362 9.63501 12.3275C9.35705 12.8145 9.21085 13.3656 9.21085 13.9264C9.21085 14.4871 9.35705 15.0382 9.63501 15.5252C9.76015 15.7048 9.92651 15.8518 10.1202 15.9539C10.3138 16.0559 10.5291 16.1101 10.748 16.1118C10.9669 16.1135 11.183 16.0627 11.3782 15.9637C11.5734 15.8646 11.742 15.7202 11.8699 15.5426C12.1721 15.0726 12.3181 14.5191 12.287 13.9611C12.3231 13.3853 12.1837 12.8121 11.8873 12.3171C11.7721 12.1286 11.6093 11.9739 11.4152 11.8683C11.2212 11.7628 11.0028 11.7101 10.782 11.7157Z" fill="white"/>
<path d="M17.9081 11.7607H15.7636V13.4291H17.7343V14.6734H15.7636V17.3115H14.3906V10.5164H17.9012V11.7607H17.9081Z" fill="white"/>
<path d="M22.0721 11.7607H19.924V13.4291H21.8983V14.6734H19.924V17.3115H18.5615V10.5164H22.0721V11.7607Z" fill="white"/>
<path d="M26.3751 17.3115H22.7324V10.5164H26.2326V11.7607H24.0949V13.2727H26.0866V14.5135H24.0949V16.0707H26.3751V17.3115Z" fill="white"/>
<path d="M32.0996 17.3117H30.525L29.5796 15.5738C29.5101 15.4452 29.4406 15.32 29.378 15.2262C29.3205 15.131 29.2541 15.0414 29.1799 14.9586C29.1203 14.8897 29.0498 14.831 28.9713 14.7848C28.9004 14.7412 28.8182 14.7194 28.735 14.7222H28.3874V17.3221H26.9971V10.5095H29.1694C30.6467 10.5095 31.387 11.1282 31.387 12.3586C31.3871 12.5835 31.3543 12.8072 31.2897 13.0225C31.2257 13.2149 31.1331 13.3965 31.0151 13.5613C30.8959 13.7223 30.7515 13.8632 30.5876 13.9784C30.4115 14.095 30.221 14.1885 30.021 14.2564C30.1156 14.2981 30.2044 14.3518 30.2852 14.4163C30.3737 14.4911 30.4541 14.575 30.525 14.6666C30.6038 14.7639 30.6803 14.8647 30.7544 14.969C30.8204 15.0837 30.89 15.188 30.9525 15.2922L32.0996 17.3117ZM28.3804 11.667V13.5613H28.9679C29.0976 13.5655 29.2267 13.542 29.3466 13.4922C29.4665 13.4425 29.5744 13.3676 29.663 13.2728C29.8405 13.0853 29.9378 12.8358 29.9341 12.5776C29.9341 11.9867 29.6109 11.6843 28.9783 11.6843L28.3804 11.667Z" fill="white"/>
<path d="M10.7299 17.4369C10.3268 17.4485 9.92636 17.3692 9.55812 17.205C9.18988 17.0407 8.86334 16.7957 8.6027 16.488C8.03262 15.7912 7.73824 14.9093 7.77546 14.0098C7.7332 13.0691 8.02912 12.1443 8.60965 11.4029C8.87958 11.0795 9.21945 10.8217 9.6036 10.6489C9.98776 10.4761 10.4062 10.3928 10.8272 10.4054C11.2276 10.3927 11.6255 10.4723 11.9901 10.638C12.3548 10.8038 12.6764 11.0512 12.9301 11.3612C13.4923 12.0743 13.7763 12.9674 13.7295 13.8742C13.7757 14.8069 13.479 15.7243 12.8953 16.4533C12.6334 16.7716 12.3021 17.0258 11.9267 17.1963C11.5514 17.3668 11.142 17.4491 10.7299 17.4369ZM10.782 11.7157C10.5545 11.7115 10.3298 11.7655 10.129 11.8725C9.92825 11.9796 9.75821 12.1362 9.63501 12.3275C9.35705 12.8145 9.21085 13.3656 9.21085 13.9264C9.21085 14.4871 9.35705 15.0382 9.63501 15.5252C9.76015 15.7048 9.92651 15.8518 10.1202 15.9539C10.3138 16.0559 10.5291 16.1101 10.748 16.1118C10.9669 16.1135 11.183 16.0627 11.3782 15.9637C11.5734 15.8646 11.742 15.7202 11.8699 15.5426C12.1721 15.0726 12.3181 14.5191 12.287 13.9611C12.3231 13.3853 12.1837 12.8121 11.8873 12.3171C11.7721 12.1286 11.6093 11.9739 11.4152 11.8683C11.2212 11.7628 11.0028 11.7101 10.782 11.7157Z" fill="#FEBE10"/>
<path d="M17.9081 11.7607H15.7636V13.4291H17.7343V14.6734H15.7636V17.3115H14.3906V10.5164H17.9012V11.7607H17.9081Z" fill="#FEBE10"/>
<path d="M22.0721 11.7607H19.924V13.4291H21.8983V14.6734H19.924V17.3115H18.5615V10.5164H22.0721V11.7607Z" fill="#FEBE10"/>
<path d="M26.3751 17.3115H22.7324V10.5164H26.2326V11.7607H24.0949V13.2727H26.0866V14.5135H24.0949V16.0707H26.3751V17.3115Z" fill="#FEBE10"/>
<path d="M32.0996 17.3117H30.525L29.5796 15.5738C29.5101 15.4452 29.4406 15.32 29.378 15.2262C29.3205 15.131 29.2541 15.0414 29.1799 14.9586C29.1203 14.8897 29.0498 14.831 28.9713 14.7848C28.9004 14.7412 28.8182 14.7194 28.735 14.7222H28.3874V17.3221H26.9971V10.5095H29.1694C30.6467 10.5095 31.387 11.1282 31.387 12.3586C31.3871 12.5835 31.3543 12.8072 31.2897 13.0225C31.2257 13.2149 31.1331 13.3965 31.0151 13.5613C30.8959 13.7223 30.7515 13.8632 30.5876 13.9784C30.4115 14.095 30.221 14.1885 30.021 14.2564C30.1156 14.2981 30.2044 14.3518 30.2852 14.4163C30.3737 14.4911 30.4541 14.575 30.525 14.6666C30.6038 14.7639 30.6803 14.8647 30.7544 14.969C30.8204 15.0837 30.89 15.188 30.9525 15.2922L32.0996 17.3117ZM28.3804 11.667V13.5613H28.9679C29.0976 13.5655 29.2267 13.542 29.3466 13.4922C29.4665 13.4425 29.5744 13.3676 29.663 13.2728C29.8405 13.0853 29.9378 12.8358 29.9341 12.5776C29.9341 11.9867 29.6109 11.6843 28.9783 11.6843L28.3804 11.667Z" fill="#FEBE10"/>
<path d="M10.7299 17.4369C10.3268 17.4485 9.92636 17.3692 9.55812 17.205C9.18988 17.0407 8.86334 16.7957 8.6027 16.488C8.03262 15.7912 7.73824 14.9093 7.77546 14.0098C7.7332 13.0691 8.02912 12.1443 8.60965 11.4029C8.87958 11.0795 9.21945 10.8217 9.6036 10.6489C9.98776 10.4761 10.4062 10.3928 10.8272 10.4054C11.2276 10.3927 11.6255 10.4723 11.9901 10.638C12.3548 10.8038 12.6764 11.0512 12.9301 11.3612C13.4923 12.0743 13.7763 12.9674 13.7295 13.8742C13.7757 14.8069 13.479 15.7243 12.8953 16.4533C12.6334 16.7716 12.3021 17.0258 11.9267 17.1963C11.5514 17.3668 11.142 17.4491 10.7299 17.4369ZM10.782 11.7157C10.5545 11.7115 10.3298 11.7655 10.129 11.8725C9.92825 11.9796 9.75821 12.1362 9.63501 12.3275C9.35705 12.8145 9.21085 13.3656 9.21085 13.9264C9.21085 14.4871 9.35705 15.0382 9.63501 15.5252C9.76015 15.7048 9.92651 15.8518 10.1202 15.9539C10.3138 16.0559 10.5291 16.1101 10.748 16.1118C10.9669 16.1135 11.183 16.0627 11.3782 15.9637C11.5734 15.8646 11.742 15.7202 11.8699 15.5426C12.1721 15.0726 12.3181 14.5191 12.287 13.9611C12.3231 13.3853 12.1837 12.8121 11.8873 12.3171C11.7721 12.1286 11.6093 11.9739 11.4152 11.8683C11.2212 11.7628 11.0028 11.7101 10.782 11.7157Z" fill="#FEBE10"/>
<path d="M17.9081 11.7607H15.7636V13.4291H17.7343V14.6734H15.7636V17.3115H14.3906V10.5164H17.9012V11.7607H17.9081Z" fill="#FEBE10"/>
<path d="M22.0721 11.7607H19.924V13.4291H21.8983V14.6734H19.924V17.3115H18.5615V10.5164H22.0721V11.7607Z" fill="#FEBE10"/>
<path d="M26.3751 17.3115H22.7324V10.5164H26.2326V11.7607H24.0949V13.2727H26.0866V14.5135H24.0949V16.0707H26.3751V17.3115Z" fill="#FEBE10"/>
<path d="M32.0996 17.3117H30.525L29.5796 15.5738C29.5101 15.4452 29.4406 15.32 29.378 15.2262C29.3205 15.131 29.2541 15.0414 29.1799 14.9586C29.1203 14.8897 29.0498 14.831 28.9713 14.7848C28.9004 14.7412 28.8182 14.7194 28.735 14.7222H28.3874V17.3221H26.9971V10.5095H29.1694C30.6467 10.5095 31.387 11.1282 31.387 12.3586C31.3871 12.5835 31.3543 12.8072 31.2897 13.0225C31.2257 13.2149 31.1331 13.3965 31.0151 13.5613C30.8959 13.7223 30.7515 13.8632 30.5876 13.9784C30.4115 14.095 30.221 14.1885 30.021 14.2564C30.1156 14.2981 30.2044 14.3518 30.2852 14.4163C30.3737 14.4911 30.4541 14.575 30.525 14.6666C30.6038 14.7639 30.6803 14.8647 30.7544 14.969C30.8204 15.0837 30.89 15.188 30.9525 15.2922L32.0996 17.3117ZM28.3804 11.667V13.5613H28.9679C29.0976 13.5655 29.2267 13.542 29.3466 13.4922C29.4665 13.4425 29.5744 13.3676 29.663 13.2728C29.8405 13.0853 29.9378 12.8358 29.9341 12.5776C29.9341 11.9867 29.6109 11.6843 28.9783 11.6843L28.3804 11.667Z" fill="#FEBE10"/>
<path d="M10.7299 17.4369C10.3268 17.4485 9.92636 17.3692 9.55812 17.205C9.18988 17.0407 8.86334 16.7957 8.6027 16.488C8.03262 15.7912 7.73824 14.9093 7.77546 14.0098C7.7332 13.0691 8.02912 12.1443 8.60965 11.4029C8.87958 11.0795 9.21945 10.8217 9.6036 10.6489C9.98776 10.4761 10.4062 10.3928 10.8272 10.4054C11.2276 10.3927 11.6255 10.4723 11.9901 10.638C12.3548 10.8038 12.6764 11.0512 12.9301 11.3612C13.4923 12.0743 13.7763 12.9674 13.7295 13.8742C13.7757 14.8069 13.479 15.7243 12.8953 16.4533C12.6334 16.7716 12.3021 17.0258 11.9267 17.1963C11.5514 17.3668 11.142 17.4491 10.7299 17.4369ZM10.782 11.7157C10.5545 11.7115 10.3298 11.7655 10.129 11.8725C9.92825 11.9796 9.75821 12.1362 9.63501 12.3275C9.35705 12.8145 9.21085 13.3656 9.21085 13.9264C9.21085 14.4871 9.35705 15.0382 9.63501 15.5252C9.76015 15.7048 9.92651 15.8518 10.1202 15.9539C10.3138 16.0559 10.5291 16.1101 10.748 16.1118C10.9669 16.1135 11.183 16.0627 11.3782 15.9637C11.5734 15.8646 11.742 15.7202 11.8699 15.5426C12.1721 15.0726 12.3181 14.5191 12.287 13.9611C12.3231 13.3853 12.1837 12.8121 11.8873 12.3171C11.7721 12.1286 11.6093 11.9739 11.4152 11.8683C11.2212 11.7628 11.0028 11.7101 10.782 11.7157Z" fill="#FEBE10"/>
<path d="M17.9081 11.7607H15.7636V13.4291H17.7343V14.6734H15.7636V17.3115H14.3906V10.5164H17.9012V11.7607H17.9081Z" fill="#FEBE10"/>
<path d="M22.0721 11.7607H19.924V13.4291H21.8983V14.6734H19.924V17.3115H18.5615V10.5164H22.0721V11.7607Z" fill="#FEBE10"/>
<path d="M26.3751 17.3115H22.7324V10.5164H26.2326V11.7607H24.0949V13.2727H26.0866V14.5135H24.0949V16.0707H26.3751V17.3115Z" fill="#FEBE10"/>
<path d="M32.0996 17.3117H30.525L29.5796 15.5738C29.5101 15.4452 29.4406 15.32 29.378 15.2262C29.3205 15.131 29.2541 15.0414 29.1799 14.9586C29.1203 14.8897 29.0498 14.831 28.9713 14.7848C28.9004 14.7412 28.8182 14.7194 28.735 14.7222H28.3874V17.3221H26.9971V10.5095H29.1694C30.6467 10.5095 31.387 11.1282 31.387 12.3586C31.3871 12.5835 31.3543 12.8072 31.2897 13.0225C31.2257 13.2149 31.1331 13.3965 31.0151 13.5613C30.8959 13.7223 30.7515 13.8632 30.5876 13.9784C30.4115 14.095 30.221 14.1885 30.021 14.2564C30.1156 14.2981 30.2044 14.3518 30.2852 14.4163C30.3737 14.4911 30.4541 14.575 30.525 14.6666C30.6038 14.7639 30.6803 14.8647 30.7544 14.969C30.8204 15.0837 30.89 15.188 30.9525 15.2922L32.0996 17.3117ZM28.3804 11.667V13.5613H28.9679C29.0976 13.5655 29.2267 13.542 29.3466 13.4922C29.4665 13.4425 29.5744 13.3676 29.663 13.2728C29.8405 13.0853 29.9378 12.8358 29.9341 12.5776C29.9341 11.9867 29.6109 11.6843 28.9783 11.6843L28.3804 11.667Z" fill="#FEBE10"/>
<path d="M8.10547 7.97228V7.21455C8.18584 7.29619 8.27707 7.36635 8.37658 7.42309C8.48176 7.48498 8.59226 7.53733 8.70678 7.57951C8.81867 7.62474 8.93524 7.65739 9.05436 7.67684C9.16112 7.69627 9.26915 7.70788 9.3776 7.71159C9.65061 7.73372 9.92237 7.6559 10.1423 7.49261C10.2278 7.41192 10.2945 7.31345 10.3377 7.20414C10.381 7.09483 10.3997 6.97735 10.3925 6.86002C10.3938 6.72753 10.3641 6.59659 10.3056 6.47769C10.2472 6.36254 10.1669 6.25984 10.0693 6.17529C9.96152 6.0781 9.84519 5.99085 9.72171 5.91461C9.58268 5.82771 9.44365 5.74082 9.28724 5.65392C9.13083 5.56703 8.96399 5.45581 8.82843 5.35849C8.68914 5.25892 8.56302 5.14214 8.45305 5.01091C8.34755 4.88895 8.26298 4.75034 8.20279 4.60075C8.13812 4.42869 8.10743 4.24574 8.11242 4.062C8.10533 3.83688 8.1543 3.61353 8.25493 3.41203C8.34226 3.23272 8.46948 3.07577 8.62684 2.95322C8.78434 2.83044 8.96357 2.73847 9.15516 2.68212C9.35004 2.62289 9.55279 2.59359 9.75647 2.59522C10.1154 2.56927 10.4748 2.63756 10.7992 2.79335V3.5163C10.4917 3.27812 10.1105 3.15515 9.72171 3.16872C9.59899 3.17059 9.47673 3.18456 9.35675 3.21043C9.24003 3.23795 9.13008 3.28881 9.0335 3.3599C8.93931 3.42904 8.8601 3.51653 8.80063 3.61711C8.73754 3.73558 8.70753 3.86884 8.71373 4.00292C8.71197 4.12802 8.73562 4.25218 8.78324 4.36787C8.82769 4.47419 8.89539 4.5692 8.98137 4.64593C9.08012 4.73734 9.1885 4.81775 9.30461 4.88576C9.43322 4.96571 9.57225 5.0526 9.73909 5.14645C9.90593 5.24029 10.0693 5.34805 10.2257 5.45232C10.3739 5.54977 10.5083 5.66667 10.6254 5.7999C10.7392 5.9294 10.8297 6.07756 10.8931 6.23785C10.9675 6.40988 11.0031 6.59621 10.9973 6.78356C11.0092 7.02321 10.9615 7.26208 10.8583 7.47872C10.7719 7.65962 10.6446 7.81791 10.4864 7.94101C10.3262 8.06187 10.1428 8.14826 9.94764 8.19473C9.73711 8.24575 9.52124 8.27141 9.30461 8.27119C9.22467 8.27119 9.14126 8.27119 9.02655 8.25381C8.91185 8.23644 8.80063 8.21906 8.67897 8.19473C8.57075 8.16792 8.46401 8.13542 8.3592 8.0974C8.27064 8.06429 8.18564 8.02238 8.10547 7.97228Z" fill="white"/>
<path d="M12.4848 6.1302V8.21568H11.9287V2.6961H13.2356C13.4513 2.68282 13.6675 2.7139 13.8708 2.78743C14.074 2.86096 14.2601 2.97538 14.4174 3.12362C14.5628 3.2893 14.6742 3.48202 14.7452 3.69075C14.8162 3.89948 14.8453 4.12015 14.831 4.34015C14.8518 4.81019 14.687 5.26958 14.3722 5.61926C14.2103 5.78528 14.0151 5.9151 13.7995 6.00017C13.5838 6.08525 13.3525 6.12364 13.1209 6.11282H12.4848V6.1302ZM12.4848 3.29047V5.54974H13.0861C13.2457 5.56016 13.4058 5.53845 13.5568 5.48591C13.7079 5.43337 13.8469 5.35107 13.9655 5.24387C14.0712 5.12852 14.1524 4.99301 14.2044 4.84548C14.2563 4.69795 14.2779 4.54143 14.2679 4.38534C14.2679 3.65542 13.896 3.30089 13.1557 3.30089H12.5022L12.4848 3.29047Z" fill="white"/>
<path d="M18.2405 8.21562H15.7275V2.69604H18.1363V3.27998H16.2837V5.11521H17.9938V5.69566H16.2837V7.62473H18.2405V8.21562Z" fill="white"/>
<path d="M22.3737 7.97225C21.9758 8.20021 21.5215 8.31105 21.0633 8.29202C20.7534 8.30364 20.4451 8.24131 20.1641 8.11015C19.883 7.97899 19.6372 7.78278 19.4471 7.53778C19.0183 6.96909 18.803 6.26785 18.8388 5.55657C18.8064 4.78368 19.0531 4.02495 19.534 3.41896C19.7429 3.16011 20.0079 2.95209 20.3089 2.81059C20.61 2.6691 20.9392 2.59782 21.2719 2.60214C21.6573 2.59095 22.0402 2.66824 22.3911 2.82807V3.52323C22.0574 3.30851 21.6686 3.19503 21.2719 3.19651C21.0171 3.18824 20.7641 3.2414 20.5342 3.3515C20.3043 3.4616 20.1043 3.62542 19.9511 3.8291C19.59 4.31838 19.4106 4.91812 19.4436 5.5253C19.4099 6.09814 19.5798 6.66444 19.9233 7.12416C20.0677 7.31607 20.2561 7.47054 20.4726 7.57456C20.6892 7.67859 20.9275 7.72915 21.1676 7.72201C21.6052 7.73857 22.0369 7.61696 22.4015 7.37443L22.3806 8.00007L22.3737 7.97225Z" fill="white"/>
<path d="M24.365 2.69604V3.25564H23.9027V7.65254H24.365V8.21562H22.8809V7.6595H23.3397V3.25564H22.8809V2.69604H24.365Z" fill="white"/>
<path d="M28.8138 8.21558H28.1951L27.6842 6.65147H25.6786L25.2163 8.21558H24.5977L26.4155 2.71338H26.989L28.8138 8.21558ZM27.5208 6.09535L26.77 3.74918C26.7366 3.62971 26.7133 3.5076 26.7005 3.38421C26.6856 3.50783 26.66 3.62995 26.6241 3.74918L25.8837 6.09535H27.5208Z" fill="white"/>
<path d="M31.9776 8.21562H29.5098V2.69604H30.0659V7.61779H31.9706V8.19824L31.9776 8.21562Z" fill="white"/>
<path d="M17.6925 27.2107C17.6751 27.235 17.6334 27.2107 17.6473 27.1759C19.1419 24.795 20.6018 22.4071 22.6455 19.9636L23.3998 20.565C21.6445 23.0397 19.6042 25.1773 17.6925 27.2107Z" fill="white"/>
<path d="M26.1144 28.0553L25.9475 27.2976C25.1341 27.3607 24.3299 27.5122 23.5492 27.7495C22.2727 28.0081 21.0133 28.3447 19.778 28.7574C19.7502 28.7574 19.778 28.7991 19.778 28.7991C21.0863 28.7665 22.3912 28.6504 23.6848 28.4516C24.5079 28.4199 25.3239 28.2869 26.1144 28.0553Z" fill="white"/>
<path d="M18.1861 19.0321L17.4561 18.8931C17.2038 19.6403 17.0347 20.4132 16.9521 21.1975C16.702 22.4279 16.5256 23.6722 16.4238 24.9236C16.4238 24.9514 16.4586 24.9514 16.469 24.9236C16.9333 23.7497 17.3245 22.5483 17.6404 21.3261C17.917 20.5871 18.1004 19.8165 18.1861 19.0321Z" fill="white"/>
<path d="M21.4282 33.4047C21.5381 33.307 21.6274 33.1884 21.691 33.0558C21.7546 32.9232 21.7911 32.7793 21.7986 32.6325C21.806 32.4856 21.7842 32.3387 21.7343 32.2004C21.6845 32.0621 21.6076 31.935 21.5082 31.8267L13.712 23.2032C13.5276 22.9705 13.2583 22.8205 12.9634 22.7863C12.6684 22.7521 12.3719 22.8364 12.1392 23.0208C11.9064 23.2051 11.7564 23.4744 11.7222 23.7694C11.688 24.0643 11.7723 24.3608 11.9567 24.5936L8.86322 30.9195L6.23203 33.3004C6.05574 33.4614 5.91679 33.659 5.82492 33.8794C5.73306 34.0997 5.6905 34.3375 5.70024 34.5761L5.74194 35.3512L5.32832 35.7335C5.03571 35.9984 4.86004 36.3685 4.83985 36.7627C4.81965 37.1568 4.95656 37.543 5.22057 37.8364L6.12776 38.8339C6.39157 39.1222 6.75819 39.295 7.14842 39.3152C7.53864 39.3354 7.92113 39.2012 8.21324 38.9417L8.63381 38.5593L9.40544 38.6775C9.61679 38.7146 9.83361 38.7063 10.0415 38.6532L14.1499 43.1961C14.325 43.3895 14.5695 43.5057 14.83 43.5194C15.0905 43.5331 15.3459 43.4431 15.5402 43.269L16.0894 42.772C16.1884 42.6819 16.2681 42.5726 16.3238 42.4508C16.3794 42.3291 16.4097 42.1973 16.413 42.0634C16.4162 41.9296 16.3923 41.7965 16.3427 41.6721C16.293 41.5478 16.2187 41.4348 16.1242 41.34C15.3557 40.5716 14.7286 39.6739 14.2716 38.6879L14.8555 38.1666C14.9496 38.0899 15.0272 37.995 15.0834 37.8874C15.1396 37.7798 15.1733 37.6619 15.1824 37.5409C15.1915 37.4199 15.1759 37.2982 15.1364 37.1835C15.097 37.0687 15.0346 36.9631 14.953 36.8733C14.8714 36.7834 14.7724 36.7111 14.6619 36.6608C14.5515 36.6105 14.4319 36.5832 14.3106 36.5806C14.1893 36.5781 14.0687 36.6003 13.9562 36.6458C13.8437 36.6914 13.7417 36.7594 13.6563 36.8458C13.5868 36.5225 13.5277 36.1923 13.4826 35.8552L19.8502 33.363C20.0548 33.5762 20.3352 33.7002 20.6307 33.708C20.9261 33.7158 21.2127 33.6068 21.4282 33.4047Z" fill="#371400"/>
<path d="M9.47198 38.2116L8.59607 38.0795C8.56317 38.0749 8.52966 38.0775 8.49786 38.0871C8.46605 38.0967 8.4367 38.1131 8.41185 38.1352L7.91482 38.587C7.70924 38.7699 7.43971 38.8641 7.16495 38.8492C6.8902 38.8342 6.63251 38.7112 6.44803 38.5071L5.54432 37.5095C5.35991 37.3042 5.26442 37.0342 5.27875 36.7586C5.29309 36.483 5.41608 36.2243 5.62078 36.0393L6.11783 35.5874C6.14309 35.5666 6.1627 35.5398 6.17485 35.5094C6.187 35.479 6.19129 35.4461 6.18734 35.4136L6.13521 34.5273C6.12693 34.3547 6.15727 34.1825 6.22401 34.0231C6.29076 33.8638 6.39222 33.7213 6.52102 33.6062L9.01317 31.3469L12.913 35.6743L10.4209 37.9336C10.343 38.004 10.2552 38.0626 10.1602 38.1074L7.35174 34.9791C7.30967 34.9388 7.25362 34.9162 7.19532 34.9162C7.13702 34.9162 7.08099 34.9388 7.03892 34.9791C7.01694 34.9983 6.99901 35.0217 6.98621 35.048C6.97341 35.0742 6.96598 35.1027 6.96436 35.1319C6.96274 35.161 6.96696 35.1902 6.97678 35.2177C6.9866 35.2452 7.00181 35.2704 7.02153 35.292L9.68053 38.2394C9.61041 38.2355 9.54069 38.2262 9.47198 38.2116Z" fill="white"/>
<path d="M10.7228 38.2533L13.069 36.1331C13.2597 37.4999 13.7396 38.8105 14.4767 39.9773L13.0377 41.2772L10.4795 38.4549C10.5673 38.3962 10.6488 38.3286 10.7228 38.2533Z" fill="#FEBE10"/>
<path d="M13.949 42.2783L13.3477 41.6179L14.738 40.3562C14.9107 40.5978 15.0964 40.8298 15.2941 41.0514L13.949 42.2783Z" fill="white"/>
<path d="M9.30469 30.9993L12.28 24.9514L19.5235 32.9735L13.3053 35.4136L9.30469 30.9993Z" fill="#FEBE10"/>
<path d="M7.77572 37.3079L6.95196 38.0552C6.90918 38.095 6.88347 38.1498 6.88023 38.2081C6.87699 38.2664 6.89647 38.3237 6.93457 38.368C6.97704 38.4076 7.03294 38.4296 7.09099 38.4296C7.14904 38.4296 7.20494 38.4076 7.2474 38.368L8.07117 37.6207C8.09315 37.6015 8.11107 37.5781 8.12387 37.5519C8.13668 37.5256 8.14411 37.4971 8.14572 37.468C8.14734 37.4388 8.14311 37.4096 8.13329 37.3821C8.12347 37.3547 8.10826 37.3294 8.08854 37.3079C8.06868 37.2862 8.04452 37.2689 8.01759 37.257C7.99066 37.2451 7.96156 37.239 7.93214 37.239C7.90271 37.239 7.8736 37.2451 7.84667 37.257C7.81974 37.2689 7.79559 37.2862 7.77572 37.3079Z" fill="#371400"/>
<path d="M7.17764 36.6405L6.3504 37.3843C6.30922 37.4259 6.28613 37.4821 6.28613 37.5407C6.28613 37.5992 6.30922 37.6554 6.3504 37.6971C6.36906 37.7192 6.39198 37.7374 6.41779 37.7504C6.4436 37.7635 6.47179 37.7712 6.50065 37.7732C6.52952 37.7751 6.55849 37.7712 6.58582 37.7618C6.61316 37.7523 6.6383 37.7374 6.65975 37.7179L7.487 36.9672C7.52796 36.9261 7.55096 36.8705 7.55096 36.8125C7.55096 36.7545 7.52796 36.6989 7.487 36.6578C7.44736 36.6161 7.39326 36.591 7.33577 36.5878C7.27827 36.5845 7.22171 36.6034 7.17764 36.6405Z" fill="#371400"/>
<path d="M6.57671 35.9802L5.75295 36.7171C5.73224 36.7372 5.71578 36.7612 5.70454 36.7878C5.69329 36.8144 5.6875 36.8429 5.6875 36.8718C5.6875 36.9006 5.69329 36.9292 5.70454 36.9557C5.71578 36.9823 5.73224 37.0063 5.75295 37.0264C5.79273 37.0692 5.84754 37.0949 5.90586 37.0982C5.96419 37.1014 6.02149 37.0819 6.06577 37.0438L6.88954 36.3C6.93383 36.2605 6.96084 36.2053 6.96475 36.1461C6.96865 36.0869 6.94913 36.0286 6.91039 35.9837C6.89044 35.9588 6.86519 35.9386 6.83648 35.9246C6.80777 35.9106 6.77631 35.9032 6.74438 35.9028C6.71245 35.9025 6.68084 35.9093 6.65184 35.9227C6.62284 35.936 6.59718 35.9557 6.57671 35.9802Z" fill="#371400"/>
<path d="M12.4332 23.4569C12.5649 23.3373 12.7385 23.2746 12.9162 23.2824C13.094 23.2902 13.2614 23.3679 13.3821 23.4987L21.1748 32.1221C21.2401 32.1864 21.2915 32.2634 21.3258 32.3484C21.3602 32.4333 21.3768 32.5244 21.3746 32.6159C21.3724 32.7075 21.3515 32.7977 21.3131 32.8809C21.2747 32.9641 21.2197 33.0385 21.1514 33.0996C21.0832 33.1608 21.0031 33.2072 20.9162 33.2362C20.8293 33.2652 20.7374 33.2761 20.6461 33.2682C20.5549 33.2603 20.4662 33.2338 20.3855 33.1903C20.3049 33.1469 20.234 33.0873 20.1773 33.0154C19.8297 32.6331 12.6939 24.736 12.3845 24.3954C12.3256 24.3308 12.2801 24.2552 12.2506 24.1729C12.2211 24.0906 12.2083 24.0033 12.2128 23.916C12.2173 23.8287 12.2391 23.7432 12.277 23.6644C12.3148 23.5856 12.3679 23.5151 12.4332 23.4569Z" fill="white"/>
<path d="M15.7874 42.4105L15.2417 42.9041C15.1352 42.9997 14.9953 43.0497 14.8522 43.0432C14.7092 43.0367 14.5744 42.9743 14.477 42.8693L14.2441 42.6086L15.5893 41.3921L15.8152 41.625C15.8671 41.6772 15.9078 41.7396 15.9347 41.8082C15.9615 41.8768 15.9741 41.9501 15.9714 42.0238C15.9688 42.0974 15.9512 42.1697 15.9195 42.2362C15.8879 42.3027 15.8429 42.362 15.7874 42.4105Z" fill="#FEBE10"/>
<path d="M13.9561 37.1445C14.0446 37.0648 14.1612 37.0235 14.2801 37.0297C14.3991 37.0359 14.5107 37.0891 14.5905 37.1775C14.6702 37.266 14.7115 37.3826 14.7053 37.5016C14.6991 37.6205 14.6459 37.7321 14.5574 37.8119L14.0847 38.2394C13.9635 37.9376 13.8602 37.6288 13.7754 37.3148L13.9561 37.1445Z" fill="white"/>
<path d="M13.0346 27.1238C12.9926 27.164 12.9674 27.2187 12.9642 27.2768C12.961 27.3348 12.9799 27.392 13.0172 27.4366L17.2125 32.0768C17.2518 32.1204 17.3068 32.1466 17.3654 32.1499C17.424 32.1531 17.4815 32.1331 17.5254 32.0942C17.5694 32.0554 17.5964 32.0007 17.6003 31.9421C17.6042 31.8835 17.5847 31.8257 17.5462 31.7814L13.3475 27.1412C13.3077 27.0984 13.2529 27.0727 13.1945 27.0694C13.1362 27.0662 13.0789 27.0857 13.0346 27.1238Z" fill="#371400"/>
<path d="M13.4062 29.2025C13.3847 29.2216 13.3672 29.2448 13.3547 29.2708C13.3422 29.2967 13.335 29.3248 13.3334 29.3535C13.3317 29.3823 13.3358 29.411 13.3453 29.4382C13.3548 29.4653 13.3696 29.4904 13.3888 29.5118L15.1892 31.5035C15.2298 31.5413 15.2831 31.5626 15.3387 31.5632C15.3942 31.5637 15.4479 31.5435 15.4893 31.5065C15.5306 31.4695 15.5567 31.4184 15.5623 31.3631C15.5678 31.3079 15.5526 31.2526 15.5194 31.208L13.7224 29.2164C13.6821 29.1731 13.6263 29.1473 13.5671 29.1447C13.508 29.1421 13.4502 29.1629 13.4062 29.2025Z" fill="#371400"/>
<path d="M13.0245 30.4607C12.9815 30.5011 12.9557 30.5565 12.9525 30.6154C12.9493 30.6743 12.9688 30.7322 13.0072 30.777L13.9109 31.7746C13.9529 31.8149 14.009 31.8375 14.0673 31.8375C14.1256 31.8375 14.1816 31.8149 14.2237 31.7746C14.2678 31.7358 14.2947 31.6811 14.2986 31.6225C14.3025 31.5638 14.2831 31.5061 14.2445 31.4618L13.3478 30.4607C13.327 30.4387 13.302 30.4212 13.2742 30.4093C13.2464 30.3973 13.2164 30.3911 13.1862 30.3911C13.1559 30.3911 13.126 30.3973 13.0982 30.4093C13.0704 30.4212 13.0453 30.4387 13.0245 30.4607Z" fill="#371400"/>
<path d="M38.5818 0.0473633H0.799805V0.933688H38.5818V0.0473633Z" fill="#371400"/>
</svg>
