<svg width="45" height="34" viewBox="0 0 45 34" fill="none" xmlns="http://www.w3.org/2000/svg">
<path d="M37.896 0.145264L43.5616 1.28184L35.4873 11.6849L37.896 0.145264Z" fill="#FABD00"/>
<path d="M41.7955 7.06201L44.3259 7.74676L37.2109 11.7891L41.7955 7.06201Z" fill="#001B62"/>
<path d="M5.10937 33.5825L1.00098 30.6455L7.67451 21.9734L5.10937 33.5825Z" fill="#FABD00"/>
<path d="M2.7037 25.0043L0.878906 23.5028L6.41238 21.3408L2.7037 25.0043Z" fill="#001B62"/>
<path d="M40.4333 12.752C40.871 14.8356 40.894 16.9852 40.5011 19.0777C40.1081 21.1703 39.3068 23.165 38.1429 24.948C35.7924 28.5487 32.1077 31.0682 27.8995 31.9523C23.6913 32.8363 19.3043 32.0124 15.7036 29.6619C12.1028 27.3114 9.58326 23.6267 8.69922 19.4185L40.4333 12.752Z" fill="#FABD00"/>
<path d="M2.9298 20.635C2.10265 16.4501 2.95835 12.1079 5.31137 8.54972C7.66438 4.99154 11.3251 2.50421 15.4997 1.62702C19.6744 0.749825 24.0266 1.55348 27.6127 3.86372C31.1988 6.17396 33.7298 9.80457 34.6569 13.9684L2.9298 20.635Z" fill="#001B62"/>
<path d="M6.96116 16.3702L6.81517 15.6751C6.90582 15.7312 7.00262 15.7766 7.10366 15.8106C7.21639 15.8494 7.3329 15.8762 7.45124 15.8906C7.56617 15.9092 7.68241 15.9185 7.79882 15.9184C7.90208 15.9203 8.00508 15.9074 8.10469 15.8801C8.35741 15.8441 8.58969 15.7212 8.76162 15.5326C8.82596 15.444 8.86966 15.3421 8.88951 15.2345C8.90936 15.1268 8.90485 15.0161 8.87632 14.9104C8.85729 14.7842 8.80712 14.6647 8.73034 14.5628C8.65229 14.4709 8.5609 14.3913 8.45923 14.3265C8.33797 14.2605 8.21258 14.2025 8.08384 14.1527C7.94481 14.104 7.79882 14.0484 7.63199 13.9997L7.1558 13.8155C7.01186 13.7541 6.87446 13.6784 6.74566 13.5896C6.62674 13.5003 6.5244 13.3909 6.44326 13.2663C6.35101 13.1251 6.28834 12.9667 6.25904 12.8006C6.20955 12.6067 6.20674 12.4039 6.25085 12.2087C6.29496 12.0136 6.38472 11.8316 6.51278 11.6779C6.63613 11.5375 6.78319 11.4198 6.94725 11.3303C7.11697 11.2392 7.29818 11.1714 7.486 11.1287C7.80521 11.0466 8.14001 11.0466 8.45923 11.1287L8.59826 11.7891C8.27348 11.6338 7.90462 11.5969 7.55552 11.6848C7.44467 11.7083 7.33723 11.7457 7.23574 11.7961C7.1354 11.8443 7.04378 11.9089 6.96463 11.9872C6.88913 12.0658 6.83317 12.1611 6.80127 12.2653C6.77395 12.3796 6.77395 12.4986 6.80127 12.6129C6.82325 12.7284 6.86816 12.8383 6.93335 12.9361C6.99798 13.0209 7.07676 13.0938 7.16623 13.1516C7.27742 13.2165 7.39365 13.2723 7.51381 13.3185C7.64241 13.3706 7.79187 13.4123 7.96566 13.4749C8.13793 13.5267 8.30634 13.5906 8.46965 13.666C8.6231 13.7335 8.76878 13.8174 8.90413 13.9163C9.16355 14.1255 9.33779 14.4221 9.39422 14.7505C9.44433 14.9654 9.44433 15.189 9.39422 15.4039C9.35304 15.5846 9.26697 15.752 9.14396 15.8906C9.01938 16.034 8.86832 16.152 8.69906 16.2381C8.51727 16.3272 8.32439 16.3914 8.12555 16.4293C8.03995 16.4497 7.95271 16.4625 7.86486 16.4675C7.76059 16.4675 7.65632 16.4675 7.54509 16.4675C7.43915 16.4688 7.3333 16.4606 7.22879 16.4432C7.13673 16.4309 7.04672 16.4064 6.96116 16.3702Z" fill="white"/>
<path d="M10.6107 13.8295L11.0104 15.7342L10.5064 15.8385L9.44629 10.809L10.6385 10.5553C10.8337 10.5023 11.0377 10.4897 11.2379 10.5184C11.4382 10.5471 11.6304 10.6164 11.8029 10.7221C11.9681 10.8439 12.1075 10.9973 12.2131 11.1733C12.3187 11.3492 12.3884 11.5444 12.4181 11.7475C12.4736 11.9587 12.4862 12.1788 12.4551 12.3949C12.4241 12.611 12.35 12.8187 12.2374 13.0057C12.123 13.1891 11.9708 13.346 11.791 13.4659C11.6112 13.5857 11.4079 13.6659 11.1946 13.7009L10.6107 13.8295ZM10.0893 11.2331L10.5238 13.2907L11.0556 13.1795C11.2037 13.1585 11.346 13.1075 11.4738 13.0299C11.6017 12.9522 11.7125 12.8494 11.7994 12.7277C11.8747 12.6026 11.9237 12.4635 11.9434 12.3189C11.9631 12.1743 11.9531 12.0272 11.9141 11.8865C11.7751 11.2261 11.3649 10.9654 10.6906 11.101L10.0893 11.2331Z" fill="white"/>
<path d="M16.2655 14.6221L13.9715 15.1087L12.9287 10.0757L15.1289 9.61694L15.2436 10.1453L13.5474 10.4928L13.895 12.1716L15.4591 11.8414L15.5703 12.3698L14.0097 12.7L14.3816 14.4622L16.1716 14.0903L16.2655 14.6221Z" fill="white"/>
<path d="M20.0131 13.6209C19.6899 13.9039 19.2958 14.0937 18.873 14.1701C18.5915 14.2382 18.2978 14.2391 18.0158 14.1727C17.7338 14.1063 17.4714 13.9744 17.2498 13.7878C16.7494 13.3501 16.4175 12.7514 16.3114 12.0951C16.1325 11.3964 16.2089 10.6569 16.5269 10.0096C16.6688 9.73255 16.8717 9.49132 17.1204 9.30408C17.369 9.11684 17.6569 8.98845 17.9624 8.92858C18.3132 8.8451 18.6787 8.8451 19.0295 8.92858L19.1615 9.55422C18.8194 9.41769 18.4446 9.38506 18.084 9.46039C17.8498 9.50279 17.6292 9.60064 17.4405 9.74577C17.2518 9.89089 17.1006 10.0791 16.9996 10.2946C16.762 10.8093 16.7116 11.3907 16.8571 11.9386C16.9409 12.4671 17.2019 12.9512 17.5974 13.3116C17.7662 13.4591 17.9681 13.5637 18.186 13.6163C18.4038 13.669 18.6312 13.6682 18.8487 13.614C19.2469 13.5344 19.611 13.3341 19.8915 13.0405L20.0131 13.6209Z" fill="white"/>
<path d="M20.8125 8.41772L20.9168 8.92172L20.4892 9.00861L21.3338 13.0405L21.7579 12.9571L21.8622 13.4576L20.517 13.7357L20.4128 13.2317L20.8368 13.1448L19.9957 9.1233L19.5681 9.20672L19.4639 8.70622L20.8125 8.41772Z" fill="white"/>
<path d="M25.9461 12.5888L25.3831 12.7104L24.6253 11.4001L22.7832 11.7824L22.6441 13.2839L22.0811 13.4056L22.6893 8.02853L23.2176 7.91382L25.9461 12.5888ZM24.3473 10.903L23.2176 8.90441C23.164 8.79997 23.1175 8.69197 23.0786 8.58117C23.0857 8.69692 23.0857 8.81299 23.0786 8.92875L22.8527 11.2158L24.3473 10.903Z" fill="white"/>
<path d="M28.8341 11.9978L26.5818 12.4705L25.5391 7.43752L26.0431 7.33325L26.9919 11.8518L28.7298 11.5042L28.8341 11.9978Z" fill="white"/>
<path d="M19.4222 26.4571C19.0789 26.5386 18.7216 26.5419 18.3769 26.4667C18.0321 26.3915 17.7087 26.2397 17.4305 26.0226C16.8186 25.5284 16.4112 24.8251 16.287 24.0483C16.0807 23.2526 16.1658 22.4094 16.5268 21.6709C16.6978 21.3449 16.9411 21.0623 17.2381 20.8448C17.5351 20.6273 17.878 20.4807 18.2404 20.4161C18.581 20.3353 18.9354 20.3324 19.2772 20.4076C19.6191 20.4829 19.9395 20.6343 20.2147 20.8506C20.8248 21.3601 21.2288 22.0742 21.3512 22.8596C21.559 23.652 21.4687 24.493 21.0975 25.2232C20.9315 25.5435 20.6941 25.8214 20.4036 26.0353C20.1131 26.2493 19.7773 26.3936 19.4222 26.4571ZM18.449 21.5562C18.2549 21.5924 18.0732 21.6774 17.9212 21.8033C17.7692 21.9292 17.6517 22.0918 17.58 22.2757C17.4117 22.7381 17.3839 23.24 17.5001 23.7181C17.5787 24.2074 17.807 24.6604 18.1535 25.0146C18.2881 25.1484 18.454 25.2464 18.6361 25.2998C18.8182 25.3532 19.0107 25.3603 19.1962 25.3205C19.3858 25.2838 19.5634 25.2013 19.7137 25.0801C19.864 24.959 19.9823 24.8028 20.0582 24.6253C20.2296 24.1656 20.2539 23.664 20.1278 23.1898C20.0514 22.6907 19.8274 22.2259 19.4847 21.8551C19.3523 21.7205 19.1875 21.6222 19.006 21.5698C18.8246 21.5175 18.6327 21.5128 18.449 21.5562Z" fill="white"/>
<path d="M24.5488 20.3118L22.717 20.6872L23.0194 22.1088L24.7052 21.7612L24.9311 22.8039L23.2454 23.1515L23.7215 25.4108L22.5502 25.6576L21.3232 19.8426L24.3333 19.21L24.5488 20.3118Z" fill="white"/>
<path d="M28.1123 19.5682L26.2805 19.9505L26.5829 21.3721L28.2687 21.0245L28.4946 22.0672L26.8088 22.4148L27.285 24.6741L26.1137 24.9139L24.8867 19.1024L27.8968 18.4663L28.1123 19.5682Z" fill="white"/>
<path d="M32.7868 23.5373L29.6586 24.1908L28.4316 18.3757L31.4278 17.7432L31.6572 18.8102L29.8289 19.1926L30.1 20.4856L31.8032 20.138L32.0291 21.1981L30.326 21.5457L30.604 22.8769L32.5505 22.4668L32.7868 23.5373Z" fill="white"/>
<path d="M37.688 22.5121L36.3394 22.8006L35.2202 21.4693C35.1333 21.3651 35.0569 21.2781 34.9839 21.1982C34.9157 21.1304 34.8438 21.0666 34.7684 21.007C34.7042 20.9606 34.6341 20.9232 34.5598 20.8958C34.4914 20.8784 34.4197 20.8784 34.3513 20.8958L34.0384 20.9653L34.5077 23.1864L33.3329 23.4332L32.1094 17.6181L33.9689 17.2115C35.2272 16.9404 35.9779 17.3401 36.1934 18.3933C36.2356 18.5837 36.2474 18.7796 36.2282 18.9737C36.2091 19.1514 36.1622 19.325 36.0892 19.4881C36.014 19.6475 35.9143 19.7941 35.7937 19.9226C35.6666 20.059 35.5202 20.1761 35.3592 20.2702V20.2875C35.4481 20.2975 35.5336 20.3272 35.6095 20.3744C35.7002 20.4202 35.7853 20.4762 35.8632 20.5413C35.9501 20.6108 36.0266 20.6768 36.1135 20.7568C36.1932 20.8312 36.2687 20.9101 36.3394 20.9931L37.688 22.5121ZM33.4823 18.3411L33.8299 19.9574L34.3339 19.8496C34.4477 19.8308 34.5562 19.7879 34.6521 19.7238C34.7481 19.6596 34.8292 19.5757 34.89 19.4777C35.0088 19.2793 35.045 19.0421 34.9908 18.8173C34.89 18.3133 34.5563 18.1221 34.0211 18.2264L33.4823 18.3411Z" fill="white"/>
<path d="M19.4222 26.4571C19.0789 26.5386 18.7216 26.5419 18.3769 26.4667C18.0321 26.3915 17.7087 26.2397 17.4305 26.0226C16.8186 25.5284 16.4112 24.8251 16.287 24.0483C16.0807 23.2526 16.1658 22.4094 16.5268 21.6709C16.6978 21.3449 16.9411 21.0623 17.2381 20.8448C17.5351 20.6273 17.878 20.4807 18.2404 20.4161C18.581 20.3353 18.9354 20.3324 19.2772 20.4076C19.6191 20.4829 19.9395 20.6343 20.2147 20.8506C20.8248 21.3601 21.2288 22.0742 21.3512 22.8596C21.559 23.652 21.4687 24.493 21.0975 25.2232C20.9315 25.5435 20.6941 25.8214 20.4036 26.0353C20.1131 26.2493 19.7773 26.3936 19.4222 26.4571ZM18.449 21.5562C18.2549 21.5924 18.0732 21.6774 17.9212 21.8033C17.7692 21.9292 17.6517 22.0918 17.58 22.2757C17.4117 22.7381 17.3839 23.24 17.5001 23.7181C17.5787 24.2074 17.807 24.6604 18.1535 25.0146C18.2881 25.1484 18.454 25.2464 18.6361 25.2998C18.8182 25.3532 19.0107 25.3603 19.1962 25.3205C19.3858 25.2838 19.5634 25.2013 19.7137 25.0801C19.864 24.959 19.9823 24.8028 20.0582 24.6253C20.2296 24.1656 20.2539 23.664 20.1278 23.1898C20.0514 22.6907 19.8274 22.2259 19.4847 21.8551C19.3523 21.7205 19.1875 21.6222 19.006 21.5698C18.8246 21.5175 18.6327 21.5128 18.449 21.5562Z" fill="#001B62"/>
<path d="M24.5488 20.3118L22.717 20.6872L23.0194 22.1088L24.7052 21.7612L24.9311 22.8039L23.2454 23.1515L23.7215 25.4108L22.5502 25.6576L21.3232 19.8426L24.3333 19.21L24.5488 20.3118Z" fill="#001B62"/>
<path d="M28.1123 19.5682L26.2805 19.9505L26.5829 21.3721L28.2687 21.0245L28.4946 22.0672L26.8088 22.4148L27.285 24.6741L26.1137 24.9139L24.8867 19.1024L27.8968 18.4663L28.1123 19.5682Z" fill="#001B62"/>
<path d="M32.7868 23.5373L29.6586 24.1908L28.4316 18.3757L31.4278 17.7432L31.6572 18.8102L29.8289 19.1926L30.1 20.4856L31.8032 20.138L32.0291 21.1981L30.326 21.5457L30.604 22.8769L32.5505 22.4668L32.7868 23.5373Z" fill="#001B62"/>
<path d="M37.688 22.5121L36.3394 22.8006L35.2202 21.4693C35.1333 21.3651 35.0569 21.2781 34.9839 21.1982C34.9157 21.1304 34.8438 21.0666 34.7684 21.007C34.7042 20.9606 34.6341 20.9232 34.5598 20.8958C34.4914 20.8784 34.4197 20.8784 34.3513 20.8958L34.0384 20.9653L34.5077 23.1864L33.3329 23.4332L32.1094 17.6181L33.9689 17.2115C35.2272 16.9404 35.9779 17.3401 36.1934 18.3933C36.2356 18.5837 36.2474 18.7796 36.2282 18.9737C36.2091 19.1514 36.1622 19.325 36.0892 19.4881C36.014 19.6475 35.9143 19.7941 35.7937 19.9226C35.6666 20.059 35.5202 20.1761 35.3592 20.2702V20.2875C35.4481 20.2975 35.5336 20.3272 35.6095 20.3744C35.7002 20.4202 35.7853 20.4762 35.8632 20.5413C35.9501 20.6108 36.0266 20.6768 36.1135 20.7568C36.1932 20.8312 36.2687 20.9101 36.3394 20.9931L37.688 22.5121ZM33.4823 18.3411L33.8299 19.9574L34.3339 19.8496C34.4477 19.8308 34.5562 19.7879 34.6521 19.7238C34.7481 19.6596 34.8292 19.5757 34.89 19.4777C35.0088 19.2793 35.045 19.0421 34.9908 18.8173C34.89 18.3133 34.5563 18.1221 34.0211 18.2264L33.4823 18.3411Z" fill="#001B62"/>
<path d="M19.4222 26.4571C19.0789 26.5386 18.7216 26.5419 18.3769 26.4667C18.0321 26.3915 17.7087 26.2397 17.4305 26.0226C16.8186 25.5284 16.4112 24.8251 16.287 24.0483C16.0807 23.2526 16.1658 22.4094 16.5268 21.6709C16.6978 21.3449 16.9411 21.0623 17.2381 20.8448C17.5351 20.6273 17.878 20.4807 18.2404 20.4161C18.581 20.3353 18.9354 20.3324 19.2772 20.4076C19.6191 20.4829 19.9395 20.6343 20.2147 20.8506C20.8248 21.3601 21.2288 22.0742 21.3512 22.8596C21.559 23.652 21.4687 24.493 21.0975 25.2232C20.9315 25.5435 20.6941 25.8214 20.4036 26.0353C20.1131 26.2493 19.7773 26.3936 19.4222 26.4571ZM18.449 21.5562C18.2549 21.5924 18.0732 21.6774 17.9212 21.8033C17.7692 21.9292 17.6517 22.0918 17.58 22.2757C17.4117 22.7381 17.3839 23.24 17.5001 23.7181C17.5787 24.2074 17.807 24.6604 18.1535 25.0146C18.2881 25.1484 18.454 25.2464 18.6361 25.2998C18.8182 25.3532 19.0107 25.3603 19.1962 25.3205C19.3858 25.2838 19.5634 25.2013 19.7137 25.0801C19.864 24.959 19.9823 24.8028 20.0582 24.6253C20.2296 24.1656 20.2539 23.664 20.1278 23.1898C20.0514 22.6907 19.8274 22.2259 19.4847 21.8551C19.3523 21.7205 19.1875 21.6222 19.006 21.5698C18.8246 21.5175 18.6327 21.5128 18.449 21.5562Z" fill="#001B62"/>
<path d="M24.5488 20.3118L22.717 20.6872L23.0194 22.1088L24.7052 21.7612L24.9311 22.8039L23.2454 23.1515L23.7215 25.4108L22.5502 25.6576L21.3232 19.8426L24.3333 19.21L24.5488 20.3118Z" fill="#001B62"/>
<path d="M28.1123 19.5682L26.2805 19.9505L26.5829 21.3721L28.2687 21.0245L28.4946 22.0672L26.8088 22.4148L27.285 24.6741L26.1137 24.9139L24.8867 19.1024L27.8968 18.4663L28.1123 19.5682Z" fill="#001B62"/>
<path d="M32.7868 23.5373L29.6586 24.1908L28.4316 18.3757L31.4278 17.7432L31.6572 18.8102L29.8289 19.1926L30.1 20.4856L31.8032 20.138L32.0291 21.1981L30.326 21.5457L30.604 22.8769L32.5505 22.4668L32.7868 23.5373Z" fill="#001B62"/>
<path d="M37.688 22.5121L36.3394 22.8006L35.2202 21.4693C35.1333 21.3651 35.0569 21.2781 34.9839 21.1982C34.9157 21.1304 34.8438 21.0666 34.7684 21.007C34.7042 20.9606 34.6341 20.9232 34.5598 20.8958C34.4914 20.8784 34.4197 20.8784 34.3513 20.8958L34.0384 20.9653L34.5077 23.1864L33.3329 23.4332L32.1094 17.6181L33.9689 17.2115C35.2272 16.9404 35.9779 17.3401 36.1934 18.3933C36.2356 18.5837 36.2474 18.7796 36.2282 18.9737C36.2091 19.1514 36.1622 19.325 36.0892 19.4881C36.014 19.6475 35.9143 19.7941 35.7937 19.9226C35.6666 20.059 35.5202 20.1761 35.3592 20.2702V20.2875C35.4481 20.2975 35.5336 20.3272 35.6095 20.3744C35.7002 20.4202 35.7853 20.4762 35.8632 20.5413C35.9501 20.6108 36.0266 20.6768 36.1135 20.7568C36.1932 20.8312 36.2687 20.9101 36.3394 20.9931L37.688 22.5121ZM33.4823 18.3411L33.8299 19.9574L34.3339 19.8496C34.4477 19.8308 34.5562 19.7879 34.6521 19.7238C34.7481 19.6596 34.8292 19.5757 34.89 19.4777C35.0088 19.2793 35.045 19.0421 34.9908 18.8173C34.89 18.3133 34.5563 18.1221 34.0211 18.2264L33.4823 18.3411Z" fill="#001B62"/>
<path d="M19.4222 26.4571C19.0789 26.5386 18.7216 26.5419 18.3769 26.4667C18.0321 26.3915 17.7087 26.2397 17.4305 26.0226C16.8186 25.5284 16.4112 24.8251 16.287 24.0483C16.0807 23.2526 16.1658 22.4094 16.5268 21.6709C16.6978 21.3449 16.9411 21.0623 17.2381 20.8448C17.5351 20.6273 17.878 20.4807 18.2404 20.4161C18.581 20.3353 18.9354 20.3324 19.2772 20.4076C19.6191 20.4829 19.9395 20.6343 20.2147 20.8506C20.8248 21.3601 21.2288 22.0742 21.3512 22.8596C21.559 23.652 21.4687 24.493 21.0975 25.2232C20.9315 25.5435 20.6941 25.8214 20.4036 26.0353C20.1131 26.2493 19.7773 26.3936 19.4222 26.4571ZM18.449 21.5562C18.2549 21.5924 18.0732 21.6774 17.9212 21.8033C17.7692 21.9292 17.6517 22.0918 17.58 22.2757C17.4117 22.7381 17.3839 23.24 17.5001 23.7181C17.5787 24.2074 17.807 24.6604 18.1535 25.0146C18.2881 25.1484 18.454 25.2464 18.6361 25.2998C18.8182 25.3532 19.0107 25.3603 19.1962 25.3205C19.3858 25.2838 19.5634 25.2013 19.7137 25.0801C19.864 24.959 19.9823 24.8028 20.0582 24.6253C20.2296 24.1656 20.2539 23.664 20.1278 23.1898C20.0514 22.6907 19.8274 22.2259 19.4847 21.8551C19.3523 21.7205 19.1875 21.6222 19.006 21.5698C18.8246 21.5175 18.6327 21.5128 18.449 21.5562Z" fill="#001B62"/>
<path d="M24.5488 20.3118L22.717 20.6872L23.0194 22.1088L24.7052 21.7612L24.9311 22.8039L23.2454 23.1515L23.7215 25.4108L22.5502 25.6576L21.3232 19.8426L24.3333 19.21L24.5488 20.3118Z" fill="#001B62"/>
<path d="M28.1123 19.5682L26.2805 19.9505L26.5829 21.3721L28.2687 21.0245L28.4946 22.0672L26.8088 22.4148L27.285 24.6741L26.1137 24.9139L24.8867 19.1024L27.8968 18.4663L28.1123 19.5682Z" fill="#001B62"/>
<path d="M32.7868 23.5373L29.6586 24.1908L28.4316 18.3757L31.4278 17.7432L31.6572 18.8102L29.8289 19.1926L30.1 20.4856L31.8032 20.138L32.0291 21.1981L30.326 21.5457L30.604 22.8769L32.5505 22.4668L32.7868 23.5373Z" fill="#001B62"/>
<path d="M37.688 22.5121L36.3394 22.8006L35.2202 21.4693C35.1333 21.3651 35.0569 21.2781 34.9839 21.1982C34.9157 21.1304 34.8438 21.0666 34.7684 21.007C34.7042 20.9606 34.6341 20.9232 34.5598 20.8958C34.4914 20.8784 34.4197 20.8784 34.3513 20.8958L34.0384 20.9653L34.5077 23.1864L33.3329 23.4332L32.1094 17.6181L33.9689 17.2115C35.2272 16.9404 35.9779 17.3401 36.1934 18.3933C36.2356 18.5837 36.2474 18.7796 36.2282 18.9737C36.2091 19.1514 36.1622 19.325 36.0892 19.4881C36.014 19.6475 35.9143 19.7941 35.7937 19.9226C35.6666 20.059 35.5202 20.1761 35.3592 20.2702V20.2875C35.4481 20.2975 35.5336 20.3272 35.6095 20.3744C35.7002 20.4202 35.7853 20.4762 35.8632 20.5413C35.9501 20.6108 36.0266 20.6768 36.1135 20.7568C36.1932 20.8312 36.2687 20.9101 36.3394 20.9931L37.688 22.5121ZM33.4823 18.3411L33.8299 19.9574L34.3339 19.8496C34.4477 19.8308 34.5562 19.7879 34.6521 19.7238C34.7481 19.6596 34.8292 19.5757 34.89 19.4777C35.0088 19.2793 35.045 19.0421 34.9908 18.8173C34.89 18.3133 34.5563 18.1221 34.0211 18.2264L33.4823 18.3411Z" fill="#001B62"/>
</svg>
