<svg width="45" height="10" viewBox="0 0 45 10" fill="none" xmlns="http://www.w3.org/2000/svg">
<path d="M25.0106 9.64776H5.59695C4.35238 9.64776 3.15878 9.15336 2.27874 8.27332C1.39869 7.39328 0.904297 6.19968 0.904297 4.95511C0.904297 3.71054 1.39869 2.51694 2.27874 1.63689C3.15878 0.756848 4.35238 0.262451 5.59695 0.262451H25.0211V9.64776H25.0106Z" fill="#001B62"/>
<path d="M44.3549 4.95511C44.3503 6.19827 43.8545 7.3892 42.9754 8.26825C42.0964 9.1473 40.9054 9.64318 39.6623 9.64776H25.0107V0.262451H39.6623C40.9054 0.26703 42.0964 0.762909 42.9754 1.64196C43.8545 2.52102 44.3503 3.71195 44.3549 4.95511Z" fill="#FABD00"/>
<path d="M28.6781 6.75194C28.4448 6.75859 28.2129 6.71304 27.9994 6.61862C27.7859 6.5242 27.5962 6.3833 27.4441 6.2062C27.1101 5.80462 26.9389 5.29232 26.9644 4.77059C26.9399 4.22393 27.114 3.68685 27.4545 3.25853C27.6095 3.07211 27.805 2.92354 28.026 2.82415C28.2471 2.72475 28.488 2.67714 28.7302 2.68497C28.9626 2.67694 29.1937 2.72339 29.4049 2.82056C29.6162 2.91773 29.8017 3.06295 29.9469 3.24463C30.2748 3.65439 30.4417 4.1699 30.4161 4.69413C30.4402 5.23485 30.2673 5.76595 29.9295 6.18883C29.7778 6.37203 29.5861 6.51804 29.3692 6.61565C29.1522 6.71326 28.9159 6.75989 28.6781 6.75194ZM28.7129 3.44277C28.5822 3.43913 28.4528 3.46919 28.3371 3.53007C28.2215 3.59095 28.1234 3.6806 28.0524 3.79037C27.8769 4.06825 27.7919 4.39373 27.8091 4.72195C27.7908 5.0459 27.876 5.36727 28.0524 5.6396C28.1225 5.74618 28.218 5.83373 28.3302 5.89439C28.4424 5.95505 28.5679 5.98694 28.6955 5.98721C28.8244 5.98653 28.9513 5.95454 29.0651 5.89399C29.1789 5.83344 29.2764 5.74614 29.349 5.6396C29.5237 5.36523 29.6087 5.04332 29.5923 4.71847C29.6115 4.38331 29.5291 4.05016 29.3559 3.76256C29.284 3.65977 29.1874 3.57664 29.0751 3.52078C28.9628 3.46491 28.8382 3.4381 28.7129 3.44277Z" fill="white"/>
<path d="M32.8418 3.46708H31.5973V4.43343H32.734V5.15645H31.5973V6.69286H30.7979V2.74756H32.8313V3.46708H32.8418Z" fill="white"/>
<path d="M35.2473 3.46708H34.0029V4.43343H35.1431V5.15645H34.0029V6.69286H33.2139V2.74756H35.2473V3.46708Z" fill="white"/>
<path d="M37.7433 6.69286H35.6299V2.74756H37.6634V3.46708H36.4294V4.34653H37.5765V5.06955H36.4294V5.96983H37.7503V6.69286H37.7433Z" fill="white"/>
<path d="M41.053 6.69328H40.1422L39.593 5.67829C39.5563 5.6066 39.5157 5.53697 39.4714 5.46971C39.4373 5.4155 39.4001 5.3633 39.3601 5.31331C39.3257 5.27391 39.2845 5.24094 39.2385 5.21597C39.196 5.19228 39.148 5.18029 39.0994 5.18122H38.8804V6.69328H38.0879V2.73755H39.3497C40.2002 2.73755 40.6266 3.09443 40.6289 3.80818C40.6299 3.93826 40.6087 4.06755 40.5663 4.19053C40.5312 4.3025 40.4784 4.40813 40.4099 4.50338C40.3413 4.5997 40.2552 4.68224 40.1561 4.74671C40.0593 4.8168 39.9511 4.86969 39.8363 4.90312C39.8912 4.92543 39.9437 4.95341 39.9928 4.98656C40.0443 5.03128 40.0909 5.08138 40.1318 5.13603C40.1735 5.18817 40.2187 5.25073 40.2604 5.30983C40.3031 5.36833 40.3415 5.42989 40.3751 5.49405L41.053 6.69328ZM38.8978 3.41886V4.5138H39.2454C39.3214 4.51801 39.3973 4.50522 39.4676 4.47635C39.538 4.44749 39.601 4.40328 39.6521 4.34696C39.7044 4.2919 39.7452 4.22696 39.7721 4.15593C39.7989 4.08489 39.8113 4.0092 39.8085 3.93331C39.8085 3.5857 39.6278 3.41886 39.2524 3.41886H38.8978Z" fill="white"/>
<path d="M28.6781 6.75194C28.4448 6.75859 28.2129 6.71304 27.9994 6.61862C27.7859 6.5242 27.5962 6.3833 27.4441 6.2062C27.1101 5.80462 26.9389 5.29232 26.9644 4.77059C26.9399 4.22393 27.114 3.68685 27.4545 3.25853C27.6095 3.07211 27.805 2.92354 28.026 2.82415C28.2471 2.72475 28.488 2.67714 28.7302 2.68497C28.9626 2.67694 29.1937 2.72339 29.4049 2.82056C29.6162 2.91773 29.8017 3.06295 29.9469 3.24463C30.2748 3.65439 30.4417 4.1699 30.4161 4.69413C30.4402 5.23485 30.2673 5.76595 29.9295 6.18883C29.7778 6.37203 29.5861 6.51804 29.3692 6.61565C29.1522 6.71326 28.9159 6.75989 28.6781 6.75194ZM28.7129 3.44277C28.5822 3.43913 28.4528 3.46919 28.3371 3.53007C28.2215 3.59095 28.1234 3.6806 28.0524 3.79037C27.8769 4.06825 27.7919 4.39373 27.8091 4.72195C27.7908 5.0459 27.876 5.36727 28.0524 5.6396C28.1225 5.74618 28.218 5.83373 28.3302 5.89439C28.4424 5.95505 28.5679 5.98694 28.6955 5.98721C28.8244 5.98653 28.9513 5.95454 29.0651 5.89399C29.1789 5.83344 29.2764 5.74614 29.349 5.6396C29.5237 5.36523 29.6087 5.04332 29.5923 4.71847C29.6115 4.38331 29.5291 4.05016 29.3559 3.76256C29.284 3.65977 29.1874 3.57664 29.0751 3.52078C28.9628 3.46491 28.8382 3.4381 28.7129 3.44277Z" fill="#001B62"/>
<path d="M32.8418 3.46708H31.5973V4.43343H32.734V5.15645H31.5973V6.69286H30.7979V2.74756H32.8313V3.46708H32.8418Z" fill="#001B62"/>
<path d="M35.2473 3.46708H34.0029V4.43343H35.1431V5.15645H34.0029V6.69286H33.2139V2.74756H35.2473V3.46708Z" fill="#001B62"/>
<path d="M37.7433 6.69286H35.6299V2.74756H37.6634V3.46708H36.4294V4.34653H37.5765V5.06955H36.4294V5.96983H37.7503V6.69286H37.7433Z" fill="#001B62"/>
<path d="M41.053 6.69328H40.1422L39.593 5.67829C39.5563 5.6066 39.5157 5.53697 39.4714 5.46971C39.4373 5.4155 39.4001 5.3633 39.3601 5.31331C39.3257 5.27391 39.2845 5.24094 39.2385 5.21597C39.196 5.19228 39.148 5.18029 39.0994 5.18122H38.8804V6.69328H38.0879V2.73755H39.3497C40.2002 2.73755 40.6266 3.09443 40.6289 3.80818C40.6299 3.93826 40.6087 4.06755 40.5663 4.19053C40.5312 4.3025 40.4784 4.40813 40.4099 4.50338C40.3413 4.5997 40.2552 4.68224 40.1561 4.74671C40.0593 4.8168 39.9511 4.86969 39.8363 4.90312C39.8912 4.92543 39.9437 4.95341 39.9928 4.98656C40.0443 5.03128 40.0909 5.08138 40.1318 5.13603C40.1735 5.18817 40.2187 5.25073 40.2604 5.30983C40.3031 5.36833 40.3415 5.42989 40.3751 5.49405L41.053 6.69328ZM38.8978 3.41886V4.5138H39.2454C39.3214 4.51801 39.3973 4.50522 39.4676 4.47635C39.538 4.44749 39.601 4.40328 39.6521 4.34696C39.7044 4.2919 39.7452 4.22696 39.7721 4.15593C39.7989 4.08489 39.8113 4.0092 39.8085 3.93331C39.8085 3.5857 39.6278 3.41886 39.2524 3.41886H38.8978Z" fill="#001B62"/>
<path d="M28.6781 6.75194C28.4448 6.75859 28.2129 6.71304 27.9994 6.61862C27.7859 6.5242 27.5962 6.3833 27.4441 6.2062C27.1101 5.80462 26.9389 5.29232 26.9644 4.77059C26.9399 4.22393 27.114 3.68685 27.4545 3.25853C27.6095 3.07211 27.805 2.92354 28.026 2.82415C28.2471 2.72475 28.488 2.67714 28.7302 2.68497C28.9626 2.67694 29.1937 2.72339 29.4049 2.82056C29.6162 2.91773 29.8017 3.06295 29.9469 3.24463C30.2748 3.65439 30.4417 4.1699 30.4161 4.69413C30.4402 5.23485 30.2673 5.76595 29.9295 6.18883C29.7778 6.37203 29.5861 6.51804 29.3692 6.61565C29.1522 6.71326 28.9159 6.75989 28.6781 6.75194ZM28.7129 3.44277C28.5822 3.43913 28.4528 3.46919 28.3371 3.53007C28.2215 3.59095 28.1234 3.6806 28.0524 3.79037C27.8769 4.06825 27.7919 4.39373 27.8091 4.72195C27.7908 5.0459 27.876 5.36727 28.0524 5.6396C28.1225 5.74618 28.218 5.83373 28.3302 5.89439C28.4424 5.95505 28.5679 5.98694 28.6955 5.98721C28.8244 5.98653 28.9513 5.95454 29.0651 5.89399C29.1789 5.83344 29.2764 5.74614 29.349 5.6396C29.5237 5.36523 29.6087 5.04332 29.5923 4.71847C29.6115 4.38331 29.5291 4.05016 29.3559 3.76256C29.284 3.65977 29.1874 3.57664 29.0751 3.52078C28.9628 3.46491 28.8382 3.4381 28.7129 3.44277Z" fill="#001B62"/>
<path d="M32.8418 3.46708H31.5973V4.43343H32.734V5.15645H31.5973V6.69286H30.7979V2.74756H32.8313V3.46708H32.8418Z" fill="#001B62"/>
<path d="M35.2473 3.46708H34.0029V4.43343H35.1431V5.15645H34.0029V6.69286H33.2139V2.74756H35.2473V3.46708Z" fill="#001B62"/>
<path d="M37.7433 6.69286H35.6299V2.74756H37.6634V3.46708H36.4294V4.34653H37.5765V5.06955H36.4294V5.96983H37.7503V6.69286H37.7433Z" fill="#001B62"/>
<path d="M41.053 6.69328H40.1422L39.593 5.67829C39.5563 5.6066 39.5157 5.53697 39.4714 5.46971C39.4373 5.4155 39.4001 5.3633 39.3601 5.31331C39.3257 5.27391 39.2845 5.24094 39.2385 5.21597C39.196 5.19228 39.148 5.18029 39.0994 5.18122H38.8804V6.69328H38.0879V2.73755H39.3497C40.2002 2.73755 40.6266 3.09443 40.6289 3.80818C40.6299 3.93826 40.6087 4.06755 40.5663 4.19053C40.5312 4.3025 40.4784 4.40813 40.4099 4.50338C40.3413 4.5997 40.2552 4.68224 40.1561 4.74671C40.0593 4.8168 39.9511 4.86969 39.8363 4.90312C39.8912 4.92543 39.9437 4.95341 39.9928 4.98656C40.0443 5.03128 40.0909 5.08138 40.1318 5.13603C40.1735 5.18817 40.2187 5.25073 40.2604 5.30983C40.3031 5.36833 40.3415 5.42989 40.3751 5.49405L41.053 6.69328ZM38.8978 3.41886V4.5138H39.2454C39.3214 4.51801 39.3973 4.50522 39.4676 4.47635C39.538 4.44749 39.601 4.40328 39.6521 4.34696C39.7044 4.2919 39.7452 4.22696 39.7721 4.15593C39.7989 4.08489 39.8113 4.0092 39.8085 3.93331C39.8085 3.5857 39.6278 3.41886 39.2524 3.41886H38.8978Z" fill="#001B62"/>
<path d="M28.6781 6.75194C28.4448 6.75859 28.2129 6.71304 27.9994 6.61862C27.7859 6.5242 27.5962 6.3833 27.4441 6.2062C27.1101 5.80462 26.9389 5.29232 26.9644 4.77059C26.9399 4.22393 27.114 3.68685 27.4545 3.25853C27.6095 3.07211 27.805 2.92354 28.026 2.82415C28.2471 2.72475 28.488 2.67714 28.7302 2.68497C28.9626 2.67694 29.1937 2.72339 29.4049 2.82056C29.6162 2.91773 29.8017 3.06295 29.9469 3.24463C30.2748 3.65439 30.4417 4.1699 30.4161 4.69413C30.4402 5.23485 30.2673 5.76595 29.9295 6.18883C29.7778 6.37203 29.5861 6.51804 29.3692 6.61565C29.1522 6.71326 28.9159 6.75989 28.6781 6.75194ZM28.7129 3.44277C28.5822 3.43913 28.4528 3.46919 28.3371 3.53007C28.2215 3.59095 28.1234 3.6806 28.0524 3.79037C27.8769 4.06825 27.7919 4.39373 27.8091 4.72195C27.7908 5.0459 27.876 5.36727 28.0524 5.6396C28.1225 5.74618 28.218 5.83373 28.3302 5.89439C28.4424 5.95505 28.5679 5.98694 28.6955 5.98721C28.8244 5.98653 28.9513 5.95454 29.0651 5.89399C29.1789 5.83344 29.2764 5.74614 29.349 5.6396C29.5237 5.36523 29.6087 5.04332 29.5923 4.71847C29.6115 4.38331 29.5291 4.05016 29.3559 3.76256C29.284 3.65977 29.1874 3.57664 29.0751 3.52078C28.9628 3.46491 28.8382 3.4381 28.7129 3.44277Z" fill="#001B62"/>
<path d="M32.8418 3.46708H31.5973V4.43343H32.734V5.15645H31.5973V6.69286H30.7979V2.74756H32.8313V3.46708H32.8418Z" fill="#001B62"/>
<path d="M35.2473 3.46708H34.0029V4.43343H35.1431V5.15645H34.0029V6.69286H33.2139V2.74756H35.2473V3.46708Z" fill="#001B62"/>
<path d="M37.7433 6.69286H35.6299V2.74756H37.6634V3.46708H36.4294V4.34653H37.5765V5.06955H36.4294V5.96983H37.7503V6.69286H37.7433Z" fill="#001B62"/>
<path d="M41.053 6.69328H40.1422L39.593 5.67829C39.5563 5.6066 39.5157 5.53697 39.4714 5.46971C39.4373 5.4155 39.4001 5.3633 39.3601 5.31331C39.3257 5.27391 39.2845 5.24094 39.2385 5.21597C39.196 5.19228 39.148 5.18029 39.0994 5.18122H38.8804V6.69328H38.0879V2.73755H39.3497C40.2002 2.73755 40.6266 3.09443 40.6289 3.80818C40.6299 3.93826 40.6087 4.06755 40.5663 4.19053C40.5312 4.3025 40.4784 4.40813 40.4099 4.50338C40.3413 4.5997 40.2552 4.68224 40.1561 4.74671C40.0593 4.8168 39.9511 4.86969 39.8363 4.90312C39.8912 4.92543 39.9437 4.95341 39.9928 4.98656C40.0443 5.03128 40.0909 5.08138 40.1318 5.13603C40.1735 5.18817 40.2187 5.25073 40.2604 5.30983C40.3031 5.36833 40.3415 5.42989 40.3751 5.49405L41.053 6.69328ZM38.8978 3.41886V4.5138H39.2454C39.3214 4.51801 39.3973 4.50522 39.4676 4.47635C39.538 4.44749 39.601 4.40328 39.6521 4.34696C39.7044 4.2919 39.7452 4.22696 39.7721 4.15593C39.7989 4.08489 39.8113 4.0092 39.8085 3.93331C39.8085 3.5857 39.6278 3.41886 39.2524 3.41886H38.8978Z" fill="#001B62"/>
<path d="M5.62123 6.51933V5.99793C5.67967 6.05562 5.74506 6.10583 5.81589 6.14739C5.89042 6.19063 5.9683 6.22783 6.04878 6.25863C6.12858 6.28615 6.20981 6.30936 6.2921 6.32815C6.36634 6.34428 6.44209 6.35244 6.51805 6.35249C6.71085 6.36911 6.90292 6.31334 7.05684 6.19606C7.11897 6.1399 7.16752 6.07035 7.19884 5.99266C7.23015 5.91498 7.24339 5.83121 7.23758 5.74766C7.24222 5.65365 7.22183 5.56007 7.17849 5.47652C7.13466 5.39929 7.07961 5.32901 7.01513 5.26797C6.93623 5.2001 6.85128 5.13959 6.76136 5.0872C6.66061 5.01999 6.55618 4.95847 6.44853 4.90296C6.3373 4.83344 6.22259 4.76393 6.10093 4.69441C6.0025 4.63073 5.91455 4.55217 5.84022 4.46152C5.76733 4.37519 5.70866 4.2778 5.66642 4.173C5.62224 4.05289 5.60102 3.92554 5.60385 3.79759C5.59953 3.6379 5.63666 3.47982 5.71161 3.33875C5.77519 3.21509 5.864 3.10615 5.97231 3.01896C6.08211 2.93077 6.20864 2.86574 6.34425 2.82778C6.48137 2.78445 6.62453 2.76333 6.76832 2.76521C7.01744 2.74575 7.26721 2.79377 7.49134 2.90424V3.41871C7.2741 3.25644 7.00804 3.17307 6.73705 3.18234C6.64783 3.18215 6.55899 3.19383 6.47286 3.21709C6.39019 3.23298 6.31263 3.26876 6.24691 3.32137C6.17877 3.36767 6.12275 3.42967 6.08355 3.50213C6.04005 3.58563 6.01963 3.67922 6.02444 3.77325C6.02206 3.86261 6.03865 3.95147 6.07311 4.03395C6.11061 4.1077 6.15863 4.17562 6.21564 4.23557C6.28416 4.30038 6.35863 4.35857 6.43809 4.40937L6.75442 4.59013C6.87472 4.65585 6.99081 4.72899 7.10203 4.80913C7.20498 4.8804 7.29842 4.96449 7.38011 5.05939C7.46019 5.14888 7.5248 5.25108 7.57128 5.3618C7.61663 5.48542 7.64016 5.61599 7.64081 5.74766C7.64442 5.91357 7.61241 6.07832 7.54695 6.23081C7.4899 6.35957 7.39999 6.47105 7.28625 6.55408C7.17095 6.63806 7.04142 6.70049 6.90389 6.73832C6.7543 6.77088 6.60163 6.7872 6.44853 6.78699C6.3822 6.78507 6.31604 6.77925 6.25039 6.7696C6.17079 6.76076 6.09184 6.74683 6.01402 6.72789C5.93863 6.70888 5.86435 6.68568 5.79155 6.65838C5.72898 6.58886 5.66642 6.55409 5.62123 6.51933Z" fill="white"/>
<path d="M8.72525 5.21605V6.69336H8.33594V2.80019H9.2571C9.40933 2.79208 9.56163 2.81469 9.70495 2.86664C9.84827 2.9186 9.97966 2.99883 10.0913 3.10261C10.1944 3.21801 10.2736 3.35269 10.3243 3.49886C10.375 3.64503 10.3962 3.79981 10.3868 3.95424C10.3942 4.28947 10.2693 4.61414 10.0392 4.858C9.92538 4.97659 9.78718 5.06909 9.63415 5.1291C9.48112 5.18911 9.31689 5.2152 9.1528 5.20561H8.72525V5.21605ZM8.72525 3.20688V4.79892H9.13542C9.24763 4.808 9.36049 4.79317 9.46654 4.75542C9.5726 4.71767 9.66945 4.65786 9.75069 4.57992C9.90114 4.41402 9.97986 4.19535 9.96968 3.97162C9.98112 3.86688 9.96861 3.76091 9.93308 3.66171C9.89756 3.56252 9.83994 3.4727 9.76461 3.39904C9.68927 3.32538 9.59818 3.26981 9.49822 3.23652C9.39825 3.20324 9.29203 3.19309 9.18757 3.20688H8.72525Z" fill="white"/>
<path d="M12.7679 6.69346H10.9951V2.80029H12.6879V3.21742H11.3844V4.51398H12.5941V4.92415H11.3844V6.27981H12.7748L12.7679 6.69346Z" fill="white"/>
<path d="M15.6774 6.51962C15.3963 6.67638 15.078 6.75445 14.7563 6.74557C14.5375 6.75507 14.3196 6.71168 14.1211 6.6191C13.9227 6.52652 13.7494 6.38747 13.6161 6.21373C13.3175 5.81362 13.1675 5.32198 13.192 4.82331C13.1678 4.28045 13.3407 3.74712 13.6787 3.32166C13.8244 3.13769 14.0106 2.98988 14.2229 2.88978C14.4351 2.78969 14.6676 2.74002 14.9023 2.74465C15.1742 2.73545 15.4444 2.79021 15.6913 2.90453V3.3877C15.4567 3.23476 15.1824 3.15381 14.9023 3.15482C14.7233 3.14932 14.5455 3.18685 14.384 3.26427C14.2226 3.34169 14.082 3.45673 13.9742 3.59974C13.7251 3.94427 13.6023 4.36411 13.6266 4.78856C13.6069 5.19418 13.7299 5.59387 13.9742 5.91827C14.0766 6.05228 14.2095 6.16 14.3618 6.23252C14.5141 6.30505 14.6815 6.3403 14.8501 6.33538C15.1603 6.34396 15.4649 6.25255 15.7191 6.07468L15.6948 6.52658L15.6774 6.51962Z" fill="white"/>
<path d="M17.0848 2.80029V3.18961H16.7546V6.29371H17.0848V6.69346H16.042V6.30415H16.3896V3.20005H16.042V2.80029H17.0848Z" fill="white"/>
<path d="M20.2315 6.69303H19.7969L19.4493 5.60851H18.0311L17.6835 6.69303H17.249L18.5351 2.8103H18.9419L20.2315 6.69303ZM19.3103 5.19138L18.8063 3.52985C18.782 3.44447 18.7646 3.35729 18.7541 3.26914C18.7541 3.38038 18.7159 3.46728 18.702 3.52985L18.1806 5.18096L19.3103 5.19138Z" fill="white"/>
<path d="M22.4558 6.69346H20.7178V2.80029H21.1106V6.27633H22.4558V6.69346Z" fill="white"/>
</svg>
