<svg width="44" height="12" viewBox="0 0 44 12" fill="none" xmlns="http://www.w3.org/2000/svg">
<path d="M27.2344 8.57994H1.35528C1.00956 8.57994 0.67801 8.44262 0.433554 8.19816C0.189097 7.9537 0.0517625 7.62214 0.0517625 7.27643V1.98589C0.0513038 1.81458 0.0847072 1.64488 0.150053 1.48652C0.215398 1.32816 0.311396 1.18429 0.43253 1.06315C0.553664 0.942019 0.697545 0.846017 0.855902 0.780672C1.01426 0.715326 1.18397 0.681919 1.35528 0.682378H2.3529L4.70966 2.4204L7.3584 0.682378H27.2448V8.57994H27.2344Z" fill="#011F37"/>
<path d="M43.5024 7.2763C43.5024 7.62202 43.3651 7.95358 43.1207 8.19804C42.8762 8.44249 42.5446 8.57982 42.1989 8.57982H27.252V0.689214H42.2163C42.3876 0.688755 42.5573 0.722152 42.7157 0.787497C42.874 0.852842 43.0179 0.948844 43.1391 1.06998C43.2602 1.19111 43.3562 1.335 43.4215 1.49336C43.4869 1.65171 43.5203 1.82142 43.5198 1.99273L43.5024 7.2763Z" fill="#00F7FF"/>
<path d="M31.1902 6.31351C30.9927 6.3208 30.7961 6.28295 30.6154 6.20283C30.4347 6.12272 30.2747 6.00247 30.1474 5.8512C29.8667 5.51401 29.7239 5.08312 29.7477 4.64501C29.727 4.18705 29.8713 3.73687 30.1544 3.37625C30.2854 3.21771 30.4509 3.09116 30.6382 3.00623C30.8256 2.9213 31.0298 2.88023 31.2354 2.88614C31.4329 2.87885 31.6295 2.9167 31.8102 2.99681C31.9909 3.07692 32.151 3.19718 32.2782 3.34845C32.5502 3.69792 32.6883 4.13313 32.6675 4.57549C32.6875 5.03073 32.5418 5.47778 32.2574 5.83381C32.1286 5.99077 31.9653 6.11577 31.7801 6.19899C31.595 6.28222 31.3931 6.32142 31.1902 6.31351ZM31.2146 3.53268C31.1042 3.52976 30.995 3.55543 30.8976 3.60721C30.8001 3.65898 30.7177 3.7351 30.6584 3.82814C30.5091 4.06205 30.4362 4.33658 30.4498 4.61373C30.4341 4.88892 30.5072 5.16187 30.6584 5.39236C30.7172 5.48137 30.7973 5.55435 30.8913 5.60471C30.9854 5.65508 31.0905 5.68125 31.1972 5.68087C31.3038 5.68203 31.4092 5.65734 31.5042 5.60891C31.5993 5.56048 31.6812 5.48976 31.7429 5.40279C31.8925 5.17315 31.9633 4.90105 31.9445 4.62763C31.9597 4.34688 31.8894 4.06812 31.7429 3.82814C31.6907 3.73467 31.6138 3.65734 31.5206 3.60462C31.4275 3.5519 31.3216 3.5258 31.2146 3.5292V3.53268Z" fill="white"/>
<path d="M34.6799 3.55008H33.6371V4.36348H34.593V4.97179H33.6371V6.25792H32.9697V2.94873H34.6799V3.55008Z" fill="white"/>
<path d="M36.7239 3.55008H35.6811V4.36348H36.6405V4.97179H35.6811V6.25792H35.0137V2.94873H36.7239V3.55008Z" fill="white"/>
<path d="M38.8099 6.25109H37.0371V2.94189H38.7404V3.5502H37.6976V4.28713H38.6604V4.89544H37.6976V5.65321H38.8099V6.25109Z" fill="white"/>
<path d="M41.5903 6.25109H40.829L40.3667 5.39946L40.2694 5.22566C40.2414 5.17935 40.2101 5.13519 40.1755 5.09356C40.1434 5.06263 40.1085 5.03471 40.0713 5.01014C40.0365 4.99002 39.9967 4.98037 39.9566 4.98234H39.7758V6.25109H39.1084V2.94189H40.1512C40.8742 2.94189 41.2288 3.24432 41.2288 3.8422C41.23 3.95137 41.2159 4.06017 41.1871 4.16547C41.1548 4.25721 41.1116 4.34474 41.0585 4.42617C41.0002 4.50439 40.9284 4.57151 40.8464 4.62431C40.767 4.68597 40.676 4.73089 40.5788 4.75639C40.6253 4.77864 40.6696 4.80542 40.7109 4.83634C40.7526 4.8711 40.7873 4.91629 40.829 4.958C40.8708 5.00499 40.9092 5.05494 40.9437 5.10747C40.9803 5.15626 41.0118 5.20868 41.0376 5.2639L41.5903 6.25109ZM39.7654 3.50502V4.42617H40.0539C40.1183 4.42873 40.1826 4.41767 40.2425 4.39371C40.3024 4.36975 40.3566 4.33344 40.4015 4.28713C40.4888 4.19272 40.5362 4.06812 40.5336 3.93953C40.5336 3.65102 40.3772 3.50502 40.0713 3.50502H39.7654Z" fill="white"/>
<path d="M31.1902 6.31351C30.9927 6.3208 30.7961 6.28295 30.6154 6.20283C30.4347 6.12272 30.2747 6.00247 30.1474 5.8512C29.8667 5.51401 29.7239 5.08312 29.7477 4.64501C29.727 4.18705 29.8713 3.73687 30.1544 3.37625C30.2854 3.21771 30.4509 3.09116 30.6382 3.00623C30.8256 2.9213 31.0298 2.88023 31.2354 2.88614C31.4329 2.87885 31.6295 2.9167 31.8102 2.99681C31.9909 3.07692 32.151 3.19718 32.2782 3.34845C32.5502 3.69792 32.6883 4.13313 32.6675 4.57549C32.6875 5.03073 32.5418 5.47778 32.2574 5.83381C32.1286 5.99077 31.9653 6.11577 31.7801 6.19899C31.595 6.28222 31.3931 6.32142 31.1902 6.31351ZM31.2146 3.53268C31.1042 3.52976 30.995 3.55543 30.8976 3.60721C30.8001 3.65898 30.7177 3.7351 30.6584 3.82814C30.5091 4.06205 30.4362 4.33658 30.4498 4.61373C30.4341 4.88892 30.5072 5.16187 30.6584 5.39236C30.7172 5.48137 30.7973 5.55435 30.8913 5.60471C30.9854 5.65508 31.0905 5.68125 31.1972 5.68087C31.3038 5.68203 31.4092 5.65734 31.5042 5.60891C31.5993 5.56048 31.6812 5.48976 31.7429 5.40279C31.8925 5.17315 31.9633 4.90105 31.9445 4.62763C31.9597 4.34688 31.8894 4.06812 31.7429 3.82814C31.6907 3.73467 31.6138 3.65734 31.5206 3.60462C31.4275 3.5519 31.3216 3.5258 31.2146 3.5292V3.53268Z" fill="#011F37"/>
<path d="M34.6799 3.55008H33.6371V4.36348H34.593V4.97179H33.6371V6.25792H32.9697V2.94873H34.6799V3.55008Z" fill="#011F37"/>
<path d="M36.7239 3.55008H35.6811V4.36348H36.6405V4.97179H35.6811V6.25792H35.0137V2.94873H36.7239V3.55008Z" fill="#011F37"/>
<path d="M38.8099 6.25109H37.0371V2.94189H38.7404V3.5502H37.6976V4.28713H38.6604V4.89544H37.6976V5.65321H38.8099V6.25109Z" fill="#011F37"/>
<path d="M41.5903 6.25109H40.829L40.3667 5.39946L40.2694 5.22566C40.2414 5.17935 40.2101 5.13519 40.1755 5.09356C40.1434 5.06263 40.1085 5.03471 40.0713 5.01014C40.0365 4.99002 39.9967 4.98037 39.9566 4.98234H39.7758V6.25109H39.1084V2.94189H40.1512C40.8742 2.94189 41.2288 3.24432 41.2288 3.8422C41.23 3.95137 41.2159 4.06017 41.1871 4.16547C41.1548 4.25721 41.1116 4.34474 41.0585 4.42617C41.0002 4.50439 40.9284 4.57151 40.8464 4.62431C40.767 4.68597 40.676 4.73089 40.5788 4.75639C40.6253 4.77864 40.6696 4.80542 40.7109 4.83634C40.7526 4.8711 40.7873 4.91629 40.829 4.958C40.8708 5.00499 40.9092 5.05494 40.9437 5.10747C40.9803 5.15626 41.0118 5.20868 41.0376 5.2639L41.5903 6.25109ZM39.7654 3.50502V4.42617H40.0539C40.1183 4.42873 40.1826 4.41767 40.2425 4.39371C40.3024 4.36975 40.3566 4.33344 40.4015 4.28713C40.4888 4.19272 40.5362 4.06812 40.5336 3.93953C40.5336 3.65102 40.3772 3.50502 40.0713 3.50502H39.7654Z" fill="#011F37"/>
<path d="M31.1902 6.31351C30.9927 6.3208 30.7961 6.28295 30.6154 6.20283C30.4347 6.12272 30.2747 6.00247 30.1474 5.8512C29.8667 5.51401 29.7239 5.08312 29.7477 4.64501C29.727 4.18705 29.8713 3.73687 30.1544 3.37625C30.2854 3.21771 30.4509 3.09116 30.6382 3.00623C30.8256 2.9213 31.0298 2.88023 31.2354 2.88614C31.4329 2.87885 31.6295 2.9167 31.8102 2.99681C31.9909 3.07692 32.151 3.19718 32.2782 3.34845C32.5502 3.69792 32.6883 4.13313 32.6675 4.57549C32.6875 5.03073 32.5418 5.47778 32.2574 5.83381C32.1286 5.99077 31.9653 6.11577 31.7801 6.19899C31.595 6.28222 31.3931 6.32142 31.1902 6.31351ZM31.2146 3.53268C31.1042 3.52976 30.995 3.55543 30.8976 3.60721C30.8001 3.65898 30.7177 3.7351 30.6584 3.82814C30.5091 4.06205 30.4362 4.33658 30.4498 4.61373C30.4341 4.88892 30.5072 5.16187 30.6584 5.39236C30.7172 5.48137 30.7973 5.55435 30.8913 5.60471C30.9854 5.65508 31.0905 5.68125 31.1972 5.68087C31.3038 5.68203 31.4092 5.65734 31.5042 5.60891C31.5993 5.56048 31.6812 5.48976 31.7429 5.40279C31.8925 5.17315 31.9633 4.90105 31.9445 4.62763C31.9597 4.34688 31.8894 4.06812 31.7429 3.82814C31.6907 3.73467 31.6138 3.65734 31.5206 3.60462C31.4275 3.5519 31.3216 3.5258 31.2146 3.5292V3.53268Z" fill="#011F37"/>
<path d="M34.6799 3.55008H33.6371V4.36348H34.593V4.97179H33.6371V6.25792H32.9697V2.94873H34.6799V3.55008Z" fill="#011F37"/>
<path d="M36.7239 3.55008H35.6811V4.36348H36.6405V4.97179H35.6811V6.25792H35.0137V2.94873H36.7239V3.55008Z" fill="#011F37"/>
<path d="M38.8099 6.25109H37.0371V2.94189H38.7404V3.5502H37.6976V4.28713H38.6604V4.89544H37.6976V5.65321H38.8099V6.25109Z" fill="#011F37"/>
<path d="M41.5903 6.25109H40.829L40.3667 5.39946L40.2694 5.22566C40.2414 5.17935 40.2101 5.13519 40.1755 5.09356C40.1434 5.06263 40.1085 5.03471 40.0713 5.01014C40.0365 4.99002 39.9967 4.98037 39.9566 4.98234H39.7758V6.25109H39.1084V2.94189H40.1512C40.8742 2.94189 41.2288 3.24432 41.2288 3.8422C41.23 3.95137 41.2159 4.06017 41.1871 4.16547C41.1548 4.25721 41.1116 4.34474 41.0585 4.42617C41.0002 4.50439 40.9284 4.57151 40.8464 4.62431C40.767 4.68597 40.676 4.73089 40.5788 4.75639C40.6253 4.77864 40.6696 4.80542 40.7109 4.83634C40.7526 4.8711 40.7873 4.91629 40.829 4.958C40.8708 5.00499 40.9092 5.05494 40.9437 5.10747C40.9803 5.15626 41.0118 5.20868 41.0376 5.2639L41.5903 6.25109ZM39.7654 3.50502V4.42617H40.0539C40.1183 4.42873 40.1826 4.41767 40.2425 4.39371C40.3024 4.36975 40.3566 4.33344 40.4015 4.28713C40.4888 4.19272 40.5362 4.06812 40.5336 3.93953C40.5336 3.65102 40.3772 3.50502 40.0713 3.50502H39.7654Z" fill="#011F37"/>
<path d="M31.1902 6.31351C30.9927 6.3208 30.7961 6.28295 30.6154 6.20283C30.4347 6.12272 30.2747 6.00247 30.1474 5.8512C29.8667 5.51401 29.7239 5.08312 29.7477 4.64501C29.727 4.18705 29.8713 3.73687 30.1544 3.37625C30.2854 3.21771 30.4509 3.09116 30.6382 3.00623C30.8256 2.9213 31.0298 2.88023 31.2354 2.88614C31.4329 2.87885 31.6295 2.9167 31.8102 2.99681C31.9909 3.07692 32.151 3.19718 32.2782 3.34845C32.5502 3.69792 32.6883 4.13313 32.6675 4.57549C32.6875 5.03073 32.5418 5.47778 32.2574 5.83381C32.1286 5.99077 31.9653 6.11577 31.7801 6.19899C31.595 6.28222 31.3931 6.32142 31.1902 6.31351ZM31.2146 3.53268C31.1042 3.52976 30.995 3.55543 30.8976 3.60721C30.8001 3.65898 30.7177 3.7351 30.6584 3.82814C30.5091 4.06205 30.4362 4.33658 30.4498 4.61373C30.4341 4.88892 30.5072 5.16187 30.6584 5.39236C30.7172 5.48137 30.7973 5.55435 30.8913 5.60471C30.9854 5.65508 31.0905 5.68125 31.1972 5.68087C31.3038 5.68203 31.4092 5.65734 31.5042 5.60891C31.5993 5.56048 31.6812 5.48976 31.7429 5.40279C31.8925 5.17315 31.9633 4.90105 31.9445 4.62763C31.9597 4.34688 31.8894 4.06812 31.7429 3.82814C31.6907 3.73467 31.6138 3.65734 31.5206 3.60462C31.4275 3.5519 31.3216 3.5258 31.2146 3.5292V3.53268Z" fill="#011F37"/>
<path d="M34.6799 3.55008H33.6371V4.36348H34.593V4.97179H33.6371V6.25792H32.9697V2.94873H34.6799V3.55008Z" fill="#011F37"/>
<path d="M36.7239 3.55008H35.6811V4.36348H36.6405V4.97179H35.6811V6.25792H35.0137V2.94873H36.7239V3.55008Z" fill="#011F37"/>
<path d="M38.8099 6.25109H37.0371V2.94189H38.7404V3.5502H37.6976V4.28713H38.6604V4.89544H37.6976V5.65321H38.8099V6.25109Z" fill="#011F37"/>
<path d="M41.5903 6.25109H40.829L40.3667 5.39946L40.2694 5.22566C40.2414 5.17935 40.2101 5.13519 40.1755 5.09356C40.1434 5.06263 40.1085 5.03471 40.0713 5.01014C40.0365 4.99002 39.9967 4.98037 39.9566 4.98234H39.7758V6.25109H39.1084V2.94189H40.1512C40.8742 2.94189 41.2288 3.24432 41.2288 3.8422C41.23 3.95137 41.2159 4.06017 41.1871 4.16547C41.1548 4.25721 41.1116 4.34474 41.0585 4.42617C41.0002 4.50439 40.9284 4.57151 40.8464 4.62431C40.767 4.68597 40.676 4.73089 40.5788 4.75639C40.6253 4.77864 40.6696 4.80542 40.7109 4.83634C40.7526 4.8711 40.7873 4.91629 40.829 4.958C40.8708 5.00499 40.9092 5.05494 40.9437 5.10747C40.9803 5.15626 41.0118 5.20868 41.0376 5.2639L41.5903 6.25109ZM39.7654 3.50502V4.42617H40.0539C40.1183 4.42873 40.1826 4.41767 40.2425 4.39371C40.3024 4.36975 40.3566 4.33344 40.4015 4.28713C40.4888 4.19272 40.5362 4.06812 40.5336 3.93953C40.5336 3.65102 40.3772 3.50502 40.0713 3.50502H39.7654Z" fill="#011F37"/>
<path d="M9.88924 6.11846V5.66658C9.93609 5.7145 9.98862 5.75651 10.0457 5.79171C10.1105 5.82781 10.1779 5.85917 10.2473 5.88556C10.3133 5.90989 10.3863 5.92728 10.4524 5.94466C10.5158 5.9615 10.5814 5.96853 10.647 5.96551C10.8076 5.97795 10.9672 5.93094 11.0954 5.83342C11.1709 5.75496 11.2206 5.65538 11.238 5.54794C11.2554 5.4405 11.2396 5.33032 11.1928 5.23207C11.1572 5.16425 11.1101 5.10309 11.0537 5.05131C10.9911 5.00033 10.9216 4.94819 10.8451 4.89489C10.7611 4.83818 10.6741 4.78596 10.5844 4.73847C10.4871 4.67938 10.3933 4.62376 10.3064 4.56467C10.2224 4.50787 10.1464 4.44007 10.0804 4.36306C10.017 4.29115 9.96642 4.20883 9.93095 4.11973C9.89687 4.01663 9.88042 3.90851 9.88229 3.79993C9.87784 3.66418 9.90647 3.52938 9.96571 3.40715C10.0169 3.30011 10.0947 3.20796 10.1917 3.13949C10.2877 3.07026 10.3946 3.01742 10.508 2.98307C10.8269 2.89557 11.1659 2.9176 11.4708 3.04564V3.47666C11.285 3.33992 11.0583 3.27008 10.8278 3.27853C10.7542 3.27994 10.6809 3.28809 10.6088 3.30286C10.5403 3.31866 10.4761 3.34953 10.4211 3.39324C10.3611 3.43144 10.3129 3.4856 10.282 3.54966C10.2441 3.61756 10.2249 3.69435 10.2264 3.77213C10.2272 3.84736 10.2426 3.92172 10.2716 3.99112C10.3022 4.05334 10.3434 4.10978 10.3933 4.15797C10.4532 4.21135 10.5172 4.26016 10.5844 4.30396C10.6609 4.34568 10.7478 4.39782 10.8451 4.46039C10.9434 4.51656 11.0386 4.57806 11.1302 4.64462C11.2176 4.70369 11.2971 4.77378 11.3666 4.85317C11.4353 4.93026 11.4905 5.0184 11.5299 5.11388C11.575 5.21429 11.5964 5.3237 11.5925 5.43368C11.5949 5.57416 11.5689 5.71367 11.516 5.84385C11.4646 5.94875 11.3897 6.04036 11.297 6.11151C11.2024 6.1829 11.0932 6.23273 10.9772 6.2575C10.8514 6.29054 10.7215 6.30575 10.5914 6.30269C10.537 6.30706 10.4824 6.30706 10.428 6.30269C10.3599 6.29758 10.2923 6.28594 10.2264 6.26792C10.162 6.25453 10.0992 6.23474 10.0387 6.20884C9.98466 6.18633 9.93428 6.15586 9.88924 6.11846Z" fill="white"/>
<path d="M12.4863 5.01664V6.25064H12.1387V2.98316H12.9138C13.0406 2.97547 13.1677 2.99368 13.2872 3.03671C13.4067 3.07974 13.5162 3.14668 13.609 3.23344C13.7842 3.43219 13.8741 3.69192 13.8593 3.95645C13.8704 4.23523 13.7718 4.50724 13.5847 4.71422C13.488 4.8143 13.3709 4.89246 13.2414 4.94343C13.1118 4.9944 12.9729 5.01699 12.8339 5.00969H12.4863V5.01664ZM12.4863 3.33077V4.66903H12.8339C12.9275 4.67822 13.0219 4.66655 13.1104 4.63486C13.1989 4.60317 13.2793 4.55225 13.3458 4.48577C13.4123 4.41929 13.4632 4.33889 13.4949 4.25037C13.5266 4.16185 13.5383 4.0674 13.5291 3.97383C13.5291 3.53932 13.3101 3.33077 12.8686 3.33077H12.4863Z" fill="white"/>
<path d="M15.8961 6.25063H14.4014V2.98315H15.8231V3.33076H14.7385V4.41875H15.7535V4.76635H14.7385V5.9065H15.903V6.2541L15.8961 6.25063Z" fill="white"/>
<path d="M18.3539 6.11171C18.119 6.24799 17.8501 6.31432 17.5787 6.30289C17.3939 6.30974 17.21 6.2723 17.0425 6.19369C16.875 6.11509 16.7288 5.9976 16.6159 5.85101C16.3608 5.51531 16.2317 5.10074 16.2509 4.67958C16.231 4.22008 16.3766 3.76871 16.6611 3.40735C16.7857 3.25167 16.9447 3.12701 17.1257 3.04317C17.3066 2.95933 17.5045 2.9186 17.7039 2.92418C17.9299 2.91546 18.1548 2.95949 18.3609 3.05279V3.46296C18.1635 3.33057 17.9311 3.26035 17.6935 3.26136C17.5429 3.25685 17.3935 3.28823 17.2575 3.3529C17.1215 3.41758 17.0028 3.51369 16.9113 3.63329C16.6979 3.92601 16.5912 4.283 16.6089 4.64482C16.5919 4.98186 16.6886 5.31484 16.8835 5.59031C16.9711 5.70217 17.0837 5.7919 17.2123 5.85227C17.3409 5.91265 17.4819 5.94199 17.6239 5.93791C17.8844 5.9488 18.1411 5.87299 18.3539 5.72239L18.3713 6.10475L18.3539 6.11171Z" fill="white"/>
<path d="M19.5279 2.98315V3.31337H19.2567V5.9204H19.5348V6.26801H18.6484V5.9204H18.9265V3.31337H18.6484V2.98315H19.5279Z" fill="white"/>
<path d="M22.1663 6.25063H21.8014L21.5094 5.33643H20.3171L20.039 6.25063H19.6914L20.769 2.98315H21.1166L22.1663 6.25063ZM21.3947 4.98883L20.9532 3.59841C20.9311 3.52824 20.9159 3.45605 20.908 3.3829C20.9028 3.45645 20.8876 3.52894 20.8628 3.59841L20.4283 4.98883H21.3947Z" fill="white"/>
<path d="M24.0468 6.25063H22.5869V2.98315H22.9345V5.90303H24.0642L24.0468 6.25063Z" fill="white"/>
<path d="M2.35645 11.0478V0.689209H7.37932V11.0478L4.89048 8.91699L2.35645 11.0478Z" fill="#00F7FF"/>
</svg>
