<svg width="44" height="26" viewBox="0 0 44 26" fill="none" xmlns="http://www.w3.org/2000/svg">
<path d="M0.183594 8.50817L2.0676 6.35303L7.8587 11.3238L0.183594 8.50817Z" fill="#FFCB00"/>
<path d="M5.79785 7.99725L6.77114 7.06567L8.25887 10.639L5.79785 7.99725Z" fill="#1F1F38"/>
<path d="M24.342 23.7336L22.6318 25.6106L15.9404 22.3362L24.342 23.7336Z" fill="#FFCB00"/>
<path d="M18.5125 24.7173L17.6088 25.5516L15.5996 22.9167L18.5125 24.7173Z" fill="#1F1F38"/>
<path d="M43.6338 3.42305C43.6498 2.97978 43.5695 2.53832 43.3985 2.12907C43.2275 1.71981 42.9698 1.35249 42.6432 1.05239C42.3176 0.756004 41.931 0.534562 41.5106 0.403643C41.0902 0.272724 40.6463 0.235507 40.2099 0.294609L11.5152 4.2851C11.1083 4.33856 10.7169 4.47582 10.3657 4.68822C10.0145 4.90061 9.71111 5.18353 9.47478 5.5191C9.23687 5.85291 9.06792 6.23082 8.9778 6.63071C8.88767 7.0306 8.87817 7.44445 8.9499 7.84804L11.0112 18.7976C11.1471 19.5238 11.5435 20.1753 12.126 20.6298C12.7085 21.0843 13.4369 21.3104 14.1744 21.2656L40.2447 19.7187C40.9951 19.6745 41.7024 19.353 42.2291 18.8167C42.7558 18.2803 43.0645 17.5674 43.0951 16.8162L43.6338 3.42305Z" fill="#1F1F38"/>
<path d="M22.9516 18.7454C22.603 18.7873 22.2495 18.7507 21.9169 18.6382C21.5842 18.5257 21.281 18.3402 21.0294 18.0954C20.473 17.5403 20.1476 16.7951 20.1187 16.0097C20.0022 15.2003 20.1812 14.376 20.6227 13.6877C20.8277 13.3852 21.0995 13.1337 21.4172 12.9529C21.7348 12.7721 22.0897 12.6667 22.4546 12.6449C22.799 12.6017 23.1488 12.6378 23.4771 12.7504C23.8054 12.8631 24.1037 13.0494 24.349 13.2949C24.8889 13.8605 25.2093 14.6 25.2528 15.3806C25.3674 16.1844 25.1885 17.0026 24.7488 17.6852C24.5533 17.9904 24.2888 18.2454 23.9766 18.4296C23.6645 18.6138 23.3133 18.7219 22.9516 18.7454ZM22.5345 13.799C22.3383 13.8136 22.1491 13.8781 21.9848 13.9863C21.8206 14.0946 21.6867 14.2431 21.596 14.4177C21.3747 14.8554 21.2922 15.3502 21.3596 15.8359C21.377 16.326 21.5513 16.7975 21.8567 17.1812C21.9771 17.3287 22.1322 17.444 22.3081 17.5168C22.4841 17.5896 22.6753 17.6176 22.8647 17.5983C23.0542 17.5867 23.2377 17.5274 23.3982 17.4259C23.5586 17.3244 23.6908 17.1841 23.7824 17.0178C24.0052 16.5906 24.0855 16.1035 24.0118 15.6274C23.9922 15.1251 23.8214 14.6405 23.5217 14.237C23.4109 14.0854 23.2626 13.9654 23.0914 13.8886C22.9201 13.8118 22.7318 13.7809 22.545 13.799H22.5345Z" fill="white"/>
<path d="M28.7046 13.2531L26.8519 13.4269L26.9944 14.8695L28.6977 14.7061L28.8019 15.7802L27.0952 15.947L27.3142 18.2343L26.1324 18.3455L25.5762 12.4606L28.6177 12.1755L28.7046 13.2531Z" fill="white"/>
<path d="M32.3091 12.9125L30.4598 13.0863L30.5989 14.5288L32.3022 14.3655L32.4064 15.443L30.7032 15.6099L30.9187 17.8936L29.7403 18.0084L29.1807 12.1234L32.2222 11.8384L32.3091 12.9125Z" fill="white"/>
<path d="M36.4804 17.3655L33.3276 17.6575L32.7715 11.776L35.8026 11.491L35.9104 12.5651L34.0576 12.7389L34.1793 14.0459L35.9173 13.8964L36.0216 14.974L34.301 15.1408L34.4296 16.486L36.404 16.3018L36.4804 17.3655Z" fill="white"/>
<path d="M41.4339 16.8963L40.0713 17.0249L39.1154 15.5823C39.0542 15.4804 38.9845 15.3839 38.9069 15.2938C38.8494 15.2166 38.7854 15.1445 38.7157 15.0783C38.66 15.0246 38.5953 14.981 38.5245 14.9497C38.4579 14.9247 38.387 14.9129 38.3159 14.9149L37.9961 14.9393L38.2117 17.1883L37.0298 17.303L36.4736 11.418L38.3507 11.2442C39.6264 11.1261 40.3146 11.5918 40.4363 12.6625C40.4553 12.8543 40.4436 13.0479 40.4016 13.236C40.3631 13.4092 40.2986 13.5757 40.2104 13.7296C40.1177 13.8814 40.0002 14.0165 39.8628 14.1293C39.7219 14.2453 39.5665 14.3423 39.4005 14.4179C39.487 14.4416 39.5692 14.4792 39.6438 14.5291C39.7246 14.5888 39.8023 14.6526 39.8767 14.7203C39.9568 14.796 40.03 14.8786 40.0957 14.9671C40.1652 15.0505 40.2347 15.1409 40.2973 15.2243L41.4339 16.8963ZM37.7528 12.3149L37.9092 13.9486L38.4202 13.8965C38.5343 13.89 38.6459 13.8598 38.7476 13.8077C38.8494 13.7556 38.9391 13.6828 39.0111 13.594C39.1524 13.41 39.2149 13.1775 39.1849 12.9475C39.1328 12.4365 38.8373 12.2036 38.2916 12.2523L37.7528 12.3149Z" fill="white"/>
<path d="M22.9516 18.7454C22.603 18.7873 22.2495 18.7507 21.9169 18.6382C21.5842 18.5257 21.281 18.3402 21.0294 18.0954C20.473 17.5403 20.1476 16.7951 20.1187 16.0097C20.0022 15.2003 20.1812 14.376 20.6227 13.6877C20.8277 13.3852 21.0995 13.1337 21.4172 12.9529C21.7348 12.7721 22.0897 12.6667 22.4546 12.6449C22.799 12.6017 23.1488 12.6378 23.4771 12.7504C23.8054 12.8631 24.1037 13.0494 24.349 13.2949C24.8889 13.8605 25.2093 14.6 25.2528 15.3806C25.3674 16.1844 25.1885 17.0026 24.7488 17.6852C24.5533 17.9904 24.2888 18.2454 23.9766 18.4296C23.6645 18.6138 23.3133 18.7219 22.9516 18.7454ZM22.5345 13.799C22.3383 13.8136 22.1491 13.8781 21.9848 13.9863C21.8206 14.0946 21.6867 14.2431 21.596 14.4177C21.3747 14.8554 21.2922 15.3502 21.3596 15.8359C21.377 16.326 21.5513 16.7975 21.8567 17.1812C21.9771 17.3287 22.1322 17.444 22.3081 17.5168C22.4841 17.5896 22.6753 17.6176 22.8647 17.5983C23.0542 17.5867 23.2377 17.5274 23.3982 17.4259C23.5586 17.3244 23.6908 17.1841 23.7824 17.0178C24.0052 16.5906 24.0855 16.1035 24.0118 15.6274C23.9922 15.1251 23.8214 14.6405 23.5217 14.237C23.4109 14.0854 23.2626 13.9654 23.0914 13.8886C22.9201 13.8118 22.7318 13.7809 22.545 13.799H22.5345Z" fill="#FFCB00"/>
<path d="M28.7046 13.2531L26.8519 13.4269L26.9944 14.8695L28.6977 14.7061L28.8019 15.7802L27.0952 15.947L27.3142 18.2343L26.1324 18.3455L25.5762 12.4606L28.6177 12.1755L28.7046 13.2531Z" fill="#FFCB00"/>
<path d="M32.3091 12.9125L30.4598 13.0863L30.5989 14.5288L32.3022 14.3655L32.4064 15.443L30.7032 15.6099L30.9187 17.8936L29.7403 18.0084L29.1807 12.1234L32.2222 11.8384L32.3091 12.9125Z" fill="#FFCB00"/>
<path d="M36.4804 17.3655L33.3276 17.6575L32.7715 11.776L35.8026 11.491L35.9104 12.5651L34.0576 12.7389L34.1793 14.0459L35.9173 13.8964L36.0216 14.974L34.301 15.1408L34.4296 16.486L36.404 16.3018L36.4804 17.3655Z" fill="#FFCB00"/>
<path d="M41.4339 16.8963L40.0713 17.0249L39.1154 15.5823C39.0542 15.4804 38.9845 15.3839 38.9069 15.2938C38.8494 15.2166 38.7854 15.1445 38.7157 15.0783C38.66 15.0246 38.5953 14.981 38.5245 14.9497C38.4579 14.9247 38.387 14.9129 38.3159 14.9149L37.9961 14.9393L38.2117 17.1883L37.0298 17.303L36.4736 11.418L38.3507 11.2442C39.6264 11.1261 40.3146 11.5918 40.4363 12.6625C40.4553 12.8543 40.4436 13.0479 40.4016 13.236C40.3631 13.4092 40.2986 13.5757 40.2104 13.7296C40.1177 13.8814 40.0002 14.0165 39.8628 14.1293C39.7219 14.2453 39.5665 14.3423 39.4005 14.4179C39.487 14.4416 39.5692 14.4792 39.6438 14.5291C39.7246 14.5888 39.8023 14.6526 39.8767 14.7203C39.9568 14.796 40.03 14.8786 40.0957 14.9671C40.1652 15.0505 40.2347 15.1409 40.2973 15.2243L41.4339 16.8963ZM37.7528 12.3149L37.9092 13.9486L38.4202 13.8965C38.5343 13.89 38.6459 13.8598 38.7476 13.8077C38.8494 13.7556 38.9391 13.6828 39.0111 13.594C39.1524 13.41 39.2149 13.1775 39.1849 12.9475C39.1328 12.4365 38.8373 12.2036 38.2916 12.2523L37.7528 12.3149Z" fill="#FFCB00"/>
<path d="M22.9516 18.7454C22.603 18.7873 22.2495 18.7507 21.9169 18.6382C21.5842 18.5257 21.281 18.3402 21.0294 18.0954C20.473 17.5403 20.1476 16.7951 20.1187 16.0097C20.0022 15.2003 20.1812 14.376 20.6227 13.6877C20.8277 13.3852 21.0995 13.1337 21.4172 12.9529C21.7348 12.7721 22.0897 12.6667 22.4546 12.6449C22.799 12.6017 23.1488 12.6378 23.4771 12.7504C23.8054 12.8631 24.1037 13.0494 24.349 13.2949C24.8889 13.8605 25.2093 14.6 25.2528 15.3806C25.3674 16.1844 25.1885 17.0026 24.7488 17.6852C24.5533 17.9904 24.2888 18.2454 23.9766 18.4296C23.6645 18.6138 23.3133 18.7219 22.9516 18.7454ZM22.5345 13.799C22.3383 13.8136 22.1491 13.8781 21.9848 13.9863C21.8206 14.0946 21.6867 14.2431 21.596 14.4177C21.3747 14.8554 21.2922 15.3502 21.3596 15.8359C21.377 16.326 21.5513 16.7975 21.8567 17.1812C21.9771 17.3287 22.1322 17.444 22.3081 17.5168C22.4841 17.5896 22.6753 17.6176 22.8647 17.5983C23.0542 17.5867 23.2377 17.5274 23.3982 17.4259C23.5586 17.3244 23.6908 17.1841 23.7824 17.0178C24.0052 16.5906 24.0855 16.1035 24.0118 15.6274C23.9922 15.1251 23.8214 14.6405 23.5217 14.237C23.4109 14.0854 23.2626 13.9654 23.0914 13.8886C22.9201 13.8118 22.7318 13.7809 22.545 13.799H22.5345Z" fill="#FFCB00"/>
<path d="M28.7046 13.2531L26.8519 13.4269L26.9944 14.8695L28.6977 14.7061L28.8019 15.7802L27.0952 15.947L27.3142 18.2343L26.1324 18.3455L25.5762 12.4606L28.6177 12.1755L28.7046 13.2531Z" fill="#FFCB00"/>
<path d="M32.3091 12.9125L30.4598 13.0863L30.5989 14.5288L32.3022 14.3655L32.4064 15.443L30.7032 15.6099L30.9187 17.8936L29.7403 18.0084L29.1807 12.1234L32.2222 11.8384L32.3091 12.9125Z" fill="#FFCB00"/>
<path d="M36.4804 17.3655L33.3276 17.6575L32.7715 11.776L35.8026 11.491L35.9104 12.5651L34.0576 12.7389L34.1793 14.0459L35.9173 13.8964L36.0216 14.974L34.301 15.1408L34.4296 16.486L36.404 16.3018L36.4804 17.3655Z" fill="#FFCB00"/>
<path d="M41.4339 16.8963L40.0713 17.0249L39.1154 15.5823C39.0542 15.4804 38.9845 15.3839 38.9069 15.2938C38.8494 15.2166 38.7854 15.1445 38.7157 15.0783C38.66 15.0246 38.5953 14.981 38.5245 14.9497C38.4579 14.9247 38.387 14.9129 38.3159 14.9149L37.9961 14.9393L38.2117 17.1883L37.0298 17.303L36.4736 11.418L38.3507 11.2442C39.6264 11.1261 40.3146 11.5918 40.4363 12.6625C40.4553 12.8543 40.4436 13.0479 40.4016 13.236C40.3631 13.4092 40.2986 13.5757 40.2104 13.7296C40.1177 13.8814 40.0002 14.0165 39.8628 14.1293C39.7219 14.2453 39.5665 14.3423 39.4005 14.4179C39.487 14.4416 39.5692 14.4792 39.6438 14.5291C39.7246 14.5888 39.8023 14.6526 39.8767 14.7203C39.9568 14.796 40.03 14.8786 40.0957 14.9671C40.1652 15.0505 40.2347 15.1409 40.2973 15.2243L41.4339 16.8963ZM37.7528 12.3149L37.9092 13.9486L38.4202 13.8965C38.5343 13.89 38.6459 13.8598 38.7476 13.8077C38.8494 13.7556 38.9391 13.6828 39.0111 13.594C39.1524 13.41 39.2149 13.1775 39.1849 12.9475C39.1328 12.4365 38.8373 12.2036 38.2916 12.2523L37.7528 12.3149Z" fill="#FFCB00"/>
<path d="M22.9516 18.7454C22.603 18.7873 22.2495 18.7507 21.9169 18.6382C21.5842 18.5257 21.281 18.3402 21.0294 18.0954C20.473 17.5403 20.1476 16.7951 20.1187 16.0097C20.0022 15.2003 20.1812 14.376 20.6227 13.6877C20.8277 13.3852 21.0995 13.1337 21.4172 12.9529C21.7348 12.7721 22.0897 12.6667 22.4546 12.6449C22.799 12.6017 23.1488 12.6378 23.4771 12.7504C23.8054 12.8631 24.1037 13.0494 24.349 13.2949C24.8889 13.8605 25.2093 14.6 25.2528 15.3806C25.3674 16.1844 25.1885 17.0026 24.7488 17.6852C24.5533 17.9904 24.2888 18.2454 23.9766 18.4296C23.6645 18.6138 23.3133 18.7219 22.9516 18.7454ZM22.5345 13.799C22.3383 13.8136 22.1491 13.8781 21.9848 13.9863C21.8206 14.0946 21.6867 14.2431 21.596 14.4177C21.3747 14.8554 21.2922 15.3502 21.3596 15.8359C21.377 16.326 21.5513 16.7975 21.8567 17.1812C21.9771 17.3287 22.1322 17.444 22.3081 17.5168C22.4841 17.5896 22.6753 17.6176 22.8647 17.5983C23.0542 17.5867 23.2377 17.5274 23.3982 17.4259C23.5586 17.3244 23.6908 17.1841 23.7824 17.0178C24.0052 16.5906 24.0855 16.1035 24.0118 15.6274C23.9922 15.1251 23.8214 14.6405 23.5217 14.237C23.4109 14.0854 23.2626 13.9654 23.0914 13.8886C22.9201 13.8118 22.7318 13.7809 22.545 13.799H22.5345Z" fill="#FFCB00"/>
<path d="M28.7046 13.2531L26.8519 13.4269L26.9944 14.8695L28.6977 14.7061L28.8019 15.7802L27.0952 15.947L27.3142 18.2343L26.1324 18.3455L25.5762 12.4606L28.6177 12.1755L28.7046 13.2531Z" fill="#FFCB00"/>
<path d="M32.3091 12.9125L30.4598 13.0863L30.5989 14.5288L32.3022 14.3655L32.4064 15.443L30.7032 15.6099L30.9187 17.8936L29.7403 18.0084L29.1807 12.1234L32.2222 11.8384L32.3091 12.9125Z" fill="#FFCB00"/>
<path d="M36.4804 17.3655L33.3276 17.6575L32.7715 11.776L35.8026 11.491L35.9104 12.5651L34.0576 12.7389L34.1793 14.0459L35.9173 13.8964L36.0216 14.974L34.301 15.1408L34.4296 16.486L36.404 16.3018L36.4804 17.3655Z" fill="#FFCB00"/>
<path d="M41.4339 16.8963L40.0713 17.0249L39.1154 15.5823C39.0542 15.4804 38.9845 15.3839 38.9069 15.2938C38.8494 15.2166 38.7854 15.1445 38.7157 15.0783C38.66 15.0246 38.5953 14.981 38.5245 14.9497C38.4579 14.9247 38.387 14.9129 38.3159 14.9149L37.9961 14.9393L38.2117 17.1883L37.0298 17.303L36.4736 11.418L38.3507 11.2442C39.6264 11.1261 40.3146 11.5918 40.4363 12.6625C40.4553 12.8543 40.4436 13.0479 40.4016 13.236C40.3631 13.4092 40.2986 13.5757 40.2104 13.7296C40.1177 13.8814 40.0002 14.0165 39.8628 14.1293C39.7219 14.2453 39.5665 14.3423 39.4005 14.4179C39.487 14.4416 39.5692 14.4792 39.6438 14.5291C39.7246 14.5888 39.8023 14.6526 39.8767 14.7203C39.9568 14.796 40.03 14.8786 40.0957 14.9671C40.1652 15.0505 40.2347 15.1409 40.2973 15.2243L41.4339 16.8963ZM37.7528 12.3149L37.9092 13.9486L38.4202 13.8965C38.5343 13.89 38.6459 13.8598 38.7476 13.8077C38.8494 13.7556 38.9391 13.6828 39.0111 13.594C39.1524 13.41 39.2149 13.1775 39.1849 12.9475C39.1328 12.4365 38.8373 12.2036 38.2916 12.2523L37.7528 12.3149Z" fill="#FFCB00"/>
<path d="M20.6647 9.56167L20.6056 8.92555C20.6782 8.98805 20.7604 9.03851 20.8489 9.07502C20.9416 9.11588 21.0368 9.15071 21.134 9.1793C21.2323 9.20341 21.3322 9.22083 21.4329 9.23144C21.5243 9.23839 21.6161 9.23839 21.7075 9.23144C21.9386 9.22525 22.1601 9.13787 22.3332 8.98464C22.3994 8.91154 22.4487 8.82473 22.4776 8.7304C22.5064 8.63607 22.5141 8.53654 22.5001 8.43891C22.4926 8.32418 22.4567 8.21311 22.3958 8.11563C22.3363 8.02746 22.2636 7.94892 22.1803 7.88274C22.082 7.80962 21.9773 7.74563 21.8674 7.69156C21.7458 7.63246 21.6137 7.56989 21.4746 7.5108C21.3356 7.45171 21.1861 7.37176 21.0679 7.29876C20.9428 7.23309 20.8261 7.15256 20.7203 7.05892C20.6239 6.9636 20.5419 6.85469 20.477 6.73565C20.409 6.59746 20.3678 6.44768 20.3554 6.29419C20.332 6.10476 20.3559 5.91251 20.4249 5.73454C20.4828 5.57621 20.5782 5.43428 20.703 5.3209C20.8255 5.20738 20.9666 5.11567 21.1201 5.04977C21.2784 4.9873 21.4444 4.94638 21.6137 4.9281C21.906 4.88073 22.2056 4.91069 22.4827 5.015L22.5453 5.62331C22.2677 5.44966 21.9378 5.37949 21.6137 5.42518C21.5107 5.43587 21.4093 5.45802 21.3113 5.49122C21.2181 5.52921 21.1304 5.57948 21.0506 5.64069C20.9748 5.70324 20.9151 5.78312 20.8768 5.87359C20.8312 5.9834 20.8156 6.10337 20.8316 6.22119C20.8396 6.32576 20.8692 6.42753 20.9185 6.52013C20.9698 6.60316 21.0357 6.67618 21.1131 6.73565C21.2024 6.80446 21.2978 6.86496 21.3982 6.9164C21.5129 6.96854 21.6415 7.04154 21.7875 7.10063C21.9335 7.15972 22.0864 7.23967 22.215 7.31614C22.3482 7.38994 22.4709 7.48112 22.58 7.58727C22.6824 7.69071 22.7701 7.80766 22.8407 7.93488C22.914 8.0766 22.9589 8.23129 22.9728 8.39024C22.995 8.58828 22.9737 8.78878 22.9102 8.97769C22.852 9.13433 22.7607 9.27659 22.6426 9.39482C22.5216 9.51137 22.3753 9.59823 22.215 9.64857C22.0448 9.70958 21.867 9.74701 21.6867 9.7598C21.608 9.76583 21.529 9.76583 21.4503 9.7598C21.3548 9.75875 21.2595 9.75062 21.1653 9.73547C21.0679 9.71461 20.9741 9.69723 20.8872 9.6729C20.8102 9.64187 20.7357 9.60467 20.6647 9.56167Z" fill="white"/>
<path d="M24.186 7.65705L24.3529 9.39507L23.8906 9.43678L23.4561 4.83103L24.5441 4.73022C24.7225 4.70028 24.9054 4.70867 25.0804 4.75482C25.2554 4.80096 25.4185 4.88382 25.5591 4.99788C25.6959 5.12471 25.8058 5.27778 25.8822 5.44798C25.9587 5.61817 26.0001 5.80201 26.004 5.98855C26.0582 6.38177 25.9544 6.78045 25.7155 7.09741C25.5951 7.25141 25.4425 7.37725 25.2684 7.46611C25.0942 7.55498 24.9028 7.60472 24.7074 7.61186L24.186 7.65705ZM23.9601 5.29334L24.1443 7.18083L24.6275 7.13564C24.8987 7.12627 25.1556 7.01155 25.3435 6.81584C25.4244 6.71025 25.4823 6.58889 25.5134 6.45958C25.5446 6.33026 25.5483 6.19586 25.5243 6.06502C25.5286 5.93811 25.5034 5.81192 25.4507 5.6964C25.3979 5.58089 25.3191 5.47919 25.2203 5.39933C25.1216 5.31946 25.0057 5.26362 24.8817 5.23618C24.7577 5.20874 24.629 5.21045 24.5058 5.2412L23.9601 5.29334Z" fill="white"/>
<path d="M29.1566 8.93621L27.0536 9.13434L26.6191 4.52859L28.6352 4.3374L28.677 4.82405L27.1336 4.97352L27.2796 6.50298L28.7152 6.36393L28.7569 6.8471L27.3213 6.98962L27.4708 8.59555L29.101 8.43913L29.1566 8.93621Z" fill="white"/>
<path d="M32.6088 8.42192C32.2925 8.64107 31.9223 8.76967 31.5382 8.79386C31.2793 8.82739 31.0162 8.79921 30.7703 8.71161C30.5244 8.62401 30.3028 8.47948 30.1234 8.28983C29.722 7.84748 29.4851 7.28038 29.4526 6.6839C29.3618 6.04178 29.5035 5.38835 29.8523 4.8416C30.006 4.6083 30.2114 4.41356 30.4525 4.2725C30.6936 4.13143 30.964 4.04784 31.2427 4.02821C31.5649 3.98807 31.8919 4.02256 32.1986 4.12901L32.2508 4.70256C31.9531 4.54942 31.6173 4.48659 31.2844 4.5218C31.0706 4.53888 30.8637 4.60518 30.6797 4.71554C30.4958 4.82589 30.3399 4.9773 30.2242 5.15792C29.9612 5.5949 29.8603 6.11049 29.9392 6.61438C29.9571 7.09609 30.1414 7.5567 30.4606 7.9179C30.5964 8.06611 30.7657 8.17972 30.9544 8.24925C31.143 8.31879 31.3456 8.34223 31.5451 8.31764C31.9172 8.29407 32.2718 8.15149 32.5567 7.91094L32.6088 8.42192Z" fill="white"/>
<path d="M33.8421 3.85083L33.8838 4.30967L33.4945 4.34443L33.8421 8.02208L34.2314 7.98732L34.2731 8.44963L33.0322 8.56782L32.9905 8.10898L33.3798 8.07422L33.0322 4.39657L32.6428 4.43133L32.5977 3.97249L33.8421 3.85083Z" fill="white"/>
<path d="M38.0028 8.10174L37.4918 8.15388L36.953 6.89903L35.2637 7.05545L34.996 8.38677L34.4746 8.43891L35.5626 3.69412L36.0388 3.64893L38.0028 8.10174ZM36.7514 6.42281L35.945 4.51794C35.9035 4.42115 35.8743 4.31956 35.8581 4.21552C35.8529 4.32042 35.8413 4.42489 35.8233 4.52837L35.3888 6.54447L36.7514 6.42281Z" fill="white"/>
<path d="M40.645 7.84813L38.5941 8.03931L38.1631 3.43356L38.6219 3.39185L39.0112 7.51095L40.6033 7.36148L40.645 7.84813Z" fill="white"/>
<path d="M14.9559 10.9766C14.9559 11.001 14.9073 10.9766 14.9246 10.9419C16.1646 8.83489 17.5588 6.82256 19.0959 4.92139L19.7285 5.42541C18.2712 7.38658 16.6763 9.24166 14.9559 10.9766Z" fill="white"/>
<path d="M21.9848 11.6897L21.8492 11.064C21.168 11.1145 20.4942 11.2392 19.8401 11.4359C18.7756 11.6546 17.7251 11.9366 16.6942 12.2806C16.6769 12.2806 16.6942 12.3153 16.6942 12.3153C17.7857 12.2886 18.8745 12.1957 19.9548 12.0373C20.6427 12.0009 21.324 11.8843 21.9848 11.6897Z" fill="white"/>
<path d="M15.3665 4.15695L14.7548 4.04224C14.5455 4.66491 14.4034 5.30815 14.3307 5.96101C14.1231 6.99453 13.9745 8.03903 13.8857 9.08945C13.8874 9.09317 13.89 9.09633 13.8934 9.09856C13.8968 9.10078 13.9008 9.10197 13.9049 9.10197C13.9089 9.10197 13.9129 9.10078 13.9163 9.09856C13.9197 9.09633 13.9224 9.09317 13.924 9.08945C14.3069 8.10638 14.6342 7.10253 14.9042 6.08267C15.1402 5.46323 15.2956 4.81601 15.3665 4.15695Z" fill="white"/>
<path d="M18.085 16.1556C18.2678 15.9887 18.3776 15.7566 18.3906 15.5094C18.4036 15.2622 18.3188 15.0199 18.1545 14.8347L11.6439 7.63931C11.484 7.46973 11.2666 7.36597 11.0342 7.34837C10.8017 7.33078 10.5711 7.40061 10.3875 7.54418C10.204 7.68775 10.0806 7.89471 10.0416 8.1245C10.0027 8.35429 10.051 8.59035 10.177 8.7864L7.58735 14.0596L5.38701 16.0444C5.24129 16.1751 5.12619 16.3363 5.04988 16.5165C4.97358 16.6967 4.93797 16.8916 4.94556 17.0872L4.98032 17.7372L4.63271 18.05C4.39397 18.2709 4.25119 18.5765 4.23495 18.9013C4.21871 19.2262 4.33029 19.5445 4.54581 19.7881L5.29317 20.6223C5.51515 20.8654 5.82418 21.0109 6.15297 21.0272C6.48176 21.0435 6.80366 20.9292 7.04856 20.7092L7.39617 20.3964L8.03923 20.4937C8.21661 20.5195 8.39735 20.5101 8.57107 20.4659L12.0019 24.2617C12.074 24.3428 12.1614 24.4088 12.2591 24.4558C12.3568 24.5029 12.4628 24.5301 12.5711 24.536C12.6794 24.5418 12.7878 24.5261 12.8899 24.4897C12.9921 24.4534 13.0861 24.3972 13.1664 24.3243L13.6287 23.9072C13.7116 23.8316 13.7782 23.7399 13.8246 23.6377C13.8709 23.5355 13.896 23.425 13.8983 23.3128C13.9005 23.2006 13.88 23.0891 13.8378 22.9852C13.7957 22.8812 13.7328 22.7869 13.653 22.7079C13.0101 22.0675 12.4863 21.3177 12.1062 20.4937L12.5929 20.0592C12.7394 19.9269 12.8275 19.7418 12.8376 19.5446C12.8477 19.3474 12.779 19.1543 12.6467 19.0077C12.5144 18.8611 12.3293 18.7731 12.1321 18.763C11.9349 18.7529 11.7418 18.8215 11.5952 18.9538C11.5311 18.6808 11.4812 18.4047 11.4458 18.1265L16.7641 16.0409C16.9242 16.231 17.1532 16.3499 17.4008 16.3714C17.6485 16.3929 17.8945 16.3153 18.085 16.1556Z" fill="#1F1F38"/>
<path d="M8.09167 20.1603L7.36171 20.0491C7.33393 20.0453 7.30567 20.0474 7.27874 20.0552C7.2518 20.063 7.22678 20.0763 7.20529 20.0943L6.78816 20.4662C6.61756 20.621 6.3925 20.7017 6.16241 20.6907C5.93232 20.6796 5.71604 20.5776 5.56111 20.4071L4.81725 19.5729C4.66246 19.4023 4.58172 19.1772 4.5928 18.9471C4.60388 18.7171 4.70587 18.5008 4.87634 18.3458L5.29346 17.9739C5.31367 17.9547 5.32965 17.9315 5.34042 17.9057C5.35119 17.88 5.35651 17.8523 5.35603 17.8244L5.32128 17.084C5.31297 16.9416 5.33641 16.7991 5.38991 16.6669C5.44342 16.5346 5.52563 16.4159 5.63063 16.3193L7.71625 14.4353L10.9698 18.033L8.88422 19.917C8.81805 19.9762 8.74443 20.0264 8.66523 20.0665L6.31194 17.4595C6.27968 17.4226 6.23409 17.4 6.1852 17.3968C6.13631 17.3935 6.08811 17.4098 6.05124 17.4421C6.01436 17.4743 5.9918 17.5199 5.98855 17.5688C5.98529 17.6177 6.0016 17.6659 6.03386 17.7028L8.2481 20.1603C8.19688 20.1742 8.14289 20.1742 8.09167 20.1603Z" fill="white"/>
<path d="M9.13446 20.2054L11.0915 18.4326C11.2483 19.574 11.6516 20.6676 12.2733 21.6375L11.0637 22.7255L8.91895 20.3514C8.99724 20.313 9.06978 20.2639 9.13446 20.2054Z" fill="#FFCB00"/>
<path d="M11.8287 23.5597L11.3281 23.0035L12.4926 21.9607C12.6322 22.1676 12.7855 22.3651 12.9514 22.5516L11.8287 23.5597Z" fill="white"/>
<path d="M7.95215 14.1465L10.4306 9.08887L16.4858 15.7907L11.2892 17.8346L7.95215 14.1465Z" fill="#FFCB00"/>
<path d="M6.67322 19.406L5.97801 20.0317C5.96 20.0483 5.94562 20.0684 5.93579 20.0908C5.92596 20.1133 5.9209 20.1375 5.9209 20.162C5.9209 20.1865 5.92596 20.2107 5.93579 20.2332C5.94562 20.2556 5.96 20.2758 5.97801 20.2924C5.99488 20.3099 6.01512 20.3239 6.03752 20.3334C6.05992 20.343 6.08402 20.3479 6.10836 20.3479C6.13271 20.3479 6.1568 20.343 6.1792 20.3334C6.2016 20.3239 6.22185 20.3099 6.23872 20.2924L6.93392 19.6667C6.96715 19.6307 6.98561 19.5835 6.98561 19.5346C6.98561 19.4856 6.96715 19.4385 6.93392 19.4025C6.89848 19.3692 6.8515 19.3509 6.80287 19.3516C6.75424 19.3522 6.70776 19.3717 6.67322 19.406Z" fill="#1F1F38"/>
<path d="M6.16946 18.8497L5.47426 19.4754C5.43944 19.5105 5.41992 19.558 5.41992 19.6075C5.41992 19.6569 5.43944 19.7044 5.47426 19.7396C5.50965 19.7726 5.55623 19.7909 5.60461 19.7909C5.65299 19.7909 5.69957 19.7726 5.73496 19.7396L6.43017 19.1174C6.4473 19.1002 6.46091 19.0799 6.47018 19.0576C6.47945 19.0352 6.48423 19.0112 6.48423 18.987C6.48423 18.9628 6.47945 18.9388 6.47018 18.9165C6.46091 18.8941 6.4473 18.8738 6.43017 18.8567C6.39566 18.8227 6.34958 18.8031 6.30119 18.8018C6.25281 18.8005 6.20573 18.8176 6.16946 18.8497Z" fill="#1F1F38"/>
<path d="M5.67528 18.3042L4.98007 18.9299C4.96261 18.9464 4.94871 18.9664 4.93921 18.9885C4.92971 19.0106 4.9248 19.0344 4.9248 19.0585C4.9248 19.0825 4.92971 19.1064 4.93921 19.1285C4.94871 19.1506 4.96261 19.1705 4.98007 19.1871C4.99724 19.2047 5.01779 19.2188 5.04047 19.2284C5.06316 19.2379 5.08753 19.2429 5.11216 19.2429C5.13679 19.2429 5.16116 19.2379 5.18385 19.2284C5.20654 19.2188 5.22709 19.2047 5.24426 19.1871L5.93946 18.5614C5.95778 18.5455 5.97278 18.5261 5.98357 18.5043C5.99437 18.4826 6.00075 18.4589 6.00237 18.4347C6.00398 18.4104 6.00078 18.3861 5.99297 18.3631C5.98516 18.3401 5.97288 18.3189 5.95684 18.3007C5.91873 18.2644 5.86795 18.2445 5.81535 18.2451C5.76274 18.2458 5.71248 18.267 5.67528 18.3042Z" fill="#1F1F38"/>
<path d="M10.5594 7.84822C10.6141 7.79851 10.6782 7.7602 10.7478 7.73553C10.8175 7.71085 10.8914 7.70031 10.9652 7.70452C11.039 7.70872 11.1112 7.72759 11.1776 7.76003C11.244 7.79246 11.3033 7.83781 11.352 7.89342L17.8591 15.0853C17.9587 15.196 18.0102 15.3416 18.0024 15.4902C17.9946 15.6389 17.928 15.7783 17.8174 15.8779C17.7068 15.9774 17.5611 16.029 17.4125 16.0212C17.2638 16.0133 17.1244 15.9468 17.0249 15.8362L10.5142 8.63729C10.4183 8.52542 10.3695 8.38076 10.3779 8.23365C10.3863 8.08655 10.4514 7.94841 10.5594 7.84822Z" fill="white"/>
<path d="M13.3678 23.6744L12.9055 24.0916C12.8619 24.1314 12.8107 24.1621 12.755 24.1819C12.6993 24.2016 12.6401 24.2099 12.5811 24.2063C12.5221 24.2027 12.4644 24.1874 12.4115 24.1611C12.3585 24.1348 12.3114 24.0982 12.2729 24.0533L12.0713 23.8378L13.1906 22.8193C13.2508 22.8865 13.3146 22.9503 13.3817 23.0105C13.4249 23.0548 13.4588 23.1072 13.4815 23.1647C13.5042 23.2222 13.5152 23.2836 13.5139 23.3454C13.5126 23.4072 13.499 23.4681 13.4739 23.5246C13.4489 23.5811 13.4128 23.632 13.3678 23.6744Z" fill="#FFCB00"/>
<path d="M11.8282 19.2772C11.8643 19.2439 11.9068 19.218 11.953 19.2012C11.9992 19.1844 12.0483 19.1768 12.0974 19.1791C12.1466 19.1814 12.1948 19.1934 12.2393 19.2144C12.2837 19.2354 12.3236 19.265 12.3565 19.3016C12.3898 19.3382 12.4154 19.3811 12.432 19.4278C12.4486 19.4744 12.4559 19.5238 12.4533 19.5733C12.4507 19.6227 12.4383 19.6711 12.417 19.7158C12.3956 19.7604 12.3656 19.8004 12.3287 19.8334L11.9394 20.181C11.8344 19.9291 11.7473 19.67 11.6787 19.4058L11.8282 19.2772Z" fill="white"/>
<path d="M11.0638 10.9068C11.0467 10.9239 11.0331 10.9442 11.0238 10.9666C11.0145 10.989 11.0098 11.0129 11.0098 11.0371C11.0098 11.0614 11.0145 11.0853 11.0238 11.1077C11.0331 11.1301 11.0467 11.1504 11.0638 11.1675L14.5642 15.0433C14.5813 15.0604 14.6016 15.074 14.624 15.0833C14.6464 15.0926 14.6703 15.0973 14.6945 15.0973C14.7187 15.0973 14.7427 15.0926 14.7651 15.0833C14.7875 15.074 14.8078 15.0604 14.8249 15.0433C14.8424 15.0264 14.8564 15.0062 14.866 14.9838C14.8755 14.9614 14.8804 14.9373 14.8804 14.9129C14.8804 14.8886 14.8755 14.8645 14.866 14.8421C14.8564 14.8197 14.8424 14.7994 14.8249 14.7826L11.3245 10.9242C11.3088 10.9054 11.2895 10.8901 11.2678 10.879C11.246 10.8679 11.2222 10.8614 11.1979 10.8598C11.1735 10.8582 11.1491 10.8615 11.126 10.8696C11.103 10.8776 11.0818 10.8903 11.0638 10.9068Z" fill="#1F1F38"/>
<path d="M11.3768 12.6448C11.3593 12.6616 11.3453 12.6819 11.3358 12.7043C11.3262 12.7267 11.3213 12.7508 11.3213 12.7751C11.3213 12.7995 11.3262 12.8236 11.3358 12.846C11.3453 12.8684 11.3593 12.8886 11.3768 12.9055L12.882 14.5636C12.9146 14.5995 12.9598 14.6217 13.0082 14.6255C13.0566 14.6294 13.1047 14.6147 13.1427 14.5844C13.1749 14.5487 13.1927 14.5022 13.1927 14.4541C13.1927 14.4059 13.1749 14.3595 13.1427 14.3237L11.6375 12.6622C11.6044 12.6267 11.559 12.6052 11.5106 12.602C11.4622 12.5988 11.4144 12.6141 11.3768 12.6448Z" fill="#1F1F38"/>
<path d="M11.0566 13.6877C11.0228 13.7227 11.0039 13.7694 11.0039 13.818C11.0039 13.8667 11.0228 13.9134 11.0566 13.9484L11.8039 14.7826C11.8393 14.8156 11.8859 14.834 11.9343 14.834C11.9826 14.834 12.0292 14.8156 12.0646 14.7826C12.0817 14.7655 12.0953 14.7452 12.1046 14.7228C12.1139 14.7005 12.1186 14.6765 12.1186 14.6523C12.1186 14.6281 12.1139 14.6041 12.1046 14.5817C12.0953 14.5594 12.0817 14.5391 12.0646 14.5219L11.3173 13.6877C11.302 13.6675 11.2823 13.6512 11.2597 13.6399C11.2371 13.6287 11.2122 13.6228 11.1869 13.6228C11.1617 13.6228 11.1367 13.6287 11.1141 13.6399C11.0915 13.6512 11.0718 13.6675 11.0566 13.6877Z" fill="#1F1F38"/>
</svg>
