<svg width="45" height="14" viewBox="0 0 45 14" fill="none" xmlns="http://www.w3.org/2000/svg">
<path d="M0.808594 2.8938L1.68449 1.10376L9.28954 5.48327L0.808594 2.8938Z" fill="#011F37"/>
<path d="M5.92871 2.59842L6.45008 1.83374L9.3767 4.90287L5.92871 2.59842Z" fill="#00F7FF"/>
<path d="M44.2556 10.3249L43.5431 12.7406L35.6113 7.95093L44.2556 10.3249Z" fill="#011F37"/>
<path d="M39.2092 11.295L38.7539 12.3552L35.584 8.70557L39.2092 11.295Z" fill="#00F7FF"/>
<path d="M38.5805 6.97799H13.2697L7.41992 0.245361H32.7446L38.5805 6.97799Z" fill="#011F37"/>
<path d="M37.9475 13.7144H15.1984L9.34863 6.97827H32.1082L37.9475 13.7144Z" fill="#00F7FF"/>
<path d="M18.7088 12.2442C18.4865 12.2504 18.2656 12.2068 18.0623 12.1165C17.859 12.0263 17.6785 11.8918 17.534 11.7228C17.2202 11.3388 17.0604 10.852 17.0856 10.3568C17.0632 9.84005 17.2259 9.33226 17.5444 8.92476C17.6916 8.74623 17.8779 8.60388 18.0888 8.50867C18.2997 8.41345 18.5296 8.36792 18.7609 8.37558C18.9806 8.37 19.1987 8.41397 19.3991 8.50422C19.5995 8.59448 19.777 8.72871 19.9184 8.89695C20.2052 9.30477 20.3574 9.79205 20.3537 10.2906C20.3499 10.7892 20.1904 11.2741 19.8975 11.6776C19.759 11.86 19.5787 12.0067 19.3719 12.1052C19.1651 12.2038 18.9378 12.2514 18.7088 12.2442ZM18.7435 9.11593C18.6181 9.11459 18.4944 9.14593 18.3847 9.20687C18.275 9.26781 18.183 9.35626 18.1179 9.46351C17.9654 9.72771 17.8851 10.0274 17.8851 10.3325C17.8851 10.6375 17.9654 10.9372 18.1179 11.2014C18.1868 11.2997 18.2784 11.3799 18.3849 11.4352C18.4914 11.4906 18.6096 11.5195 18.7296 11.5195C18.8497 11.5195 18.9679 11.4906 19.0744 11.4352C19.1809 11.3799 19.2725 11.2997 19.3414 11.2014C19.5091 10.9439 19.5895 10.6392 19.5708 10.3325C19.5859 10.0165 19.5099 9.70279 19.3518 9.42875C19.2872 9.32667 19.1972 9.24317 19.0905 9.18649C18.9839 9.12981 18.8643 9.1019 18.7435 9.1055V9.11593Z" fill="white"/>
<path d="M22.654 9.1331H21.4896V10.0542H22.5741V10.7493H21.4896V12.1918H20.7354V8.45532H22.6644V9.15048L22.654 9.1331Z" fill="white"/>
<path d="M24.9653 9.1331H23.7836V10.0542H24.868V10.7493H23.7836V12.1918H23.0293V8.45532H24.9549V9.15048L24.9653 9.1331Z" fill="white"/>
<path d="M27.3121 12.1917H25.3135V8.44824H27.2425V9.1434H26.0677V9.97759H27.1626V10.6728H26.0677V11.4965H27.319V12.1917H27.3121Z" fill="white"/>
<path d="M30.4572 12.1917H29.5882L29.0669 11.2254C29.0338 11.1587 28.9955 11.0948 28.9522 11.0342C28.9239 10.9813 28.8888 10.9322 28.8479 10.8883C28.8161 10.8502 28.7786 10.8174 28.7367 10.7909C28.6965 10.7678 28.6509 10.7558 28.6046 10.7562H28.4065V12.1917H27.6592V8.44824H28.8479C29.6589 8.44824 30.0644 8.78655 30.0644 9.46318C30.0648 9.58076 30.0484 9.6978 30.0158 9.81076C29.9808 9.91608 29.9305 10.0156 29.8663 10.1062C29.7295 10.286 29.538 10.4165 29.3206 10.4781C29.3738 10.4986 29.4232 10.528 29.4666 10.565C29.5083 10.6067 29.5604 10.6519 29.6056 10.704C29.65 10.7555 29.6907 10.8101 29.7273 10.8674C29.762 10.93 29.8037 10.9891 29.8316 11.0412L30.4572 12.1917ZM28.4065 9.06346V10.1062H28.7541C28.8273 10.1102 28.9004 10.0979 28.9684 10.0702C29.0363 10.0426 29.0972 10.0003 29.1468 9.94631C29.2434 9.83992 29.2956 9.70066 29.2928 9.55702C29.2928 9.20944 29.119 9.07041 28.7714 9.07041H28.4239L28.4065 9.06346Z" fill="white"/>
<path d="M18.7088 12.2442C18.4865 12.2504 18.2656 12.2068 18.0623 12.1165C17.859 12.0263 17.6785 11.8918 17.534 11.7228C17.2202 11.3388 17.0604 10.852 17.0856 10.3568C17.0632 9.84005 17.2259 9.33226 17.5444 8.92476C17.6916 8.74623 17.8779 8.60388 18.0888 8.50867C18.2997 8.41345 18.5296 8.36792 18.7609 8.37558C18.9806 8.37 19.1987 8.41397 19.3991 8.50422C19.5995 8.59448 19.777 8.72871 19.9184 8.89695C20.2052 9.30477 20.3574 9.79205 20.3537 10.2906C20.3499 10.7892 20.1904 11.2741 19.8975 11.6776C19.759 11.86 19.5787 12.0067 19.3719 12.1052C19.1651 12.2038 18.9378 12.2514 18.7088 12.2442ZM18.7435 9.11593C18.6181 9.11459 18.4944 9.14593 18.3847 9.20687C18.275 9.26781 18.183 9.35626 18.1179 9.46351C17.9654 9.72771 17.8851 10.0274 17.8851 10.3325C17.8851 10.6375 17.9654 10.9372 18.1179 11.2014C18.1868 11.2997 18.2784 11.3799 18.3849 11.4352C18.4914 11.4906 18.6096 11.5195 18.7296 11.5195C18.8497 11.5195 18.9679 11.4906 19.0744 11.4352C19.1809 11.3799 19.2725 11.2997 19.3414 11.2014C19.5091 10.9439 19.5895 10.6392 19.5708 10.3325C19.5859 10.0165 19.5099 9.70279 19.3518 9.42875C19.2872 9.32667 19.1972 9.24317 19.0905 9.18649C18.9839 9.12981 18.8643 9.1019 18.7435 9.1055V9.11593Z" fill="#011F37"/>
<path d="M22.654 9.1331H21.4896V10.0542H22.5741V10.7493H21.4896V12.1918H20.7354V8.45532H22.6644V9.15048L22.654 9.1331Z" fill="#011F37"/>
<path d="M24.9653 9.1331H23.7836V10.0542H24.868V10.7493H23.7836V12.1918H23.0293V8.45532H24.9549V9.15048L24.9653 9.1331Z" fill="#011F37"/>
<path d="M27.3121 12.1917H25.3135V8.44824H27.2425V9.1434H26.0677V9.97759H27.1626V10.6728H26.0677V11.4965H27.319V12.1917H27.3121Z" fill="#011F37"/>
<path d="M30.4572 12.1917H29.5882L29.0669 11.2254C29.0338 11.1587 28.9955 11.0948 28.9522 11.0342C28.9239 10.9813 28.8888 10.9322 28.8479 10.8883C28.8161 10.8502 28.7786 10.8174 28.7367 10.7909C28.6965 10.7678 28.6509 10.7558 28.6046 10.7562H28.4065V12.1917H27.6592V8.44824H28.8479C29.6589 8.44824 30.0644 8.78655 30.0644 9.46318C30.0648 9.58076 30.0484 9.6978 30.0158 9.81076C29.9808 9.91608 29.9305 10.0156 29.8663 10.1062C29.7295 10.286 29.538 10.4165 29.3206 10.4781C29.3738 10.4986 29.4232 10.528 29.4666 10.565C29.5083 10.6067 29.5604 10.6519 29.6056 10.704C29.65 10.7555 29.6907 10.8101 29.7273 10.8674C29.762 10.93 29.8037 10.9891 29.8316 11.0412L30.4572 12.1917ZM28.4065 9.06346V10.1062H28.7541C28.8273 10.1102 28.9004 10.0979 28.9684 10.0702C29.0363 10.0426 29.0972 10.0003 29.1468 9.94631C29.2434 9.83992 29.2956 9.70066 29.2928 9.55702C29.2928 9.20944 29.119 9.07041 28.7714 9.07041H28.4239L28.4065 9.06346Z" fill="#011F37"/>
<path d="M18.7088 12.2442C18.4865 12.2504 18.2656 12.2068 18.0623 12.1165C17.859 12.0263 17.6785 11.8918 17.534 11.7228C17.2202 11.3388 17.0604 10.852 17.0856 10.3568C17.0632 9.84005 17.2259 9.33226 17.5444 8.92476C17.6916 8.74623 17.8779 8.60388 18.0888 8.50867C18.2997 8.41345 18.5296 8.36792 18.7609 8.37558C18.9806 8.37 19.1987 8.41397 19.3991 8.50422C19.5995 8.59448 19.777 8.72871 19.9184 8.89695C20.2052 9.30477 20.3574 9.79205 20.3537 10.2906C20.3499 10.7892 20.1904 11.2741 19.8975 11.6776C19.759 11.86 19.5787 12.0067 19.3719 12.1052C19.1651 12.2038 18.9378 12.2514 18.7088 12.2442ZM18.7435 9.11593C18.6181 9.11459 18.4944 9.14593 18.3847 9.20687C18.275 9.26781 18.183 9.35626 18.1179 9.46351C17.9654 9.72771 17.8851 10.0274 17.8851 10.3325C17.8851 10.6375 17.9654 10.9372 18.1179 11.2014C18.1868 11.2997 18.2784 11.3799 18.3849 11.4352C18.4914 11.4906 18.6096 11.5195 18.7296 11.5195C18.8497 11.5195 18.9679 11.4906 19.0744 11.4352C19.1809 11.3799 19.2725 11.2997 19.3414 11.2014C19.5091 10.9439 19.5895 10.6392 19.5708 10.3325C19.5859 10.0165 19.5099 9.70279 19.3518 9.42875C19.2872 9.32667 19.1972 9.24317 19.0905 9.18649C18.9839 9.12981 18.8643 9.1019 18.7435 9.1055V9.11593Z" fill="#011F37"/>
<path d="M22.654 9.1331H21.4896V10.0542H22.5741V10.7493H21.4896V12.1918H20.7354V8.45532H22.6644V9.15048L22.654 9.1331Z" fill="#011F37"/>
<path d="M24.9653 9.1331H23.7836V10.0542H24.868V10.7493H23.7836V12.1918H23.0293V8.45532H24.9549V9.15048L24.9653 9.1331Z" fill="#011F37"/>
<path d="M27.3121 12.1917H25.3135V8.44824H27.2425V9.1434H26.0677V9.97759H27.1626V10.6728H26.0677V11.4965H27.319V12.1917H27.3121Z" fill="#011F37"/>
<path d="M30.4572 12.1917H29.5882L29.0669 11.2254C29.0338 11.1587 28.9955 11.0948 28.9522 11.0342C28.9239 10.9813 28.8888 10.9322 28.8479 10.8883C28.8161 10.8502 28.7786 10.8174 28.7367 10.7909C28.6965 10.7678 28.6509 10.7558 28.6046 10.7562H28.4065V12.1917H27.6592V8.44824H28.8479C29.6589 8.44824 30.0644 8.78655 30.0644 9.46318C30.0648 9.58076 30.0484 9.6978 30.0158 9.81076C29.9808 9.91608 29.9305 10.0156 29.8663 10.1062C29.7295 10.286 29.538 10.4165 29.3206 10.4781C29.3738 10.4986 29.4232 10.528 29.4666 10.565C29.5083 10.6067 29.5604 10.6519 29.6056 10.704C29.65 10.7555 29.6907 10.8101 29.7273 10.8674C29.762 10.93 29.8037 10.9891 29.8316 11.0412L30.4572 12.1917ZM28.4065 9.06346V10.1062H28.7541C28.8273 10.1102 28.9004 10.0979 28.9684 10.0702C29.0363 10.0426 29.0972 10.0003 29.1468 9.94631C29.2434 9.83992 29.2956 9.70066 29.2928 9.55702C29.2928 9.20944 29.119 9.07041 28.7714 9.07041H28.4239L28.4065 9.06346Z" fill="#011F37"/>
<path d="M18.7088 12.2442C18.4865 12.2504 18.2656 12.2068 18.0623 12.1165C17.859 12.0263 17.6785 11.8918 17.534 11.7228C17.2202 11.3388 17.0604 10.852 17.0856 10.3568C17.0632 9.84005 17.2259 9.33226 17.5444 8.92476C17.6916 8.74623 17.8779 8.60388 18.0888 8.50867C18.2997 8.41345 18.5296 8.36792 18.7609 8.37558C18.9806 8.37 19.1987 8.41397 19.3991 8.50422C19.5995 8.59448 19.777 8.72871 19.9184 8.89695C20.2052 9.30477 20.3574 9.79205 20.3537 10.2906C20.3499 10.7892 20.1904 11.2741 19.8975 11.6776C19.759 11.86 19.5787 12.0067 19.3719 12.1052C19.1651 12.2038 18.9378 12.2514 18.7088 12.2442ZM18.7435 9.11593C18.6181 9.11459 18.4944 9.14593 18.3847 9.20687C18.275 9.26781 18.183 9.35626 18.1179 9.46351C17.9654 9.72771 17.8851 10.0274 17.8851 10.3325C17.8851 10.6375 17.9654 10.9372 18.1179 11.2014C18.1868 11.2997 18.2784 11.3799 18.3849 11.4352C18.4914 11.4906 18.6096 11.5195 18.7296 11.5195C18.8497 11.5195 18.9679 11.4906 19.0744 11.4352C19.1809 11.3799 19.2725 11.2997 19.3414 11.2014C19.5091 10.9439 19.5895 10.6392 19.5708 10.3325C19.5859 10.0165 19.5099 9.70279 19.3518 9.42875C19.2872 9.32667 19.1972 9.24317 19.0905 9.18649C18.9839 9.12981 18.8643 9.1019 18.7435 9.1055V9.11593Z" fill="#011F37"/>
<path d="M22.654 9.1331H21.4896V10.0542H22.5741V10.7493H21.4896V12.1918H20.7354V8.45532H22.6644V9.15048L22.654 9.1331Z" fill="#011F37"/>
<path d="M24.9653 9.1331H23.7836V10.0542H24.868V10.7493H23.7836V12.1918H23.0293V8.45532H24.9549V9.15048L24.9653 9.1331Z" fill="#011F37"/>
<path d="M27.3121 12.1917H25.3135V8.44824H27.2425V9.1434H26.0677V9.97759H27.1626V10.6728H26.0677V11.4965H27.319V12.1917H27.3121Z" fill="#011F37"/>
<path d="M30.4572 12.1917H29.5882L29.0669 11.2254C29.0338 11.1587 28.9955 11.0948 28.9522 11.0342C28.9239 10.9813 28.8888 10.9322 28.8479 10.8883C28.8161 10.8502 28.7786 10.8174 28.7367 10.7909C28.6965 10.7678 28.6509 10.7558 28.6046 10.7562H28.4065V12.1917H27.6592V8.44824H28.8479C29.6589 8.44824 30.0644 8.78655 30.0644 9.46318C30.0648 9.58076 30.0484 9.6978 30.0158 9.81076C29.9808 9.91608 29.9305 10.0156 29.8663 10.1062C29.7295 10.286 29.538 10.4165 29.3206 10.4781C29.3738 10.4986 29.4232 10.528 29.4666 10.565C29.5083 10.6067 29.5604 10.6519 29.6056 10.704C29.65 10.7555 29.6907 10.8101 29.7273 10.8674C29.762 10.93 29.8037 10.9891 29.8316 11.0412L30.4572 12.1917ZM28.4065 9.06346V10.1062H28.7541C28.8273 10.1102 28.9004 10.0979 28.9684 10.0702C29.0363 10.0426 29.0972 10.0003 29.1468 9.94631C29.2434 9.83992 29.2956 9.70066 29.2928 9.55702C29.2928 9.20944 29.119 9.07041 28.7714 9.07041H28.4239L28.4065 9.06346Z" fill="#011F37"/>
<path d="M15.6152 5.29249V4.78155C15.6704 4.83415 15.731 4.88076 15.796 4.92058C15.8662 4.96095 15.9394 4.99581 16.0149 5.02485L16.2478 5.09437C16.32 5.10876 16.3932 5.1169 16.4668 5.1187C16.6489 5.13087 16.8296 5.07926 16.9777 4.97272C17.037 4.91895 17.0836 4.85274 17.1143 4.77882C17.1449 4.7049 17.1588 4.62512 17.155 4.54519C17.1551 4.45535 17.1361 4.3665 17.0994 4.28451C17.0601 4.20824 17.0071 4.13988 16.943 4.08291C16.8701 4.01895 16.7922 3.96084 16.7101 3.90912L16.4147 3.73533C16.3052 3.67784 16.2006 3.61159 16.1018 3.53721C16.0106 3.47356 15.9257 3.40141 15.8481 3.32171C15.7788 3.2412 15.7235 3.14954 15.6847 3.0506C15.6403 2.94024 15.619 2.82194 15.6222 2.70302C15.6211 2.55379 15.6544 2.40632 15.7195 2.27202C15.7782 2.15213 15.8639 2.04744 15.9698 1.96615C16.0755 1.88733 16.1927 1.8252 16.3173 1.78193C16.4492 1.7422 16.5863 1.72229 16.724 1.72284C16.9632 1.70618 17.2027 1.75168 17.4192 1.85493V2.33806C17.2104 2.18405 16.9554 2.1056 16.6962 2.11561C16.6156 2.11509 16.5352 2.12325 16.4564 2.13994C16.3773 2.1565 16.3027 2.18967 16.2374 2.23726C16.1741 2.28413 16.121 2.34323 16.081 2.41105C16.0357 2.49008 16.0151 2.58089 16.0219 2.67174C16.0198 2.75365 16.034 2.83518 16.0636 2.91157C16.0952 2.98323 16.1387 3.04904 16.1922 3.10621C16.2607 3.16643 16.334 3.22106 16.4112 3.26958C16.4981 3.32171 16.5919 3.3808 16.7066 3.44337C16.8186 3.50429 16.9255 3.57402 17.0264 3.65191C17.1293 3.71786 17.2209 3.80003 17.2975 3.89522C17.3713 3.98164 17.4332 4.07749 17.4817 4.18023C17.532 4.31311 17.5555 4.45464 17.5507 4.59664C17.546 4.73864 17.5131 4.87828 17.4539 5.00748C17.3961 5.12798 17.3088 5.23197 17.2002 5.30987C17.0973 5.39074 16.9791 5.44986 16.8526 5.48366C16.7141 5.51914 16.5716 5.53666 16.4286 5.5358C16.3672 5.54031 16.3057 5.54031 16.2444 5.5358C16.1682 5.52695 16.0927 5.51302 16.0184 5.49409C15.944 5.4756 15.8709 5.45238 15.7995 5.42457C15.735 5.38492 15.6735 5.34078 15.6152 5.29249Z" fill="white"/>
<path d="M18.5418 4.05165V5.44197H18.1699V1.76457H19.0562C19.2003 1.75485 19.3449 1.77517 19.4807 1.82423C19.6165 1.87329 19.7406 1.95003 19.8452 2.04959C19.9424 2.15909 20.0169 2.28669 20.0647 2.42506C20.1124 2.56344 20.1323 2.70987 20.1233 2.85597C20.1362 3.17323 20.0239 3.48283 19.8105 3.71797C19.7043 3.83396 19.5739 3.9252 19.4286 3.98526C19.2832 4.04532 19.1265 4.07273 18.9694 4.06555H18.5592L18.5418 4.05165ZM18.5418 2.14691V3.65888H18.9346C19.0421 3.66632 19.15 3.65165 19.2516 3.61578C19.3532 3.57991 19.4465 3.52361 19.5255 3.45033C19.5957 3.3732 19.6495 3.28257 19.6836 3.18397C19.7176 3.08537 19.7313 2.98086 19.7236 2.87683C19.7365 2.77668 19.726 2.67492 19.693 2.5795C19.66 2.48409 19.6053 2.39763 19.5332 2.32691C19.4611 2.25619 19.3737 2.20314 19.2776 2.1719C19.1816 2.14067 19.0797 2.13212 18.9798 2.14691H18.5418Z" fill="white"/>
<path d="M22.3928 5.4418H20.707V1.7644H22.3163V2.14674H21.072V3.37022H22.219V3.76299H21.072V5.04903H22.3858V5.4418H22.3928Z" fill="white"/>
<path d="M25.1666 5.28218C24.9003 5.43736 24.5952 5.51332 24.2872 5.50116C24.079 5.50837 23.8721 5.46651 23.6831 5.37896C23.4941 5.2914 23.3284 5.16062 23.1993 4.99717C22.916 4.61403 22.7725 4.14546 22.7926 3.66941C22.7672 3.15383 22.9316 2.64681 23.2549 2.24433C23.3942 2.07093 23.5711 1.93141 23.7722 1.83629C23.9733 1.74116 24.1934 1.69291 24.4158 1.69516C24.6742 1.68712 24.931 1.73824 25.1666 1.84462V2.30342C24.9415 2.15655 24.6776 2.0803 24.4088 2.08444C24.2378 2.0802 24.0682 2.11677 23.914 2.19112C23.7599 2.26546 23.6257 2.37545 23.5225 2.51197C23.2806 2.83754 23.1579 3.23635 23.1749 3.6416C23.1506 4.02516 23.264 4.4048 23.4947 4.71215C23.594 4.83783 23.7209 4.93894 23.8656 5.00766C24.0102 5.07637 24.1688 5.11084 24.3289 5.10839C24.6235 5.11701 24.9132 5.03181 25.1561 4.86508V5.28218H25.1666Z" fill="white"/>
<path d="M26.4945 1.7644V2.13631H26.1817V5.06641H26.4945V5.4418H25.5039V5.06641H25.8167V2.11198H25.5039V1.7644H26.4945Z" fill="white"/>
<path d="M29.4834 5.44216H29.0663L28.7187 4.39942H27.3979L27.0851 5.44216H26.668L27.8845 1.75781H28.2668L29.4834 5.44216ZM28.6144 4.01708L28.1104 2.45992C28.0864 2.38038 28.069 2.29901 28.0583 2.21662C28.0583 2.32089 28.0201 2.39736 28.0062 2.45992L27.5091 4.03446L28.6144 4.01708Z" fill="white"/>
<path d="M31.5969 5.4418H29.9424V1.7644H30.3178V5.05599H31.5969V5.4418Z" fill="white"/>
</svg>
