<svg width="44" height="27" viewBox="0 0 44 27" fill="none" xmlns="http://www.w3.org/2000/svg">
<path d="M12.4905 21.2197H15.643L19.5186 26.9444L8.86523 22.5823L12.4905 21.2197Z" fill="#FA9000"/>
<path d="M43.5363 13.9275L42.1912 17.1773L34.4297 12.989L43.5363 13.9275Z" fill="#FEBE10"/>
<path d="M37.6731 16.3883L36.9258 17.8446L34.2217 13.9622L37.6731 16.3883Z" fill="#371400"/>
<path d="M0.0888672 11.8489L1.45485 8.95703L6.58166 13.8857L0.0888672 11.8489Z" fill="#FEBE10"/>
<path d="M3.00158 16.3014L2.73047 14.6504L6.39743 15.276L3.00158 16.3014Z" fill="#371400"/>
<path d="M32.4244 11.4297L8.05664 13.6602L8.87249 22.5731L33.2402 20.3426L32.4244 11.4297Z" fill="#FEBE10"/>
<path d="M13.7556 20.4445C13.4367 20.4814 13.1136 20.4465 12.8099 20.3424C12.5063 20.2384 12.2297 20.0679 12.0003 19.8432C11.5014 19.3313 11.205 18.6558 11.1661 17.9419C11.0635 17.2013 11.2313 16.4486 11.6389 15.8217C11.827 15.546 12.0758 15.3171 12.3662 15.1526C12.6567 14.9881 12.981 14.8924 13.3142 14.8728C13.6302 14.8354 13.9505 14.8698 14.2514 14.9733C14.5523 15.0768 14.826 15.2468 15.0521 15.4707C15.5466 15.9951 15.8364 16.6796 15.8689 17.3997C15.9707 18.1354 15.8041 18.8832 15.3997 19.5061C15.2161 19.7782 14.9723 20.0045 14.6872 20.1672C14.4021 20.33 14.0833 20.4248 13.7556 20.4445ZM13.3907 15.926C13.2108 15.9382 13.0372 15.9967 12.8867 16.096C12.7362 16.1953 12.6141 16.3319 12.5321 16.4925C12.3283 16.8909 12.2519 17.3423 12.3132 17.7855C12.3329 18.2342 12.4921 18.6655 12.7685 19.0195C12.8775 19.1545 13.0186 19.2602 13.1788 19.327C13.339 19.3938 13.5134 19.4195 13.6861 19.4018C13.8614 19.3904 14.0311 19.3358 14.1803 19.2431C14.3295 19.1503 14.4534 19.0221 14.5411 18.87C14.7441 18.4738 14.8194 18.0246 14.7567 17.5839C14.7389 17.1288 14.5878 16.6888 14.3222 16.3188C14.2113 16.1816 14.0682 16.074 13.9057 16.0055C13.7432 15.937 13.5663 15.9097 13.3907 15.926Z" fill="white"/>
<path d="M19.0317 15.429L17.3355 15.5889L17.4572 16.9097L19.0248 16.7672L19.1082 17.7509L17.5441 17.8899L17.7352 19.9754L16.6508 20.0727L16.1572 14.6922L18.9379 14.4419L19.0317 15.429Z" fill="white"/>
<path d="M22.3237 15.1267L20.631 15.2831L20.77 16.6213L22.3341 16.4822L22.421 17.4659L20.8569 17.6049L21.0481 19.6904L19.9602 19.7877L19.4492 14.3967L22.2299 14.1465L22.3237 15.1267Z" fill="white"/>
<path d="M26.1294 19.2107L23.248 19.4714L22.751 14.0908L25.5316 13.8406L25.622 14.8312L23.9258 14.9876L24.0405 16.1867L25.6116 16.0408L25.6984 17.0209L24.1274 17.1704L24.2386 18.4008L26.0391 18.2375L26.1294 19.2107Z" fill="white"/>
<path d="M30.6686 18.7935L29.4243 18.9082L28.5484 17.5944C28.4754 17.5005 28.4163 17.4032 28.3641 17.3233C28.3104 17.2537 28.2523 17.1875 28.1904 17.1251C28.1394 17.0755 28.0807 17.0344 28.0166 17.0035C27.9564 16.9775 27.8901 16.9691 27.8254 16.9792L27.53 17.0035L27.7211 19.0542L26.6367 19.1481L26.1396 13.771L27.8602 13.6146C29.0246 13.5103 29.6606 13.9622 29.7475 14.9145C29.765 15.0922 29.7556 15.2714 29.7197 15.4463C29.6851 15.6059 29.624 15.7587 29.539 15.8982C29.4562 16.0328 29.349 16.1507 29.2227 16.2457C29.0951 16.3533 28.9522 16.4412 28.7986 16.5064C28.8769 16.526 28.9502 16.5615 29.0141 16.6107C29.0886 16.665 29.1583 16.7255 29.2227 16.7914C29.2945 16.8637 29.3618 16.9404 29.4243 17.0209C29.4868 17.0973 29.5459 17.1842 29.605 17.2642L30.6686 18.7935ZM27.304 14.5947L27.4431 16.0893L27.9123 16.0476C28.017 16.0435 28.1195 16.0165 28.2126 15.9684C28.3057 15.9204 28.3871 15.8525 28.451 15.7696C28.5791 15.6047 28.6388 15.3968 28.6179 15.1891C28.5727 14.7199 28.3051 14.4939 27.7976 14.553L27.304 14.5947Z" fill="white"/>
<path d="M13.7556 20.4445C13.4367 20.4814 13.1136 20.4465 12.8099 20.3424C12.5063 20.2384 12.2297 20.0679 12.0003 19.8432C11.5014 19.3313 11.205 18.6558 11.1661 17.9419C11.0635 17.2013 11.2313 16.4486 11.6389 15.8217C11.827 15.546 12.0758 15.3171 12.3662 15.1526C12.6567 14.9881 12.981 14.8924 13.3142 14.8728C13.6302 14.8354 13.9505 14.8698 14.2514 14.9733C14.5523 15.0768 14.826 15.2468 15.0521 15.4707C15.5466 15.9951 15.8364 16.6796 15.8689 17.3997C15.9707 18.1354 15.8041 18.8832 15.3997 19.5061C15.2161 19.7782 14.9723 20.0045 14.6872 20.1672C14.4021 20.33 14.0833 20.4248 13.7556 20.4445ZM13.3907 15.926C13.2108 15.9382 13.0372 15.9967 12.8867 16.096C12.7362 16.1953 12.6141 16.3319 12.5321 16.4925C12.3283 16.8909 12.2519 17.3423 12.3132 17.7855C12.3329 18.2342 12.4921 18.6655 12.7685 19.0195C12.8775 19.1545 13.0186 19.2602 13.1788 19.327C13.339 19.3938 13.5134 19.4195 13.6861 19.4018C13.8614 19.3904 14.0311 19.3358 14.1803 19.2431C14.3295 19.1503 14.4534 19.0221 14.5411 18.87C14.7441 18.4738 14.8194 18.0246 14.7567 17.5839C14.7389 17.1288 14.5878 16.6888 14.3222 16.3188C14.2113 16.1816 14.0682 16.074 13.9057 16.0055C13.7432 15.937 13.5663 15.9097 13.3907 15.926Z" fill="#371400"/>
<path d="M19.0317 15.429L17.3355 15.5889L17.4572 16.9097L19.0248 16.7672L19.1082 17.7509L17.5441 17.8899L17.7352 19.9754L16.6508 20.0727L16.1572 14.6922L18.9379 14.4419L19.0317 15.429Z" fill="#371400"/>
<path d="M22.3237 15.1267L20.631 15.2831L20.77 16.6213L22.3341 16.4822L22.421 17.4659L20.8569 17.6049L21.0481 19.6904L19.9602 19.7877L19.4492 14.3967L22.2299 14.1465L22.3237 15.1267Z" fill="#371400"/>
<path d="M26.1294 19.2107L23.248 19.4714L22.751 14.0908L25.5316 13.8406L25.622 14.8312L23.9258 14.9876L24.0405 16.1867L25.6116 16.0408L25.6984 17.0209L24.1274 17.1704L24.2386 18.4008L26.0391 18.2375L26.1294 19.2107Z" fill="#371400"/>
<path d="M30.6686 18.7935L29.4243 18.9082L28.5484 17.5944C28.4754 17.5005 28.4163 17.4032 28.3641 17.3233C28.3104 17.2537 28.2523 17.1875 28.1904 17.1251C28.1394 17.0755 28.0807 17.0344 28.0166 17.0035C27.9564 16.9775 27.8901 16.9691 27.8254 16.9792L27.53 17.0035L27.7211 19.0542L26.6367 19.1481L26.1396 13.771L27.8602 13.6146C29.0246 13.5103 29.6606 13.9622 29.7475 14.9145C29.765 15.0922 29.7556 15.2714 29.7197 15.4463C29.6851 15.6059 29.624 15.7587 29.539 15.8982C29.4562 16.0328 29.349 16.1507 29.2227 16.2457C29.0951 16.3533 28.9522 16.4412 28.7986 16.5064C28.8769 16.526 28.9502 16.5615 29.0141 16.6107C29.0886 16.665 29.1583 16.7255 29.2227 16.7914C29.2945 16.8637 29.3618 16.9404 29.4243 17.0209C29.4868 17.0973 29.5459 17.1842 29.605 17.2642L30.6686 18.7935ZM27.304 14.5947L27.4431 16.0893L27.9123 16.0476C28.017 16.0435 28.1195 16.0165 28.2126 15.9684C28.3057 15.9204 28.3871 15.8525 28.451 15.7696C28.5791 15.6047 28.6388 15.3968 28.6179 15.1891C28.5727 14.7199 28.3051 14.4939 27.7976 14.553L27.304 14.5947Z" fill="#371400"/>
<path d="M13.7556 20.4445C13.4367 20.4814 13.1136 20.4465 12.8099 20.3424C12.5063 20.2384 12.2297 20.0679 12.0003 19.8432C11.5014 19.3313 11.205 18.6558 11.1661 17.9419C11.0635 17.2013 11.2313 16.4486 11.6389 15.8217C11.827 15.546 12.0758 15.3171 12.3662 15.1526C12.6567 14.9881 12.981 14.8924 13.3142 14.8728C13.6302 14.8354 13.9505 14.8698 14.2514 14.9733C14.5523 15.0768 14.826 15.2468 15.0521 15.4707C15.5466 15.9951 15.8364 16.6796 15.8689 17.3997C15.9707 18.1354 15.8041 18.8832 15.3997 19.5061C15.2161 19.7782 14.9723 20.0045 14.6872 20.1672C14.4021 20.33 14.0833 20.4248 13.7556 20.4445ZM13.3907 15.926C13.2108 15.9382 13.0372 15.9967 12.8867 16.096C12.7362 16.1953 12.6141 16.3319 12.5321 16.4925C12.3283 16.8909 12.2519 17.3423 12.3132 17.7855C12.3329 18.2342 12.4921 18.6655 12.7685 19.0195C12.8775 19.1545 13.0186 19.2602 13.1788 19.327C13.339 19.3938 13.5134 19.4195 13.6861 19.4018C13.8614 19.3904 14.0311 19.3358 14.1803 19.2431C14.3295 19.1503 14.4534 19.0221 14.5411 18.87C14.7441 18.4738 14.8194 18.0246 14.7567 17.5839C14.7389 17.1288 14.5878 16.6888 14.3222 16.3188C14.2113 16.1816 14.0682 16.074 13.9057 16.0055C13.7432 15.937 13.5663 15.9097 13.3907 15.926Z" fill="#371400"/>
<path d="M19.0317 15.429L17.3355 15.5889L17.4572 16.9097L19.0248 16.7672L19.1082 17.7509L17.5441 17.8899L17.7352 19.9754L16.6508 20.0727L16.1572 14.6922L18.9379 14.4419L19.0317 15.429Z" fill="#371400"/>
<path d="M22.3237 15.1267L20.631 15.2831L20.77 16.6213L22.3341 16.4822L22.421 17.4659L20.8569 17.6049L21.0481 19.6904L19.9602 19.7877L19.4492 14.3967L22.2299 14.1465L22.3237 15.1267Z" fill="#371400"/>
<path d="M26.1294 19.2107L23.248 19.4714L22.751 14.0908L25.5316 13.8406L25.622 14.8312L23.9258 14.9876L24.0405 16.1867L25.6116 16.0408L25.6984 17.0209L24.1274 17.1704L24.2386 18.4008L26.0391 18.2375L26.1294 19.2107Z" fill="#371400"/>
<path d="M30.6686 18.7935L29.4243 18.9082L28.5484 17.5944C28.4754 17.5005 28.4163 17.4032 28.3641 17.3233C28.3104 17.2537 28.2523 17.1875 28.1904 17.1251C28.1394 17.0755 28.0807 17.0344 28.0166 17.0035C27.9564 16.9775 27.8901 16.9691 27.8254 16.9792L27.53 17.0035L27.7211 19.0542L26.6367 19.1481L26.1396 13.771L27.8602 13.6146C29.0246 13.5103 29.6606 13.9622 29.7475 14.9145C29.765 15.0922 29.7556 15.2714 29.7197 15.4463C29.6851 15.6059 29.624 15.7587 29.539 15.8982C29.4562 16.0328 29.349 16.1507 29.2227 16.2457C29.0951 16.3533 28.9522 16.4412 28.7986 16.5064C28.8769 16.526 28.9502 16.5615 29.0141 16.6107C29.0886 16.665 29.1583 16.7255 29.2227 16.7914C29.2945 16.8637 29.3618 16.9404 29.4243 17.0209C29.4868 17.0973 29.5459 17.1842 29.605 17.2642L30.6686 18.7935ZM27.304 14.5947L27.4431 16.0893L27.9123 16.0476C28.017 16.0435 28.1195 16.0165 28.2126 15.9684C28.3057 15.9204 28.3871 15.8525 28.451 15.7696C28.5791 15.6047 28.6388 15.3968 28.6179 15.1891C28.5727 14.7199 28.3051 14.4939 27.7976 14.553L27.304 14.5947Z" fill="#371400"/>
<path d="M13.7556 20.4445C13.4367 20.4814 13.1136 20.4465 12.8099 20.3424C12.5063 20.2384 12.2297 20.0679 12.0003 19.8432C11.5014 19.3313 11.205 18.6558 11.1661 17.9419C11.0635 17.2013 11.2313 16.4486 11.6389 15.8217C11.827 15.546 12.0758 15.3171 12.3662 15.1526C12.6567 14.9881 12.981 14.8924 13.3142 14.8728C13.6302 14.8354 13.9505 14.8698 14.2514 14.9733C14.5523 15.0768 14.826 15.2468 15.0521 15.4707C15.5466 15.9951 15.8364 16.6796 15.8689 17.3997C15.9707 18.1354 15.8041 18.8832 15.3997 19.5061C15.2161 19.7782 14.9723 20.0045 14.6872 20.1672C14.4021 20.33 14.0833 20.4248 13.7556 20.4445ZM13.3907 15.926C13.2108 15.9382 13.0372 15.9967 12.8867 16.096C12.7362 16.1953 12.6141 16.3319 12.5321 16.4925C12.3283 16.8909 12.2519 17.3423 12.3132 17.7855C12.3329 18.2342 12.4921 18.6655 12.7685 19.0195C12.8775 19.1545 13.0186 19.2602 13.1788 19.327C13.339 19.3938 13.5134 19.4195 13.6861 19.4018C13.8614 19.3904 14.0311 19.3358 14.1803 19.2431C14.3295 19.1503 14.4534 19.0221 14.5411 18.87C14.7441 18.4738 14.8194 18.0246 14.7567 17.5839C14.7389 17.1288 14.5878 16.6888 14.3222 16.3188C14.2113 16.1816 14.0682 16.074 13.9057 16.0055C13.7432 15.937 13.5663 15.9097 13.3907 15.926Z" fill="#371400"/>
<path d="M19.0317 15.429L17.3355 15.5889L17.4572 16.9097L19.0248 16.7672L19.1082 17.7509L17.5441 17.8899L17.7352 19.9754L16.6508 20.0727L16.1572 14.6922L18.9379 14.4419L19.0317 15.429Z" fill="#371400"/>
<path d="M22.3237 15.1267L20.631 15.2831L20.77 16.6213L22.3341 16.4822L22.421 17.4659L20.8569 17.6049L21.0481 19.6904L19.9602 19.7877L19.4492 14.3967L22.2299 14.1465L22.3237 15.1267Z" fill="#371400"/>
<path d="M26.1294 19.2107L23.248 19.4714L22.751 14.0908L25.5316 13.8406L25.622 14.8312L23.9258 14.9876L24.0405 16.1867L25.6116 16.0408L25.6984 17.0209L24.1274 17.1704L24.2386 18.4008L26.0391 18.2375L26.1294 19.2107Z" fill="#371400"/>
<path d="M30.6686 18.7935L29.4243 18.9082L28.5484 17.5944C28.4754 17.5005 28.4163 17.4032 28.3641 17.3233C28.3104 17.2537 28.2523 17.1875 28.1904 17.1251C28.1394 17.0755 28.0807 17.0344 28.0166 17.0035C27.9564 16.9775 27.8901 16.9691 27.8254 16.9792L27.53 17.0035L27.7211 19.0542L26.6367 19.1481L26.1396 13.771L27.8602 13.6146C29.0246 13.5103 29.6606 13.9622 29.7475 14.9145C29.765 15.0922 29.7556 15.2714 29.7197 15.4463C29.6851 15.6059 29.624 15.7587 29.539 15.8982C29.4562 16.0328 29.349 16.1507 29.2227 16.2457C29.0951 16.3533 28.9522 16.4412 28.7986 16.5064C28.8769 16.526 28.9502 16.5615 29.0141 16.6107C29.0886 16.665 29.1583 16.7255 29.2227 16.7914C29.2945 16.8637 29.3618 16.9404 29.4243 17.0209C29.4868 17.0973 29.5459 17.1842 29.605 17.2642L30.6686 18.7935ZM27.304 14.5947L27.4431 16.0893L27.9123 16.0476C28.017 16.0435 28.1195 16.0165 28.2126 15.9684C28.3057 15.9204 28.3871 15.8525 28.451 15.7696C28.5791 15.6047 28.6388 15.3968 28.6179 15.1891C28.5727 14.7199 28.3051 14.4939 27.7976 14.553L27.304 14.5947Z" fill="#371400"/>
<path d="M7.12695 3.6565L38.6629 0.736816L39.6083 10.9452L8.07585 13.858L7.12695 3.6565Z" fill="#371400"/>
<path d="M11.7502 11.0323L11.6807 10.278C11.767 10.352 11.8628 10.414 11.9657 10.4623C12.0772 10.5135 12.1937 10.5531 12.3133 10.5804C12.4274 10.6126 12.5435 10.637 12.6609 10.6534C12.7708 10.6619 12.8812 10.6619 12.9911 10.6534C13.2638 10.6459 13.5255 10.5439 13.7314 10.3649C13.8104 10.276 13.8686 10.1706 13.9016 10.0563C13.9347 9.94207 13.9419 9.82188 13.9226 9.70452C13.9149 9.57119 13.8794 9.44095 13.8183 9.32219C13.7464 9.2155 13.6585 9.12054 13.5576 9.04065C13.4383 8.95716 13.3128 8.8828 13.1823 8.81819C13.0432 8.74868 12.8868 8.66873 12.7235 8.59922C12.5601 8.5297 12.3759 8.43239 12.2334 8.34897C12.09 8.26498 11.956 8.16593 11.8336 8.05351C11.7196 7.94011 11.6235 7.81002 11.5486 7.6677C11.467 7.50654 11.4197 7.3302 11.4096 7.14981C11.3807 6.92303 11.4081 6.69262 11.4895 6.47899C11.5707 6.29158 11.6889 6.12251 11.8371 5.98195C11.9804 5.84489 12.151 5.73949 12.3376 5.6726C12.527 5.59644 12.7257 5.54617 12.9285 5.52314C13.2792 5.46385 13.6393 5.49986 13.9713 5.62741L14.0408 6.3469C13.7113 6.14145 13.3198 6.05898 12.9355 6.11403C12.8164 6.1239 12.6993 6.15081 12.5879 6.19397C12.4736 6.23161 12.3674 6.29058 12.2751 6.36776C12.1861 6.44411 12.1149 6.53901 12.0665 6.64582C12.0121 6.76787 11.994 6.90303 12.0144 7.03511C12.0212 7.15758 12.0569 7.27671 12.1187 7.38269C12.1759 7.48474 12.2526 7.57451 12.3446 7.64685C12.4522 7.73115 12.5688 7.80341 12.6922 7.86235C12.8208 7.93186 12.9807 8.00138 13.1544 8.08133C13.3306 8.15632 13.5013 8.24343 13.6654 8.34201C13.8225 8.43089 13.9683 8.53824 14.0999 8.66178C14.2261 8.78028 14.3318 8.91889 14.4127 9.07194C14.4966 9.23634 14.5463 9.41607 14.5587 9.60025C14.588 9.83425 14.5642 10.0718 14.4892 10.2954C14.4204 10.4841 14.3071 10.6534 14.159 10.789C14.0116 10.9251 13.8376 11.0293 13.648 11.0948C13.4428 11.1639 13.2307 11.2105 13.0154 11.2339C12.9217 11.2398 12.8276 11.2398 12.7339 11.2339C12.6227 11.2339 12.5114 11.2165 12.3863 11.2061C12.2751 11.1886 12.1649 11.1654 12.0561 11.1365C11.9504 11.1138 11.8478 11.0788 11.7502 11.0323Z" fill="white"/>
<path d="M15.9383 8.77301L16.1295 10.8585L15.5733 10.9106L15.0693 5.42581L16.3658 5.30765C16.5791 5.27476 16.7969 5.28619 17.0056 5.34121C17.2143 5.39623 17.4095 5.49365 17.5789 5.62741C17.9043 5.93199 18.0956 6.35327 18.1107 6.79876C18.1424 7.03095 18.128 7.26713 18.0683 7.49377C18.0087 7.7204 17.905 7.93304 17.7631 8.11956C17.6167 8.30242 17.4332 8.45215 17.2247 8.5588C17.0162 8.66546 16.7874 8.72662 16.5535 8.73826L15.9383 8.77301ZM15.6776 5.95066L15.8862 8.20299L16.4666 8.14737C16.6255 8.14372 16.7821 8.10833 16.9272 8.04327C17.0722 7.9782 17.2028 7.88479 17.3112 7.76852C17.4074 7.64335 17.477 7.49987 17.5159 7.34688C17.5547 7.19389 17.562 7.03458 17.5372 6.87869C17.4676 6.1592 17.0679 5.83597 16.3311 5.89854L15.6776 5.95066Z" fill="white"/>
<path d="M21.865 10.3231L19.3624 10.556L18.8584 5.07463L21.2567 4.84521L21.3088 5.42915L19.4667 5.60294L19.6335 7.42773L21.3366 7.27132L21.3888 7.84483L19.6856 8.00125L19.8594 9.92335L21.8128 9.73915L21.865 10.3231Z" fill="white"/>
<path d="M25.9841 9.70448C25.6062 9.96395 25.1658 10.1176 24.7085 10.1494C24.3987 10.1869 24.0844 10.1511 23.791 10.0448C23.4975 9.93857 23.2332 9.76483 23.0192 9.53765C22.5437 9.00768 22.2651 8.33018 22.2302 7.619C22.123 6.85428 22.2958 6.07659 22.7168 5.42925C22.9013 5.15116 23.1469 4.91891 23.4348 4.75024C23.7228 4.58156 24.0455 4.48093 24.3783 4.45603C24.7614 4.40733 25.1507 4.44899 25.5149 4.57768L25.5774 5.27284C25.2221 5.0854 24.8199 5.00569 24.42 5.04344C24.1655 5.06221 23.919 5.14057 23.7005 5.2722C23.4819 5.40383 23.2973 5.58503 23.1617 5.80116C22.8473 6.32242 22.7244 6.93697 22.8142 7.53907C22.8371 8.11278 23.054 8.66172 23.4294 9.09622C23.5921 9.27286 23.7946 9.40819 24.0201 9.491C24.2455 9.57381 24.4875 9.60171 24.7259 9.5724C25.1652 9.54142 25.5841 9.37506 25.925 9.09622L25.9841 9.70448Z" fill="white"/>
<path d="M27.4606 4.27173L27.5128 4.82091L27.054 4.86262L27.4606 9.24214L27.9229 9.20043L27.975 9.74611L26.4943 9.88515L26.4457 9.33945L26.9045 9.29426L26.4943 4.91824L26.0355 4.95995L25.9834 4.41425L27.4606 4.27173Z" fill="white"/>
<path d="M32.4039 9.34981L31.7887 9.40889L31.1456 7.9143L29.1401 8.09851L28.7925 9.67654L28.1738 9.7391L29.4946 4.1083L30.0681 4.05615L32.4039 9.34981ZM30.9093 7.34775L29.9534 5.08152C29.907 4.96976 29.8732 4.85318 29.8526 4.73394C29.8503 4.85913 29.8352 4.98375 29.8075 5.10585L29.2861 7.51458L30.9093 7.34775Z" fill="white"/>
<path d="M35.5528 9.05094L33.0988 9.28035L32.5879 3.79553L33.144 3.74341L33.5924 8.64428L35.4902 8.47049L35.5528 9.05094Z" fill="white"/>
</svg>
