<svg width="59" height="58" viewBox="0 0 59 58" fill="none" xmlns="http://www.w3.org/2000/svg">
<rect x="0.860352" width="57.93" height="57.93" rx="6.32612" fill="white"/>
<path d="M48.6627 22.1309H11.1067C10.3255 22.1309 9.57636 22.4409 9.0237 22.9929C8.47104 23.5449 8.1601 24.2937 8.15918 25.0749V28.3074C8.15918 29.0891 8.46972 29.8388 9.02248 30.3915C9.57524 30.9443 10.3249 31.2548 11.1067 31.2548H13.2686L16.5011 35.8429L19.7336 31.2548H48.6696C49.4493 31.2512 50.1958 30.9391 50.7461 30.3869C51.2964 29.8346 51.6058 29.087 51.6067 28.3074V25.0749C51.6012 24.2958 51.2893 23.5501 50.7384 22.9992C50.1874 22.4482 49.4418 22.1363 48.6627 22.1309Z" fill="#371400"/>
<path d="M34.5756 28.9963C34.3002 29.0049 34.0265 28.9504 33.7753 28.8372C33.5241 28.724 33.3021 28.5549 33.1262 28.3429C32.7288 27.8703 32.5208 27.2672 32.5422 26.6502C32.5108 26.0059 32.7146 25.3722 33.1157 24.8671C33.2994 24.6464 33.5311 24.4705 33.7932 24.3531C34.0553 24.2356 34.3407 24.1796 34.6277 24.1893C34.9019 24.1821 35.1741 24.2372 35.424 24.3504C35.6738 24.4635 35.8948 24.6319 36.0702 24.8428C36.4581 25.3362 36.6533 25.9539 36.6193 26.5807C36.6492 27.2183 36.4452 27.8449 36.0458 28.3429C35.8647 28.5542 35.6387 28.7225 35.3844 28.8355C35.1301 28.9485 34.8538 29.0035 34.5756 28.9963ZM34.5999 25.0861C34.4452 25.0828 34.2923 25.1195 34.1559 25.1926C34.0196 25.2656 33.9043 25.3726 33.8213 25.5032C33.616 25.8303 33.5153 26.2122 33.5328 26.598C33.5133 26.9841 33.6141 27.3666 33.8213 27.6929C33.903 27.8179 34.015 27.9201 34.1469 27.99C34.2788 28.0599 34.4263 28.0952 34.5756 28.0926C34.7264 28.096 34.8757 28.0611 35.0094 27.9912C35.1431 27.9213 35.2569 27.8187 35.3402 27.6929C35.5437 27.3718 35.641 26.9949 35.6183 26.6154C35.6406 26.2222 35.545 25.8313 35.3437 25.4927C35.2648 25.3671 35.155 25.2637 35.0248 25.1925C34.8946 25.1214 34.7483 25.0847 34.5999 25.0861Z" fill="white"/>
<path d="M39.4693 25.1194H37.999V26.256H39.3441V27.1076H37.999V28.915H37.0605V24.2678H39.4588V25.1194H39.4693Z" fill="white"/>
<path d="M42.3154 25.1194H40.8486V26.256H42.1972V27.1076H40.8486V28.915H39.9102V24.2678H42.3085V25.1194H42.3154Z" fill="white"/>
<path d="M45.2564 28.9084H42.7607V24.2578H45.159V25.1094H43.6992V26.1521H45.0548V26.9967H43.6992V28.0569H45.2564V28.9084Z" fill="white"/>
<path d="M49.1731 28.9084H48.0956L47.4525 27.7093C47.4004 27.6224 47.3587 27.5355 47.3135 27.466C47.2683 27.3965 47.2266 27.3339 47.1849 27.2818C47.145 27.2373 47.098 27.1997 47.0459 27.1705C46.995 27.1417 46.9376 27.1261 46.879 27.1253H46.6253V28.9084H45.6973V24.2578H47.1814C48.1894 24.2578 48.6934 24.6853 48.6934 25.5195C48.6943 25.6729 48.6708 25.8254 48.6239 25.9714C48.5843 26.1063 48.5194 26.2325 48.4327 26.3433C48.3528 26.464 48.2501 26.5679 48.1303 26.6492C48.011 26.728 47.8826 26.7921 47.748 26.8403C47.8135 26.865 47.8746 26.9002 47.9287 26.9446C47.9912 26.9956 48.0472 27.0539 48.0956 27.1184C48.1477 27.1879 48.1998 27.2505 48.252 27.3269C48.3003 27.3966 48.3433 27.4698 48.3806 27.5459L49.1731 28.9084ZM46.6184 25.0503V26.3433H47.0285C47.1181 26.3484 47.2077 26.3339 47.2911 26.3009C47.3745 26.2679 47.4498 26.2171 47.5116 26.1521C47.6337 26.0199 47.6998 25.8454 47.6959 25.6655C47.6959 25.2588 47.4803 25.0572 47.0459 25.0572H46.6184V25.0503Z" fill="white"/>
<path d="M34.5756 28.9963C34.3002 29.0049 34.0265 28.9504 33.7753 28.8372C33.5241 28.724 33.3021 28.5549 33.1262 28.3429C32.7288 27.8703 32.5208 27.2672 32.5422 26.6502C32.5108 26.0059 32.7146 25.3722 33.1157 24.8671C33.2994 24.6464 33.5311 24.4705 33.7932 24.3531C34.0553 24.2356 34.3407 24.1796 34.6277 24.1893C34.9019 24.1821 35.1741 24.2372 35.424 24.3504C35.6738 24.4635 35.8948 24.6319 36.0702 24.8428C36.4581 25.3362 36.6533 25.9539 36.6193 26.5807C36.6492 27.2183 36.4452 27.8449 36.0458 28.3429C35.8647 28.5542 35.6387 28.7225 35.3844 28.8355C35.1301 28.9485 34.8538 29.0035 34.5756 28.9963ZM34.5999 25.0861C34.4452 25.0828 34.2923 25.1195 34.1559 25.1926C34.0196 25.2656 33.9043 25.3726 33.8213 25.5032C33.616 25.8303 33.5153 26.2122 33.5328 26.598C33.5133 26.9841 33.6141 27.3666 33.8213 27.6929C33.903 27.8179 34.015 27.9201 34.1469 27.99C34.2788 28.0599 34.4263 28.0952 34.5756 28.0926C34.7264 28.096 34.8757 28.0611 35.0094 27.9912C35.1431 27.9213 35.2569 27.8187 35.3402 27.6929C35.5437 27.3718 35.641 26.9949 35.6183 26.6154C35.6406 26.2222 35.545 25.8313 35.3437 25.4927C35.2648 25.3671 35.155 25.2637 35.0248 25.1925C34.8946 25.1214 34.7483 25.0847 34.5999 25.0861Z" fill="#FEBE10"/>
<path d="M39.4693 25.1194H37.999V26.256H39.3441V27.1076H37.999V28.915H37.0605V24.2678H39.4588V25.1194H39.4693Z" fill="#FEBE10"/>
<path d="M42.3154 25.1194H40.8486V26.256H42.1972V27.1076H40.8486V28.915H39.9102V24.2678H42.3085V25.1194H42.3154Z" fill="#FEBE10"/>
<path d="M45.2564 28.9084H42.7607V24.2578H45.159V25.1094H43.6992V26.1521H45.0548V26.9967H43.6992V28.0569H45.2564V28.9084Z" fill="#FEBE10"/>
<path d="M49.1731 28.9084H48.0956L47.4525 27.7093C47.4004 27.6224 47.3587 27.5355 47.3135 27.466C47.2683 27.3965 47.2266 27.3339 47.1849 27.2818C47.145 27.2373 47.098 27.1997 47.0459 27.1705C46.995 27.1417 46.9376 27.1261 46.879 27.1253H46.6253V28.9084H45.6973V24.2578H47.1814C48.1894 24.2578 48.6934 24.6853 48.6934 25.5195C48.6943 25.6729 48.6708 25.8254 48.6239 25.9714C48.5843 26.1063 48.5194 26.2325 48.4327 26.3433C48.3528 26.464 48.2501 26.5679 48.1303 26.6492C48.011 26.728 47.8826 26.7921 47.748 26.8403C47.8135 26.865 47.8746 26.9002 47.9287 26.9446C47.9912 26.9956 48.0472 27.0539 48.0956 27.1184C48.1477 27.1879 48.1998 27.2505 48.252 27.3269C48.3003 27.3966 48.3433 27.4698 48.3806 27.5459L49.1731 28.9084ZM46.6184 25.0503V26.3433H47.0285C47.1181 26.3484 47.2077 26.3339 47.2911 26.3009C47.3745 26.2679 47.4498 26.2171 47.5116 26.1521C47.6337 26.0199 47.6998 25.8454 47.6959 25.6655C47.6959 25.2588 47.4803 25.0572 47.0459 25.0572H46.6184V25.0503Z" fill="#FEBE10"/>
<path d="M34.5756 28.9963C34.3002 29.0049 34.0265 28.9504 33.7753 28.8372C33.5241 28.724 33.3021 28.5549 33.1262 28.3429C32.7288 27.8703 32.5208 27.2672 32.5422 26.6502C32.5108 26.0059 32.7146 25.3722 33.1157 24.8671C33.2994 24.6464 33.5311 24.4705 33.7932 24.3531C34.0553 24.2356 34.3407 24.1796 34.6277 24.1893C34.9019 24.1821 35.1741 24.2372 35.424 24.3504C35.6738 24.4635 35.8948 24.6319 36.0702 24.8428C36.4581 25.3362 36.6533 25.9539 36.6193 26.5807C36.6492 27.2183 36.4452 27.8449 36.0458 28.3429C35.8647 28.5542 35.6387 28.7225 35.3844 28.8355C35.1301 28.9485 34.8538 29.0035 34.5756 28.9963ZM34.5999 25.0861C34.4452 25.0828 34.2923 25.1195 34.1559 25.1926C34.0196 25.2656 33.9043 25.3726 33.8213 25.5032C33.616 25.8303 33.5153 26.2122 33.5328 26.598C33.5133 26.9841 33.6141 27.3666 33.8213 27.6929C33.903 27.8179 34.015 27.9201 34.1469 27.99C34.2788 28.0599 34.4263 28.0952 34.5756 28.0926C34.7264 28.096 34.8757 28.0611 35.0094 27.9912C35.1431 27.9213 35.2569 27.8187 35.3402 27.6929C35.5437 27.3718 35.641 26.9949 35.6183 26.6154C35.6406 26.2222 35.545 25.8313 35.3437 25.4927C35.2648 25.3671 35.155 25.2637 35.0248 25.1925C34.8946 25.1214 34.7483 25.0847 34.5999 25.0861Z" fill="#FEBE10"/>
<path d="M39.4693 25.1194H37.999V26.256H39.3441V27.1076H37.999V28.915H37.0605V24.2678H39.4588V25.1194H39.4693Z" fill="#FEBE10"/>
<path d="M42.3154 25.1194H40.8486V26.256H42.1972V27.1076H40.8486V28.915H39.9102V24.2678H42.3085V25.1194H42.3154Z" fill="#FEBE10"/>
<path d="M45.2564 28.9084H42.7607V24.2578H45.159V25.1094H43.6992V26.1521H45.0548V26.9967H43.6992V28.0569H45.2564V28.9084Z" fill="#FEBE10"/>
<path d="M49.1731 28.9084H48.0956L47.4525 27.7093C47.4004 27.6224 47.3587 27.5355 47.3135 27.466C47.2683 27.3965 47.2266 27.3339 47.1849 27.2818C47.145 27.2373 47.098 27.1997 47.0459 27.1705C46.995 27.1417 46.9376 27.1261 46.879 27.1253H46.6253V28.9084H45.6973V24.2578H47.1814C48.1894 24.2578 48.6934 24.6853 48.6934 25.5195C48.6943 25.6729 48.6708 25.8254 48.6239 25.9714C48.5843 26.1063 48.5194 26.2325 48.4327 26.3433C48.3528 26.464 48.2501 26.5679 48.1303 26.6492C48.011 26.728 47.8826 26.7921 47.748 26.8403C47.8135 26.865 47.8746 26.9002 47.9287 26.9446C47.9912 26.9956 48.0472 27.0539 48.0956 27.1184C48.1477 27.1879 48.1998 27.2505 48.252 27.3269C48.3003 27.3966 48.3433 27.4698 48.3806 27.5459L49.1731 28.9084ZM46.6184 25.0503V26.3433H47.0285C47.1181 26.3484 47.2077 26.3339 47.2911 26.3009C47.3745 26.2679 47.4498 26.2171 47.5116 26.1521C47.6337 26.0199 47.6998 25.8454 47.6959 25.6655C47.6959 25.2588 47.4803 25.0572 47.0459 25.0572H46.6184V25.0503Z" fill="#FEBE10"/>
<path d="M34.5756 28.9963C34.3002 29.0049 34.0265 28.9504 33.7753 28.8372C33.5241 28.724 33.3021 28.5549 33.1262 28.3429C32.7288 27.8703 32.5208 27.2672 32.5422 26.6502C32.5108 26.0059 32.7146 25.3722 33.1157 24.8671C33.2994 24.6464 33.5311 24.4705 33.7932 24.3531C34.0553 24.2356 34.3407 24.1796 34.6277 24.1893C34.9019 24.1821 35.1741 24.2372 35.424 24.3504C35.6738 24.4635 35.8948 24.6319 36.0702 24.8428C36.4581 25.3362 36.6533 25.9539 36.6193 26.5807C36.6492 27.2183 36.4452 27.8449 36.0458 28.3429C35.8647 28.5542 35.6387 28.7225 35.3844 28.8355C35.1301 28.9485 34.8538 29.0035 34.5756 28.9963ZM34.5999 25.0861C34.4452 25.0828 34.2923 25.1195 34.1559 25.1926C34.0196 25.2656 33.9043 25.3726 33.8213 25.5032C33.616 25.8303 33.5153 26.2122 33.5328 26.598C33.5133 26.9841 33.6141 27.3666 33.8213 27.6929C33.903 27.8179 34.015 27.9201 34.1469 27.99C34.2788 28.0599 34.4263 28.0952 34.5756 28.0926C34.7264 28.096 34.8757 28.0611 35.0094 27.9912C35.1431 27.9213 35.2569 27.8187 35.3402 27.6929C35.5437 27.3718 35.641 26.9949 35.6183 26.6154C35.6406 26.2222 35.545 25.8313 35.3437 25.4927C35.2648 25.3671 35.155 25.2637 35.0248 25.1925C34.8946 25.1214 34.7483 25.0847 34.5999 25.0861Z" fill="#FEBE10"/>
<path d="M39.4693 25.1194H37.999V26.256H39.3441V27.1076H37.999V28.915H37.0605V24.2678H39.4588V25.1194H39.4693Z" fill="#FEBE10"/>
<path d="M42.3154 25.1194H40.8486V26.256H42.1972V27.1076H40.8486V28.915H39.9102V24.2678H42.3085V25.1194H42.3154Z" fill="#FEBE10"/>
<path d="M45.2564 28.9084H42.7607V24.2578H45.159V25.1094H43.6992V26.1521H45.0548V26.9967H43.6992V28.0569H45.2564V28.9084Z" fill="#FEBE10"/>
<path d="M49.1731 28.9084H48.0956L47.4525 27.7093C47.4004 27.6224 47.3587 27.5355 47.3135 27.466C47.2683 27.3965 47.2266 27.3339 47.1849 27.2818C47.145 27.2373 47.098 27.1997 47.0459 27.1705C46.995 27.1417 46.9376 27.1261 46.879 27.1253H46.6253V28.9084H45.6973V24.2578H47.1814C48.1894 24.2578 48.6934 24.6853 48.6934 25.5195C48.6943 25.6729 48.6708 25.8254 48.6239 25.9714C48.5843 26.1063 48.5194 26.2325 48.4327 26.3433C48.3528 26.464 48.2501 26.5679 48.1303 26.6492C48.011 26.728 47.8826 26.7921 47.748 26.8403C47.8135 26.865 47.8746 26.9002 47.9287 26.9446C47.9912 26.9956 48.0472 27.0539 48.0956 27.1184C48.1477 27.1879 48.1998 27.2505 48.252 27.3269C48.3003 27.3966 48.3433 27.4698 48.3806 27.5459L49.1731 28.9084ZM46.6184 25.0503V26.3433H47.0285C47.1181 26.3484 47.2077 26.3339 47.2911 26.3009C47.3745 26.2679 47.4498 26.2171 47.5116 26.1521C47.6337 26.0199 47.6998 25.8454 47.6959 25.6655C47.6959 25.2588 47.4803 25.0572 47.0459 25.0572H46.6184V25.0503Z" fill="#FEBE10"/>
<path d="M10.7317 28.7342V28.0912C10.8005 28.1571 10.8763 28.2153 10.9576 28.265C11.0462 28.3163 11.1392 28.3593 11.2357 28.3936C11.3282 28.4283 11.4236 28.4551 11.5207 28.4735C11.6102 28.4895 11.7009 28.4976 11.7918 28.4979C12.0186 28.5155 12.2442 28.4514 12.4279 28.3171C12.4994 28.2493 12.5549 28.1664 12.5904 28.0744C12.6258 27.9824 12.6404 27.8836 12.6329 27.7853C12.6348 27.6752 12.6122 27.566 12.5669 27.4656C12.5177 27.37 12.4518 27.2841 12.3722 27.2118C12.2824 27.1288 12.1833 27.0565 12.0768 26.9963L11.7292 26.7774C11.5937 26.7009 11.4616 26.614 11.3469 26.534C11.2318 26.4543 11.1268 26.3609 11.0341 26.256C10.9501 26.1494 10.88 26.0326 10.8255 25.9084C10.7689 25.7702 10.7371 25.6232 10.7317 25.4739C10.728 25.2849 10.7697 25.0978 10.8533 24.9282C10.9311 24.7861 11.0376 24.6618 11.1661 24.5633C11.2969 24.4554 11.4466 24.3729 11.6076 24.32C11.771 24.2709 11.941 24.2474 12.1116 24.2504C12.406 24.2293 12.7008 24.2856 12.9666 24.4138V25.0151C12.7098 24.8197 12.3922 24.7212 12.0699 24.7371C11.9668 24.7349 11.8639 24.7465 11.764 24.7718C11.6654 24.7972 11.5738 24.8448 11.4963 24.9109C11.4183 24.9685 11.3532 25.042 11.3052 25.1264C11.2504 25.225 11.2239 25.3369 11.2287 25.4496C11.2259 25.5526 11.2424 25.6551 11.2774 25.752C11.3167 25.8411 11.3735 25.9214 11.4442 25.9883C11.5266 26.0662 11.6162 26.136 11.7118 26.1969C11.8196 26.2664 11.9378 26.3359 12.0594 26.4124C12.1976 26.4889 12.3311 26.5736 12.4591 26.6661C12.5816 26.7498 12.6926 26.8492 12.7893 26.9616C12.8898 27.0611 12.9701 27.1791 13.0257 27.3092C13.0822 27.4531 13.1116 27.6063 13.1126 27.761C13.1272 27.9563 13.0975 28.1523 13.0257 28.3345C12.9544 28.4828 12.8511 28.6133 12.7233 28.7169C12.5886 28.8122 12.4379 28.8828 12.2784 28.9254C12.1058 28.9701 11.9284 28.9935 11.7501 28.9949C11.6875 28.9949 11.6076 28.9949 11.5137 28.9775C11.4199 28.9669 11.327 28.9495 11.2357 28.9254C11.1383 28.8976 11.0549 28.8733 10.9645 28.8385C10.8847 28.8091 10.8068 28.7742 10.7317 28.7342Z" fill="white"/>
<path d="M14.3709 27.1762V28.9141H13.9121V24.3261H14.9966C15.1756 24.3138 15.3552 24.3383 15.5244 24.3981C15.6935 24.4578 15.8487 24.5516 15.9802 24.6737C16.1016 24.8105 16.1948 24.97 16.2545 25.143C16.3141 25.316 16.339 25.499 16.3278 25.6817C16.3422 26.0751 16.2011 26.4585 15.935 26.7487C15.8008 26.8884 15.6384 26.9978 15.4586 27.0697C15.2788 27.1416 15.0858 27.1744 14.8923 27.1658L14.3709 27.1762ZM14.3709 24.8127V26.6896H14.861C14.9927 26.6984 15.1247 26.6808 15.2495 26.6378C15.3742 26.5948 15.4891 26.5274 15.5874 26.4394C15.676 26.342 15.744 26.2278 15.7876 26.1036C15.8312 25.9794 15.8494 25.8478 15.8412 25.7164C15.8412 25.1081 15.5353 24.8127 14.9201 24.8127H14.3709Z" fill="white"/>
<path d="M19.1607 28.9068H17.0752V24.3257H19.0738V24.8123H17.5444V26.3347H18.9695V26.8109H17.5444V28.4202H19.1815V28.9068H19.1607Z" fill="white"/>
<path d="M22.6116 28.7344C22.2811 28.9235 21.9042 29.0163 21.5236 29.002C21.266 29.0113 21.0097 28.9594 20.7759 28.8507C20.5422 28.7419 20.3374 28.5794 20.1785 28.3764C19.8215 27.9023 19.6419 27.3181 19.671 26.7254C19.6409 26.0839 19.8461 25.4535 20.248 24.9527C20.4198 24.7369 20.6389 24.5635 20.8884 24.4459C21.138 24.3284 21.4112 24.2699 21.687 24.2749C22.0084 24.2625 22.328 24.3281 22.6185 24.4661V25.0222C22.3393 24.8404 22.0132 24.7438 21.68 24.7442C21.4673 24.7388 21.2564 24.7843 21.0648 24.8768C20.8732 24.9693 20.7064 25.1061 20.5782 25.276C20.2802 25.6765 20.1292 26.1675 20.1507 26.6663C20.1183 27.1556 20.2572 27.641 20.5435 28.0392C20.6645 28.1996 20.8226 28.3282 21.0042 28.4141C21.1858 28.5001 21.3855 28.5408 21.5862 28.5328C21.9566 28.5412 22.3206 28.4357 22.6289 28.2304V28.7344H22.6116Z" fill="white"/>
<path d="M24.2632 24.3257V24.788H23.8809V28.4445H24.2632V28.9068H23.0293V28.4445H23.4082V24.788H23.0293V24.3257H24.2632Z" fill="white"/>
<path d="M27.9715 28.9068H27.4571L27.0435 27.6207H25.3646L24.9719 28.9068H24.4609L25.9729 24.3257H26.4491L27.9715 28.9068ZM26.8836 27.1411L26.2684 25.1877C26.2415 25.087 26.2206 24.9849 26.2058 24.8818C26.2058 25.0139 26.1606 25.1182 26.1467 25.1877L25.5384 27.1411H26.8836Z" fill="white"/>
<path d="M30.5956 28.9068H28.5449V24.3257H29.0142V28.4202H30.6026V28.9068H30.5956Z" fill="white"/>
</svg>
