<svg width="44" height="14" viewBox="0 0 44 14" fill="none" xmlns="http://www.w3.org/2000/svg">
<path d="M40.6627 0.130859H3.10666C2.32554 0.130859 1.57636 0.440919 1.0237 0.992927C0.471044 1.54493 0.160101 2.29374 0.15918 3.07486L0.15918 6.30736C0.15918 7.08908 0.469717 7.83878 1.02248 8.39154C1.57524 8.9443 2.32494 9.25484 3.10666 9.25484H5.26861L8.5011 13.8429L11.7336 9.25484H40.6696C41.4493 9.25116 42.1958 8.93911 42.7461 8.38685C43.2964 7.83459 43.6058 7.08699 43.6067 6.30736V3.07486C43.6012 2.29575 43.2893 1.5501 42.7384 0.999173C42.1874 0.448245 41.4418 0.136321 40.6627 0.130859Z" fill="#371400"/>
<path d="M26.5756 6.99635C26.3002 7.00486 26.0265 6.95043 25.7753 6.83719C25.5241 6.72396 25.3021 6.5549 25.1262 6.3429C24.7288 5.87032 24.5208 5.26723 24.5422 4.65018C24.5108 4.00593 24.7146 3.37222 25.1157 2.8671C25.2994 2.64635 25.5311 2.47053 25.7932 2.35305C26.0553 2.23558 26.3407 2.17958 26.6277 2.18932C26.9019 2.18212 27.1741 2.23719 27.424 2.35037C27.6738 2.46355 27.8948 2.6319 28.0702 2.84277C28.4581 3.33622 28.6533 3.95392 28.6193 4.58067C28.6492 5.21832 28.4452 5.84494 28.0458 6.3429C27.8647 6.55418 27.6387 6.72246 27.3844 6.83549C27.1301 6.94852 26.8538 7.00347 26.5756 6.99635ZM26.5999 3.08607C26.4452 3.08283 26.2923 3.11951 26.1559 3.19257C26.0196 3.26563 25.9043 3.3726 25.8213 3.50317C25.616 3.83027 25.5153 4.21223 25.5328 4.59805C25.5133 4.98407 25.6141 5.36664 25.8213 5.69292C25.903 5.81788 26.015 5.92009 26.1469 5.99C26.2788 6.0599 26.4263 6.09522 26.5756 6.09264C26.7264 6.09601 26.8757 6.06113 27.0094 5.99123C27.1431 5.92133 27.2569 5.81871 27.3402 5.69292C27.5437 5.37184 27.641 4.99487 27.6183 4.61542C27.6406 4.2222 27.545 3.83128 27.3437 3.49274C27.2648 3.36708 27.155 3.26373 27.0248 3.19255C26.8946 3.12136 26.7483 3.0847 26.5999 3.08607Z" fill="white"/>
<path d="M31.4693 3.11939H29.999V4.25598H31.3441V5.10755H29.999V6.91497H29.0605V2.26782H31.4588V3.11939H31.4693Z" fill="white"/>
<path d="M34.3154 3.11939H32.8486V4.25598H34.1972V5.10755H32.8486V6.91497H31.9102V2.26782H34.3085V3.11939H34.3154Z" fill="white"/>
<path d="M37.2564 6.90843H34.7607V2.25781H37.159V3.10938H35.6992V4.15212H37.0548V4.99674H35.6992V6.05686H37.2564V6.90843Z" fill="white"/>
<path d="M41.1731 6.90843H40.0956L39.4525 5.70928C39.4004 5.62239 39.3587 5.53549 39.3135 5.46598C39.2683 5.39646 39.2266 5.3339 39.1849 5.28176C39.145 5.23728 39.098 5.19969 39.0459 5.17053C38.995 5.14166 38.9376 5.12612 38.879 5.12535H38.6253V6.90843H37.6973V2.25781H39.1814C40.1894 2.25781 40.6934 2.68534 40.6934 3.51953C40.6943 3.67288 40.6708 3.82539 40.6239 3.97138C40.5843 4.10632 40.5194 4.23252 40.4327 4.34329C40.3528 4.46395 40.2501 4.56785 40.1303 4.64916C40.011 4.72796 39.8826 4.79214 39.748 4.84033C39.8135 4.86496 39.8746 4.90019 39.9287 4.94461C39.9912 4.99556 40.0472 5.05392 40.0956 5.1184C40.1477 5.18791 40.1998 5.25048 40.252 5.32694C40.3003 5.39661 40.3433 5.4698 40.3806 5.54592L41.1731 6.90843ZM38.6184 3.05029V4.34329H39.0285C39.1181 4.34836 39.2077 4.33389 39.2911 4.30088C39.3745 4.26787 39.4498 4.21711 39.5116 4.15212C39.6337 4.01988 39.6998 3.84545 39.6959 3.66551C39.6959 3.25884 39.4803 3.05725 39.0459 3.05725H38.6184V3.05029Z" fill="white"/>
<path d="M26.5756 6.99635C26.3002 7.00486 26.0265 6.95043 25.7753 6.83719C25.5241 6.72396 25.3021 6.5549 25.1262 6.3429C24.7288 5.87032 24.5208 5.26723 24.5422 4.65018C24.5108 4.00593 24.7146 3.37222 25.1157 2.8671C25.2994 2.64635 25.5311 2.47053 25.7932 2.35305C26.0553 2.23558 26.3407 2.17958 26.6277 2.18932C26.9019 2.18212 27.1741 2.23719 27.424 2.35037C27.6738 2.46355 27.8948 2.6319 28.0702 2.84277C28.4581 3.33622 28.6533 3.95392 28.6193 4.58067C28.6492 5.21832 28.4452 5.84494 28.0458 6.3429C27.8647 6.55418 27.6387 6.72246 27.3844 6.83549C27.1301 6.94852 26.8538 7.00347 26.5756 6.99635ZM26.5999 3.08607C26.4452 3.08283 26.2923 3.11951 26.1559 3.19257C26.0196 3.26563 25.9043 3.3726 25.8213 3.50317C25.616 3.83027 25.5153 4.21223 25.5328 4.59805C25.5133 4.98407 25.6141 5.36664 25.8213 5.69292C25.903 5.81788 26.015 5.92009 26.1469 5.99C26.2788 6.0599 26.4263 6.09522 26.5756 6.09264C26.7264 6.09601 26.8757 6.06113 27.0094 5.99123C27.1431 5.92133 27.2569 5.81871 27.3402 5.69292C27.5437 5.37184 27.641 4.99487 27.6183 4.61542C27.6406 4.2222 27.545 3.83128 27.3437 3.49274C27.2648 3.36708 27.155 3.26373 27.0248 3.19255C26.8946 3.12136 26.7483 3.0847 26.5999 3.08607Z" fill="#FEBE10"/>
<path d="M31.4693 3.11939H29.999V4.25598H31.3441V5.10755H29.999V6.91497H29.0605V2.26782H31.4588V3.11939H31.4693Z" fill="#FEBE10"/>
<path d="M34.3154 3.11939H32.8486V4.25598H34.1972V5.10755H32.8486V6.91497H31.9102V2.26782H34.3085V3.11939H34.3154Z" fill="#FEBE10"/>
<path d="M37.2564 6.90843H34.7607V2.25781H37.159V3.10938H35.6992V4.15212H37.0548V4.99674H35.6992V6.05686H37.2564V6.90843Z" fill="#FEBE10"/>
<path d="M41.1731 6.90843H40.0956L39.4525 5.70928C39.4004 5.62239 39.3587 5.53549 39.3135 5.46598C39.2683 5.39646 39.2266 5.3339 39.1849 5.28176C39.145 5.23728 39.098 5.19969 39.0459 5.17053C38.995 5.14166 38.9376 5.12612 38.879 5.12535H38.6253V6.90843H37.6973V2.25781H39.1814C40.1894 2.25781 40.6934 2.68534 40.6934 3.51953C40.6943 3.67288 40.6708 3.82539 40.6239 3.97138C40.5843 4.10632 40.5194 4.23252 40.4327 4.34329C40.3528 4.46395 40.2501 4.56785 40.1303 4.64916C40.011 4.72796 39.8826 4.79214 39.748 4.84033C39.8135 4.86496 39.8746 4.90019 39.9287 4.94461C39.9912 4.99556 40.0472 5.05392 40.0956 5.1184C40.1477 5.18791 40.1998 5.25048 40.252 5.32694C40.3003 5.39661 40.3433 5.4698 40.3806 5.54592L41.1731 6.90843ZM38.6184 3.05029V4.34329H39.0285C39.1181 4.34836 39.2077 4.33389 39.2911 4.30088C39.3745 4.26787 39.4498 4.21711 39.5116 4.15212C39.6337 4.01988 39.6998 3.84545 39.6959 3.66551C39.6959 3.25884 39.4803 3.05725 39.0459 3.05725H38.6184V3.05029Z" fill="#FEBE10"/>
<path d="M26.5756 6.99635C26.3002 7.00486 26.0265 6.95043 25.7753 6.83719C25.5241 6.72396 25.3021 6.5549 25.1262 6.3429C24.7288 5.87032 24.5208 5.26723 24.5422 4.65018C24.5108 4.00593 24.7146 3.37222 25.1157 2.8671C25.2994 2.64635 25.5311 2.47053 25.7932 2.35305C26.0553 2.23558 26.3407 2.17958 26.6277 2.18932C26.9019 2.18212 27.1741 2.23719 27.424 2.35037C27.6738 2.46355 27.8948 2.6319 28.0702 2.84277C28.4581 3.33622 28.6533 3.95392 28.6193 4.58067C28.6492 5.21832 28.4452 5.84494 28.0458 6.3429C27.8647 6.55418 27.6387 6.72246 27.3844 6.83549C27.1301 6.94852 26.8538 7.00347 26.5756 6.99635ZM26.5999 3.08607C26.4452 3.08283 26.2923 3.11951 26.1559 3.19257C26.0196 3.26563 25.9043 3.3726 25.8213 3.50317C25.616 3.83027 25.5153 4.21223 25.5328 4.59805C25.5133 4.98407 25.6141 5.36664 25.8213 5.69292C25.903 5.81788 26.015 5.92009 26.1469 5.99C26.2788 6.0599 26.4263 6.09522 26.5756 6.09264C26.7264 6.09601 26.8757 6.06113 27.0094 5.99123C27.1431 5.92133 27.2569 5.81871 27.3402 5.69292C27.5437 5.37184 27.641 4.99487 27.6183 4.61542C27.6406 4.2222 27.545 3.83128 27.3437 3.49274C27.2648 3.36708 27.155 3.26373 27.0248 3.19255C26.8946 3.12136 26.7483 3.0847 26.5999 3.08607Z" fill="#FEBE10"/>
<path d="M31.4693 3.11939H29.999V4.25598H31.3441V5.10755H29.999V6.91497H29.0605V2.26782H31.4588V3.11939H31.4693Z" fill="#FEBE10"/>
<path d="M34.3154 3.11939H32.8486V4.25598H34.1972V5.10755H32.8486V6.91497H31.9102V2.26782H34.3085V3.11939H34.3154Z" fill="#FEBE10"/>
<path d="M37.2564 6.90843H34.7607V2.25781H37.159V3.10938H35.6992V4.15212H37.0548V4.99674H35.6992V6.05686H37.2564V6.90843Z" fill="#FEBE10"/>
<path d="M41.1731 6.90843H40.0956L39.4525 5.70928C39.4004 5.62239 39.3587 5.53549 39.3135 5.46598C39.2683 5.39646 39.2266 5.3339 39.1849 5.28176C39.145 5.23728 39.098 5.19969 39.0459 5.17053C38.995 5.14166 38.9376 5.12612 38.879 5.12535H38.6253V6.90843H37.6973V2.25781H39.1814C40.1894 2.25781 40.6934 2.68534 40.6934 3.51953C40.6943 3.67288 40.6708 3.82539 40.6239 3.97138C40.5843 4.10632 40.5194 4.23252 40.4327 4.34329C40.3528 4.46395 40.2501 4.56785 40.1303 4.64916C40.011 4.72796 39.8826 4.79214 39.748 4.84033C39.8135 4.86496 39.8746 4.90019 39.9287 4.94461C39.9912 4.99556 40.0472 5.05392 40.0956 5.1184C40.1477 5.18791 40.1998 5.25048 40.252 5.32694C40.3003 5.39661 40.3433 5.4698 40.3806 5.54592L41.1731 6.90843ZM38.6184 3.05029V4.34329H39.0285C39.1181 4.34836 39.2077 4.33389 39.2911 4.30088C39.3745 4.26787 39.4498 4.21711 39.5116 4.15212C39.6337 4.01988 39.6998 3.84545 39.6959 3.66551C39.6959 3.25884 39.4803 3.05725 39.0459 3.05725H38.6184V3.05029Z" fill="#FEBE10"/>
<path d="M26.5756 6.99635C26.3002 7.00486 26.0265 6.95043 25.7753 6.83719C25.5241 6.72396 25.3021 6.5549 25.1262 6.3429C24.7288 5.87032 24.5208 5.26723 24.5422 4.65018C24.5108 4.00593 24.7146 3.37222 25.1157 2.8671C25.2994 2.64635 25.5311 2.47053 25.7932 2.35305C26.0553 2.23558 26.3407 2.17958 26.6277 2.18932C26.9019 2.18212 27.1741 2.23719 27.424 2.35037C27.6738 2.46355 27.8948 2.6319 28.0702 2.84277C28.4581 3.33622 28.6533 3.95392 28.6193 4.58067C28.6492 5.21832 28.4452 5.84494 28.0458 6.3429C27.8647 6.55418 27.6387 6.72246 27.3844 6.83549C27.1301 6.94852 26.8538 7.00347 26.5756 6.99635ZM26.5999 3.08607C26.4452 3.08283 26.2923 3.11951 26.1559 3.19257C26.0196 3.26563 25.9043 3.3726 25.8213 3.50317C25.616 3.83027 25.5153 4.21223 25.5328 4.59805C25.5133 4.98407 25.6141 5.36664 25.8213 5.69292C25.903 5.81788 26.015 5.92009 26.1469 5.99C26.2788 6.0599 26.4263 6.09522 26.5756 6.09264C26.7264 6.09601 26.8757 6.06113 27.0094 5.99123C27.1431 5.92133 27.2569 5.81871 27.3402 5.69292C27.5437 5.37184 27.641 4.99487 27.6183 4.61542C27.6406 4.2222 27.545 3.83128 27.3437 3.49274C27.2648 3.36708 27.155 3.26373 27.0248 3.19255C26.8946 3.12136 26.7483 3.0847 26.5999 3.08607Z" fill="#FEBE10"/>
<path d="M31.4693 3.11939H29.999V4.25598H31.3441V5.10755H29.999V6.91497H29.0605V2.26782H31.4588V3.11939H31.4693Z" fill="#FEBE10"/>
<path d="M34.3154 3.11939H32.8486V4.25598H34.1972V5.10755H32.8486V6.91497H31.9102V2.26782H34.3085V3.11939H34.3154Z" fill="#FEBE10"/>
<path d="M37.2564 6.90843H34.7607V2.25781H37.159V3.10938H35.6992V4.15212H37.0548V4.99674H35.6992V6.05686H37.2564V6.90843Z" fill="#FEBE10"/>
<path d="M41.1731 6.90843H40.0956L39.4525 5.70928C39.4004 5.62239 39.3587 5.53549 39.3135 5.46598C39.2683 5.39646 39.2266 5.3339 39.1849 5.28176C39.145 5.23728 39.098 5.19969 39.0459 5.17053C38.995 5.14166 38.9376 5.12612 38.879 5.12535H38.6253V6.90843H37.6973V2.25781H39.1814C40.1894 2.25781 40.6934 2.68534 40.6934 3.51953C40.6943 3.67288 40.6708 3.82539 40.6239 3.97138C40.5843 4.10632 40.5194 4.23252 40.4327 4.34329C40.3528 4.46395 40.2501 4.56785 40.1303 4.64916C40.011 4.72796 39.8826 4.79214 39.748 4.84033C39.8135 4.86496 39.8746 4.90019 39.9287 4.94461C39.9912 4.99556 40.0472 5.05392 40.0956 5.1184C40.1477 5.18791 40.1998 5.25048 40.252 5.32694C40.3003 5.39661 40.3433 5.4698 40.3806 5.54592L41.1731 6.90843ZM38.6184 3.05029V4.34329H39.0285C39.1181 4.34836 39.2077 4.33389 39.2911 4.30088C39.3745 4.26787 39.4498 4.21711 39.5116 4.15212C39.6337 4.01988 39.6998 3.84545 39.6959 3.66551C39.6959 3.25884 39.4803 3.05725 39.0459 3.05725H38.6184V3.05029Z" fill="#FEBE10"/>
<path d="M2.73167 6.73423V6.09121C2.80054 6.15706 2.87628 6.21532 2.9576 6.265C3.04617 6.31625 3.13925 6.3593 3.23566 6.3936C3.32822 6.42831 3.42357 6.45505 3.52068 6.47355C3.61017 6.4895 3.70088 6.49764 3.79179 6.49788C4.01859 6.51553 4.24423 6.45142 4.42786 6.31713C4.49938 6.24928 4.5549 6.16635 4.59037 6.07436C4.62584 5.98238 4.64038 5.88365 4.63293 5.78534C4.63476 5.67518 4.61221 5.56598 4.56689 5.46556C4.51767 5.37005 4.45175 5.28411 4.37225 5.21183C4.28241 5.12884 4.18327 5.05652 4.0768 4.99633L3.72922 4.77736C3.59367 4.70089 3.46159 4.61399 3.34689 4.53405C3.23179 4.4543 3.12676 4.36094 3.03406 4.25599C2.95011 4.14942 2.88004 4.03263 2.82552 3.90841C2.76891 3.77023 2.73714 3.62315 2.73167 3.47393C2.72799 3.28492 2.76971 3.09778 2.85332 2.92823C2.93108 2.78614 3.03762 2.66184 3.16614 2.56327C3.29687 2.45542 3.44658 2.37291 3.60757 2.31997C3.77097 2.27089 3.94098 2.24744 4.11156 2.25045C4.40595 2.22927 4.70076 2.28559 4.96661 2.41381V3.01513C4.70979 2.81967 4.3922 2.72119 4.06985 2.73706C3.9668 2.73485 3.86391 2.74654 3.76398 2.77182C3.66537 2.79725 3.57385 2.84479 3.49635 2.91085C3.41827 2.96855 3.35315 3.04196 3.30518 3.12635C3.25036 3.22499 3.2239 3.33686 3.22871 3.4496C3.22588 3.55255 3.24239 3.65512 3.27737 3.75199C3.31674 3.84108 3.37345 3.92142 3.44421 3.98835C3.52663 4.06617 3.61624 4.13599 3.71184 4.1969C3.81959 4.26641 3.93777 4.33593 4.05942 4.4124C4.19761 4.48891 4.33109 4.57364 4.45914 4.66613C4.58158 4.74984 4.69258 4.84916 4.78934 4.96157C4.88984 5.06108 4.9701 5.17912 5.0257 5.30915C5.08219 5.45315 5.11165 5.60633 5.11259 5.76101C5.12719 5.95628 5.09749 6.15233 5.0257 6.33451C4.95441 6.48275 4.85113 6.61333 4.7233 6.71685C4.58856 6.81223 4.43791 6.88285 4.2784 6.9254C4.10581 6.97013 3.92837 6.99348 3.75008 6.99492C3.68751 6.99492 3.60757 6.99492 3.51372 6.97754C3.4199 6.9669 3.32697 6.94948 3.23566 6.9254C3.13834 6.89759 3.05492 6.87326 2.96455 6.8385C2.88465 6.80906 2.80685 6.77422 2.73167 6.73423Z" fill="white"/>
<path d="M6.37092 5.17625V6.91415H5.91211V2.32609H6.99656C7.17556 2.31379 7.35519 2.33828 7.52436 2.39806C7.69354 2.45784 7.84867 2.55164 7.98021 2.67367C8.10162 2.81055 8.19482 2.97005 8.25447 3.14302C8.31411 3.31599 8.33903 3.49903 8.32779 3.68165C8.34219 4.07514 8.20109 4.45847 7.93503 4.74872C7.80084 4.88836 7.63843 4.99778 7.45863 5.0697C7.27882 5.14162 7.08575 5.17439 6.89229 5.16582L6.37092 5.17625ZM6.37092 2.8127V4.68963H6.861C6.99265 4.6984 7.12473 4.68078 7.24948 4.6378C7.37422 4.59483 7.48913 4.52737 7.58745 4.43938C7.67595 4.34197 7.74401 4.2278 7.7876 4.10361C7.83118 3.97943 7.8494 3.84776 7.84118 3.71641C7.84118 3.10814 7.53531 2.8127 6.92009 2.8127H6.37092Z" fill="white"/>
<path d="M11.1607 6.90679H9.0752V2.32568H11.0738V2.8123H9.54443V4.3347H10.9695V4.81088H9.54443V6.42018H11.1815V6.90679H11.1607Z" fill="white"/>
<path d="M14.6116 6.73438C14.2811 6.92353 13.9042 7.01625 13.5236 7.00201C13.266 7.01128 13.0097 6.95943 12.7759 6.85069C12.5422 6.74195 12.3374 6.57941 12.1785 6.37637C11.8215 5.90231 11.6419 5.31811 11.671 4.72536C11.6409 4.08391 11.8461 3.45353 12.248 2.95271C12.4198 2.73687 12.6389 2.56347 12.8884 2.44593C13.138 2.3284 13.4112 2.26988 13.687 2.27492C14.0084 2.2625 14.328 2.32809 14.6185 2.46609V3.02222C14.3393 2.84045 14.0132 2.74383 13.68 2.74416C13.4673 2.73882 13.2564 2.78428 13.0648 2.87677C12.8732 2.96925 12.7064 3.1061 12.5782 3.27596C12.2802 3.6765 12.1292 4.16748 12.1507 4.66628C12.1183 5.15563 12.2572 5.64101 12.5435 6.03922C12.6645 6.19955 12.8226 6.32819 13.0042 6.41414C13.1858 6.50009 13.3855 6.5408 13.5862 6.53278C13.9566 6.54122 14.3206 6.43566 14.6289 6.23039V6.73438H14.6116Z" fill="white"/>
<path d="M16.2632 2.32568V2.78796H15.8809V6.44451H16.2632V6.90679H15.0293V6.44451H15.4082V2.78796H15.0293V2.32568H16.2632Z" fill="white"/>
<path d="M19.9715 6.90679H19.4571L19.0435 5.62074H17.3646L16.9719 6.90679H16.4609L17.9729 2.32568H18.4491L19.9715 6.90679ZM18.8836 5.14108L18.2684 3.18768C18.2415 3.08705 18.2206 2.98491 18.2058 2.88181C18.2058 3.01389 18.1606 3.11817 18.1467 3.18768L17.5384 5.14108H18.8836Z" fill="white"/>
<path d="M22.5956 6.90679H20.5449V2.32568H21.0142V6.42018H22.6026V6.90679H22.5956Z" fill="white"/>
</svg>
