<svg width="44" height="24" viewBox="0 0 44 24" fill="none" xmlns="http://www.w3.org/2000/svg">
<path d="M41.052 0.262939L43.5372 3.46416L34.9346 8.84122L41.052 0.262939Z" fill="#FEBE10"/>
<path d="M40.1824 7.53198L41.2182 9.11348L35.7959 9.61746L40.1824 7.53198Z" fill="#371400"/>
<path d="M10.5339 12.0908L42.2401 12.1082L42.2332 23.7104L10.5234 23.7L10.5339 12.0908Z" fill="#FEBE10"/>
<path d="M17.0235 22.2299C16.6088 22.2419 16.1967 22.1599 15.8181 21.9902C15.4395 21.8204 15.1042 21.5673 14.8372 21.2497C14.2491 20.5321 13.9481 19.6218 13.9926 18.695C13.949 17.7267 14.2535 16.7748 14.8511 16.0117C15.125 15.6738 15.4733 15.4038 15.8689 15.2229C16.2644 15.042 16.6965 14.9551 17.1312 14.969C17.5428 14.9571 17.9516 15.0395 18.3263 15.21C18.7011 15.3805 19.0318 15.6345 19.2932 15.9526C19.8703 16.6888 20.1639 17.6077 20.1204 18.5421C20.1673 19.5039 19.8607 20.4497 19.2584 21.2011C18.9898 21.5325 18.6485 21.7977 18.2609 21.9761C17.8734 22.1545 17.45 22.2414 17.0235 22.2299ZM17.0861 16.3419C16.852 16.3362 16.6203 16.3907 16.4134 16.5002C16.2064 16.6098 16.0311 16.7707 15.9043 16.9676C15.5899 17.4587 15.4379 18.0363 15.4698 18.6186C15.4382 19.1975 15.5903 19.7717 15.9043 20.2591C16.0291 20.4486 16.1996 20.6037 16.4 20.71C16.6005 20.8163 16.8244 20.8704 17.0513 20.8674C17.2781 20.8725 17.5026 20.8211 17.7046 20.718C17.9066 20.6149 18.0798 20.4632 18.2087 20.2765C18.5185 19.7902 18.6669 19.2185 18.6328 18.6429C18.6685 18.0494 18.523 17.4591 18.2157 16.9502C18.0964 16.7595 17.9294 16.6032 17.7314 16.4965C17.5333 16.3899 17.3109 16.3366 17.0861 16.3419Z" fill="white"/>
<path d="M24.4197 16.3906H22.2126V18.1111H24.2459V19.3902H22.2126V22.1083H20.8223V15.115H24.4475L24.4197 16.3906Z" fill="white"/>
<path d="M28.7127 16.3906H26.5056V18.1111H28.5389V19.3902H26.5056V22.1083H25.1152V15.115H28.7405L28.7127 16.3906Z" fill="white"/>
<path d="M33.1435 22.1083H29.3896V15.115H33.0045V16.401H30.8078V17.9582H32.8585V19.2373H30.8078V20.8327H33.1539L33.1435 22.1083Z" fill="white"/>
<path d="M39.0455 22.1187H37.4258L36.4561 20.3287C36.3831 20.1931 36.3136 20.068 36.2475 19.9637C36.185 19.8677 36.1177 19.7749 36.0459 19.6857C35.9865 19.6139 35.9132 19.5548 35.8304 19.5119C35.7556 19.472 35.6719 19.4517 35.5871 19.4528H35.2048V22.1361H33.8145V15.115H36.0459C37.5683 15.115 38.3226 15.7476 38.3226 17.0163C38.3246 17.2463 38.2894 17.4752 38.2183 17.694C38.1523 17.8929 38.0562 18.0805 37.9333 18.2502C37.8108 18.4173 37.6602 18.5619 37.4884 18.6777C37.3096 18.8001 37.1141 18.8961 36.9079 18.9627C37.005 19 37.0954 19.0529 37.1755 19.1191C37.2703 19.1955 37.3555 19.283 37.4293 19.3798C37.5057 19.4736 37.5857 19.5779 37.6621 19.6926C37.7386 19.8073 37.8012 19.9185 37.8637 20.0228L39.0455 22.1187ZM35.2048 16.2968V18.2432H35.8096C35.9459 18.2503 36.0822 18.2275 36.2089 18.1765C36.3356 18.1255 36.4496 18.0474 36.5429 17.9478C36.7284 17.7479 36.8282 17.4834 36.821 17.2109C36.821 16.5992 36.4908 16.2898 35.8374 16.2898L35.2048 16.2968Z" fill="white"/>
<path d="M17.0235 22.2299C16.6088 22.2419 16.1967 22.1599 15.8181 21.9902C15.4395 21.8204 15.1042 21.5673 14.8372 21.2497C14.2491 20.5321 13.9481 19.6218 13.9926 18.695C13.949 17.7267 14.2535 16.7748 14.8511 16.0117C15.125 15.6738 15.4733 15.4038 15.8689 15.2229C16.2644 15.042 16.6965 14.9551 17.1312 14.969C17.5428 14.9571 17.9516 15.0395 18.3263 15.21C18.7011 15.3805 19.0318 15.6345 19.2932 15.9526C19.8703 16.6888 20.1639 17.6077 20.1204 18.5421C20.1673 19.5039 19.8607 20.4497 19.2584 21.2011C18.9898 21.5325 18.6485 21.7977 18.2609 21.9761C17.8734 22.1545 17.45 22.2414 17.0235 22.2299ZM17.0861 16.3419C16.852 16.3362 16.6203 16.3907 16.4134 16.5002C16.2064 16.6098 16.0311 16.7707 15.9043 16.9676C15.5899 17.4587 15.4379 18.0363 15.4698 18.6186C15.4382 19.1975 15.5903 19.7717 15.9043 20.2591C16.0291 20.4486 16.1996 20.6037 16.4 20.71C16.6005 20.8163 16.8244 20.8704 17.0513 20.8674C17.2781 20.8725 17.5026 20.8211 17.7046 20.718C17.9066 20.6149 18.0798 20.4632 18.2087 20.2765C18.5185 19.7902 18.6669 19.2185 18.6328 18.6429C18.6685 18.0494 18.523 17.4591 18.2157 16.9502C18.0964 16.7595 17.9294 16.6032 17.7314 16.4965C17.5333 16.3899 17.3109 16.3366 17.0861 16.3419Z" fill="#371400"/>
<path d="M24.4197 16.3906H22.2126V18.1111H24.2459V19.3902H22.2126V22.1083H20.8223V15.115H24.4475L24.4197 16.3906Z" fill="#371400"/>
<path d="M28.7127 16.3906H26.5056V18.1111H28.5389V19.3902H26.5056V22.1083H25.1152V15.115H28.7405L28.7127 16.3906Z" fill="#371400"/>
<path d="M33.1435 22.1083H29.3896V15.115H33.0045V16.401H30.8078V17.9582H32.8585V19.2373H30.8078V20.8327H33.1539L33.1435 22.1083Z" fill="#371400"/>
<path d="M39.0455 22.1187H37.4258L36.4561 20.3287C36.3831 20.1931 36.3136 20.068 36.2475 19.9637C36.185 19.8677 36.1177 19.7749 36.0459 19.6857C35.9865 19.6139 35.9132 19.5548 35.8304 19.5119C35.7556 19.472 35.6719 19.4517 35.5871 19.4528H35.2048V22.1361H33.8145V15.115H36.0459C37.5683 15.115 38.3226 15.7476 38.3226 17.0163C38.3246 17.2463 38.2894 17.4752 38.2183 17.694C38.1523 17.8929 38.0562 18.0805 37.9333 18.2502C37.8108 18.4173 37.6602 18.5619 37.4884 18.6777C37.3096 18.8001 37.1141 18.8961 36.9079 18.9627C37.005 19 37.0954 19.0529 37.1755 19.1191C37.2703 19.1955 37.3555 19.283 37.4293 19.3798C37.5057 19.4736 37.5857 19.5779 37.6621 19.6926C37.7386 19.8073 37.8012 19.9185 37.8637 20.0228L39.0455 22.1187ZM35.2048 16.2968V18.2432H35.8096C35.9459 18.2503 36.0822 18.2275 36.2089 18.1765C36.3356 18.1255 36.4496 18.0474 36.5429 17.9478C36.7284 17.7479 36.8282 17.4834 36.821 17.2109C36.821 16.5992 36.4908 16.2898 35.8374 16.2898L35.2048 16.2968Z" fill="#371400"/>
<path d="M17.0235 22.2299C16.6088 22.2419 16.1967 22.1599 15.8181 21.9902C15.4395 21.8204 15.1042 21.5673 14.8372 21.2497C14.2491 20.5321 13.9481 19.6218 13.9926 18.695C13.949 17.7267 14.2535 16.7748 14.8511 16.0117C15.125 15.6738 15.4733 15.4038 15.8689 15.2229C16.2644 15.042 16.6965 14.9551 17.1312 14.969C17.5428 14.9571 17.9516 15.0395 18.3263 15.21C18.7011 15.3805 19.0318 15.6345 19.2932 15.9526C19.8703 16.6888 20.1639 17.6077 20.1204 18.5421C20.1673 19.5039 19.8607 20.4497 19.2584 21.2011C18.9898 21.5325 18.6485 21.7977 18.2609 21.9761C17.8734 22.1545 17.45 22.2414 17.0235 22.2299ZM17.0861 16.3419C16.852 16.3362 16.6203 16.3907 16.4134 16.5002C16.2064 16.6098 16.0311 16.7707 15.9043 16.9676C15.5899 17.4587 15.4379 18.0363 15.4698 18.6186C15.4382 19.1975 15.5903 19.7717 15.9043 20.2591C16.0291 20.4486 16.1996 20.6037 16.4 20.71C16.6005 20.8163 16.8244 20.8704 17.0513 20.8674C17.2781 20.8725 17.5026 20.8211 17.7046 20.718C17.9066 20.6149 18.0798 20.4632 18.2087 20.2765C18.5185 19.7902 18.6669 19.2185 18.6328 18.6429C18.6685 18.0494 18.523 17.4591 18.2157 16.9502C18.0964 16.7595 17.9294 16.6032 17.7314 16.4965C17.5333 16.3899 17.3109 16.3366 17.0861 16.3419Z" fill="#371400"/>
<path d="M24.4197 16.3906H22.2126V18.1111H24.2459V19.3902H22.2126V22.1083H20.8223V15.115H24.4475L24.4197 16.3906Z" fill="#371400"/>
<path d="M28.7127 16.3906H26.5056V18.1111H28.5389V19.3902H26.5056V22.1083H25.1152V15.115H28.7405L28.7127 16.3906Z" fill="#371400"/>
<path d="M33.1435 22.1083H29.3896V15.115H33.0045V16.401H30.8078V17.9582H32.8585V19.2373H30.8078V20.8327H33.1539L33.1435 22.1083Z" fill="#371400"/>
<path d="M39.0455 22.1187H37.4258L36.4561 20.3287C36.3831 20.1931 36.3136 20.068 36.2475 19.9637C36.185 19.8677 36.1177 19.7749 36.0459 19.6857C35.9865 19.6139 35.9132 19.5548 35.8304 19.5119C35.7556 19.472 35.6719 19.4517 35.5871 19.4528H35.2048V22.1361H33.8145V15.115H36.0459C37.5683 15.115 38.3226 15.7476 38.3226 17.0163C38.3246 17.2463 38.2894 17.4752 38.2183 17.694C38.1523 17.8929 38.0562 18.0805 37.9333 18.2502C37.8108 18.4173 37.6602 18.5619 37.4884 18.6777C37.3096 18.8001 37.1141 18.8961 36.9079 18.9627C37.005 19 37.0954 19.0529 37.1755 19.1191C37.2703 19.1955 37.3555 19.283 37.4293 19.3798C37.5057 19.4736 37.5857 19.5779 37.6621 19.6926C37.7386 19.8073 37.8012 19.9185 37.8637 20.0228L39.0455 22.1187ZM35.2048 16.2968V18.2432H35.8096C35.9459 18.2503 36.0822 18.2275 36.2089 18.1765C36.3356 18.1255 36.4496 18.0474 36.5429 17.9478C36.7284 17.7479 36.8282 17.4834 36.821 17.2109C36.821 16.5992 36.4908 16.2898 35.8374 16.2898L35.2048 16.2968Z" fill="#371400"/>
<path d="M17.0235 22.2299C16.6088 22.2419 16.1967 22.1599 15.8181 21.9902C15.4395 21.8204 15.1042 21.5673 14.8372 21.2497C14.2491 20.5321 13.9481 19.6218 13.9926 18.695C13.949 17.7267 14.2535 16.7748 14.8511 16.0117C15.125 15.6738 15.4733 15.4038 15.8689 15.2229C16.2644 15.042 16.6965 14.9551 17.1312 14.969C17.5428 14.9571 17.9516 15.0395 18.3263 15.21C18.7011 15.3805 19.0318 15.6345 19.2932 15.9526C19.8703 16.6888 20.1639 17.6077 20.1204 18.5421C20.1673 19.5039 19.8607 20.4497 19.2584 21.2011C18.9898 21.5325 18.6485 21.7977 18.2609 21.9761C17.8734 22.1545 17.45 22.2414 17.0235 22.2299ZM17.0861 16.3419C16.852 16.3362 16.6203 16.3907 16.4134 16.5002C16.2064 16.6098 16.0311 16.7707 15.9043 16.9676C15.5899 17.4587 15.4379 18.0363 15.4698 18.6186C15.4382 19.1975 15.5903 19.7717 15.9043 20.2591C16.0291 20.4486 16.1996 20.6037 16.4 20.71C16.6005 20.8163 16.8244 20.8704 17.0513 20.8674C17.2781 20.8725 17.5026 20.8211 17.7046 20.718C17.9066 20.6149 18.0798 20.4632 18.2087 20.2765C18.5185 19.7902 18.6669 19.2185 18.6328 18.6429C18.6685 18.0494 18.523 17.4591 18.2157 16.9502C18.0964 16.7595 17.9294 16.6032 17.7314 16.4965C17.5333 16.3899 17.3109 16.3366 17.0861 16.3419Z" fill="#371400"/>
<path d="M24.4197 16.3906H22.2126V18.1111H24.2459V19.3902H22.2126V22.1083H20.8223V15.115H24.4475L24.4197 16.3906Z" fill="#371400"/>
<path d="M28.7127 16.3906H26.5056V18.1111H28.5389V19.3902H26.5056V22.1083H25.1152V15.115H28.7405L28.7127 16.3906Z" fill="#371400"/>
<path d="M33.1435 22.1083H29.3896V15.115H33.0045V16.401H30.8078V17.9582H32.8585V19.2373H30.8078V20.8327H33.1539L33.1435 22.1083Z" fill="#371400"/>
<path d="M39.0455 22.1187H37.4258L36.4561 20.3287C36.3831 20.1931 36.3136 20.068 36.2475 19.9637C36.185 19.8677 36.1177 19.7749 36.0459 19.6857C35.9865 19.6139 35.9132 19.5548 35.8304 19.5119C35.7556 19.472 35.6719 19.4517 35.5871 19.4528H35.2048V22.1361H33.8145V15.115H36.0459C37.5683 15.115 38.3226 15.7476 38.3226 17.0163C38.3246 17.2463 38.2894 17.4752 38.2183 17.694C38.1523 17.8929 38.0562 18.0805 37.9333 18.2502C37.8108 18.4173 37.6602 18.5619 37.4884 18.6777C37.3096 18.8001 37.1141 18.8961 36.9079 18.9627C37.005 19 37.0954 19.0529 37.1755 19.1191C37.2703 19.1955 37.3555 19.283 37.4293 19.3798C37.5057 19.4736 37.5857 19.5779 37.6621 19.6926C37.7386 19.8073 37.8012 19.9185 37.8637 20.0228L39.0455 22.1187ZM35.2048 16.2968V18.2432H35.8096C35.9459 18.2503 36.0822 18.2275 36.2089 18.1765C36.3356 18.1255 36.4496 18.0474 36.5429 17.9478C36.7284 17.7479 36.8282 17.4834 36.821 17.2109C36.821 16.5992 36.4908 16.2898 35.8374 16.2898L35.2048 16.2968Z" fill="#371400"/>
<path d="M5.75483 13.3701L7.67696 13.9923L9.24801 19.5814L1.0625 15.1323L5.75483 13.3701Z" fill="#000033"/>
<path d="M0.0888672 4.63498L32.5459 1.62842L33.5156 12.1358L1.06209 15.1319L0.0888672 4.63498Z" fill="#371400"/>
<path d="M4.84053 12.2207L4.77101 11.4387C4.86527 11.5115 4.96525 11.5766 5.06994 11.6333C5.1829 11.6837 5.299 11.7266 5.41752 11.7619C5.53174 11.7927 5.64785 11.8159 5.7651 11.8314C5.8808 11.8402 5.99699 11.8402 6.11268 11.8314C6.39499 11.8258 6.66606 11.7198 6.87737 11.5325C6.95849 11.442 7.01836 11.3344 7.05264 11.2178C7.08692 11.1011 7.09471 10.9783 7.07547 10.8582C7.06515 10.7198 7.02356 10.5855 6.95382 10.4655C6.88061 10.3566 6.79022 10.2604 6.68618 10.1804C6.5663 10.09 6.43832 10.0109 6.30385 9.94409C6.16482 9.87457 5.99798 9.79811 5.82419 9.71817C5.6504 9.63822 5.4766 9.54438 5.32019 9.45748C5.16987 9.37326 5.02988 9.27177 4.90309 9.15509C4.78269 9.03954 4.6828 8.90438 4.60766 8.75537C4.52751 8.58584 4.47809 8.40342 4.46168 8.21662C4.43496 7.99862 4.45936 7.77739 4.53296 7.57046C4.60656 7.36353 4.72734 7.17658 4.88572 7.02442C5.03586 6.88682 5.21032 6.77838 5.40015 6.70464C5.59407 6.62402 5.79921 6.57362 6.00841 6.55519C6.36717 6.49811 6.73455 6.53402 7.07547 6.65947L7.14499 7.40676C6.80742 7.19233 6.40418 7.106 6.00841 7.16345C5.88339 7.17131 5.7603 7.19828 5.64344 7.2434C5.52522 7.28263 5.41553 7.34396 5.32019 7.42414C5.22968 7.50346 5.15635 7.60045 5.10469 7.70915C5.05039 7.83615 5.03235 7.97571 5.05257 8.11235C5.06555 8.23366 5.1009 8.35151 5.15684 8.45993C5.21139 8.5678 5.2913 8.66083 5.38971 8.73104C5.49574 8.81858 5.61255 8.89217 5.73729 8.95002C5.87285 9.01606 6.02926 9.096 6.21348 9.17594C6.39769 9.25588 6.56106 9.34973 6.73485 9.44357C6.89438 9.53602 7.04254 9.64685 7.17628 9.77378C7.30583 9.89446 7.41499 10.0353 7.49953 10.1909C7.59016 10.3607 7.64349 10.5479 7.65594 10.7401C7.68467 10.9826 7.65853 11.2285 7.57946 11.4595C7.50467 11.6524 7.38562 11.8251 7.23188 11.9635C7.0808 12.1052 6.90046 12.212 6.70358 12.2763C6.49275 12.351 6.27307 12.3977 6.05012 12.4154C5.97018 12.4154 5.87633 12.4154 5.76163 12.4154C5.64501 12.4133 5.52877 12.4016 5.41405 12.3806C5.29706 12.3635 5.18104 12.3403 5.06647 12.3111C4.98873 12.2874 4.91315 12.2572 4.84053 12.2207Z" fill="white"/>
<path d="M9.1536 9.9022L9.35172 12.0398L8.77821 12.0919L8.25684 6.44377L9.59501 6.32213C9.81508 6.28713 10.04 6.29843 10.2555 6.35528C10.4709 6.41214 10.6722 6.5133 10.8463 6.65232C11.0127 6.80712 11.1466 6.99348 11.2403 7.20055C11.334 7.40761 11.3856 7.63124 11.392 7.85842C11.4265 8.09613 11.4136 8.33832 11.3539 8.57099C11.2942 8.80366 11.1891 9.0222 11.0444 9.21398C10.895 9.40333 10.7065 9.55819 10.4918 9.66796C10.277 9.77774 10.0411 9.83986 9.80009 9.85006L9.1536 9.9022ZM8.88248 6.98947L9.09797 9.30436L9.6993 9.24874C9.86419 9.24744 10.0269 9.21113 10.1767 9.14222C10.3265 9.07332 10.46 8.97338 10.5683 8.84903C10.6663 8.7208 10.7369 8.5738 10.7758 8.41715C10.8146 8.2605 10.8209 8.09754 10.7942 7.93837C10.7246 7.19107 10.3075 6.85392 9.54982 6.91996L8.88248 6.98947Z" fill="white"/>
<path d="M15.2543 11.491L12.6718 11.7274L12.1504 6.0792L14.6182 5.85327L14.6703 6.45458L12.7656 6.6249L12.9429 8.50531L14.6808 8.33847L14.7294 8.92936L12.9915 9.09272L13.1723 11.067L15.1778 10.8828L15.2543 11.491Z" fill="white"/>
<path d="M19.4734 10.8581C19.0896 11.1326 18.6344 11.2896 18.163 11.3099C17.8445 11.3508 17.5208 11.3154 17.2186 11.2067C16.9164 11.0979 16.6445 10.9188 16.4251 10.6843C15.933 10.1375 15.6446 9.43779 15.6083 8.7031C15.4972 7.91714 15.6764 7.11764 16.1123 6.45425C16.3008 6.1684 16.5524 5.92955 16.8476 5.75603C17.1429 5.5825 17.4739 5.47893 17.8154 5.45323C18.2085 5.40174 18.6082 5.44707 18.9798 5.5853L19.0493 6.28046C18.6854 6.09234 18.2759 6.01043 17.8676 6.04411C17.606 6.06331 17.3525 6.14339 17.1274 6.27797C16.9023 6.41255 16.7118 6.5979 16.5711 6.81922C16.2547 7.35633 16.132 7.98568 16.2235 8.60231C16.2487 9.19311 16.4757 9.75741 16.8665 10.2012C17.0352 10.3827 17.2442 10.522 17.4767 10.6078C17.7091 10.6935 17.9586 10.7233 18.2047 10.6947C18.6578 10.6648 19.0898 10.492 19.4386 10.2012L19.4734 10.8581Z" fill="white"/>
<path d="M21.0131 5.26074L21.0652 5.82382L20.589 5.86901L21.0026 10.3875L21.4823 10.3424L21.5344 10.9089L20.0155 11.0445L19.9599 10.4814L20.4395 10.4397L20.0224 5.92114L19.5428 5.96286L19.4941 5.39977L21.0131 5.26074Z" fill="white"/>
<path d="M26.1058 10.4813L25.4732 10.5439L24.8128 9.00755L22.7517 9.19872L22.4041 10.8219L21.7715 10.881L23.1201 5.06947L23.711 5.01733L26.1058 10.4813ZM24.566 8.43404L23.5858 6.09482C23.5379 5.97317 23.5007 5.84757 23.4746 5.71944H23.4538C23.4491 5.84773 23.4352 5.97552 23.4121 6.10178L22.8837 8.58003L24.566 8.43404Z" fill="white"/>
<path d="M29.345 10.1908L26.8251 10.4237L26.3037 4.77552L26.8807 4.72339L27.3465 9.77025L29.3033 9.58951L29.345 10.1908Z" fill="white"/>
</svg>
