<svg width="59" height="59" viewBox="0 0 59 59" fill="none" xmlns="http://www.w3.org/2000/svg">
<rect x="0.650391" y="0.864014" width="57.93" height="57.93" rx="5.75" fill="white"/>
<path d="M29.6155 8.16309C31.8678 8.16309 33.717 10.4224 35.7329 11.0828C37.8184 11.7605 40.6512 11.048 42.3891 12.3167C44.127 13.5853 44.3355 16.505 45.6042 18.2707C46.8729 20.0364 49.5909 21.0826 50.2757 23.1681C50.9291 25.1876 49.3824 27.6449 49.3824 29.8868C49.3824 32.1287 50.9395 34.5792 50.2757 36.6056C49.6014 38.691 46.8729 39.7651 45.6042 41.5064C44.3355 43.2478 44.1339 46.1779 42.3786 47.457C40.6234 48.7361 37.8184 48.0027 35.7329 48.6909C33.717 49.3513 31.8678 51.6106 29.6155 51.6106C27.3632 51.6106 25.521 49.3513 23.5051 48.6909C21.4196 48.0131 18.5868 48.7257 16.8489 47.457C15.111 46.1883 14.9129 43.2687 13.6268 41.5064C12.3408 39.7442 9.64705 38.6876 8.96231 36.6056C8.30886 34.5792 9.85559 32.1461 9.85559 29.8868C9.85559 27.6276 8.30191 25.1945 8.96231 23.1681C9.65747 21.0826 12.3686 20.0086 13.6373 18.2707C14.9059 16.5328 15.1041 13.5923 16.8593 12.334C18.6146 11.0758 21.43 11.771 23.5155 11.0828C25.5314 10.4224 27.3841 8.16309 29.6155 8.16309Z" fill="#FEBE10"/>
<path d="M51.2001 29.8869C51.2001 32.6676 48.767 34.9685 47.7591 37.3946C46.7163 39.9146 46.7789 43.2409 44.8846 45.1387C42.9903 47.0365 39.6535 46.9705 37.1405 48.0132C34.7074 49.0212 32.4238 51.4543 29.6328 51.4543C26.8417 51.4543 24.5511 49.0212 22.125 48.0132C19.6051 46.9705 16.2787 47.033 14.3844 45.1387C12.4901 43.2444 12.5492 39.9077 11.5065 37.3946C10.4985 34.9685 8.06543 32.6745 8.06543 29.8869C8.06543 27.0993 10.4985 24.8053 11.5065 22.3792C12.5492 19.8592 12.4901 16.5329 14.3844 14.6351C16.2787 12.7373 19.5981 12.8034 22.125 11.7606C24.5581 10.7526 26.8452 8.31958 29.6328 8.31958C32.4204 8.31958 34.7179 10.7526 37.1405 11.7606C39.6604 12.8034 42.9903 12.7408 44.8846 14.6351C46.7789 16.5294 46.7163 19.8662 47.7591 22.3792C48.7601 24.8053 51.2001 27.0959 51.2001 29.8869Z" fill="#371400"/>
<path d="M29.6258 47.457C39.3296 47.457 47.196 39.5906 47.196 29.8868C47.196 20.1831 39.3296 12.3167 29.6258 12.3167C19.9221 12.3167 12.0557 20.1831 12.0557 29.8868C12.0557 39.5906 19.9221 47.457 29.6258 47.457Z" fill="#371400"/>
<path d="M29.6155 47.5509C26.1223 47.5489 22.7082 46.5111 19.8048 44.5689C16.9013 42.6267 14.6389 39.8673 13.3035 36.6394C11.9682 33.4116 11.6199 29.8603 12.3026 26.4345C12.9854 23.0087 14.6685 19.8622 17.1393 17.3929C19.61 14.9236 22.7575 13.2423 26.1837 12.5616C29.6099 11.8808 33.161 12.2312 36.3881 13.5685C39.6151 14.9058 42.3733 17.1698 44.3137 20.0744C46.2542 22.979 47.2899 26.3938 47.2899 29.8869C47.2844 34.5718 45.4202 39.0631 42.1065 42.3749C38.7928 45.6866 34.3004 47.5482 29.6155 47.5509ZM29.6155 12.4036C26.1576 12.4036 22.7774 13.429 19.9023 15.3501C17.0272 17.2712 14.7863 20.0017 13.4631 23.1964C12.1398 26.391 11.7936 29.9063 12.4682 33.2977C13.1428 36.6892 14.8079 39.8044 17.253 42.2495C19.698 44.6945 22.8133 46.3597 26.2047 47.0343C29.5961 47.7089 33.1114 47.3626 36.3061 46.0394C39.5007 44.7161 42.2312 42.4752 44.1523 39.6001C46.0734 36.725 47.0988 33.3448 47.0988 29.8869C47.0923 25.252 45.2483 20.8088 41.9709 17.5315C38.6936 14.2541 34.2504 12.4101 29.6155 12.4036Z" fill="white"/>
<path d="M19.633 37.8464C19.1884 37.8621 18.7461 37.7764 18.3396 37.5957C17.9331 37.415 17.5731 37.1442 17.2868 36.8037C16.6564 36.0343 16.3343 35.0582 16.3831 34.0647C16.332 33.0267 16.6593 32.0053 17.3042 31.1902C17.5987 30.8334 17.9712 30.5491 18.3931 30.3592C18.815 30.1694 19.2749 30.0791 19.7373 30.0954C20.1782 30.0803 20.6168 30.1665 21.0192 30.3472C21.4217 30.528 21.7774 30.7985 22.0591 31.1381C22.6798 31.928 22.9945 32.9154 22.9454 33.9188C22.9961 34.9483 22.6685 35.9607 22.0243 36.7654C21.7346 37.1161 21.3684 37.3957 20.954 37.5831C20.5395 37.7705 20.0876 37.8605 19.633 37.8464ZM19.6921 31.5448C19.4426 31.54 19.196 31.5992 18.9757 31.7166C18.7555 31.834 18.569 32.0058 18.4338 32.2156C18.0985 32.7402 17.9346 33.356 17.9646 33.9778C17.9317 34.6011 18.0959 35.2189 18.4338 35.7435C18.5666 35.9461 18.7483 36.1118 18.9622 36.2255C19.1761 36.3391 19.4152 36.3969 19.6573 36.3935C19.9011 36.4007 20.1428 36.3466 20.3602 36.236C20.5776 36.1255 20.7638 35.9621 20.9017 35.7609C21.2327 35.2439 21.3931 34.6361 21.3605 34.023C21.4037 33.3848 21.2522 32.7485 20.926 32.1982C20.7942 31.9921 20.6112 31.8236 20.395 31.7091C20.1788 31.5946 19.9367 31.538 19.6921 31.5448Z" fill="white"/>
<path d="M27.5577 31.59H25.1942V33.4322H27.3665V34.8225H25.1942V37.7074H23.6787V30.217H27.5577V31.59Z" fill="white"/>
<path d="M32.1529 31.59H29.7893V33.4322H31.9617V34.8225H29.7893V37.7074H28.2773V30.217H32.1529V31.59Z" fill="white"/>
<path d="M36.9149 37.7074H32.876V30.217H36.7411V31.6074H34.388V33.2757H36.5673V34.6661H34.3775V36.3518H36.8905L36.9149 37.7074Z" fill="white"/>
<path d="M43.2128 37.7074H41.4749L40.4322 35.7783C40.3557 35.6289 40.2758 35.4968 40.2097 35.3856C40.1443 35.2817 40.0711 35.1829 39.9908 35.0901C39.9239 35.0248 39.8478 34.9697 39.7648 34.9267C39.6859 34.8803 39.5957 34.8563 39.5041 34.8572H39.0975V37.7074H37.582V30.217H39.9838C41.607 30.217 42.4169 30.9122 42.4169 32.2608C42.4194 32.5046 42.3842 32.7473 42.3126 32.9803C42.2429 33.1938 42.1409 33.3955 42.0102 33.5781C41.8769 33.7576 41.7148 33.9138 41.5305 34.0404C41.3406 34.1704 41.1336 34.2734 40.9153 34.3463C41.0205 34.3856 41.1172 34.4446 41.2003 34.5201C41.2981 34.6029 41.3877 34.6948 41.468 34.7947C41.5594 34.9054 41.6441 35.0214 41.7217 35.1423C41.8017 35.2639 41.8781 35.3786 41.9407 35.4898L43.2128 37.7074ZM39.1044 31.4857V33.5712H39.7579C39.9028 33.5763 40.0472 33.5511 40.1819 33.4973C40.3166 33.4434 40.4385 33.362 40.5399 33.2584C40.7393 33.0436 40.8455 32.7587 40.8354 32.4659C40.8354 31.8159 40.4878 31.4857 39.7926 31.4857H39.1044Z" fill="white"/>
<path d="M19.633 37.8464C19.1884 37.8621 18.7461 37.7764 18.3396 37.5957C17.9331 37.415 17.5731 37.1442 17.2868 36.8037C16.6564 36.0343 16.3343 35.0582 16.3831 34.0647C16.332 33.0267 16.6593 32.0053 17.3042 31.1902C17.5987 30.8334 17.9712 30.5491 18.3931 30.3592C18.815 30.1694 19.2749 30.0791 19.7373 30.0954C20.1782 30.0803 20.6168 30.1665 21.0192 30.3472C21.4217 30.528 21.7774 30.7985 22.0591 31.1381C22.6798 31.928 22.9945 32.9154 22.9454 33.9188C22.9961 34.9483 22.6685 35.9607 22.0243 36.7654C21.7346 37.1161 21.3684 37.3957 20.954 37.5831C20.5395 37.7705 20.0876 37.8605 19.633 37.8464ZM19.6921 31.5448C19.4426 31.54 19.196 31.5992 18.9757 31.7166C18.7555 31.834 18.569 32.0058 18.4338 32.2156C18.0985 32.7402 17.9346 33.356 17.9646 33.9778C17.9317 34.6011 18.0959 35.2189 18.4338 35.7435C18.5666 35.9461 18.7483 36.1118 18.9622 36.2255C19.1761 36.3391 19.4152 36.3969 19.6573 36.3935C19.9011 36.4007 20.1428 36.3466 20.3602 36.236C20.5776 36.1255 20.7638 35.9621 20.9017 35.7609C21.2327 35.2439 21.3931 34.6361 21.3605 34.023C21.4037 33.3848 21.2522 32.7485 20.926 32.1982C20.7942 31.9921 20.6112 31.8236 20.395 31.7091C20.1788 31.5946 19.9367 31.538 19.6921 31.5448Z" fill="#FEBE10"/>
<path d="M27.5577 31.59H25.1942V33.4322H27.3665V34.8225H25.1942V37.7074H23.6787V30.217H27.5577V31.59Z" fill="#FEBE10"/>
<path d="M32.1529 31.59H29.7893V33.4322H31.9617V34.8225H29.7893V37.7074H28.2773V30.217H32.1529V31.59Z" fill="#FEBE10"/>
<path d="M36.9149 37.7074H32.876V30.217H36.7411V31.6074H34.388V33.2757H36.5673V34.6661H34.3775V36.3518H36.8905L36.9149 37.7074Z" fill="#FEBE10"/>
<path d="M43.2128 37.7074H41.4749L40.4322 35.7783C40.3557 35.6289 40.2758 35.4968 40.2097 35.3856C40.1443 35.2817 40.0711 35.1829 39.9908 35.0901C39.9239 35.0248 39.8478 34.9697 39.7648 34.9267C39.6859 34.8803 39.5957 34.8563 39.5041 34.8572H39.0975V37.7074H37.582V30.217H39.9838C41.607 30.217 42.4169 30.9122 42.4169 32.2608C42.4194 32.5046 42.3842 32.7473 42.3126 32.9803C42.2429 33.1938 42.1409 33.3955 42.0102 33.5781C41.8769 33.7576 41.7148 33.9138 41.5305 34.0404C41.3406 34.1704 41.1336 34.2734 40.9153 34.3463C41.0205 34.3856 41.1172 34.4446 41.2003 34.5201C41.2981 34.6029 41.3877 34.6948 41.468 34.7947C41.5594 34.9054 41.6441 35.0214 41.7217 35.1423C41.8017 35.2639 41.8781 35.3786 41.9407 35.4898L43.2128 37.7074ZM39.1044 31.4857V33.5712H39.7579C39.9028 33.5763 40.0472 33.5511 40.1819 33.4973C40.3166 33.4434 40.4385 33.362 40.5399 33.2584C40.7393 33.0436 40.8455 32.7587 40.8354 32.4659C40.8354 31.8159 40.4878 31.4857 39.7926 31.4857H39.1044Z" fill="#FEBE10"/>
<path d="M19.633 37.8464C19.1884 37.8621 18.7461 37.7764 18.3396 37.5957C17.9331 37.415 17.5731 37.1442 17.2868 36.8037C16.6564 36.0343 16.3343 35.0582 16.3831 34.0647C16.332 33.0267 16.6593 32.0053 17.3042 31.1902C17.5987 30.8334 17.9712 30.5491 18.3931 30.3592C18.815 30.1694 19.2749 30.0791 19.7373 30.0954C20.1782 30.0803 20.6168 30.1665 21.0192 30.3472C21.4217 30.528 21.7774 30.7985 22.0591 31.1381C22.6798 31.928 22.9945 32.9154 22.9454 33.9188C22.9961 34.9483 22.6685 35.9607 22.0243 36.7654C21.7346 37.1161 21.3684 37.3957 20.954 37.5831C20.5395 37.7705 20.0876 37.8605 19.633 37.8464ZM19.6921 31.5448C19.4426 31.54 19.196 31.5992 18.9757 31.7166C18.7555 31.834 18.569 32.0058 18.4338 32.2156C18.0985 32.7402 17.9346 33.356 17.9646 33.9778C17.9317 34.6011 18.0959 35.2189 18.4338 35.7435C18.5666 35.9461 18.7483 36.1118 18.9622 36.2255C19.1761 36.3391 19.4152 36.3969 19.6573 36.3935C19.9011 36.4007 20.1428 36.3466 20.3602 36.236C20.5776 36.1255 20.7638 35.9621 20.9017 35.7609C21.2327 35.2439 21.3931 34.6361 21.3605 34.023C21.4037 33.3848 21.2522 32.7485 20.926 32.1982C20.7942 31.9921 20.6112 31.8236 20.395 31.7091C20.1788 31.5946 19.9367 31.538 19.6921 31.5448Z" fill="#FEBE10"/>
<path d="M27.5577 31.59H25.1942V33.4322H27.3665V34.8225H25.1942V37.7074H23.6787V30.217H27.5577V31.59Z" fill="#FEBE10"/>
<path d="M32.1529 31.59H29.7893V33.4322H31.9617V34.8225H29.7893V37.7074H28.2773V30.217H32.1529V31.59Z" fill="#FEBE10"/>
<path d="M36.9149 37.7074H32.876V30.217H36.7411V31.6074H34.388V33.2757H36.5673V34.6661H34.3775V36.3518H36.8905L36.9149 37.7074Z" fill="#FEBE10"/>
<path d="M43.2128 37.7074H41.4749L40.4322 35.7783C40.3557 35.6289 40.2758 35.4968 40.2097 35.3856C40.1443 35.2817 40.0711 35.1829 39.9908 35.0901C39.9239 35.0248 39.8478 34.9697 39.7648 34.9267C39.6859 34.8803 39.5957 34.8563 39.5041 34.8572H39.0975V37.7074H37.582V30.217H39.9838C41.607 30.217 42.4169 30.9122 42.4169 32.2608C42.4194 32.5046 42.3842 32.7473 42.3126 32.9803C42.2429 33.1938 42.1409 33.3955 42.0102 33.5781C41.8769 33.7576 41.7148 33.9138 41.5305 34.0404C41.3406 34.1704 41.1336 34.2734 40.9153 34.3463C41.0205 34.3856 41.1172 34.4446 41.2003 34.5201C41.2981 34.6029 41.3877 34.6948 41.468 34.7947C41.5594 34.9054 41.6441 35.0214 41.7217 35.1423C41.8017 35.2639 41.8781 35.3786 41.9407 35.4898L43.2128 37.7074ZM39.1044 31.4857V33.5712H39.7579C39.9028 33.5763 40.0472 33.5511 40.1819 33.4973C40.3166 33.4434 40.4385 33.362 40.5399 33.2584C40.7393 33.0436 40.8455 32.7587 40.8354 32.4659C40.8354 31.8159 40.4878 31.4857 39.7926 31.4857H39.1044Z" fill="#FEBE10"/>
<path d="M19.633 37.8464C19.1884 37.8621 18.7461 37.7764 18.3396 37.5957C17.9331 37.415 17.5731 37.1442 17.2868 36.8037C16.6564 36.0343 16.3343 35.0582 16.3831 34.0647C16.332 33.0267 16.6593 32.0053 17.3042 31.1902C17.5987 30.8334 17.9712 30.5491 18.3931 30.3592C18.815 30.1694 19.2749 30.0791 19.7373 30.0954C20.1782 30.0803 20.6168 30.1665 21.0192 30.3472C21.4217 30.528 21.7774 30.7985 22.0591 31.1381C22.6798 31.928 22.9945 32.9154 22.9454 33.9188C22.9961 34.9483 22.6685 35.9607 22.0243 36.7654C21.7346 37.1161 21.3684 37.3957 20.954 37.5831C20.5395 37.7705 20.0876 37.8605 19.633 37.8464ZM19.6921 31.5448C19.4426 31.54 19.196 31.5992 18.9757 31.7166C18.7555 31.834 18.569 32.0058 18.4338 32.2156C18.0985 32.7402 17.9346 33.356 17.9646 33.9778C17.9317 34.6011 18.0959 35.2189 18.4338 35.7435C18.5666 35.9461 18.7483 36.1118 18.9622 36.2255C19.1761 36.3391 19.4152 36.3969 19.6573 36.3935C19.9011 36.4007 20.1428 36.3466 20.3602 36.236C20.5776 36.1255 20.7638 35.9621 20.9017 35.7609C21.2327 35.2439 21.3931 34.6361 21.3605 34.023C21.4037 33.3848 21.2522 32.7485 20.926 32.1982C20.7942 31.9921 20.6112 31.8236 20.395 31.7091C20.1788 31.5946 19.9367 31.538 19.6921 31.5448Z" fill="#FEBE10"/>
<path d="M27.5577 31.59H25.1942V33.4322H27.3665V34.8225H25.1942V37.7074H23.6787V30.217H27.5577V31.59Z" fill="#FEBE10"/>
<path d="M32.1529 31.59H29.7893V33.4322H31.9617V34.8225H29.7893V37.7074H28.2773V30.217H32.1529V31.59Z" fill="#FEBE10"/>
<path d="M36.9149 37.7074H32.876V30.217H36.7411V31.6074H34.388V33.2757H36.5673V34.6661H34.3775V36.3518H36.8905L36.9149 37.7074Z" fill="#FEBE10"/>
<path d="M43.2128 37.7074H41.4749L40.4322 35.7783C40.3557 35.6289 40.2758 35.4968 40.2097 35.3856C40.1443 35.2817 40.0711 35.1829 39.9908 35.0901C39.9239 35.0248 39.8478 34.9697 39.7648 34.9267C39.6859 34.8803 39.5957 34.8563 39.5041 34.8572H39.0975V37.7074H37.582V30.217H39.9838C41.607 30.217 42.4169 30.9122 42.4169 32.2608C42.4194 32.5046 42.3842 32.7473 42.3126 32.9803C42.2429 33.1938 42.1409 33.3955 42.0102 33.5781C41.8769 33.7576 41.7148 33.9138 41.5305 34.0404C41.3406 34.1704 41.1336 34.2734 40.9153 34.3463C41.0205 34.3856 41.1172 34.4446 41.2003 34.5201C41.2981 34.6029 41.3877 34.6948 41.468 34.7947C41.5594 34.9054 41.6441 35.0214 41.7217 35.1423C41.8017 35.2639 41.8781 35.3786 41.9407 35.4898L43.2128 37.7074ZM39.1044 31.4857V33.5712H39.7579C39.9028 33.5763 40.0472 33.5511 40.1819 33.4973C40.3166 33.4434 40.4385 33.362 40.5399 33.2584C40.7393 33.0436 40.8455 32.7587 40.8354 32.4659C40.8354 31.8159 40.4878 31.4857 39.7926 31.4857H39.1044Z" fill="#FEBE10"/>
<path d="M16.8242 27.5929V26.7865C16.9104 26.8708 17.0074 26.9433 17.1127 27.002C17.2214 27.0705 17.3382 27.1253 17.4603 27.1653C17.583 27.2093 17.7084 27.2452 17.8357 27.2731C17.9501 27.2959 18.0665 27.3075 18.1833 27.3079C18.4761 27.3295 18.7671 27.2456 19.0035 27.0715C19.0959 26.9857 19.1679 26.8802 19.2142 26.763C19.2605 26.6457 19.28 26.5195 19.2712 26.3937C19.2761 26.2497 19.2463 26.1067 19.1843 25.9766C19.1247 25.8533 19.0394 25.7443 18.934 25.6568C18.8179 25.5515 18.6923 25.4573 18.5586 25.3753C18.4127 25.2884 18.2562 25.1946 18.0894 25.1007L17.5958 24.7879C17.4485 24.6893 17.3142 24.5725 17.1961 24.4403C17.083 24.311 16.9915 24.1643 16.925 24.0058C16.856 23.8228 16.8241 23.6278 16.8312 23.4323C16.826 23.1925 16.8759 22.9547 16.9772 22.7372C17.0723 22.5471 17.2089 22.3808 17.3769 22.2506C17.5457 22.1193 17.738 22.0213 17.9434 21.9621C18.1524 21.9012 18.3688 21.8697 18.5864 21.8682C18.9632 21.8437 19.34 21.9155 19.6813 22.0768V22.8484C19.3515 22.6018 18.9456 22.4788 18.5343 22.5008C18.4022 22.5021 18.2705 22.5173 18.1415 22.546C18.0169 22.5739 17.8988 22.6259 17.794 22.6989C17.6918 22.7722 17.6084 22.8687 17.5507 22.9805C17.4856 23.1 17.4509 23.2337 17.4499 23.3698C17.4488 23.5035 17.4712 23.6365 17.5159 23.7625C17.5701 23.8737 17.6443 23.9738 17.7349 24.058C17.843 24.1548 17.9593 24.242 18.0825 24.3187C18.2215 24.4056 18.3779 24.4925 18.5517 24.5933C18.7291 24.7001 18.9008 24.8161 19.0661 24.9408C19.2239 25.0487 19.3666 25.1773 19.4902 25.3232C19.6104 25.4609 19.71 25.6155 19.7856 25.782C19.8587 25.9678 19.8941 26.1663 19.8899 26.3659C19.8962 26.6197 19.8451 26.8715 19.7404 27.1028C19.6543 27.2975 19.5175 27.4656 19.3442 27.5894C19.1733 27.7169 18.9781 27.808 18.7707 27.857C18.5434 27.9148 18.31 27.9451 18.0755 27.9474C17.982 27.9398 17.8891 27.9258 17.7974 27.9057C17.6801 27.8906 17.564 27.8674 17.4499 27.8362C17.3318 27.8091 17.2157 27.7743 17.1023 27.7319C17.0033 27.6994 16.9096 27.6526 16.8242 27.5929Z" fill="white"/>
<path d="M21.4993 25.6117V27.8293H20.9258V21.9517H22.3161C22.544 21.9406 22.7718 21.9758 22.9857 22.0552C23.1996 22.1347 23.3951 22.2568 23.5604 22.414C23.7157 22.5905 23.8346 22.7958 23.9103 23.0183C23.9861 23.2407 24.0172 23.476 24.0019 23.7105C24.0233 24.2119 23.8459 24.7016 23.5083 25.073C23.3359 25.2515 23.1273 25.391 22.8964 25.4821C22.6656 25.5733 22.418 25.6139 22.1701 25.6013H21.4993V25.6117ZM21.4993 22.5808V24.9861H22.1249C22.2948 24.9981 22.4653 24.976 22.6265 24.9211C22.7877 24.8662 22.9362 24.7796 23.0634 24.6663C23.1769 24.5427 23.2641 24.3974 23.3197 24.239C23.3753 24.0807 23.398 23.9127 23.3866 23.7452C23.3866 22.9701 22.9869 22.5808 22.1944 22.5808H21.4993Z" fill="white"/>
<path d="M27.6335 27.8292H24.9502V21.9517H27.5292V22.5808H25.548V24.5342H27.3728V25.1529H25.5411V27.2105H27.6266V27.8292H27.6335Z" fill="white"/>
<path d="M32.048 27.5859C31.6241 27.8243 31.1439 27.9443 30.6577 27.9335C30.3246 27.9457 29.9934 27.8786 29.6913 27.7378C29.3892 27.597 29.1248 27.3865 28.9198 27.1237C28.4614 26.5148 28.2302 25.7648 28.2664 25.0034C28.2288 24.1816 28.4879 23.3736 28.9963 22.7268C29.2177 22.4494 29.4999 22.2268 29.8212 22.0761C30.1425 21.9254 30.4941 21.8507 30.8489 21.8578C31.259 21.841 31.6671 21.9246 32.0376 22.1011V22.831C31.6808 22.5998 31.2637 22.4789 30.8385 22.4835C30.5658 22.4767 30.2953 22.5342 30.0489 22.6513C29.8025 22.7685 29.5872 22.942 29.4203 23.1578C29.0369 23.6795 28.8476 24.3188 28.8851 24.9652C28.851 25.5773 29.029 26.1825 29.3891 26.6788C29.5442 26.8823 29.7455 27.0462 29.9763 27.1568C30.2071 27.2673 30.4609 27.3215 30.7168 27.3148C31.1897 27.3304 31.6555 27.1966 32.048 26.9325V27.6033V27.5859Z" fill="white"/>
<path d="M34.1757 21.9517V22.546H33.6821V27.2384H34.1757V27.8292H32.5977V27.2384H33.0912V22.546H32.5977V21.9517H34.1757Z" fill="white"/>
<path d="M38.93 27.8292H38.2696L37.7308 26.1852H35.5828L35.0823 27.8292H34.4219L36.3579 21.9517H36.9766L38.93 27.8292ZM37.5397 25.57L36.7507 23.0674C36.7146 22.9386 36.6879 22.8073 36.6707 22.6746C36.6464 22.838 36.6186 22.9701 36.5942 23.0674L35.8018 25.57H37.5397Z" fill="white"/>
<path d="M42.3022 27.8292H39.6953V21.9517H40.2862V27.2001H42.3022V27.8292Z" fill="white"/>
<path d="M29.5355 14.2632L30.0951 15.1843L31.1448 15.4276L30.4323 16.2374L30.5296 17.3115L29.5355 16.8874L28.5484 17.3115L28.6422 16.2374L27.9297 15.4276L28.9829 15.1843L29.5355 14.2632Z" fill="#FEBE10"/>
<path d="M23.5256 15.7854L24.0818 16.7134L25.1314 16.9567L24.4189 17.7666L24.5232 18.8441L23.5256 18.4166L22.535 18.8441L22.6289 17.7666L21.9268 16.9567L22.9764 16.7134L23.5256 15.7854Z" fill="#FEBE10"/>
<path d="M35.5517 15.7854L36.1078 16.7134L37.1575 16.9567L36.445 17.7666L36.5423 18.8441L35.5517 18.4166L34.5611 18.8441L34.6549 17.7666L33.9424 16.9567L34.9956 16.7134L35.5517 15.7854Z" fill="#FEBE10"/>
<path d="M29.5355 42.2363L30.0951 43.1644L31.1448 43.4007L30.4323 44.2141L30.5296 45.2846L29.5355 44.8675L28.5484 45.2846L28.6422 44.2141L27.9297 43.4007L28.9898 43.1644L29.5355 42.2363Z" fill="#FEBE10"/>
<path d="M35.5517 43.7623L34.9956 42.8342L33.9424 42.6013L34.6549 41.7811L34.5611 40.707L35.5517 41.1311L36.5423 40.707L36.445 41.7811L37.1575 42.6013L36.0974 42.8342L35.5517 43.7623Z" fill="#FEBE10"/>
<path d="M23.5256 43.7623L22.9764 42.8342L21.9268 42.6013L22.6289 41.7811L22.535 40.707L23.5256 41.1311L24.5232 40.707L24.4189 41.7811L25.1314 42.6013L24.0818 42.8342L23.5256 43.7623Z" fill="#FEBE10"/>
</svg>
