<svg width="39" height="44" viewBox="0 0 39 44" fill="none" xmlns="http://www.w3.org/2000/svg">
<path d="M18.7865 1.61692L12.5 10.615L12.9758 10.9474L19.2623 1.94936L18.7865 1.61692Z" fill="#001B62"/>
<path d="M19.8514 1.58476L19.4229 1.97632L28.1215 11.4958L28.55 11.1043L19.8514 1.58476Z" fill="#001B62"/>
<path d="M20.609 1.52178C20.609 1.7866 20.5304 2.04546 20.3832 2.2656C20.236 2.48573 20.0268 2.65725 19.7821 2.75843C19.5374 2.85961 19.2681 2.88591 19.0085 2.83399C18.7488 2.78207 18.5103 2.65428 18.3233 2.46678C18.1363 2.27929 18.0091 2.04052 17.9579 1.78071C17.9067 1.5209 17.9337 1.25173 18.0355 1.00727C18.1373 0.762809 18.3094 0.554054 18.5299 0.407431C18.7504 0.260808 19.0095 0.18291 19.2743 0.183598C19.4498 0.183598 19.6237 0.218235 19.7859 0.285528C19.948 0.35282 20.0953 0.451445 20.2193 0.575753C20.3433 0.70006 20.4415 0.847609 20.5084 1.00994C20.5753 1.17228 20.6094 1.34621 20.609 1.52178Z" fill="#001B62"/>
<path d="M19.2738 0.784628C19.421 0.781171 19.566 0.821725 19.6901 0.9011C19.8142 0.980475 19.9117 1.09506 19.9704 1.23021C20.029 1.36535 20.0459 1.51491 20.0191 1.65975C19.9922 1.80458 19.9228 1.93812 19.8196 2.04326C19.7164 2.14841 19.5842 2.22039 19.4399 2.25C19.2956 2.27961 19.1458 2.2655 19.0096 2.20948C18.8733 2.15346 18.7569 2.05806 18.6752 1.93551C18.5934 1.81295 18.5501 1.6688 18.5508 1.5215C18.5508 1.32845 18.6265 1.1431 18.7617 1.00531C18.8969 0.867509 19.0807 0.78827 19.2738 0.784628Z" fill="#FABD00"/>
<path d="M5.80552 38.4177C4.56897 38.4243 3.37958 37.9436 2.49485 37.0797C1.61013 36.2158 1.10126 35.0382 1.07843 33.8018L0.616148 15.4705C0.598564 14.8484 0.703786 14.229 0.925797 13.6477C1.14781 13.0664 1.48225 12.5345 1.91 12.0826C2.33774 11.6306 2.85039 11.2674 3.41863 11.0138C3.98686 10.7601 4.59953 10.621 5.22158 10.6043L33.2643 9.90917C33.8857 9.89021 34.5046 9.99462 35.0854 10.2164C35.6661 10.4381 36.1972 10.7728 36.6477 11.2011C37.0983 11.6294 37.4595 12.1427 37.7104 12.7115C37.9614 13.2802 38.097 13.8931 38.1096 14.5146L38.5719 32.8494C38.6018 34.1043 38.1325 35.3196 37.267 36.2287C36.4016 37.1378 35.2108 37.6663 33.956 37.6982L5.92369 38.4177H5.80552ZM33.3825 10.4966H33.2782L5.23896 11.1917C4.6939 11.2062 4.15703 11.3278 3.65901 11.5498C3.161 11.7718 2.71161 12.0898 2.33652 12.4855C1.96144 12.8812 1.66802 13.347 1.47302 13.8562C1.27802 14.3654 1.18528 14.908 1.20008 15.4531L1.65889 33.7844C1.69218 34.864 2.14295 35.8886 2.91634 36.6425C3.68974 37.3965 4.72545 37.821 5.80552 37.8268H5.90632L33.9491 37.1143C34.4938 37.1017 35.0307 36.9815 35.5288 36.7608C36.027 36.5401 36.4766 36.2232 36.8519 35.8282C37.2272 35.4332 37.5208 34.9679 37.7157 34.4591C37.9107 33.9503 38.0032 33.408 37.9879 32.8634L37.5291 14.5285C37.5046 13.447 37.0562 12.4184 36.2806 11.6643C35.505 10.9102 34.4643 10.4908 33.3825 10.4966Z" fill="#001B62"/>
<path d="M31.4289 9.81167L4.88077 12.7765C3.77106 12.9048 2.75748 13.4678 2.06226 14.3422C1.36705 15.2166 1.04693 16.331 1.17209 17.4411L3.10811 34.7957C3.16949 35.3471 3.33898 35.8809 3.60689 36.3667C3.87481 36.8525 4.23588 37.2807 4.66945 37.6267C5.10302 37.9728 5.60058 38.23 6.13366 38.3836C6.66674 38.5372 7.22487 38.5841 7.77611 38.5218L34.3243 35.5569C34.8755 35.496 35.4092 35.3269 35.895 35.0593C36.3808 34.7918 36.809 34.431 37.1551 33.9977C37.5012 33.5644 37.7584 33.0671 37.9121 32.5343C38.0657 32.0014 38.1127 31.4435 38.0503 30.8924L36.1143 13.5377C36.053 12.9847 35.883 12.4493 35.6139 11.9623C35.3449 11.4753 34.9822 11.0463 34.5468 10.7C34.1113 10.3537 33.6116 10.0969 33.0766 9.94445C32.5415 9.792 31.9815 9.74688 31.4289 9.81167Z" fill="#FABD00"/>
<path d="M9.86194 34.4478C9.37807 34.5166 8.8849 34.4748 8.41952 34.3255C7.95415 34.1762 7.52869 33.9233 7.17515 33.5858C6.39561 32.8261 5.92509 31.8045 5.85435 30.7183C5.66939 29.5925 5.8991 28.4378 6.50084 27.4684C6.77825 27.0413 7.15069 26.6841 7.58906 26.4249C8.02742 26.1656 8.51982 26.0112 9.02775 25.9738C9.50703 25.9064 9.99538 25.9486 10.456 26.0973C10.9166 26.246 11.3374 26.4974 11.6867 26.8324C12.4596 27.6176 12.9225 28.6558 12.9902 29.7555C13.1696 30.8732 12.9375 32.0181 12.3367 32.9776C12.0625 33.3941 11.6973 33.7429 11.2686 33.9976C10.8399 34.2523 10.3589 34.4062 9.86194 34.4478ZM9.16678 27.5623C8.89348 27.5856 8.63075 27.6788 8.40375 27.8327C8.17675 27.9867 7.99307 28.1964 7.87031 28.4417C7.56906 29.0555 7.46583 29.7478 7.57487 30.4229C7.61276 31.1068 7.86579 31.7613 8.29783 32.2928C8.47273 32.493 8.69327 32.648 8.94077 32.7448C9.18828 32.8416 9.45547 32.8774 9.71973 32.8491C9.98399 32.8208 10.2375 32.7293 10.4589 32.5822C10.6803 32.4352 10.863 32.237 10.9916 32.0044C11.2895 31.3956 11.3891 30.7088 11.2766 30.0405C11.2406 29.3429 10.9987 28.6717 10.5814 28.1115C10.4127 27.9061 10.1939 27.7477 9.94608 27.6515C9.69829 27.5553 9.4299 27.5246 9.16678 27.5623Z" fill="white"/>
<path d="M17.7348 26.6622L15.1557 26.9473L15.3782 28.9563L17.7522 28.6921L17.9155 30.1902L15.545 30.4474L15.8926 33.6312L14.2416 33.812L13.3379 25.6265L17.5714 25.1572L17.7348 26.6622Z" fill="white"/>
<path d="M22.7462 26.0956L20.1671 26.3841L20.3931 28.3896L22.7636 28.1289L22.9304 29.6235L20.5564 29.8842L20.904 33.0646L19.253 33.2453L18.3389 25.0598L22.5724 24.5906L22.7462 26.0956Z" fill="white"/>
<path d="M28.6727 32.2026L24.2862 32.6822L23.3721 24.4932L27.5882 24.0344L27.7551 25.5394L25.183 25.8245L25.3846 27.6423L27.7724 27.3747L27.9358 28.8588L25.5479 29.1265L25.7565 30.993L28.4919 30.6906L28.6727 32.2026Z" fill="white"/>
<path d="M35.5826 31.4308L33.6882 31.6394L32.3153 29.6582C32.211 29.5122 32.1172 29.3731 32.0199 29.2584C31.9373 29.1531 31.8466 29.0543 31.7487 28.963C31.6712 28.8889 31.5804 28.8299 31.4811 28.7892C31.3903 28.7544 31.2932 28.739 31.1961 28.744L30.7512 28.7996L31.0988 31.9279L29.4478 32.1086L28.5371 23.9231L31.1509 23.6276C32.9236 23.4284 33.8945 24.0714 34.0636 25.5567C34.0969 25.823 34.0875 26.0928 34.0358 26.3562C33.9876 26.6006 33.8995 26.8354 33.7751 27.0513C33.6526 27.2608 33.4964 27.4487 33.3129 27.6074C33.1205 27.775 32.9036 27.9121 32.6698 28.0141V28.0419C32.7934 28.0697 32.9111 28.1191 33.0174 28.1879C33.1341 28.2686 33.2445 28.358 33.3476 28.4555C33.4519 28.5598 33.5562 28.6745 33.6604 28.8031C33.7647 28.9317 33.8516 29.0464 33.9385 29.1507L35.5826 31.4308ZM30.3341 25.1292L30.5878 27.4093L31.283 27.3294C31.4425 27.3183 31.5979 27.2739 31.7392 27.1991C31.8805 27.1243 32.0045 27.0206 32.1033 26.8949C32.1978 26.7676 32.2662 26.6227 32.3043 26.4688C32.3425 26.3149 32.3498 26.1549 32.3257 25.9981C32.2493 25.303 31.8217 24.9554 31.0605 25.0527L30.3341 25.1292Z" fill="white"/>
<path d="M9.86194 34.4478C9.37807 34.5166 8.8849 34.4748 8.41952 34.3255C7.95415 34.1762 7.52869 33.9233 7.17515 33.5858C6.39561 32.8261 5.92509 31.8045 5.85435 30.7183C5.66939 29.5925 5.8991 28.4378 6.50084 27.4684C6.77825 27.0413 7.15069 26.6841 7.58906 26.4249C8.02742 26.1656 8.51982 26.0112 9.02775 25.9738C9.50703 25.9064 9.99538 25.9486 10.456 26.0973C10.9166 26.246 11.3374 26.4974 11.6867 26.8324C12.4596 27.6176 12.9225 28.6558 12.9902 29.7555C13.1696 30.8732 12.9375 32.0181 12.3367 32.9776C12.0625 33.3941 11.6973 33.7429 11.2686 33.9976C10.8399 34.2523 10.3589 34.4062 9.86194 34.4478ZM9.16678 27.5623C8.89348 27.5856 8.63075 27.6788 8.40375 27.8327C8.17675 27.9867 7.99307 28.1964 7.87031 28.4417C7.56906 29.0555 7.46583 29.7478 7.57487 30.4229C7.61276 31.1068 7.86579 31.7613 8.29783 32.2928C8.47273 32.493 8.69327 32.648 8.94077 32.7448C9.18828 32.8416 9.45547 32.8774 9.71973 32.8491C9.98399 32.8208 10.2375 32.7293 10.4589 32.5822C10.6803 32.4352 10.863 32.237 10.9916 32.0044C11.2895 31.3956 11.3891 30.7088 11.2766 30.0405C11.2406 29.3429 10.9987 28.6717 10.5814 28.1115C10.4127 27.9061 10.1939 27.7477 9.94608 27.6515C9.69829 27.5553 9.4299 27.5246 9.16678 27.5623Z" fill="#001B62"/>
<path d="M17.7348 26.6622L15.1557 26.9473L15.3782 28.9563L17.7522 28.6921L17.9155 30.1902L15.545 30.4474L15.8926 33.6312L14.2416 33.812L13.3379 25.6265L17.5714 25.1572L17.7348 26.6622Z" fill="#001B62"/>
<path d="M22.7462 26.0956L20.1671 26.3841L20.3931 28.3896L22.7636 28.1289L22.9304 29.6235L20.5564 29.8842L20.904 33.0646L19.253 33.2453L18.3389 25.0598L22.5724 24.5906L22.7462 26.0956Z" fill="#001B62"/>
<path d="M28.6727 32.2026L24.2862 32.6822L23.3721 24.4932L27.5882 24.0344L27.7551 25.5394L25.183 25.8245L25.3846 27.6423L27.7724 27.3747L27.9358 28.8588L25.5479 29.1265L25.7565 30.993L28.4919 30.6906L28.6727 32.2026Z" fill="#001B62"/>
<path d="M35.5826 31.4308L33.6882 31.6394L32.3153 29.6582C32.211 29.5122 32.1172 29.3731 32.0199 29.2584C31.9373 29.1531 31.8466 29.0543 31.7487 28.963C31.6712 28.8889 31.5804 28.8299 31.4811 28.7892C31.3903 28.7544 31.2932 28.739 31.1961 28.744L30.7512 28.7996L31.0988 31.9279L29.4478 32.1086L28.5371 23.9231L31.1509 23.6276C32.9236 23.4284 33.8945 24.0714 34.0636 25.5567C34.0969 25.823 34.0875 26.0928 34.0358 26.3562C33.9876 26.6006 33.8995 26.8354 33.7751 27.0513C33.6526 27.2608 33.4964 27.4487 33.3129 27.6074C33.1205 27.775 32.9036 27.9121 32.6698 28.0141V28.0419C32.7934 28.0697 32.9111 28.1191 33.0174 28.1879C33.1341 28.2686 33.2445 28.358 33.3476 28.4555C33.4519 28.5598 33.5562 28.6745 33.6604 28.8031C33.7647 28.9317 33.8516 29.0464 33.9385 29.1507L35.5826 31.4308ZM30.3341 25.1292L30.5878 27.4093L31.283 27.3294C31.4425 27.3183 31.5979 27.2739 31.7392 27.1991C31.8805 27.1243 32.0045 27.0206 32.1033 26.8949C32.1978 26.7676 32.2662 26.6227 32.3043 26.4688C32.3425 26.3149 32.3498 26.1549 32.3257 25.9981C32.2493 25.303 31.8217 24.9554 31.0605 25.0527L30.3341 25.1292Z" fill="#001B62"/>
<path d="M9.86194 34.4478C9.37807 34.5166 8.8849 34.4748 8.41952 34.3255C7.95415 34.1762 7.52869 33.9233 7.17515 33.5858C6.39561 32.8261 5.92509 31.8045 5.85435 30.7183C5.66939 29.5925 5.8991 28.4378 6.50084 27.4684C6.77825 27.0413 7.15069 26.6841 7.58906 26.4249C8.02742 26.1656 8.51982 26.0112 9.02775 25.9738C9.50703 25.9064 9.99538 25.9486 10.456 26.0973C10.9166 26.246 11.3374 26.4974 11.6867 26.8324C12.4596 27.6176 12.9225 28.6558 12.9902 29.7555C13.1696 30.8732 12.9375 32.0181 12.3367 32.9776C12.0625 33.3941 11.6973 33.7429 11.2686 33.9976C10.8399 34.2523 10.3589 34.4062 9.86194 34.4478ZM9.16678 27.5623C8.89348 27.5856 8.63075 27.6788 8.40375 27.8327C8.17675 27.9867 7.99307 28.1964 7.87031 28.4417C7.56906 29.0555 7.46583 29.7478 7.57487 30.4229C7.61276 31.1068 7.86579 31.7613 8.29783 32.2928C8.47273 32.493 8.69327 32.648 8.94077 32.7448C9.18828 32.8416 9.45547 32.8774 9.71973 32.8491C9.98399 32.8208 10.2375 32.7293 10.4589 32.5822C10.6803 32.4352 10.863 32.237 10.9916 32.0044C11.2895 31.3956 11.3891 30.7088 11.2766 30.0405C11.2406 29.3429 10.9987 28.6717 10.5814 28.1115C10.4127 27.9061 10.1939 27.7477 9.94608 27.6515C9.69829 27.5553 9.4299 27.5246 9.16678 27.5623Z" fill="#001B62"/>
<path d="M17.7348 26.6622L15.1557 26.9473L15.3782 28.9563L17.7522 28.6921L17.9155 30.1902L15.545 30.4474L15.8926 33.6312L14.2416 33.812L13.3379 25.6265L17.5714 25.1572L17.7348 26.6622Z" fill="#001B62"/>
<path d="M22.7462 26.0956L20.1671 26.3841L20.3931 28.3896L22.7636 28.1289L22.9304 29.6235L20.5564 29.8842L20.904 33.0646L19.253 33.2453L18.3389 25.0598L22.5724 24.5906L22.7462 26.0956Z" fill="#001B62"/>
<path d="M28.6727 32.2026L24.2862 32.6822L23.3721 24.4932L27.5882 24.0344L27.7551 25.5394L25.183 25.8245L25.3846 27.6423L27.7724 27.3747L27.9358 28.8588L25.5479 29.1265L25.7565 30.993L28.4919 30.6906L28.6727 32.2026Z" fill="#001B62"/>
<path d="M35.5826 31.4308L33.6882 31.6394L32.3153 29.6582C32.211 29.5122 32.1172 29.3731 32.0199 29.2584C31.9373 29.1531 31.8466 29.0543 31.7487 28.963C31.6712 28.8889 31.5804 28.8299 31.4811 28.7892C31.3903 28.7544 31.2932 28.739 31.1961 28.744L30.7512 28.7996L31.0988 31.9279L29.4478 32.1086L28.5371 23.9231L31.1509 23.6276C32.9236 23.4284 33.8945 24.0714 34.0636 25.5567C34.0969 25.823 34.0875 26.0928 34.0358 26.3562C33.9876 26.6006 33.8995 26.8354 33.7751 27.0513C33.6526 27.2608 33.4964 27.4487 33.3129 27.6074C33.1205 27.775 32.9036 27.9121 32.6698 28.0141V28.0419C32.7934 28.0697 32.9111 28.1191 33.0174 28.1879C33.1341 28.2686 33.2445 28.358 33.3476 28.4555C33.4519 28.5598 33.5562 28.6745 33.6604 28.8031C33.7647 28.9317 33.8516 29.0464 33.9385 29.1507L35.5826 31.4308ZM30.3341 25.1292L30.5878 27.4093L31.283 27.3294C31.4425 27.3183 31.5979 27.2739 31.7392 27.1991C31.8805 27.1243 32.0045 27.0206 32.1033 26.8949C32.1978 26.7676 32.2662 26.6227 32.3043 26.4688C32.3425 26.3149 32.3498 26.1549 32.3257 25.9981C32.2493 25.303 31.8217 24.9554 31.0605 25.0527L30.3341 25.1292Z" fill="#001B62"/>
<path d="M9.86194 34.4478C9.37807 34.5166 8.8849 34.4748 8.41952 34.3255C7.95415 34.1762 7.52869 33.9233 7.17515 33.5858C6.39561 32.8261 5.92509 31.8045 5.85435 30.7183C5.66939 29.5925 5.8991 28.4378 6.50084 27.4684C6.77825 27.0413 7.15069 26.6841 7.58906 26.4249C8.02742 26.1656 8.51982 26.0112 9.02775 25.9738C9.50703 25.9064 9.99538 25.9486 10.456 26.0973C10.9166 26.246 11.3374 26.4974 11.6867 26.8324C12.4596 27.6176 12.9225 28.6558 12.9902 29.7555C13.1696 30.8732 12.9375 32.0181 12.3367 32.9776C12.0625 33.3941 11.6973 33.7429 11.2686 33.9976C10.8399 34.2523 10.3589 34.4062 9.86194 34.4478ZM9.16678 27.5623C8.89348 27.5856 8.63075 27.6788 8.40375 27.8327C8.17675 27.9867 7.99307 28.1964 7.87031 28.4417C7.56906 29.0555 7.46583 29.7478 7.57487 30.4229C7.61276 31.1068 7.86579 31.7613 8.29783 32.2928C8.47273 32.493 8.69327 32.648 8.94077 32.7448C9.18828 32.8416 9.45547 32.8774 9.71973 32.8491C9.98399 32.8208 10.2375 32.7293 10.4589 32.5822C10.6803 32.4352 10.863 32.237 10.9916 32.0044C11.2895 31.3956 11.3891 30.7088 11.2766 30.0405C11.2406 29.3429 10.9987 28.6717 10.5814 28.1115C10.4127 27.9061 10.1939 27.7477 9.94608 27.6515C9.69829 27.5553 9.4299 27.5246 9.16678 27.5623Z" fill="#001B62"/>
<path d="M17.7348 26.6622L15.1557 26.9473L15.3782 28.9563L17.7522 28.6921L17.9155 30.1902L15.545 30.4474L15.8926 33.6312L14.2416 33.812L13.3379 25.6265L17.5714 25.1572L17.7348 26.6622Z" fill="#001B62"/>
<path d="M22.7462 26.0956L20.1671 26.3841L20.3931 28.3896L22.7636 28.1289L22.9304 29.6235L20.5564 29.8842L20.904 33.0646L19.253 33.2453L18.3389 25.0598L22.5724 24.5906L22.7462 26.0956Z" fill="#001B62"/>
<path d="M28.6727 32.2026L24.2862 32.6822L23.3721 24.4932L27.5882 24.0344L27.7551 25.5394L25.183 25.8245L25.3846 27.6423L27.7724 27.3747L27.9358 28.8588L25.5479 29.1265L25.7565 30.993L28.4919 30.6906L28.6727 32.2026Z" fill="#001B62"/>
<path d="M35.5826 31.4308L33.6882 31.6394L32.3153 29.6582C32.211 29.5122 32.1172 29.3731 32.0199 29.2584C31.9373 29.1531 31.8466 29.0543 31.7487 28.963C31.6712 28.8889 31.5804 28.8299 31.4811 28.7892C31.3903 28.7544 31.2932 28.739 31.1961 28.744L30.7512 28.7996L31.0988 31.9279L29.4478 32.1086L28.5371 23.9231L31.1509 23.6276C32.9236 23.4284 33.8945 24.0714 34.0636 25.5567C34.0969 25.823 34.0875 26.0928 34.0358 26.3562C33.9876 26.6006 33.8995 26.8354 33.7751 27.0513C33.6526 27.2608 33.4964 27.4487 33.3129 27.6074C33.1205 27.775 32.9036 27.9121 32.6698 28.0141V28.0419C32.7934 28.0697 32.9111 28.1191 33.0174 28.1879C33.1341 28.2686 33.2445 28.358 33.3476 28.4555C33.4519 28.5598 33.5562 28.6745 33.6604 28.8031C33.7647 28.9317 33.8516 29.0464 33.9385 29.1507L35.5826 31.4308ZM30.3341 25.1292L30.5878 27.4093L31.283 27.3294C31.4425 27.3183 31.5979 27.2739 31.7392 27.1991C31.8805 27.1243 32.0045 27.0206 32.1033 26.8949C32.1978 26.7676 32.2662 26.6227 32.3043 26.4688C32.3425 26.3149 32.3498 26.1549 32.3257 25.9981C32.2493 25.303 31.8217 24.9554 31.0605 25.0527L30.3341 25.1292Z" fill="#001B62"/>
<path d="M5.45745 23.4954L5.36013 22.6021C5.46692 22.6848 5.5837 22.7537 5.70771 22.8072C5.83746 22.869 5.97392 22.9157 6.11437 22.9462C6.25082 22.9829 6.39051 23.0061 6.53147 23.0157C6.6587 23.0262 6.78658 23.0262 6.91381 23.0157C7.23383 23.0085 7.54025 22.8849 7.77581 22.6682C7.86569 22.5632 7.9308 22.4393 7.9663 22.3057C8.0018 22.1721 8.00678 22.0323 7.98088 21.8965C7.96901 21.7386 7.91891 21.5859 7.83489 21.4516C7.75003 21.3267 7.6442 21.2173 7.52207 21.1284C7.38243 21.0284 7.23479 20.94 7.08065 20.8642C6.91381 20.7878 6.73307 20.7009 6.53147 20.614C6.32987 20.5271 6.13175 20.4297 5.95796 20.3289C5.78319 20.2352 5.62185 20.1183 5.4783 19.9814C5.34356 19.8501 5.22669 19.7017 5.13072 19.5399C5.03707 19.3491 4.97822 19.1432 4.95693 18.9317C4.9191 18.6684 4.94655 18.3998 5.03688 18.1496C5.11548 17.9287 5.24393 17.7289 5.41226 17.5657C5.5811 17.4043 5.77775 17.2747 5.99272 17.1834C6.60138 16.9372 7.27593 16.9065 7.90441 17.0965L7.99826 17.9376C7.60933 17.7067 7.15224 17.6183 6.70526 17.6873C6.56386 17.707 6.42435 17.7384 6.28816 17.7812C6.15946 17.8266 6.04124 17.8976 5.94058 17.9897C5.83458 18.0838 5.75441 18.2035 5.70771 18.3373C5.64881 18.4839 5.63079 18.6436 5.65557 18.7996C5.6683 18.9467 5.71341 19.0891 5.78765 19.2167C5.85448 19.3353 5.9457 19.4383 6.05529 19.5191C6.18258 19.6143 6.31877 19.6969 6.46195 19.7659C6.61837 19.8423 6.80953 19.9188 7.01113 20.0057C7.21273 20.0926 7.4178 20.2003 7.61244 20.3046C7.79719 20.3977 7.96897 20.5145 8.12339 20.6522C8.26251 20.7939 8.37966 20.9555 8.47097 21.1319C8.57577 21.3231 8.6408 21.5335 8.66214 21.7506C8.70013 22.0246 8.67638 22.3037 8.59262 22.5674C8.51987 22.7903 8.39193 22.9911 8.22071 23.1513C8.04851 23.3049 7.84772 23.423 7.62982 23.4989C7.39376 23.5917 7.14562 23.6502 6.89295 23.6727C6.77732 23.6829 6.66101 23.6829 6.54537 23.6727C6.41677 23.6727 6.28469 23.6727 6.14566 23.6483C6.01437 23.6298 5.88435 23.6031 5.75637 23.5684C5.65253 23.5667 5.55039 23.5418 5.45745 23.4954Z" fill="white"/>
<path d="M10.3034 20.7708L10.5745 23.2038L9.93149 23.2734L9.23633 16.8709L10.7553 16.6971C11.0039 16.6516 11.2593 16.659 11.5049 16.7189C11.7504 16.7788 11.9806 16.8898 12.1803 17.0447C12.3731 17.2161 12.5296 17.4243 12.6406 17.6571C12.7517 17.8899 12.815 18.1426 12.8268 18.4003C12.9051 18.9471 12.7708 19.5032 12.4514 19.954C12.2864 20.1705 12.077 20.3492 11.8372 20.4781C11.5974 20.607 11.3328 20.6831 11.0611 20.7013L10.3034 20.7708ZM9.95582 17.4583L10.2513 20.0826L10.9464 20.0026C11.1335 19.9947 11.3171 19.949 11.4861 19.8684C11.6552 19.7878 11.8062 19.6738 11.9301 19.5334C12.0375 19.3843 12.1144 19.2154 12.1561 19.0364C12.1979 18.8574 12.2038 18.6719 12.1734 18.4907C12.0761 17.6495 11.5999 17.2741 10.7379 17.3714L9.95582 17.4583Z" fill="white"/>
<path d="M17.2755 22.4356L14.3454 22.7832L13.6328 16.3634L16.4413 16.0505L16.5177 16.7283L14.3627 16.9716L14.5956 19.0988L16.5872 18.8729L16.6672 19.568L14.6756 19.794L14.9258 22.0359L17.2059 21.7821L17.2755 22.4356Z" fill="white"/>
<path d="M22.0615 21.6294C21.6269 21.9454 21.1131 22.1343 20.5774 22.1751C20.2174 22.2274 19.8502 22.1942 19.5054 22.0783C19.1606 21.9624 18.848 21.7669 18.5927 21.5078C18.0196 20.8987 17.6789 20.1077 17.6299 19.2729C17.4873 18.3807 17.6725 17.467 18.1513 16.7008C18.3599 16.373 18.6405 16.0972 18.9717 15.8942C19.303 15.6912 19.6762 15.5664 20.063 15.5294C20.5089 15.4635 20.9642 15.5052 21.3907 15.6511L21.4776 16.4505C21.0593 16.2388 20.5873 16.1565 20.122 16.2141C19.8243 16.2406 19.5371 16.3372 19.2839 16.4961C19.0308 16.655 18.8189 16.8716 18.6657 17.1283C18.3116 17.7431 18.1791 18.4609 18.2903 19.1616C18.3293 19.8342 18.5994 20.4727 19.055 20.969C19.2495 21.1725 19.4896 21.3269 19.7555 21.4194C20.0214 21.5118 20.3055 21.5397 20.5843 21.5008C21.0991 21.4554 21.5861 21.2472 21.9746 20.9065L22.0615 21.6294Z" fill="white"/>
<path d="M23.6849 15.2336L23.7579 15.8767L23.2157 15.9392L23.7927 21.0556L24.328 20.9965L24.401 21.6395L22.6631 21.8307L22.5935 21.1842L23.1323 21.1251L22.5727 15.9983L22.027 16.0678L21.9609 15.4248L23.6849 15.2336Z" fill="white"/>
<path d="M29.5871 21.0662L28.8919 21.1427L28.1098 19.4048L25.7741 19.662L25.4265 21.5215L24.707 21.6015L26.0974 14.9627L26.7647 14.8862L29.5871 21.0662ZM27.797 18.7791L26.6257 16.1479C26.568 16.0124 26.5238 15.8715 26.4936 15.7274C26.4916 15.8733 26.4765 16.0187 26.4484 16.1618L25.8958 18.9877L27.797 18.7791Z" fill="white"/>
<path d="M33.2643 20.6558L30.3933 20.9791L29.6738 14.5732L30.3134 14.5037L30.9599 20.2283L33.174 19.978L33.2643 20.6558Z" fill="white"/>
<path d="M5.45745 23.4954L5.36013 22.6021C5.46692 22.6848 5.5837 22.7537 5.70771 22.8072C5.83746 22.869 5.97392 22.9157 6.11437 22.9462C6.25082 22.9829 6.39051 23.0061 6.53147 23.0157C6.6587 23.0262 6.78658 23.0262 6.91381 23.0157C7.23383 23.0085 7.54025 22.8849 7.77581 22.6682C7.86569 22.5632 7.9308 22.4393 7.9663 22.3057C8.0018 22.1721 8.00678 22.0323 7.98088 21.8965C7.96901 21.7386 7.91891 21.5859 7.83489 21.4516C7.75003 21.3267 7.6442 21.2173 7.52207 21.1284C7.38243 21.0284 7.23479 20.94 7.08065 20.8642C6.91381 20.7878 6.73307 20.7009 6.53147 20.614C6.32987 20.5271 6.13175 20.4297 5.95796 20.3289C5.78319 20.2352 5.62185 20.1183 5.4783 19.9814C5.34356 19.8501 5.22669 19.7017 5.13072 19.5399C5.03707 19.3491 4.97822 19.1432 4.95693 18.9317C4.9191 18.6684 4.94655 18.3998 5.03688 18.1496C5.11548 17.9287 5.24393 17.7289 5.41226 17.5657C5.5811 17.4043 5.77775 17.2747 5.99272 17.1834C6.60138 16.9372 7.27593 16.9065 7.90441 17.0965L7.99826 17.9376C7.60933 17.7067 7.15224 17.6183 6.70526 17.6873C6.56386 17.707 6.42435 17.7384 6.28816 17.7812C6.15946 17.8266 6.04124 17.8976 5.94058 17.9897C5.83458 18.0838 5.75441 18.2035 5.70771 18.3373C5.64881 18.4839 5.63079 18.6436 5.65557 18.7996C5.6683 18.9467 5.71341 19.0891 5.78765 19.2167C5.85448 19.3353 5.9457 19.4383 6.05529 19.5191C6.18258 19.6143 6.31877 19.6969 6.46195 19.7659C6.61837 19.8423 6.80953 19.9188 7.01113 20.0057C7.21273 20.0926 7.4178 20.2003 7.61244 20.3046C7.79719 20.3977 7.96897 20.5145 8.12339 20.6522C8.26251 20.7939 8.37966 20.9555 8.47097 21.1319C8.57577 21.3231 8.6408 21.5335 8.66214 21.7506C8.70013 22.0246 8.67638 22.3037 8.59262 22.5674C8.51987 22.7903 8.39193 22.9911 8.22071 23.1513C8.04851 23.3049 7.84772 23.423 7.62982 23.4989C7.39376 23.5917 7.14562 23.6502 6.89295 23.6727C6.77732 23.6829 6.66101 23.6829 6.54537 23.6727C6.41677 23.6727 6.28469 23.6727 6.14566 23.6483C6.01437 23.6298 5.88435 23.6031 5.75637 23.5684C5.65253 23.5667 5.55039 23.5418 5.45745 23.4954Z" fill="#001B62"/>
<path d="M10.3034 20.7708L10.5745 23.2038L9.93149 23.2734L9.23633 16.8709L10.7553 16.6971C11.0039 16.6516 11.2593 16.659 11.5049 16.7189C11.7504 16.7788 11.9806 16.8898 12.1803 17.0447C12.3731 17.2161 12.5296 17.4243 12.6406 17.6571C12.7517 17.8899 12.815 18.1426 12.8268 18.4003C12.9051 18.9471 12.7708 19.5032 12.4514 19.954C12.2864 20.1705 12.077 20.3492 11.8372 20.4781C11.5974 20.607 11.3328 20.6831 11.0611 20.7013L10.3034 20.7708ZM9.95582 17.4583L10.2513 20.0826L10.9464 20.0026C11.1335 19.9947 11.3171 19.949 11.4861 19.8684C11.6552 19.7878 11.8062 19.6738 11.9301 19.5334C12.0375 19.3843 12.1144 19.2154 12.1561 19.0364C12.1979 18.8574 12.2038 18.6719 12.1734 18.4907C12.0761 17.6495 11.5999 17.2741 10.7379 17.3714L9.95582 17.4583Z" fill="#001B62"/>
<path d="M17.2755 22.4356L14.3454 22.7832L13.6328 16.3634L16.4413 16.0505L16.5177 16.7283L14.3627 16.9716L14.5956 19.0988L16.5872 18.8729L16.6672 19.568L14.6756 19.794L14.9258 22.0359L17.2059 21.7821L17.2755 22.4356Z" fill="#001B62"/>
<path d="M22.0615 21.6294C21.6269 21.9454 21.1131 22.1343 20.5774 22.1751C20.2174 22.2274 19.8502 22.1942 19.5054 22.0783C19.1606 21.9624 18.848 21.7669 18.5927 21.5078C18.0196 20.8987 17.6789 20.1077 17.6299 19.2729C17.4873 18.3807 17.6725 17.467 18.1513 16.7008C18.3599 16.373 18.6405 16.0972 18.9717 15.8942C19.303 15.6912 19.6762 15.5664 20.063 15.5294C20.5089 15.4635 20.9642 15.5052 21.3907 15.6511L21.4776 16.4505C21.0593 16.2388 20.5873 16.1565 20.122 16.2141C19.8243 16.2406 19.5371 16.3372 19.2839 16.4961C19.0308 16.655 18.8189 16.8716 18.6657 17.1283C18.3116 17.7431 18.1791 18.4609 18.2903 19.1616C18.3293 19.8342 18.5994 20.4727 19.055 20.969C19.2495 21.1725 19.4896 21.3269 19.7555 21.4194C20.0214 21.5118 20.3055 21.5397 20.5843 21.5008C21.0991 21.4554 21.5861 21.2472 21.9746 20.9065L22.0615 21.6294Z" fill="#001B62"/>
<path d="M23.6849 15.2336L23.7579 15.8767L23.2157 15.9392L23.7927 21.0556L24.328 20.9965L24.401 21.6395L22.6631 21.8307L22.5935 21.1842L23.1323 21.1251L22.5727 15.9983L22.027 16.0678L21.9609 15.4248L23.6849 15.2336Z" fill="#001B62"/>
<path d="M29.5871 21.0662L28.8919 21.1427L28.1098 19.4048L25.7741 19.662L25.4265 21.5215L24.707 21.6015L26.0974 14.9627L26.7647 14.8862L29.5871 21.0662ZM27.797 18.7791L26.6257 16.1479C26.568 16.0124 26.5238 15.8715 26.4936 15.7274C26.4916 15.8733 26.4765 16.0187 26.4484 16.1618L25.8958 18.9877L27.797 18.7791Z" fill="#001B62"/>
<path d="M33.2643 20.6558L30.3933 20.9791L29.6738 14.5732L30.3134 14.5037L30.9599 20.2283L33.174 19.978L33.2643 20.6558Z" fill="#001B62"/>
<path d="M5.45745 23.4954L5.36013 22.6021C5.46692 22.6848 5.5837 22.7537 5.70771 22.8072C5.83746 22.869 5.97392 22.9157 6.11437 22.9462C6.25082 22.9829 6.39051 23.0061 6.53147 23.0157C6.6587 23.0262 6.78658 23.0262 6.91381 23.0157C7.23383 23.0085 7.54025 22.8849 7.77581 22.6682C7.86569 22.5632 7.9308 22.4393 7.9663 22.3057C8.0018 22.1721 8.00678 22.0323 7.98088 21.8965C7.96901 21.7386 7.91891 21.5859 7.83489 21.4516C7.75003 21.3267 7.6442 21.2173 7.52207 21.1284C7.38243 21.0284 7.23479 20.94 7.08065 20.8642C6.91381 20.7878 6.73307 20.7009 6.53147 20.614C6.32987 20.5271 6.13175 20.4297 5.95796 20.3289C5.78319 20.2352 5.62185 20.1183 5.4783 19.9814C5.34356 19.8501 5.22669 19.7017 5.13072 19.5399C5.03707 19.3491 4.97822 19.1432 4.95693 18.9317C4.9191 18.6684 4.94655 18.3998 5.03688 18.1496C5.11548 17.9287 5.24393 17.7289 5.41226 17.5657C5.5811 17.4043 5.77775 17.2747 5.99272 17.1834C6.60138 16.9372 7.27593 16.9065 7.90441 17.0965L7.99826 17.9376C7.60933 17.7067 7.15224 17.6183 6.70526 17.6873C6.56386 17.707 6.42435 17.7384 6.28816 17.7812C6.15946 17.8266 6.04124 17.8976 5.94058 17.9897C5.83458 18.0838 5.75441 18.2035 5.70771 18.3373C5.64881 18.4839 5.63079 18.6436 5.65557 18.7996C5.6683 18.9467 5.71341 19.0891 5.78765 19.2167C5.85448 19.3353 5.9457 19.4383 6.05529 19.5191C6.18258 19.6143 6.31877 19.6969 6.46195 19.7659C6.61837 19.8423 6.80953 19.9188 7.01113 20.0057C7.21273 20.0926 7.4178 20.2003 7.61244 20.3046C7.79719 20.3977 7.96897 20.5145 8.12339 20.6522C8.26251 20.7939 8.37966 20.9555 8.47097 21.1319C8.57577 21.3231 8.6408 21.5335 8.66214 21.7506C8.70013 22.0246 8.67638 22.3037 8.59262 22.5674C8.51987 22.7903 8.39193 22.9911 8.22071 23.1513C8.04851 23.3049 7.84772 23.423 7.62982 23.4989C7.39376 23.5917 7.14562 23.6502 6.89295 23.6727C6.77732 23.6829 6.66101 23.6829 6.54537 23.6727C6.41677 23.6727 6.28469 23.6727 6.14566 23.6483C6.01437 23.6298 5.88435 23.6031 5.75637 23.5684C5.65253 23.5667 5.55039 23.5418 5.45745 23.4954Z" fill="#001B62"/>
<path d="M10.3034 20.7708L10.5745 23.2038L9.93149 23.2734L9.23633 16.8709L10.7553 16.6971C11.0039 16.6516 11.2593 16.659 11.5049 16.7189C11.7504 16.7788 11.9806 16.8898 12.1803 17.0447C12.3731 17.2161 12.5296 17.4243 12.6406 17.6571C12.7517 17.8899 12.815 18.1426 12.8268 18.4003C12.9051 18.9471 12.7708 19.5032 12.4514 19.954C12.2864 20.1705 12.077 20.3492 11.8372 20.4781C11.5974 20.607 11.3328 20.6831 11.0611 20.7013L10.3034 20.7708ZM9.95582 17.4583L10.2513 20.0826L10.9464 20.0026C11.1335 19.9947 11.3171 19.949 11.4861 19.8684C11.6552 19.7878 11.8062 19.6738 11.9301 19.5334C12.0375 19.3843 12.1144 19.2154 12.1561 19.0364C12.1979 18.8574 12.2038 18.6719 12.1734 18.4907C12.0761 17.6495 11.5999 17.2741 10.7379 17.3714L9.95582 17.4583Z" fill="#001B62"/>
<path d="M17.2755 22.4356L14.3454 22.7832L13.6328 16.3634L16.4413 16.0505L16.5177 16.7283L14.3627 16.9716L14.5956 19.0988L16.5872 18.8729L16.6672 19.568L14.6756 19.794L14.9258 22.0359L17.2059 21.7821L17.2755 22.4356Z" fill="#001B62"/>
<path d="M22.0615 21.6294C21.6269 21.9454 21.1131 22.1343 20.5774 22.1751C20.2174 22.2274 19.8502 22.1942 19.5054 22.0783C19.1606 21.9624 18.848 21.7669 18.5927 21.5078C18.0196 20.8987 17.6789 20.1077 17.6299 19.2729C17.4873 18.3807 17.6725 17.467 18.1513 16.7008C18.3599 16.373 18.6405 16.0972 18.9717 15.8942C19.303 15.6912 19.6762 15.5664 20.063 15.5294C20.5089 15.4635 20.9642 15.5052 21.3907 15.6511L21.4776 16.4505C21.0593 16.2388 20.5873 16.1565 20.122 16.2141C19.8243 16.2406 19.5371 16.3372 19.2839 16.4961C19.0308 16.655 18.8189 16.8716 18.6657 17.1283C18.3116 17.7431 18.1791 18.4609 18.2903 19.1616C18.3293 19.8342 18.5994 20.4727 19.055 20.969C19.2495 21.1725 19.4896 21.3269 19.7555 21.4194C20.0214 21.5118 20.3055 21.5397 20.5843 21.5008C21.0991 21.4554 21.5861 21.2472 21.9746 20.9065L22.0615 21.6294Z" fill="#001B62"/>
<path d="M23.6849 15.2336L23.7579 15.8767L23.2157 15.9392L23.7927 21.0556L24.328 20.9965L24.401 21.6395L22.6631 21.8307L22.5935 21.1842L23.1323 21.1251L22.5727 15.9983L22.027 16.0678L21.9609 15.4248L23.6849 15.2336Z" fill="#001B62"/>
<path d="M29.5871 21.0662L28.8919 21.1427L28.1098 19.4048L25.7741 19.662L25.4265 21.5215L24.707 21.6015L26.0974 14.9627L26.7647 14.8862L29.5871 21.0662ZM27.797 18.7791L26.6257 16.1479C26.568 16.0124 26.5238 15.8715 26.4936 15.7274C26.4916 15.8733 26.4765 16.0187 26.4484 16.1618L25.8958 18.9877L27.797 18.7791Z" fill="#001B62"/>
<path d="M33.2643 20.6558L30.3933 20.9791L29.6738 14.5732L30.3134 14.5037L30.9599 20.2283L33.174 19.978L33.2643 20.6558Z" fill="#001B62"/>
<path d="M5.45745 23.4954L5.36013 22.6021C5.46692 22.6848 5.5837 22.7537 5.70771 22.8072C5.83746 22.869 5.97392 22.9157 6.11437 22.9462C6.25082 22.9829 6.39051 23.0061 6.53147 23.0157C6.6587 23.0262 6.78658 23.0262 6.91381 23.0157C7.23383 23.0085 7.54025 22.8849 7.77581 22.6682C7.86569 22.5632 7.9308 22.4393 7.9663 22.3057C8.0018 22.1721 8.00678 22.0323 7.98088 21.8965C7.96901 21.7386 7.91891 21.5859 7.83489 21.4516C7.75003 21.3267 7.6442 21.2173 7.52207 21.1284C7.38243 21.0284 7.23479 20.94 7.08065 20.8642C6.91381 20.7878 6.73307 20.7009 6.53147 20.614C6.32987 20.5271 6.13175 20.4297 5.95796 20.3289C5.78319 20.2352 5.62185 20.1183 5.4783 19.9814C5.34356 19.8501 5.22669 19.7017 5.13072 19.5399C5.03707 19.3491 4.97822 19.1432 4.95693 18.9317C4.9191 18.6684 4.94655 18.3998 5.03688 18.1496C5.11548 17.9287 5.24393 17.7289 5.41226 17.5657C5.5811 17.4043 5.77775 17.2747 5.99272 17.1834C6.60138 16.9372 7.27593 16.9065 7.90441 17.0965L7.99826 17.9376C7.60933 17.7067 7.15224 17.6183 6.70526 17.6873C6.56386 17.707 6.42435 17.7384 6.28816 17.7812C6.15946 17.8266 6.04124 17.8976 5.94058 17.9897C5.83458 18.0838 5.75441 18.2035 5.70771 18.3373C5.64881 18.4839 5.63079 18.6436 5.65557 18.7996C5.6683 18.9467 5.71341 19.0891 5.78765 19.2167C5.85448 19.3353 5.9457 19.4383 6.05529 19.5191C6.18258 19.6143 6.31877 19.6969 6.46195 19.7659C6.61837 19.8423 6.80953 19.9188 7.01113 20.0057C7.21273 20.0926 7.4178 20.2003 7.61244 20.3046C7.79719 20.3977 7.96897 20.5145 8.12339 20.6522C8.26251 20.7939 8.37966 20.9555 8.47097 21.1319C8.57577 21.3231 8.6408 21.5335 8.66214 21.7506C8.70013 22.0246 8.67638 22.3037 8.59262 22.5674C8.51987 22.7903 8.39193 22.9911 8.22071 23.1513C8.04851 23.3049 7.84772 23.423 7.62982 23.4989C7.39376 23.5917 7.14562 23.6502 6.89295 23.6727C6.77732 23.6829 6.66101 23.6829 6.54537 23.6727C6.41677 23.6727 6.28469 23.6727 6.14566 23.6483C6.01437 23.6298 5.88435 23.6031 5.75637 23.5684C5.65253 23.5667 5.55039 23.5418 5.45745 23.4954Z" fill="#001B62"/>
<path d="M10.3034 20.7708L10.5745 23.2038L9.93149 23.2734L9.23633 16.8709L10.7553 16.6971C11.0039 16.6516 11.2593 16.659 11.5049 16.7189C11.7504 16.7788 11.9806 16.8898 12.1803 17.0447C12.3731 17.2161 12.5296 17.4243 12.6406 17.6571C12.7517 17.8899 12.815 18.1426 12.8268 18.4003C12.9051 18.9471 12.7708 19.5032 12.4514 19.954C12.2864 20.1705 12.077 20.3492 11.8372 20.4781C11.5974 20.607 11.3328 20.6831 11.0611 20.7013L10.3034 20.7708ZM9.95582 17.4583L10.2513 20.0826L10.9464 20.0026C11.1335 19.9947 11.3171 19.949 11.4861 19.8684C11.6552 19.7878 11.8062 19.6738 11.9301 19.5334C12.0375 19.3843 12.1144 19.2154 12.1561 19.0364C12.1979 18.8574 12.2038 18.6719 12.1734 18.4907C12.0761 17.6495 11.5999 17.2741 10.7379 17.3714L9.95582 17.4583Z" fill="#001B62"/>
<path d="M17.2755 22.4356L14.3454 22.7832L13.6328 16.3634L16.4413 16.0505L16.5177 16.7283L14.3627 16.9716L14.5956 19.0988L16.5872 18.8729L16.6672 19.568L14.6756 19.794L14.9258 22.0359L17.2059 21.7821L17.2755 22.4356Z" fill="#001B62"/>
<path d="M22.0615 21.6294C21.6269 21.9454 21.1131 22.1343 20.5774 22.1751C20.2174 22.2274 19.8502 22.1942 19.5054 22.0783C19.1606 21.9624 18.848 21.7669 18.5927 21.5078C18.0196 20.8987 17.6789 20.1077 17.6299 19.2729C17.4873 18.3807 17.6725 17.467 18.1513 16.7008C18.3599 16.373 18.6405 16.0972 18.9717 15.8942C19.303 15.6912 19.6762 15.5664 20.063 15.5294C20.5089 15.4635 20.9642 15.5052 21.3907 15.6511L21.4776 16.4505C21.0593 16.2388 20.5873 16.1565 20.122 16.2141C19.8243 16.2406 19.5371 16.3372 19.2839 16.4961C19.0308 16.655 18.8189 16.8716 18.6657 17.1283C18.3116 17.7431 18.1791 18.4609 18.2903 19.1616C18.3293 19.8342 18.5994 20.4727 19.055 20.969C19.2495 21.1725 19.4896 21.3269 19.7555 21.4194C20.0214 21.5118 20.3055 21.5397 20.5843 21.5008C21.0991 21.4554 21.5861 21.2472 21.9746 20.9065L22.0615 21.6294Z" fill="#001B62"/>
<path d="M23.6849 15.2336L23.7579 15.8767L23.2157 15.9392L23.7927 21.0556L24.328 20.9965L24.401 21.6395L22.6631 21.8307L22.5935 21.1842L23.1323 21.1251L22.5727 15.9983L22.027 16.0678L21.9609 15.4248L23.6849 15.2336Z" fill="#001B62"/>
<path d="M29.5871 21.0662L28.8919 21.1427L28.1098 19.4048L25.7741 19.662L25.4265 21.5215L24.707 21.6015L26.0974 14.9627L26.7647 14.8862L29.5871 21.0662ZM27.797 18.7791L26.6257 16.1479C26.568 16.0124 26.5238 15.8715 26.4936 15.7274C26.4916 15.8733 26.4765 16.0187 26.4484 16.1618L25.8958 18.9877L27.797 18.7791Z" fill="#001B62"/>
<path d="M33.2643 20.6558L30.3933 20.9791L29.6738 14.5732L30.3134 14.5037L30.9599 20.2283L33.174 19.978L33.2643 20.6558Z" fill="#001B62"/>
<path d="M28.5339 33.9507L30.1953 35.706L23.5322 43.6308L22.5938 36.3664L28.5339 33.9507Z" fill="#FABD00"/>
</svg>
