<svg width="59" height="59" viewBox="0 0 59 59" fill="none" xmlns="http://www.w3.org/2000/svg">
<rect x="0.669922" y="0.929932" width="57.934" height="57.934" rx="5.74571" fill="white"/>
<path d="M43.0918 19.1275L13.0345 22.4819C12.4098 22.5519 11.805 22.7443 11.2547 23.0481C10.7043 23.3519 10.2192 23.7611 9.82702 24.2524C9.43484 24.7436 9.14325 25.3074 8.96894 25.9113C8.79463 26.5153 8.741 27.1477 8.81111 27.7724L11.008 47.4224C11.1486 48.6831 11.7842 49.8363 12.7751 50.6284C13.766 51.4204 15.0309 51.7864 16.2916 51.6458L46.3489 48.2915C47.6094 48.1499 48.7624 47.5142 49.5548 46.5236C50.3472 45.5331 50.7144 44.2687 50.5757 43.0079L48.3754 23.3509C48.3062 22.7265 48.1146 22.1218 47.8115 21.5715C47.5085 21.0212 47.0999 20.5361 46.6092 20.1438C46.1185 19.7515 45.5552 19.4599 44.9517 19.2855C44.3481 19.1111 43.7161 19.0574 43.0918 19.1275Z" fill="#1F1F38"/>
<path d="M18.6654 47.0229C18.1178 47.1003 17.5599 47.0529 17.0332 46.8844C16.5065 46.7158 16.0247 46.4305 15.6238 46.0496C14.7382 45.1898 14.2042 44.0313 14.1256 42.7995C13.9622 41.3292 14.2125 40.1056 14.866 39.1149C15.1828 38.632 15.6059 38.228 16.103 37.9339C16.6001 37.6399 17.158 37.4636 17.7338 37.4186C18.2784 37.3412 18.8336 37.3897 19.3566 37.5602C19.8796 37.7307 20.3566 38.0188 20.751 38.4023C21.5748 39.1844 22.0719 40.2863 22.2283 41.7046C22.3847 43.1228 22.1414 44.3707 21.4879 45.3544C21.177 45.8304 20.7606 46.2285 20.2712 46.5178C19.7817 46.8072 19.2323 46.98 18.6654 47.0229ZM17.8728 39.2366C17.5632 39.2644 17.2658 39.371 17.0091 39.5462C16.7523 39.7215 16.5447 39.9595 16.4059 40.2377C16.0649 40.9324 15.9494 41.7162 16.0757 42.4797C16.1179 43.2518 16.4039 43.9905 16.8926 44.5897C17.089 44.8158 17.3369 44.9913 17.6155 45.1014C17.894 45.2114 18.1949 45.2529 18.4928 45.2222C18.7908 45.1916 19.0769 45.0896 19.3272 44.9251C19.5774 44.7605 19.7844 44.5382 19.9306 44.2769C20.2728 43.5887 20.386 42.8092 20.2539 42.0522C20.2144 41.2615 19.9356 40.5014 19.4544 39.8727C19.2708 39.636 19.0277 39.4523 18.7497 39.3405C18.4718 39.2288 18.1692 39.1929 17.8728 39.2366Z" fill="white"/>
<path d="M27.6064 38.2111L24.6865 38.5587L24.9403 40.8355L27.6238 40.5331L27.815 42.226L25.1315 42.5284L25.5208 46.1087L23.6541 46.3207L22.6113 37.0536L27.3978 36.5183L27.6064 38.2111Z" fill="white"/>
<path d="M33.265 37.5678L30.3452 37.9154L30.5954 40.1922L33.2824 39.8898L33.4736 41.5826L30.7866 41.8885L31.1864 45.4827L29.3162 45.6913L28.2734 36.4311L33.0704 35.8645L33.265 37.5678Z" fill="white"/>
<path d="M39.9735 44.4854L35.0028 45.0416L33.96 35.7779L38.7395 35.2461L38.9307 36.9494L36.0178 37.2726L36.2472 39.3304L38.955 39.028L39.1462 40.7209L36.4349 41.0268L36.6713 43.1471L39.7754 42.7995L39.9735 44.4854Z" fill="white"/>
<path d="M47.7675 43.6093L45.6193 43.8491L44.0655 41.6106C43.9508 41.4368 43.8361 41.2873 43.7179 41.1552C43.6241 41.0314 43.5207 40.9151 43.4086 40.8076C43.3132 40.7275 43.2081 40.6598 43.0957 40.606C42.986 40.56 42.8656 40.5456 42.7481 40.5643L42.2441 40.6164L42.6473 44.162L40.7772 44.3705L39.7344 35.1069L42.689 34.7593C44.6947 34.5334 45.7966 35.2633 45.9808 36.9388C46.0186 37.2434 46.0069 37.5521 45.9461 37.853C45.8919 38.1283 45.792 38.3927 45.6506 38.6351C45.5105 38.8727 45.3347 39.0873 45.1292 39.2712C44.9118 39.4586 44.6683 39.6131 44.4062 39.73V39.7579C44.5453 39.7888 44.6766 39.848 44.792 39.9317C44.9256 40.02 45.0502 40.1213 45.1639 40.2341C45.2875 40.3543 45.4036 40.482 45.5116 40.6164L45.8313 41.0231L47.7675 43.6093ZM41.82 36.4834L42.1085 39.0626L42.9184 38.9757C43.0977 38.9636 43.2723 38.9132 43.4306 38.8281C43.5889 38.743 43.7271 38.625 43.8361 38.4822C43.9448 38.3381 44.0239 38.1739 44.0686 37.9991C44.1134 37.8242 44.123 37.6422 44.0968 37.4637C44.0099 36.6572 43.5337 36.2992 42.6647 36.3965L41.82 36.4834Z" fill="white"/>
<path d="M18.6654 47.0229C18.1178 47.1003 17.5599 47.0529 17.0332 46.8844C16.5065 46.7158 16.0247 46.4305 15.6238 46.0496C14.7382 45.1898 14.2042 44.0313 14.1256 42.7995C13.9622 41.3292 14.2125 40.1056 14.866 39.1149C15.1828 38.632 15.6059 38.228 16.103 37.9339C16.6001 37.6399 17.158 37.4636 17.7338 37.4186C18.2784 37.3412 18.8336 37.3897 19.3566 37.5602C19.8796 37.7307 20.3566 38.0188 20.751 38.4023C21.5748 39.1844 22.0719 40.2863 22.2283 41.7046C22.3847 43.1228 22.1414 44.3707 21.4879 45.3544C21.177 45.8304 20.7606 46.2285 20.2712 46.5178C19.7817 46.8072 19.2323 46.98 18.6654 47.0229ZM17.8728 39.2366C17.5632 39.2644 17.2658 39.371 17.0091 39.5462C16.7523 39.7215 16.5447 39.9595 16.4059 40.2377C16.0649 40.9324 15.9494 41.7162 16.0757 42.4797C16.1179 43.2518 16.4039 43.9905 16.8926 44.5897C17.089 44.8158 17.3369 44.9913 17.6155 45.1014C17.894 45.2114 18.1949 45.2529 18.4928 45.2222C18.7908 45.1916 19.0769 45.0896 19.3272 44.9251C19.5774 44.7605 19.7844 44.5382 19.9306 44.2769C20.2728 43.5887 20.386 42.8092 20.2539 42.0522C20.2144 41.2615 19.9356 40.5014 19.4544 39.8727C19.2708 39.636 19.0277 39.4523 18.7497 39.3405C18.4718 39.2288 18.1692 39.1929 17.8728 39.2366Z" fill="#FFCB00"/>
<path d="M27.6064 38.2111L24.6865 38.5587L24.9403 40.8355L27.6238 40.5331L27.815 42.226L25.1315 42.5284L25.5208 46.1087L23.6541 46.3207L22.6113 37.0536L27.3978 36.5183L27.6064 38.2111Z" fill="#FFCB00"/>
<path d="M33.265 37.5678L30.3452 37.9154L30.5954 40.1922L33.2824 39.8898L33.4736 41.5826L30.7866 41.8885L31.1864 45.4827L29.3162 45.6913L28.2734 36.4311L33.0704 35.8645L33.265 37.5678Z" fill="#FFCB00"/>
<path d="M39.9735 44.4854L35.0028 45.0416L33.96 35.7779L38.7395 35.2461L38.9307 36.9494L36.0178 37.2726L36.2472 39.3304L38.955 39.028L39.1462 40.7209L36.4349 41.0268L36.6713 43.1471L39.7754 42.7995L39.9735 44.4854Z" fill="#FFCB00"/>
<path d="M47.7675 43.6093L45.6193 43.8491L44.0655 41.6106C43.9508 41.4368 43.8361 41.2873 43.7179 41.1552C43.6241 41.0314 43.5207 40.9151 43.4086 40.8076C43.3132 40.7275 43.2081 40.6598 43.0957 40.606C42.986 40.56 42.8656 40.5456 42.7481 40.5643L42.2441 40.6164L42.6473 44.162L40.7772 44.3705L39.7344 35.1069L42.689 34.7593C44.6947 34.5334 45.7966 35.2633 45.9808 36.9388C46.0186 37.2434 46.0069 37.5521 45.9461 37.853C45.8919 38.1283 45.792 38.3927 45.6506 38.6351C45.5105 38.8727 45.3347 39.0873 45.1292 39.2712C44.9118 39.4586 44.6683 39.6131 44.4062 39.73V39.7579C44.5453 39.7888 44.6766 39.848 44.792 39.9317C44.9256 40.02 45.0502 40.1213 45.1639 40.2341C45.2875 40.3543 45.4036 40.482 45.5116 40.6164L45.8313 41.0231L47.7675 43.6093ZM41.82 36.4834L42.1085 39.0626L42.9184 38.9757C43.0977 38.9636 43.2723 38.9132 43.4306 38.8281C43.5889 38.743 43.7271 38.625 43.8361 38.4822C43.9448 38.3381 44.0239 38.1739 44.0686 37.9991C44.1134 37.8242 44.123 37.6422 44.0968 37.4637C44.0099 36.6572 43.5337 36.2992 42.6647 36.3965L41.82 36.4834Z" fill="#FFCB00"/>
<path d="M18.6654 47.0229C18.1178 47.1003 17.5599 47.0529 17.0332 46.8844C16.5065 46.7158 16.0247 46.4305 15.6238 46.0496C14.7382 45.1898 14.2042 44.0313 14.1256 42.7995C13.9622 41.3292 14.2125 40.1056 14.866 39.1149C15.1828 38.632 15.6059 38.228 16.103 37.9339C16.6001 37.6399 17.158 37.4636 17.7338 37.4186C18.2784 37.3412 18.8336 37.3897 19.3566 37.5602C19.8796 37.7307 20.3566 38.0188 20.751 38.4023C21.5748 39.1844 22.0719 40.2863 22.2283 41.7046C22.3847 43.1228 22.1414 44.3707 21.4879 45.3544C21.177 45.8304 20.7606 46.2285 20.2712 46.5178C19.7817 46.8072 19.2323 46.98 18.6654 47.0229ZM17.8728 39.2366C17.5632 39.2644 17.2658 39.371 17.0091 39.5462C16.7523 39.7215 16.5447 39.9595 16.4059 40.2377C16.0649 40.9324 15.9494 41.7162 16.0757 42.4797C16.1179 43.2518 16.4039 43.9905 16.8926 44.5897C17.089 44.8158 17.3369 44.9913 17.6155 45.1014C17.894 45.2114 18.1949 45.2529 18.4928 45.2222C18.7908 45.1916 19.0769 45.0896 19.3272 44.9251C19.5774 44.7605 19.7844 44.5382 19.9306 44.2769C20.2728 43.5887 20.386 42.8092 20.2539 42.0522C20.2144 41.2615 19.9356 40.5014 19.4544 39.8727C19.2708 39.636 19.0277 39.4523 18.7497 39.3405C18.4718 39.2288 18.1692 39.1929 17.8728 39.2366Z" fill="#FFCB00"/>
<path d="M27.6064 38.2111L24.6865 38.5587L24.9403 40.8355L27.6238 40.5331L27.815 42.226L25.1315 42.5284L25.5208 46.1087L23.6541 46.3207L22.6113 37.0536L27.3978 36.5183L27.6064 38.2111Z" fill="#FFCB00"/>
<path d="M33.265 37.5678L30.3452 37.9154L30.5954 40.1922L33.2824 39.8898L33.4736 41.5826L30.7866 41.8885L31.1864 45.4827L29.3162 45.6913L28.2734 36.4311L33.0704 35.8645L33.265 37.5678Z" fill="#FFCB00"/>
<path d="M39.9735 44.4854L35.0028 45.0416L33.96 35.7779L38.7395 35.2461L38.9307 36.9494L36.0178 37.2726L36.2472 39.3304L38.955 39.028L39.1462 40.7209L36.4349 41.0268L36.6713 43.1471L39.7754 42.7995L39.9735 44.4854Z" fill="#FFCB00"/>
<path d="M47.7675 43.6093L45.6193 43.8491L44.0655 41.6106C43.9508 41.4368 43.8361 41.2873 43.7179 41.1552C43.6241 41.0314 43.5207 40.9151 43.4086 40.8076C43.3132 40.7275 43.2081 40.6598 43.0957 40.606C42.986 40.56 42.8656 40.5456 42.7481 40.5643L42.2441 40.6164L42.6473 44.162L40.7772 44.3705L39.7344 35.1069L42.689 34.7593C44.6947 34.5334 45.7966 35.2633 45.9808 36.9388C46.0186 37.2434 46.0069 37.5521 45.9461 37.853C45.8919 38.1283 45.792 38.3927 45.6506 38.6351C45.5105 38.8727 45.3347 39.0873 45.1292 39.2712C44.9118 39.4586 44.6683 39.6131 44.4062 39.73V39.7579C44.5453 39.7888 44.6766 39.848 44.792 39.9317C44.9256 40.02 45.0502 40.1213 45.1639 40.2341C45.2875 40.3543 45.4036 40.482 45.5116 40.6164L45.8313 41.0231L47.7675 43.6093ZM41.82 36.4834L42.1085 39.0626L42.9184 38.9757C43.0977 38.9636 43.2723 38.9132 43.4306 38.8281C43.5889 38.743 43.7271 38.625 43.8361 38.4822C43.9448 38.3381 44.0239 38.1739 44.0686 37.9991C44.1134 37.8242 44.123 37.6422 44.0968 37.4637C44.0099 36.6572 43.5337 36.2992 42.6647 36.3965L41.82 36.4834Z" fill="#FFCB00"/>
<path d="M18.6654 47.0229C18.1178 47.1003 17.5599 47.0529 17.0332 46.8844C16.5065 46.7158 16.0247 46.4305 15.6238 46.0496C14.7382 45.1898 14.2042 44.0313 14.1256 42.7995C13.9622 41.3292 14.2125 40.1056 14.866 39.1149C15.1828 38.632 15.6059 38.228 16.103 37.9339C16.6001 37.6399 17.158 37.4636 17.7338 37.4186C18.2784 37.3412 18.8336 37.3897 19.3566 37.5602C19.8796 37.7307 20.3566 38.0188 20.751 38.4023C21.5748 39.1844 22.0719 40.2863 22.2283 41.7046C22.3847 43.1228 22.1414 44.3707 21.4879 45.3544C21.177 45.8304 20.7606 46.2285 20.2712 46.5178C19.7817 46.8072 19.2323 46.98 18.6654 47.0229ZM17.8728 39.2366C17.5632 39.2644 17.2658 39.371 17.0091 39.5462C16.7523 39.7215 16.5447 39.9595 16.4059 40.2377C16.0649 40.9324 15.9494 41.7162 16.0757 42.4797C16.1179 43.2518 16.4039 43.9905 16.8926 44.5897C17.089 44.8158 17.3369 44.9913 17.6155 45.1014C17.894 45.2114 18.1949 45.2529 18.4928 45.2222C18.7908 45.1916 19.0769 45.0896 19.3272 44.9251C19.5774 44.7605 19.7844 44.5382 19.9306 44.2769C20.2728 43.5887 20.386 42.8092 20.2539 42.0522C20.2144 41.2615 19.9356 40.5014 19.4544 39.8727C19.2708 39.636 19.0277 39.4523 18.7497 39.3405C18.4718 39.2288 18.1692 39.1929 17.8728 39.2366Z" fill="#FFCB00"/>
<path d="M27.6064 38.2111L24.6865 38.5587L24.9403 40.8355L27.6238 40.5331L27.815 42.226L25.1315 42.5284L25.5208 46.1087L23.6541 46.3207L22.6113 37.0536L27.3978 36.5183L27.6064 38.2111Z" fill="#FFCB00"/>
<path d="M33.265 37.5678L30.3452 37.9154L30.5954 40.1922L33.2824 39.8898L33.4736 41.5826L30.7866 41.8885L31.1864 45.4827L29.3162 45.6913L28.2734 36.4311L33.0704 35.8645L33.265 37.5678Z" fill="#FFCB00"/>
<path d="M39.9735 44.4854L35.0028 45.0416L33.96 35.7779L38.7395 35.2461L38.9307 36.9494L36.0178 37.2726L36.2472 39.3304L38.955 39.028L39.1462 40.7209L36.4349 41.0268L36.6713 43.1471L39.7754 42.7995L39.9735 44.4854Z" fill="#FFCB00"/>
<path d="M47.7675 43.6093L45.6193 43.8491L44.0655 41.6106C43.9508 41.4368 43.8361 41.2873 43.7179 41.1552C43.6241 41.0314 43.5207 40.9151 43.4086 40.8076C43.3132 40.7275 43.2081 40.6598 43.0957 40.606C42.986 40.56 42.8656 40.5456 42.7481 40.5643L42.2441 40.6164L42.6473 44.162L40.7772 44.3705L39.7344 35.1069L42.689 34.7593C44.6947 34.5334 45.7966 35.2633 45.9808 36.9388C46.0186 37.2434 46.0069 37.5521 45.9461 37.853C45.8919 38.1283 45.792 38.3927 45.6506 38.6351C45.5105 38.8727 45.3347 39.0873 45.1292 39.2712C44.9118 39.4586 44.6683 39.6131 44.4062 39.73V39.7579C44.5453 39.7888 44.6766 39.848 44.792 39.9317C44.9256 40.02 45.0502 40.1213 45.1639 40.2341C45.2875 40.3543 45.4036 40.482 45.5116 40.6164L45.8313 41.0231L47.7675 43.6093ZM41.82 36.4834L42.1085 39.0626L42.9184 38.9757C43.0977 38.9636 43.2723 38.9132 43.4306 38.8281C43.5889 38.743 43.7271 38.625 43.8361 38.4822C43.9448 38.3381 44.0239 38.1739 44.0686 37.9991C44.1134 37.8242 44.123 37.6422 44.0968 37.4637C44.0099 36.6572 43.5337 36.2992 42.6647 36.3965L41.82 36.4834Z" fill="#FFCB00"/>
<path d="M13.7016 34.6308L13.5904 33.6331C13.7076 33.7246 13.8347 33.8027 13.9693 33.866C14.1173 33.9347 14.2723 33.9871 14.4316 34.0225C14.5884 34.0587 14.7475 34.0842 14.9078 34.0989C15.0535 34.1129 15.2001 34.1129 15.3458 34.0989C15.7063 34.0882 16.0507 33.9474 16.3156 33.7027C16.4174 33.5824 16.4919 33.4415 16.5339 33.2897C16.5759 33.1379 16.5844 32.9787 16.5589 32.8232C16.5428 32.6484 16.487 32.4795 16.3955 32.3296C16.304 32.1869 16.186 32.0631 16.0479 31.9647C15.8876 31.8526 15.7191 31.7527 15.5439 31.6657L14.9252 31.3876C14.7032 31.2922 14.4862 31.1855 14.2752 31.0678C14.0803 30.9635 13.8992 30.835 13.7364 30.6855C13.5786 30.5402 13.4458 30.3699 13.3436 30.1814C13.2376 29.963 13.1705 29.7277 13.1455 29.4862C13.105 29.188 13.1348 28.8845 13.2324 28.5999C13.3242 28.3508 13.4703 28.1252 13.6599 27.9394C13.8427 27.7619 14.0574 27.6204 14.2925 27.5223C14.5427 27.418 14.8058 27.3479 15.0747 27.3137C15.5336 27.2288 16.0068 27.2647 16.4477 27.418L16.552 28.3739C16.1094 28.1121 15.5899 28.0114 15.0816 28.0889C14.9216 28.1019 14.7645 28.1394 14.6158 28.2001C14.4665 28.2532 14.3277 28.332 14.2056 28.433C14.0903 28.5381 13.998 28.6659 13.9345 28.8084C13.8694 28.974 13.8491 29.1538 13.8754 29.3298C13.8907 29.4938 13.9379 29.6532 14.0145 29.7991C14.0901 29.9347 14.1931 30.053 14.3169 30.1467C14.4636 30.2522 14.6181 30.3464 14.7792 30.4282C14.9634 30.5151 15.1616 30.609 15.3979 30.7063C15.6343 30.8037 15.8637 30.9218 16.0931 31.0365C16.2988 31.1538 16.4931 31.29 16.6736 31.4432C16.8432 31.5947 16.9865 31.7733 17.0977 31.9716C17.2151 32.1869 17.2895 32.4231 17.3167 32.6668C17.3632 32.9779 17.337 33.2956 17.2402 33.5949C17.1508 33.8436 17.0071 34.0692 16.8196 34.2554C16.6259 34.4367 16.3994 34.5795 16.1522 34.676C15.8826 34.7737 15.6027 34.8402 15.318 34.8741C15.1965 34.8832 15.0745 34.8832 14.953 34.8741C14.8018 34.8755 14.6507 34.865 14.5011 34.8428C14.3508 34.8252 14.2021 34.7962 14.0562 34.7559C13.9305 34.7395 13.8097 34.6969 13.7016 34.6308Z" fill="white"/>
<path d="M19.1764 31.5374L19.4823 34.273L18.7523 34.353L17.9424 27.0985L19.663 26.9073C19.9447 26.8557 20.234 26.8637 20.5124 26.9308C20.7908 26.9978 21.0521 27.1225 21.2794 27.2966C21.715 27.6945 21.9771 28.2474 22.0094 28.8365C22.0579 29.1426 22.0455 29.4553 21.9727 29.7565C21.8999 30.0578 21.7682 30.3417 21.5853 30.5919C21.3971 30.837 21.1585 31.0389 20.8857 31.184C20.6129 31.3291 20.3121 31.414 20.0037 31.4331L19.1764 31.5374ZM18.7592 27.7937L19.1068 30.7657L19.8716 30.6788C20.0832 30.6693 20.2907 30.6174 20.4818 30.526C20.6729 30.4346 20.8437 30.3057 20.9839 30.1469C21.1063 29.9784 21.1932 29.7867 21.2392 29.5835C21.2852 29.3803 21.2894 29.1699 21.2516 28.9651C21.1508 28.0092 20.6015 27.5747 19.6283 27.6963L18.7592 27.7937Z" fill="white"/>
<path d="M27.0674 33.4318L23.7547 33.8038L22.9482 26.5493L26.1184 26.2017L26.2088 26.9699L23.7755 27.2375L24.0432 29.6707L26.3026 29.4205L26.3895 30.1852L24.1301 30.4355L24.4186 32.973L26.9978 32.6879L27.0674 33.4318Z" fill="white"/>
<path d="M32.4899 32.521C31.9985 32.8786 31.417 33.0917 30.811 33.1363C30.403 33.1933 29.9874 33.1545 29.597 33.023C29.2066 32.8915 28.8523 32.6708 28.562 32.3785C27.9145 31.689 27.5273 30.7954 27.467 29.8514C27.3077 28.8421 27.5175 27.8092 28.058 26.942C28.2934 26.568 28.6119 26.2534 28.9887 26.0225C29.3655 25.7916 29.7904 25.6507 30.2305 25.6107C30.7355 25.5311 31.2522 25.5764 31.7356 25.7428L31.8364 26.6431C31.3651 26.4058 30.8344 26.3127 30.3105 26.3754C29.9738 26.4037 29.6486 26.5114 29.3616 26.6896C29.0746 26.8679 28.8339 27.1116 28.6593 27.4008C28.2579 28.0977 28.1105 28.9121 28.2422 29.7054C28.2811 30.465 28.5849 31.187 29.1008 31.7459C29.3212 31.9779 29.5941 32.1537 29.8965 32.2583C30.199 32.363 30.5221 32.3935 30.8388 32.3472C31.4155 32.2975 31.9623 32.0691 32.403 31.6937L32.4899 32.521Z" fill="white"/>
<path d="M34.3253 25.2734L34.4018 25.9999L33.7935 26.0729L34.4435 31.8675L35.0553 31.798L35.1317 32.5279L33.1678 32.7365L33.0913 32.0065L33.6996 31.937L33.0461 26.1424L32.4378 26.212L32.3613 25.482L34.3253 25.2734Z" fill="white"/>
<path d="M41.006 31.8743L40.1961 31.9647L39.3132 30.0077L36.661 30.3031L36.2612 32.4061L35.4443 32.493L37.0364 24.9778L37.7907 24.8875L41.006 31.8743ZM38.9829 29.2603L37.6516 26.2779C37.5894 26.1233 37.5394 25.9641 37.5021 25.8016H37.4848C37.4797 25.9668 37.4658 26.1316 37.4431 26.2952L36.8174 29.4932L38.9829 29.2603Z" fill="white"/>
<path d="M45.1697 31.4053L41.9266 31.7702L41.1201 24.5157L41.8466 24.4358L42.5696 30.9221L45.0828 30.6405L45.1697 31.4053Z" fill="white"/>
<path d="M24.5606 9.88591L18.2676 22.3818L18.8574 22.6789L25.1504 10.183L24.5606 9.88591Z" fill="#1F1F38"/>
<path d="M25.7766 9.78917L25.332 10.2776L37.1644 21.048L37.609 20.5596L25.7766 9.78917Z" fill="#1F1F38"/>
<path d="M26.657 9.7423C26.657 10.0414 26.5683 10.3337 26.4021 10.5824C26.236 10.831 25.9998 11.0248 25.7235 11.1393C25.4472 11.2537 25.1432 11.2837 24.8499 11.2253C24.5566 11.167 24.2872 11.023 24.0757 10.8115C23.8642 10.6 23.7202 10.3306 23.6619 10.0373C23.6035 9.74398 23.6335 9.43995 23.7479 9.16366C23.8624 8.88736 24.0562 8.6512 24.3048 8.48505C24.5535 8.3189 24.8458 8.23022 25.1449 8.23022C25.3435 8.23022 25.5401 8.26933 25.7235 8.34532C25.907 8.42131 26.0737 8.53269 26.2141 8.6731C26.3545 8.81351 26.4659 8.9802 26.5419 9.16366C26.6179 9.34711 26.657 9.54374 26.657 9.7423Z" fill="#1F1F38"/>
<path d="M25.9901 9.74189C25.9901 9.90895 25.9406 10.0723 25.8478 10.2112C25.755 10.3501 25.623 10.4583 25.4687 10.5223C25.3144 10.5862 25.1445 10.6029 24.9807 10.5703C24.8168 10.5377 24.6663 10.4573 24.5482 10.3392C24.43 10.221 24.3496 10.0705 24.317 9.90668C24.2844 9.74283 24.3012 9.57299 24.3651 9.41864C24.429 9.2643 24.5373 9.13238 24.6762 9.03957C24.8151 8.94675 24.9784 8.89722 25.1455 8.89722C25.3689 8.89903 25.5827 8.98861 25.7407 9.14662C25.8988 9.30464 25.9883 9.51843 25.9901 9.74189Z" fill="#FFCB00"/>
</svg>
