<svg width="44" height="14" viewBox="0 0 44 14" fill="none" xmlns="http://www.w3.org/2000/svg">
<path d="M0.0185547 2.89624L0.894456 1.1062L8.49951 5.48223L0.0185547 2.89624Z" fill="#001B62"/>
<path d="M5.13477 2.60135L5.65961 1.83667L8.58623 4.90233L5.13477 2.60135Z" fill="#FABD00"/>
<path d="M43.4666 10.3241L42.754 12.7398L34.8223 7.95361L43.4666 10.3241Z" fill="#001B62"/>
<path d="M38.4157 11.2977L37.9639 12.3578L34.7939 8.70825L38.4157 11.2977Z" fill="#FABD00"/>
<path d="M37.7904 6.98097H12.4797L6.62988 0.244873H31.9546L37.7904 6.98097Z" fill="#001B62"/>
<path d="M37.1575 13.7128H14.4084L8.55859 6.98022H31.3181L37.1575 13.7128Z" fill="#FABD00"/>
<path d="M17.9186 12.243C17.6958 12.2479 17.4748 12.203 17.2715 12.1116C17.0683 12.0202 16.888 11.8846 16.7438 11.7147C16.4307 11.3304 16.2709 10.8438 16.2954 10.3487C16.2766 9.83779 16.4391 9.33667 16.7542 8.93407C16.9009 8.75493 17.0871 8.61215 17.2981 8.51688C17.5092 8.42161 17.7394 8.37644 17.9708 8.38489C18.1913 8.37532 18.4111 8.41676 18.6131 8.50598C18.815 8.5952 18.9937 8.7298 19.1351 8.89931C19.4492 9.29234 19.6076 9.78727 19.58 10.2896C19.6049 10.8069 19.4364 11.3148 19.1073 11.7147C18.9644 11.8897 18.7824 12.0287 18.5759 12.1205C18.3694 12.2122 18.1443 12.2542 17.9186 12.243ZM17.9534 9.11481C17.8297 9.1123 17.7073 9.14129 17.5979 9.19905C17.4884 9.25681 17.3955 9.34145 17.3277 9.44501C17.1583 9.70594 17.0756 10.0137 17.0914 10.3244C17.0744 10.6352 17.1572 10.9433 17.3277 11.2038C17.3966 11.3027 17.4883 11.3835 17.5951 11.4394C17.7019 11.4952 17.8207 11.5243 17.9412 11.5243C18.0617 11.5243 18.1805 11.4952 18.2873 11.4394C18.3941 11.3835 18.4859 11.3027 18.5547 11.2038C18.7254 10.9435 18.8071 10.635 18.7876 10.3244C18.8041 10.0087 18.7293 9.69494 18.5721 9.42068C18.5053 9.31896 18.4131 9.23654 18.3045 9.18164C18.1959 9.12675 18.0749 9.10131 17.9534 9.10786V9.11481Z" fill="white"/>
<path d="M21.8638 9.13585H20.682V10.0569H21.7664V10.7521H20.682V12.205H19.9277V8.45459H21.8568V9.14975L21.8638 9.13585Z" fill="white"/>
<path d="M24.1577 9.13585H22.9759V10.0569H24.0604V10.7521H22.9759V12.205H22.2217V8.45459H24.1473V9.14975L24.1577 9.13585Z" fill="white"/>
<path d="M26.5217 12.1845H24.5127V8.448H26.4348V9.14316H25.2704V9.97735H26.3653V10.6725H25.2704V11.5067H26.5217V12.2019V12.1845Z" fill="white"/>
<path d="M29.6672 12.1845H28.7982L28.2768 11.2217C28.2485 11.1514 28.2136 11.0839 28.1726 11.0201C28.1445 10.9659 28.1095 10.9157 28.0683 10.8706C28.0365 10.8336 27.9989 10.8019 27.9571 10.7768C27.9176 10.7521 27.8715 10.7399 27.825 10.742H27.6164V12.1741H26.8691V8.448H28.0579C28.8677 8.448 29.2744 8.79558 29.2744 9.46641C29.2729 9.58386 29.2566 9.70065 29.2257 9.81399C29.1908 9.91822 29.1404 10.0166 29.0763 10.106C29.009 10.1925 28.9294 10.2686 28.8399 10.3319C28.7444 10.3961 28.6403 10.4464 28.5306 10.4813C28.5846 10.5019 28.6341 10.5325 28.6766 10.5717C28.7255 10.6154 28.7719 10.6618 28.8156 10.7107C28.86 10.7622 28.9006 10.8168 28.9372 10.8741C28.972 10.9367 29.0137 10.9958 29.0415 11.0479L29.6672 12.1845ZM27.6164 9.05626V10.099H27.9466C28.017 10.1073 28.0882 10.1007 28.1559 10.0797C28.2235 10.0588 28.286 10.0239 28.3394 9.97735C28.4353 9.87059 28.4875 9.73157 28.4854 9.58806C28.4854 9.25786 28.3116 9.09797 27.964 9.09797H27.6164V9.05626Z" fill="white"/>
<path d="M17.9186 12.243C17.6958 12.2479 17.4748 12.203 17.2715 12.1116C17.0683 12.0202 16.888 11.8846 16.7438 11.7147C16.4307 11.3304 16.2709 10.8438 16.2954 10.3487C16.2766 9.83779 16.4391 9.33667 16.7542 8.93407C16.9009 8.75493 17.0871 8.61215 17.2981 8.51688C17.5092 8.42161 17.7394 8.37644 17.9708 8.38489C18.1913 8.37532 18.4111 8.41676 18.6131 8.50598C18.815 8.5952 18.9937 8.7298 19.1351 8.89931C19.4492 9.29234 19.6076 9.78727 19.58 10.2896C19.6049 10.8069 19.4364 11.3148 19.1073 11.7147C18.9644 11.8897 18.7824 12.0287 18.5759 12.1205C18.3694 12.2122 18.1443 12.2542 17.9186 12.243ZM17.9534 9.11481C17.8297 9.1123 17.7073 9.14129 17.5979 9.19905C17.4884 9.25681 17.3955 9.34145 17.3277 9.44501C17.1583 9.70594 17.0756 10.0137 17.0914 10.3244C17.0744 10.6352 17.1572 10.9433 17.3277 11.2038C17.3966 11.3027 17.4883 11.3835 17.5951 11.4394C17.7019 11.4952 17.8207 11.5243 17.9412 11.5243C18.0617 11.5243 18.1805 11.4952 18.2873 11.4394C18.3941 11.3835 18.4859 11.3027 18.5547 11.2038C18.7254 10.9435 18.8071 10.635 18.7876 10.3244C18.8041 10.0087 18.7293 9.69494 18.5721 9.42068C18.5053 9.31896 18.4131 9.23654 18.3045 9.18164C18.1959 9.12675 18.0749 9.10131 17.9534 9.10786V9.11481Z" fill="#001B62"/>
<path d="M21.8638 9.13585H20.682V10.0569H21.7664V10.7521H20.682V12.205H19.9277V8.45459H21.8568V9.14975L21.8638 9.13585Z" fill="#001B62"/>
<path d="M24.1577 9.13585H22.9759V10.0569H24.0604V10.7521H22.9759V12.205H22.2217V8.45459H24.1473V9.14975L24.1577 9.13585Z" fill="#001B62"/>
<path d="M26.5217 12.1845H24.5127V8.448H26.4348V9.14316H25.2704V9.97735H26.3653V10.6725H25.2704V11.5067H26.5217V12.2019V12.1845Z" fill="#001B62"/>
<path d="M29.6672 12.1845H28.7982L28.2768 11.2217C28.2485 11.1514 28.2136 11.0839 28.1726 11.0201C28.1445 10.9659 28.1095 10.9157 28.0683 10.8706C28.0365 10.8336 27.9989 10.8019 27.9571 10.7768C27.9176 10.7521 27.8715 10.7399 27.825 10.742H27.6164V12.1741H26.8691V8.448H28.0579C28.8677 8.448 29.2744 8.79558 29.2744 9.46641C29.2729 9.58386 29.2566 9.70065 29.2257 9.81399C29.1908 9.91822 29.1404 10.0166 29.0763 10.106C29.009 10.1925 28.9294 10.2686 28.8399 10.3319C28.7444 10.3961 28.6403 10.4464 28.5306 10.4813C28.5846 10.5019 28.6341 10.5325 28.6766 10.5717C28.7255 10.6154 28.7719 10.6618 28.8156 10.7107C28.86 10.7622 28.9006 10.8168 28.9372 10.8741C28.972 10.9367 29.0137 10.9958 29.0415 11.0479L29.6672 12.1845ZM27.6164 9.05626V10.099H27.9466C28.017 10.1073 28.0882 10.1007 28.1559 10.0797C28.2235 10.0588 28.286 10.0239 28.3394 9.97735C28.4353 9.87059 28.4875 9.73157 28.4854 9.58806C28.4854 9.25786 28.3116 9.09797 27.964 9.09797H27.6164V9.05626Z" fill="#001B62"/>
<path d="M17.9186 12.243C17.6958 12.2479 17.4748 12.203 17.2715 12.1116C17.0683 12.0202 16.888 11.8846 16.7438 11.7147C16.4307 11.3304 16.2709 10.8438 16.2954 10.3487C16.2766 9.83779 16.4391 9.33667 16.7542 8.93407C16.9009 8.75493 17.0871 8.61215 17.2981 8.51688C17.5092 8.42161 17.7394 8.37644 17.9708 8.38489C18.1913 8.37532 18.4111 8.41676 18.6131 8.50598C18.815 8.5952 18.9937 8.7298 19.1351 8.89931C19.4492 9.29234 19.6076 9.78727 19.58 10.2896C19.6049 10.8069 19.4364 11.3148 19.1073 11.7147C18.9644 11.8897 18.7824 12.0287 18.5759 12.1205C18.3694 12.2122 18.1443 12.2542 17.9186 12.243ZM17.9534 9.11481C17.8297 9.1123 17.7073 9.14129 17.5979 9.19905C17.4884 9.25681 17.3955 9.34145 17.3277 9.44501C17.1583 9.70594 17.0756 10.0137 17.0914 10.3244C17.0744 10.6352 17.1572 10.9433 17.3277 11.2038C17.3966 11.3027 17.4883 11.3835 17.5951 11.4394C17.7019 11.4952 17.8207 11.5243 17.9412 11.5243C18.0617 11.5243 18.1805 11.4952 18.2873 11.4394C18.3941 11.3835 18.4859 11.3027 18.5547 11.2038C18.7254 10.9435 18.8071 10.635 18.7876 10.3244C18.8041 10.0087 18.7293 9.69494 18.5721 9.42068C18.5053 9.31896 18.4131 9.23654 18.3045 9.18164C18.1959 9.12675 18.0749 9.10131 17.9534 9.10786V9.11481Z" fill="#001B62"/>
<path d="M21.8638 9.13585H20.682V10.0569H21.7664V10.7521H20.682V12.205H19.9277V8.45459H21.8568V9.14975L21.8638 9.13585Z" fill="#001B62"/>
<path d="M24.1577 9.13585H22.9759V10.0569H24.0604V10.7521H22.9759V12.205H22.2217V8.45459H24.1473V9.14975L24.1577 9.13585Z" fill="#001B62"/>
<path d="M26.5217 12.1845H24.5127V8.448H26.4348V9.14316H25.2704V9.97735H26.3653V10.6725H25.2704V11.5067H26.5217V12.2019V12.1845Z" fill="#001B62"/>
<path d="M29.6672 12.1845H28.7982L28.2768 11.2217C28.2485 11.1514 28.2136 11.0839 28.1726 11.0201C28.1445 10.9659 28.1095 10.9157 28.0683 10.8706C28.0365 10.8336 27.9989 10.8019 27.9571 10.7768C27.9176 10.7521 27.8715 10.7399 27.825 10.742H27.6164V12.1741H26.8691V8.448H28.0579C28.8677 8.448 29.2744 8.79558 29.2744 9.46641C29.2729 9.58386 29.2566 9.70065 29.2257 9.81399C29.1908 9.91822 29.1404 10.0166 29.0763 10.106C29.009 10.1925 28.9294 10.2686 28.8399 10.3319C28.7444 10.3961 28.6403 10.4464 28.5306 10.4813C28.5846 10.5019 28.6341 10.5325 28.6766 10.5717C28.7255 10.6154 28.7719 10.6618 28.8156 10.7107C28.86 10.7622 28.9006 10.8168 28.9372 10.8741C28.972 10.9367 29.0137 10.9958 29.0415 11.0479L29.6672 12.1845ZM27.6164 9.05626V10.099H27.9466C28.017 10.1073 28.0882 10.1007 28.1559 10.0797C28.2235 10.0588 28.286 10.0239 28.3394 9.97735C28.4353 9.87059 28.4875 9.73157 28.4854 9.58806C28.4854 9.25786 28.3116 9.09797 27.964 9.09797H27.6164V9.05626Z" fill="#001B62"/>
<path d="M17.9186 12.243C17.6958 12.2479 17.4748 12.203 17.2715 12.1116C17.0683 12.0202 16.888 11.8846 16.7438 11.7147C16.4307 11.3304 16.2709 10.8438 16.2954 10.3487C16.2766 9.83779 16.4391 9.33667 16.7542 8.93407C16.9009 8.75493 17.0871 8.61215 17.2981 8.51688C17.5092 8.42161 17.7394 8.37644 17.9708 8.38489C18.1913 8.37532 18.4111 8.41676 18.6131 8.50598C18.815 8.5952 18.9937 8.7298 19.1351 8.89931C19.4492 9.29234 19.6076 9.78727 19.58 10.2896C19.6049 10.8069 19.4364 11.3148 19.1073 11.7147C18.9644 11.8897 18.7824 12.0287 18.5759 12.1205C18.3694 12.2122 18.1443 12.2542 17.9186 12.243ZM17.9534 9.11481C17.8297 9.1123 17.7073 9.14129 17.5979 9.19905C17.4884 9.25681 17.3955 9.34145 17.3277 9.44501C17.1583 9.70594 17.0756 10.0137 17.0914 10.3244C17.0744 10.6352 17.1572 10.9433 17.3277 11.2038C17.3966 11.3027 17.4883 11.3835 17.5951 11.4394C17.7019 11.4952 17.8207 11.5243 17.9412 11.5243C18.0617 11.5243 18.1805 11.4952 18.2873 11.4394C18.3941 11.3835 18.4859 11.3027 18.5547 11.2038C18.7254 10.9435 18.8071 10.635 18.7876 10.3244C18.8041 10.0087 18.7293 9.69494 18.5721 9.42068C18.5053 9.31896 18.4131 9.23654 18.3045 9.18164C18.1959 9.12675 18.0749 9.10131 17.9534 9.10786V9.11481Z" fill="#001B62"/>
<path d="M21.8638 9.13585H20.682V10.0569H21.7664V10.7521H20.682V12.205H19.9277V8.45459H21.8568V9.14975L21.8638 9.13585Z" fill="#001B62"/>
<path d="M24.1577 9.13585H22.9759V10.0569H24.0604V10.7521H22.9759V12.205H22.2217V8.45459H24.1473V9.14975L24.1577 9.13585Z" fill="#001B62"/>
<path d="M26.5217 12.1845H24.5127V8.448H26.4348V9.14316H25.2704V9.97735H26.3653V10.6725H25.2704V11.5067H26.5217V12.2019V12.1845Z" fill="#001B62"/>
<path d="M29.6672 12.1845H28.7982L28.2768 11.2217C28.2485 11.1514 28.2136 11.0839 28.1726 11.0201C28.1445 10.9659 28.1095 10.9157 28.0683 10.8706C28.0365 10.8336 27.9989 10.8019 27.9571 10.7768C27.9176 10.7521 27.8715 10.7399 27.825 10.742H27.6164V12.1741H26.8691V8.448H28.0579C28.8677 8.448 29.2744 8.79558 29.2744 9.46641C29.2729 9.58386 29.2566 9.70065 29.2257 9.81399C29.1908 9.91822 29.1404 10.0166 29.0763 10.106C29.009 10.1925 28.9294 10.2686 28.8399 10.3319C28.7444 10.3961 28.6403 10.4464 28.5306 10.4813C28.5846 10.5019 28.6341 10.5325 28.6766 10.5717C28.7255 10.6154 28.7719 10.6618 28.8156 10.7107C28.86 10.7622 28.9006 10.8168 28.9372 10.8741C28.972 10.9367 29.0137 10.9958 29.0415 11.0479L29.6672 12.1845ZM27.6164 9.05626V10.099H27.9466C28.017 10.1073 28.0882 10.1007 28.1559 10.0797C28.2235 10.0588 28.286 10.0239 28.3394 9.97735C28.4353 9.87059 28.4875 9.73157 28.4854 9.58806C28.4854 9.25786 28.3116 9.09797 27.964 9.09797H27.6164V9.05626Z" fill="#001B62"/>
<path d="M14.8252 5.29209V4.78114C14.8795 4.8348 14.9402 4.8815 15.0059 4.92018C15.0758 4.96125 15.149 4.99614 15.2249 5.02445C15.301 5.05239 15.3788 5.07561 15.4578 5.09397C15.5297 5.11008 15.6031 5.11824 15.6768 5.1183C15.8601 5.13159 16.0422 5.07991 16.1912 4.97231C16.2495 4.91875 16.2954 4.85298 16.3254 4.77969C16.3555 4.70639 16.369 4.62738 16.365 4.54827C16.3645 4.45771 16.3468 4.36807 16.3128 4.2841C16.2722 4.20879 16.218 4.14162 16.153 4.08598C16.0802 4.02175 16.0023 3.96363 15.9201 3.91219L15.6246 3.7384C15.5169 3.67804 15.4124 3.6119 15.3118 3.54028C15.2209 3.47637 15.137 3.40297 15.0615 3.32131C14.9907 3.24252 14.9343 3.15194 14.8947 3.05367C14.8508 2.94316 14.8296 2.82497 14.8321 2.70609C14.8281 2.5521 14.8615 2.39944 14.9295 2.26119C14.9902 2.14262 15.0755 2.03836 15.1797 1.95532C15.2845 1.87576 15.402 1.81464 15.5273 1.77458C15.6588 1.73291 15.7961 1.71295 15.934 1.71549C16.1729 1.69774 16.4124 1.74204 16.6291 1.84409V2.33071C16.4208 2.17545 16.1658 2.09577 15.9062 2.10478C15.8257 2.10593 15.7454 2.11407 15.6663 2.12911C15.5885 2.14938 15.5146 2.18226 15.4474 2.22643C15.3848 2.27408 15.3318 2.33303 15.291 2.40022C15.2464 2.47955 15.2259 2.57012 15.2319 2.66091C15.2297 2.74395 15.2439 2.82661 15.2736 2.90421C15.305 2.97579 15.3498 3.04068 15.4057 3.09538C15.4722 3.15643 15.5444 3.21112 15.6212 3.25874C15.708 3.31436 15.8019 3.37345 15.9166 3.43601C16.029 3.49491 16.136 3.56353 16.2364 3.64108C16.3379 3.71023 16.4291 3.79331 16.5075 3.88786C16.582 3.97371 16.644 4.06967 16.6917 4.17288C16.7359 4.28353 16.7594 4.40133 16.7612 4.52046C16.7661 4.67899 16.7327 4.83637 16.6639 4.97926C16.6039 5.09932 16.5171 5.20397 16.4102 5.28514C16.3062 5.36433 16.1883 5.42329 16.0626 5.45893C15.9229 5.49463 15.7792 5.51215 15.6351 5.51106C15.5829 5.51106 15.5238 5.51106 15.4543 5.51106C15.378 5.50137 15.3025 5.48627 15.2284 5.46588C15.1539 5.44915 15.0807 5.42708 15.0094 5.39984C14.9225 5.35465 14.8669 5.31989 14.8252 5.29209Z" fill="white"/>
<path d="M17.745 4.06865V5.45897H17.3975V1.75725H18.2664C18.4105 1.74753 18.555 1.76785 18.6908 1.81691C18.8267 1.86597 18.9508 1.94271 19.0554 2.04226C19.252 2.26473 19.3532 2.55566 19.337 2.85212C19.3442 3.17436 19.2243 3.48649 19.0033 3.72107C18.8948 3.83273 18.7634 3.9197 18.6183 3.97608C18.4732 4.03246 18.3176 4.05692 18.1621 4.0478H17.745V4.06865ZM17.745 2.16739V3.66198H18.1343C18.2418 3.66861 18.3494 3.65356 18.451 3.61773C18.5525 3.58191 18.6457 3.52603 18.7252 3.45344C18.7951 3.37608 18.8487 3.28542 18.8827 3.18687C18.9168 3.08833 18.9306 2.98393 18.9233 2.87993C18.937 2.77964 18.927 2.67755 18.8942 2.58179C18.8615 2.48604 18.8068 2.39925 18.7345 2.32836C18.6623 2.25747 18.5745 2.20444 18.4781 2.17347C18.3818 2.14251 18.2795 2.13447 18.1795 2.15001L17.745 2.16739Z" fill="white"/>
<path d="M21.6028 5.45954H19.917V1.75781H21.5263V2.15058H20.282V3.37406H21.429V3.76335H20.282V5.05287H21.5958V5.45954H21.6028Z" fill="white"/>
<path d="M24.3764 5.28555C24.1091 5.43793 23.8045 5.51257 23.497 5.50105C23.2888 5.5091 23.0815 5.46762 22.8924 5.38C22.7033 5.29239 22.5376 5.16115 22.4091 4.99706C22.1259 4.61393 21.9823 4.14535 22.0024 3.66931C21.9777 3.15381 22.1421 2.64701 22.4647 2.24423C22.6048 2.07185 22.7819 1.93327 22.9829 1.83879C23.1839 1.74431 23.4036 1.69637 23.6256 1.69853C23.8836 1.69083 24.1401 1.7407 24.3764 1.84451V2.30332C24.1499 2.15993 23.8868 2.08509 23.6187 2.08782C23.4479 2.08289 23.2783 2.11879 23.1242 2.19254C22.97 2.2663 22.8357 2.37577 22.7324 2.51186C22.4904 2.83743 22.3677 3.23624 22.3848 3.6415C22.3598 4.02512 22.4733 4.40498 22.7046 4.71205C22.8045 4.83978 22.933 4.94242 23.0796 5.01181C23.2262 5.0812 23.387 5.11542 23.5492 5.11176C23.8437 5.12038 24.1334 5.03518 24.3764 4.86846V5.28555Z" fill="white"/>
<path d="M25.7045 1.75866V2.13057H25.3916V5.0711H25.7045V5.46039H24.7139V5.0711H25.0441V2.12362H24.7312V1.75171H25.7045V1.75866Z" fill="white"/>
<path d="M28.6827 5.45852H28.276L27.9285 4.41578H26.5903L26.2774 5.45852H25.8604L27.0769 1.77417H27.4766L28.6827 5.45852ZM27.8242 4.01606L27.3202 2.44152C27.2962 2.36198 27.2788 2.28061 27.2681 2.19822C27.2545 2.28039 27.236 2.36164 27.2124 2.44152L26.7119 4.01606H27.8242Z" fill="white"/>
<path d="M30.8068 5.45954H29.1523V1.75781H29.5277V5.05287H30.8068V5.45954Z" fill="white"/>
</svg>
