<svg width="59" height="59" viewBox="0 0 59 59" fill="none" xmlns="http://www.w3.org/2000/svg">
<rect x="0.801758" y="0.929932" width="57.934" height="57.934" rx="5.74571" fill="white"/>
<path d="M8.10156 25.8248L8.97752 24.0347L16.5831 28.4145L8.10156 25.8248Z" fill="#371400"/>
<path d="M13.2217 25.5294L13.7431 24.7646L16.6699 27.8305L13.2217 25.5294Z" fill="#FEBE10"/>
<path d="M51.5521 33.2567L50.8396 35.6691L42.9072 30.8826L51.5521 33.2567Z" fill="#371400"/>
<path d="M46.5044 34.2303L46.0491 35.2905L42.8789 31.6406L46.5044 34.2303Z" fill="#FEBE10"/>
<path d="M45.8756 29.9094H20.5631L14.7129 23.1763H40.0393L45.8756 29.9094Z" fill="#371400"/>
<path d="M45.2434 36.646H22.4927L16.6426 29.9094H39.4037L45.2434 36.646Z" fill="#FEBE10"/>
<path d="M26.0028 35.1759C25.7805 35.1821 25.5596 35.1385 25.3563 35.0483C25.153 34.9581 24.9725 34.8235 24.8279 34.6545C24.5142 34.2705 24.3544 33.7836 24.3795 33.2884C24.3571 32.7716 24.5198 32.2638 24.8384 31.8563C24.9858 31.6782 25.1722 31.5363 25.3831 31.4417C25.5941 31.3471 25.8239 31.3022 26.055 31.3106C26.2745 31.3043 26.4925 31.3476 26.6929 31.4373C26.8933 31.5269 27.0709 31.6607 27.2125 31.8285C27.5033 32.238 27.6578 32.7287 27.6541 33.231C27.6503 33.7332 27.4885 34.2216 27.1917 34.6267C27.0513 34.806 26.8702 34.9493 26.6635 35.0448C26.4568 35.1402 26.2304 35.1852 26.0028 35.1759ZM26.0376 32.0475C25.9121 32.0461 25.7884 32.0775 25.6787 32.1384C25.569 32.1994 25.4771 32.2878 25.4119 32.3951C25.2594 32.6593 25.1791 32.959 25.1791 33.2641C25.1791 33.5692 25.2594 33.8689 25.4119 34.1331C25.4809 34.2313 25.5724 34.3116 25.6789 34.3669C25.7854 34.4223 25.9037 34.4512 26.0237 34.4512C26.1437 34.4512 26.262 34.4223 26.3685 34.3669C26.475 34.3116 26.5666 34.2313 26.6355 34.1331C26.8032 33.8755 26.8837 33.5709 26.8649 33.2641C26.8796 32.9481 26.8036 32.6345 26.6459 32.3603C26.5813 32.2582 26.4913 32.1747 26.3846 32.118C26.2779 32.0613 26.1583 32.0334 26.0376 32.037V32.0475Z" fill="white"/>
<path d="M29.9481 32.0648H28.7836V32.9859H29.8681V33.6812H28.7836V35.1237H28.0293V31.387H29.9585V32.0648H29.9481Z" fill="white"/>
<path d="M32.2604 32.0648H31.0785V32.9859H32.163V33.6812H31.0785V35.1237H30.3242V31.387H32.2499V32.0648H32.2604Z" fill="white"/>
<path d="M34.6061 35.1233H32.6074V31.3796H34.5366V32.0748H33.3617V32.9091H34.4567V33.6043H33.3617V34.4281H34.6131V35.1233H34.6061Z" fill="white"/>
<path d="M37.7523 35.1233H36.8833L36.3619 34.1605C36.3288 34.0938 36.2905 34.0298 36.2472 33.9693C36.2199 33.9157 36.1847 33.8665 36.1429 33.8233C36.1111 33.7853 36.0736 33.7524 36.0317 33.726C35.9915 33.7028 35.9459 33.6908 35.8996 33.6912H35.7015V35.1233H34.9541V31.3796H36.1429C36.954 31.3796 37.3595 31.718 37.3595 32.3946C37.3619 32.5181 37.3455 32.6411 37.3109 32.7596C37.2767 32.8653 37.2262 32.9649 37.1614 33.0551C37.0941 33.1416 37.0145 33.2177 36.925 33.281C36.8294 33.3442 36.7252 33.3933 36.6157 33.427C36.6689 33.4475 36.7183 33.4769 36.7616 33.5139C36.8034 33.5591 36.8555 33.6008 36.9007 33.653C36.9451 33.7044 36.9857 33.759 37.0224 33.8163C37.0571 33.8789 37.0988 33.938 37.1266 33.9936L37.7523 35.1233ZM35.7015 31.9949V33.0377H36.0491C36.1219 33.0414 36.1947 33.0293 36.2625 33.0023C36.3303 32.9754 36.3915 32.9341 36.4419 32.8813C36.5386 32.7736 36.5908 32.6332 36.5878 32.4885C36.5878 32.1583 36.414 32.0018 36.0664 32.0018H35.7188L35.7015 31.9949Z" fill="white"/>
<path d="M26.0028 35.1759C25.7805 35.1821 25.5596 35.1385 25.3563 35.0483C25.153 34.9581 24.9725 34.8235 24.8279 34.6545C24.5142 34.2705 24.3544 33.7836 24.3795 33.2884C24.3571 32.7716 24.5198 32.2638 24.8384 31.8563C24.9858 31.6782 25.1722 31.5363 25.3831 31.4417C25.5941 31.3471 25.8239 31.3022 26.055 31.3106C26.2745 31.3043 26.4925 31.3476 26.6929 31.4373C26.8933 31.5269 27.0709 31.6607 27.2125 31.8285C27.5033 32.238 27.6578 32.7287 27.6541 33.231C27.6503 33.7332 27.4885 34.2216 27.1917 34.6267C27.0513 34.806 26.8702 34.9493 26.6635 35.0448C26.4568 35.1402 26.2304 35.1852 26.0028 35.1759ZM26.0376 32.0475C25.9121 32.0461 25.7884 32.0775 25.6787 32.1384C25.569 32.1994 25.4771 32.2878 25.4119 32.3951C25.2594 32.6593 25.1791 32.959 25.1791 33.2641C25.1791 33.5692 25.2594 33.8689 25.4119 34.1331C25.4809 34.2313 25.5724 34.3116 25.6789 34.3669C25.7854 34.4223 25.9037 34.4512 26.0237 34.4512C26.1437 34.4512 26.262 34.4223 26.3685 34.3669C26.475 34.3116 26.5666 34.2313 26.6355 34.1331C26.8032 33.8755 26.8837 33.5709 26.8649 33.2641C26.8796 32.9481 26.8036 32.6345 26.6459 32.3603C26.5813 32.2582 26.4913 32.1747 26.3846 32.118C26.2779 32.0613 26.1583 32.0334 26.0376 32.037V32.0475Z" fill="#371400"/>
<path d="M29.9481 32.0648H28.7836V32.9859H29.8681V33.6812H28.7836V35.1237H28.0293V31.387H29.9585V32.0648H29.9481Z" fill="#371400"/>
<path d="M32.2604 32.0648H31.0785V32.9859H32.163V33.6812H31.0785V35.1237H30.3242V31.387H32.2499V32.0648H32.2604Z" fill="#371400"/>
<path d="M34.6061 35.1233H32.6074V31.3796H34.5366V32.0748H33.3617V32.9091H34.4567V33.6043H33.3617V34.4281H34.6131V35.1233H34.6061Z" fill="#371400"/>
<path d="M37.7523 35.1233H36.8833L36.3619 34.1605C36.3288 34.0938 36.2905 34.0298 36.2472 33.9693C36.2199 33.9157 36.1847 33.8665 36.1429 33.8233C36.1111 33.7853 36.0736 33.7524 36.0317 33.726C35.9915 33.7028 35.9459 33.6908 35.8996 33.6912H35.7015V35.1233H34.9541V31.3796H36.1429C36.954 31.3796 37.3595 31.718 37.3595 32.3946C37.3619 32.5181 37.3455 32.6411 37.3109 32.7596C37.2767 32.8653 37.2262 32.9649 37.1614 33.0551C37.0941 33.1416 37.0145 33.2177 36.925 33.281C36.8294 33.3442 36.7252 33.3933 36.6157 33.427C36.6689 33.4475 36.7183 33.4769 36.7616 33.5139C36.8034 33.5591 36.8555 33.6008 36.9007 33.653C36.9451 33.7044 36.9857 33.759 37.0224 33.8163C37.0571 33.8789 37.0988 33.938 37.1266 33.9936L37.7523 35.1233ZM35.7015 31.9949V33.0377H36.0491C36.1219 33.0414 36.1947 33.0293 36.2625 33.0023C36.3303 32.9754 36.3915 32.9341 36.4419 32.8813C36.5386 32.7736 36.5908 32.6332 36.5878 32.4885C36.5878 32.1583 36.414 32.0018 36.0664 32.0018H35.7188L35.7015 31.9949Z" fill="#371400"/>
<path d="M26.0028 35.1759C25.7805 35.1821 25.5596 35.1385 25.3563 35.0483C25.153 34.9581 24.9725 34.8235 24.8279 34.6545C24.5142 34.2705 24.3544 33.7836 24.3795 33.2884C24.3571 32.7716 24.5198 32.2638 24.8384 31.8563C24.9858 31.6782 25.1722 31.5363 25.3831 31.4417C25.5941 31.3471 25.8239 31.3022 26.055 31.3106C26.2745 31.3043 26.4925 31.3476 26.6929 31.4373C26.8933 31.5269 27.0709 31.6607 27.2125 31.8285C27.5033 32.238 27.6578 32.7287 27.6541 33.231C27.6503 33.7332 27.4885 34.2216 27.1917 34.6267C27.0513 34.806 26.8702 34.9493 26.6635 35.0448C26.4568 35.1402 26.2304 35.1852 26.0028 35.1759ZM26.0376 32.0475C25.9121 32.0461 25.7884 32.0775 25.6787 32.1384C25.569 32.1994 25.4771 32.2878 25.4119 32.3951C25.2594 32.6593 25.1791 32.959 25.1791 33.2641C25.1791 33.5692 25.2594 33.8689 25.4119 34.1331C25.4809 34.2313 25.5724 34.3116 25.6789 34.3669C25.7854 34.4223 25.9037 34.4512 26.0237 34.4512C26.1437 34.4512 26.262 34.4223 26.3685 34.3669C26.475 34.3116 26.5666 34.2313 26.6355 34.1331C26.8032 33.8755 26.8837 33.5709 26.8649 33.2641C26.8796 32.9481 26.8036 32.6345 26.6459 32.3603C26.5813 32.2582 26.4913 32.1747 26.3846 32.118C26.2779 32.0613 26.1583 32.0334 26.0376 32.037V32.0475Z" fill="#371400"/>
<path d="M29.9481 32.0648H28.7836V32.9859H29.8681V33.6812H28.7836V35.1237H28.0293V31.387H29.9585V32.0648H29.9481Z" fill="#371400"/>
<path d="M32.2604 32.0648H31.0785V32.9859H32.163V33.6812H31.0785V35.1237H30.3242V31.387H32.2499V32.0648H32.2604Z" fill="#371400"/>
<path d="M34.6061 35.1233H32.6074V31.3796H34.5366V32.0748H33.3617V32.9091H34.4567V33.6043H33.3617V34.4281H34.6131V35.1233H34.6061Z" fill="#371400"/>
<path d="M37.7523 35.1233H36.8833L36.3619 34.1605C36.3288 34.0938 36.2905 34.0298 36.2472 33.9693C36.2199 33.9157 36.1847 33.8665 36.1429 33.8233C36.1111 33.7853 36.0736 33.7524 36.0317 33.726C35.9915 33.7028 35.9459 33.6908 35.8996 33.6912H35.7015V35.1233H34.9541V31.3796H36.1429C36.954 31.3796 37.3595 31.718 37.3595 32.3946C37.3619 32.5181 37.3455 32.6411 37.3109 32.7596C37.2767 32.8653 37.2262 32.9649 37.1614 33.0551C37.0941 33.1416 37.0145 33.2177 36.925 33.281C36.8294 33.3442 36.7252 33.3933 36.6157 33.427C36.6689 33.4475 36.7183 33.4769 36.7616 33.5139C36.8034 33.5591 36.8555 33.6008 36.9007 33.653C36.9451 33.7044 36.9857 33.759 37.0224 33.8163C37.0571 33.8789 37.0988 33.938 37.1266 33.9936L37.7523 35.1233ZM35.7015 31.9949V33.0377H36.0491C36.1219 33.0414 36.1947 33.0293 36.2625 33.0023C36.3303 32.9754 36.3915 32.9341 36.4419 32.8813C36.5386 32.7736 36.5908 32.6332 36.5878 32.4885C36.5878 32.1583 36.414 32.0018 36.0664 32.0018H35.7188L35.7015 31.9949Z" fill="#371400"/>
<path d="M26.0028 35.1759C25.7805 35.1821 25.5596 35.1385 25.3563 35.0483C25.153 34.9581 24.9725 34.8235 24.8279 34.6545C24.5142 34.2705 24.3544 33.7836 24.3795 33.2884C24.3571 32.7716 24.5198 32.2638 24.8384 31.8563C24.9858 31.6782 25.1722 31.5363 25.3831 31.4417C25.5941 31.3471 25.8239 31.3022 26.055 31.3106C26.2745 31.3043 26.4925 31.3476 26.6929 31.4373C26.8933 31.5269 27.0709 31.6607 27.2125 31.8285C27.5033 32.238 27.6578 32.7287 27.6541 33.231C27.6503 33.7332 27.4885 34.2216 27.1917 34.6267C27.0513 34.806 26.8702 34.9493 26.6635 35.0448C26.4568 35.1402 26.2304 35.1852 26.0028 35.1759ZM26.0376 32.0475C25.9121 32.0461 25.7884 32.0775 25.6787 32.1384C25.569 32.1994 25.4771 32.2878 25.4119 32.3951C25.2594 32.6593 25.1791 32.959 25.1791 33.2641C25.1791 33.5692 25.2594 33.8689 25.4119 34.1331C25.4809 34.2313 25.5724 34.3116 25.6789 34.3669C25.7854 34.4223 25.9037 34.4512 26.0237 34.4512C26.1437 34.4512 26.262 34.4223 26.3685 34.3669C26.475 34.3116 26.5666 34.2313 26.6355 34.1331C26.8032 33.8755 26.8837 33.5709 26.8649 33.2641C26.8796 32.9481 26.8036 32.6345 26.6459 32.3603C26.5813 32.2582 26.4913 32.1747 26.3846 32.118C26.2779 32.0613 26.1583 32.0334 26.0376 32.037V32.0475Z" fill="#371400"/>
<path d="M29.9481 32.0648H28.7836V32.9859H29.8681V33.6812H28.7836V35.1237H28.0293V31.387H29.9585V32.0648H29.9481Z" fill="#371400"/>
<path d="M32.2604 32.0648H31.0785V32.9859H32.163V33.6812H31.0785V35.1237H30.3242V31.387H32.2499V32.0648H32.2604Z" fill="#371400"/>
<path d="M34.6061 35.1233H32.6074V31.3796H34.5366V32.0748H33.3617V32.9091H34.4567V33.6043H33.3617V34.4281H34.6131V35.1233H34.6061Z" fill="#371400"/>
<path d="M37.7523 35.1233H36.8833L36.3619 34.1605C36.3288 34.0938 36.2905 34.0298 36.2472 33.9693C36.2199 33.9157 36.1847 33.8665 36.1429 33.8233C36.1111 33.7853 36.0736 33.7524 36.0317 33.726C35.9915 33.7028 35.9459 33.6908 35.8996 33.6912H35.7015V35.1233H34.9541V31.3796H36.1429C36.954 31.3796 37.3595 31.718 37.3595 32.3946C37.3619 32.5181 37.3455 32.6411 37.3109 32.7596C37.2767 32.8653 37.2262 32.9649 37.1614 33.0551C37.0941 33.1416 37.0145 33.2177 36.925 33.281C36.8294 33.3442 36.7252 33.3933 36.6157 33.427C36.6689 33.4475 36.7183 33.4769 36.7616 33.5139C36.8034 33.5591 36.8555 33.6008 36.9007 33.653C36.9451 33.7044 36.9857 33.759 37.0224 33.8163C37.0571 33.8789 37.0988 33.938 37.1266 33.9936L37.7523 35.1233ZM35.7015 31.9949V33.0377H36.0491C36.1219 33.0414 36.1947 33.0293 36.2625 33.0023C36.3303 32.9754 36.3915 32.9341 36.4419 32.8813C36.5386 32.7736 36.5908 32.6332 36.5878 32.4885C36.5878 32.1583 36.414 32.0018 36.0664 32.0018H35.7188L35.7015 31.9949Z" fill="#371400"/>
<path d="M22.9092 28.2237V27.7127C22.9643 27.7653 23.0249 27.8119 23.0899 27.8518C23.1601 27.8921 23.2333 27.927 23.3089 27.9561L23.5418 28.0256C23.614 28.04 23.6872 28.0481 23.7608 28.0499C23.9435 28.0629 24.1249 28.0099 24.2718 27.9004C24.3316 27.8478 24.3786 27.7823 24.4093 27.7088C24.44 27.6354 24.4536 27.5559 24.4491 27.4764C24.4487 27.3865 24.4298 27.2978 24.3934 27.2157C24.3542 27.1394 24.3012 27.071 24.237 27.014C24.1641 26.9501 24.0862 26.892 24.0041 26.8402L23.7087 26.6664C23.5992 26.6089 23.4946 26.5427 23.3958 26.4683C23.3046 26.4047 23.2196 26.3325 23.1421 26.2528C23.0734 26.1718 23.0183 26.0802 22.9787 25.9817C22.9341 25.8714 22.9128 25.753 22.9161 25.6341C22.9147 25.4837 22.948 25.335 23.0135 25.1996C23.0731 25.0802 23.1586 24.9757 23.2637 24.8937C23.3687 24.8136 23.4861 24.7513 23.6113 24.7094C23.7432 24.6697 23.8803 24.6498 24.018 24.6503C24.2573 24.6337 24.4968 24.6792 24.7132 24.7824V25.2656C24.5045 25.1116 24.2495 25.0331 23.9902 25.0431C23.9096 25.0426 23.8292 25.0508 23.7504 25.0675C23.6713 25.084 23.5967 25.1172 23.5314 25.1648C23.4681 25.2117 23.4149 25.2708 23.375 25.3386C23.3296 25.4176 23.309 25.5084 23.3159 25.5993C23.3138 25.6812 23.3279 25.7627 23.3576 25.8391C23.3892 25.9108 23.4327 25.9766 23.4862 26.0338C23.5556 26.0929 23.6287 26.1475 23.7052 26.1972C23.7921 26.2493 23.8859 26.3084 24.0007 26.371C24.1119 26.4332 24.2187 26.5028 24.3205 26.5795C24.4234 26.6455 24.5149 26.7277 24.5916 26.8229C24.6661 26.9087 24.7281 27.0047 24.7758 27.1079C24.8221 27.2252 24.8457 27.3502 24.8453 27.4764C24.8494 27.6348 24.8161 27.792 24.748 27.9352C24.6902 28.0557 24.6029 28.1597 24.4943 28.2376C24.3906 28.3172 24.2726 28.3762 24.1466 28.4114C24.0083 28.4481 23.8657 28.4668 23.7226 28.467C23.6607 28.4645 23.5992 28.4575 23.5383 28.4462C23.4622 28.4373 23.3867 28.4234 23.3124 28.4045C23.2376 28.3876 23.1643 28.3643 23.0934 28.3349C23.0296 28.302 22.968 28.2648 22.9092 28.2237Z" fill="white"/>
<path d="M25.8358 26.9827V28.3731H25.4639V24.6955H26.3503C26.4943 24.6858 26.6389 24.7061 26.7747 24.7551C26.9105 24.8042 27.0347 24.881 27.1393 24.9805C27.2364 25.09 27.311 25.2176 27.3587 25.356C27.4065 25.4944 27.4264 25.6409 27.4174 25.787C27.4303 26.1042 27.3179 26.4139 27.1046 26.649C26.9968 26.7619 26.8656 26.8499 26.7204 26.9069C26.5751 26.9639 26.4191 26.9886 26.2634 26.9792H25.8532L25.8358 26.9827ZM25.8358 25.0778V26.5899H26.2286C26.3361 26.5974 26.444 26.5827 26.5456 26.5468C26.6473 26.5109 26.7405 26.4546 26.8195 26.3814C26.8898 26.3042 26.9435 26.2136 26.9776 26.115C27.0117 26.0164 27.0253 25.9119 27.0177 25.8078C27.0306 25.7077 27.0201 25.6059 26.987 25.5105C26.954 25.415 26.8993 25.3286 26.8272 25.2579C26.7552 25.1871 26.6677 25.1341 26.5717 25.1028C26.4756 25.0716 26.3737 25.0631 26.2738 25.0778H25.8358Z" fill="white"/>
<path d="M29.6878 28.3695H28.002V24.6953H29.6114V25.0846H28.3669V26.3082H29.514V26.701H28.3669V27.9871H29.6809V28.3764L29.6878 28.3695Z" fill="white"/>
<path d="M32.4617 28.2133C32.1953 28.3685 31.8902 28.4445 31.5822 28.4323C31.374 28.4395 31.1671 28.3977 30.9781 28.3101C30.7891 28.2226 30.6233 28.0918 30.4942 27.9283C30.211 27.5451 30.0674 27.0765 30.0875 26.6005C30.0621 26.0848 30.2266 25.5778 30.5498 25.1753C30.6892 25.0019 30.8661 24.8623 31.0672 24.7672C31.2683 24.6721 31.4884 24.6238 31.7108 24.6261C31.9692 24.618 32.226 24.6692 32.4617 24.7755V25.2344C32.2365 25.0875 31.9727 25.0112 31.7039 25.0154C31.5328 25.0111 31.3632 25.0477 31.209 25.1221C31.0549 25.1964 30.9207 25.3064 30.8175 25.4429C30.5756 25.7685 30.4528 26.1674 30.4699 26.5726C30.4448 26.9552 30.5583 27.3341 30.7897 27.6398C30.8886 27.7661 31.0154 27.8679 31.1601 27.9372C31.3048 28.0066 31.4635 28.0416 31.6239 28.0395C31.9185 28.0482 32.2082 27.963 32.4512 27.7962V28.2133H32.4617Z" fill="white"/>
<path d="M33.7895 24.6953V25.0673H33.4767V28.0045H33.7895V28.3764H32.7988V27.9976H33.1117V25.0429H32.7988V24.6953H33.7895Z" fill="white"/>
<path d="M36.7785 28.3696H36.3614L36.0138 27.3268H34.6929L34.38 28.3696H33.9629L35.1795 24.6885H35.5619L36.7785 28.3696ZM35.9095 26.9479L35.4054 25.3906C35.3819 25.311 35.3644 25.2296 35.3533 25.1473C35.3533 25.2516 35.3151 25.3281 35.3012 25.3906L34.8041 26.9653L35.9095 26.9479Z" fill="white"/>
<path d="M38.8919 28.3695H37.2373V24.6953H37.6127V27.9871H38.8919V28.3695Z" fill="white"/>
</svg>
