<svg width="59" height="59" viewBox="0 0 59 59" fill="none" xmlns="http://www.w3.org/2000/svg">
<rect x="0.933594" y="0.929932" width="57.934" height="57.934" rx="5.74571" fill="white"/>
<path d="M45.643 8.11401V31.6468L29.9069 47.3933L14.1709 31.6468V8.11401H29.9069H45.643Z" fill="#002540"/>
<path d="M29.9068 45.0817L29.8546 45.0296L15.874 31.0385V9.16382H16.02V30.9794L29.9068 44.8732L43.7936 30.9794V9.16382H43.943V31.0385L43.9257 31.0629L29.9068 45.0817Z" fill="white"/>
<path d="M20.946 25.5011C20.5431 25.5136 20.1426 25.4351 19.7743 25.2714C19.406 25.1077 19.0793 24.863 18.8187 24.5556C18.248 23.8591 17.9535 22.9769 17.9914 22.0772C17.9485 21.1358 18.2459 20.2104 18.8291 19.4702C19.0971 19.1454 19.4362 18.8866 19.8201 18.7136C20.204 18.5407 20.6225 18.4582 21.0433 18.4725C21.4407 18.4633 21.835 18.5446 22.1963 18.7102C22.5576 18.8758 22.8766 19.1214 23.129 19.4285C23.6912 20.1403 23.9754 21.0323 23.9284 21.9382C23.9755 22.8721 23.6788 23.7909 23.0942 24.5209C22.8341 24.8366 22.5054 25.089 22.1332 25.2589C21.761 25.4287 21.355 25.5116 20.946 25.5011ZM21.0016 19.7865C20.7739 19.7813 20.5486 19.8344 20.3472 19.9409C20.1458 20.0474 19.975 20.2036 19.8511 20.3948C19.5466 20.8693 19.3983 21.4272 19.427 21.9903C19.3955 22.5547 19.544 23.1146 19.8511 23.5893C19.9749 23.7704 20.1407 23.919 20.3344 24.0223C20.528 24.1257 20.7437 24.1807 20.9632 24.1828C21.1826 24.1848 21.3993 24.1338 21.5948 24.0341C21.7904 23.9344 21.9589 23.789 22.0861 23.6101C22.3888 23.139 22.5348 22.5842 22.5033 22.0251C22.5388 21.4503 22.3994 20.8783 22.1035 20.3844C21.9881 20.1971 21.8257 20.0433 21.6323 19.9384C21.439 19.8335 21.2215 19.7811 21.0016 19.7865Z" fill="white"/>
<path d="M28.1275 19.8282H25.9793V21.4967H27.9537V22.7411H25.9793V25.3794H24.5889V18.5837H28.0997V19.8282H28.1275Z" fill="white"/>
<path d="M32.2881 19.8282H30.1399V21.4967H32.1143V22.7411H30.1399V25.3794H28.7773V18.5837H32.2881V19.8282Z" fill="white"/>
<path d="M36.5876 25.3794H32.9482V18.5837H36.4521V19.8282H34.3108V21.3402H36.3026V22.5812H34.3108V24.1385H36.5876V25.3794Z" fill="white"/>
<path d="M42.3168 25.3795H40.7422L39.7967 23.6415C39.7272 23.5094 39.6576 23.3912 39.5985 23.2939C39.5396 23.1988 39.4721 23.1092 39.3969 23.0262C39.3364 22.9583 39.2661 22.8997 39.1884 22.8524C39.1188 22.8087 39.0376 22.7869 38.9555 22.7899H38.5974V25.3899H37.207V18.5769H39.3796C40.8569 18.5769 41.5938 19.1956 41.5938 20.4262C41.5936 20.6508 41.562 20.8742 41.4999 21.0901C41.4334 21.282 41.3397 21.4634 41.2219 21.6289C41.1026 21.7899 40.9583 21.9308 40.7943 22.046C40.6186 22.1633 40.428 22.2569 40.2277 22.3241C40.3223 22.3637 40.4102 22.4176 40.4884 22.484C40.5781 22.5586 40.6596 22.6425 40.7317 22.7342C40.814 22.8317 40.8906 22.9339 40.9612 23.0401L41.1593 23.3599L42.3168 25.3795ZM38.5974 19.7309V21.6289H39.1884C39.3182 21.6336 39.4475 21.6102 39.5674 21.5604C39.6874 21.5106 39.7952 21.4356 39.8836 21.3404C40.0586 21.1515 40.1544 20.9026 40.1512 20.6451C40.1512 20.0542 39.8314 19.7483 39.1988 19.7483L38.5974 19.7309Z" fill="white"/>
<path d="M20.946 25.5011C20.5431 25.5136 20.1426 25.4351 19.7743 25.2714C19.406 25.1077 19.0793 24.863 18.8187 24.5556C18.248 23.8591 17.9535 22.9769 17.9914 22.0772C17.9485 21.1358 18.2459 20.2104 18.8291 19.4702C19.0971 19.1454 19.4362 18.8866 19.8201 18.7136C20.204 18.5407 20.6225 18.4582 21.0433 18.4725C21.4407 18.4633 21.835 18.5446 22.1963 18.7102C22.5576 18.8758 22.8766 19.1214 23.129 19.4285C23.6912 20.1403 23.9754 21.0323 23.9284 21.9382C23.9755 22.8721 23.6788 23.7909 23.0942 24.5209C22.8341 24.8366 22.5054 25.089 22.1332 25.2589C21.761 25.4287 21.355 25.5116 20.946 25.5011ZM21.0016 19.7865C20.7739 19.7813 20.5486 19.8344 20.3472 19.9409C20.1458 20.0474 19.975 20.2036 19.8511 20.3948C19.5466 20.8693 19.3983 21.4272 19.427 21.9903C19.3955 22.5547 19.544 23.1146 19.8511 23.5893C19.9749 23.7704 20.1407 23.919 20.3344 24.0223C20.528 24.1257 20.7437 24.1807 20.9632 24.1828C21.1826 24.1848 21.3993 24.1338 21.5948 24.0341C21.7904 23.9344 21.9589 23.789 22.0861 23.6101C22.3888 23.139 22.5348 22.5842 22.5033 22.0251C22.5388 21.4503 22.3994 20.8783 22.1035 20.3844C21.9881 20.1971 21.8257 20.0433 21.6323 19.9384C21.439 19.8335 21.2215 19.7811 21.0016 19.7865Z" fill="#F50000"/>
<path d="M28.1275 19.8282H25.9793V21.4967H27.9537V22.7411H25.9793V25.3794H24.5889V18.5837H28.0997V19.8282H28.1275Z" fill="#F50000"/>
<path d="M32.2881 19.8282H30.1399V21.4967H32.1143V22.7411H30.1399V25.3794H28.7773V18.5837H32.2881V19.8282Z" fill="#F50000"/>
<path d="M36.5876 25.3794H32.9482V18.5837H36.4521V19.8282H34.3108V21.3402H36.3026V22.5812H34.3108V24.1385H36.5876V25.3794Z" fill="#F50000"/>
<path d="M42.3168 25.3795H40.7422L39.7967 23.6415C39.7272 23.5094 39.6576 23.3912 39.5985 23.2939C39.5396 23.1988 39.4721 23.1092 39.3969 23.0262C39.3364 22.9583 39.2661 22.8997 39.1884 22.8524C39.1188 22.8087 39.0376 22.7869 38.9555 22.7899H38.5974V25.3899H37.207V18.5769H39.3796C40.8569 18.5769 41.5938 19.1956 41.5938 20.4262C41.5936 20.6508 41.562 20.8742 41.4999 21.0901C41.4334 21.282 41.3397 21.4634 41.2219 21.6289C41.1026 21.7899 40.9583 21.9308 40.7943 22.046C40.6186 22.1633 40.428 22.2569 40.2277 22.3241C40.3223 22.3637 40.4102 22.4176 40.4884 22.484C40.5781 22.5586 40.6596 22.6425 40.7317 22.7342C40.814 22.8317 40.8906 22.9339 40.9612 23.0401L41.1593 23.3599L42.3168 25.3795ZM38.5974 19.7309V21.6289H39.1884C39.3182 21.6336 39.4475 21.6102 39.5674 21.5604C39.6874 21.5106 39.7952 21.4356 39.8836 21.3404C40.0586 21.1515 40.1544 20.9026 40.1512 20.6451C40.1512 20.0542 39.8314 19.7483 39.1988 19.7483L38.5974 19.7309Z" fill="#F50000"/>
<path d="M20.946 25.5011C20.5431 25.5136 20.1426 25.4351 19.7743 25.2714C19.406 25.1077 19.0793 24.863 18.8187 24.5556C18.248 23.8591 17.9535 22.9769 17.9914 22.0772C17.9485 21.1358 18.2459 20.2104 18.8291 19.4702C19.0971 19.1454 19.4362 18.8866 19.8201 18.7136C20.204 18.5407 20.6225 18.4582 21.0433 18.4725C21.4407 18.4633 21.835 18.5446 22.1963 18.7102C22.5576 18.8758 22.8766 19.1214 23.129 19.4285C23.6912 20.1403 23.9754 21.0323 23.9284 21.9382C23.9755 22.8721 23.6788 23.7909 23.0942 24.5209C22.8341 24.8366 22.5054 25.089 22.1332 25.2589C21.761 25.4287 21.355 25.5116 20.946 25.5011ZM21.0016 19.7865C20.7739 19.7813 20.5486 19.8344 20.3472 19.9409C20.1458 20.0474 19.975 20.2036 19.8511 20.3948C19.5466 20.8693 19.3983 21.4272 19.427 21.9903C19.3955 22.5547 19.544 23.1146 19.8511 23.5893C19.9749 23.7704 20.1407 23.919 20.3344 24.0223C20.528 24.1257 20.7437 24.1807 20.9632 24.1828C21.1826 24.1848 21.3993 24.1338 21.5948 24.0341C21.7904 23.9344 21.9589 23.789 22.0861 23.6101C22.3888 23.139 22.5348 22.5842 22.5033 22.0251C22.5388 21.4503 22.3994 20.8783 22.1035 20.3844C21.9881 20.1971 21.8257 20.0433 21.6323 19.9384C21.439 19.8335 21.2215 19.7811 21.0016 19.7865Z" fill="#F50000"/>
<path d="M28.1275 19.8282H25.9793V21.4967H27.9537V22.7411H25.9793V25.3794H24.5889V18.5837H28.0997V19.8282H28.1275Z" fill="#F50000"/>
<path d="M32.2881 19.8282H30.1399V21.4967H32.1143V22.7411H30.1399V25.3794H28.7773V18.5837H32.2881V19.8282Z" fill="#F50000"/>
<path d="M36.5876 25.3794H32.9482V18.5837H36.4521V19.8282H34.3108V21.3402H36.3026V22.5812H34.3108V24.1385H36.5876V25.3794Z" fill="#F50000"/>
<path d="M42.3168 25.3795H40.7422L39.7967 23.6415C39.7272 23.5094 39.6576 23.3912 39.5985 23.2939C39.5396 23.1988 39.4721 23.1092 39.3969 23.0262C39.3364 22.9583 39.2661 22.8997 39.1884 22.8524C39.1188 22.8087 39.0376 22.7869 38.9555 22.7899H38.5974V25.3899H37.207V18.5769H39.3796C40.8569 18.5769 41.5938 19.1956 41.5938 20.4262C41.5936 20.6508 41.562 20.8742 41.4999 21.0901C41.4334 21.282 41.3397 21.4634 41.2219 21.6289C41.1026 21.7899 40.9583 21.9308 40.7943 22.046C40.6186 22.1633 40.428 22.2569 40.2277 22.3241C40.3223 22.3637 40.4102 22.4176 40.4884 22.484C40.5781 22.5586 40.6596 22.6425 40.7317 22.7342C40.814 22.8317 40.8906 22.9339 40.9612 23.0401L41.1593 23.3599L42.3168 25.3795ZM38.5974 19.7309V21.6289H39.1884C39.3182 21.6336 39.4475 21.6102 39.5674 21.5604C39.6874 21.5106 39.7952 21.4356 39.8836 21.3404C40.0586 21.1515 40.1544 20.9026 40.1512 20.6451C40.1512 20.0542 39.8314 19.7483 39.1988 19.7483L38.5974 19.7309Z" fill="#F50000"/>
<path d="M20.946 25.5011C20.5431 25.5136 20.1426 25.4351 19.7743 25.2714C19.406 25.1077 19.0793 24.863 18.8187 24.5556C18.248 23.8591 17.9535 22.9769 17.9914 22.0772C17.9485 21.1358 18.2459 20.2104 18.8291 19.4702C19.0971 19.1454 19.4362 18.8866 19.8201 18.7136C20.204 18.5407 20.6225 18.4582 21.0433 18.4725C21.4407 18.4633 21.835 18.5446 22.1963 18.7102C22.5576 18.8758 22.8766 19.1214 23.129 19.4285C23.6912 20.1403 23.9754 21.0323 23.9284 21.9382C23.9755 22.8721 23.6788 23.7909 23.0942 24.5209C22.8341 24.8366 22.5054 25.089 22.1332 25.2589C21.761 25.4287 21.355 25.5116 20.946 25.5011ZM21.0016 19.7865C20.7739 19.7813 20.5486 19.8344 20.3472 19.9409C20.1458 20.0474 19.975 20.2036 19.8511 20.3948C19.5466 20.8693 19.3983 21.4272 19.427 21.9903C19.3955 22.5547 19.544 23.1146 19.8511 23.5893C19.9749 23.7704 20.1407 23.919 20.3344 24.0223C20.528 24.1257 20.7437 24.1807 20.9632 24.1828C21.1826 24.1848 21.3993 24.1338 21.5948 24.0341C21.7904 23.9344 21.9589 23.789 22.0861 23.6101C22.3888 23.139 22.5348 22.5842 22.5033 22.0251C22.5388 21.4503 22.3994 20.8783 22.1035 20.3844C21.9881 20.1971 21.8257 20.0433 21.6323 19.9384C21.439 19.8335 21.2215 19.7811 21.0016 19.7865Z" fill="#F50000"/>
<path d="M28.1275 19.8282H25.9793V21.4967H27.9537V22.7411H25.9793V25.3794H24.5889V18.5837H28.0997V19.8282H28.1275Z" fill="#F50000"/>
<path d="M32.2881 19.8282H30.1399V21.4967H32.1143V22.7411H30.1399V25.3794H28.7773V18.5837H32.2881V19.8282Z" fill="#F50000"/>
<path d="M36.5876 25.3794H32.9482V18.5837H36.4521V19.8282H34.3108V21.3402H36.3026V22.5812H34.3108V24.1385H36.5876V25.3794Z" fill="#F50000"/>
<path d="M42.3168 25.3795H40.7422L39.7967 23.6415C39.7272 23.5094 39.6576 23.3912 39.5985 23.2939C39.5396 23.1988 39.4721 23.1092 39.3969 23.0262C39.3364 22.9583 39.2661 22.8997 39.1884 22.8524C39.1188 22.8087 39.0376 22.7869 38.9555 22.7899H38.5974V25.3899H37.207V18.5769H39.3796C40.8569 18.5769 41.5938 19.1956 41.5938 20.4262C41.5936 20.6508 41.562 20.8742 41.4999 21.0901C41.4334 21.282 41.3397 21.4634 41.2219 21.6289C41.1026 21.7899 40.9583 21.9308 40.7943 22.046C40.6186 22.1633 40.428 22.2569 40.2277 22.3241C40.3223 22.3637 40.4102 22.4176 40.4884 22.484C40.5781 22.5586 40.6596 22.6425 40.7317 22.7342C40.814 22.8317 40.8906 22.9339 40.9612 23.0401L41.1593 23.3599L42.3168 25.3795ZM38.5974 19.7309V21.6289H39.1884C39.3182 21.6336 39.4475 21.6102 39.5674 21.5604C39.6874 21.5106 39.7952 21.4356 39.8836 21.3404C40.0586 21.1515 40.1544 20.9026 40.1512 20.6451C40.1512 20.0542 39.8314 19.7483 39.1988 19.7483L38.5974 19.7309Z" fill="#F50000"/>
<path d="M18.3213 16.0393V15.2815C18.4025 15.3631 18.4936 15.4344 18.5924 15.4935C18.6991 15.5526 18.8094 15.6049 18.9227 15.65C19.0352 15.6925 19.1516 15.7239 19.2703 15.7438C19.377 15.7632 19.4851 15.7749 19.5935 15.7786C19.8666 15.8007 20.1383 15.7229 20.3583 15.5596C20.4437 15.4789 20.5105 15.3804 20.5537 15.2711C20.597 15.1618 20.6157 15.0443 20.6085 14.9269C20.6112 14.7943 20.5813 14.663 20.5216 14.5446C20.4654 14.427 20.3848 14.3228 20.2853 14.2387C20.1775 14.1415 20.0611 14.0542 19.9377 13.978C19.7986 13.8911 19.6596 13.8042 19.5032 13.7173C19.3467 13.6304 19.1834 13.5157 19.0443 13.4218C18.9041 13.3233 18.7779 13.2064 18.6689 13.0742C18.5635 12.9515 18.4779 12.8131 18.4151 12.664C18.3537 12.4924 18.3243 12.311 18.3282 12.1287C18.3219 11.9025 18.3708 11.6782 18.4708 11.4752C18.559 11.2965 18.6861 11.1397 18.8427 11.0164C18.9994 10.8923 19.1789 10.8002 19.3711 10.7453C19.566 10.686 19.7687 10.6567 19.9724 10.6584C20.3313 10.6334 20.6905 10.7016 21.0152 10.8565V11.5899C20.7077 11.3518 20.3264 11.2288 19.9377 11.2423C19.8206 11.2465 19.7042 11.2616 19.5901 11.2875C19.4742 11.3144 19.3652 11.3653 19.2703 11.437C19.1734 11.5056 19.0927 11.5946 19.0339 11.6977C18.9707 11.8136 18.9406 11.9447 18.947 12.0766C18.9448 12.2029 18.9685 12.3282 19.0165 12.445C19.0614 12.551 19.1305 12.645 19.2181 12.7197C19.3163 12.8123 19.4234 12.895 19.5379 12.9665L19.9724 13.2272C20.1462 13.321 20.32 13.4253 20.4591 13.5296C20.6073 13.627 20.7417 13.7439 20.8588 13.8772C20.9724 14.0074 21.064 14.1554 21.1299 14.3152C21.2015 14.488 21.2358 14.6739 21.2307 14.8609C21.2426 15.1006 21.1949 15.3394 21.0917 15.5561C21.0064 15.7377 20.8788 15.8962 20.7198 16.0184C20.5584 16.1373 20.3754 16.2234 20.181 16.2722C19.9704 16.3232 19.7545 16.3489 19.5379 16.3486C19.4614 16.3486 19.3745 16.3486 19.2598 16.3313C19.1451 16.3139 19.0339 16.2965 18.9122 16.2722C18.8029 16.2453 18.695 16.2129 18.589 16.1748C18.4956 16.1383 18.406 16.0929 18.3213 16.0393Z" fill="white"/>
<path d="M22.7042 14.197V16.2826H22.1445V10.7627H23.448C23.6644 10.7485 23.8814 10.7791 24.0854 10.8527C24.2893 10.9263 24.4759 11.0412 24.6334 11.1902C24.7801 11.3552 24.8925 11.5477 24.9641 11.7566C25.0358 11.9655 25.0651 12.1865 25.0505 12.4068C25.0709 12.8764 24.9047 13.335 24.5882 13.6825C24.4286 13.8529 24.2343 13.9869 24.0184 14.0757C23.8025 14.1645 23.5701 14.2058 23.3368 14.197H22.7042ZM22.7042 11.3536V13.613H23.3021C23.4617 13.6234 23.6217 13.6017 23.7728 13.5492C23.9238 13.4966 24.0628 13.4143 24.1815 13.3071C24.2868 13.1915 24.3678 13.056 24.4198 12.9085C24.4717 12.761 24.4936 12.6046 24.4839 12.4485C24.4839 11.7186 24.112 11.364 23.3716 11.364H22.7216L22.7042 11.3536Z" fill="white"/>
<path d="M28.4575 16.2826H25.9443V10.7627H28.3533V11.3467H26.5005V13.182H28.2142V13.7625H26.5005V15.6917H28.4575V16.2826Z" fill="white"/>
<path d="M32.5904 16.0395C32.1928 16.2687 31.7385 16.3808 31.2799 16.3628C30.9697 16.3737 30.6613 16.3107 30.3803 16.1789C30.0992 16.0472 29.8536 15.8505 29.6636 15.605C29.2364 15.0355 29.0213 14.3348 29.0552 13.6237C29.02 12.8503 29.2671 12.0906 29.7505 11.4859C29.9589 11.2264 30.2238 11.018 30.525 10.8764C30.8262 10.7349 31.1557 10.6639 31.4885 10.669C31.8739 10.6578 32.2568 10.7351 32.6078 10.895V11.5902C32.277 11.3668 31.8876 11.2459 31.4885 11.2426C31.233 11.2353 30.9795 11.2893 30.7491 11.3999C30.5187 11.5106 30.3181 11.6747 30.1641 11.8787C29.8068 12.3696 29.63 12.9688 29.6636 13.575C29.6289 14.1475 29.7976 14.7138 30.1398 15.174C30.2842 15.3659 30.4727 15.5204 30.6892 15.6244C30.9057 15.7284 31.1441 15.779 31.3842 15.7719C31.8218 15.7884 32.2536 15.6668 32.6182 15.4243L32.5973 16.0499L32.5904 16.0395Z" fill="white"/>
<path d="M34.5825 10.7627V11.3223H34.1236V15.7195H34.5825V16.2826H33.0947V15.7265H33.557V11.3223H33.0947V10.7627H34.5825Z" fill="white"/>
<path d="M39.0313 16.2826H38.4126L37.9016 14.7184H35.8924L35.4336 16.2826H34.8184L36.6328 10.78H37.2064L39.0313 16.2826ZM37.7382 14.1622L36.9909 11.8159C36.9529 11.6974 36.9284 11.5749 36.9179 11.4509C36.9029 11.5745 36.8774 11.6967 36.8414 11.8159L36.101 14.1622H37.7382Z" fill="white"/>
<path d="M42.1945 16.2826H39.7266V10.7627H40.2827V15.6813H42.1876V16.2653L42.1945 16.2826Z" fill="white"/>
<path d="M27.9082 35.279C27.9082 35.3068 27.8491 35.279 27.8665 35.2443C29.3577 32.8632 30.8211 30.4752 32.8615 28.0315L33.6158 28.6294C31.8639 31.1078 29.82 33.2456 27.9082 35.279Z" fill="white"/>
<path d="M36.3271 36.1235L36.1638 35.3657C35.3503 35.4288 34.546 35.5804 33.7653 35.8176C32.4887 36.0763 31.2292 36.4129 29.9938 36.8257C29.966 36.8257 29.9938 36.8708 29.9938 36.8708C31.3033 36.8365 32.6093 36.7204 33.9044 36.5232C34.7254 36.4908 35.5392 36.3565 36.3271 36.1235Z" fill="white"/>
<path d="M28.402 27.0999L27.672 26.9644C27.4188 27.71 27.2509 28.482 27.1715 29.2655C26.9219 30.4962 26.7443 31.7404 26.6396 32.9918C26.6396 32.9973 26.6418 33.0026 26.6458 33.0066C26.6497 33.0105 26.655 33.0127 26.6605 33.0127C26.666 33.0127 26.6714 33.0105 26.6753 33.0066C26.6792 33.0026 26.6814 32.9973 26.6814 32.9918C27.1499 31.8191 27.5423 30.6173 27.8563 29.3941C28.133 28.6551 28.3163 27.8844 28.402 27.0999Z" fill="white"/>
<path d="M31.6451 41.4738C31.7551 41.3761 31.8446 41.2573 31.9081 41.1246C31.9716 40.9919 32.008 40.8478 32.0152 40.7008C32.0223 40.5538 32 40.4069 31.9496 40.2686C31.8992 40.1304 31.8216 40.0036 31.7216 39.8957L23.9283 31.2716C23.7337 31.0756 23.4736 30.9585 23.1979 30.9427C22.9222 30.927 22.6504 31.0137 22.4348 31.1862C22.2192 31.3587 22.0749 31.6048 22.0298 31.8773C21.9846 32.1497 22.0418 32.4292 22.1903 32.662L19.0966 38.9884L16.4652 41.3695C16.2889 41.5305 16.15 41.7281 16.0581 41.9485C15.9662 42.1688 15.9237 42.4066 15.9334 42.6452L15.9786 43.4204L15.5615 43.8027C15.2737 44.067 15.1014 44.4339 15.0819 44.8242C15.0624 45.2144 15.1972 45.5967 15.4572 45.8883L16.361 46.886C16.6253 47.1734 16.9918 47.3457 17.3818 47.3659C17.7717 47.386 18.1541 47.2524 18.4466 46.9937L18.8602 46.6079L19.6354 46.733C19.8471 46.7673 20.0636 46.7578 20.2715 46.7052L24.3802 51.2484C24.5557 51.441 24.8001 51.5567 25.0604 51.5704C25.3207 51.584 25.5758 51.4946 25.7706 51.3214L26.3163 50.8243C26.4155 50.7339 26.4953 50.6243 26.5509 50.5023C26.6066 50.3802 26.6369 50.2481 26.6402 50.1139C26.6434 49.9798 26.6195 49.8464 26.5698 49.7218C26.5201 49.5971 26.4457 49.4838 26.3511 49.3887C25.5819 48.6222 24.9546 47.7254 24.4984 46.74L25.0823 46.2186C25.1765 46.142 25.254 46.047 25.3102 45.9394C25.3665 45.8318 25.4001 45.7139 25.4093 45.5929C25.4184 45.4718 25.4028 45.3502 25.3633 45.2354C25.3239 45.1206 25.2615 45.0151 25.1799 44.9252C25.0983 44.8353 24.9992 44.763 24.8888 44.7127C24.7783 44.6624 24.6588 44.6351 24.5374 44.6325C24.4161 44.63 24.2954 44.6521 24.183 44.6977C24.0705 44.7433 23.9684 44.8114 23.8831 44.8977C23.8136 44.5779 23.7545 44.2477 23.7093 43.907L30.0809 41.4147C30.2822 41.627 30.5586 41.7521 30.8509 41.7631C31.1433 41.7742 31.4284 41.6703 31.6451 41.4738Z" fill="#002540"/>
<path d="M19.6877 46.281L18.8118 46.1523C18.7791 46.1465 18.7456 46.1482 18.7137 46.1572C18.6817 46.1662 18.6523 46.1824 18.6275 46.2045L18.1339 46.6564C17.9282 46.8404 17.6579 46.9352 17.3822 46.9203C17.1066 46.9053 16.8482 46.7816 16.6636 46.5764L15.7598 45.5753C15.5769 45.3697 15.4827 45.1002 15.4976 44.8254C15.5126 44.5506 15.6356 44.2929 15.8398 44.1084L16.3334 43.6565C16.3586 43.6357 16.3782 43.6089 16.3904 43.5785C16.4025 43.5482 16.4068 43.5152 16.4029 43.4827L16.3507 42.5963C16.3418 42.424 16.3715 42.2519 16.4376 42.0925C16.5038 41.9331 16.6047 41.7905 16.7331 41.6752L19.2254 39.4158L23.129 43.7434L20.6367 46.0029C20.5588 46.0733 20.471 46.1319 20.376 46.1767L17.5674 43.0482C17.5276 43.0055 17.4728 42.9797 17.4144 42.9765C17.3561 42.9733 17.2988 42.9927 17.2545 43.0309C17.2325 43.0501 17.2146 43.0735 17.2018 43.0997C17.189 43.1259 17.1816 43.1545 17.1799 43.1836C17.1783 43.2128 17.1826 43.2419 17.1924 43.2694C17.2022 43.2969 17.2174 43.3222 17.2371 43.3437L19.8963 46.2914C19.8266 46.2931 19.7569 46.2897 19.6877 46.281Z" fill="white"/>
<path d="M20.9386 46.3223L23.285 44.2019C23.4763 45.5687 23.9562 46.8792 24.6928 48.0464L23.2502 49.3464L20.6953 46.5239C20.7824 46.4642 20.8638 46.3967 20.9386 46.3223Z" fill="#F50000"/>
<path d="M24.1648 50.3478L23.5635 49.6873L24.9539 48.4255C25.1266 48.6671 25.3123 48.8992 25.5101 49.1207L24.1648 50.3478Z" fill="white"/>
<path d="M19.5244 39.0681L22.4964 33.0198L29.7405 41.039L23.5219 43.4827L19.5244 39.0681Z" fill="#F50000"/>
<path d="M17.9916 45.3775L17.1678 46.1249C17.125 46.1646 17.0993 46.2194 17.0961 46.2778C17.0928 46.3361 17.1123 46.3934 17.1504 46.4377C17.1906 46.4797 17.2453 46.5049 17.3034 46.5081C17.3615 46.5113 17.4186 46.4924 17.4632 46.4551L18.2905 45.7077C18.3309 45.6657 18.3534 45.6096 18.3534 45.5513C18.3534 45.493 18.3309 45.437 18.2905 45.3949C18.2527 45.3538 18.2003 45.329 18.1446 45.3258C18.0888 45.3226 18.0339 45.3411 17.9916 45.3775Z" fill="#002540"/>
<path d="M17.3931 44.7063L16.5693 45.4536C16.5232 45.4924 16.4944 45.5478 16.4891 45.6078C16.4839 45.6678 16.5027 45.7273 16.5415 45.7734C16.5802 45.8195 16.6356 45.8484 16.6956 45.8536C16.7556 45.8588 16.8151 45.84 16.8612 45.8013L17.6885 45.0539C17.7094 45.0335 17.7259 45.0092 17.7372 44.9823C17.7485 44.9555 17.7543 44.9266 17.7543 44.8975C17.7543 44.8684 17.7485 44.8395 17.7372 44.8126C17.7259 44.7858 17.7094 44.7614 17.6885 44.7411C17.6515 44.7011 17.6014 44.6757 17.5472 44.6693C17.4931 44.6629 17.4384 44.676 17.3931 44.7063Z" fill="#002540"/>
<path d="M16.792 44.0494L15.9682 44.7863C15.9278 44.8284 15.9053 44.8844 15.9053 44.9427C15.9053 45.001 15.9278 45.0571 15.9682 45.0991C16.0084 45.1409 16.0627 45.1662 16.1206 45.1701C16.1784 45.1739 16.2356 45.1561 16.281 45.12L17.1083 44.3726C17.1489 44.33 17.1715 44.2734 17.1715 44.2145C17.1715 44.1556 17.1489 44.099 17.1083 44.0563C17.0886 44.0341 17.0645 44.0161 17.0376 44.0036C17.0106 43.9911 16.9814 43.9843 16.9517 43.9837C16.922 43.983 16.8924 43.9885 16.865 43.9998C16.8375 44.0111 16.8127 44.028 16.792 44.0494Z" fill="#002540"/>
<path d="M22.6529 31.5251C22.7179 31.4658 22.7939 31.4198 22.8766 31.39C22.9594 31.3601 23.0472 31.3469 23.1351 31.3511C23.2229 31.3553 23.3091 31.3768 23.3886 31.4145C23.4681 31.4521 23.5394 31.505 23.5984 31.5703L31.3952 40.1909C31.5075 40.3259 31.5646 40.4985 31.5549 40.6739C31.5453 40.8493 31.4696 41.0145 31.343 41.1364C31.2778 41.1963 31.2012 41.2425 31.1179 41.2724C31.0345 41.3022 30.946 41.3151 30.8576 41.3103C30.7691 41.3054 30.6826 41.2829 30.603 41.2441C30.5234 41.2053 30.4523 41.1509 30.3941 41.0842C30.0465 40.7019 22.9136 32.8008 22.6008 32.4637C22.542 32.3989 22.4968 32.3231 22.4676 32.2406C22.4384 32.1582 22.4259 32.0708 22.4307 31.9835C22.4356 31.8962 22.4577 31.8107 22.4958 31.732C22.534 31.6533 22.5874 31.583 22.6529 31.5251Z" fill="white"/>
<path d="M26.0068 50.4797L25.4576 50.9733C25.351 51.069 25.2112 51.119 25.0681 51.1124C24.925 51.1059 24.7903 51.0435 24.6928 50.9385L24.46 50.6778L25.8052 49.4612L26.0311 49.6941C26.0828 49.7464 26.1233 49.8086 26.1502 49.877C26.1771 49.9454 26.1898 50.0186 26.1875 50.0921C26.1852 50.1656 26.168 50.2378 26.137 50.3044C26.1059 50.3711 26.0616 50.4307 26.0068 50.4797Z" fill="#F50000"/>
<path d="M24.1715 45.2141C24.2149 45.1719 24.2663 45.1389 24.3226 45.1171C24.379 45.0953 24.4392 45.0851 24.4997 45.0872C24.5601 45.0892 24.6195 45.1035 24.6743 45.1291C24.729 45.1547 24.7781 45.1911 24.8184 45.2361C24.8588 45.2812 24.8896 45.3339 24.909 45.3911C24.9285 45.4484 24.9361 45.509 24.9315 45.5693C24.927 45.6296 24.9103 45.6883 24.8824 45.742C24.8545 45.7956 24.8161 45.8431 24.7694 45.8815L24.3036 46.3091C24.1806 46.0083 24.075 45.7008 23.9873 45.3879L24.1715 45.2141Z" fill="white"/>
<path d="M23.2504 35.1924C23.2084 35.2326 23.1833 35.2873 23.18 35.3454C23.1768 35.4035 23.1958 35.4606 23.2331 35.5052L27.4321 40.1457C27.4713 40.1918 27.5272 40.2205 27.5875 40.2254C27.6478 40.2303 27.7076 40.211 27.7537 40.1718C27.7997 40.1326 27.8284 40.0767 27.8333 40.0164C27.8382 39.9561 27.8189 39.8964 27.7797 39.8503L23.5807 35.2098C23.5607 35.186 23.5361 35.1666 23.5084 35.1527C23.4806 35.1388 23.4503 35.1308 23.4193 35.1292C23.3884 35.1276 23.3574 35.1324 23.3283 35.1432C23.2993 35.1541 23.2727 35.1708 23.2504 35.1924Z" fill="#002540"/>
<path d="M23.6221 37.2709C23.6014 37.291 23.5849 37.315 23.5737 37.3416C23.5624 37.3682 23.5566 37.3967 23.5566 37.4256C23.5566 37.4544 23.5624 37.483 23.5737 37.5096C23.5849 37.5361 23.6014 37.5602 23.6221 37.5803L25.4192 39.572C25.4386 39.5949 25.4623 39.6137 25.489 39.6273C25.5156 39.641 25.5447 39.6493 25.5746 39.6517C25.6044 39.6541 25.6345 39.6506 25.663 39.6414C25.6915 39.6322 25.7179 39.6175 25.7407 39.5981C25.7636 39.5787 25.7824 39.555 25.796 39.5284C25.8097 39.5017 25.818 39.4726 25.8204 39.4428C25.8228 39.4129 25.8193 39.3829 25.8101 39.3543C25.8009 39.3258 25.7862 39.2994 25.7668 39.2766L23.9697 37.2883C23.9502 37.2611 23.9248 37.2387 23.8955 37.2227C23.8661 37.2067 23.8335 37.1975 23.8001 37.1958C23.7667 37.1942 23.7333 37.2 23.7025 37.213C23.6717 37.226 23.6442 37.2458 23.6221 37.2709Z" fill="#002540"/>
<path d="M23.2429 38.5292C23.2209 38.5484 23.203 38.5718 23.1902 38.5981C23.1774 38.6243 23.1699 38.6528 23.1683 38.682C23.1667 38.7111 23.1709 38.7403 23.1807 38.7678C23.1906 38.7953 23.2058 38.8205 23.2255 38.8421L24.1293 39.8397C24.169 39.8825 24.2239 39.9082 24.2822 39.9114C24.3405 39.9147 24.3978 39.8952 24.4421 39.8571C24.4849 39.8173 24.5106 39.7625 24.5138 39.7041C24.5171 39.6458 24.4976 39.5885 24.4595 39.5442L23.5627 38.5292C23.5419 38.5078 23.5171 38.4907 23.4896 38.4791C23.4621 38.4674 23.4326 38.4614 23.4028 38.4614C23.3729 38.4614 23.3434 38.4674 23.3159 38.4791C23.2885 38.4907 23.2636 38.5078 23.2429 38.5292Z" fill="#002540"/>
<path d="M48.7992 8.11377H11.0146V9.00016H48.7992V8.11377Z" fill="#002540"/>
</svg>
