<svg width="59" height="59" viewBox="0 0 59 59" fill="none" xmlns="http://www.w3.org/2000/svg">
<rect x="0.790039" y="0.864014" width="57.93" height="57.93" rx="5.75" fill="white"/>
<path d="M20.4905 37.2197H23.643L27.5186 42.9444L16.8652 38.5823L20.4905 37.2197Z" fill="#FA9000"/>
<path d="M51.5363 29.9275L50.1912 33.1773L42.4297 28.989L51.5363 29.9275Z" fill="#FEBE10"/>
<path d="M45.6731 32.3883L44.9258 33.8446L42.2217 29.9622L45.6731 32.3883Z" fill="#371400"/>
<path d="M8.08887 27.8489L9.45485 24.957L14.5817 29.8857L8.08887 27.8489Z" fill="#FEBE10"/>
<path d="M11.0016 32.3014L10.7305 30.6504L14.3974 31.276L11.0016 32.3014Z" fill="#371400"/>
<path d="M40.4244 27.4297L16.0566 29.6602L16.8725 38.5731L41.2402 36.3426L40.4244 27.4297Z" fill="#FEBE10"/>
<path d="M21.7556 36.4445C21.4367 36.4814 21.1136 36.4465 20.8099 36.3424C20.5063 36.2384 20.2297 36.0679 20.0003 35.8432C19.5014 35.3313 19.205 34.6558 19.1661 33.9419C19.0635 33.2013 19.2313 32.4486 19.6389 31.8217C19.827 31.546 20.0758 31.3171 20.3662 31.1526C20.6567 30.9881 20.981 30.8924 21.3142 30.8728C21.6302 30.8354 21.9505 30.8698 22.2514 30.9733C22.5523 31.0768 22.826 31.2468 23.0521 31.4707C23.5466 31.9951 23.8364 32.6796 23.8689 33.3997C23.9707 34.1354 23.8041 34.8832 23.3997 35.5061C23.2161 35.7782 22.9723 36.0045 22.6872 36.1672C22.4021 36.33 22.0833 36.4248 21.7556 36.4445ZM21.3907 31.926C21.2108 31.9382 21.0372 31.9967 20.8867 32.096C20.7362 32.1953 20.6141 32.3319 20.5321 32.4925C20.3283 32.8909 20.2519 33.3423 20.3132 33.7855C20.3329 34.2342 20.4921 34.6655 20.7685 35.0195C20.8775 35.1545 21.0186 35.2602 21.1788 35.327C21.339 35.3938 21.5134 35.4195 21.6861 35.4018C21.8614 35.3904 22.0311 35.3358 22.1803 35.2431C22.3295 35.1503 22.4534 35.0221 22.5411 34.87C22.7441 34.4738 22.8194 34.0246 22.7567 33.5839C22.7389 33.1288 22.5878 32.6888 22.3222 32.3188C22.2113 32.1816 22.0682 32.074 21.9057 32.0055C21.7432 31.937 21.5663 31.9097 21.3907 31.926Z" fill="white"/>
<path d="M27.0317 31.429L25.3355 31.5889L25.4572 32.9097L27.0248 32.7672L27.1082 33.7509L25.5441 33.8899L25.7352 35.9754L24.6508 36.0727L24.1572 30.6922L26.9379 30.4419L27.0317 31.429Z" fill="white"/>
<path d="M30.3237 31.1267L28.631 31.2831L28.77 32.6213L30.3341 32.4822L30.421 33.4659L28.8569 33.6049L29.0481 35.6904L27.9602 35.7877L27.4492 30.3967L30.2299 30.1465L30.3237 31.1267Z" fill="white"/>
<path d="M34.1294 35.2107L31.248 35.4714L30.751 30.0908L33.5316 29.8406L33.622 30.8312L31.9258 30.9876L32.0405 32.1867L33.6116 32.0408L33.6984 33.0209L32.1274 33.1704L32.2386 34.4008L34.0391 34.2375L34.1294 35.2107Z" fill="white"/>
<path d="M38.6686 34.7935L37.4243 34.9082L36.5484 33.5944C36.4754 33.5005 36.4163 33.4032 36.3641 33.3233C36.3104 33.2537 36.2523 33.1875 36.1904 33.1251C36.1394 33.0755 36.0807 33.0344 36.0166 33.0035C35.9564 32.9775 35.8901 32.9691 35.8254 32.9792L35.53 33.0035L35.7211 35.0542L34.6367 35.1481L34.1396 29.771L35.8602 29.6146C37.0246 29.5103 37.6606 29.9622 37.7475 30.9145C37.765 31.0922 37.7556 31.2714 37.7197 31.4463C37.6851 31.6059 37.624 31.7587 37.539 31.8982C37.4562 32.0328 37.349 32.1507 37.2227 32.2457C37.0951 32.3533 36.9522 32.4412 36.7986 32.5064C36.8769 32.526 36.9502 32.5615 37.0141 32.6107C37.0886 32.665 37.1583 32.7255 37.2227 32.7914C37.2945 32.8637 37.3618 32.9404 37.4243 33.0209C37.4868 33.0973 37.5459 33.1842 37.605 33.2642L38.6686 34.7935ZM35.304 30.5947L35.4431 32.0893L35.9123 32.0476C36.017 32.0435 36.1195 32.0165 36.2126 31.9684C36.3057 31.9204 36.3871 31.8525 36.451 31.7696C36.5791 31.6047 36.6388 31.3968 36.6179 31.1891C36.5727 30.7199 36.3051 30.4939 35.7976 30.553L35.304 30.5947Z" fill="white"/>
<path d="M21.7556 36.4445C21.4367 36.4814 21.1136 36.4465 20.8099 36.3424C20.5063 36.2384 20.2297 36.0679 20.0003 35.8432C19.5014 35.3313 19.205 34.6558 19.1661 33.9419C19.0635 33.2013 19.2313 32.4486 19.6389 31.8217C19.827 31.546 20.0758 31.3171 20.3662 31.1526C20.6567 30.9881 20.981 30.8924 21.3142 30.8728C21.6302 30.8354 21.9505 30.8698 22.2514 30.9733C22.5523 31.0768 22.826 31.2468 23.0521 31.4707C23.5466 31.9951 23.8364 32.6796 23.8689 33.3997C23.9707 34.1354 23.8041 34.8832 23.3997 35.5061C23.2161 35.7782 22.9723 36.0045 22.6872 36.1672C22.4021 36.33 22.0833 36.4248 21.7556 36.4445ZM21.3907 31.926C21.2108 31.9382 21.0372 31.9967 20.8867 32.096C20.7362 32.1953 20.6141 32.3319 20.5321 32.4925C20.3283 32.8909 20.2519 33.3423 20.3132 33.7855C20.3329 34.2342 20.4921 34.6655 20.7685 35.0195C20.8775 35.1545 21.0186 35.2602 21.1788 35.327C21.339 35.3938 21.5134 35.4195 21.6861 35.4018C21.8614 35.3904 22.0311 35.3358 22.1803 35.2431C22.3295 35.1503 22.4534 35.0221 22.5411 34.87C22.7441 34.4738 22.8194 34.0246 22.7567 33.5839C22.7389 33.1288 22.5878 32.6888 22.3222 32.3188C22.2113 32.1816 22.0682 32.074 21.9057 32.0055C21.7432 31.937 21.5663 31.9097 21.3907 31.926Z" fill="#371400"/>
<path d="M27.0317 31.429L25.3355 31.5889L25.4572 32.9097L27.0248 32.7672L27.1082 33.7509L25.5441 33.8899L25.7352 35.9754L24.6508 36.0727L24.1572 30.6922L26.9379 30.4419L27.0317 31.429Z" fill="#371400"/>
<path d="M30.3237 31.1267L28.631 31.2831L28.77 32.6213L30.3341 32.4822L30.421 33.4659L28.8569 33.6049L29.0481 35.6904L27.9602 35.7877L27.4492 30.3967L30.2299 30.1465L30.3237 31.1267Z" fill="#371400"/>
<path d="M34.1294 35.2107L31.248 35.4714L30.751 30.0908L33.5316 29.8406L33.622 30.8312L31.9258 30.9876L32.0405 32.1867L33.6116 32.0408L33.6984 33.0209L32.1274 33.1704L32.2386 34.4008L34.0391 34.2375L34.1294 35.2107Z" fill="#371400"/>
<path d="M38.6686 34.7935L37.4243 34.9082L36.5484 33.5944C36.4754 33.5005 36.4163 33.4032 36.3641 33.3233C36.3104 33.2537 36.2523 33.1875 36.1904 33.1251C36.1394 33.0755 36.0807 33.0344 36.0166 33.0035C35.9564 32.9775 35.8901 32.9691 35.8254 32.9792L35.53 33.0035L35.7211 35.0542L34.6367 35.1481L34.1396 29.771L35.8602 29.6146C37.0246 29.5103 37.6606 29.9622 37.7475 30.9145C37.765 31.0922 37.7556 31.2714 37.7197 31.4463C37.6851 31.6059 37.624 31.7587 37.539 31.8982C37.4562 32.0328 37.349 32.1507 37.2227 32.2457C37.0951 32.3533 36.9522 32.4412 36.7986 32.5064C36.8769 32.526 36.9502 32.5615 37.0141 32.6107C37.0886 32.665 37.1583 32.7255 37.2227 32.7914C37.2945 32.8637 37.3618 32.9404 37.4243 33.0209C37.4868 33.0973 37.5459 33.1842 37.605 33.2642L38.6686 34.7935ZM35.304 30.5947L35.4431 32.0893L35.9123 32.0476C36.017 32.0435 36.1195 32.0165 36.2126 31.9684C36.3057 31.9204 36.3871 31.8525 36.451 31.7696C36.5791 31.6047 36.6388 31.3968 36.6179 31.1891C36.5727 30.7199 36.3051 30.4939 35.7976 30.553L35.304 30.5947Z" fill="#371400"/>
<path d="M21.7556 36.4445C21.4367 36.4814 21.1136 36.4465 20.8099 36.3424C20.5063 36.2384 20.2297 36.0679 20.0003 35.8432C19.5014 35.3313 19.205 34.6558 19.1661 33.9419C19.0635 33.2013 19.2313 32.4486 19.6389 31.8217C19.827 31.546 20.0758 31.3171 20.3662 31.1526C20.6567 30.9881 20.981 30.8924 21.3142 30.8728C21.6302 30.8354 21.9505 30.8698 22.2514 30.9733C22.5523 31.0768 22.826 31.2468 23.0521 31.4707C23.5466 31.9951 23.8364 32.6796 23.8689 33.3997C23.9707 34.1354 23.8041 34.8832 23.3997 35.5061C23.2161 35.7782 22.9723 36.0045 22.6872 36.1672C22.4021 36.33 22.0833 36.4248 21.7556 36.4445ZM21.3907 31.926C21.2108 31.9382 21.0372 31.9967 20.8867 32.096C20.7362 32.1953 20.6141 32.3319 20.5321 32.4925C20.3283 32.8909 20.2519 33.3423 20.3132 33.7855C20.3329 34.2342 20.4921 34.6655 20.7685 35.0195C20.8775 35.1545 21.0186 35.2602 21.1788 35.327C21.339 35.3938 21.5134 35.4195 21.6861 35.4018C21.8614 35.3904 22.0311 35.3358 22.1803 35.2431C22.3295 35.1503 22.4534 35.0221 22.5411 34.87C22.7441 34.4738 22.8194 34.0246 22.7567 33.5839C22.7389 33.1288 22.5878 32.6888 22.3222 32.3188C22.2113 32.1816 22.0682 32.074 21.9057 32.0055C21.7432 31.937 21.5663 31.9097 21.3907 31.926Z" fill="#371400"/>
<path d="M27.0317 31.429L25.3355 31.5889L25.4572 32.9097L27.0248 32.7672L27.1082 33.7509L25.5441 33.8899L25.7352 35.9754L24.6508 36.0727L24.1572 30.6922L26.9379 30.4419L27.0317 31.429Z" fill="#371400"/>
<path d="M30.3237 31.1267L28.631 31.2831L28.77 32.6213L30.3341 32.4822L30.421 33.4659L28.8569 33.6049L29.0481 35.6904L27.9602 35.7877L27.4492 30.3967L30.2299 30.1465L30.3237 31.1267Z" fill="#371400"/>
<path d="M34.1294 35.2107L31.248 35.4714L30.751 30.0908L33.5316 29.8406L33.622 30.8312L31.9258 30.9876L32.0405 32.1867L33.6116 32.0408L33.6984 33.0209L32.1274 33.1704L32.2386 34.4008L34.0391 34.2375L34.1294 35.2107Z" fill="#371400"/>
<path d="M38.6686 34.7935L37.4243 34.9082L36.5484 33.5944C36.4754 33.5005 36.4163 33.4032 36.3641 33.3233C36.3104 33.2537 36.2523 33.1875 36.1904 33.1251C36.1394 33.0755 36.0807 33.0344 36.0166 33.0035C35.9564 32.9775 35.8901 32.9691 35.8254 32.9792L35.53 33.0035L35.7211 35.0542L34.6367 35.1481L34.1396 29.771L35.8602 29.6146C37.0246 29.5103 37.6606 29.9622 37.7475 30.9145C37.765 31.0922 37.7556 31.2714 37.7197 31.4463C37.6851 31.6059 37.624 31.7587 37.539 31.8982C37.4562 32.0328 37.349 32.1507 37.2227 32.2457C37.0951 32.3533 36.9522 32.4412 36.7986 32.5064C36.8769 32.526 36.9502 32.5615 37.0141 32.6107C37.0886 32.665 37.1583 32.7255 37.2227 32.7914C37.2945 32.8637 37.3618 32.9404 37.4243 33.0209C37.4868 33.0973 37.5459 33.1842 37.605 33.2642L38.6686 34.7935ZM35.304 30.5947L35.4431 32.0893L35.9123 32.0476C36.017 32.0435 36.1195 32.0165 36.2126 31.9684C36.3057 31.9204 36.3871 31.8525 36.451 31.7696C36.5791 31.6047 36.6388 31.3968 36.6179 31.1891C36.5727 30.7199 36.3051 30.4939 35.7976 30.553L35.304 30.5947Z" fill="#371400"/>
<path d="M21.7556 36.4445C21.4367 36.4814 21.1136 36.4465 20.8099 36.3424C20.5063 36.2384 20.2297 36.0679 20.0003 35.8432C19.5014 35.3313 19.205 34.6558 19.1661 33.9419C19.0635 33.2013 19.2313 32.4486 19.6389 31.8217C19.827 31.546 20.0758 31.3171 20.3662 31.1526C20.6567 30.9881 20.981 30.8924 21.3142 30.8728C21.6302 30.8354 21.9505 30.8698 22.2514 30.9733C22.5523 31.0768 22.826 31.2468 23.0521 31.4707C23.5466 31.9951 23.8364 32.6796 23.8689 33.3997C23.9707 34.1354 23.8041 34.8832 23.3997 35.5061C23.2161 35.7782 22.9723 36.0045 22.6872 36.1672C22.4021 36.33 22.0833 36.4248 21.7556 36.4445ZM21.3907 31.926C21.2108 31.9382 21.0372 31.9967 20.8867 32.096C20.7362 32.1953 20.6141 32.3319 20.5321 32.4925C20.3283 32.8909 20.2519 33.3423 20.3132 33.7855C20.3329 34.2342 20.4921 34.6655 20.7685 35.0195C20.8775 35.1545 21.0186 35.2602 21.1788 35.327C21.339 35.3938 21.5134 35.4195 21.6861 35.4018C21.8614 35.3904 22.0311 35.3358 22.1803 35.2431C22.3295 35.1503 22.4534 35.0221 22.5411 34.87C22.7441 34.4738 22.8194 34.0246 22.7567 33.5839C22.7389 33.1288 22.5878 32.6888 22.3222 32.3188C22.2113 32.1816 22.0682 32.074 21.9057 32.0055C21.7432 31.937 21.5663 31.9097 21.3907 31.926Z" fill="#371400"/>
<path d="M27.0317 31.429L25.3355 31.5889L25.4572 32.9097L27.0248 32.7672L27.1082 33.7509L25.5441 33.8899L25.7352 35.9754L24.6508 36.0727L24.1572 30.6922L26.9379 30.4419L27.0317 31.429Z" fill="#371400"/>
<path d="M30.3237 31.1267L28.631 31.2831L28.77 32.6213L30.3341 32.4822L30.421 33.4659L28.8569 33.6049L29.0481 35.6904L27.9602 35.7877L27.4492 30.3967L30.2299 30.1465L30.3237 31.1267Z" fill="#371400"/>
<path d="M34.1294 35.2107L31.248 35.4714L30.751 30.0908L33.5316 29.8406L33.622 30.8312L31.9258 30.9876L32.0405 32.1867L33.6116 32.0408L33.6984 33.0209L32.1274 33.1704L32.2386 34.4008L34.0391 34.2375L34.1294 35.2107Z" fill="#371400"/>
<path d="M38.6686 34.7935L37.4243 34.9082L36.5484 33.5944C36.4754 33.5005 36.4163 33.4032 36.3641 33.3233C36.3104 33.2537 36.2523 33.1875 36.1904 33.1251C36.1394 33.0755 36.0807 33.0344 36.0166 33.0035C35.9564 32.9775 35.8901 32.9691 35.8254 32.9792L35.53 33.0035L35.7211 35.0542L34.6367 35.1481L34.1396 29.771L35.8602 29.6146C37.0246 29.5103 37.6606 29.9622 37.7475 30.9145C37.765 31.0922 37.7556 31.2714 37.7197 31.4463C37.6851 31.6059 37.624 31.7587 37.539 31.8982C37.4562 32.0328 37.349 32.1507 37.2227 32.2457C37.0951 32.3533 36.9522 32.4412 36.7986 32.5064C36.8769 32.526 36.9502 32.5615 37.0141 32.6107C37.0886 32.665 37.1583 32.7255 37.2227 32.7914C37.2945 32.8637 37.3618 32.9404 37.4243 33.0209C37.4868 33.0973 37.5459 33.1842 37.605 33.2642L38.6686 34.7935ZM35.304 30.5947L35.4431 32.0893L35.9123 32.0476C36.017 32.0435 36.1195 32.0165 36.2126 31.9684C36.3057 31.9204 36.3871 31.8525 36.451 31.7696C36.5791 31.6047 36.6388 31.3968 36.6179 31.1891C36.5727 30.7199 36.3051 30.4939 35.7976 30.553L35.304 30.5947Z" fill="#371400"/>
<path d="M15.127 19.6565L46.6629 16.7368L47.6083 26.9452L16.0759 29.858L15.127 19.6565Z" fill="#371400"/>
<path d="M19.7502 27.0323L19.6807 26.278C19.767 26.352 19.8628 26.414 19.9657 26.4623C20.0772 26.5135 20.1937 26.5531 20.3133 26.5804C20.4274 26.6126 20.5435 26.637 20.6609 26.6534C20.7708 26.6619 20.8812 26.6619 20.9911 26.6534C21.2638 26.6459 21.5255 26.5439 21.7314 26.3649C21.8104 26.276 21.8686 26.1706 21.9016 26.0563C21.9347 25.9421 21.9419 25.8219 21.9226 25.7045C21.9149 25.5712 21.8794 25.441 21.8183 25.3222C21.7464 25.2155 21.6585 25.1205 21.5576 25.0406C21.4383 24.9572 21.3128 24.8828 21.1823 24.8182C21.0432 24.7487 20.8868 24.6687 20.7235 24.5992C20.5601 24.5297 20.3759 24.4324 20.2334 24.349C20.09 24.265 19.956 24.1659 19.8336 24.0535C19.7196 23.9401 19.6235 23.81 19.5486 23.6677C19.467 23.5065 19.4197 23.3302 19.4096 23.1498C19.3807 22.923 19.4081 22.6926 19.4895 22.479C19.5707 22.2916 19.6889 22.1225 19.8371 21.9819C19.9804 21.8449 20.151 21.7395 20.3376 21.6726C20.527 21.5964 20.7257 21.5462 20.9285 21.5231C21.2792 21.4639 21.6393 21.4999 21.9713 21.6274L22.0408 22.3469C21.7113 22.1415 21.3198 22.059 20.9355 22.114C20.8164 22.1239 20.6993 22.1508 20.5879 22.194C20.4736 22.2316 20.3674 22.2906 20.2751 22.3678C20.1861 22.4441 20.1149 22.539 20.0665 22.6458C20.0121 22.7679 19.994 22.903 20.0144 23.0351C20.0212 23.1576 20.0569 23.2767 20.1187 23.3827C20.1759 23.4847 20.2526 23.5745 20.3446 23.6468C20.4522 23.7312 20.5688 23.8034 20.6922 23.8623C20.8208 23.9319 20.9807 24.0014 21.1544 24.0813C21.3306 24.1563 21.5013 24.2434 21.6654 24.342C21.8225 24.4309 21.9683 24.5382 22.0999 24.6618C22.2261 24.7803 22.3318 24.9189 22.4127 25.0719C22.4966 25.2363 22.5463 25.4161 22.5587 25.6002C22.588 25.8342 22.5642 26.0718 22.4892 26.2954C22.4204 26.4841 22.3071 26.6534 22.159 26.789C22.0116 26.9251 21.8376 27.0293 21.648 27.0948C21.4428 27.1639 21.2307 27.2105 21.0154 27.2339C20.9217 27.2398 20.8276 27.2398 20.7339 27.2339C20.6227 27.2339 20.5114 27.2165 20.3863 27.2061C20.2751 27.1886 20.1649 27.1654 20.0561 27.1365C19.9504 27.1138 19.8478 27.0788 19.7502 27.0323Z" fill="white"/>
<path d="M23.9383 24.773L24.1295 26.8585L23.5733 26.9106L23.0693 21.4258L24.3658 21.3076C24.5791 21.2748 24.7969 21.2862 25.0056 21.3412C25.2143 21.3962 25.4095 21.4936 25.5789 21.6274C25.9043 21.932 26.0956 22.3533 26.1107 22.7988C26.1424 23.031 26.128 23.2671 26.0683 23.4938C26.0087 23.7204 25.905 23.933 25.7631 24.1196C25.6167 24.3024 25.4332 24.4521 25.2247 24.5588C25.0162 24.6655 24.7874 24.7266 24.5535 24.7383L23.9383 24.773ZM23.6776 21.9507L23.8862 24.203L24.4666 24.1474C24.6255 24.1437 24.7821 24.1083 24.9272 24.0433C25.0722 23.9782 25.2028 23.8848 25.3112 23.7685C25.4074 23.6434 25.477 23.4999 25.5159 23.3469C25.5547 23.1939 25.562 23.0346 25.5372 22.8787C25.4676 22.1592 25.0679 21.836 24.3311 21.8985L23.6776 21.9507Z" fill="white"/>
<path d="M29.865 26.3231L27.3624 26.556L26.8584 21.0746L29.2567 20.8452L29.3088 21.4291L27.4667 21.6029L27.6335 23.4277L29.3366 23.2713L29.3888 23.8448L27.6856 24.0012L27.8594 25.9234L29.8128 25.7391L29.865 26.3231Z" fill="white"/>
<path d="M33.9841 25.7045C33.6062 25.9639 33.1658 26.1176 32.7085 26.1494C32.3987 26.1869 32.0844 26.1511 31.791 26.0448C31.4975 25.9386 31.2332 25.7648 31.0192 25.5377C30.5437 25.0077 30.2651 24.3302 30.2302 23.619C30.123 22.8543 30.2958 22.0766 30.7168 21.4293C30.9013 21.1512 31.1469 20.9189 31.4348 20.7502C31.7228 20.5816 32.0455 20.4809 32.3783 20.456C32.7614 20.4073 33.1507 20.449 33.5149 20.5777L33.5774 21.2728C33.2221 21.0854 32.8199 21.0057 32.42 21.0434C32.1655 21.0622 31.919 21.1406 31.7005 21.2722C31.4819 21.4038 31.2973 21.585 31.1617 21.8012C30.8473 22.3224 30.7244 22.937 30.8142 23.5391C30.8371 24.1128 31.054 24.6617 31.4294 25.0962C31.5921 25.2729 31.7946 25.4082 32.0201 25.491C32.2455 25.5738 32.4875 25.6017 32.7259 25.5724C33.1652 25.5414 33.5841 25.3751 33.925 25.0962L33.9841 25.7045Z" fill="white"/>
<path d="M35.4606 20.2717L35.5128 20.8209L35.054 20.8626L35.4606 25.2421L35.9229 25.2004L35.975 25.7461L34.4943 25.8852L34.4457 25.3395L34.9045 25.2943L34.4943 20.9182L34.0355 20.96L33.9834 20.4142L35.4606 20.2717Z" fill="white"/>
<path d="M40.4039 25.3498L39.7887 25.4089L39.1456 23.9143L37.1401 24.0985L36.7925 25.6765L36.1738 25.7391L37.4946 20.1083L38.0681 20.0562L40.4039 25.3498ZM38.9093 23.3477L37.9534 21.0815C37.907 20.9698 37.8732 20.8532 37.8526 20.7339C37.8503 20.8591 37.8352 20.9838 37.8075 21.1059L37.2861 23.5146L38.9093 23.3477Z" fill="white"/>
<path d="M43.5528 25.0509L41.0988 25.2804L40.5879 19.7955L41.144 19.7434L41.5924 24.6443L43.4902 24.4705L43.5528 25.0509Z" fill="white"/>
</svg>
