<svg width="58" height="59" viewBox="0 0 58 59" fill="none" xmlns="http://www.w3.org/2000/svg">
<rect x="0.5" y="0.860352" width="56.93" height="56.93" rx="5.25" fill="white"/>
<rect x="18" y="6.36035" width="34" height="18" rx="2" fill="#323232"/>
<path d="M27.6619 14.2155C27.6392 13.9863 27.5417 13.8083 27.3693 13.6814C27.197 13.5545 26.9631 13.491 26.6676 13.491C26.4669 13.491 26.2973 13.5194 26.1591 13.5763C26.0208 13.6312 25.9148 13.7079 25.8409 13.8064C25.7689 13.9049 25.733 14.0166 25.733 14.1416C25.7292 14.2458 25.7509 14.3367 25.7983 14.4143C25.8475 14.492 25.9148 14.5592 26 14.616C26.0852 14.671 26.1837 14.7193 26.2955 14.7609C26.4072 14.8007 26.5265 14.8348 26.6534 14.8632L27.1761 14.9882C27.4299 15.045 27.6629 15.1208 27.875 15.2155C28.0871 15.3102 28.2708 15.4266 28.4261 15.5649C28.5814 15.7032 28.7017 15.866 28.7869 16.0535C28.8741 16.241 28.9186 16.456 28.9205 16.6984C28.9186 17.0545 28.8277 17.3632 28.6477 17.6246C28.4697 17.884 28.2121 18.0857 27.875 18.2297C27.5398 18.3717 27.1354 18.4427 26.6619 18.4427C26.1922 18.4427 25.7831 18.3708 25.4347 18.2268C25.0881 18.0829 24.8172 17.8698 24.6222 17.5876C24.429 17.3035 24.3277 16.9522 24.3182 16.5336H25.5085C25.5218 16.7287 25.5777 16.8916 25.6761 17.0223C25.7765 17.1511 25.91 17.2486 26.0767 17.3149C26.2453 17.3793 26.4356 17.4115 26.6477 17.4115C26.8561 17.4115 27.0369 17.3812 27.1903 17.3206C27.3456 17.26 27.4659 17.1757 27.5511 17.0677C27.6364 16.9598 27.679 16.8357 27.679 16.6956C27.679 16.5649 27.6402 16.455 27.5625 16.366C27.4867 16.277 27.375 16.2013 27.2273 16.1388C27.0814 16.0763 26.9025 16.0194 26.6903 15.9683L26.0568 15.8092C25.5663 15.6899 25.179 15.5033 24.8949 15.2496C24.6108 14.9958 24.4697 14.6539 24.4716 14.224C24.4697 13.8717 24.5634 13.5639 24.7528 13.3007C24.9441 13.0374 25.2064 12.8319 25.5398 12.6842C25.8731 12.5365 26.2519 12.4626 26.6761 12.4626C27.108 12.4626 27.4848 12.5365 27.8068 12.6842C28.1307 12.8319 28.3826 13.0374 28.5625 13.3007C28.7424 13.5639 28.8352 13.8689 28.8409 14.2155H27.6619ZM30.6179 18.3604H29.2997L31.3082 12.5422H32.8935L34.8991 18.3604H33.581L32.1236 13.8717H32.0781L30.6179 18.3604ZM30.5355 16.0734H33.6491V17.0336H30.5355V16.0734ZM35.5994 18.3604V12.5422H36.8295V17.3461H39.3239V18.3604H35.5994ZM40.1385 18.3604V12.5422H44.0589V13.5564H41.3686V14.9427H43.8572V15.9569H41.3686V17.3461H44.0703V18.3604H40.1385Z" fill="white"/>
</svg>
