<svg xmlns="http://www.w3.org/2000/svg" width="58" height="59" viewBox="0 0 58 59" fill="none">
    <g clip-path="url(#clip0_2127_15365)">
        <rect y="0.360352" width="57.93" height="57.93" rx="5.75" fill="white"/>
        <path d="M57.5 33.8604L24 0.360352H57.5V33.8604Z" fill="#323232"/>
        <path d="M41.2277 7.9686C41.3737 7.79048 41.4306 7.59563 41.3985 7.38403C41.3663 7.17243 41.2458 6.96218 41.0369 6.75326C40.8949 6.6113 40.755 6.51153 40.6171 6.45394C40.4804 6.39502 40.3512 6.37426 40.2293 6.39167C40.1088 6.41042 40.0044 6.46399 39.916 6.55238C39.8396 6.62335 39.7908 6.70304 39.7693 6.79143C39.7492 6.88115 39.7492 6.97624 39.7693 7.07668C39.7908 7.17578 39.8262 7.27957 39.8758 7.38805C39.9267 7.49519 39.9869 7.60366 40.0566 7.71348L40.3378 8.17149C40.4771 8.39112 40.5883 8.60941 40.6713 8.82637C40.7543 9.04332 40.8019 9.25559 40.8139 9.46317C40.826 9.67074 40.7958 9.87096 40.7235 10.0638C40.6525 10.258 40.532 10.4415 40.3619 10.6142C40.1088 10.8647 39.8262 11.0187 39.5142 11.0763C39.2048 11.1338 38.8801 11.0943 38.5399 10.9577C38.2024 10.8211 37.8663 10.5854 37.5315 10.2506C37.1994 9.9185 36.961 9.57834 36.8164 9.23014C36.6731 8.88328 36.6322 8.54111 36.6938 8.20363C36.7581 7.86615 36.9349 7.54608 37.2241 7.24341L38.0658 8.08511C37.9373 8.23242 37.8616 8.3871 37.8388 8.54915C37.8188 8.71119 37.8442 8.87458 37.9152 9.0393C37.9888 9.20403 38.1007 9.36138 38.2507 9.51138C38.398 9.65869 38.5473 9.76516 38.6986 9.83078C38.8513 9.89774 38.9959 9.92319 39.1325 9.90712C39.2691 9.89105 39.387 9.83346 39.4861 9.73436C39.5785 9.64195 39.6287 9.53682 39.6367 9.41897C39.6461 9.30246 39.6207 9.16988 39.5604 9.02122C39.5015 8.87391 39.4151 8.70718 39.3013 8.52103L38.9658 7.96056C38.7033 7.52934 38.5614 7.12355 38.5399 6.74321C38.5185 6.36288 38.6605 6.02138 38.9658 5.71871C39.2136 5.46828 39.4975 5.31695 39.8175 5.26472C40.1389 5.21383 40.4697 5.254 40.8099 5.38525C41.1501 5.51649 41.4701 5.73211 41.7701 6.03209C42.0755 6.33743 42.2897 6.65617 42.4129 6.98829C42.5375 7.32176 42.5703 7.64518 42.5114 7.95855C42.4524 8.27193 42.3025 8.55317 42.0614 8.80226L41.2277 7.9686ZM40.387 12.9897L39.4549 12.0576L44.9893 9.36373L46.1102 10.4847L43.4143 16.017L42.4822 15.0849L44.6257 10.8804L44.5935 10.8483L40.387 12.9897ZM41.9459 11.3143L44.1476 13.516L43.4686 14.195L41.2669 11.9933L41.9459 11.3143ZM43.9095 16.5121L48.0236 12.3981L48.8934 13.2679L45.4965 16.6648L47.2602 18.4286L46.5431 19.1457L43.9095 16.5121ZM47.1191 19.7217L51.2332 15.6077L54.0054 18.3798L53.2882 19.097L51.3859 17.1946L50.4056 18.1749L52.1653 19.9347L51.4481 20.6518L49.6884 18.8921L48.7061 19.8744L50.6165 21.7848L49.8993 22.502L47.1191 19.7217Z" fill="white"/>
    </g>

    <defs>
        <clipPath id="clip0_2127_15365">
            <rect y="0.360352" width="57.5" height="57.93" rx="5.75" fill="white"/>
        </clipPath>
    </defs>
</svg>