<svg width="58" height="59" viewBox="0 0 58 59" fill="none" xmlns="http://www.w3.org/2000/svg">
<rect x="0.5" y="0.860352" width="56.93" height="56.93" rx="5.25" fill="white"/>
<path d="M50.5 23.3604V9.36035C50.5 8.25578 49.6046 7.36035 48.5 7.36035H19.2366C18.3722 7.36035 17.915 8.38297 18.4913 9.02715L24.2384 15.4504C24.9462 16.2414 24.9127 17.4476 24.1622 18.1982L18.7071 23.6532C18.0771 24.2832 18.5233 25.3604 19.4142 25.3604H48.5C49.6046 25.3604 50.5 24.4649 50.5 23.3604Z" fill="#323232"/>
<path d="M30.6619 15.2155C30.6392 14.9863 30.5417 14.8083 30.3693 14.6814C30.197 14.5545 29.9631 14.491 29.6676 14.491C29.4669 14.491 29.2973 14.5194 29.1591 14.5763C29.0208 14.6312 28.9148 14.7079 28.8409 14.8064C28.7689 14.9049 28.733 15.0166 28.733 15.1416C28.7292 15.2458 28.7509 15.3367 28.7983 15.4143C28.8475 15.492 28.9148 15.5592 29 15.616C29.0852 15.671 29.1837 15.7193 29.2955 15.7609C29.4072 15.8007 29.5265 15.8348 29.6534 15.8632L30.1761 15.9882C30.4299 16.045 30.6629 16.1208 30.875 16.2155C31.0871 16.3102 31.2708 16.4266 31.4261 16.5649C31.5814 16.7032 31.7017 16.866 31.7869 17.0535C31.8741 17.241 31.9186 17.456 31.9205 17.6984C31.9186 18.0545 31.8277 18.3632 31.6477 18.6246C31.4697 18.884 31.2121 19.0857 30.875 19.2297C30.5398 19.3717 30.1354 19.4427 29.6619 19.4427C29.1922 19.4427 28.7831 19.3708 28.4347 19.2268C28.0881 19.0829 27.8172 18.8698 27.6222 18.5876C27.429 18.3035 27.3277 17.9522 27.3182 17.5336H28.5085C28.5218 17.7287 28.5777 17.8916 28.6761 18.0223C28.7765 18.1511 28.91 18.2486 29.0767 18.3149C29.2453 18.3793 29.4356 18.4115 29.6477 18.4115C29.8561 18.4115 30.0369 18.3812 30.1903 18.3206C30.3456 18.26 30.4659 18.1757 30.5511 18.0677C30.6364 17.9598 30.679 17.8357 30.679 17.6956C30.679 17.5649 30.6402 17.455 30.5625 17.366C30.4867 17.277 30.375 17.2013 30.2273 17.1388C30.0814 17.0763 29.9025 17.0194 29.6903 16.9683L29.0568 16.8092C28.5663 16.6899 28.179 16.5033 27.8949 16.2496C27.6108 15.9958 27.4697 15.6539 27.4716 15.224C27.4697 14.8717 27.5634 14.5639 27.7528 14.3007C27.9441 14.0374 28.2064 13.8319 28.5398 13.6842C28.8731 13.5365 29.2519 13.4626 29.6761 13.4626C30.108 13.4626 30.4848 13.5365 30.8068 13.6842C31.1307 13.8319 31.3826 14.0374 31.5625 14.3007C31.7424 14.5639 31.8352 14.8689 31.8409 15.2155H30.6619ZM33.6179 19.3604H32.2997L34.3082 13.5422H35.8935L37.8991 19.3604H36.581L35.1236 14.8717H35.0781L33.6179 19.3604ZM33.5355 17.0734H36.6491V18.0336H33.5355V17.0734ZM38.5994 19.3604V13.5422H39.8295V18.3461H42.3239V19.3604H38.5994ZM43.1385 19.3604V13.5422H47.0589V14.5564H44.3686V15.9427H46.8572V16.9569H44.3686V18.3461H47.0703V19.3604H43.1385Z" fill="white"/>
</svg>
