<svg width="30" height="30" viewBox="0 0 30 30" fill="none" xmlns="http://www.w3.org/2000/svg">
<path fill-rule="evenodd" clip-rule="evenodd" d="M9.44988 4.875C9.86154 4.875 10.2322 5.15194 10.3875 5.57554L14.1 15.7005C14.311 16.2759 14.0623 16.9324 13.5444 17.1669C13.0265 17.4013 12.4357 17.1249 12.2247 16.5495L11.3706 14.22C11.2957 14.2396 11.2177 14.25 11.1374 14.25H7.51818L6.67505 16.5495C6.46407 17.1249 5.87322 17.4013 5.35536 17.1669C4.8375 16.9324 4.58873 16.2759 4.79971 15.7005L8.51221 5.57554C8.66753 5.15194 9.03821 4.875 9.44988 4.875ZM10.5566 12L9.44988 8.98174L8.34318 12H10.5566Z" fill="#4A4A4A"/>
<path d="M5.73744 18.75C5.17825 18.75 4.72494 19.2537 4.72494 19.875C4.72494 20.4963 5.17825 21 5.73744 21H21.2624C21.8216 21 22.2749 20.4963 22.2749 19.875C22.2749 19.2537 21.8216 18.75 21.2624 18.75H5.73744Z" fill="#4A4A4A"/>
<path d="M5.73744 22.5C5.17825 22.5 4.72494 23.0037 4.72494 23.625C4.72494 24.2463 5.17825 24.75 5.73744 24.75H15.1874C15.7466 24.75 16.1999 24.2463 16.1999 23.625C16.1999 23.0037 15.7466 22.5 15.1874 22.5H5.73744Z" fill="#4A4A4A"/>
<path fill-rule="evenodd" clip-rule="evenodd" d="M20.3396 8.9114C19.7241 8.49188 19 8.25 18.2249 8.25C15.9882 8.25 14.1749 10.2647 14.1749 12.75C14.1749 15.2353 15.9882 17.25 18.2249 17.25C19 17.25 19.7241 17.0081 20.3396 16.5886C20.4986 16.9787 20.852 17.25 21.2624 17.25C21.8216 17.25 22.2749 16.7463 22.2749 16.125V9.375C22.2749 8.75368 21.8216 8.25 21.2624 8.25C20.852 8.25 20.4986 8.52135 20.3396 8.9114ZM18.2249 15C19.3433 15 20.2499 13.9926 20.2499 12.75C20.2499 11.5074 19.3433 10.5 18.2249 10.5C17.1066 10.5 16.1999 11.5074 16.1999 12.75C16.1999 13.9926 17.1066 15 18.2249 15Z" fill="#4A4A4A"/>
</svg>
