<svg width="58" height="59" viewBox="0 0 58 59" fill="none" xmlns="http://www.w3.org/2000/svg">
<rect x="0.5" y="0.860352" width="56.93" height="56.93" rx="5.25" fill="white"/>
<rect x="25" y="6.36035" width="27" height="27" rx="2" fill="#323232"/>
<path d="M31.6619 19.2155C31.6392 18.9863 31.5417 18.8083 31.3693 18.6814C31.197 18.5545 30.9631 18.491 30.6676 18.491C30.4669 18.491 30.2973 18.5194 30.1591 18.5763C30.0208 18.6312 29.9148 18.7079 29.8409 18.8064C29.7689 18.9049 29.733 19.0166 29.733 19.1416C29.7292 19.2458 29.7509 19.3367 29.7983 19.4143C29.8475 19.492 29.9148 19.5592 30 19.616C30.0852 19.671 30.1837 19.7193 30.2955 19.7609C30.4072 19.8007 30.5265 19.8348 30.6534 19.8632L31.1761 19.9882C31.4299 20.045 31.6629 20.1208 31.875 20.2155C32.0871 20.3102 32.2708 20.4266 32.4261 20.5649C32.5814 20.7032 32.7017 20.866 32.7869 21.0535C32.8741 21.241 32.9186 21.456 32.9205 21.6984C32.9186 22.0545 32.8277 22.3632 32.6477 22.6246C32.4697 22.884 32.2121 23.0857 31.875 23.2297C31.5398 23.3717 31.1354 23.4427 30.6619 23.4427C30.1922 23.4427 29.7831 23.3708 29.4347 23.2268C29.0881 23.0829 28.8172 22.8698 28.6222 22.5876C28.429 22.3035 28.3277 21.9522 28.3182 21.5336H29.5085C29.5218 21.7287 29.5777 21.8916 29.6761 22.0223C29.7765 22.1511 29.91 22.2486 30.0767 22.3149C30.2453 22.3793 30.4356 22.4115 30.6477 22.4115C30.8561 22.4115 31.0369 22.3812 31.1903 22.3206C31.3456 22.26 31.4659 22.1757 31.5511 22.0677C31.6364 21.9598 31.679 21.8357 31.679 21.6956C31.679 21.5649 31.6402 21.455 31.5625 21.366C31.4867 21.277 31.375 21.2013 31.2273 21.1388C31.0814 21.0763 30.9025 21.0194 30.6903 20.9683L30.0568 20.8092C29.5663 20.6899 29.179 20.5033 28.8949 20.2496C28.6108 19.9958 28.4697 19.6539 28.4716 19.224C28.4697 18.8717 28.5634 18.5639 28.7528 18.3007C28.9441 18.0374 29.2064 17.8319 29.5398 17.6842C29.8731 17.5365 30.2519 17.4626 30.6761 17.4626C31.108 17.4626 31.4848 17.5365 31.8068 17.6842C32.1307 17.8319 32.3826 18.0374 32.5625 18.3007C32.7424 18.5639 32.8352 18.8689 32.8409 19.2155H31.6619ZM34.6179 23.3604H33.2997L35.3082 17.5422H36.8935L38.8991 23.3604H37.581L36.1236 18.8717H36.0781L34.6179 23.3604ZM34.5355 21.0734H37.6491V22.0336H34.5355V21.0734ZM39.5994 23.3604V17.5422H40.8295V22.3461H43.3239V23.3604H39.5994ZM44.1385 23.3604V17.5422H48.0589V18.5564H45.3686V19.9427H47.8572V20.9569H45.3686V22.3461H48.0703V23.3604H44.1385Z" fill="white"/>
</svg>
