<svg width="58" height="59" viewBox="0 0 58 59" fill="none" xmlns="http://www.w3.org/2000/svg">
<rect x="0.5" y="0.860352" width="56.93" height="56.93" rx="5.25" fill="white"/>
<path d="M51.5 23.3604V9.36035C51.5 8.25578 50.6046 7.36035 49.5 7.36035H24.4368C23.8432 7.36035 23.2803 7.624 22.9003 8.07998L17.067 15.08C16.4489 15.8217 16.4489 16.899 17.067 17.6407L22.9003 24.6407C23.2803 25.0967 23.8432 25.3604 24.4367 25.3604H49.5C50.6046 25.3604 51.5 24.4649 51.5 23.3604Z" fill="#323232"/>
<path d="M29.6619 15.2155C29.6392 14.9863 29.5417 14.8083 29.3693 14.6814C29.197 14.5545 28.9631 14.491 28.6676 14.491C28.4669 14.491 28.2973 14.5194 28.1591 14.5763C28.0208 14.6312 27.9148 14.7079 27.8409 14.8064C27.7689 14.9049 27.733 15.0166 27.733 15.1416C27.7292 15.2458 27.7509 15.3367 27.7983 15.4143C27.8475 15.492 27.9148 15.5592 28 15.616C28.0852 15.671 28.1837 15.7193 28.2955 15.7609C28.4072 15.8007 28.5265 15.8348 28.6534 15.8632L29.1761 15.9882C29.4299 16.045 29.6629 16.1208 29.875 16.2155C30.0871 16.3102 30.2708 16.4266 30.4261 16.5649C30.5814 16.7032 30.7017 16.866 30.7869 17.0535C30.8741 17.241 30.9186 17.456 30.9205 17.6984C30.9186 18.0545 30.8277 18.3632 30.6477 18.6246C30.4697 18.884 30.2121 19.0857 29.875 19.2297C29.5398 19.3717 29.1354 19.4427 28.6619 19.4427C28.1922 19.4427 27.7831 19.3708 27.4347 19.2268C27.0881 19.0829 26.8172 18.8698 26.6222 18.5876C26.429 18.3035 26.3277 17.9522 26.3182 17.5336H27.5085C27.5218 17.7287 27.5777 17.8916 27.6761 18.0223C27.7765 18.1511 27.91 18.2486 28.0767 18.3149C28.2453 18.3793 28.4356 18.4115 28.6477 18.4115C28.8561 18.4115 29.0369 18.3812 29.1903 18.3206C29.3456 18.26 29.4659 18.1757 29.5511 18.0677C29.6364 17.9598 29.679 17.8357 29.679 17.6956C29.679 17.5649 29.6402 17.455 29.5625 17.366C29.4867 17.277 29.375 17.2013 29.2273 17.1388C29.0814 17.0763 28.9025 17.0194 28.6903 16.9683L28.0568 16.8092C27.5663 16.6899 27.179 16.5033 26.8949 16.2496C26.6108 15.9958 26.4697 15.6539 26.4716 15.224C26.4697 14.8717 26.5634 14.5639 26.7528 14.3007C26.9441 14.0374 27.2064 13.8319 27.5398 13.6842C27.8731 13.5365 28.2519 13.4626 28.6761 13.4626C29.108 13.4626 29.4848 13.5365 29.8068 13.6842C30.1307 13.8319 30.3826 14.0374 30.5625 14.3007C30.7424 14.5639 30.8352 14.8689 30.8409 15.2155H29.6619ZM32.6179 19.3604H31.2997L33.3082 13.5422H34.8935L36.8991 19.3604H35.581L34.1236 14.8717H34.0781L32.6179 19.3604ZM32.5355 17.0734H35.6491V18.0336H32.5355V17.0734ZM37.5994 19.3604V13.5422H38.8295V18.3461H41.3239V19.3604H37.5994ZM42.1385 19.3604V13.5422H46.0589V14.5564H43.3686V15.9427H45.8572V16.9569H43.3686V18.3461H46.0703V19.3604H42.1385Z" fill="white"/>
</svg>
