<svg width="58" height="59" viewBox="0 0 58 59" fill="none" xmlns="http://www.w3.org/2000/svg">
<rect x="0.5" y="0.860352" width="56.93" height="56.93" rx="5.25" fill="white"/>
<path d="M20 8.36035C20 7.25578 20.8954 6.36035 22 6.36035H50.0068C51.2863 6.36035 52.2367 7.54519 51.9591 8.79421L48.848 22.7942C48.6447 23.7093 47.8331 24.3604 46.8957 24.3604H22C20.8954 24.3604 20 23.4649 20 22.3604V8.36035Z" fill="#323232"/>
<path d="M28.6619 14.2155C28.6392 13.9863 28.5417 13.8083 28.3693 13.6814C28.197 13.5545 27.9631 13.491 27.6676 13.491C27.4669 13.491 27.2973 13.5194 27.1591 13.5763C27.0208 13.6312 26.9148 13.7079 26.8409 13.8064C26.7689 13.9049 26.733 14.0166 26.733 14.1416C26.7292 14.2458 26.7509 14.3367 26.7983 14.4143C26.8475 14.492 26.9148 14.5592 27 14.616C27.0852 14.671 27.1837 14.7193 27.2955 14.7609C27.4072 14.8007 27.5265 14.8348 27.6534 14.8632L28.1761 14.9882C28.4299 15.045 28.6629 15.1208 28.875 15.2155C29.0871 15.3102 29.2708 15.4266 29.4261 15.5649C29.5814 15.7032 29.7017 15.866 29.7869 16.0535C29.8741 16.241 29.9186 16.456 29.9205 16.6984C29.9186 17.0545 29.8277 17.3632 29.6477 17.6246C29.4697 17.884 29.2121 18.0857 28.875 18.2297C28.5398 18.3717 28.1354 18.4427 27.6619 18.4427C27.1922 18.4427 26.7831 18.3708 26.4347 18.2268C26.0881 18.0829 25.8172 17.8698 25.6222 17.5876C25.429 17.3035 25.3277 16.9522 25.3182 16.5336H26.5085C26.5218 16.7287 26.5777 16.8916 26.6761 17.0223C26.7765 17.1511 26.91 17.2486 27.0767 17.3149C27.2453 17.3793 27.4356 17.4115 27.6477 17.4115C27.8561 17.4115 28.0369 17.3812 28.1903 17.3206C28.3456 17.26 28.4659 17.1757 28.5511 17.0677C28.6364 16.9598 28.679 16.8357 28.679 16.6956C28.679 16.5649 28.6402 16.455 28.5625 16.366C28.4867 16.277 28.375 16.2013 28.2273 16.1388C28.0814 16.0763 27.9025 16.0194 27.6903 15.9683L27.0568 15.8092C26.5663 15.6899 26.179 15.5033 25.8949 15.2496C25.6108 14.9958 25.4697 14.6539 25.4716 14.224C25.4697 13.8717 25.5634 13.5639 25.7528 13.3007C25.9441 13.0374 26.2064 12.8319 26.5398 12.6842C26.8731 12.5365 27.2519 12.4626 27.6761 12.4626C28.108 12.4626 28.4848 12.5365 28.8068 12.6842C29.1307 12.8319 29.3826 13.0374 29.5625 13.3007C29.7424 13.5639 29.8352 13.8689 29.8409 14.2155H28.6619ZM31.6179 18.3604H30.2997L32.3082 12.5422H33.8935L35.8991 18.3604H34.581L33.1236 13.8717H33.0781L31.6179 18.3604ZM31.5355 16.0734H34.6491V17.0336H31.5355V16.0734ZM36.5994 18.3604V12.5422H37.8295V17.3461H40.3239V18.3604H36.5994ZM41.1385 18.3604V12.5422H45.0589V13.5564H42.3686V14.9427H44.8572V15.9569H42.3686V17.3461H45.0703V18.3604H41.1385Z" fill="white"/>
</svg>
