<svg width="58" height="59" viewBox="0 0 58 59" fill="none" xmlns="http://www.w3.org/2000/svg">
<g clip-path="url(#clip0_2127_15362)">
<rect y="0.360352" width="57.93" height="57.93" rx="5.75" fill="white"/>
<path d="M33.5 0.360352H16L58 41.8604V24.8604L33.5 0.360352Z" fill="#323232"/>
<path d="M37.2268 11.9686C37.3727 11.7905 37.4296 11.5956 37.3975 11.384C37.3654 11.1724 37.2448 10.9622 37.0359 10.7533C36.894 10.6113 36.754 10.5115 36.6161 10.4539C36.4795 10.395 36.3502 10.3743 36.2284 10.3917C36.1078 10.4104 36.0034 10.464 35.915 10.5524C35.8387 10.6234 35.7898 10.703 35.7683 10.7914C35.7483 10.8812 35.7483 10.9762 35.7683 11.0767C35.7898 11.1758 35.8253 11.2796 35.8748 11.388C35.9257 11.4952 35.986 11.6037 36.0556 11.7135L36.3368 12.1715C36.4761 12.3911 36.5873 12.6094 36.6703 12.8264C36.7533 13.0433 36.8009 13.2556 36.8129 13.4632C36.825 13.6707 36.7949 13.871 36.7225 14.0638C36.6516 14.258 36.531 14.4415 36.361 14.6142C36.1078 14.8647 35.8253 15.0187 35.5132 15.0763C35.2039 15.1338 34.8791 15.0943 34.5389 14.9577C34.2015 14.8211 33.8653 14.5854 33.5305 14.2506C33.1984 13.9185 32.96 13.5783 32.8154 13.2301C32.6721 12.8833 32.6312 12.5411 32.6928 12.2036C32.7571 11.8661 32.9339 11.5461 33.2232 11.2434L34.0649 12.0851C33.9363 12.2324 33.8606 12.3871 33.8379 12.5491C33.8178 12.7112 33.8432 12.8746 33.9142 13.0393C33.9879 13.204 34.0997 13.3614 34.2497 13.5114C34.397 13.6587 34.5463 13.7652 34.6976 13.8308C34.8503 13.8977 34.995 13.9232 35.1316 13.9071C35.2682 13.891 35.386 13.8335 35.4851 13.7344C35.5775 13.642 35.6277 13.5368 35.6358 13.419C35.6451 13.3025 35.6197 13.1699 35.5594 13.0212C35.5005 12.8739 35.4141 12.7072 35.3003 12.521L34.9648 11.9606C34.7023 11.5293 34.5604 11.1236 34.5389 10.7432C34.5175 10.3629 34.6595 10.0214 34.9648 9.71871C35.2126 9.46828 35.4965 9.31695 35.8166 9.26472C36.138 9.21383 36.4688 9.254 36.8089 9.38525C37.1491 9.51649 37.4692 9.73211 37.7691 10.0321C38.0745 10.3374 38.2888 10.6562 38.412 10.9883C38.5365 11.3218 38.5693 11.6452 38.5104 11.9586C38.4515 12.2719 38.3015 12.5532 38.0604 12.8023L37.2268 11.9686ZM36.3861 16.9897L35.454 16.0576L40.9883 13.3637L42.1092 14.4847L39.4134 20.017L38.4813 19.0849L40.6247 14.8804L40.5925 14.8483L36.3861 16.9897ZM37.9449 15.3143L40.1466 17.516L39.4676 18.195L37.2659 15.9933L37.9449 15.3143ZM39.9085 20.5121L44.0226 16.3981L44.8924 17.2679L41.4955 20.6648L43.2593 22.4286L42.5421 23.1457L39.9085 20.5121ZM43.1181 23.7217L47.2322 19.6077L50.0044 22.3798L49.2872 23.097L47.3849 21.1946L46.4046 22.1749L48.1643 23.9347L47.4472 24.6518L45.6874 22.8921L44.7051 23.8744L46.6155 25.7848L45.8984 26.502L43.1181 23.7217Z" fill="white"/>
</g>
<defs>
<clipPath id="clip0_2127_15362">
<rect y="0.360352" width="57.93" height="57.93" rx="5.75" fill="white"/>
</clipPath>
</defs>
</svg>
