<svg width="58" height="59" viewBox="0 0 58 59" fill="none" xmlns="http://www.w3.org/2000/svg">
<rect x="0.5" y="0.860352" width="56.93" height="56.93" rx="5.25" fill="white"/>
<circle cx="36" cy="23.3604" r="16" fill="#323232"/>
<path d="M28.6619 22.2155C28.6392 21.9863 28.5417 21.8083 28.3693 21.6814C28.197 21.5545 27.9631 21.491 27.6676 21.491C27.4669 21.491 27.2973 21.5194 27.1591 21.5763C27.0208 21.6312 26.9148 21.7079 26.8409 21.8064C26.7689 21.9049 26.733 22.0166 26.733 22.1416C26.7292 22.2458 26.7509 22.3367 26.7983 22.4143C26.8475 22.492 26.9148 22.5592 27 22.616C27.0852 22.671 27.1837 22.7193 27.2955 22.7609C27.4072 22.8007 27.5265 22.8348 27.6534 22.8632L28.1761 22.9882C28.4299 23.045 28.6629 23.1208 28.875 23.2155C29.0871 23.3102 29.2708 23.4266 29.4261 23.5649C29.5814 23.7032 29.7017 23.866 29.7869 24.0535C29.8741 24.241 29.9186 24.456 29.9205 24.6984C29.9186 25.0545 29.8277 25.3632 29.6477 25.6246C29.4697 25.884 29.2121 26.0857 28.875 26.2297C28.5398 26.3717 28.1354 26.4427 27.6619 26.4427C27.1922 26.4427 26.7831 26.3708 26.4347 26.2268C26.0881 26.0829 25.8172 25.8698 25.6222 25.5876C25.429 25.3035 25.3277 24.9522 25.3182 24.5336H26.5085C26.5218 24.7287 26.5777 24.8916 26.6761 25.0223C26.7765 25.1511 26.91 25.2486 27.0767 25.3149C27.2453 25.3793 27.4356 25.4115 27.6477 25.4115C27.8561 25.4115 28.0369 25.3812 28.1903 25.3206C28.3456 25.26 28.4659 25.1757 28.5511 25.0677C28.6364 24.9598 28.679 24.8357 28.679 24.6956C28.679 24.5649 28.6402 24.455 28.5625 24.366C28.4867 24.277 28.375 24.2013 28.2273 24.1388C28.0814 24.0763 27.9025 24.0194 27.6903 23.9683L27.0568 23.8092C26.5663 23.6899 26.179 23.5033 25.8949 23.2496C25.6108 22.9958 25.4697 22.6539 25.4716 22.224C25.4697 21.8717 25.5634 21.5639 25.7528 21.3007C25.9441 21.0374 26.2064 20.8319 26.5398 20.6842C26.8731 20.5365 27.2519 20.4626 27.6761 20.4626C28.108 20.4626 28.4848 20.5365 28.8068 20.6842C29.1307 20.8319 29.3826 21.0374 29.5625 21.3007C29.7424 21.5639 29.8352 21.8689 29.8409 22.2155H28.6619ZM31.6179 26.3604H30.2997L32.3082 20.5422H33.8935L35.8991 26.3604H34.581L33.1236 21.8717H33.0781L31.6179 26.3604ZM31.5355 24.0734H34.6491V25.0336H31.5355V24.0734ZM36.5994 26.3604V20.5422H37.8295V25.3461H40.3239V26.3604H36.5994ZM41.1385 26.3604V20.5422H45.0589V21.5564H42.3686V22.9427H44.8572V23.9569H42.3686V25.3461H45.0703V26.3604H41.1385Z" fill="white"/>
</svg>
