<svg width="51" height="33" viewBox="0 0 51 33" fill="none" xmlns="http://www.w3.org/2000/svg">
<rect width="51" height="33" fill="white"/>
<path d="M17.3845 26.6529V25.4121C17.3845 24.9364 17.0949 24.6263 16.5986 24.6263C16.3504 24.6263 16.0816 24.709 15.8954 24.9779C15.7508 24.7504 15.544 24.6263 15.2338 24.6263C15.0269 24.6263 14.8202 24.6883 14.6547 24.9158V24.6677H14.2205V26.6529H14.6547V25.5568C14.6547 25.2054 14.8409 25.0399 15.1304 25.0399C15.4198 25.0399 15.5647 25.226 15.5647 25.5568V26.6529H15.999V25.5568C15.999 25.2054 16.2057 25.0399 16.4745 25.0399C16.7641 25.0399 16.9088 25.226 16.9088 25.5568V26.6529H17.3845ZM23.8157 24.6677H23.1127V24.068H22.6784V24.6677H22.2855V25.0605H22.6783V25.9705C22.6783 26.4255 22.8645 26.6942 23.3608 26.6942C23.5469 26.6942 23.7536 26.6322 23.8985 26.5495L23.7743 26.1772C23.6503 26.2599 23.5056 26.2807 23.4022 26.2807C23.1954 26.2807 23.1127 26.1566 23.1127 25.9497V25.0605H23.8157V24.6677ZM27.4967 24.6262C27.2486 24.6262 27.0832 24.7504 26.9797 24.9158V24.6677H26.5455V26.6529H26.9797V25.5362C26.9797 25.2054 27.1244 25.0192 27.3933 25.0192C27.476 25.0192 27.5794 25.0399 27.6621 25.0606L27.7862 24.647C27.7035 24.6263 27.5794 24.6263 27.4967 24.6263V24.6262ZM21.9339 24.8331C21.7271 24.6883 21.4376 24.6263 21.1274 24.6263C20.6311 24.6263 20.3003 24.8744 20.3003 25.2673C20.3003 25.5983 20.5484 25.7843 20.9827 25.8464L21.1895 25.8671C21.417 25.9084 21.541 25.9705 21.541 26.0739C21.541 26.2186 21.3756 26.322 21.086 26.322C20.7965 26.322 20.5691 26.2186 20.4243 26.1153L20.2175 26.4461C20.445 26.6115 20.7552 26.6942 21.0653 26.6942C21.6444 26.6942 21.9753 26.4255 21.9753 26.0532C21.9753 25.7016 21.7064 25.5155 21.2928 25.4535L21.086 25.4328C20.8999 25.412 20.7552 25.3708 20.7552 25.2467C20.7552 25.1019 20.8999 25.0192 21.1274 25.0192C21.3756 25.0192 21.6237 25.1226 21.7478 25.1846L21.9339 24.8331ZM33.4731 24.6263C33.2249 24.6263 33.0595 24.7504 32.956 24.9158V24.6677H32.5218V26.6529H32.956V25.5362C32.956 25.2054 33.1008 25.0192 33.3696 25.0192C33.4524 25.0192 33.5558 25.0399 33.6385 25.0606L33.7626 24.647C33.6799 24.6263 33.5558 24.6263 33.4731 24.6263ZM27.931 25.6603C27.931 26.2599 28.3445 26.6942 28.9856 26.6942C29.2751 26.6942 29.4819 26.6322 29.6887 26.4668L29.4819 26.1153C29.3165 26.2393 29.1511 26.3013 28.9649 26.3013C28.6134 26.3013 28.3652 26.0532 28.3652 25.6603C28.3652 25.2881 28.6134 25.0399 28.9649 25.0192C29.1511 25.0192 29.3165 25.0812 29.4819 25.2054L29.6887 24.8538C29.4819 24.6883 29.2751 24.6263 28.9856 24.6263C28.3445 24.6263 27.931 25.0606 27.931 25.6603ZM31.9428 25.6603V24.6677H31.5085V24.9158C31.3637 24.7297 31.157 24.6263 30.8881 24.6263C30.3298 24.6263 29.8955 25.0606 29.8955 25.6603C29.8955 26.2599 30.3298 26.6942 30.8881 26.6942C31.1776 26.6942 31.3845 26.5909 31.5085 26.4047V26.6529H31.9428V25.6603ZM30.3504 25.6603C30.3504 25.3087 30.5779 25.0192 30.9501 25.0192C31.3017 25.0192 31.5499 25.2881 31.5499 25.6603C31.5499 26.0118 31.3017 26.3013 30.9501 26.3013C30.5779 26.2806 30.3504 26.0118 30.3504 25.6603ZM25.1599 24.6263C24.5809 24.6263 24.1673 25.0399 24.1673 25.6603C24.1673 26.2807 24.5808 26.6942 25.1806 26.6942C25.4701 26.6942 25.7596 26.6115 25.9871 26.4255L25.7803 26.1153C25.6148 26.2393 25.4081 26.322 25.2013 26.322C24.9324 26.322 24.6636 26.198 24.6015 25.8463H26.0698V25.681C26.0906 25.0399 25.7184 24.6263 25.1599 24.6263ZM25.1599 24.9985C25.4287 24.9985 25.6149 25.164 25.6562 25.4742H24.6222C24.6636 25.2054 24.8497 24.9985 25.1599 24.9985ZM35.9339 25.6603V23.8818H35.4997V24.9158C35.3549 24.7297 35.1481 24.6263 34.8792 24.6263C34.3209 24.6263 33.8866 25.0606 33.8866 25.6603C33.8866 26.2599 34.3209 26.6942 34.8792 26.6942C35.1688 26.6942 35.3756 26.5909 35.4997 26.4047V26.6529H35.9339V25.6603ZM34.3416 25.6603C34.3416 25.3087 34.569 25.0192 34.9413 25.0192C35.2929 25.0192 35.541 25.2881 35.541 25.6603C35.541 26.0118 35.2929 26.3013 34.9413 26.3013C34.569 26.2806 34.3416 26.0118 34.3416 25.6603ZM19.8246 25.6603V24.6677H19.3903V24.9158C19.2455 24.7297 19.0388 24.6263 18.7699 24.6263C18.2116 24.6263 17.7773 25.0606 17.7773 25.6603C17.7773 26.2599 18.2116 26.6942 18.7699 26.6942C19.0595 26.6942 19.2662 26.5909 19.3903 26.4047V26.6529H19.8246V25.6603ZM18.2116 25.6603C18.2116 25.3087 18.4391 25.0192 18.8113 25.0192C19.1628 25.0192 19.411 25.2881 19.411 25.6603C19.411 26.0118 19.1628 26.3013 18.8113 26.3013C18.4391 26.2806 18.2116 26.0118 18.2116 25.6603Z" fill="black"/>
<path d="M21.7888 9.59229H28.3028V21.2969H21.7888V9.59229Z" fill="#FF5F00"/>
<path d="M22.2024 15.4446C22.2024 13.0665 23.3191 10.9572 25.0354 9.59228C23.7741 8.59968 22.1818 8 20.4447 8C16.3294 8 13 11.3294 13 15.4446C13 19.5598 16.3294 22.8892 20.4446 22.8892C22.1817 22.8892 23.774 22.2896 25.0354 21.2969C23.3191 19.9527 22.2024 17.8227 22.2024 15.4446Z" fill="#EB001B"/>
<path d="M37.0918 15.4446C37.0918 19.5598 33.7625 22.8892 29.6472 22.8892C27.9101 22.8892 26.3178 22.2896 25.0564 21.2969C26.7935 19.9321 27.8895 17.8227 27.8895 15.4446C27.8895 13.0665 26.7727 10.9572 25.0564 9.59228C26.3177 8.59968 27.9101 8 29.6472 8C33.7625 8 37.0918 11.3501 37.0918 15.4446Z" fill="#F79E1B"/>
</svg>
