<svg width="51" height="33" viewBox="0 0 51 33" fill="none" xmlns="http://www.w3.org/2000/svg">
<rect width="51" height="33" fill="white"/>
<path d="M38.1892 13.2075H35.5928C35.44 13.2075 35.2873 13.3602 35.2109 13.513L34.1418 20.233C34.1418 20.3858 34.2182 20.4621 34.3709 20.4621H35.7455C35.8982 20.4621 35.9746 20.3858 35.9746 20.233L36.28 18.3239C36.28 18.1712 36.4328 18.0185 36.6619 18.0185H37.5019C39.2583 18.0185 40.251 17.1785 40.4801 15.4984C40.6328 14.8112 40.4801 14.2003 40.1746 13.8184C39.7164 13.4366 39.0292 13.2075 38.1892 13.2075ZM38.4946 15.7275C38.3419 16.6439 37.6546 16.6439 36.9673 16.6439H36.5091L36.8146 14.8875C36.8146 14.8112 36.891 14.7348 37.0437 14.7348H37.1964C37.6546 14.7348 38.1128 14.7348 38.3419 15.0403C38.4946 15.1166 38.4946 15.3457 38.4946 15.7275Z" fill="#139AD6"/>
<path d="M19.4799 13.2075H16.8835C16.7308 13.2075 16.5781 13.3602 16.5017 13.513L15.4326 20.233C15.4326 20.3858 15.509 20.4621 15.6617 20.4621H16.8835C17.0363 20.4621 17.189 20.3094 17.2654 20.1567L17.5708 18.3239C17.5708 18.1712 17.7235 18.0185 17.9526 18.0185H18.7926C20.549 18.0185 21.5418 17.1785 21.7709 15.4984C21.9236 14.8112 21.7709 14.2003 21.4654 13.8184C21.0072 13.4366 20.3963 13.2075 19.4799 13.2075ZM19.7854 15.7275C19.6327 16.6439 18.9454 16.6439 18.2581 16.6439H17.8763L18.1817 14.8875C18.1817 14.8112 18.2581 14.7348 18.4108 14.7348H18.5636C19.0217 14.7348 19.4799 14.7348 19.709 15.0403C19.7854 15.1166 19.8617 15.3457 19.7854 15.7275ZM27.3455 15.6512H26.1236C26.0473 15.6512 25.8945 15.7275 25.8945 15.8039L25.8182 16.1857L25.7418 16.033C25.4363 15.6512 24.9018 15.4984 24.2909 15.4984C22.9163 15.4984 21.6945 16.5676 21.4654 18.0185C21.3127 18.7821 21.5418 19.4694 21.9236 19.9276C22.3054 20.3858 22.84 20.5385 23.5272 20.5385C24.6727 20.5385 25.2836 19.8512 25.2836 19.8512L25.2073 20.233C25.2073 20.3858 25.2836 20.4621 25.4363 20.4621H26.5818C26.7345 20.4621 26.8873 20.3094 26.9636 20.1567L27.6509 15.8803C27.5745 15.8039 27.4218 15.6512 27.3455 15.6512ZM25.5891 18.0948C25.4363 18.7821 24.9018 19.3167 24.1382 19.3167C23.7563 19.3167 23.4509 19.1639 23.2981 19.0112C23.1454 18.7821 23.0691 18.4767 23.0691 18.0948C23.1454 17.4076 23.7563 16.873 24.4436 16.873C24.8254 16.873 25.0545 17.0257 25.2836 17.1785C25.5127 17.4076 25.5891 17.7894 25.5891 18.0948Z" fill="#263B80"/>
<path d="M45.9784 15.6508H44.7566C44.6802 15.6508 44.5275 15.7271 44.5275 15.8035L44.4511 16.1853L44.3748 16.0326C44.0693 15.6508 43.5348 15.498 42.9239 15.498C41.5493 15.498 40.3275 16.5671 40.0984 18.0181C39.9456 18.7817 40.1747 19.469 40.5566 19.9272C40.9384 20.3854 41.4729 20.5381 42.1602 20.5381C43.3057 20.5381 43.9166 19.8508 43.9166 19.8508L43.8402 20.2326C43.8402 20.3854 43.9166 20.4617 44.0693 20.4617H45.2148C45.3675 20.4617 45.5202 20.309 45.5966 20.1563L46.2839 15.8799C46.2075 15.8035 46.1312 15.6508 45.9784 15.6508ZM44.222 18.0944C44.0693 18.7817 43.5348 19.3163 42.7711 19.3163C42.3893 19.3163 42.0838 19.1635 41.9311 19.0108C41.7784 18.7817 41.702 18.4763 41.702 18.0944C41.7784 17.4072 42.3893 16.8726 43.0766 16.8726C43.4584 16.8726 43.6875 17.0253 43.9166 17.1781C44.2221 17.4072 44.2984 17.789 44.222 18.0944Z" fill="#139AD6"/>
<path d="M33.9892 15.6509H32.691C32.5383 15.6509 32.4619 15.7272 32.3855 15.8036L30.7055 18.4L29.9419 15.9563C29.8655 15.8036 29.7891 15.7272 29.5601 15.7272H28.3382C28.1855 15.7272 28.1091 15.88 28.1091 16.0327L29.4837 20.08L28.1855 21.9128C28.1091 22.0655 28.1855 22.2946 28.3382 22.2946H29.5601C29.7128 22.2946 29.7891 22.2182 29.8655 22.1418L34.0655 16.1091C34.2946 15.88 34.1419 15.6509 33.9892 15.6509Z" fill="#263B80"/>
<path d="M47.4295 13.4366L46.3604 20.3094C46.3604 20.4621 46.4367 20.5385 46.5894 20.5385H47.6585C47.8113 20.5385 47.964 20.3858 48.0404 20.233L49.1095 13.513C49.1095 13.3602 49.0331 13.2839 48.8804 13.2839H47.6585C47.5822 13.2075 47.5058 13.2839 47.4295 13.4366Z" fill="#139AD6"/>
<path d="M9.7819 10.9164C9.24735 10.3055 8.25461 10 6.88005 10H3.06184C2.83274 10 2.60365 10.2291 2.52729 10.4582L1 20.4619C1 20.691 1.15273 20.8437 1.30546 20.8437H3.67275L4.28367 17.1019V17.2546C4.36003 17.0255 4.58912 16.7964 4.81822 16.7964H5.96368C8.17825 16.7964 9.85826 15.8801 10.3928 13.36V13.1309C10.3165 13.1309 10.3165 13.1309 10.3928 13.1309C10.4692 12.1382 10.3165 11.5273 9.7819 10.9164Z" fill="#263B80"/>
<path d="M10.3164 13.1309V13.36C9.78184 15.9563 8.10183 16.7963 5.88726 16.7963H4.7418C4.5127 16.7963 4.28361 17.0254 4.20725 17.2545L3.4436 21.9128C3.4436 22.0655 3.51997 22.2182 3.74906 22.2182H5.73453C5.96363 22.2182 6.19272 22.0655 6.19272 21.8364V21.76L6.57454 19.3927V19.24C6.57454 19.0109 6.80363 18.8582 7.03273 18.8582H7.33819C9.24729 18.8582 10.7746 18.0945 11.1564 15.8036C11.3091 14.8872 11.2328 14.0472 10.7746 13.5127C10.6982 13.36 10.5455 13.2072 10.3164 13.1309Z" fill="#139AD6"/>
<path d="M9.78168 12.9019C9.70532 12.9019 9.62895 12.8256 9.55259 12.8256C9.47622 12.8256 9.39986 12.8256 9.32349 12.7492C9.01804 12.6729 8.71258 12.6729 8.33076 12.6729H5.35255C5.27618 12.6729 5.19982 12.6729 5.12345 12.7492C4.97073 12.8256 4.89436 12.9783 4.89436 13.131L4.28345 17.102V17.2547C4.35981 17.0256 4.5889 16.7965 4.818 16.7965H5.96346C8.17803 16.7965 9.85804 15.8802 10.3926 13.3601C10.3926 13.2838 10.3926 13.2074 10.469 13.131C10.3162 13.0547 10.2399 12.9783 10.0871 12.9783C9.85804 12.9019 9.85804 12.9019 9.78168 12.9019Z" fill="#232C65"/>
</svg>
