<svg width="51" height="33" viewBox="0 0 51 33" fill="none" xmlns="http://www.w3.org/2000/svg">
<rect width="51" height="33" fill="white"/>
<path d="M25.4459 14.6821C25.4255 16.2865 26.8757 17.1818 27.9681 17.7142C29.0905 18.2603 29.4675 18.6106 29.4631 19.099C29.4547 19.8465 28.5678 20.1764 27.7378 20.1892C26.2899 20.2117 25.4479 19.7983 24.7786 19.4856L24.257 21.9264C24.9285 22.2359 26.172 22.5057 27.4614 22.5176C30.4882 22.5176 32.4684 21.0235 32.4791 18.707C32.491 15.767 28.4126 15.6043 28.4404 14.2902C28.4501 13.8917 28.8303 13.4665 29.6634 13.3584C30.0758 13.3038 31.2142 13.262 32.5049 13.8563L33.0115 11.4948C32.3174 11.2421 31.4253 11.0001 30.3146 11.0001C27.4657 11.0001 25.462 12.5145 25.4459 14.6821ZM37.8791 11.2035C37.3264 11.2035 36.8607 11.5259 36.6528 12.0206L32.3292 22.3441H35.3538L35.9556 20.6808H39.6516L40.0007 22.3441H42.6665L40.3402 11.2035H37.8791ZM38.3022 14.213L39.1751 18.3964H36.7846L38.3022 14.213ZM21.7787 11.2036L19.3947 22.344H22.2768L24.6598 11.2034H21.7787M17.5151 11.2034L14.5152 18.7862L13.3017 12.3388C13.1593 11.6191 12.597 11.2035 11.9726 11.2035H7.06869L7 11.527C8.00674 11.7455 9.15058 12.0978 9.84357 12.4748C10.2677 12.7051 10.3886 12.9064 10.5279 13.4537L12.8263 22.3441H15.872L20.5416 11.2035L17.5151 11.2034Z" fill="#4769D8"/>
</svg>
