<?xml version="1.0" ?><!DOCTYPE svg  PUBLIC '-//W3C//DTD SVG 1.1//EN'  'http://www.w3.org/Graphics/SVG/1.1/DTD/svg11.dtd'><svg height="512px" style="enable-background:new 0 0 512 512;" version="1.1" viewBox="0 0 512 512" width="512px" xml:space="preserve" xmlns="http://www.w3.org/2000/svg" xmlns:xlink="http://www.w3.org/1999/xlink"><g id="_x33_82-wordpress"><g><path d="M256,26.001c-126.778,0-230,103.129-230,229.999c0,126.778,103.221,229.999,230,229.999    c126.778,0,229.999-103.221,229.999-229.999C485.999,129.13,382.778,26.001,256,26.001z" style="fill:#32373C;"/><path d="M49.186,256c0-29.955,6.399-58.427,17.899-84.116l98.677,270.249    C96.762,408.56,49.186,337.798,49.186,256z" style="fill:#FFFFFF;"/><path d="M256,462.812c-20.311,0-39.879-2.966-58.428-8.438l62.044-180.289l63.528,174.168    c0.465,1.021,0.928,1.948,1.484,2.876C303.206,458.641,280.111,462.812,256,462.812z" style="fill:#FFFFFF;"/><path d="M284.471,159.086c12.427-0.649,23.65-1.948,23.65-1.948c11.129-1.298,9.831-17.714-1.299-17.064    c0,0-33.479,2.597-55.088,2.597c-20.311,0-54.44-2.597-54.44-2.597c-11.127-0.649-12.427,16.416-1.298,17.064    c0,0,10.574,1.299,21.703,1.948l32.18,88.289l-45.258,135.682l-75.307-223.971c12.428-0.649,23.649-1.948,23.649-1.948    c11.129-1.298,9.831-17.714-1.298-17.064c0,0-33.48,2.597-55.089,2.597c-3.895,0-8.439-0.093-13.354-0.278    C120.226,86.282,183.753,49.188,256,49.188c53.79,0,102.849,20.587,139.667,54.253c-0.927-0.093-1.762-0.186-2.689-0.186    c-20.31,0-34.684,17.715-34.684,36.726c0,17.064,9.83,31.438,20.31,48.504c7.882,13.726,17.063,31.438,17.063,57.036    c0,17.714-6.77,38.208-15.765,66.866l-20.589,68.907L284.471,159.086L284.471,159.086z" style="fill:#FFFFFF;"/><path d="M359.963,434.713l63.156-182.608c11.781-29.491,15.769-53.048,15.769-74.101    c0-7.604-0.465-14.652-1.392-21.238c16.136,29.492,25.316,63.251,25.316,99.234C462.813,332.328,421.451,398.914,359.963,434.713z    " style="fill:#FFFFFF;"/></g></g><g id="Layer_1"/></svg>